<svg width="22" height="18" viewBox="0 0 22 18" fill="white" xmlns="http://www.w3.org/2000/svg"><path fill-rule="evenodd" clip-rule="evenodd" d="M4.1494 5.72854L0.856796 0.200012H3.8L5.71981 3.40001H21.0662L16.7735 11.6927H7.69372L4.1494 5.72854ZM7.34505 6.06668L9.23774 9.02603H15.1254L16.7515 6.06668H7.34505Z"/><path d="M11.1495 15.826C11.1495 16.9306 10.2541 17.826 9.14949 17.826C8.04492 17.826 7.14948 16.9306 7.14948 15.826C7.14948 14.7215 8.04492 13.826 9.14949 13.826C10.2541 13.826 11.1495 14.7215 11.1495 15.826Z"/><path d="M14.4828 17.826C15.5874 17.826 16.4828 16.9306 16.4828 15.826C16.4828 14.7215 15.5874 13.826 14.4828 13.826C13.3782 13.826 12.4828 14.7215 12.4828 15.826C12.4828 16.9306 13.3782 17.826 14.4828 17.826Z"/></svg>