<svg width="111" height="14" viewBox="0 0 111 14" fill="white" xmlns="http://www.w3.org/2000/svg"><path fill-rule="evenodd" clip-rule="evenodd" d="M36.2325 10.4381C36.1691 11.4665 35.8695 11.9891 34.844 11.9891L34.6866 12.4799H39.4664L39.6079 11.9891C38.6297 11.9891 38.6771 11.2367 38.7245 10.531L39.5131 0.277709C38.8666 0.538698 37.8251 0.968496 37.0051 1.04575L30.68 10.2849C30.1749 11.0218 29.4971 11.8359 28.535 11.9891L28.3775 12.4799H32.0211L32.1632 11.9891C30.68 11.9891 31.3112 10.9452 31.7689 10.2395L32.5735 9.04163H36.3279L36.2325 10.4381ZM36.7529 3.36219L36.3746 8.16646H33.204L36.4693 3.42321L36.7529 3.36219ZM50.1757 10.5303C49.8448 11.6807 49.4031 12.0339 48.1407 12.0339L47.9833 12.4793H53.7092L53.8667 12.0339C52.589 12.0644 52.4155 11.6197 52.7151 10.5303L55.0963 2.45652C55.4279 1.30544 55.8536 0.952911 57.1153 0.952911L57.21 0.523121H47.8558L47.6984 0.952911C49.2129 0.952911 48.834 2.02673 48.471 2.96357L45.3478 10.8218C45.111 11.4048 44.3223 11.9119 43.8646 11.8651C43.3916 11.8346 42.9499 11.4503 42.9339 10.99C42.9025 10.3453 43.6438 10.0843 43.9434 10.0843C43.9434 9.53115 43.3128 9.02475 42.6503 9.07084C41.9878 9.11629 41.2619 9.74604 41.2619 10.6212C41.2619 11.7112 42.1139 12.7085 43.3442 12.7085C44.5585 12.7085 45.7888 12.2332 46.2465 11.0666L49.4018 3.08497C49.9535 1.68913 50.7422 1.05938 51.6255 1.0899C52.4148 1.10483 52.7144 1.8878 52.5249 2.56364L50.1757 10.5303ZM68.7106 3.89975H69.0576L70.0037 0.523121H59.6413L58.5364 3.89975H58.9468C59.6567 2.45652 61.7864 1.09055 63.427 1.0451L60.5394 10.5303C60.1771 11.7729 59.6086 11.9885 58.2849 11.9885L58.1902 12.4793H64.4205L64.5159 11.9885C63.2376 11.9885 62.7492 11.7885 63.1281 10.5303L65.9664 1.0451C67.6057 1.0451 68.7106 2.36433 68.7106 3.89975ZM76.5022 2.45717C76.8018 1.42879 77.2281 0.953555 78.4111 0.953555L78.5532 0.523775H72.9367L72.7632 0.953555C74.0262 0.953555 74.2464 1.3366 73.9308 2.45717L71.5803 10.531C71.1713 11.9891 69.4993 12.0346 69.4993 12.0346L69.4038 12.4799H75.019L75.1611 12.0346C74.1357 12.0346 73.7106 11.6509 74.0729 10.6225L80.398 3.70043L78.4104 10.531C78.1108 11.5593 77.6378 12.0346 76.4542 12.0346L76.3588 12.4799H81.9893L82.1001 12.0346C80.8857 12.0346 80.6169 11.6665 80.9324 10.531L83.3304 2.45717C83.646 1.36712 84.103 0.953555 85.366 0.953555L85.5235 0.523775H79.893L79.7508 0.953555C80.6329 0.953555 80.9651 1.10613 80.8857 1.91961V2.16566L74.576 8.93451L76.5022 2.45717ZM91.5663 2.45717C91.8659 1.45931 92.0707 0.999 93.2537 0.953555L93.3491 0.523775H87.9855L87.828 0.953555C89.0897 0.953555 89.3112 1.27558 88.9642 2.45717L86.5823 10.531C86.2828 11.6048 85.7457 12.0346 84.5467 12.0346L84.4373 12.4799H90.0838L90.2259 12.0346C88.9956 12.0346 88.8848 11.5282 89.1691 10.531L90.1152 7.39973L91.1253 6.55574L93.3344 10.6231C93.65 11.2062 93.239 11.9891 92.4977 11.9891L92.3403 12.4183H97.5291L97.6712 11.9891C96.7252 11.8963 96.4569 11.2678 96.0786 10.531L93.1596 4.89762L96.2988 2.25785C97.0401 1.64433 97.7026 0.99965 98.7434 0.953555L98.8856 0.523775H94.8643L94.7222 0.953555C96.2521 0.953555 95.2907 2.15074 94.7536 2.58052L90.5262 5.92599L91.5663 2.45717ZM106.678 10.4381C106.614 11.4516 106.299 11.9891 105.29 11.9891L105.148 12.4799H109.926L110.069 11.9891C109.044 11.9891 109.138 11.2522 109.187 10.531L109.975 0.277709C109.265 0.584793 108.288 0.968496 107.482 1.04575L101.126 10.2849C100.622 11.0218 99.9584 11.8359 98.997 11.9891L98.8549 12.4799H102.467L102.625 11.9891C101.095 11.9891 101.773 10.9452 102.23 10.2395L103.035 9.04163H106.789L106.678 10.4381ZM107.23 3.36219L106.835 8.16646H103.68L106.93 3.42321L107.23 3.36219ZM22.336 6.1253C23.5816 6.1253 24.7172 6.7544 24.7172 8.02883C24.7172 10.0544 22.9818 11.8041 20.9789 11.8041C20.6473 11.8041 20.4111 11.4821 20.5058 11.1594L21.941 6.1253H22.336ZM19.4964 0.523121L19.4016 0.783461C18.2974 1.18209 17.1298 1.50475 15.9789 1.44372C13.4868 1.35153 11.1203 -0.0300157 8.61226 0.000497995C6.32509 0.0465931 3.65961 1.5515 2.88632 3.86859C4.17936 2.91682 6.16696 2.04231 7.88701 1.98063C10.395 1.90402 12.7449 3.27 15.2536 3.33168C16.8622 3.36219 18.9919 2.39549 19.8753 0.998351C20.8534 1.12106 20.7427 1.71964 20.5379 2.45652L18.1559 10.5303C17.825 11.6807 17.352 12.0339 16.0583 12.0339L15.9475 12.4793H22.0357C24.3703 12.4793 27.32 11.0672 27.32 8.56574C27.32 6.27917 24.7806 5.44945 22.8404 5.44945H22.1939L23.4242 1.18274H24.0707C26.4206 1.18274 27.6196 1.61252 28.2981 3.83872H28.645L28.2667 0.523775H19.4964V0.523121ZM7.1611 4.66713C9.66911 4.63662 12.035 6.01752 14.543 6.10971C15.9468 6.17139 17.3506 5.69551 18.6757 5.17418C18.0292 6.83166 15.5999 8.05935 13.8171 8.01325C11.3091 7.95158 8.9432 6.58625 6.45052 6.64728C4.71513 6.69337 2.83828 7.55295 1.4505 8.55081C2.17708 6.27852 4.8112 4.71258 7.1611 4.66713ZM5.72594 9.34871C8.21795 9.31754 10.5838 10.6991 13.0919 10.7913C14.4957 10.853 15.8995 10.3771 17.2405 9.85511C16.578 11.5132 14.1647 12.7409 12.3666 12.6948C9.87461 12.6331 7.4927 11.2522 5.00002 11.3288C3.24928 11.3912 1.38778 12.2352 0 13.2324C0.741263 10.9594 3.36004 9.39415 5.72594 9.34871Z"/><path fill-rule="evenodd" clip-rule="evenodd" d="M29.4023 13.2778L28.992 12.8792H32.6356L33.0453 13.2778H29.4023ZM110.59 0.691895L111 1.07559L110.29 10.5764C110.275 10.9445 110.259 11.436 110.495 11.758C109.944 11.2055 109.769 11.1139 109.833 10.3771L110.59 0.691895ZM106.173 13.2778L105.763 12.8792H110.542L110.952 13.2778H106.173ZM105.494 7.79834L104.958 7.64446L106.393 5.51176L106.282 6.66219L105.494 7.79834ZM102.75 11.6963C102.055 11.1743 103.381 9.85444 103.649 9.45581H106.094V9.83951H104.06C103.76 10.2849 102.561 11.4976 103.176 12.1111L102.75 11.6963ZM99.879 13.2778L99.4687 12.8792H103.097L103.507 13.2778H99.879ZM93.3645 13.2311L92.9541 12.8324H98.143L98.5533 13.2311H93.3645ZM94.1217 1.78195C93.3164 1.85856 93.0169 2.10396 92.7013 2.872L92.4017 3.86922L91.7238 4.40613L92.1815 2.84084C92.1815 2.85578 92.4811 1.47487 93.8689 1.3671L94.1217 1.61251L94.2952 1.76572C94.2312 1.76572 94.1691 1.78195 94.1217 1.78195ZM94.1217 5.46501C94.0577 5.35789 94.011 5.25077 93.9483 5.14365L94.1217 4.98978L96.8973 2.56492C97.5438 1.9975 98.4586 1.42942 99.3579 1.36774L99.7683 1.76637C98.9003 1.82805 98.0336 2.36495 97.4017 2.88758L94.5634 5.38971L97.6699 11.56C97.3076 11.56 97.0548 11.2068 96.9287 10.9302C95.9841 9.11284 95.0484 7.29108 94.1217 5.46501ZM91.2668 7.99765L91.0933 8.15087L90.2253 11.1743C90.1786 11.3438 90.1786 11.4509 90.1786 11.6502C89.7682 11.6197 89.6261 11.3275 89.6888 11.0516L90.699 7.75159L90.9832 7.52176L91.2668 7.99765ZM85.4614 13.2778L85.0524 12.8792H90.699L91.094 13.2778H85.4614ZM82.4016 11.6048L81.8972 11.5593C81.3928 11.5593 81.7711 10.4232 81.8819 10.07L84.105 2.68762C84.4046 1.62808 85.0044 1.36774 86.0933 1.36774L86.5023 1.76637C85.5248 1.76637 84.8783 1.88907 84.562 2.88758L82.3389 10.2699C82.2749 10.5303 81.9126 11.4204 82.4016 11.6048ZM77.5277 3.27062L76.6757 5.92597L75.9184 6.70893L77.1814 2.68762C77.2595 2.38054 77.3863 2.11954 77.5284 1.93581C77.8753 1.48979 78.3964 1.36774 79.169 1.36774L79.578 1.76637C78.6166 1.76637 77.9701 1.88907 77.6545 2.88758L77.5277 3.27062ZM77.5277 8.79555L75.0984 11.4353C74.9096 11.4353 74.4993 11.3431 74.6881 11.036L77.5277 7.88988L79.137 6.09347L78.7107 7.52112L77.5277 8.79555ZM77.5277 13.2778H77.4016L76.9753 12.8792H82.6071L83.0161 13.2778H77.5277ZM70.4293 13.2778L70.019 12.8792H75.6342L76.0445 13.2778H70.4293ZM69.8769 4.69763H69.7348L69.3258 4.31394H69.6727L69.8776 3.57706L70.6188 0.937306L71.0292 1.321L70.0831 4.69763H69.8769ZM66.5802 1.4437L66.9906 1.84298L64.3885 10.714C64.3091 10.9906 64.2464 11.1438 64.3418 11.4353C64.0095 11.3736 63.6319 11.297 63.7099 11.0055L66.5802 1.4437ZM59.215 13.2778L58.8047 12.8792H65.035L65.4453 13.2778H59.215ZM59.9562 4.69763L59.5613 4.31394C60.1297 3.30049 61.4221 2.24225 62.5897 1.73521L62.2901 2.45649C61.292 2.94976 60.4763 3.73301 59.9562 4.69763ZM54.0722 11.6048L53.5671 11.5593C53.0467 11.5593 53.441 10.4082 53.5511 10.07L55.7595 2.68762C56.0751 1.59757 56.6269 1.36774 57.7311 1.36774L58.1415 1.76637C57.1954 1.76637 56.5168 1.88907 56.2172 2.88758L54.0088 10.2699C53.8987 10.6686 53.7092 11.2522 54.0722 11.6048ZM50.145 13.2778H49.0094L48.5991 12.8792H54.3251L54.7354 13.2778H50.145ZM44.4191 10.9594C44.2456 11.0055 44.1035 11.0977 44.1195 11.2672C43.962 11.2977 43.6932 11.2211 43.6618 11.0367C43.6144 10.6692 43.9614 10.5614 44.4191 10.4998C44.4665 10.4998 44.5138 10.4848 44.5612 10.4848L44.9709 10.8997C44.8761 10.899 44.6239 10.899 44.4191 10.9594ZM44.4191 13.3388C44.1195 13.3083 43.914 13.2622 43.8826 13.246C44.0401 13.2311 44.2296 13.2006 44.4191 13.185C45.3025 13.0467 46.3593 12.7091 46.7536 11.6956L50.145 3.14663L50.3185 2.71749C50.4446 2.36366 51.1545 1.41254 51.7063 1.4885C51.2966 2.21044 51.0124 2.36366 50.5233 3.63809L50.145 4.60479L47.4162 11.6035C46.769 13.2622 45.2551 13.4005 44.4191 13.3388ZM40.1283 0.691895L40.5386 1.07559L39.9395 10.4693C39.9395 10.7763 39.8921 11.4665 40.0502 11.758C39.4511 11.4665 39.4037 11.1139 39.4511 10.3771C39.6239 7.13808 39.8761 3.91531 40.1283 0.691895ZM35.7114 13.2778L35.3011 12.8792H40.0809L40.4913 13.2778H35.7114ZM35.0495 7.79834L34.4971 7.64446L35.9483 5.51176L35.8222 6.66219L35.0495 7.79834ZM32.3047 11.6963C31.7055 11.3126 32.9512 9.77783 33.1567 9.45581H35.6327V9.83951H33.5977C33.3468 10.2213 32.2046 11.5918 32.7077 12.0735L32.3047 11.6963ZM29.6705 4.6366L29.2602 4.25226L28.8659 0.937306L29.2762 1.321L29.6705 4.6366ZM26.4366 2.4104C26.105 2.22667 25.7421 2.01177 25.3484 1.99619H24.433L23.5977 4.97355L23.0612 4.94303L24.0394 1.61185C25.3324 1.6125 25.5853 1.58199 26.4366 2.4104ZM22.6195 8.13593L21.7048 11.3593C21.4366 11.3593 21.2157 11.2827 21.2625 10.9912L22.5562 6.55572H22.6189C23.1239 6.55572 23.7551 6.80113 23.9753 7.27636C23.8339 7.18417 23.1393 6.93876 22.9658 6.93876L22.6195 8.13593ZM22.6195 13.2778C22.4147 13.2927 22.1939 13.2927 21.973 13.2927L17.0044 13.2778L16.5627 12.8941H17.0044L21.8943 12.8792C22.1311 12.8792 22.3834 12.8636 22.6195 12.848C25.3804 12.6643 27.9825 11.3743 27.9825 8.22812C28.0933 8.50469 28.2507 8.98058 28.3455 9.37921C28.0773 10.9757 26.863 13.0778 22.6195 13.2778ZM5.11079 12.1423C7.22449 12.1423 9.85861 13.431 11.9883 13.4466C13.1713 13.4622 14.8273 12.9097 16.0109 12.5877C15.3484 13.2473 13.4081 14.0147 11.8936 13.9997C9.78055 13.9997 6.6567 12.5877 4.55901 12.6033C3.07649 12.6033 2.55607 12.9103 1.40381 13.4167C2.33456 12.4643 3.78573 12.1423 5.11079 12.1423ZM17.0044 4.22239C16.2945 4.4678 15.4898 4.63725 14.7806 4.63725C12.6515 4.63725 9.5597 3.2096 7.42999 3.22453C5.96281 3.22453 5.44239 3.54655 4.27479 4.0536C5.23689 3.07067 6.68873 2.77917 7.99778 2.77917C10.1275 2.77917 12.7456 4.06853 14.8753 4.08411C15.5065 4.08411 16.2638 3.93089 17.005 3.73093C17.6836 3.56213 18.3301 3.36282 18.8979 3.19402C18.5343 3.54655 17.8244 3.93024 17.0044 4.22239ZM17.0044 8.24306C16.137 8.7962 14.5911 9.33376 13.3447 9.31753C11.215 9.31753 8.09186 7.90546 5.99417 7.92104C4.51164 7.92104 3.99122 8.22812 2.83963 8.73452C3.77038 7.78275 5.23689 7.46074 6.54661 7.46074C8.67566 7.46074 11.2944 8.74945 13.4402 8.76568C14.465 8.78061 15.8848 8.35083 17.005 8.02881C17.1625 7.98272 17.3206 7.93597 17.4627 7.9061C17.3353 8.01258 17.1932 8.13594 17.0044 8.24306Z"/></svg>