<svg width="16" height="13" viewBox="0 0 16 13" fill="white" xmlns="http://www.w3.org/2000/svg"><path fill-rule="evenodd" clip-rule="evenodd" d="M1.35803 5.52888C5.49235 3.72762 8.24922 2.54013 9.62862 1.96639C13.5671 0.32824 14.3855 0.0436763 14.9189 0.0342799C15.0362 0.0322132 15.2985 0.0612881 15.4684 0.199164C15.6119 0.315583 15.6514 0.472849 15.6703 0.583228C15.6892 0.693606 15.7127 0.945051 15.694 1.14152C15.4806 3.38402 14.5571 8.82597 14.0872 11.3376C13.8884 12.4004 13.497 12.7567 13.118 12.7916C12.2945 12.8674 11.6691 12.2473 10.8714 11.7244C9.62322 10.9062 8.91807 10.3969 7.70648 9.59846C6.30628 8.67575 7.21397 8.16862 8.01194 7.33981C8.22078 7.12291 11.8495 3.82235 11.9197 3.52294C11.9285 3.48549 11.9366 3.34591 11.8537 3.27221C11.7708 3.1985 11.6484 3.22371 11.5601 3.24375C11.4349 3.27216 9.44087 4.59013 5.57804 7.19764C5.01205 7.5863 4.49939 7.77566 4.04007 7.76574C3.5337 7.7548 2.55965 7.47943 1.83554 7.24405C0.947396 6.95535 0.241516 6.80271 0.302983 6.31241C0.334998 6.05703 0.686681 5.79585 1.35803 5.52888Z"/></svg>