<svg width="420" height="467" viewBox="0 0 420 467" fill="none" xmlns="http://www.w3.org/2000/svg"><path d="M263.93 1.66636L7.92087 111.071C1.88908 113.649 -0.910058 120.629 1.667 126.659L140.006 450.374C144.233 460.267 153.915 466.58 164.671 466.459C175.426 466.336 184.964 459.811 188.969 449.827C190.728 445.442 194.091 442.003 198.436 440.146C202.782 438.289 207.59 438.236 211.975 439.995C225.545 445.439 240.063 444.856 252.552 439.519C265.04 434.183 275.496 424.093 280.94 410.524C283.382 404.437 280.427 397.522 274.339 395.078C268.253 392.637 261.338 395.592 258.893 401.679C252.883 416.66 235.802 423.96 220.82 417.949C199.611 409.441 175.432 419.772 166.923 440.984C166.468 442.114 165.619 442.694 164.404 442.707C163.185 442.721 162.326 442.16 161.847 441.04L64.9833 214.377L299.15 114.306L396.014 340.97C396.492 342.089 396.304 343.099 395.452 343.97C394.599 344.842 393.597 345.054 392.464 344.599C371.257 336.091 347.078 346.423 338.567 367.631L333.614 379.977C331.172 386.065 334.127 392.98 340.215 395.423C346.301 397.864 353.216 394.909 355.66 388.823L360.614 376.476C362.373 372.092 365.736 368.653 370.081 366.796C374.426 364.939 379.234 364.886 383.62 366.645C393.604 370.651 404.916 368.269 412.434 360.578C419.954 352.888 422.082 341.527 417.856 331.637L279.517 7.92084C276.941 1.88987 269.962 -0.911308 263.93 1.66636ZM55.6497 192.534L28.1767 128.246L262.343 28.1761L289.816 92.4635L55.6497 192.534Z" /><path d="M303.073 215.094L242.637 240.921C236.605 243.499 229.626 240.697 227.049 234.667C224.472 228.637 227.271 221.657 233.303 219.079L293.739 193.252C299.771 190.674 306.75 193.475 309.327 199.506C311.904 205.536 309.105 212.516 303.073 215.094Z" /><path d="M328.743 275.16L268.306 300.988C262.274 303.566 255.295 300.764 252.718 294.734C250.141 288.704 252.94 281.724 258.972 279.146L319.409 253.319C325.441 250.741 332.42 253.542 334.997 259.573C337.574 265.603 334.775 272.583 328.743 275.16Z" /><path d="M205.155 274.96C199.934 273.895 191.944 274.043 180.789 275.418L169.032 247.907C172.529 247.359 175.641 248.057 178.447 249.996C180.702 251.592 182.631 253.837 184.177 256.668C185.205 258.546 187.491 259.337 189.459 258.496L201.855 253.199C202.887 252.758 203.696 251.92 204.1 250.873C204.504 249.827 204.469 248.663 204.001 247.643C199.914 238.728 193.685 232.606 185.486 229.447C178.425 226.729 170.217 226.651 161.042 229.209L158.524 223.317C157.622 221.206 155.18 220.226 153.069 221.129L146.29 224.026C144.179 224.928 143.199 227.37 144.101 229.481L146.604 235.337C138.126 239.923 132.402 246.297 129.562 254.327C126.392 263.311 126.565 272.028 130.072 280.235C134.002 289.43 140.034 295.518 147.974 298.321C154.747 300.767 163.449 301.046 173.877 299.16L187.263 330.483C182.347 331.337 178.357 330.515 175.15 328.003C173.445 326.662 170.663 323.579 167.093 316.512C166.104 314.554 163.767 313.702 161.75 314.564L149.233 319.913C147.122 320.816 146.142 323.258 147.044 325.369C150.885 334.358 155.33 340.703 160.614 344.753C169.735 351.817 181.385 353.325 195.284 349.252L199.136 358.265C200.038 360.376 202.48 361.356 204.591 360.454L211.37 357.557C213.481 356.655 214.461 354.212 213.559 352.101L209.65 342.954C216.689 338.601 221.857 334.024 225.048 329.309C231.856 319.188 232.249 307.007 226.227 293.129C221.922 283.056 214.834 276.943 205.155 274.96ZM150.164 270.685C148.853 267.617 148.666 264.232 149.584 260.356C150.169 257.958 151.826 255.792 154.53 253.886L164.882 278.109C161.96 278.294 159.331 278.043 157.039 277.36C153.878 276.385 151.694 274.265 150.164 270.685ZM189.907 296.755C194.01 296.475 196.443 296.708 197.85 297.012C202.258 297.963 205.249 300.602 207.263 305.315C208.585 308.408 209.082 311.336 208.782 314.278C208.361 318.521 206.101 322.001 201.907 324.834L189.908 296.756L189.907 296.756L189.907 296.755Z" /></svg>