<?xml version="1.0" standalone="no"?>
<!DOCTYPE svg PUBLIC "-//W3C//DTD SVG 20010904//EN"
 "http://www.w3.org/TR/2001/REC-SVG-20010904/DTD/svg10.dtd">
<svg version="1.0" xmlns="http://www.w3.org/2000/svg"
 width="512.000000pt" height="512.000000pt" viewBox="0 0 512.000000 512.000000"
 preserveAspectRatio="xMidYMid meet">

<g transform="translate(0.000000,512.000000) scale(0.100000,-0.100000)"
fill="#000000" stroke="none">
<path d="M2315 4213 c-1134 -45 -2046 -341 -2260 -734 -49 -92 -55 -132 -55
-415 0 -307 7 -344 90 -462 45 -65 160 -175 210 -202 20 -11 20 -16 20 -725
l0 -714 22 -25 c35 -40 78 -43 116 -11 l32 27 0 665 c0 629 1 665 17 660 10
-3 62 -25 116 -48 l97 -43 0 -271 c0 -269 0 -272 23 -292 37 -35 87 -34 122 2
l25 24 0 242 c0 226 1 241 18 234 9 -3 76 -22 147 -40 858 -225 2103 -229
2970 -10 94 24 178 46 188 50 16 7 17 -8 17 -237 0 -241 0 -245 23 -265 37
-35 87 -34 122 2 l25 24 0 269 0 268 98 43 c53 23 105 45 115 48 16 5 17 -31
17 -660 l0 -665 32 -27 c38 -32 81 -29 116 11 l22 25 0 713 0 712 65 48 c119
87 211 210 240 321 21 80 22 544 1 621 -22 83 -66 154 -146 235 -162 163 -423
295 -806 404 -508 146 -1219 223 -1839 198z m815 -193 c750 -70 1331 -237
1631 -466 198 -151 231 -304 102 -462 -92 -113 -334 -249 -603 -340 -326 -111
-685 -179 -1170 -224 -182 -17 -882 -17 -1065 0 -622 57 -1096 168 -1443 338
-268 132 -402 269 -402 411 1 74 23 123 90 196 256 280 970 495 1850 557 160
11 860 4 1010 -10z m-2914 -1131 c10 -12 55 -45 99 -74 560 -370 1764 -557
2890 -450 738 71 1378 263 1672 502 29 24 55 43 58 43 3 0 5 -25 5 -55 0 -208
-317 -424 -843 -575 -1206 -347 -3063 -202 -3726 290 -133 98 -191 186 -191
285 0 60 7 66 36 34z"/>
</g>
</svg>
