<?xml version="1.0" standalone="no"?>
<!DOCTYPE svg PUBLIC "-//W3C//DTD SVG 20010904//EN"
 "http://www.w3.org/TR/2001/REC-SVG-20010904/DTD/svg10.dtd">
<svg version="1.0" xmlns="http://www.w3.org/2000/svg"
 width="76.000000pt" height="90.000000pt" viewBox="0 0 76.000000 90.000000"
 preserveAspectRatio="xMidYMid meet">
<metadata>
Created by potrace 1.16, written by Peter Selinger 2001-2019
</metadata>
<g transform="translate(0.000000,90.000000) scale(0.100000,-0.100000)"
fill="#000000" stroke="none">
<path d="M280 889 c-49 -20 -101 -85 -100 -126 1 -10 7 -1 15 20 23 67 63 96
145 110 22 4 21 4 -5 5 -16 0 -41 -4 -55 -9z"/>
<path d="M439 889 c55 -11 87 -31 111 -72 11 -18 20 -27 20 -20 0 20 -53 75
-87 89 -18 8 -45 14 -60 13 -21 -1 -17 -3 16 -10z"/>
<path d="M290 850 c-13 -9 -13 -10 0 -9 8 1 26 5 40 9 l25 8 -25 1 c-14 0 -32
-4 -40 -9z"/>
<path d="M435 850 c11 -5 27 -9 35 -9 13 -1 13 0 0 9 -8 5 -24 9 -35 9 l-20 0
20 -9z"/>
<path d="M242 818 c-7 -7 -12 -16 -12 -22 0 -5 6 -1 14 10 14 18 15 17 29 -16
15 -34 15 -35 -16 -56 -29 -20 -33 -20 -39 -5 -5 12 -7 11 -7 -6 -1 -29 1 -29
49 3 l39 26 -14 35 c-8 20 -15 37 -15 39 0 8 -17 3 -28 -8z"/>
<path d="M482 805 c-17 -38 -14 -45 5 -11 15 28 16 29 29 11 8 -10 14 -14 14
-9 0 11 -20 34 -30 34 -4 0 -12 -11 -18 -25z"/>
<path d="M310 811 c0 -24 14 -41 34 -40 21 0 21 0 -1 9 -27 11 -30 27 -5 33
13 4 11 5 -5 6 -13 0 -23 -3 -23 -8z"/>
<path d="M423 813 c24 -6 21 -22 -5 -33 -23 -9 -23 -9 -2 -9 20 -1 34 16 34
40 0 5 -10 8 -22 8 -17 -1 -19 -2 -5 -6z"/>
<path d="M221 764 c0 -11 3 -14 6 -6 3 7 2 16 -1 19 -3 4 -6 -2 -5 -13z"/>
<path d="M531 764 c0 -11 3 -14 6 -6 3 7 2 16 -1 19 -3 4 -6 -2 -5 -13z"/>
<path d="M572 760 c0 -14 2 -19 5 -12 2 6 2 18 0 25 -3 6 -5 1 -5 -13z"/>
<path d="M541 727 c-1 -12 -6 -16 -13 -11 -10 5 -10 4 -1 -6 16 -17 26 -8 20
17 -4 17 -5 17 -6 0z"/>
<path d="M173 670 c0 -36 2 -50 4 -32 2 17 2 47 0 65 -2 17 -4 3 -4 -33z"/>
<path d="M277 700 c-26 -16 -47 -32 -47 -35 0 -7 14 1 53 29 18 13 52 23 90
27 l62 6 -56 1 c-46 2 -63 -3 -102 -28z"/>
<path d="M583 670 c0 -36 2 -50 4 -32 2 17 2 47 0 65 -2 17 -4 3 -4 -33z"/>
<path d="M483 689 c26 -17 51 -28 56 -25 5 4 12 -8 14 -26 3 -29 4 -28 5 10 2
39 -11 58 -20 30 -3 -7 -18 -2 -43 15 -22 15 -44 27 -49 27 -5 0 11 -14 37
-31z"/>
<path d="M200 654 c0 -57 20 -111 57 -152 l34 -37 -29 40 c-38 50 -56 107 -49
151 3 19 2 34 -4 34 -5 0 -9 -16 -9 -36z"/>
<path d="M185 575 c4 -16 17 -47 31 -68 25 -39 105 -97 133 -97 8 0 -9 12 -37
26 -57 28 -93 69 -117 130 -12 31 -14 33 -10 9z"/>
<path d="M541 584 c0 -11 3 -14 6 -6 3 7 2 16 -1 19 -3 4 -6 -2 -5 -13z"/>
<path d="M571 584 c0 -11 3 -14 6 -6 3 7 2 16 -1 19 -3 4 -6 -2 -5 -13z"/>
<path d="M556 543 c-6 -14 -5 -15 5 -6 7 7 10 15 7 18 -3 3 -9 -2 -12 -12z"/>
<path d="M502 510 c-12 -16 -39 -39 -60 -49 -20 -11 -33 -20 -29 -21 24 -1 91
50 108 83 15 26 5 20 -19 -13z"/>
<path d="M522 491 c-11 -16 -44 -40 -73 -55 -29 -14 -46 -26 -37 -26 22 0 108
60 126 88 21 32 10 27 -16 -7z"/>
<path d="M306 459 c6 -10 72 -31 83 -27 5 2 -12 10 -39 19 -27 8 -47 12 -44 8z"/>
<path d="M153 380 c-51 -28 -98 -61 -104 -73 -11 -20 -10 -20 14 3 14 14 64
46 111 70 74 39 88 43 105 33 28 -18 39 -16 15 2 -29 22 -41 19 -141 -35z"/>
<path d="M466 415 c-11 -8 -16 -15 -10 -15 5 0 18 7 28 15 11 8 16 15 10 15
-5 0 -18 -7 -28 -15z"/>
<path d="M510 425 c0 -2 23 -16 50 -30 28 -14 50 -23 50 -20 0 2 -22 16 -50
30 -27 14 -50 23 -50 20z"/>
<path d="M175 350 c-69 -39 -115 -80 -115 -103 0 -7 9 2 19 19 12 19 48 47 97
74 l79 43 37 -21 c21 -11 38 -17 38 -13 0 7 -65 41 -78 41 -4 -1 -38 -18 -77
-40z"/>
<path d="M350 385 c0 -18 24 -75 32 -75 11 0 11 0 -12 45 -11 22 -20 35 -20
30z"/>
<path d="M470 375 c-29 -17 -19 -20 12 -4 15 8 28 8 47 0 24 -11 25 -10 7 4
-24 18 -34 18 -66 0z"/>
<path d="M396 365 c-9 -26 -7 -32 5 -12 6 10 9 21 6 23 -2 3 -7 -2 -11 -11z"/>
<path d="M640 356 c0 -3 9 -10 20 -16 11 -6 20 -8 20 -6 0 3 -9 10 -20 16 -11
6 -20 8 -20 6z"/>
<path d="M592 338 c9 -7 31 -21 48 -30 18 -10 39 -35 50 -60 11 -24 20 -36 20
-27 0 30 -45 84 -90 107 -25 13 -37 18 -28 10z"/>
<path d="M331 328 c-2 -13 42 -118 49 -118 10 0 22 31 15 38 -3 3 -5 0 -5 -6
0 -16 -20 -15 -21 1 -1 14 -37 95 -38 85z"/>
<path d="M411 299 c-6 -18 -9 -34 -7 -36 2 -2 9 10 15 28 6 18 9 34 7 36 -2 2
-9 -10 -15 -28z"/>
<path d="M699 315 c17 -33 31 -51 31 -40 0 6 -10 21 -21 35 -13 17 -17 18 -10
5z"/>
<path d="M736 235 c14 -58 24 -83 18 -40 -3 22 -10 47 -15 55 -6 10 -7 5 -3
-15z"/>
<path d="M158 233 c7 -3 16 -2 19 1 4 3 -2 6 -13 5 -11 0 -14 -3 -6 -6z"/>
<path d="M266 221 c23 -10 45 -24 48 -30 9 -14 123 -14 132 0 3 6 25 20 48 30
22 10 34 19 25 19 -9 0 -33 -11 -53 -25 -51 -34 -121 -34 -172 0 -20 14 -44
25 -53 25 -9 0 3 -9 25 -19z"/>
<path d="M588 233 c7 -3 16 -2 19 1 4 3 -2 6 -13 5 -11 0 -14 -3 -6 -6z"/>
<path d="M5 200 c-4 -17 -5 -34 -2 -36 2 -3 7 10 11 27 8 42 0 50 -9 9z"/>
<path d="M44 194 c-3 -19 -3 -39 2 -44 5 -5 10 10 10 36 2 53 -3 56 -12 8z"/>
<path d="M105 212 c-11 -9 -27 -26 -35 -37 -8 -11 4 -4 25 15 22 19 42 36 44
38 2 1 0 2 -5 2 -5 -1 -18 -8 -29 -18z"/>
<path d="M664 187 c45 -48 57 -50 55 -9 l-1 27 -8 -30 c-4 -16 -8 -25 -9 -19
-1 12 -61 74 -71 74 -4 0 12 -20 34 -43z"/>
<path d="M188 203 c6 -2 18 -2 25 0 6 3 1 5 -13 5 -14 0 -19 -2 -12 -5z"/>
<path d="M548 203 c6 -2 18 -2 25 0 6 3 1 5 -13 5 -14 0 -19 -2 -12 -5z"/>
<path d="M120 173 c-26 -22 -31 -32 -28 -60 2 -18 2 -33 -2 -33 -10 0 -61 37
-76 56 -15 18 -15 18 -5 -3 14 -29 77 -67 98 -58 14 5 15 8 4 14 -24 15 -8 64
28 88 19 13 29 23 23 23 -6 0 -25 -12 -42 -27z"/>
<path d="M483 183 c-13 -8 -23 -21 -23 -27 0 -8 3 -7 8 1 4 6 21 19 37 27 17
9 23 16 15 15 -8 0 -25 -7 -37 -16z"/>
<path d="M621 177 c36 -24 48 -59 29 -82 -10 -12 -9 -16 4 -21 20 -8 83 31 97
59 10 21 10 21 -5 3 -16 -20 -66 -56 -78 -56 -4 0 -4 15 -1 33 4 29 0 37 -27
60 -17 15 -36 27 -42 27 -6 0 4 -10 23 -23z"/>
<path d="M260 188 c0 -2 9 -11 20 -21 11 -9 20 -13 20 -7 0 5 -9 14 -20 20
-11 6 -20 9 -20 8z"/>
<path d="M149 149 l-24 -21 25 16 c36 23 77 20 106 -9 23 -23 32 -25 121 -25
87 0 98 2 125 25 34 29 73 32 108 9 l25 -16 -24 21 c-31 28 -73 26 -109 -4
-27 -23 -38 -25 -122 -25 -84 0 -95 2 -122 25 -36 30 -78 32 -109 4z"/>
<path d="M148 113 c12 -2 32 -2 45 0 12 2 2 4 -23 4 -25 0 -35 -2 -22 -4z"/>
<path d="M568 113 c12 -2 32 -2 45 0 12 2 2 4 -23 4 -25 0 -35 -2 -22 -4z"/>
<path d="M208 77 c-3 -19 -2 -25 4 -19 6 6 8 18 6 28 -3 14 -5 12 -10 -9z"/>
<path d="M540 81 c0 -11 4 -22 9 -25 4 -3 6 6 3 19 -5 30 -12 33 -12 6z"/>
<path d="M264 39 c-10 -12 -28 -25 -39 -30 -18 -7 -18 -8 -2 -8 10 -1 28 10
41 24 22 23 30 25 117 25 87 0 96 -2 118 -25 13 -14 31 -25 40 -24 12 0 11 2
-4 8 -11 5 -29 18 -39 30 -29 32 -203 32 -232 0z"/>
<path d="M135 30 c10 -11 20 -20 23 -20 3 0 -3 9 -13 20 -10 11 -20 20 -23 20
-3 0 3 -9 13 -20z"/>
<path d="M619 34 c-7 -9 -22 -20 -34 -24 -14 -6 -15 -9 -4 -9 8 -1 26 10 39
24 13 14 21 25 18 25 -3 0 -12 -7 -19 -16z"/>
</g>
</svg>
