<svg xmlns="http://www.w3.org/2000/svg" viewBox="0 0 60 60" width="60" height="60"><path d="M42.73,13,47,17.27,26.47,37.77l-4.24-4.24L42.73,13m0-4.24L18,33.53,26.47,42,51.22,17.27,42.73,8.78Z"/><path d="M51.93,3.83l4.24,4.24-2.64,2.64L49.29,6.47l2.64-2.64m0-3.83a1,1,0,0,0-.71.29L45,6.47,53.53,15l6.18-6.18a1,1,0,0,0,0-1.42L52.64.29A1,1,0,0,0,51.93,0Z"/><path d="M17.15,40.8l2.05,2.05-3.42,1.37,1.37-3.42m-1.1-5.34L10.4,49.6,24.54,44l-8.49-8.49Z" /><path d="M50,24.14V56H4V10H35.86l4-4H2A2,2,0,0,0,0,8V58a2,2,0,0,0,2,2H52a2,2,0,0,0,2-2V20.14Z" /></svg>