<svg width="11" height="15" viewBox="0 0 11 15" fill="#1567BA" xmlns="http://www.w3.org/2000/svg"><path d="M5.25 0.75C2.32422 0.75 0 3.12891 0 6C0 7.96875 0.628906 8.57031 4.12891 14.1484C4.64844 14.9688 5.82422 14.9688 6.34375 14.1484C9.84375 8.57031 10.5 7.96875 10.5 6C10.5 3.10156 8.12109 0.75 5.25 0.75ZM5.25 13.4375C1.75 7.85938 1.3125 7.50391 1.3125 6C1.3125 3.83984 3.0625 2.0625 5.25 2.0625C7.41016 2.0625 9.1875 3.83984 9.1875 6C9.1875 7.50391 8.75 7.80469 5.25 13.4375ZM3.0625 6C3.0625 7.23047 4.01953 8.1875 5.25 8.1875C6.45312 8.1875 7.4375 7.23047 7.4375 6C7.4375 4.79688 6.45312 3.8125 5.25 3.8125C4.01953 3.8125 3.0625 4.79688 3.0625 6Z"/></svg>
