<svg xmlns="http://www.w3.org/2000/svg" xmlns:xlink="http://www.w3.org/1999/xlink" viewBox="0 0 1600 540" width="1600" height="540"><defs><style>.cls-1{fill:none;stroke-miterlimit:10;stroke-width:1px;stroke:url(#fi=gradient);}</style><linearGradient id="fi=gradient" x1="901.67" y1="410.56" x2="139.18" y2="262.6" gradientTransform="matrix(1, 0, 0, -1, 0, 755)" gradientUnits="userSpaceOnUse"><stop offset="0" stop-color="#eaeaea"/><stop offset="1" stop-color="#eaeaea" stop-opacity="0"/></linearGradient></defs><title>lines</title><path class="cls-1" d="M1551.48,76.29C1298.21-34.58,1153.33,296.18,991.65,335.88c-233,57.2-345.13-210.62-438.13-65.09-93.1,145.69-182.09,274.11-328.21,94.13S.82,308.41.82,308.41M1.66,312c1.49.29,82-126.14,227.63,50.59S463,418.84,556.54,274.87c93.75-144,204,112.83,438.3,55.86,162.26-39.45,307.2-358.31,557.37-248M2.37,315.55c3,.6,85.51-128.9,230.65,44.71s232.4,61,326.4-81.4c94.49-142.52,203,103.48,438.49,46.75,162.94-39.35,307.83-346.29,554.88-236.56M3.23,319.23c4.48.9,89.13-131.68,233.8,38.8s231.05,65.72,325.69-75c95.2-141.13,201.83,94.06,438.66,37.52,163.52-39.09,308.35-334.11,552.29-224.94M4.06,322.79C10,324,96.69,188.34,240.88,355.7S470.58,426.14,565.72,287c96-139.5,200.81,84.72,438.88,28.54,164.06-39,309-322.09,549.8-213.49M4.78,326.38c7.59,1.46,96.12-137.21,240,27s228,75,324-62.34c96.41-138.18,199.78,75.38,439.05,19.31C1172.44,271.64,1317.28.43,1555,108.34M5.61,329.94c9.11,1.87,99.77-139.88,243,21.11C392,512.13,475.28,430.73,571.74,295,668.9,158.33,770.51,361,1011,305.2c165.22-38.46,310-297.74,544.72-190.43M6.44,333.5c10.61,2.17,103.27-142.64,246.13,15.19s225.33,84.41,322.3-49.76c97.89-135.17,197.73,56.69,439.44,1.09,165.77-38.33,310.63-285.72,542.22-179M7.28,337.05c12.1,2.48,106.76-145.39,249.15,9.32S480.28,435.52,578,303c98.51-133.63,196.59,47.39,439.64-8C1184,256.89,1328.8,21.42,1557.29,127.61M8,340.64c13.59,2.77,110.37-148.18,252.3,3.4s222.49,93.87,320.75-37c99.23-132.24,195.69,38,439.84-17.12C1187.77,252,1332.67,28.54,1558,134M8.82,344.2c15.09,3.07,113.87-150.95,255.32-2.49S485.26,440.18,584,311c100-130.74,194.52,28.58,440-26.35C1191.63,247,1336.33,35.32,1558.73,140.34M9.66,347.76c16.58,3.36,117.36-153.71,258.46-8.41s219.76,103.19,319-24.41c100.71-129.22,193.49,19.25,440.2-35.45,168.14-37.59,312.93-237.2,532.07-132.84M10.4,351.47c18.07,3.66,121-156.5,261.48-14.29s218.29,107.93,318.34-18c101.42-127.84,192.47,9.91,440.4-44.57C1199.33,237.25,1344,49.43,1560.18,153.2M11.23,355c19.57,4,124.51-159.14,264.63-20.21s216.93,112.65,317.48-11.74c102-126.3,191.44.57,440.59-53.68C1203.19,232.2,1348,56.4,1561,159.61m-1549,199c21.19,4.23,128-161.89,267.65-26.08s215.58,117.36,316.66-5.34c102.78-124.8,190.42-8.77,440.75-62.9,169.85-37,314.59-200.83,524.49-98.32M12.9,362.14c22.55,4.56,131.5-164.65,270.67-32s214.23,122.08,315.79.94c103.53-123.28,189.4-18.1,441-72,170.38-36.82,315.21-188.81,522-86.74M13.61,365.73c24.17,4.82,135.12-167.44,273.82-37.89s212.84,126.68,315,7.35c104.27-121.77,188.23-27.54,441.15-81.11,171-36.57,315.73-176.63,519.54-75.28M14.44,369.29c25.67,5.12,138.61-170.21,277-43.8s211.49,131.39,314.24,13.6c105-120.38,187.2-36.88,441.34-90.22,171.51-36.43,316.23-164.58,516.94-63.67M15.28,372.85c27.18,5.53,142.23-173,280-49.69s210,136.14,313.4,20C714.39,224.29,794.84,297,1050.18,243.72c172.2-36.21,316.87-152.43,514.44-52.21M16,376.43c28.68,5.84,145.72-175.75,283.13-55.6s208.8,141,312.57,26.42c106.47-117.37,185.15-55.55,441.83-108.58,172.76-36.08,317.39-140.26,512-40.76M16.85,380.11C47,386.25,166.1,201.72,303,318.63s207.3,145.58,311.72,32.7c107.08-115.83,184.13-64.89,442-117.69,173.33-35.83,318-128.24,509.37-29.14M17.68,383.67c31.67,6.43,152.87-181.18,289.3-67.4s205.95,150.3,310.86,39c107.83-114.32,183.1-74.23,442.22-126.8,173.89-35.7,318.53-116.06,506.88-17.69M18.39,387.26c33.29,6.7,156.49-184,292.44-73.32S515.43,469,621,359.31c108.54-112.94,181.93-83.66,442.26-136,174.46-35.44,319.16-104,504.3-6.08M19.23,390.82c34.65,7,159.86-186.71,295.46-79.21S517.93,471.35,624,363.27c109.28-111.43,180.9-93,442.58-145.14,175-35.31,319.67-91.86,501.81,5.38M20.06,394.38c36.27,7.29,163.48-189.5,298.48-85.09S520.43,473.74,627,367.35C737,257.43,806.9,265,1069.8,213.11c175.59-35.06,320.31-79.72,499.33,17M20.9,397.93c37.76,7.59,167-192.25,301.62-91S523.06,476.1,630.13,371.28C740.9,262.87,809,259.6,1073.11,207.93c176.14-34.93,320.82-67.67,496.72,28.44M21.61,401.52c39.25,7.89,170.46-195,304.65-96.89s199.18,173.89,306.9,70.73c111.51-106.9,177.84-121,443.18-172.46,176.83-34.71,321.45-55.52,494.22,39.9M22.44,405.08c40.75,8.18,174.11-197.68,307.79-102.8s197.83,178.6,306,77C748.53,273.89,813.1,248.93,1079.63,197.6c177.41-34.45,322-43.35,491.76,51.48M23.28,408.64C65.52,417.12,200.88,208.2,334.09,300s196.47,183.33,305.22,83.41C752.3,279.48,815,243.57,1082.84,192.58c178-34.33,322.6-31.33,489.16,63M24,412.35c43.76,8.9,181.1-203.2,314-114.61s195.25,188,304.49,89.68C756.19,285,817.08,238.29,1086.19,187.52c178.54-34.07,323.12-19.15,486.69,74.55M24.85,415.91c45.26,9.19,184.72-206,317-120.49s193.77,192.76,303.51,96c114.47-100.86,173.59-158.47,443.93-209,179.08-33.94,323.61-7.1,484.19,86M25.68,419.46C72.44,429,213.9,210.71,345.81,293.06S538.22,490.54,648.48,395.45c115.35-99.38,172.57-167.8,444.13-218.11,179.67-33.68,324.26,5,481.6,97.62M26.52,423c48.24,9.8,191.71-211.51,323.14-132.29s191.06,202.2,302,108.65C767.69,301.51,823.15,222.24,1095.9,172c180.21-33.55,324.78,17.22,479.11,109.07M27.23,426.61c49.86,10.06,195.33-214.3,326.29-138.2s189.83,206.88,301.11,115C771.46,307.09,825.15,217,1099.12,167c180.79-33.31,325.4,29.24,476.62,120.52M28.06,430.17c51.36,10.36,198.85-216.94,329.31-144.09S545.85,497.69,657.63,407.42c117.57-94.86,169.47-196,444.68-245.55,181.46-33.21,325.93,41.41,474,132.13M28.9,433.73c52.84,10.65,202.34-219.7,332.45-150S548.47,500.05,660.9,411.44c118.31-93.35,168.33-205.26,444.89-254.66,182-32.95,326.53,53.44,471.54,143.59M29.61,437.31c54.34,11,206-222.49,335.48-155.88s185.76,221,298.69,134c119.2-91.75,167.45-214.5,445.08-263.77,182.59-32.82,327.06,65.61,469,155.2M30.47,441c55.84,11.25,209.46-225.26,338.62-161.81S553.54,505.07,667,419.6c119.79-90.33,166.27-223.93,445.24-273,183.16-32.57,327.71,77.75,466.46,166.65M31.3,444.55c57.33,11.55,213-228,341.65-167.69S556,507.47,670,423.56c120.56-88.7,165.25-233.27,445.44-282.1,183.71-32.44,328.2,89.8,464,178.23M32.14,448.11C91,460,248.71,217.31,376.93,274.51s181.73,235.32,296.18,153.1C794.53,340.39,837.34,185,1118.74,136.4c184.28-32.18,328.85,102,461.38,189.72M32.85,451.7c60.31,12.14,220.07-233.56,347.81-179.49s180.5,240,295.44,159.36c122.17-85.71,163.21-251.95,445.83-300.32,184.84-32,329.35,114,458.89,201.18M33.68,455.26c61.84,12.56,223.57-236.32,351-185.41S563.82,514.7,679.25,435.62c122.91-84.2,162-261.38,446-309.55,185.41-31.8,329.87,126.18,456.43,212.76M34.52,458.82c63.45,12.83,227.21-239,354-191.29S566.32,517.09,682.25,439.58C805.93,357,843.29,169,1128.47,121.05c186.09-31.7,330.52,138.32,453.82,224.24M35.23,462.4c65,13.13,230.7-241.75,357.12-197.2S568.82,519.49,685.28,443.66c124.55-81.1,160.11-280.09,446.39-327.76,186.66-31.45,331,150.37,451.35,235.82M36.06,466c66.44,13.43,234.2-244.51,360.14-203.09S571.47,522,688.43,447.71c125.16-79.56,159-289.4,446.56-337C1322.19,79.4,1466.64,273.24,1583.84,358M36.92,469.64c67.94,13.72,237.82-247.3,363.29-209S574.13,524.45,691.58,451.76c125.91-78.05,157.79-298.83,446.63-346.07,187.79-31.06,332.17,174.7,446.26,258.89M37.76,473.2c69.43,14,241.31-250.06,366.31-214.89s172.56,268.54,290.51,197.4c126.8-76.44,156.76-308.16,446.94-355.2,188.34-30.93,332.8,186.72,443.78,270.35M38.47,476.79C109.39,491.1,283.28,224,407.92,256S579.16,529.36,697.6,459.79c127.55-74.93,155.87-317.53,447.15-364.3,188.91-30.68,333.31,198.89,441.28,281.8M39.3,480.35C111.72,495,287.73,224.74,411.78,253.66S581.66,531.75,700.6,463.75C829,390.42,855.44,136.88,1148.06,90.31c189.5-30.43,333.94,210.91,438.7,293.41M40.14,483.9c73.91,14.92,252-258.24,375.62-232.6S584.31,534.23,703.87,467.77C832.93,396,857.45,131.62,1151.26,85.16c190-30.29,334.45,223.09,436.2,304.87M40.85,487.49c75.52,15.18,255.57-261,378.76-238.52S586.94,536.6,706.87,471.73C836.7,401.57,859.54,126.21,1154.61,80.1c190.73-30.07,335.1,235.24,433.61,316.48M41.68,491.05c77.05,15.6,259.06-263.8,381.79-244.4s166,292.46,286.43,229.16C840.59,407.13,861.55,121,1157.8,75,1349.08,45,1493.4,322.24,1588.92,402.89M42.51,494.61c78.42,15.92,262.56-266.56,384.84-250.17S592,541.62,712.93,479.89C844.48,412.69,863.52,115.57,1161,69.81c191.87-29.69,336.12,259.46,428.66,339.51M43.35,498.17c80,16.19,266-269.32,388-256.21S594.62,544,716,483.7C848.22,418.16,865.59,110,1164.31,64.63c192.41-29.56,336.74,271.48,426,351M44.09,501.88c81.53,16.49,269.67-272.11,391-262.09s162,306.74,284,248.11c133.06-64.06,148.42-383,448.46-428.3,193-29.3,337.25,283.66,423.54,362.46M44.92,505.43c83,16.79,273.17-274.86,394.12-268S599.69,549,722.2,491.83C856,429.4,869.6,99.52,1170.85,54.42c193.54-29.17,337.91,295.81,421.09,374M45.76,509c84.51,17.09,276.69-277.5,397.14-273.89S602.34,551.5,725.22,495.91C859.83,435.11,871.6,94.26,1174.08,49.39c194.11-28.91,338.39,307.86,418.47,385.53M46.47,512.58c86,17.38,280.31-280.3,400.28-279.81S604.84,553.89,728.22,499.86c135.35-59.28,145.36-411,449.05-455.61,194.66-28.79,339,320,416,397.1M47.3,516.14c87.5,17.68,283.81-283.06,403.31-285.69s156.76,326,280.76,273.47C867.49,446.26,875.7,83.59,1180.61,39.19,1376,10.63,1520.15,371.24,1594.12,447.75m-1546,72c89,18,287.29-285.82,406.45-291.61S610,558.89,734.49,507.84c136.9-56,143.28-429.78,449.41-473.95,195.91-28.44,340.18,344.2,410.91,420.05m-1546,69.34c90.49,18.28,290.91-288.6,409.47-297.49S612.43,561.43,737.4,512C875.15,457.41,879.53,72.85,1187,28.89,1383.49.71,1527.71,385.26,1595.43,460.52M49.68,526.84c92.11,18.55,294.41-291.36,412.62-303.4S615.06,563.79,740.52,515.88C879.05,463,881.63,67.44,1190.31,23.71c197-28,341.33,368.4,406,443.09M50.54,530.52c93.6,18.84,297.91-294.13,415.64-309.29S617.8,566.64,743.57,520.08c139.36-51,140.09-457.77,450-501.27C1391.18-9,1535.41,399.38,1596.93,473.5M51.38,534.08c95.09,19.14,301.52-296.92,418.78-315.2S620.42,569,746.82,524C886.91,474.46,885.88,56.87,1197,13.48c198.15-27.67,342.36,392.74,400.86,466.15m-1545.76,58c96.61,19.56,305-299.56,421.8-321.09S622.8,571.43,749.72,528.09c140.84-48,138-476.57,450.36-519.61,198.74-27.41,343,404.77,398.28,477.76m-1545.44,55c98.08,19.73,308.55-302.32,425-327s147.56,359.57,275,317.8C894.42,485.51,889.83,46.11,1203.4,3.3,1402.68-24,1546.91,420.24,1599.18,492.52" transform="translate(-0.4 -1.6)"/></svg>