<svg xmlns="http://www.w3.org/2000/svg" viewBox="0 0 30 30" width="30" height="30"><path d="M29.3,21.8c-0.2-0.2-0.2-0.2-2.1-1.4c-3.4-2.3-4-2.6-4.3-2.8c-0.6-0.3-1.3-0.3-2,0c-0.3,0.1-0.9,0.4-1.3,0.6l-0.9,0.5l2.5,1.9l0.4-0.2c0.2-0.1,0.3-0.1,0.4-0.1c0.5,0.3,2,1.3,3.6,2.4l1.6,1.1c-0.1,0.1-0.2,0.3-0.3,0.4c-0.5,0.7-1.1,1.3-1.7,1.9c-0.6,0.6-0.9,0.8-1.2,1l0,0c-0.7,0-1.2-0.2-1.9-0.4c-3.1-1-6.8-3.7-10.9-7.8S4.5,11.3,3.5,8.2C3.1,7.5,2.9,6.9,2.9,6.4V6.3C3,6,3.1,5.8,3.6,5.3C4,4.8,4.7,4.2,5.5,3.6C5.6,3.5,6,3.2,6.2,3C6.3,3.3,6.6,3.7,7,4.2c0.8,1.2,1.9,2.9,2.6,4v0.1c0,0.1,0,0.1-0.1,0.2c-0.1,0.1-0.6,1-1.3,2.4l-0.7,1.3l0.3,0.6c0.4,0.7,1.3,1.9,2.4,3.1c2.2,2.4,6.1,5.9,7.8,7l0.6,0.4l0.5-0.5c0.4-0.5,0.5-0.5,0.9-0.9l0.7-0.7l-1.1-0.8c-0.5-0.4-1.3-1-1.5-1.1c-1.1-0.9-2.6-2.3-3.9-3.5c-1.6-1.6-2.6-2.7-3.3-3.7l0,0c0.9-1.6,1.3-2.2,1.4-2.6c0.2-0.5,0.2-0.8,0.2-1.2c0-0.7-0.1-1-0.5-1.6c-0.7-1.1-3.5-5.4-3.7-5.6c-0.4-0.6-1.1-1-1.9-1c-0.1,0-0.3,0-0.4,0C5.6,0.2,5.2,0.3,4.8,0.5C4.5,0.7,4.1,1,3.4,1.6C2.7,2.1,2.3,2.5,1.8,3S0.9,3.9,0.6,4.4C0.3,4.8,0,5.3,0,5.9s0.1,1.6,0.3,2.5c0.8,3.1,3,6.6,6.6,10.5c0.9,1,2.6,2.7,3.6,3.6c2.6,2.4,5,4.2,7.2,5.5c2.2,1.3,4.3,2,6.1,2c0.1,0,0.2,0,0.2,0c0.3,0,0.5,0,0.8-0.1c1.4-0.5,3.3-2.7,4-3.7c0.6-0.7,0.9-1.2,1.1-1.8C30.2,23.4,29.9,22.5,29.3,21.8z"/></svg>