<?xml version="1.0" encoding="utf-8"?>
<!-- Generator: Adobe Illustrator 23.0.1, SVG Export Plug-In . SVG Version: 6.00 Build 0)  -->
<svg version="1.1" id="Слой_1" xmlns="http://www.w3.org/2000/svg" xmlns:xlink="http://www.w3.org/1999/xlink" x="0px" y="0px"
	 viewBox="0 0 273 40" style="enable-background:new 0 0 273 40;" xml:space="preserve">
<style type="text/css">
	.st0{display:none;fill:#313538;}
	.st1{fill:#313538;}
</style>
<path class="st0" d="M0,33.6c0-8.3,6.7-15,15-15h24.9c3.3,0,6.6-1.1,9.2-3.1l9-7c2.9-2.2,6.9-2.2,9.8,0l9,7c2.6,2,5.9,3.1,9.2,3.1
	H258c8.3,0,15,6.7,15,15v6.5H0V33.6z"/>
<path class="st1" d="M39.9,18.6c3.3,0,6.6-1.1,9.2-3.1l9-7c2.9-2.2,6.9-2.2,9.8,0l9,7c2.6,2,5.9,3.1,9.2,3.1H39.9z"/>
</svg>
