<svg width="14" height="14" viewBox="0 0 14 14" fill="white" xmlns="http://www.w3.org/2000/svg"><path fill-rule="evenodd" clip-rule="evenodd" d="M3.17641 4.5542H0.175781V13.9999H3.17641V4.5542Z"/><path fill-rule="evenodd" clip-rule="evenodd" d="M3.3757 1.63156C3.35622 0.705409 2.72408 0 1.69759 0C0.671089 0 0 0.705409 0 1.63156C0 2.53852 0.651254 3.26424 1.65864 3.26424H1.67781C2.72408 3.26424 3.3757 2.53852 3.3757 1.63156Z"/><path fill-rule="evenodd" clip-rule="evenodd" d="M14.0004 8.58367C14.0004 5.68235 12.5201 4.33203 10.5455 4.33203C8.95237 4.33203 8.23909 5.24884 7.84084 5.89199V4.55409H4.83984C4.87939 5.44042 4.83984 13.9998 4.83984 13.9998H7.84084V8.72454C7.84084 8.44224 7.86031 8.16062 7.93965 7.95851C8.15652 7.39453 8.65029 6.81062 9.47928 6.81062C10.5655 6.81062 10.9997 7.67677 10.9997 8.94609V13.9996H14.0002L14.0004 8.58367Z"/></svg>
