<svg width="44" height="45" viewBox="0 0 44 45" fill="#F87023" xmlns="http://www.w3.org/2000/svg"><path d="M15.2408 21.2404C15.2639 21.1248 15.3794 20.8243 15.4718 20.547C16.1186 18.8136 17.6201 14.7227 15.5873 9.10632C13.3928 3.07396 8.61121 0 1.40411 0C1.01141 0 0.711117 0.323575 0.711117 0.693374C0.711117 1.06317 1.03451 1.38675 1.40411 1.38675C4.40706 1.38675 6.97113 1.96456 9.0039 3.09707C11.4063 4.4376 13.1618 6.61017 14.2475 9.54545C16.1186 14.6764 14.7788 18.282 14.1551 20.0154C13.9472 20.547 13.8317 20.8706 13.8317 21.171C13.8086 22.0031 15.4949 26.5562 16.442 29.0986L13.6007 30.0925C13.2311 30.208 13.0463 30.6009 13.1618 30.9707C13.1849 31.0401 13.3697 31.6179 13.6007 32.1264L8.9577 32.4962C8.6574 32.5193 8.38021 32.7504 8.33401 33.0508C8.28781 33.3513 8.40331 33.6749 8.6805 33.8136L12.8384 36.1248L11.7759 36.7488C11.6373 36.8413 11.5218 36.9569 11.4756 37.1186L9.88169 41.6256C9.44279 42.4114 8.49571 42.7812 7.64102 42.4576L2.60529 40.6317C2.28189 40.5162 1.9123 40.6549 1.7506 40.9553L0.0874257 43.9599C-0.0973717 44.3066 0.0181266 44.7227 0.364622 44.9076C0.48012 44.9769 0.595618 45 0.711117 45C0.965213 45 1.19621 44.8613 1.33481 44.6302L2.69769 42.1572L7.17903 43.775C8.7036 44.3297 10.413 43.6595 11.1753 42.2265C11.1984 42.2034 11.1984 42.1572 11.2215 42.1341L12.746 37.8351L13.67 37.3035C14.0627 37.0724 14.3168 36.6795 14.3399 36.2404C14.3861 35.8012 14.2013 35.3621 13.8548 35.0847C13.8086 35.0616 13.7855 35.0385 13.7393 35.0154L11.4294 33.7211L14.132 33.5131C14.5247 33.4669 14.8712 33.2357 15.056 32.8891C15.2408 32.5193 15.2177 32.1032 15.0098 31.7565C14.9174 31.6179 14.825 31.4099 14.7557 31.2019L17.6201 30.2311C17.8049 30.1618 17.9435 30.0462 18.0359 29.8613C18.1283 29.6995 18.1283 29.4915 18.059 29.3066C16.6961 25.8166 15.3101 21.8875 15.2408 21.2404Z"/><path d="M34.298 4.55322H28.3382C22.9791 4.55322 18.6133 8.69036 18.6133 13.7751V19.3914C18.6133 21.564 19.4218 23.6672 20.9232 25.3313C22.0782 26.6256 23.5566 27.5733 25.2198 28.1048L21.2697 31.433C21.0156 31.6642 20.9463 32.034 21.108 32.3344C21.2466 32.5424 21.4776 32.6811 21.7086 32.6811C21.801 32.6811 21.8934 32.658 21.9627 32.6349L32.1959 28.5902H34.2749C39.634 28.5902 43.9998 24.4531 43.9998 19.3683V13.7751C44.0229 8.69036 39.6571 4.55322 34.298 4.55322ZM42.6138 19.3914C42.6138 23.6904 38.8948 27.2035 34.298 27.2035H32.0804H32.0573C32.0342 27.2035 32.0342 27.2035 32.0111 27.2035H31.988H31.9649C31.9418 27.2035 31.9418 27.2035 31.9187 27.2035H31.8956C31.8725 27.2035 31.8725 27.2035 31.8494 27.2266C31.8494 27.2266 31.8494 27.2266 31.8263 27.2266L25.4739 29.7227L27.1833 28.2666C27.2064 28.2666 27.2064 28.2435 27.2064 28.2435C27.2064 28.2435 27.2064 28.2435 27.2295 28.2204C27.2526 28.1973 27.2526 28.1973 27.2757 28.1742C27.2757 28.1742 27.2757 28.1511 27.2988 28.1511C27.2988 28.128 27.3219 28.128 27.3219 28.1048L27.345 28.0817C27.345 28.0817 27.345 28.0586 27.3681 28.0586C27.3681 28.0355 27.3912 28.0124 27.3912 28.0124C27.3912 27.9893 27.4143 27.9662 27.4143 27.9431C27.4143 27.9431 27.4143 27.9431 27.4143 27.9199C27.4143 27.8968 27.4143 27.8737 27.4374 27.8737V27.8506C27.4374 27.8275 27.4374 27.8275 27.4374 27.8044C27.4374 27.7813 27.4374 27.7813 27.4374 27.7582V27.735C27.4374 27.7119 27.4374 27.7119 27.4374 27.6888V27.6657C27.4374 27.6426 27.4374 27.6426 27.4374 27.6195V27.5964V27.5733V27.5501V27.527C27.4374 27.5039 27.4374 27.5039 27.4143 27.5039C27.4143 27.5039 27.4143 27.4808 27.3912 27.4808C27.3912 27.4808 27.3912 27.4577 27.3681 27.4577L27.345 27.4346L27.3219 27.4115C27.3219 27.3884 27.2988 27.3884 27.2988 27.3884C27.2988 27.3884 27.2988 27.3652 27.2757 27.3652C27.2757 27.3421 27.2526 27.3421 27.2295 27.319C27.2295 27.319 27.2295 27.319 27.2064 27.2959C27.1833 27.2728 27.1833 27.2728 27.1602 27.2497L27.1371 27.2266L27.114 27.2035C27.0909 27.2035 27.0909 27.1803 27.0678 27.1803H27.0447C26.9985 27.1572 26.9523 27.1341 26.9061 27.1341C26.9061 27.1341 26.9061 27.1341 26.883 27.1341C26.8599 27.1341 26.8368 27.1341 26.8368 27.111C24.9426 26.7874 23.2101 25.8398 21.9627 24.43C20.7154 23.0201 20.0224 21.2404 20.0224 19.4145V13.7751C20.0224 9.47618 23.7414 5.96308 28.3382 5.96308H34.298C38.8717 5.96308 42.6138 9.47618 42.6138 13.7751V19.3914Z"/><path d="M37.5317 11.2327H25.0348C24.6421 11.2327 24.3418 11.5562 24.3418 11.926C24.3418 12.319 24.6652 12.6194 25.0348 12.6194H37.5317C37.9244 12.6194 38.2247 12.2958 38.2247 11.926C38.2247 11.5562 37.9244 11.2327 37.5317 11.2327Z"/><path d="M37.5317 15.855H25.0348C24.6421 15.855 24.3418 16.1786 24.3418 16.5484C24.3418 16.9413 24.6652 17.2417 25.0348 17.2417H37.5317C37.9244 17.2417 38.2247 16.9182 38.2247 16.5484C38.2247 16.1554 37.9244 15.855 37.5317 15.855Z"/><path d="M32.6346 20.3621H25.0348C24.6421 20.3621 24.3418 20.6856 24.3418 21.0554C24.3418 21.4483 24.6652 21.7488 25.0348 21.7488H32.6346C33.0273 21.7488 33.3276 21.4252 33.3276 21.0554C33.3507 20.6625 33.0273 20.3621 32.6346 20.3621Z"/></svg>
