<svg xmlns="http://www.w3.org/2000/svg" viewBox="0 0 200 200" width="50" height="50"><rect fill="none" width="200" height="200"/><path d="M184,123.5H170V97H105V79.5h14a8.51,8.51,0,0,0,8.5-8.5V33a8.51,8.51,0,0,0-8.5-8.5H81A8.51,8.51,0,0,0,72.5,33V71A8.51,8.51,0,0,0,81,79.5H95V97H30v26.5H16A8.51,8.51,0,0,0,7.5,132v38a8.51,8.51,0,0,0,8.5,8.5H54a8.51,8.51,0,0,0,8.5-8.5V132a8.51,8.51,0,0,0-8.5-8.5H40V107H95v16.5H81a8.51,8.51,0,0,0-8.5,8.5v38a8.51,8.51,0,0,0,8.5,8.5h38a8.51,8.51,0,0,0,8.5-8.5V132a8.51,8.51,0,0,0-8.5-8.5H105V107h55v16.5H146a8.51,8.51,0,0,0-8.5,8.5v38a8.51,8.51,0,0,0,8.5,8.5h38a8.51,8.51,0,0,0,8.5-8.5V132A8.51,8.51,0,0,0,184,123.5ZM82.5,34.5h35v35h-35Zm-30,134h-35v-35h35Zm65,0h-35v-35h35Zm65,0h-35v-35h35Z"/></svg>