<svg xmlns="http://www.w3.org/2000/svg" viewBox="0 0 200 200" width="50" height="50"><rect fill="none" width="200" height="200"/><polygon points="33.45 30 20.83 0 8.22 30 17.33 20.61 17.33 200 24.33 200 24.33 20.61 33.45 30"/><polygon points="170 191.52 200 178.91 170 166.3 179.39 175.41 0 175.41 0 182.41 179.39 182.41 170 191.52"/><path d="M110.85,31.08l-60,28.17h0V124l60,27h0l60-27V59.26h0ZM63.08,61.13,110.85,38.7l47.78,22.43-47.78,21.5Zm-4.26,5.65,47.94,21.66v53.17L58.82,120ZM115,141.61V88.44l47.94-21.66V120Z"/></svg>