<svg width="32" height="32" viewBox="0 0 32 32" fill="#d5c9be" xmlns="http://www.w3.org/2000/svg"><path class="st1" d="M21.3,27.7H10.7c-3.5,0-6.3-2.8-6.3-6.3V10.7c0-3.5,2.8-6.3,6.3-6.3h10.7c3.5,0,6.3,2.8,6.3,6.3v10.7C27.7,24.8,24.8,27.7,21.3,27.7z M10.7,6.3c-2.4,0-4.3,1.9-4.3,4.3v10.7c0,2.4,1.9,4.3,4.3,4.3h10.7c2.4,0,4.3-1.9,4.3-4.3V10.7c0-2.4-1.9-4.3-4.3-4.3H10.7z"/><path class="st1" d="M16,21c-2.8,0-5-2.2-5-5s2.2-5,5-5s5,2.2,5,5S18.8,21,16,21z M16,13c-1.7,0-3,1.3-3,3s1.3,3,3,3s3-1.3,3-3S17.7,13,16,13z"/><path class="st1" d="M22,11c-0.6,0-1-0.4-1-1s0.4-1,1-1s1,0.4,1,1S22.6,11,22,11z"/><rect y="0" class="st0" width="32" height="32" fill="none"/></svg>