<svg width="46" height="47" viewBox="0 0 46 47" fill="none" xmlns="http://www.w3.org/2000/svg"><path d="M19.1737 2.33184C21.3671 0.421923 24.6329 0.421923 26.8263 2.33184C28.1083 3.44816 29.8138 3.94896 31.4958 3.70294C34.3736 3.28203 37.121 5.04769 37.9336 7.84023C38.4085 9.47243 39.5726 10.8158 41.1206 11.5182C43.769 12.7199 45.1257 15.6907 44.2995 18.4792C43.8167 20.1091 44.0696 21.8686 44.9921 23.2964C46.5705 25.7392 46.1057 28.9718 43.9031 30.871C42.6157 31.9811 41.8772 33.598 41.8814 35.2979C41.8885 38.2063 39.7498 40.6744 36.87 41.0813C35.1868 41.3192 33.6915 42.2802 32.7759 43.7125C31.2095 46.1629 28.0759 47.083 25.4333 45.8684C23.8888 45.1585 22.1112 45.1585 20.5667 45.8684C17.9241 47.083 14.7905 46.1629 13.2241 43.7125C12.3085 42.2802 10.8132 41.3192 9.12998 41.0813C6.25022 40.6744 4.11153 38.2063 4.11862 35.2979C4.12276 33.598 3.38433 31.9811 2.09693 30.871C-0.105695 28.9718 -0.570477 25.7392 1.00786 23.2964C1.93037 21.8686 2.18334 20.1091 1.70045 18.4792C0.874282 15.6907 2.23097 12.7199 4.87945 11.5182C6.42744 10.8158 7.59149 9.47243 8.06643 7.84023C8.87902 5.04769 11.6264 3.28203 14.5042 3.70294C16.1862 3.94896 17.8917 3.44816 19.1737 2.33184Z"/></svg>