<svg width="32" height="32" viewBox="0 0 32 32" fill="#d5c9be" xmlns="http://www.w3.org/2000/svg"><path class="st1" d="M18.7,29h-5.3c-0.6,0-1-0.4-1-1v-8.3h-3c-0.6,0-1-0.4-1-1v-5.3c0-0.6,0.4-1,1-1h3v-1.7c0-2,0.8-4,2.2-5.4C16,3.8,18,3,20,3h4c0.6,0,1,0.4,1,1v5.3c0,0.6-0.4,1-1,1h-4c-0.1,0-0.2,0-0.2,0.1s-0.1,0.1-0.1,0.2v1.7H24c0.3,0,0.6,0.1,0.8,0.4s0.3,0.6,0.2,0.9l-1.3,5.3c-0.1,0.4-0.5,0.8-1,0.8h-3V28C19.7,28.6,19.2,29,18.7,29z M14.3,27h3.3v-8.3c0-0.6,0.4-1,1-1h3.2l0.8-3.3h-4.1c-0.6,0-1-0.4-1-1v-2.7c0-0.6,0.2-1.2,0.7-1.6c0.4-0.4,1-0.7,1.7-0.7h3V5h-3c-1.5,0-2.9,0.6-4,1.7c-1.1,1.1-1.7,2.5-1.7,4v2.7c0,0.6-0.4,1-1,1h-3v3.3h3c0.6,0,1,0.4,1,1V27z"/><rect y="0" class="st0" width="32" height="32" fill="none"/></svg>