<svg width="32" height="32" viewBox="0 0 32 32" fill="#d5c9be" xmlns="http://www.w3.org/2000/svg"><path class="st1" d="M22.7,27.7c-0.3,0-0.5-0.1-0.7-0.3l-5.9-5.9l-3.3,4.4c-0.2,0.3-0.6,0.4-1,0.4c-0.4-0.1-0.7-0.3-0.8-0.7L8.5,18l-5-2.5C3.2,15.4,3,15,3,14.6c0-0.4,0.3-0.7,0.6-0.9l24-9.3c0.3-0.1,0.7-0.1,1,0.2c0.3,0.2,0.4,0.6,0.3,1l-5.3,21.3c-0.1,0.3-0.4,0.6-0.7,0.7C22.8,27.7,22.8,27.7,22.7,27.7z M16.1,18.7l6,6L26.6,7L6.5,14.8l3.3,1.7c0.2,0.1,0.4,0.3,0.5,0.6l2.1,6.2l2.3-3.1L14,19.4c-0.2-0.2-0.3-0.4-0.3-0.7s0.1-0.5,0.3-0.7l5.3-5.3c0.4-0.4,1-0.4,1.4,0s0.4,1,0,1.4L16.1,18.7z"/><rect y="0" class="st0" width="32" height="32" fill="none"/></svg>