<svg xmlns="http://www.w3.org/2000/svg" viewBox="0 0 200 200" width="50" height="50"><rect fill="none" width="200" height="200"/><path d="M91.37,41.92c-39.86,1.58-71.92,12-79.44,25.8C10.21,71,10,72.35,10,82.3c0,10.79.25,12.09,3.16,16.24a32.57,32.57,0,0,0,7.38,7.1c.71.39.71,50.89.71,50.89h6s0-46.74.6-46.57c.35.11,7.49,3.2,7.49,3.2l.8,19.84h5.17s0-17.94.63-17.69c.32.1,2.68.77,5.17,1.4,30.16,7.91,73.92,8.05,104.39.35,3.3-.84,6.26-1.61,6.61-1.75.56-.25,1.4,17.69,1.4,17.69h5.17V113.16s7.13-3.09,7.49-3.2c.56-.17.59,46.57.59,46.57h6v-50.4l2.28-1.69c4.19-3,7.42-7.38,8.44-11.28.74-2.81.77-19.12,0-21.82a18,18,0,0,0-5.13-8.26c-5.69-5.73-14.87-10.37-28.33-14.2C138.15,43.74,113.16,41,91.37,41.92ZM120,48.7c26.36,2.46,46.78,8.33,57.33,16.38,7,5.31,8.12,10.68,3.58,16.24-3.23,4-11.74,8.75-21.19,12-11.46,3.9-24.08,6.29-41.12,7.87-6.4.6-31,.6-37.44,0-21.86-2-38.52-5.9-50.71-11.88q-14.13-7-14.13-14.44c0-2.61.8-4.33,3.16-6.89,9-9.85,34.09-17.4,65-19.58C90.14,48,114.74,48.21,120,48.7ZM17.59,88.45a25.81,25.81,0,0,0,3.48,2.6c19.68,13,62,19.58,101.58,15.82,25.94-2.5,48.43-9.24,58.76-17.64a14.18,14.18,0,0,1,2-1.52,5.17,5.17,0,0,1,.18,1.94c0,7.31-11.14,14.9-29.63,20.21C111.61,122.05,46.34,117,23,99.66c-4.67-3.44-6.71-6.53-6.71-10C16.33,87.54,16.57,87.33,17.59,88.45Z"/></svg>