<?xml version="1.0" encoding="utf-8"?>
<!-- Generator: Adobe Illustrator 23.0.1, SVG Export Plug-In . SVG Version: 6.00 Build 0)  -->
<svg version="1.1" id="Слой_1" xmlns="http://www.w3.org/2000/svg" xmlns:xlink="http://www.w3.org/1999/xlink" x="0px" y="0px"
	 viewBox="0 0 138 138" style="enable-background:new 0 0 138 138;" xml:space="preserve">
<style type="text/css">
	.st0{opacity:5.000000e-02;fill:#FFFFFF;}
	.st1{fill:#CD4B44;}
	.st2{fill:#46433E;}
</style>
<rect y="136.9" class="st0" width="138" height="1.3"/>
<rect class="st0" width="138" height="1.3"/>
<path class="st1" d="M135.1,64.9l-30.6-49.9c-1.1-1.8-3-2.9-5.1-2.9h-0.1H65H38.5c-2.1,0-4,1.1-5.1,2.9L2.9,64.9
	c-1.2,1.9-1.2,4.3,0,6.2l30.5,50.1c1.1,1.8,3,2.9,5.1,2.9h28.5h4.1h28.5c2.1,0,4-1.1,5.1-2.9l30.5-50.1
	C136.3,69.2,136.3,66.8,135.1,64.9z M96.2,112.1H71.1h-4.1H41.8l-26.9-44l26.9-44H65h31.2l26.9,44L96.2,112.1z"/>
<path class="st2" d="M98.4,59.6c0,13.3-9.2,22.2-22.8,22.2H64.8v16.8H48.7V37.6h26.8C89.5,37.6,98.4,46.3,98.4,59.6z M82.1,59.6
	c0-5.2-3.1-8.2-8.2-8.2h-9.2V68h9.2C79.1,68,82.1,64.9,82.1,59.6z"/>
</svg>
