<svg xmlns="http://www.w3.org/2000/svg" xmlns:xlink="http://www.w3.org/1999/xlink" viewBox="0 0 270 120" width="270" height="120"><path d="M72.9,102.9H43.5l-27-44.2l27-44.2l68.5,0l-5.6-9.1c-1.1-1.8-3-2.9-5.1-2.9H40.2c-2.1,0-4,1.1-5.1,2.9L4.4,55.5c-1.2,1.9-1.2,4.3,0,6.2L35,112c1.1,1.8,3,2.9,5.1,2.9h32.8V102.9z" fill="#CD4B44"/><g fill="#979695"><path d="M95.4,93.5c2,0,3.7,0.8,5,2.3c1.3,1.5,2,3.4,2,5.6c0,2.2-0.7,4.1-2,5.6c-1.3,1.5-3,2.3-5,2.3c-2.1,0-3.7-0.7-4.9-2.2v7.8h-4.2v-21h4.2v1.8C91.6,94.2,93.3,93.5,95.4,93.5z M94.2,97.2c-0.8,0-1.5,0.2-2.2,0.6s-1.2,1-1.5,1.6v3.9c0.4,0.7,0.9,1.2,1.5,1.6c0.7,0.4,1.4,0.6,2.2,0.6c1.2,0,2.2-0.4,2.9-1.2c0.8-0.8,1.1-1.8,1.1-3c0-1.2-0.4-2.2-1.1-3C96.4,97.6,95.4,97.2,94.2,97.2z"/><path d="M109.8,108.9h-4.2v-15h4.2v2.5c0.5-0.8,1.2-1.5,2.1-2c1-0.6,2-0.9,3.1-0.9c0.2,0,0.4,0,0.5,0v4.1c-0.4-0.1-0.8-0.2-1.3-0.2c-1,0-1.9,0.3-2.7,0.8c-0.8,0.5-1.4,1.1-1.7,1.8V108.9z"/><path d="M117.3,101.4c0-2.2,0.8-4.1,2.3-5.6c1.5-1.5,3.5-2.3,6-2.3c2.4,0,4.4,0.8,6,2.3c1.6,1.5,2.3,3.4,2.3,5.6c0,2.2-0.8,4.1-2.3,5.6c-1.6,1.5-3.6,2.3-6,2.3c-2.4,0-4.4-0.8-6-2.3C118.1,105.5,117.3,103.6,117.3,101.4z M121.5,101.4c0,1.2,0.4,2.2,1.2,3c0.8,0.8,1.8,1.2,3,1.2c1.2,0,2.2-0.4,3-1.2c0.8-0.8,1.2-1.8,1.2-3c0-1.2-0.4-2.2-1.2-3c-0.8-0.8-1.8-1.2-3-1.2c-1.2,0-2.2,0.4-3,1.2C121.9,99.2,121.5,100.2,121.5,101.4z"/><path d="M143.1,109.2c-2,0-3.7-0.8-5.1-2.3c-1.3-1.5-2-3.4-2-5.6c0-2.2,0.7-4.1,2-5.6c1.3-1.5,3-2.3,5.1-2.3c2.1,0,3.7,0.7,4.9,2.2v-7.9h4.2v21H148V107C146.9,108.5,145.3,109.2,143.1,109.2z M144.3,105.6c0.8,0,1.5-0.2,2.2-0.6c0.7-0.4,1.2-1,1.5-1.6v-3.9c-0.4-0.7-0.9-1.2-1.5-1.6c-0.7-0.4-1.4-0.6-2.2-0.6c-1.2,0-2.2,0.4-2.9,1.2c-0.8,0.8-1.1,1.8-1.1,3c0,1.2,0.4,2.2,1.1,3C142.1,105.2,143.1,105.6,144.3,105.6z"/><path d="M166.6,103.4v-9.5h4.2v15h-4.2v-1.8c-1.3,1.5-3,2.2-5,2.2c-1.7,0-3.1-0.5-4-1.6c-1-1.1-1.4-2.6-1.4-4.5v-9.2h4.2v8.3c0,1.1,0.3,1.9,0.8,2.4c0.5,0.5,1.2,0.8,2.1,0.8c0.6,0,1.3-0.2,1.9-0.6S166.2,104,166.6,103.4z"/><path d="M182.1,109.2c-2.2,0-4.1-0.7-5.7-2.2c-1.6-1.5-2.4-3.4-2.4-5.8c0-2.4,0.8-4.3,2.4-5.7c1.6-1.4,3.5-2.2,5.8-2.2c1.6,0,3.1,0.3,4.4,1v3.6c-1.3-0.6-2.6-0.9-3.8-0.9c-1.3,0-2.4,0.4-3.3,1.2c-0.9,0.8-1.3,1.8-1.3,3c0,1.2,0.5,2.3,1.3,3c0.9,0.8,2,1.2,3.3,1.2c1.5,0,2.9-0.3,4-1v3.6C185.4,108.9,183.9,109.2,182.1,109.2z"/><path d="M191.9,104.2v-6.8h-2.9v-3.5h2.9v-4.1h4.2v4.1h4.3v3.5h-4.3v5.9c0,0.7,0.2,1.3,0.5,1.6c0.3,0.3,0.8,0.5,1.6,0.5c0.7,0,1.5-0.2,2.2-0.5v3.5c-0.9,0.5-2.1,0.8-3.6,0.8C193.5,109.2,191.9,107.6,191.9,104.2z"/><path d="M203.5,89.9c0-0.7,0.2-1.3,0.7-1.8c0.5-0.5,1.1-0.7,1.8-0.7s1.3,0.2,1.8,0.7c0.5,0.5,0.7,1.1,0.7,1.8c0,0.7-0.2,1.3-0.7,1.8s-1.1,0.7-1.8,0.7s-1.3-0.2-1.8-0.7S203.5,90.6,203.5,89.9z M208.1,108.9h-4.2v-15h4.2V108.9z"/><path d="M211.5,101.4c0-2.2,0.8-4.1,2.3-5.6c1.5-1.5,3.5-2.3,6-2.3s4.4,0.8,6,2.3c1.6,1.5,2.3,3.4,2.3,5.6c0,2.2-0.8,4.1-2.3,5.6c-1.6,1.5-3.6,2.3-6,2.3s-4.4-0.8-6-2.3C212.3,105.5,211.5,103.6,211.5,101.4z M215.6,101.4c0,1.2,0.4,2.2,1.2,3s1.8,1.2,3,1.2c1.2,0,2.2-0.4,3-1.2c0.8-0.8,1.2-1.8,1.2-3c0-1.2-0.4-2.2-1.2-3c-0.8-0.8-1.8-1.2-3-1.2c-1.2,0-2.2,0.4-3,1.2C216,99.2,215.6,100.2,215.6,101.4z"/><path d="M235.4,99.3v9.5h-4.2v-15h4.2v1.8c1.3-1.5,3-2.2,5-2.2c1.7,0,3.1,0.5,4,1.6s1.4,2.6,1.4,4.5v9.2h-4.2v-8.3c0-1.1-0.3-1.9-0.8-2.4c-0.5-0.5-1.2-0.8-2.1-0.8c-0.6,0-1.3,0.2-1.9,0.6S235.8,98.8,235.4,99.3z"/></g><g fill="#46433E"><path d="M89.9,45.2c0,10.7-7.4,17.8-18.3,17.8h-8.7v13.5H50v-49h21.5C82.7,27.5,89.9,34.5,89.9,45.2z M76.8,45.2c0-4.2-2.5-6.6-6.6-6.6h-7.4v13.3h7.4C74.4,51.9,76.8,49.4,76.8,45.2z"/><path d="M139.7,75.8v0.7h-13.8l-2.8-6.2h-18.5l-2.7,6.2H88.1v-0.7l23-48.8h5.6L139.7,75.8z M109.3,59.2h9l-4.4-12L109.3,59.2z"/><path d="M186.6,27.5v49.1h-5.2l-24.7-25l0.1,8.8v16h-12.6V27.2h5.2l24.8,24.2l-0.2-8.7V27.5H186.6z"/><path d="M228.3,65v11.5h-31.2v-49h30.6v11.4h-17.9v7.3h16.5v11.2h-16.5V65H228.3z"/><path d="M267.7,65v11.5h-30.5v-49H250V65H267.7z"/></g></svg>