<?xml version="1.0" standalone="no"?>
<!DOCTYPE svg PUBLIC "-//W3C//DTD SVG 20010904//EN"
 "http://www.w3.org/TR/2001/REC-SVG-20010904/DTD/svg10.dtd">
<svg version="1.0" xmlns="http://www.w3.org/2000/svg"
 width="512.000000pt" height="512.000000pt" viewBox="0 0 512.000000 512.000000"
 preserveAspectRatio="xMidYMid meet">

<g transform="translate(0.000000,512.000000) scale(0.100000,-0.100000)"
fill="#000000" stroke="none">
<path d="M3986 4203 c-10 -37 -88 -604 -84 -608 3 -3 130 -65 284 -139 l279
-133 3 -124 c1 -67 7 -128 12 -134 5 -7 27 -17 48 -24 l39 -13 12 -160 c7 -88
10 -162 8 -164 -3 -3 -34 10 -70 27 -37 18 -68 31 -70 28 -3 -2 -8 -79 -11
-171 l-7 -168 28 1 c15 0 53 4 83 8 30 5 56 8 57 7 1 0 14 -141 29 -313 l27
-312 42 -34 42 -35 39 22 c27 15 40 29 42 46 1 14 -18 302 -42 640 l-45 615
65 393 c39 233 62 398 57 403 -5 5 -177 88 -383 184 -335 157 -379 175 -426
175 -42 0 -54 -4 -58 -17z"/>
<path d="M1625 4070 c-473 -54 -911 -103 -972 -110 l-113 -12 0 -58 0 -58 665
-543 c370 -302 676 -545 689 -547 13 -2 572 87 1244 197 671 111 1225 201
1231 201 7 0 11 23 11 58 l0 57 -913 458 c-725 364 -919 457 -947 456 -19 -1
-422 -45 -895 -99z"/>
<path d="M260 3716 c0 -13 51 -230 113 -483 l113 -459 -77 -630 -77 -629 30
-31 c28 -30 32 -31 75 -23 26 5 47 10 49 12 1 1 37 294 80 651 l78 649 46 -50
c25 -27 67 -75 95 -107 l49 -58 -48 -768 -48 -769 22 -36 c23 -38 26 -38 95
-10 l31 14 77 753 c43 414 77 764 77 778 0 14 -45 185 -99 380 l-100 355 -248
242 c-245 240 -249 243 -290 243 -39 0 -43 -2 -43 -24z"/>
<path d="M590 3643 l0 -59 76 -74 76 -75 -5 71 c-6 71 -6 73 -57 120 -90 84
-90 84 -90 17z"/>
<path d="M783 3465 c7 -79 8 -80 57 -130 38 -39 52 -61 61 -101 l12 -52 398
-341 c218 -188 400 -341 403 -341 3 0 6 56 6 124 l0 125 -97 83 c-83 71 -564
477 -781 658 l-65 54 6 -79z"/>
<path d="M4280 3049 c-96 -18 -86 -2 -94 -156 -4 -75 -8 -139 -11 -141 -2 -2
-22 -6 -46 -9 l-42 -6 6 -406 c4 -223 10 -532 14 -687 l6 -280 33 -22 32 -21
73 22 c72 22 74 23 76 57 2 19 12 355 23 745 10 391 22 756 25 813 l6 102 -28
-1 c-15 -1 -48 -5 -73 -10z"/>
<path d="M3165 2865 c-517 -84 -959 -156 -982 -160 l-43 -6 0 -116 0 -115 28
4 c15 2 462 76 995 163 l967 160 0 112 c0 84 -3 113 -12 112 -7 0 -436 -70
-953 -154z"/>
<path d="M1774 2599 c3 -74 13 -420 21 -769 8 -349 18 -685 21 -746 6 -106 7
-112 38 -149 l32 -38 75 28 c41 15 76 29 78 31 4 4 40 1411 41 1600 l0 121
-99 -15 -99 -15 -43 35 c-76 61 -72 66 -65 -83z"/>
<path d="M3600 2655 c-402 -65 -523 -85 -526 -88 -1 -1 -14 -135 -28 -297 -14
-162 -29 -318 -32 -346 -6 -49 -5 -51 31 -78 36 -28 37 -28 79 -12 37 14 44
22 49 49 2 18 22 169 42 337 21 168 41 308 44 311 3 4 93 -37 200 -90 l194
-97 -2 -79 c-1 -44 -8 -257 -17 -473 l-15 -393 23 -20 c43 -37 52 -38 94 -19
l41 18 6 73 c3 41 16 253 28 471 l23 397 66 11 c36 6 77 13 93 16 l27 6 0 184
c0 141 -3 184 -12 183 -7 -1 -191 -30 -408 -64z"/>
<path d="M1277 2602 l-189 -15 6 -31 c4 -17 -6 -147 -21 -288 -15 -142 -24
-260 -21 -264 8 -7 661 75 668 84 3 4 3 75 0 157 l-5 151 -122 112 c-68 62
-124 111 -125 111 -2 -1 -88 -9 -191 -17z"/>
<path d="M677 2513 c-4 -21 -9 -69 -12 -108 l-6 -70 44 -48 45 -49 6 109 c4
59 9 129 12 156 l6 47 -45 0 c-44 0 -45 -1 -50 -37z"/>
<path d="M636 2189 c-3 -34 -6 -106 -6 -160 l0 -98 45 -37 c25 -20 47 -35 49
-33 2 2 7 67 11 145 l7 141 -43 51 c-24 28 -47 51 -50 51 -3 1 -9 -27 -13 -60z"/>
<path d="M2110 1477 c0 -245 3 -337 11 -337 21 0 89 23 89 30 0 23 -91 634
-95 638 -3 3 -5 -146 -5 -331z"/>
</g>
</svg>
