<?xml version="1.0" standalone="no"?>
<!DOCTYPE svg PUBLIC "-//W3C//DTD SVG 20010904//EN"
 "http://www.w3.org/TR/2001/REC-SVG-20010904/DTD/svg10.dtd">
<svg version="1.0" xmlns="http://www.w3.org/2000/svg"
 width="512.000000pt" height="512.000000pt" viewBox="0 0 512.000000 512.000000"
 preserveAspectRatio="xMidYMid meet">
<metadata>
Created by potrace 1.16, written by Peter Selinger 2001-2019
</metadata>
<g transform="translate(0.000000,512.000000) scale(0.100000,-0.100000)"
fill="#000000" stroke="none">
<path d="M187 4932 c-147 -147 -188 -194 -185 -211 2 -18 40 15 213 189 175
175 206 210 185 210 -19 0 -69 -44 -213 -188z"/>
<path d="M287 4832 c-227 -227 -288 -294 -285 -311 2 -17 59 35 313 289 255
255 305 310 285 310 -20 0 -89 -64 -313 -288z"/>
<path d="M387 4732 c-307 -307 -388 -393 -385 -411 2 -17 79 55 413 389 335
335 405 410 385 410 -20 0 -109 -84 -413 -388z"/>
<path d="M487 4632 c-388 -388 -488 -493 -485 -511 2 -17 99 74 513 489 415
415 505 510 485 510 -20 0 -129 -104 -513 -488z"/>
<path d="M587 4532 c-468 -468 -588 -593 -585 -611 2 -17 118 94 613 589 495
495 605 610 585 610 -20 0 -149 -124 -613 -588z"/>
<path d="M687 4432 c-548 -548 -688 -693 -685 -711 2 -17 138 114 713 689 575
575 705 710 685 710 -20 0 -169 -144 -713 -688z"/>
<path d="M787 4332 c-629 -629 -788 -793 -785 -811 2 -17 158 133 813 789 655
655 805 810 785 810 -20 0 -189 -164 -813 -788z"/>
<path d="M887 4232 c-709 -709 -888 -893 -885 -911 2 -17 177 153 913 889 735
735 905 910 885 910 -20 0 -209 -184 -913 -888z"/>
<path d="M987 4132 c-789 -789 -988 -993 -985 -1011 2 -17 197 173 1013 989
815 815 1005 1010 985 1010 -20 0 -229 -204 -1013 -988z"/>
<path d="M1087 4032 c-870 -870 -1088 -1093 -1085 -1111 2 -17 217 193 1113
1089 895 895 1105 1110 1085 1110 -20 0 -249 -224 -1113 -1088z"/>
<path d="M1187 3932 c-950 -950 -1188 -1193 -1185 -1211 2 -17 237 212 1213
1189 975 975 1205 1210 1185 1210 -20 0 -269 -244 -1213 -1188z"/>
<path d="M1287 3832 c-1030 -1030 -1288 -1293 -1285 -1311 2 -17 256 232 1313
1289 1055 1055 1305 1310 1285 1310 -20 0 -289 -264 -1313 -1288z"/>
<path d="M1875 4220 c-533 -533 -918 -911 -945 -927 -49 -29 -62 -42 -56 -59
2 -6 -193 -208 -435 -450 -345 -344 -439 -444 -439 -464 0 -20 84 59 453 428
248 248 456 452 462 452 18 0 95 -33 95 -40 0 -5 -9 -6 -19 -3 -15 4 -19 1
-15 -14 4 -13 -118 -141 -486 -508 -385 -385 -490 -495 -490 -515 0 -20 93 68
500 475 274 274 501 497 503 495 3 -3 15 -25 27 -49 l22 -44 -526 -526 c-413
-413 -526 -531 -526 -551 0 -20 101 76 534 509 l534 534 25 -50 26 -50 -560
-559 c-441 -440 -559 -564 -559 -584 0 -20 107 82 568 543 l568 568 24 -51 24
-51 -592 -592 c-466 -466 -592 -597 -592 -617 0 -20 114 89 600 575 329 329
601 597 603 595 2 -3 15 -24 28 -48 l23 -43 -627 -627 c-494 -494 -627 -632
-627 -652 0 -20 121 96 635 610 349 349 636 632 638 630 3 -3 15 -25 27 -49
l22 -44 -661 -661 c-521 -521 -661 -666 -661 -686 0 -20 127 102 666 640 589
588 647 643 495 472 -95 -107 -171 -201 -171 -211 0 -11 7 -27 17 -36 15 -16
-19 -52 -495 -528 -402 -402 -512 -517 -512 -537 0 -20 101 76 534 509 294
294 545 539 559 545 13 6 80 74 149 151 175 196 160 186 188 124 l24 -50 -727
-727 c-574 -574 -727 -732 -727 -752 0 -20 141 116 735 710 404 404 736 732
738 730 2 -3 15 -24 28 -48 l23 -43 -762 -762 c-602 -602 -762 -767 -762 -787
0 -20 148 123 770 745 423 423 771 767 773 765 3 -3 15 -25 27 -49 l22 -44
-796 -796 c-629 -629 -796 -801 -796 -821 0 -20 155 130 804 779 l804 804 25
-50 26 -49 -830 -830 c-656 -656 -829 -834 -829 -854 0 -20 161 136 839 814
727 727 840 836 846 817 3 -12 20 -28 37 -37 l31 -16 -849 -849 c-686 -686
-844 -849 -824 -849 20 0 226 201 995 970 533 533 972 970 975 970 4 0 16 -21
29 -47 l22 -47 -923 -923 c-744 -744 -918 -923 -898 -923 20 0 214 189 932
907 l906 906 25 -49 26 -49 -857 -857 c-692 -693 -852 -858 -832 -858 20 0
201 176 867 842 l841 841 25 -49 26 -49 -792 -792 c-640 -641 -787 -793 -767
-793 20 0 188 163 802 777 473 473 778 771 778 760 0 -10 -52 -76 -115 -147
-112 -124 -128 -153 -103 -178 10 -10 -114 -139 -587 -612 -487 -487 -595
-600 -575 -600 20 0 173 148 730 705 388 388 707 705 710 705 4 0 16 -21 29
-47 l22 -47 -658 -658 c-532 -532 -653 -658 -633 -658 20 0 161 136 667 642
l641 641 25 -49 26 -49 -592 -592 c-480 -481 -587 -593 -567 -593 20 0 148
123 602 577 l576 576 25 -49 26 -49 -527 -527 c-428 -429 -522 -528 -502 -528
20 0 134 109 539 514 393 393 518 512 532 509 26 -7 49 14 49 46 0 19 26 52
111 137 110 111 112 111 131 92 22 -22 56 -21 72 4 7 12 7 27 -3 54 l-13 37
248 248 c137 137 250 245 252 239 2 -5 -51 -70 -117 -145 -67 -74 -121 -139
-121 -145 0 -5 8 -18 19 -27 18 -17 -8 -44 -753 -790 -624 -625 -766 -773
-746 -773 20 0 207 182 900 875 481 481 877 875 880 875 4 0 16 -21 29 -47
l22 -47 -828 -828 c-668 -668 -823 -828 -803 -828 20 0 195 170 836 811 l812
812 27 -48 28 -47 -764 -764 c-617 -617 -759 -764 -739 -764 20 0 182 157 772
747 l746 746 25 -49 26 -49 -697 -697 c-564 -565 -692 -698 -672 -698 20 0
169 144 710 685 462 462 692 685 705 685 27 0 45 18 45 44 0 13 43 63 112 133
96 96 113 109 125 97 19 -19 57 -18 74 2 10 12 10 22 0 51 l-13 36 541 541
c425 425 541 546 541 566 0 20 -104 -79 -550 -525 -302 -302 -551 -547 -553
-545 -3 3 -15 25 -27 49 l-22 44 576 576 c453 453 576 581 576 601 0 20 -111
-86 -584 -559 l-584 -584 -25 50 -26 49 610 610 c480 480 609 614 609 634 0
20 -117 -92 -619 -594 l-620 -619 -22 46 c-21 42 -21 47 -7 69 9 13 86 63 172
113 126 72 156 93 156 111 0 15 -10 26 -31 34 l-31 13 501 501 c393 393 501
506 501 526 0 20 -98 -73 -518 -493 l-518 -518 -30 11 c-86 34 -137 -28 494
603 450 450 572 577 572 597 0 20 -113 -88 -595 -570 -363 -363 -598 -591
-603 -584 -4 6 -24 17 -44 25 -21 7 -38 16 -38 19 0 3 288 293 640 645 505
505 640 645 640 665 0 20 -125 -100 -659 -634 l-660 -660 -35 11 c-20 6 -45 9
-56 6 -13 -3 -20 0 -20 8 0 8 322 336 715 729 565 565 715 720 715 740 0 20
-140 -114 -732 -707 l-733 -731 -53 21 -54 20 786 786 c621 621 786 791 786
811 0 20 -155 -130 -803 -778 -441 -441 -808 -802 -816 -802 -8 0 -68 -27
-135 -61 l-121 -61 938 939 c742 743 937 943 937 963 0 20 -193 -168 -997
-971 -549 -549 -1008 -1002 -1020 -1008 -13 -7 -23 -17 -23 -24 0 -7 -64 -76
-143 -155 l-143 -143 -52 23 -52 23 208 208 208 208 32 -16 c27 -14 36 -14 59
-3 33 15 40 47 22 90 l-12 30 956 956 c758 758 957 962 957 982 0 20 -187
-162 -965 -940 -530 -530 -966 -962 -968 -960 -3 3 -15 25 -27 49 l-22 44 991
991 c785 785 991 996 991 1016 0 20 -194 -169 -999 -974 l-999 -999 -25 50
-26 49 1025 1025 c812 812 1024 1029 1024 1049 0 20 -200 -175 -1033 -1008
l-1033 -1033 -24 51 -24 51 1010 1010 c813 813 1004 1009 984 1009 -20 0 -232
-207 -1021 -996 l-995 -995 -24 51 -24 51 185 185 c101 102 201 197 222 210
20 13 37 30 37 37 0 6 325 337 722 734 584 584 718 723 698 723 -20 0 -175
-150 -735 -709 l-710 -710 -54 21 -54 20 689 689 c557 557 684 689 664 689
-20 0 -169 -144 -707 -682 l-682 -682 -57 18 -57 18 664 664 c538 538 659 664
639 664 -20 0 -163 -138 -680 -655 -562 -562 -659 -655 -684 -655 -16 0 -64
-22 -115 -52 -130 -77 -137 -75 -10 4 40 26 59 44 59 58 0 11 -6 20 -12 20 -7
0 275 288 627 640 518 518 635 640 615 640 -20 0 -158 -134 -655 -630 l-630
-630 -50 16 c-28 9 -52 19 -55 21 -2 2 270 278 605 613 495 495 605 610 585
610 -20 0 -152 -127 -628 -603 l-604 -604 -36 10 c-32 8 -45 6 -92 -18 -48
-24 18 46 562 591 498 499 614 620 596 622 -17 3 -143 -118 -599 -574 l-578
-578 -57 18 -57 18 559 559 c453 453 554 559 534 559 -20 0 -143 -118 -575
-550 l-551 -551 -46 12 c-37 10 -52 10 -75 0 -15 -7 219 236 522 538 445 446
545 551 525 551 -19 0 -151 -126 -610 -584 l-585 -583 -115 -58 c-63 -32 -131
-67 -150 -78 -19 -11 262 278 625 642 534 535 655 661 635 661 -20 0 -171
-146 -715 -689 l-690 -689 -150 -77 -150 -78 765 767 c618 619 760 766 740
766 -20 0 -193 -168 -825 -799 l-800 -798 -150 -77 -150 -78 875 876 c707 708
870 876 850 876 -20 0 -212 -187 -925 -900z m835 -963 c0 -1 -245 -247 -544
-546 l-544 -544 -25 50 -26 50 398 397 398 398 169 99 c171 99 174 101 174 96z
m154 -175 l25 -49 -568 -567 -567 -567 -24 51 -24 51 565 565 c310 310 565
564 566 564 2 0 14 -22 27 -48z m-1468 -72 l48 -21 -79 -79 -79 -80 -26 48
-27 47 51 53 c28 28 53 52 57 52 4 0 29 -9 55 -20z m217 -17 c-13 -8 -23 -25
-23 -37 0 -14 -41 -62 -119 -140 l-119 -119 -25 50 -26 50 88 87 c82 82 91 88
119 81 24 -5 42 0 74 19 47 28 66 34 31 9z m1047 -388 c-162 -162 -301 -295
-308 -295 -7 0 -70 -30 -140 -66 l-127 -67 410 412 410 411 25 -50 24 -50
-294 -295z m-760 40 l-344 -344 -27 47 -26 47 206 208 c113 114 210 207 216
207 5 1 78 41 160 90 83 48 152 89 155 89 3 1 -150 -154 -340 -344z m-172 235
c4 0 -63 -70 -148 -155 -85 -85 -157 -155 -160 -155 -3 0 -16 21 -29 47 l-22
46 127 128 127 127 49 -19 c27 -10 52 -19 56 -19z m694 -27 c6 -7 25 -13 42
-13 29 0 0 -31 -369 -400 -220 -220 -402 -400 -405 -400 -4 0 -16 21 -29 47
l-22 46 383 384 c275 275 384 378 387 366 2 -10 8 -24 13 -30z m579 -38 l24
-45 -255 -255 c-140 -140 -258 -255 -262 -255 -3 0 -28 9 -54 20 l-48 21 279
279 c154 154 283 280 286 280 3 0 17 -20 30 -45z m68 -132 l22 -47 -218 -218
-219 -219 -33 12 c-23 8 -39 8 -56 1 -60 -28 3 49 229 276 132 133 243 242
246 242 4 0 16 -21 29 -47z m76 -291 c6 -4 11 -14 12 -22 1 -8 4 -24 8 -35 5
-16 -18 -44 -109 -134 l-115 -115 -56 19 -55 19 137 138 c130 130 154 148 178
130z m74 -159 l22 -47 -249 -249 -250 -250 -22 42 c-15 31 -18 46 -11 55 6 7
9 15 7 17 -3 2 69 47 160 99 136 79 164 99 164 118 0 15 -9 26 -27 34 -16 7
-30 14 -32 15 -6 4 201 213 209 213 3 0 16 -21 29 -47z m359 5 c-2 -6 11 -18
27 -27 17 -9 32 -17 34 -19 6 -3 -181 -192 -189 -192 -3 0 -16 21 -29 47 l-23
47 80 78 c74 73 105 94 100 66z m-292 -134 l27 -46 -248 -248 c-137 -137 -252
-247 -257 -244 -5 3 -18 24 -29 46 l-21 41 248 248 c137 137 250 249 251 249
1 0 14 -21 29 -46z m-1287 -54 c4 0 13 -16 20 -36 l13 -36 -103 -104 -103
-103 -26 47 -27 47 96 98 c56 57 101 95 109 92 8 -3 17 -5 21 -5z m1792 -51
l21 -42 -113 -113 -114 -114 -21 36 -22 37 26 22 c15 13 65 66 112 119 46 53
86 96 87 96 1 0 12 -19 24 -41z m-437 -27 l25 -49 -249 -248 c-137 -137 -251
-247 -253 -245 -3 3 -15 25 -27 49 l-22 44 248 248 c137 137 250 249 251 249
2 0 14 -22 27 -48z m501 -99 l26 -47 -115 -115 -114 -114 -25 49 -26 49 112
113 c61 61 112 112 113 112 1 0 14 -21 29 -47z m-1384 -14 l31 -12 -94 -94
c-51 -51 -95 -93 -98 -93 -3 0 -16 21 -29 47 l-22 46 63 64 c73 75 111 98 116
72 2 -9 17 -23 33 -30z m1453 -117 l25 -49 -114 -113 c-63 -63 -116 -112 -118
-110 -3 3 -15 25 -27 49 l-22 44 113 113 c63 63 115 114 116 114 2 0 14 -22
27 -48z m-1270 -89 l17 -37 -114 -114 -115 -115 -22 43 c-12 23 -17 39 -11 36
5 -4 56 45 113 109 57 63 106 115 109 115 3 0 13 -17 23 -37z m60 -121 l25
-49 -113 -112 -113 -113 -28 47 -27 47 113 114 c63 63 115 114 116 114 2 0 14
-22 27 -48z m-17 -289 c-61 -62 -114 -113 -117 -113 -3 0 -16 21 -29 47 l-22
46 112 113 113 113 28 -47 27 -47 -112 -112z"/>
<path d="M3785 1330 c-1071 -1071 -1325 -1330 -1305 -1330 37 0 2643 2607
2638 2639 -2 17 -260 -236 -1333 -1309z"/>
<path d="M3885 1230 c-991 -991 -1225 -1230 -1205 -1230 37 0 2443 2407 2438
2439 -2 17 -240 -216 -1233 -1209z"/>
<path d="M3985 1130 c-911 -911 -1125 -1130 -1105 -1130 37 0 2243 2207 2238
2239 -2 17 -221 -196 -1133 -1109z"/>
<path d="M4085 1030 c-831 -831 -1025 -1030 -1005 -1030 37 0 2043 2007 2038
2039 -2 17 -201 -177 -1033 -1009z"/>
<path d="M4185 930 c-751 -751 -925 -930 -905 -930 37 0 1843 1807 1838 1839
-2 17 -181 -157 -933 -909z"/>
<path d="M4285 830 c-671 -671 -825 -830 -805 -830 37 0 1643 1607 1638 1639
-2 17 -162 -137 -833 -809z"/>
<path d="M4385 730 c-591 -591 -725 -730 -705 -730 37 0 1443 1407 1438 1439
-2 17 -142 -118 -733 -709z"/>
<path d="M4485 630 c-511 -511 -625 -630 -605 -630 37 0 1243 1207 1238 1239
-2 17 -122 -98 -633 -609z"/>
<path d="M4585 530 c-431 -431 -525 -530 -505 -530 37 0 1043 1007 1038 1039
-2 17 -103 -78 -533 -509z"/>
<path d="M4685 430 c-351 -351 -425 -430 -405 -430 37 0 843 807 838 839 -2
17 -83 -59 -433 -409z"/>
<path d="M4785 330 c-271 -271 -325 -330 -305 -330 37 0 643 607 638 639 -2
17 -63 -39 -333 -309z"/>
<path d="M4885 230 c-191 -191 -226 -230 -205 -230 37 0 443 407 438 439 -2
18 -44 -19 -233 -209z"/>
</g>
</svg>
