<?xml version="1.0" standalone="no"?>
<!DOCTYPE svg PUBLIC "-//W3C//DTD SVG 20010904//EN"
 "http://www.w3.org/TR/2001/REC-SVG-20010904/DTD/svg10.dtd">
<svg version="1.0" xmlns="http://www.w3.org/2000/svg"
 width="512.000000pt" height="512.000000pt" viewBox="0 0 512.000000 512.000000"
 preserveAspectRatio="xMidYMid meet">

<g transform="translate(0.000000,512.000000) scale(0.100000,-0.100000)"
fill="#000000" stroke="none">
<path d="M497 3549 c-21 -12 -47 -61 -47 -89 0 -33 26 -75 55 -88 38 -17 4072
-17 4110 0 29 13 55 55 55 88 0 29 -27 77 -49 90 -27 14 -4099 13 -4124 -1z"/>
<path d="M830 2406 c0 -919 -7 -846 80 -846 87 0 80 -73 80 846 l0 814 -80 0
-80 0 0 -814z"/>
<path d="M1130 3140 l0 -80 1420 0 1420 0 0 80 0 80 -1420 0 -1420 0 0 -80z"/>
<path d="M4110 2412 c0 -921 -7 -852 84 -852 28 0 57 5 64 12 9 9 12 207 12
830 l0 818 -80 0 -80 0 0 -808z"/>
<path d="M1130 2235 l0 -45 1420 0 1420 0 0 45 0 45 -1420 0 -1420 0 0 -45z"/>
</g>
</svg>
