<svg width="32" height="32" viewBox="0 0 32 32" fill="#d5c9be" xmlns="http://www.w3.org/2000/svg"><path class="st1" d="M24,27.7H8c-2,0-3.7-1.6-3.7-3.7V8C4.3,6,6,4.3,8,4.3h16c2,0,3.7,1.6,3.7,3.7v16C27.7,26,26,27.7,24,27.7zM8,6.3C7.1,6.3,6.3,7.1,6.3,8v16c0,0.9,0.7,1.7,1.7,1.7h16c0.9,0,1.7-0.7,1.7-1.7V8c0-0.9-0.7-1.7-1.7-1.7H8z"/><path class="st1" d="M10.7,22.3c-0.6,0-1-0.4-1-1v-6.7c0-0.6,0.4-1,1-1s1,0.4,1,1v6.7C11.7,21.9,11.2,22.3,10.7,22.3z"/><path class="st1" d="M10.7,11.7c-0.6,0-1-0.4-1-1s0.4-1,1-1s1,0.4,1,1v0C11.7,11.2,11.2,11.7,10.7,11.7z"/><path class="st1" d="M21.3,14.7c-1.2-1.2-3-1.3-4.4-0.6c-0.2-0.3-0.5-0.5-0.9-0.5c-0.6,0-1,0.4-1,1v6.7c0,0.6,0.4,1,1,1s1-0.4,1-1v-4c0-0.4,0.2-0.9,0.5-1.2c0.6-0.6,1.7-0.6,2.4,0c0.3,0.3,0.5,0.7,0.5,1.2v4c0,0.6,0.4,1,1,1s1-0.4,1-1v-4C22.3,16.4,22,15.4,21.3,14.7z"/><rect y="0" class="st0" width="32" height="32" fill="none"/></svg>