<svg width="32" height="32" viewBox="0 0 32 32" fill="#d5c9be" xmlns="http://www.w3.org/2000/svg"><path class="st1" d="M22.7,26.3H9.3C5.8,26.3,3,23.5,3,20v-8c0-3.5,2.8-6.3,6.3-6.3h13.3c3.5,0,6.3,2.8,6.3,6.3v8C29,23.5,26.2,26.3,22.7,26.3z M9.3,7.7C6.9,7.7,5,9.6,5,12v8c0,2.4,1.9,4.3,4.3,4.3h13.3c2.4,0,4.3-1.9,4.3-4.3v-8c0-2.4-1.9-4.3-4.3-4.3H9.3z"/><path class="st1" d="M13.3,21c-0.2,0-0.3,0-0.5-0.1c-0.3-0.2-0.5-0.5-0.5-0.9v-8c0-0.4,0.2-0.7,0.5-0.9c0.3-0.2,0.7-0.2,1,0l6.7,4c0.3,0.2,0.5,0.5,0.5,0.9c0,0.4-0.2,0.7-0.5,0.9l-6.7,4C13.7,21,13.5,21,13.3,21z M14.3,13.8v4.5l3.7-2.2L14.3,13.8z"/><rect y="0" class="st0" width="32" height="32" fill="none"/></svg>