<svg width="32" height="32" viewBox="0 0 32 32" fill="#d5c9be" xmlns="http://www.w3.org/2000/svg"><path class="st1" d="M12,27.7c-0.4,0-0.8,0-1.2-0.1c-1.2-0.2-2.4-0.8-3.2-1.7c-0.9-0.9-1.5-2-1.7-3.2c-0.2-1.2-0.1-2.5,0.4-3.7c0.5-1.2,1.3-2.1,2.3-2.8c1-0.7,2.3-1.1,3.5-1.1c0.6,0,1,0.4,1,1c0,0.6-0.4,1-1,1c-0.9,0-1.7,0.3-2.4,0.7c-0.7,0.5-1.3,1.1-1.6,1.9s-0.4,1.7-0.2,2.5c0.2,0.8,0.6,1.6,1.2,2.2c0.6,0.6,1.4,1,2.2,1.2c0.8,0.2,1.7,0.1,2.5-0.2c0.8-0.3,1.5-0.9,1.9-1.6c0.5-0.7,0.7-1.5,0.7-2.4v-16c0-0.6,0.4-1,1-1c0.6,0,1,0.4,1,1c0,1.5,0.6,2.9,1.7,4c1.1,1.1,2.5,1.7,4,1.7c0.6,0,1,0.4,1,1s-0.4,1-1,1c-2,0-4-0.8-5.4-2.2c-0.1-0.1-0.2-0.2-0.2-0.3v10.8c0,1.3-0.4,2.5-1.1,3.5c-0.7,1-1.7,1.9-2.8,2.3C13.7,27.5,12.8,27.7,12,27.7z"/><rect y="0" class="st0" width="32" height="32" fill="none"/></svg>