<svg xmlns="http://www.w3.org/2000/svg" xmlns:xlink="http://www.w3.org/1999/xlink"><symbol id="icon-check" viewBox="0 0 20 15"><path class="st0" d="M1.8,7l5.5,5.5l11-11" stroke="#90bb09" stroke-width="1.8"/></symbol><symbol id="icon-marker-list" viewBox="0 0 58 47"><path fill-rule="evenodd" clip-rule="evenodd" d="M23.2032 3.8439C22.9787 3.98875 22.7174 4.05931 22.4524 4.04074V4.04445C19.4087 4.04445 16.8912 6.24309 16.8692 7.5541C16.8692 8.20033 17.3734 8.50115 18.0543 8.62743C20.3766 9.02853 21.6611 9.94958 23.4424 12.7833C24.7822 14.8687 26.4585 17.5061 27.4918 19.1318C28.0282 19.9758 28.3913 20.5471 28.4441 20.6271C28.6686 20.9725 28.7938 21.0096 28.9594 21.0096C29.125 21.0096 29.2575 20.9762 29.4931 20.6271C29.5443 20.5435 29.9408 19.923 30.5209 19.0151C31.5647 17.3813 33.2031 14.817 34.4948 12.7759C36.324 9.93101 37.5643 9.02481 39.8829 8.62371C40.5712 8.49744 41.068 8.19661 41.068 7.55039C41.068 6.24309 38.5653 4.04074 35.5032 4.04074C35.2382 4.05931 34.9732 3.98875 34.7524 3.8439C34.5316 3.69906 34.3623 3.48365 34.2703 3.23111C33.7624 2.25435 33.0005 1.43729 32.0694 0.869057C31.1382 0.300828 30.0672 0 28.9778 0C27.8884 0 26.8174 0.300828 25.8862 0.869057C24.9514 1.441 24.1896 2.25435 23.6853 3.23111C23.597 3.48365 23.424 3.69906 23.2032 3.8439ZM21.2526 15.1899C18.7425 11.242 15.6289 9.96815 12.6919 9.96815H12.6882C8.77957 9.96815 7.36628 12.0405 7.36628 12.8836C7.36628 13.2253 7.54662 13.5298 8.13917 13.5298C10.9253 13.5298 12.6772 15.1973 14.0352 17.4294C15.3933 19.6652 22.1469 30.6064 22.2352 30.7327C22.2757 30.8144 22.3383 30.8886 22.4156 30.9369C22.4966 30.9889 22.5849 31.0149 22.6769 31.0149C22.7726 31.0149 22.8646 30.9889 22.9456 30.9406C23.0265 30.8924 23.0965 30.8218 23.1406 30.7401C23.2363 30.5841 26.7953 24.9352 26.88 24.8164C26.9536 24.7087 26.994 24.5824 26.9977 24.4524C26.994 24.3261 26.9572 24.2036 26.8836 24.1033C26.8174 23.9808 22.5297 17.1917 21.2526 15.1899ZM20.3693 46.346C21.1164 46.7768 21.9629 46.9996 22.8241 46.9996C23.6853 47.0107 24.5355 46.7916 25.2863 46.3608C26.0371 45.9337 26.6591 45.3098 27.0934 44.5558C28.0798 42.97 42.5549 19.6615 43.9093 17.4331C45.2637 15.2048 47.0119 13.5335 49.8017 13.5335C50.3943 13.5335 50.5783 13.229 50.5783 12.8873C50.5783 12.0442 49.1466 9.97186 45.238 9.97186C42.2899 9.97186 39.1873 11.2457 36.6773 15.1936C35.3891 17.1917 25.4041 33.0761 23.2915 36.4781C23.1995 36.6378 23.0192 36.8903 22.7652 36.8903C22.5113 36.8903 22.3825 36.7343 22.2205 36.4781C17.9365 29.7113 12.195 20.5825 12.195 20.5825C9.8469 16.8018 7.13073 15.8807 4.79734 15.8807C1.70209 15.8807 -0.00195312 17.5037 -0.00195312 18.577C-0.00195312 18.9595 0.163666 19.3718 0.899754 19.3718C2.76205 19.3718 3.46134 20.3485 5.51502 23.6911C7.07185 26.1534 18.5658 44.5447 18.5658 44.5447C19.0001 45.2949 19.6221 45.9151 20.3693 46.346ZM52.4774 23.6911C54.5348 20.3485 55.2304 19.3718 57.0927 19.3718H57.0963C57.8251 19.3718 57.998 18.9595 57.998 18.577C57.998 17.5037 56.294 15.8807 53.1988 15.8807C50.8727 15.8807 48.175 16.8018 45.8011 20.5825C45.8011 20.5825 31.2523 43.6682 31.1566 43.8316C31.0131 43.9876 30.9211 44.1807 30.888 44.3887C30.9211 44.5967 31.0131 44.7861 31.1566 44.9347C31.6204 45.5772 32.2313 46.0971 32.9343 46.4574C33.6372 46.8139 34.4138 46.9996 35.2014 46.9996C36.059 47.0033 36.9055 46.7768 37.6526 46.346C38.3997 45.9151 39.0217 45.2949 39.456 44.5447C39.456 44.5447 50.9537 26.1534 52.4774 23.6911Z" fill="#D5C9BE"/></symbol><symbol id="icon-marker" viewBox="0 0 39 37"><path d="M36 18.5C36 28.165 28.165 36 18.5 36C8.83502 36 1 28.165 1 18.5C1 8.83502 8.83502 1 18.5 1C28.165 1 36 8.83502 36 18.5Z" stroke="#efcfad" stroke-width="2"/><path d="M36.093 12.7722C35.569 11.1616 34.832 9.64832 33.9125 8.26562L17.7188 25.1324L17.7513 27.0095L18.5157 27.0046L36.093 12.7722Z" fill="#a4907d"/><path d="M39 6C38.7631 4.77238 36.5 4.0001 36.5 4.0001C36.0497 3.55499 33.4503 6.05569 33 6.5008L18.073 22.0005L11.5 14.5005C11.049 14.0554 9.95066 13.5554 9.5 14.0005L7.36115 15.4298C6.91087 15.8745 6.91087 16.596 7.36115 17.0408L17.1214 26.6834C17.3815 26.9405 17.7341 27.0441 18.073 27.0041C18.4119 27.0437 18.7646 26.9405 19.0247 26.6834L37.0296 8.89449C37.4799 8.44938 39.2591 7.34266 39 6Z" fill="white"/><path d="M19.0243 26.682L37.0292 8.89313C38.5 7.99972 39.4503 6.44483 39 5.99972C38.5497 5.55461 36.4909 6.74972 36.4909 6.74972L17.9698 24.9667L7.76964 15.024L7.36116 15.4281C6.91087 15.8728 6.91087 16.5943 7.36116 17.0391L17.121 26.682C17.3811 26.9391 17.7337 27.0427 18.0727 27.0028C18.4116 27.0427 18.7642 26.9395 19.0243 26.682Z" fill="#efcfad"/></symbol><symbol id="icon-star-sale" viewBox="0 0 46 47"><path d="M19.1737 2.33184C21.3671 0.421923 24.6329 0.421923 26.8263 2.33184C28.1083 3.44816 29.8138 3.94896 31.4958 3.70294C34.3736 3.28203 37.121 5.04769 37.9336 7.84023C38.4085 9.47243 39.5726 10.8158 41.1206 11.5182C43.769 12.7199 45.1257 15.6907 44.2995 18.4792C43.8167 20.1091 44.0696 21.8686 44.9921 23.2964C46.5705 25.7392 46.1057 28.9718 43.9031 30.871C42.6157 31.9811 41.8772 33.598 41.8814 35.2979C41.8885 38.2063 39.7498 40.6744 36.87 41.0813C35.1868 41.3192 33.6915 42.2802 32.7759 43.7125C31.2095 46.1629 28.0759 47.083 25.4333 45.8684C23.8888 45.1585 22.1112 45.1585 20.5667 45.8684C17.9241 47.083 14.7905 46.1629 13.2241 43.7125C12.3085 42.2802 10.8132 41.3192 9.12998 41.0813C6.25022 40.6744 4.11153 38.2063 4.11862 35.2979C4.12276 33.598 3.38433 31.9811 2.09693 30.871C-0.105695 28.9718 -0.570477 25.7392 1.00786 23.2964C1.93037 21.8686 2.18334 20.1091 1.70045 18.4792C0.874282 15.6907 2.23097 12.7199 4.87945 11.5182C6.42744 10.8158 7.59149 9.47243 8.06643 7.84023C8.87902 5.04769 11.6264 3.28203 14.5042 3.70294C16.1862 3.94896 17.8917 3.44816 19.1737 2.33184Z"/></symbol></svg>