<svg xmlns="http://www.w3.org/2000/svg" xmlns:xlink="http://www.w3.org/1999/xlink"><symbol id="icon-marker" viewBox="0 0 39 37"><path d="M36 18.5C36 28.165 28.165 36 18.5 36C8.83502 36 1 28.165 1 18.5C1 8.83502 8.83502 1 18.5 1C28.165 1 36 8.83502 36 18.5Z" stroke="#efcfad" stroke-width="2"/><path d="M36.093 12.7722C35.569 11.1616 34.832 9.64832 33.9125 8.26562L17.7188 25.1324L17.7513 27.0095L18.5157 27.0046L36.093 12.7722Z" fill="#a4907d"/><path d="M39 6C38.7631 4.77238 36.5 4.0001 36.5 4.0001C36.0497 3.55499 33.4503 6.05569 33 6.5008L18.073 22.0005L11.5 14.5005C11.049 14.0554 9.95066 13.5554 9.5 14.0005L7.36115 15.4298C6.91087 15.8745 6.91087 16.596 7.36115 17.0408L17.1214 26.6834C17.3815 26.9405 17.7341 27.0441 18.073 27.0041C18.4119 27.0437 18.7646 26.9405 19.0247 26.6834L37.0296 8.89449C37.4799 8.44938 39.2591 7.34266 39 6Z" fill="white"/><path d="M19.0243 26.682L37.0292 8.89313C38.5 7.99972 39.4503 6.44483 39 5.99972C38.5497 5.55461 36.4909 6.74972 36.4909 6.74972L17.9698 24.9667L7.76964 15.024L7.36116 15.4281C6.91087 15.8728 6.91087 16.5943 7.36116 17.0391L17.121 26.682C17.3811 26.9391 17.7337 27.0427 18.0727 27.0028C18.4116 27.0427 18.7642 26.9395 19.0243 26.682Z" fill="#efcfad"/></symbol><symbol id="icon-star-sale" viewBox="0 0 46 47"><path d="M19.1737 2.33184C21.3671 0.421923 24.6329 0.421923 26.8263 2.33184C28.1083 3.44816 29.8138 3.94896 31.4958 3.70294C34.3736 3.28203 37.121 5.04769 37.9336 7.84023C38.4085 9.47243 39.5726 10.8158 41.1206 11.5182C43.769 12.7199 45.1257 15.6907 44.2995 18.4792C43.8167 20.1091 44.0696 21.8686 44.9921 23.2964C46.5705 25.7392 46.1057 28.9718 43.9031 30.871C42.6157 31.9811 41.8772 33.598 41.8814 35.2979C41.8885 38.2063 39.7498 40.6744 36.87 41.0813C35.1868 41.3192 33.6915 42.2802 32.7759 43.7125C31.2095 46.1629 28.0759 47.083 25.4333 45.8684C23.8888 45.1585 22.1112 45.1585 20.5667 45.8684C17.9241 47.083 14.7905 46.1629 13.2241 43.7125C12.3085 42.2802 10.8132 41.3192 9.12998 41.0813C6.25022 40.6744 4.11153 38.2063 4.11862 35.2979C4.12276 33.598 3.38433 31.9811 2.09693 30.871C-0.105695 28.9718 -0.570477 25.7392 1.00786 23.2964C1.93037 21.8686 2.18334 20.1091 1.70045 18.4792C0.874282 15.6907 2.23097 12.7199 4.87945 11.5182C6.42744 10.8158 7.59149 9.47243 8.06643 7.84023C8.87902 5.04769 11.6264 3.28203 14.5042 3.70294C16.1862 3.94896 17.8917 3.44816 19.1737 2.33184Z"/></symbol></svg>