<svg xmlns="http://www.w3.org/2000/svg" xmlns:xlink="http://www.w3.org/1999/xlink" viewBox="0 0 50 50" width="50" height="50"><rect fill="#d7d7d7" x="0.25" y="0.25" width="49.5" height="49.5"/><path fill="#595651" d="M49.5.5v49H.5V.5h49M50,0H0V50H50V0Z"/><path fill="#201600" d="M7.7,31.77V18H9.46v13.8Z"/><path fill="#201600" d="M20.24,31.51a10.62,10.62,0,0,1-3.34.5c-3.36,0-4.62-1.36-4.62-5.12s1.26-5.1,4.64-5.1a9.88,9.88,0,0,1,3.14.46l-.22,1.1c-.88-.08-2-.12-2.64-.12-2.32,0-3.12.82-3.12,3.66s.8,3.68,3.12,3.68a20.78,20.78,0,0,0,2.86-.2Z"/><path fill="#201600" d="M31.08,26.91c0,3.74-1.22,5.12-4.58,5.12s-4.58-1.38-4.58-5.12,1.24-5.12,4.58-5.12S31.08,23.19,31.08,26.91Zm-7.38,0c0,2.84.68,3.68,2.8,3.68s2.82-.84,2.82-3.68-.7-3.68-2.82-3.68S23.7,24.07,23.7,26.91Z"/><path fill="#201600" d="M35.3,23.57a7.39,7.39,0,0,1,4.36-1.78,2.38,2.38,0,0,1,2.64,2.68v7.3H40.6V25c0-1.3-.4-1.72-1.4-1.72-1.16,0-2.2.58-3.76,1.54v7h-1.7V22h1.44Z"/></svg>