<svg width="16" height="16" viewBox="0 0 16 16" fill="none" xmlns="http://www.w3.org/2000/svg"><path d="M1.00049 5C1.00049 3.11438 1.00049 2.17157 1.58627 1.58579C2.17206 1 3.11487 1 5.00049 1H11.0005C12.8861 1 13.8289 1 14.4147 1.58579C15.0005 2.17157 15.0005 3.11438 15.0005 5V11C15.0005 12.8856 15.0005 13.8284 14.4147 14.4142C13.8289 15 12.8861 15 11.0005 15H5.00049C3.11487 15 2.17206 15 1.58627 14.4142C1.00049 13.8284 1.00049 12.8856 1.00049 11V5Z" stroke="#474344" stroke-width="2"/><path fill-rule="evenodd" clip-rule="evenodd" d="M12.6672 6.44442H8.87263C8.06203 6.44442 7.65673 6.44442 7.29185 6.29468L7.2797 6.28965C6.91581 6.13752 6.62922 5.85093 6.05605 5.27775L6.05604 5.27775C5.48287 4.70457 5.19628 4.41798 4.83239 4.26585L4.82024 4.26082C4.45536 4.11108 4.05006 4.11108 3.23946 4.11108H1.00049V11C1.00049 12.8856 1.00049 13.8284 1.58627 14.4142C2.17206 15 3.11487 15 5.00049 15H11.0005C12.8861 15 13.8289 15 14.4147 14.4142C15.0005 13.8284 15.0005 12.8856 15.0005 11V4.11108C15.0005 4.4207 15.0005 4.5755 14.9834 4.70547C14.8652 5.60294 14.159 6.30915 13.2615 6.42731C13.1316 6.44442 12.9768 6.44442 12.6672 6.44442ZM4.1116 10.1111C3.55931 10.1111 3.1116 10.5588 3.1116 11.1111C3.1116 11.6634 3.55931 12.1111 4.1116 12.1111H10.3338C10.8861 12.1111 11.3338 11.6634 11.3338 11.1111C11.3338 10.5588 10.8861 10.1111 10.3338 10.1111H4.1116Z" fill="#474344"/></svg>