<svg width="30" height="36" viewBox="0 0 30 36" fill="none" xmlns="http://www.w3.org/2000/svg"><path d="M8.10117 25.9424L8.10571 25.9487L8.11045 25.9549C8.83857 26.9015 9.94391 27.5 11.1425 27.5H12.0425C12.0659 27.5 12.0984 27.5091 12.1349 27.5404C12.1746 27.5744 12.1951 27.6149 12.2003 27.6356L12.2378 27.7857H10.6925C10.3838 27.7857 10.0835 27.6768 9.95317 27.5465L9.92469 27.518L9.89202 27.4944L5.08586 24.0295L6.34109 23.501L8.10117 25.9424Z" stroke="#498837"/><path d="M8.57106 8.85651H20.1425C20.4694 8.85651 20.7668 8.96095 21.0028 9.14222H7.71072C7.94669 8.96095 8.24409 8.85651 8.57106 8.85651Z" stroke="#498837"/><path d="M16.9282 6.28559H17.4282V5.78559V2.47413C19.2129 3.30101 20.5497 4.86032 21.1817 6.72094C20.8435 6.62068 20.4917 6.5713 20.1425 6.5713H8.57106C8.21192 6.5713 7.85015 6.62351 7.50318 6.72956C8.10301 4.83882 9.47477 3.29836 11.2853 2.47189V5.78559V6.28559H11.7853H13.0711H13.5711V5.78559V0.642735C13.5711 0.563502 13.5953 0.536327 13.6014 0.530217C13.6075 0.524107 13.6347 0.499878 13.7139 0.499878H14.9996C15.0789 0.499878 15.106 0.524107 15.1121 0.530217C15.1183 0.536327 15.1425 0.563502 15.1425 0.642735V5.78559V6.28559H15.6425H16.9282Z" stroke="#498837"/><path d="M18.8819 27.4972L18.8741 27.5029L18.8666 27.509C18.6485 27.6834 18.3143 27.7851 18.0218 27.7851H16.4263L16.4562 27.6059C16.4664 27.5603 16.4849 27.5399 16.4986 27.5292C16.5146 27.5166 16.5476 27.4994 16.6075 27.4994H17.5075C18.7597 27.4994 19.8783 26.9086 20.5525 25.9367L22.3821 23.3637L22.8575 23.5486V24.5613L18.8819 27.4972Z" stroke="#498837"/><path d="M25.9284 21.4565C26.2332 21.4565 26.4681 21.5331 26.6125 21.6157C26.6604 21.643 26.6933 21.6681 26.7142 21.6868V23.7535L25.1427 25.9535V21.6868C25.1636 21.6681 25.1965 21.643 25.2444 21.6157C25.3888 21.5331 25.6237 21.4565 25.9284 21.4565ZM26.7429 21.7175C26.7428 21.7175 26.7419 21.7164 26.7405 21.7141C26.7423 21.7164 26.743 21.7175 26.7429 21.7175ZM25.114 21.7175C25.1139 21.7175 25.1146 21.7164 25.1164 21.7141C25.115 21.7164 25.1141 21.7175 25.114 21.7175Z" stroke="#498837"/><path d="M8.42844 15.1719V14.8915L8.18917 14.7453L7.14273 14.1058V13.0362L7.57489 13.4683L8.42844 14.3219V13.1148V11.4291H20.2856V13.1148V14.4664L21.1652 13.4402L21.507 13.0414V14.1058L20.4606 14.7453L20.2213 14.8915V15.1719V15.5576C20.2213 16.9842 19.4194 18.3563 18.1696 19.039L16.2464 20.0647C16.2459 20.065 16.2454 20.0653 16.2448 20.0656C15.041 20.6955 13.6087 20.6955 12.4049 20.0656C12.4044 20.0653 12.4038 20.065 12.4033 20.0647L10.4801 19.039C9.22684 18.3545 8.42844 17.0444 8.42844 15.5576V15.1719Z" stroke="#498837"/><path d="M26.1498 32.9288L26.7139 32.0736V32.9288H26.1498Z" stroke="#498837"/><path d="M29.2856 24.1243V35.4997H21.1162L28.6924 24.9283H28.7252L28.0843 25.886L22.3629 34.436L21.8422 35.214H22.7784H28.4999H28.9999V34.714V26.164V24.9283V24.5243L29.2856 24.1243Z" stroke="#498837"/><path d="M20.1633 29.3447L20.1711 29.3395L20.1787 29.3341L22.8574 27.3994V29.1529L18.2801 35.5001H15.5002V30.0716H18.0217C18.7956 30.0716 19.5344 29.764 20.1633 29.3447Z" stroke="#498837"/><path d="M6.50024 35.2141H10.0002V35.4998H6.50024V35.2141Z" stroke="#498837"/><path d="M6.50024 32.6432H10.0002V32.929H6.50024V32.6432Z" stroke="#498837"/><path d="M18.7089 24.5849L18.6988 24.5988L18.6897 24.6133C18.4623 24.9771 18.0464 25.214 17.5708 25.214H16.6708C15.6019 25.214 14.6548 25.877 14.3565 26.9311C14.0582 25.877 13.1111 25.214 12.0422 25.214H11.1422C10.748 25.214 10.31 24.9902 10.0023 24.5822L8.57495 22.5941L10.5999 21.7658L11.3532 22.1675C13.2379 23.2129 15.4752 23.2129 17.3598 22.1675L18.1204 21.7619L20.189 22.5433L18.7089 24.5849Z" stroke="#498837"/><path d="M10.693 30.0708H13.2144V35.4351H12.2858V30.7922V30.2922H11.7858H7.48337L7.06377 28.6138L6.95832 28.192L8.51772 29.3201C9.13902 29.855 9.90068 30.0708 10.693 30.0708ZM2.78643 25.1741L6.88346 28.1379L6.45145 28.2516L5.23003 28.573L4.75242 28.6987L4.8722 29.1778L5.16688 30.3565H4.71442H4.21442V30.8565V35.4994H0.714417V29.3779C0.714417 27.7325 1.48338 26.1866 2.78643 25.1741Z" stroke="#498837"/></svg>