<svg width="21" height="21" viewBox="0 0 21 21" fill="none" xmlns="http://www.w3.org/2000/svg"><path d="M20.2756 15.2089L17.4787 12.4119C16.4798 11.413 14.7816 11.8126 14.3821 13.1112C14.0824 14.0102 13.0835 14.5097 12.1845 14.3099C10.1867 13.8104 7.48962 11.2133 6.99017 9.11555C6.69049 8.2165 7.28984 7.21759 8.18885 6.91796C9.48743 6.5184 9.88699 4.82026 8.88808 3.82136L6.09115 1.02442C5.29203 0.325192 4.09334 0.325192 3.39411 1.02442L1.49619 2.92234C-0.401726 4.92015 1.69597 10.2143 6.39082 14.9092C11.0857 19.604 16.3799 21.8017 18.3777 19.8038L20.2756 17.9059C20.9749 17.1068 20.9749 15.9081 20.2756 15.2089Z" fill="#498837"/></svg>