<svg width="28" height="36" viewBox="0 0 28 36" fill="none" xmlns="http://www.w3.org/2000/svg"><path d="M23.9078 0.821777H4.09215C2.18253 0.821777 0.628906 2.30306 0.628906 4.12375V31.8435C0.628906 33.6642 2.18253 35.1454 4.09215 35.1454H23.9078C25.8174 35.1454 27.371 33.6642 27.371 31.8435V4.12375C27.371 2.30306 25.8174 0.821777 23.9078 0.821777ZM5.37563 6.52648C5.37563 5.97113 5.84785 5.5209 6.43032 5.5209H21.5695C22.152 5.5209 22.6242 5.97113 22.6242 6.52648V8.51202C22.6242 9.06737 22.152 9.5176 21.5695 9.5176H6.43032C5.84785 9.5176 5.37563 9.06737 5.37563 8.51202V6.52648ZM8.92648 29.1064C8.92648 29.6617 8.45426 30.1119 7.8718 30.1119H6.43039C5.84792 30.1119 5.3757 29.6617 5.3757 29.1064V28.1536C5.3757 27.5983 5.84792 27.148 6.43039 27.148H7.8718C8.45426 27.148 8.92648 27.5983 8.92648 28.1536V29.1064ZM8.92648 23.1554C8.92648 23.7107 8.45426 24.1609 7.8718 24.1609H6.43039C5.84792 24.1609 5.3757 23.7107 5.3757 23.1554V22.2026C5.3757 21.6473 5.84792 21.197 6.43039 21.197H7.8718C8.45426 21.197 8.92648 21.6473 8.92648 22.2026V23.1554ZM15.8618 29.1064C15.8618 29.6617 15.3895 30.1119 14.8071 30.1119H13.3657C12.7831 30.1119 12.311 29.6617 12.311 29.1064V28.1536C12.311 27.5983 12.7831 27.148 13.3657 27.148H14.8071C15.3895 27.148 15.8618 27.5983 15.8618 28.1536V29.1064ZM15.8618 23.1554C15.8618 23.7107 15.3895 24.1609 14.8071 24.1609H13.3657C12.7831 24.1609 12.311 23.7107 12.311 23.1554V22.2026C12.311 21.6473 12.7831 21.197 13.3657 21.197H14.8071C15.3895 21.197 15.8618 21.6473 15.8618 22.2026V23.1554ZM15.8618 17.2043C15.8618 17.7597 15.3895 18.2099 14.8071 18.2099H6.43032C5.84785 18.2099 5.37563 17.7596 5.37563 17.2043V16.2515C5.37563 15.6962 5.84785 15.246 6.43032 15.246H14.8071C15.3895 15.246 15.8618 15.6962 15.8618 16.2515V17.2043ZM22.797 29.1064C22.797 29.6617 22.3248 30.1119 21.7423 30.1119H20.3009C19.7185 30.1119 19.2463 29.6617 19.2463 29.1064V28.1536C19.2463 27.5983 19.7185 27.148 20.3009 27.148H21.7423C22.3248 27.148 22.797 27.5983 22.797 28.1536V29.1064ZM22.797 23.1554C22.797 23.7107 22.3248 24.1609 21.7423 24.1609H20.3009C19.7185 24.1609 19.2463 23.7107 19.2463 23.1554V22.2026C19.2463 21.6473 19.7185 21.197 20.3009 21.197H21.7423C22.3248 21.197 22.797 21.6473 22.797 22.2026V23.1554ZM22.797 17.2043C22.797 17.7597 22.3248 18.2099 21.7423 18.2099H20.3009C19.7185 18.2099 19.2463 17.7596 19.2463 17.2043V16.2515C19.2463 15.6962 19.7185 15.246 20.3009 15.246H21.7423C22.3248 15.246 22.797 15.6962 22.797 16.2515V17.2043Z" fill="#498837"/></svg>