<svg width="36" height="43" viewBox="0 0 36 43" fill="none" xmlns="http://www.w3.org/2000/svg"><path d="M12.7562 33.5014H15.4171L15.1823 32.606C15.104 32.3076 14.791 32.0091 14.3997 32.0091H13.304C12.0518 32.0091 10.8779 31.4122 10.0953 30.4422L7.66922 27.2336L4.69531 28.4275L11.4257 33.0537C11.7388 33.3522 12.2866 33.5014 12.7562 33.5014Z" fill="#498837"/><path d="M24.2607 10.3698H10.1737C9.15633 10.3698 8.29547 10.9667 7.98242 11.8621H26.452C26.1389 10.9667 25.2781 10.3698 24.2607 10.3698Z" fill="#498837"/><path d="M24.2607 8.87751C25.0433 8.87751 25.8259 9.10136 26.452 9.54906C25.8259 6.41516 23.5563 3.72896 20.3476 2.68433V7.38518H18.7824V1.41584C18.7824 0.968144 18.4694 0.669678 17.9998 0.669678H16.4346C15.965 0.669678 15.652 0.968144 15.652 1.41584V7.38518H14.0868V2.68433C10.8781 3.72896 8.53025 6.34054 7.98242 9.54906C8.60851 9.10136 9.39112 8.87751 10.1737 8.87751H24.2607Z" fill="#498837"/><path d="M21.0524 32.0094H19.9567C19.5654 32.0094 19.2524 32.2333 19.1741 32.6063L19.0176 33.5017H21.6784C22.148 33.5017 22.6958 33.3525 23.0871 33.054L28.1741 29.4724V27.607L26.7654 27.0847L24.2611 30.4425C23.5567 31.4125 22.3828 32.0094 21.0524 32.0094Z" fill="#498837"/><path d="M32.8687 25.7415C32.8687 25.4431 32.2426 24.9954 31.3035 24.9954C30.3644 24.9954 29.7383 25.4431 29.7383 25.7415V32.6063L32.8687 28.4277V25.7415Z" fill="#498837"/><path d="M9.39139 18.2796V18.7273C9.39139 20.6673 10.487 22.3835 12.2088 23.2789L14.5566 24.4727C16.2001 25.2935 18.1566 25.2935 19.8001 24.4727L22.1479 23.2789C23.8696 22.3835 24.9653 20.5927 24.9653 18.7273V18.2796L26.374 17.4588C26.4523 17.3842 26.5305 17.3095 26.5305 17.1603V15.071C26.5305 14.9218 26.374 14.7726 26.1392 14.7726C26.061 14.7726 25.9827 14.7726 25.9827 14.8472L25.0436 15.8918V13.3549H9.39139V15.8918L8.374 14.9218C8.21748 14.7726 7.98269 14.8472 7.90443 14.9218C7.82617 14.9964 7.82617 15.071 7.82617 15.071V17.1603C7.82617 17.2349 7.90443 17.3842 7.98269 17.4588L9.39139 18.2796Z" fill="#498837"/><path d="M32.8694 39.4705V35.9635L30.4434 39.4705H32.8694Z" fill="#498837"/><path d="M34.4356 28.9484V29.023H34.3574L24.2617 42.454H36.0008V26.8591L34.4356 28.9484ZM34.4356 40.9617H27.4704L34.4356 31.0377V40.9617Z" fill="#498837"/><path d="M28.1739 31.3379L23.9478 34.2479C23.2435 34.6956 22.4609 34.9941 21.6783 34.9941H18V42.4558H22.3043L28.1739 34.6956V31.3379Z" fill="#498837"/><path d="M7.04297 40.9635H12.5212V42.4558H7.04297V40.9635Z" fill="#498837"/><path d="M7.04297 37.9784H12.5212V39.4707H7.04297V37.9784Z" fill="#498837"/><path d="M20.0344 30.5164H21.13C21.9126 30.5164 22.617 30.1433 23.0083 29.5464L25.2779 26.5617L21.7561 25.2932L20.5822 25.8901C18.4692 27.0094 15.9648 27.0094 13.8518 25.8901L12.6779 25.2932L9.23438 26.6363L11.4257 29.5464C11.8952 30.1433 12.5996 30.5164 13.3039 30.5164H14.3996C15.4952 30.5164 16.4344 31.1879 16.6692 32.2326L17.217 34.1726L17.7648 32.2326C17.9996 31.1879 18.9387 30.5164 20.0344 30.5164Z" fill="#498837"/><path d="M10.487 34.248L3.13043 29.1741C1.17391 30.4426 0 32.5318 0 34.7703V42.4558H5.47826V36.4865H6.8087L6.26087 34.3972L7.74783 34.0242L8.37391 36.4119H14.087V42.3812H16.4348V34.9942H12.7565C11.8957 34.9942 11.113 34.7703 10.487 34.248Z" fill="#498837"/></svg>