<svg width="10" height="12" viewBox="0 0 10 12" fill="none" xmlns="http://www.w3.org/2000/svg"><path d="M8.37549 4.5H8.00049V3C8.00049 1.3455 6.65499 0 5.00049 0C3.34599 0 2.00049 1.3455 2.00049 3V4.5H1.62549C1.00549 4.5 0.500488 5.0045 0.500488 5.625V10.875C0.500488 11.4955 1.00549 12 1.62549 12H8.37549C8.99549 12 9.50049 11.4955 9.50049 10.875V5.625C9.50049 5.0045 8.99549 4.5 8.37549 4.5ZM3.00049 3C3.00049 1.897 3.89749 1 5.00049 1C6.10349 1 7.00049 1.897 7.00049 3V4.5H3.00049V3ZM5.50049 8.361V9.5C5.50049 9.776 5.27699 10 5.00049 10C4.72399 10 4.50049 9.776 4.50049 9.5V8.361C4.20299 8.1875 4.00049 7.8685 4.00049 7.5C4.00049 6.9485 4.44899 6.5 5.00049 6.5C5.55199 6.5 6.00049 6.9485 6.00049 7.5C6.00049 7.8685 5.79799 8.1875 5.50049 8.361Z" fill="#474344"/></svg>