<svg width="36" height="38" viewBox="0 0 36 38" fill="none" xmlns="http://www.w3.org/2000/svg"><path d="M4.74701 24.8037C4.74138 24.7231 4.73743 24.642 4.73743 24.56C4.73743 23.1223 5.62495 21.8789 6.90471 21.3001C6.65223 21.0847 6.41136 20.8617 6.1862 20.6295C6.03492 20.4733 5.82481 20.3809 5.60209 20.3726C5.37912 20.3638 5.16228 20.4406 4.99856 20.5847L3.14696 22.2164C2.80607 22.5167 2.78515 23.0236 3.10023 23.3487C3.60139 23.8661 4.15298 24.3512 4.74701 24.8037Z" fill="#498837"/><path d="M35.9657 36.3586L34.3127 32.6373L34.4656 32.548C34.8613 32.3163 34.9852 31.823 34.7423 31.4459L30.7185 25.1938C31.5187 24.634 32.2505 24.0179 32.8987 23.349C33.2137 23.024 33.1928 22.517 32.8518 22.2167L31.0003 20.5851C30.8366 20.4408 30.6187 20.3644 30.3967 20.3729C30.1741 20.3812 29.964 20.4737 29.8126 20.6297C29.4205 21.0343 28.9852 21.4136 28.5128 21.7666L23.5357 14.0331C24.1797 13.0658 24.5545 11.9205 24.5545 10.6927C24.5545 8.31859 23.1589 6.24975 21.109 5.19193C21.6003 4.74111 21.907 4.10855 21.907 3.40868C21.907 2.0434 20.742 0.932617 19.3101 0.932617H16.6878C15.2559 0.932617 14.0909 2.0434 14.0909 3.40868C14.0909 4.10855 14.3976 4.74111 14.8889 5.19193C12.839 6.24975 11.4434 8.31859 11.4434 10.6927C11.4434 11.9205 11.8182 13.0659 12.4623 14.0329L7.98438 20.9909C8.15902 20.9673 8.33728 20.9541 8.51865 20.9541C10.2787 20.9541 11.762 22.1067 12.1818 23.6617L16.5991 16.7981C17.0504 16.8921 17.5185 16.9431 17.9989 16.9431C18.4794 16.9431 18.9475 16.8921 19.3988 16.7981L24.0268 23.9891C22.1788 24.5639 20.1285 24.874 17.9989 24.874C15.9817 24.874 14.036 24.5954 12.2657 24.0776C12.288 24.2357 12.3006 24.3964 12.3006 24.5602C12.3006 25.9021 11.5271 27.0744 10.3835 27.6952C12.7335 28.4641 15.3251 28.8806 17.9989 28.8806C20.9227 28.8806 23.7492 28.3839 26.2679 27.4714L30.4441 33.9605C30.5607 34.1416 30.748 34.2711 30.9647 34.3206C31.0294 34.3355 31.095 34.3426 31.1603 34.3426C31.3143 34.3426 31.4667 34.3022 31.5999 34.2243L31.8387 34.0845L34.5909 37.1673C34.6733 37.2596 34.7914 37.3083 34.9112 37.3083C34.9868 37.3083 35.0633 37.2889 35.1317 37.2487L35.799 36.856C35.976 36.7519 36.0466 36.5407 35.9657 36.3586ZM17.999 14.5389C15.7746 14.5389 13.9649 12.8135 13.9649 10.6926C13.9649 8.99146 15.1296 7.54564 16.7384 7.03961V9.33033C16.7384 9.99414 17.3028 10.5323 17.999 10.5323C18.6953 10.5323 19.2597 9.99414 19.2597 9.33033V7.03961C20.8684 7.54556 22.0332 8.99138 22.0332 10.6926C22.0332 12.8135 20.2235 14.5389 17.999 14.5389Z" fill="#498837"/><path d="M4.94032 25.7219L1.25662 31.4457C1.0139 31.8227 1.13778 32.3162 1.53338 32.5477L1.68635 32.6372L0.0333458 36.3584C-0.0475897 36.5404 0.0230082 36.7517 0.199587 36.8557L0.86699 37.2483C0.935403 37.2885 1.01172 37.3079 1.08752 37.3079C1.2072 37.3079 1.32537 37.2594 1.40774 37.1669L4.15996 34.0841L4.39882 34.2239C4.53212 34.3019 4.68449 34.3422 4.83838 34.3422C4.90376 34.3422 4.9694 34.3349 5.03403 34.3202C5.25079 34.2708 5.43812 34.1412 5.5547 33.9601L9.33933 28.0794C9.07518 28.1352 8.80119 28.1657 8.51964 28.1657C6.86076 28.1658 5.44888 27.1417 4.94032 25.7219Z" fill="#498837"/><path d="M8.48974 26.4827C9.60375 26.4827 10.5068 25.6216 10.5068 24.5595C10.5068 23.4974 9.60375 22.6364 8.48974 22.6364C7.37574 22.6364 6.47266 23.4974 6.47266 24.5595C6.47266 25.6216 7.37574 26.4827 8.48974 26.4827Z" fill="#498837"/></svg>