<svg width="27" height="36" viewBox="0 0 27 36" fill="none" xmlns="http://www.w3.org/2000/svg"><path d="M3.59221 0.5H23.4078C25.0413 0.5 26.3711 1.82977 26.3711 3.46324V32.5368C26.3711 34.1702 25.0413 35.5 23.4078 35.5H3.59221C1.95873 35.5 0.628967 34.1702 0.628967 32.5368V3.46324C0.628967 1.82977 1.95873 0.5 3.59221 0.5ZM5.93038 4.42863C5.07177 4.42863 4.37569 5.1247 4.37569 5.98331V8.06583C4.37569 8.92444 5.07177 9.62052 5.93038 9.62052H21.0696C21.9282 9.62052 22.6243 8.92444 22.6243 8.06583V5.98331C22.6243 5.1247 21.9282 4.42863 21.0696 4.42863H5.93038ZM7.37186 31.2207C8.23047 31.2207 8.92654 30.5246 8.92654 29.666V28.6667C8.92654 27.8081 8.23047 27.112 7.37186 27.112H5.93045C5.07184 27.112 4.37576 27.8081 4.37576 28.6667V29.666C4.37576 30.5246 5.07184 31.2207 5.93045 31.2207H7.37186ZM7.37186 24.979C8.23047 24.979 8.92654 24.2829 8.92654 23.4243V22.425C8.92654 21.5664 8.23047 20.8704 7.37186 20.8704H5.93045C5.07184 20.8704 4.37576 21.5664 4.37576 22.425V23.4243C4.37576 24.2829 5.07184 24.979 5.93045 24.979H7.37186ZM14.3071 31.2207C15.1657 31.2207 15.8618 30.5246 15.8618 29.666V28.6667C15.8618 27.8081 15.1657 27.112 14.3071 27.112H12.8657C12.007 27.112 11.311 27.8081 11.311 28.6667V29.666C11.311 30.5246 12.007 31.2207 12.8657 31.2207H14.3071ZM14.3071 24.979C15.1657 24.979 15.8618 24.2829 15.8618 23.4243V22.425C15.8618 21.5664 15.1657 20.8704 14.3071 20.8704H12.8657C12.007 20.8704 11.311 21.5665 11.311 22.425V23.4243C11.311 24.2829 12.007 24.979 12.8657 24.979H14.3071ZM14.3071 18.7373C15.1657 18.7373 15.8618 18.0413 15.8618 17.1826V16.1833C15.8618 15.3247 15.1657 14.6286 14.3071 14.6286H5.93038C5.07177 14.6286 4.37569 15.3247 4.37569 16.1833V17.1826C4.37569 18.0412 5.07177 18.7373 5.93038 18.7373H14.3071ZM21.2424 31.2207C22.101 31.2207 22.7971 30.5246 22.7971 29.666V28.6667C22.7971 27.8081 22.101 27.112 21.2424 27.112H19.801C18.9424 27.112 18.2463 27.8081 18.2463 28.6667V29.666C18.2463 30.5246 18.9424 31.2207 19.801 31.2207H21.2424ZM21.2424 24.979C22.101 24.979 22.7971 24.2829 22.7971 23.4243V22.425C22.7971 21.5664 22.101 20.8704 21.2424 20.8704H19.801C18.9424 20.8704 18.2463 21.5664 18.2463 22.425V23.4243C18.2463 24.2829 18.9424 24.979 19.801 24.979H21.2424ZM21.2424 18.7373C22.101 18.7373 22.7971 18.0413 22.7971 17.1826V16.1833C22.7971 15.3247 22.101 14.6286 21.2424 14.6286H19.801C18.9424 14.6286 18.2463 15.3247 18.2463 16.1833V17.1826C18.2463 18.0412 18.9424 18.7373 19.801 18.7373H21.2424Z" stroke="#498837"/></svg>