<svg width="37" height="30" viewBox="0 0 37 30" fill="none" xmlns="http://www.w3.org/2000/svg"><path d="M35.5041 19.0219L35.5044 19.0227C35.8338 19.8941 36 20.8106 36 21.7498C36 26.0234 32.5218 29.5 28.2501 29.5C23.9781 29.5 20.4999 26.0234 20.4999 21.7498V21V20.5H19.9999H17.0001H16.5001V21V21.7498C16.5001 26.0234 13.0219 29.5 8.74991 29.5C4.47821 29.5 1 26.0234 1 21.7498C1 20.8202 1.1628 19.9125 1.48467 19.0453C1.49023 19.0328 1.49519 19.0202 1.49959 19.0077L7.29606 3.5975C7.30019 3.58721 7.30362 3.57771 7.30647 3.56922C7.3068 3.56822 7.30713 3.56723 7.30745 3.56625C8.0043 1.73134 9.78961 0.499939 11.75 0.499939C14.3688 0.499939 16.5001 2.63102 16.5001 5.25003V12V12.5H17.0001H19.9999H20.4999V12V5.25003C20.4999 4.67668 20.6018 4.11386 20.8025 3.57926C21.4959 1.73716 23.285 0.499939 25.25 0.499939C27.2153 0.499939 29.0043 1.73742 29.6959 3.57774L29.7339 3.67895L29.735 3.68002L35.5041 19.0219ZM3.00009 21.7498C3.00009 24.9211 5.57885 27.4999 8.74991 27.4999C11.9212 27.4999 14.5 24.9212 14.5 21.7498C14.5 18.5788 11.9212 16 8.74991 16C6.36684 16 4.20512 17.4967 3.36677 19.7256C3.123 20.3722 3.00009 21.0547 3.00009 21.7498ZM22.5 21.7498C22.5 24.9212 25.0788 27.4999 28.2501 27.4999C31.4211 27.4999 33.9999 24.9211 33.9999 21.7498C33.9999 21.0548 33.877 20.3725 33.6334 19.726C32.7951 17.4968 30.6333 16 28.2501 16C25.0788 16 22.5 18.5788 22.5 21.7498Z" stroke="#498837"/></svg>