<svg xmlns="http://www.w3.org/2000/svg" viewBox="0 0 200 200" width="50" height="50"><rect fill="none" width="200" height="200"/><path d="M190,100,175.85,79.68,177.94,55,155.52,44.48,145,22.06l-24.68,2.09L100,10,79.68,24.15,55,22.06,44.48,44.48,22.06,55l2.09,24.68L10,100l14.15,20.32L22.06,145l22.42,10.52L55,177.94l24.68-2.09L100,190l20.32-14.15L145,177.94l10.52-22.42L177.94,145l-2.09-24.68Zm-90,65a65,65,0,1,1,65-65A65,65,0,0,1,100,165Z"/><rect x="107.25" y="65.91" width="10" height="76.56" transform="translate(106.55 -48.85) rotate(45)"/><rect x="71.43" y="93.41" width="10" height="44.55" transform="translate(-59.41 87.93) rotate(-45)"/></svg>