<svg width="100" height="34" viewBox="0 0 100 34" fill="white" xmlns="http://www.w3.org/2000/svg"><path d="M28.7276 33.833H26.4158L21.6671 22.536H24.9835L27.6566 29.7282H27.7036L30.3288 22.536H33.4551L28.7276 33.833Z"/><path d="M51.0727 25.456C50.4996 25.1239 49.9528 25.052 49.6416 25.052C48.9737 25.052 48.3538 25.289 47.5659 25.9307V33.7632H44.3429V22.536H47.0643L47.4222 23.6992C48.4502 22.7981 49.33 22.2756 50.5241 22.2756C51.0727 22.2756 51.7423 22.4418 52.2414 22.7981L51.0727 25.456Z"/><path d="M55.8151 34C53.8818 34 52.4263 33.5483 51.3513 32.8842L52.355 30.5586C53.3087 31.2218 54.4324 31.6026 55.5053 31.6026C56.6027 31.6026 57.2951 31.247 57.2951 30.582C57.2951 28.8019 52.0679 29.5146 52.0679 25.7169C52.0679 23.6516 53.7384 22.2755 56.4818 22.2755C57.9872 22.2755 59.0366 22.4891 59.9661 22.8455V25.5034C58.9411 25.0985 57.8438 24.7432 56.6272 24.7432C55.6958 24.7432 55.1939 25.0033 55.1939 25.55C55.1939 27.0922 60.5148 26.523 60.5148 30.44C60.5148 33.0269 58.2245 34 55.8151 34Z"/><path d="M65.5348 34C63.4336 34 62.646 32.8133 62.646 31.2938V25.3484H60.57V22.8306H62.646V19.9256L65.8685 18.9751V22.8306H69.3998L68.7638 25.3484H65.8685V30.0847C65.8685 30.9132 66.2015 31.317 66.9423 31.317C67.6328 31.317 68.3495 31.01 68.7789 30.7472L69.6147 32.7424C68.3269 33.6679 66.6547 34 65.5348 34Z"/><path d="M76.3478 28.6835L74.941 28.7303C73.5567 28.7787 72.8878 29.2536 72.8878 30.1078C72.8878 30.9607 73.5078 31.5074 74.6072 31.5074C75.4652 31.5074 76.0383 31.2218 76.3478 30.9848V28.6835ZM77.1357 33.7631L76.6341 32.789C75.8951 33.4542 74.8942 34 73.4365 34C71.2888 34 69.6691 32.5764 69.6691 30.3429C69.6691 27.9708 71.6002 26.7366 74.4619 26.6414L76.3723 26.5715C76.3723 26.523 76.3723 26.4287 76.3723 26.3804C76.3723 25.1954 75.4184 24.6964 74.2977 24.6964C73.1517 24.6964 72.1714 25.0283 71.4097 25.4559L70.4287 23.5098C71.9809 22.5106 73.461 22.2755 74.988 22.2755C77.9958 22.2755 79.6663 23.4856 79.6663 26.4519V33.777L77.1357 33.7631Z"/><path d="M84.3307 33.7769V15.7369L81.0864 16.7127V33.7769H84.3307Z"/><path d="M5.2586 34C2.98831 34 1.3671 33.2639 0 32.4318L1.43454 29.7562C2.52264 30.4887 4.0688 31.3161 5.07172 31.3161C6.10507 31.3161 7.45325 30.9794 7.45325 29.7881C7.45325 27.7235 3.72914 27.3542 1.81965 25.1954C1.22544 24.5071 0.818462 23.6283 0.818462 22.4174C0.818462 20.0451 2.70352 17.9544 6.16359 17.9544C7.8346 17.9544 9.21685 18.3828 10.1259 18.9052L10.0781 21.9007C8.74152 21.1889 7.47199 20.5648 6.18233 20.5648C5.0133 20.5648 4.24234 21.0815 4.24234 21.9827C4.24234 24.6888 11.0074 24.4575 11.0074 29.3719C11.0074 32.2201 8.47785 34 5.2586 34Z"/><path d="M38.0069 24.6308C36.7228 24.6308 35.9855 25.8118 35.9855 26.8306H40.0504C39.9782 25.765 39.3846 24.6308 38.0069 24.6308ZM36.0567 29.0282C36.128 30.5405 37.5537 31.4389 39.0506 31.4389C40.1442 31.4389 40.978 31.227 42.2414 30.6357L42.9787 32.6691C41.4058 33.6376 39.8599 33.9697 38.5281 33.9697C34.4895 33.9697 32.8229 31.1309 32.8229 28.2008C32.8229 25.0329 34.7258 22.2892 38.1005 22.2892C41.1911 22.2892 43.331 24.583 43.331 28.0588C43.331 28.2736 43.331 28.6021 43.331 29.0282H36.0567Z"/><path d="M16.9641 24.6308C15.6802 24.6308 14.9449 25.8118 14.9449 26.8306H19.0099C18.9386 25.765 18.342 24.6308 16.9641 24.6308ZM15.0142 29.0282C15.0865 30.5405 16.5131 31.4389 18.011 31.4389C19.1046 31.4389 19.9355 31.227 21.2008 30.6357L21.9381 32.6691C20.3633 33.6376 18.8176 33.9697 17.4866 33.9697C13.4462 33.9697 11.7832 31.1309 11.7832 28.2008C11.7832 25.0329 13.6852 22.2892 17.0581 22.2892C20.1485 22.2892 22.2889 24.583 22.2889 28.0588C22.2889 28.2736 22.2889 28.6021 22.2889 29.0282H15.0142Z"/><path d="M97.8753 12.8495C98.0825 12.7842 98.2833 12.6762 98.4783 12.5379C98.7784 11.7693 99.0562 10.9128 99.3048 9.96136H99.3038C99.6319 8.70031 99.8309 7.56206 99.9285 6.53961C100.026 5.50218 100.019 4.58429 99.9358 3.77447C99.8466 2.92745 99.6225 2.06359 99.1142 1.56745C98.607 1.07108 97.7375 0.862191 96.8821 0.789442C96.6996 0.775875 96.5115 0.76605 96.3177 0.759969H95.4117C94.9997 0.772367 94.5655 0.801837 94.1095 0.85096C94.3289 0.949907 94.5241 1.07108 94.6853 1.2147C95.1937 1.67926 95.432 2.4685 95.535 3.24277C95.6102 3.80628 95.642 4.42569 95.6196 5.10288C95.5839 6.19809 95.4075 7.44627 95.039 8.86241C94.7549 9.95574 94.419 10.9035 94.0514 11.7282C94.6217 12.0772 95.1674 12.3552 95.6853 12.5679C96.4122 12.8664 97.2196 13.0567 97.8753 12.8495Z"/><path d="M85.8463 10.5048C85.7995 10.7156 85.7938 10.9452 85.8164 11.1841C86.335 11.8239 86.9392 12.4882 87.6414 13.1766C88.5803 14.0928 89.478 14.8315 90.324 15.4247C91.1756 16.0238 91.9757 16.4753 92.7158 16.813C93.4942 17.1711 94.3616 17.4008 95.0474 17.2123C95.733 17.022 96.351 16.3744 96.8416 15.6749C97.3097 15.0088 97.7626 14.2083 98.182 13.2549C97.9832 13.3968 97.7779 13.5087 97.5667 13.574C96.9101 13.7812 96.1034 13.5909 95.3767 13.2923C94.8484 13.0758 94.2932 12.7941 93.7125 12.436C92.7795 11.8576 91.7807 11.0813 90.7311 10.0571V10.0552C89.9225 9.26414 89.2661 8.50297 88.7315 7.77338C88.1433 8.08893 87.6302 8.41876 87.1866 8.75864C86.5638 9.2363 85.9944 9.8349 85.8463 10.5048Z"/><path d="M93.8958 1.29888C93.7436 1.16087 93.5559 1.04508 93.3497 0.950109C92.5244 1.07315 91.6352 1.25982 90.6721 1.52461C89.4143 1.87174 88.3254 2.26917 87.3865 2.6963C86.4427 3.12741 85.6513 3.588 84.9909 4.06028C84.2875 4.56203 83.6384 5.19291 83.4585 5.88507C83.2802 6.57723 83.5396 7.44109 83.9086 8.21887C84.2553 8.95033 84.7247 9.73583 85.34 10.5679C85.3155 10.3234 85.3221 10.0902 85.3701 9.87571C85.5182 9.20787 86.0876 8.60694 86.7092 8.12928C87.1615 7.78425 87.6829 7.44834 88.2849 7.12741C89.2546 6.61068 90.4329 6.13864 91.8508 5.74683C92.9409 5.44648 93.9313 5.26192 94.8316 5.16648C94.8523 4.49677 94.8203 3.88297 94.7455 3.32695C94.6425 2.55268 94.4049 1.7618 93.8958 1.29888Z"/></svg>