<svg width="72" height="16" viewBox="0 0 72 16" fill="white" xmlns="http://www.w3.org/2000/svg"><path d="M10.5447 7.81714C10.4869 7.79429 10.4176 7.77143 10.4176 7.70286C10.4176 7.65714 10.4407 7.62286 10.4869 7.6C10.5678 7.56571 12.5668 6.85714 12.5668 4.52571C12.5668 1.93143 10.7989 0.388572 7.81778 0.388572H0.596069V15.6343H8.47641C10.7758 15.6343 13.2485 14.0229 13.2485 11.4286C13.2485 8.94857 11.3535 8.08 10.5447 7.81714ZM4.23581 3.50857C4.23581 3.45143 4.28203 3.40571 4.33981 3.40571H7.20538C8.15287 3.40571 8.79994 4.03429 8.79994 4.97143C8.79994 5.70286 8.2222 6.49143 7.13605 6.49143H4.33981C4.28203 6.49143 4.23581 6.44571 4.23581 6.38857V3.50857ZM7.20538 12.6286H4.33981C4.28203 12.6286 4.23581 12.5829 4.23581 12.5257V9.48571C4.23581 9.42857 4.28203 9.38286 4.33981 9.38286H7.13605C8.51107 9.38286 9.29679 9.96571 9.29679 10.9943C9.29679 12.0571 8.56884 12.6286 7.20538 12.6286ZM37.6406 6.45714L37.0859 6.34286C35.838 6.08 34.6248 5.74857 34.6248 4.68571C34.6248 3.62286 35.63 3.14286 36.6238 3.14286C37.7908 3.14286 38.9463 3.65714 39.8244 4.54857L42.1123 2.30857C41.1301 1.23429 39.3853 0 36.566 0C33.1689 0 30.8811 1.90857 30.8811 4.75429C30.8811 7.76 33.2729 8.89143 35.2834 9.31429L35.8265 9.42857C37.7792 9.84 38.7036 10.1486 38.7036 11.2457C38.7036 12.2286 37.8139 12.88 36.4967 12.88C34.9483 12.88 33.5733 12.2057 32.5334 10.9371L30.1878 13.2114C31.4357 14.6743 33.088 16 36.5429 16C39.4893 16 42.482 14.3086 42.482 11.0629C42.4705 7.73714 40.1826 6.98286 37.6406 6.45714ZM68.0873 0.388572V5.96571C68.0873 6.02286 68.0411 6.06857 67.9833 6.06857H63.2459C63.1881 6.06857 63.1419 6.02286 63.1419 5.96571V0.388572H59.2595V15.6343H63.1419V9.64571C63.1419 9.58857 63.1881 9.54286 63.2459 9.54286H67.9833C68.0411 9.54286 68.0873 9.58857 68.0873 9.64571V15.6343H71.9928V0.388572H68.0873ZM51.4485 12.5143C49.7037 12.5143 47.8203 11.0743 47.8203 7.90857C47.8203 5.01714 49.5882 3.50857 51.3329 3.50857C52.604 3.50857 53.4937 4.03429 54.1985 5.2L57.1796 3.24571C55.6544 1.02857 53.8403 0.0228572 51.3098 0.0228572C46.3529 0.0228572 44.1343 3.98857 44.1343 7.90857C44.1343 12.6743 47.0692 16 51.2636 16C54.3834 16 55.8046 14.8686 57.2952 12.7771L54.291 10.7771C53.6208 11.8514 52.8928 12.5143 51.4485 12.5143ZM21.9723 0C17.7318 0 14.8893 3.21143 14.8893 8C14.8893 12.7886 17.7318 16 21.9723 16C26.2129 16 29.0554 12.7886 29.0554 8C29.0554 3.21143 26.2129 0 21.9723 0ZM21.9723 12.5143C19.8925 12.5143 18.5521 10.7429 18.5521 8C18.5521 5.26857 19.8925 3.50857 21.9723 3.50857C24.0638 3.50857 25.4157 5.26857 25.4157 8C25.4157 10.7429 24.0638 12.5143 21.9723 12.5143Z"/></svg>