<svg width="94" height="98" viewBox="0 0 94 98" fill="none" xmlns="http://www.w3.org/2000/svg"><path d="M5.30395 18.2767L0.790726 24.2517L8.17652 29.8306L9.15595 28.5339L2.89048 23.8013L5.44484 20.4196L11.7103 25.1522L12.6897 23.8556L5.30395 18.2767Z" fill="#CBCECF"/><path d="M11.8187 11.7406C9.57687 13.4743 9.58535 16.1629 11.2475 18.3122C13.013 20.5952 15.633 21.0506 17.7308 19.4282C19.8184 17.8138 20.047 15.1556 18.2815 12.8726C16.524 10.5999 13.8857 10.1422 11.8187 11.7406ZM12.6332 12.8363C13.9906 11.7866 15.6815 12.1881 16.9778 13.8643C18.2741 15.5406 18.2533 17.2987 16.9164 18.3325C15.5384 19.3982 13.8474 18.9967 12.5273 17.2896C11.2469 15.6339 11.286 13.8781 12.6332 12.8363Z" fill="#CBCECF"/><path d="M29.5005 8.6861C30.2052 10.8285 29.3482 12.8018 27.2104 13.6875C24.7963 14.6875 22.4746 13.5668 21.3551 10.8645C20.35 8.4385 20.9814 5.78478 23.5756 4.71005C25.2811 4.00351 27.2545 4.28352 28.3637 6.14578L26.8744 6.76276C26.2424 5.81447 25.1839 5.53532 24.079 5.99307C22.2775 6.73941 22.2166 8.66429 22.8684 10.2376C23.5252 11.823 24.8935 13.1557 26.719 12.3995C28.1122 11.8223 28.3656 10.6338 27.9993 9.30805L29.5005 8.6861Z" fill="#CBCECF"/><path d="M41.4469 0.757064L39.2011 1.02762L37.5891 8.51518L34.1546 1.6356L31.896 1.90771L33.0031 11.0973L34.5261 10.9138L33.6724 3.82801L37.1461 10.5981L38.4626 10.4395L40.1645 3.04589L41.0181 10.1317L42.554 9.94662L41.4469 0.757064Z" fill="#CBCECF"/><path d="M50.6659 1.22709C53.242 1.665 54.6922 3.91589 54.2108 6.74826C53.7271 9.59344 51.6167 11.2258 49.015 10.7836C46.4005 10.3391 44.9608 8.10322 45.4445 5.25804C45.8999 2.57947 47.872 0.752135 50.6659 1.22709ZM50.4115 2.56843C48.7326 2.28302 47.4145 3.44352 47.0637 5.50692C46.702 7.6344 47.552 9.15029 49.2694 9.44223C50.9355 9.72546 52.243 8.54996 52.5981 6.46093C52.9532 4.3719 52.1032 2.85601 50.4115 2.56843Z" fill="#CBCECF"/><path d="M66.0494 6.38188L65.4726 7.66193L62.7821 6.44961L59.5564 13.6084L58.0748 12.9408L61.3006 5.78203L58.6101 4.5697L59.1869 3.28965L66.0494 6.38188Z" fill="#CBCECF"/><path d="M70.4305 8.83518L64.7951 16.1779L66.0842 17.1673L68.2529 14.3416L70.3258 15.9325C71.8108 17.0722 73.3887 16.8739 74.4572 15.4817C75.6366 13.9451 75.1332 12.4444 73.6172 11.2809L70.4305 8.83518ZM70.8965 10.8971L72.5775 12.1872C73.3922 12.8125 73.9035 13.5982 73.1753 14.547C72.5105 15.4133 71.6821 15.3183 70.8467 14.6772L69.0523 13.3L70.8965 10.8971Z" fill="#CBCECF"/><path d="M83.4522 21.2727L82.3947 22.1357L79.1973 18.2178L77.2937 19.7713L80.261 23.4072L79.2437 24.2374L76.2765 20.6015L74.1614 22.3276L77.4081 26.3059L76.3305 27.1854L72.0645 21.9581L79.2356 16.1059L83.4522 21.2727Z" fill="#CBCECF"/><path d="M89.0714 31.1935L87.8102 31.8103L86.5136 29.1594L79.4601 32.6092L78.7461 31.1494L85.7997 27.6996L84.5032 25.0487L85.7644 24.4318L89.0714 31.1935Z" fill="#CBCECF"/><path d="M86.2143 44.185C87.9883 43.7781 88.7364 42.4461 88.2831 40.4695L87.7309 38.062L91.1774 37.2715L90.8141 35.6876L81.7924 37.7569L82.7078 41.7482C83.1583 43.7122 84.4277 44.5948 86.2143 44.185ZM85.8131 42.6098C84.8374 42.8336 84.2241 42.4274 83.9858 41.3884L83.4481 39.0443L86.4384 38.3584L86.9703 40.6772C87.197 41.6655 86.7634 42.3919 85.8131 42.6098Z" fill="#CBCECF"/><path d="M93.1297 52.7017L92.5781 56.8906C92.3168 58.8754 91.2452 59.744 89.879 59.5641C88.9897 59.447 88.3263 58.8089 88.1188 57.9948C87.7236 59.0049 86.8474 59.5845 85.6616 59.4283C84.0376 59.2145 83.1111 57.8862 83.3369 56.172L83.9529 51.4933L93.1297 52.7017ZM91.6209 54.1027L89.0947 53.7701L88.8062 55.9612C88.6483 57.1598 88.9037 57.8097 89.8317 57.9319C90.9788 58.083 91.2051 57.2605 91.3256 56.3454L91.6209 54.1027ZM87.9347 53.6173L85.0605 53.2389L84.7432 55.6491C84.6006 56.7317 84.7396 57.6679 85.9124 57.8223C87.1755 57.9886 87.4833 57.0458 87.6207 56.0018L87.9347 53.6173Z" fill="#FF3E41"/><path d="M82.4678 61.6147L91.0465 65.0903L90.4363 66.5963L83.8577 63.9311L88.9427 70.2833L88.2349 72.0303L79.6561 68.5548L80.2663 67.0487L86.8449 69.7139L81.76 63.3618L82.4678 61.6147Z" fill="#FF3E41"/><path d="M71.6014 76.495L72.5399 75.2326L74.3865 76.6053L77.9851 71.7643L76.1384 70.3915L77.0768 69.1291L80.0503 71.3394L79.5152 72.0593C80.098 73.3673 81.903 75.3408 83.9479 76.8608L85.0956 77.7139L81.497 82.555L75.1954 77.8706L74.5749 78.7053L71.6014 76.495ZM76.1648 76.5665L81.3397 80.4132L83.0226 78.1492L82.574 77.8157C80.7273 76.443 79.0633 74.6067 78.4759 73.4574L76.1648 76.5665Z" fill="#FF3E41"/><path d="M72.7999 90.758L71.9329 89.7038L75.8387 86.4917L74.2781 84.594L70.6534 87.5748L69.8194 86.5607L73.4441 83.5799L71.7101 81.4713L67.744 84.7329L66.8605 83.6585L72.0717 79.373L77.9508 86.5221L72.7999 90.758Z" fill="#FF3E41"/><path d="M65.3773 95.4704C63.0094 96.5753 60.5363 95.5487 59.3215 92.9452C58.1012 90.3299 58.9087 87.7869 61.3001 86.6711C63.7034 85.5497 66.1592 86.57 67.3795 89.1853C68.5283 91.6474 67.9455 94.2721 65.3773 95.4704ZM64.8237 94.2225C66.3669 93.5024 66.7911 91.7981 65.9061 89.9015C64.9936 87.9459 63.4324 87.1824 61.8538 87.919C60.3223 88.6336 59.9154 90.3441 60.8114 92.2644C61.7074 94.1846 63.2686 94.948 64.8237 94.2225Z" fill="#FF3E41"/></svg>