<svg width="20" height="20" viewBox="0 0 20 20" fill="#CBCECF" xmlns="http://www.w3.org/2000/svg"><path fill-rule="evenodd" clip-rule="evenodd" d="M9.99999 0.666687C4.84533 0.666687 0.666656 4.84536 0.666656 10C0.666656 13.8823 3.03703 17.211 6.40947 18.6177C7.48503 19.0664 8.6625 19.3195 9.89752 19.3328C9.93163 19.3332 9.9658 19.3334 9.99999 19.3334C10.0342 19.3334 10.0683 19.3332 10.1024 19.3328C11.3375 19.3195 12.515 19.0664 13.5905 18.6177C16.963 17.211 19.3333 13.8823 19.3333 10C19.3333 4.84536 15.1546 0.666687 9.99999 0.666687ZM11.2452 11.3334C11.0696 12.6515 10.6372 13.8884 9.99999 14.9923C9.36278 13.8884 8.93039 12.6515 8.75477 11.3334H11.2452ZM13.9307 11.3334C13.7457 13.1014 13.197 14.7612 12.3608 16.2366C14.4744 15.4361 16.0748 13.5921 16.5333 11.3334H13.9307ZM16.5333 8.66669H13.9307C13.7457 6.89865 13.197 5.23884 12.3608 3.76343C14.4743 4.56392 16.0748 6.40796 16.5333 8.66669ZM11.2452 8.66669H8.75477C8.9304 7.34858 9.36278 6.11164 9.99999 5.0078C10.6372 6.11164 11.0696 7.34858 11.2452 8.66669ZM6.06933 8.66669C6.25429 6.89865 6.80296 5.23884 7.63918 3.76343C5.52563 4.56392 3.92518 6.40796 3.46668 8.66669H6.06933ZM3.46668 11.3334C3.92518 13.5921 5.52562 15.4361 7.63915 16.2366C6.80294 14.7612 6.25428 13.1014 6.06933 11.3334H3.46668Z"/></svg>