<svg xmlns="http://www.w3.org/2000/svg" viewBox="0 0 94.94 94.16" width="95px" height="94px">
	<defs><style>.cls-1{fill:#826550;}</style></defs>
	<path class="cls-1" d="M98.46,37.88A47.19,47.19,0,0,0,90,24.78q-1,1.89-2,3.78a43.19,43.19,0,0,1,6.43,10C95.74,38.33,97.09,38.11,98.46,37.88Z" transform="translate(-8.17 -9.49)"/><path class="cls-1" d="M98.18,53.05c.1,1.16.16,2.33.16,3.52A43.08,43.08,0,0,1,55.26,99.65c-.79,0-1.57,0-2.35-.06a7.14,7.14,0,0,1,.22,1.84,6.72,6.72,0,0,1-.4,2.15c.84,0,1.68.07,2.53.07a47.13,47.13,0,0,0,47.08-47.08,46.4,46.4,0,0,0-.42-6.16A39.32,39.32,0,0,1,98.18,53.05Z" transform="translate(-8.17 -9.49)"/><path class="cls-1" d="M12.17,56.57A43.08,43.08,0,0,1,76.82,19.28c1.09-.86,2.21-1.74,3.37-2.62a47.06,47.06,0,1,0-42.36,83.63,18.25,18.25,0,0,1-.57-4.58A43.09,43.09,0,0,1,12.17,56.57Z" transform="translate(-8.17 -9.49)"/><path class="cls-1" d="M46.94,94.39c7.74-2.72,16.32-9.66,14.54-19.82-.9-5.15-4.48-5-7.27-9.25,14.44-12,24.22-28.66,33.05-46.27h-2c-7.44,5.67-21.91,17-28.41,26.44-2.61,3.78-4.6,9.31-7.27,13.88C45.05,67.11,34.46,80.6,43,90.43c-1.38,4.62-1.21,12.39,4,12.56C50.21,101.26,45.56,98.38,46.94,94.39Zm8.32-38.82a2.59,2.59,0,1,1-2.59,2.58A2.59,2.59,0,0,1,55.26,55.57ZM45,84.48c-1.86-9,7-17,11.9-9.25C57.12,82.65,50.68,91,45,84.48Z" transform="translate(-8.17 -9.49)"/><path class="cls-1" d="M64.13,60.69c14-5.2,30.57-7.75,39-18.5C93.7,43.56,85,45.65,75.36,46.81,73.23,53.05,68.33,56.52,64.13,60.69Z" transform="translate(-8.17 -9.49)"/><path class="cls-1" d="M20.51,49.46c-4.22,12.24,8.42,16,21.81,13.87,3.78-4.81,5.85-10,2-15.86C39.41,40,23.39,41.1,20.51,49.46Zm5.29,7.26c-5.13-10.84,12.89-11.06,14.53-5.28C42.51,59.07,31.24,59.47,25.8,56.72Z" transform="translate(-8.17 -9.49)"/>
</svg>