<svg xmlns="http://www.w3.org/2000/svg" viewBox="0 0 57.68 68.64" width="58px" height="68px">
	<path d="M80.44,56.52c.12-1.7.47-3.51.72-5.4.7-5.43,1.6-11.67-.12-16.8H80.8c-1.32,3.74-1.26,8.35-2.16,12.36a19.62,19.62,0,0,1-3.24,7.56c-.53.69-1.06,1.55-1.92,1.8-.66-3.92-4.28-4.94-7.68-6.36-2.13-.89-4-2-6.12-2.16a11.27,11.27,0,0,0-2,.23,11.27,11.27,0,0,0-2-.23c-2.15.14-4,1.27-6.12,2.16-3.39,1.42-7,2.44-7.68,6.36-.86-.25-1.39-1.11-1.92-1.8a19.93,19.93,0,0,1-3.24-7.56c-.9-4-.83-8.62-2.16-12.36h-.24c-1.71,5.13-.82,11.37-.12,16.8.25,1.89.6,3.7.72,5.4.79,11-7,23.12-6,28.92.93,7.53,8.4,9.4,14.16,12.36,4.35,2.24,8.31,5,13.32,5.16H59c5-.21,9-2.93,13.32-5.16C78,94.83,85.51,93,86.44,85.44,87.39,79.64,79.65,67.57,80.44,56.52ZM57.68,60.26h0a35.83,35.83,0,0,1-7.16-.5c.67-2,4-1.56,7.08-1.56h.16c3.05,0,6.42-.49,7.08,1.56A35.78,35.78,0,0,1,57.68,60.26Z" transform="translate(-28.84 -34.32)" fill="#826550"/>
</svg>