<svg xmlns="http://www.w3.org/2000/svg" viewBox="0 0 51.48 49.48" width="52px" height="49px">
	<path d="M76.64,24.79H76.4C74.09,32.48,73.47,41.86,67,45.43c-1.19-3.36-4.11-4.9-7.44-6.36-2.12-.94-4.55-2.56-6.6-2.64a2.17,2.17,0,0,0-1.5.31,2.18,2.18,0,0,0-1.5-.31c-2.06.08-4.49,1.7-6.6,2.64-3.33,1.46-6.25,3-7.44,6.36-6.44-3.57-7.06-13-9.36-20.64h-.24a14,14,0,0,0-.6,2.4c0,1.92.54,21.46,1.92,28.44,1.24,6.29,6.07,10.83,10.8,13.8,3.29,2.07,8.5,4.83,13,4.83s9.73-2.76,13-4.83c4.72-3,9.56-7.51,10.8-13.8,1.37-7,1.92-26.52,1.92-28.44A15,15,0,0,0,76.64,24.79ZM62.71,52.84c-.25,1.55-1.67,3.39-3.36,3.48-3,.17-4.51-4.41-7.86-4.38s-4.88,4.55-7.86,4.38c-1.7-.09-3.12-1.93-3.36-3.48A7.58,7.58,0,0,1,42,47.2c1.1-1.07,2.82-.93,4.68-1.2a8.54,8.54,0,0,0,4.86-2h0a8.54,8.54,0,0,0,4.86,2c1.86.27,3.57.13,4.68,1.2A7.58,7.58,0,0,1,62.71,52.84Z" transform="translate(-25.76 -24.79)" fill="#826550"/>
</svg>