<svg xmlns="http://www.w3.org/2000/svg" viewBox="0 0 44.66 104.78" width="57px" height="97px">
	<path d="M66.3,52.39h-.12c-2.81,21.53-5.38,22.56-7,22.68s-3.64-1.77-4.92-2.52A15.93,15.93,0,0,0,45.24,70a15.93,15.93,0,0,0-9.06,2.54c-1.28.75-3.5,2.63-4.92,2.52-1.58-.12-4.14-1.15-7-22.68h-.12c-2.07,12.21-1.56,50.2,1.2,63.6,2.61,18.52,10.11,35.11,13.44,39.6.68,1,3.53,1.57,6.42,1.58s5.74-.54,6.42-1.58C55,151.1,62.49,134.51,65.1,116,67.86,102.59,68.37,64.6,66.3,52.39ZM45.24,80.54a99.13,99.13,0,0,0-10.14.53c1.13-1.75,9-3.24,10.14-3.45,1.15.21,9,1.7,10.14,3.45A99.28,99.28,0,0,0,45.24,80.54Z" transform="translate(-22.91 -52.39)" fill="#826550"/>
</svg>