<svg xmlns="http://www.w3.org/2000/svg" viewBox="0 0 57 97.68" width="57px" height="97px">
	<path d="M79.62,64.08c-.4-5.45-.61-10.85-2.52-15.24-.77,0-1.53,7.31-2.28,10.92C73.34,66.9,71.11,68,70.38,68c-.86-3.86-4.38-4.24-7.8-5.88A11.16,11.16,0,0,0,59,61a13.32,13.32,0,0,0-2,.12A13.32,13.32,0,0,0,55,61a11.16,11.16,0,0,0-3.6,1.2c-3.42,1.64-6.94,2-7.8,5.88-.73,0-3-1.14-4.44-8.28-.75-3.61-1.52-10.92-2.28-10.92-1.91,4.39-2.13,9.79-2.52,15.24-.88,23.54-5.88,36.29-5.88,47.16,0,26.07,11.71,35.28,28.5,35.28s28.5-9.21,28.5-35.28C85.5,100.37,80.5,87.62,79.62,64.08ZM62.94,73.8c-2.79,1.17-5.35-.71-5.88-.72h-.12c-.53,0-3.09,1.89-5.88.72-.78-3.58,2.4-4,5.94-3.91C60.54,69.76,63.72,70.22,62.94,73.8Z" transform="translate(-28.5 -48.84)" fill="#826550"/>
</svg>