<svg xmlns="http://www.w3.org/2000/svg" viewBox="0 0 303.96 380" width="23px" height="26px">
	<defs><style>.cls-1{fill:#ffffff;fill-rule:evenodd;}</style></defs>
	<path class="cls-1" d="M282.77,202q-21.18-22.83-56.4-30.24v-2a81.77,81.77,0,0,0,38.41-31.9q13.91-21.69,13.91-49.51,0-24-10.08-42.37t-30.5-29.34a121.78,121.78,0,0,0-40.45-13.4Q176.09,0,134.24,0H0V380H152.11q39.54,0,65.2-7.15a133.55,133.55,0,0,0,47.09-24,101.54,101.54,0,0,0,28.83-35.48q10.71-21.44,10.73-49.76,0-38.77-21.19-61.63ZM95,69.67h6.63q25.52,0,38.4.38t22.34,4.46a28.45,28.45,0,0,1,14.66,14,43,43,0,0,1,4.73,18.88,52.23,52.23,0,0,1-4.33,21.95q-4.35,9.47-15.83,14.81a55.25,55.25,0,0,1-20.29,5.36q-9.82.51-34.32.5H95V69.67ZM199.7,286.47q-6,10.83-19,16.45a80.2,80.2,0,0,1-29.09,6.89q-14.29.51-51.54.52H95v-95.2h17.6q25.53,0,40.7.39t23.86,3.7q14.31,5.11,21.44,15.05t7.16,27.57a50.05,50.05,0,0,1-6,24.63Z"/>
</svg>