<svg id="planet" xmlns="http://www.w3.org/2000/svg" viewBox="0 0 50 50" width="75" height="75">	
	<path d="M32,49A25.06,25.06,0,0,0,47.43,36a29.28,29.28,0,0,1-6.12,3.93A21.6,21.6,0,0,1,32,49Z" transform="translate(0 -0.6)"/>
	<path d="M36.36,2.75A26.29,26.29,0,0,0,32,1a19.34,19.34,0,0,1,4.11,2.68A1.13,1.13,0,0,0,36.4,3,1.18,1.18,0,0,0,36.36,2.75Z" transform="translate(0 -0.6)"/>
	<path d="M48.58,33.31a25.31,25.31,0,0,0,1.35-6.59,35,35,0,0,1-5.1,2.44,29.9,29.9,0,0,1-2.57,8.94A26.5,26.5,0,0,0,48.58,33.31Z" transform="translate(0 -0.6)"/>
	<path d="M37.55,3.38A2.35,2.35,0,0,1,37,4.49a26,26,0,0,1,6.76,11.32,17.14,17.14,0,0,0,3.55-2.09A25.17,25.17,0,0,0,37.55,3.38Z" transform="translate(0 -0.6)"/>
	<path d="M50,25a24.93,24.93,0,0,0-2.16-10.16A19.69,19.69,0,0,1,44.09,17a31.91,31.91,0,0,1,1,8c0,1-.06,1.93-.14,2.87a31.47,31.47,0,0,0,5-2.52C50,25.23,50,25.12,50,25Z" transform="translate(0 -0.6)"/>

	<path d="M28.15.94a14.94,14.94,0,0,1,2.93,4.89,14,14,0,0,0,4.06-1.38A16.7,16.7,0,0,0,28.15.94Z" transform="translate(0 -0.6)"/>
	<path d="M28.15,49.06A18.54,18.54,0,0,0,39.4,40.78,36.55,36.55,0,0,1,31.51,43,16.36,16.36,0,0,1,28.15,49.06Z" transform="translate(0 -0.6)"/>
	<path d="M43.9,25A30.61,30.61,0,0,0,43,17.48a41.08,41.08,0,0,1-9.05,2.34c.12,1.67.19,3.4.19,5.18,0,2-.08,3.91-.23,5.76a49.8,49.8,0,0,0,9.83-2.41A30.6,30.6,0,0,0,43.9,25Z" transform="translate(0 -0.6)"/>
	<path d="M43.55,29.64A51.24,51.24,0,0,1,33.76,32a49.88,49.88,0,0,1-1.83,9.74A34.66,34.66,0,0,0,40.45,39,28.4,28.4,0,0,0,43.55,29.64Z" transform="translate(0 -0.6)"/>
	<path d="M36.08,5.27A13.56,13.56,0,0,1,31.5,7a48.73,48.73,0,0,1,2.32,11.62,40.44,40.44,0,0,0,8.83-2.31A24.72,24.72,0,0,0,36.08,5.27Z" transform="translate(0 -0.6)"/>

	<path d="M29.89,6C28.46,2.57,26.71.6,25,.6s-3.46,2-4.89,5.44A33.07,33.07,0,0,0,25,6.4,33.07,33.07,0,0,0,29.89,6Z" transform="translate(0 -0.6)"/>
	<path d="M30.63,41.93a47.87,47.87,0,0,0,1.92-9.8,61.61,61.61,0,0,1-7.55.46,61.61,61.61,0,0,1-7.55-.46,47.87,47.87,0,0,0,1.92,9.8,37.94,37.94,0,0,0,11.26,0Z" transform="translate(0 -0.6)"/>
	<path d="M19.81,43.2c1.48,3.95,3.36,6.2,5.19,6.2s3.71-2.25,5.19-6.2a38.66,38.66,0,0,1-10.38,0Z" transform="translate(0 -0.6)"/>
	<path d="M32.64,18.76A48,48,0,0,0,30.33,7.18,33.25,33.25,0,0,1,25,7.6a33.25,33.25,0,0,1-5.33-.42,48,48,0,0,0-2.31,11.58,58.48,58.48,0,0,0,7.64.5A58.48,58.48,0,0,0,32.64,18.76Z" transform="translate(0 -0.6)"/>
	<path d="M32.66,30.92c.15-1.87.24-3.84.24-5.92,0-1.75-.06-3.42-.17-5a61.33,61.33,0,0,1-7.73.48A61.33,61.33,0,0,1,17.27,20c-.11,1.6-.17,3.27-.17,5,0,2.08.09,4.05.24,5.92a63.15,63.15,0,0,0,7.66.47A63.15,63.15,0,0,0,32.66,30.92Z" transform="translate(0 -0.6)"/>

	<path d="M16.24,32a51.24,51.24,0,0,1-9.79-2.34A28.4,28.4,0,0,0,9.55,39a34.66,34.66,0,0,0,8.52,2.7A49.88,49.88,0,0,1,16.24,32Z" transform="translate(0 -0.6)"/>
	<path d="M21.85,49.06A16.36,16.36,0,0,1,18.49,43a36.55,36.55,0,0,1-7.89-2.23A18.54,18.54,0,0,0,21.85,49.06Z" transform="translate(0 -0.6)"/>
	<path d="M21.85.94a16.7,16.7,0,0,0-7,3.51,14,14,0,0,0,4.06,1.38A14.94,14.94,0,0,1,21.85.94Z" transform="translate(0 -0.6)"/>
	<path d="M15.9,25c0-1.78.07-3.51.19-5.18a41.08,41.08,0,0,1-9-2.34A29.78,29.78,0,0,0,6.3,28.35a49.8,49.8,0,0,0,9.83,2.41C16,28.91,15.9,27,15.9,25Z" transform="translate(0 -0.6)"/>
	<path d="M18.5,7a13.56,13.56,0,0,1-4.58-1.7,24.72,24.72,0,0,0-6.57,11,40.44,40.44,0,0,0,8.83,2.31A48.73,48.73,0,0,1,18.5,7Z" transform="translate(0 -0.6)"/>

	<path d="M18,49a21.6,21.6,0,0,1-9.31-9.07A29.28,29.28,0,0,1,2.57,36,25.06,25.06,0,0,0,18,49Z" transform="translate(0 -0.6)"/>
	<path d="M13.89,3.68A19.34,19.34,0,0,1,18,1a26.29,26.29,0,0,0-4.36,1.75,1.18,1.18,0,0,0,0,.25A1.13,1.13,0,0,0,13.89,3.68Z" transform="translate(0 -0.6)"/>
	<path d="M13,4.49a2.35,2.35,0,0,1-.56-1.11A25.17,25.17,0,0,0,2.7,13.72a17.14,17.14,0,0,0,3.55,2.09A26,26,0,0,1,13,4.49Z" transform="translate(0 -0.6)"/>
	<path d="M7.74,38.1a29.9,29.9,0,0,1-2.57-8.94,35,35,0,0,1-5.1-2.44,25.31,25.31,0,0,0,1.35,6.59A26.5,26.5,0,0,0,7.74,38.1Z" transform="translate(0 -0.6)"/>
	<path d="M4.9,25a31.91,31.91,0,0,1,1-8,19.69,19.69,0,0,1-3.75-2.17A24.93,24.93,0,0,0,0,25c0,.12,0,.23,0,.35a31.47,31.47,0,0,0,5,2.52C5,26.93,4.9,26,4.9,25Z" transform="translate(0 -0.6)"/>
</svg>