<svg xmlns="http://www.w3.org/2000/svg" viewBox="0 0 512 512" width="25" height="25" fill="#ffffff"><path d="M256,362.67a16,16,0,0,1-16-16V16a16,16,0,0,1,32,0V346.67A16,16,0,0,1,256,362.67Z"/><path d="M256,362.67a15.87,15.87,0,0,1-11.31-4.7l-85.33-85.33A16,16,0,0,1,182,250l74,74,74-74a16,16,0,0,1,22.63,22.64L267.35,358A16,16,0,0,1,256,362.67Z"/><path d="M453.33,512H58.67A58.71,58.71,0,0,1,0,453.33v-96a16,16,0,0,1,32,0v96A26.71,26.71,0,0,0,58.67,480H453.33A26.71,26.71,0,0,0,480,453.33v-96a16,16,0,1,1,32,0v96A58.71,58.71,0,0,1,453.33,512Z"/></svg>