<svg xmlns="http://www.w3.org/2000/svg" viewBox="0 0 470 500" width="47" height="50"><path d="M344.07,263.79a8.39,8.39,0,0,0-8.4,8.39V473.62a8.4,8.4,0,0,1-8.39,8.4H25.11a8.4,8.4,0,0,1-8.39-8.4V26.38A8.4,8.4,0,0,1,25.11,18H327.28a8.4,8.4,0,0,1,8.39,8.4V70.74a8.4,8.4,0,0,0,16.79,0V26.38A25.18,25.18,0,0,0,327.28,1.2H25.11A25.18,25.18,0,0,0-.07,26.38V473.62A25.18,25.18,0,0,0,25.11,498.8H327.28a25.18,25.18,0,0,0,25.18-25.18V272.18A8.39,8.39,0,0,0,344.07,263.79Z" transform="translate(0.07 -1.2)"/><path d="M407.58,48.84l-319.21,319c-.09.07-.11.18-.19.26a8.38,8.38,0,0,0-1.59,2.36l-.07.15L51,453.53a8.4,8.4,0,0,0,11,11L144.93,429l.14-.06a8.12,8.12,0,0,0,2.37-1.6c.08-.07.19-.1.26-.18l319.23-319Zm-332.94,392L97.1,388.48l30,29.95Zm67.14-31.54-35.61-35.61L383.28,96.64l35.61,35.61Zm289-289-35.6-35.61,13.71-13.71,35.61,35.61Z" transform="translate(0.07 -1.2)"/><path d="M276.92,70.74H75.48a8.39,8.39,0,1,0,0,16.78H276.92a8.39,8.39,0,0,0,0-16.78Z" transform="translate(0.07 -1.2)"/><path d="M285.31,129.49a8.39,8.39,0,0,0-8.39-8.39H75.48a8.39,8.39,0,1,0,0,16.78H276.92A8.38,8.38,0,0,0,285.31,129.49Z" transform="translate(0.07 -1.2)"/><path d="M75.48,171.46a8.39,8.39,0,1,0,0,16.78H226.56a8.39,8.39,0,0,0,0-16.78Z" transform="translate(0.07 -1.2)"/></svg>