<svg xmlns="http://www.w3.org/2000/svg" viewBox="0 0 332 412" width="33" height="42"><path d="M154.47,6.15c-20.3,3.1-42.9,20.3-53.3,40.5-5.6,11-6.7,22.6-4.4,46.1,1.1,11.8,1.1,12.2-1,14.9-1.8,2.3-2.2,4.1-2.2,10.1,0,4,.6,9.3,1.4,11.6s1.7,5.6,2.1,7.3a21.87,21.87,0,0,0,3,6.5,30,30,0,0,1,3.5,9.5c1.3,6.9,6.5,20.5,9.5,25.2,1.1,1.7,3.6,5.7,5.5,8.9,6.8,11.3,22.6,25.2,34.5,30.4,13.8,5.9,32.7,3.4,46.9-6.3,18-12.2,33.5-34.4,39.6-56.4a76.47,76.47,0,0,1,4.9-12.8c4.7-8.2,6.9-27.4,4.1-33.7-.9-1.8-.8-4.4.4-10.7,1.9-10,2-28.3.2-36.6-3-14.1-13.2-27.7-27-36-9-5.4-30.9-13.1-47.1-16.6C162,5.25,161.07,5.15,154.47,6.15Zm15.6,12.4c9.7,2.3,23.5,6.2,31,8.9,11.3,4,18.5,8.5,26,16.2,6.4,6.5,7.3,7.9,9.9,15.8,2.7,8.4,2.8,9.3,2.3,22-.3,7.9-1.1,14.8-2,17.2a55.31,55.31,0,0,0-2.2,8.7c-.6,4.2-.5,4.9,1.9,7.1s2.5,2.8,1.7,6.8c-2.5,11.5-3.5,14.6-5.6,17-1.2,1.5-2.7,5.5-3.4,9-3.4,17-17,39-31.3,50.4-20.3,16.3-39.9,14.9-59.1-4a91.33,91.33,0,0,1-24.4-42.7c-1.4-5.7-3.6-11.7-4.9-13.5-2.8-3.7-6.2-20.5-4.3-21.2a11.39,11.39,0,0,0,3.1-2.3c1.8-1.8,1.9-2.8,1.4-8a43,43,0,0,0-1.8-8.6c-.6-1.5-1.1-9.9-1.2-19.2-.1-16.2,0-16.6,2.8-23,5.3-11.8,12.3-19.9,24.4-28.4,5-3.5,14.4-8.2,17.7-8.9C156.27,17,164.27,17.25,170.07,18.55Z" transform="translate(-4.7 -5.57)"/><path d="M102.32,417.09C79.19,413.56,20,395.7,19.39,395.52l-.12,0C11,392.68,6.32,387.36,5,379.23c-.88-6.09.13-33.9,1.59-43.81,6.27-43.57,15.11-73.21,26.25-88.07C37.78,240.84,52,231.61,61.08,229c3.63-1.31,44.6-18.45,50.82-22.95a82.15,82.15,0,0,1,8.57-4.87c4.34,0,4.94,4,5.27,6.21.19,1.26,7.89,55.68,8.35,57.87.74,1.74,33.13,90.32,39.31,106.82,6-16.84,37.28-105.77,37.95-107.54,1.11-5,4.63-51.37,4.73-56.84a5.05,5.05,0,0,1,1.25-4c2.59-2.9,5.81-1.47,8.92-.1,1.81.81,76.63,36.5,81.94,43.66,14.31,19,28.38,78.37,28.38,119.88,0,12-.9,18.93-5.84,23.4-9.05,8.34-58.4,21.57-92.44,26.54C234.44,417.67,106.08,417.67,102.32,417.09ZM22.41,386c2.07.63,59.24,17.83,81.42,21.21,6.83,1,126.17,1,133,0,36.69-5.36,80.91-18.29,87.14-24,1.61-1.46,2.59-4.63,2.59-16,0-39.08-13.32-96.56-26.39-113.89-3.23-4.1-67.94-35.79-74.42-38.87-.29,4.51-4.61,52.61-5.07,53.68-.59,1.57-41.09,116.31-41.6,117.69-1,2.65-2,5.39-5.52,5.39s-4.58-2.77-5.56-5.21c-.54-1.36-42-114.14-43.15-117-.6-1.26-7.5-49.68-8.14-54.13-10.1,6.34-50.85,23.19-52.78,23.73-6.94,2-19.45,10-23.08,14.81-7,9.27-16.83,31.3-24.34,83.5-1.38,9.34-2.28,36.19-1.6,40.87C15.61,382,17.71,384.38,22.41,386ZM133.18,263.43a10.21,10.21,0,0,1,.9,1.79A4.71,4.71,0,0,0,133.18,263.43Zm78.28.78a2.25,2.25,0,0,0-.09.24C211.41,264.33,211.44,264.26,211.46,264.21Zm14.4-58.46a9,9,0,0,1,.17,1.74A4.87,4.87,0,0,0,225.86,205.75Z" transform="translate(-4.7 -5.57)"/></svg>