<svg xmlns="http://www.w3.org/2000/svg" viewBox="0 0 322 407" width="32" height="40"><path d="M296.9,89c-20.3,3.1-42.9,20.3-53.3,40.5-5.6,11-6.7,22.6-4.4,46.1,1.1,11.8,1.1,12.2-1,14.9-1.8,2.3-2.2,4.1-2.2,10.1,0,4,.6,9.3,1.4,11.6s1.7,5.6,2.1,7.3a21.87,21.87,0,0,0,3,6.5,30,30,0,0,1,3.5,9.5c1.3,6.9,6.5,20.5,9.5,25.2,1.1,1.7,3.6,5.7,5.5,8.9,6.8,11.3,22.6,25.2,34.5,30.4,13.8,5.9,32.7,3.4,46.9-6.3,18-12.2,33.5-34.4,39.6-56.4a76.47,76.47,0,0,1,4.9-12.8c4.7-8.2,6.9-27.4,4.1-33.7-.9-1.8-.8-4.4.4-10.7,1.9-10,2-28.3.2-36.6-3-14.1-13.2-27.7-27-36-9-5.4-30.9-13.1-47.1-16.6C304.4,88.1,303.5,88,296.9,89Zm15.6,12.4c9.7,2.3,23.5,6.2,31,8.9,11.3,4,18.5,8.5,26,16.2,6.4,6.5,7.3,7.9,9.9,15.8,2.7,8.4,2.8,9.3,2.3,22-.3,7.9-1.1,14.8-2,17.2a55.31,55.31,0,0,0-2.2,8.7c-.6,4.2-.5,4.9,1.9,7.1s2.5,2.8,1.7,6.8c-2.5,11.5-3.5,14.6-5.6,17-1.2,1.5-2.7,5.5-3.4,9-3.4,17-17,39-31.3,50.4-20.3,16.3-39.9,14.9-59.1-4a91.33,91.33,0,0,1-24.4-42.7c-1.4-5.7-3.6-11.7-4.9-13.5-2.8-3.7-6.2-20.5-4.3-21.2a11.39,11.39,0,0,0,3.1-2.3c1.8-1.8,1.9-2.8,1.4-8a43,43,0,0,0-1.8-8.6c-.6-1.5-1.1-9.9-1.2-19.2-.1-16.2,0-16.6,2.8-23,5.3-11.8,12.3-19.9,24.4-28.4,5-3.5,14.4-8.2,17.7-8.9C298.7,99.8,306.7,100.1,312.5,101.4Z" transform="translate(-152.12 -88.42)"/><path d="M257.3,292.9c-7,5.1-50.9,23.3-52.3,23.7-8.1,2.3-21.4,10.9-25.7,16.6-10.5,14-19.2,43.4-25.3,85.8-1.4,9.5-2.4,36.8-1.6,42.3,1,6.3,4.4,10.1,10.9,12.3,2.9.9,59.9,18,82.2,21.4,7.2,1.1,127.1,1.1,134.5,0,35.6-5.2,82.2-18.3,89.8-25.3,3.2-2.9,4.2-7.7,4.2-19.7,0-40.5-13.6-98.6-27.4-116.9-4-5.4-34.6-20.2-37.6-21.3S362.2,288,363.5,290c.3.5-3.8,56.3-5,59-.8,1.9-42.1,120-42.5,120-.8,0-43.9-119.3-44.3-119.6s-8.6-60.4-8.8-60.4S260.1,290.8,257.3,292.9Z" transform="translate(-152.12 -88.42)"/></svg>