<svg xmlns="http://www.w3.org/2000/svg" viewBox="0 0 680 390" width="68" height="39" ><defs><style>.cls-1{fill:#339b37;}.cls-2{fill:#576996;}.cls-3{fill:#737270;}.cls-4{fill:#586a97;}</style></defs><title>icon-logo</title><g id="hone_front"><polygon class="cls-1" points="172.82 390.15 309.77 228.15 504.64 228.15 680.6 390.15 452.21 390.15 316.08 254.37 201.99 390.15 172.82 390.15"/><rect class="cls-2" x="321.22" y="328.12" width="16.16" height="16.16"/><rect class="cls-2" x="299.04" y="328.12" width="16.16" height="16.16"/><rect class="cls-2" x="321.22" y="349.82" width="16.16" height="16.16"/><rect class="cls-2" x="299.04" y="349.82" width="16.16" height="16.16"/></g><g id="hone_back"><polygon class="cls-1" points="0 364.98 0.01 349 18.63 349.02 102.76 248.28 238.32 248.28 257.73 268.41 193.95 345.54 107.15 266.52 25.79 364.98 0 364.98"/><rect class="cls-2" x="111.03" y="309.15" width="10.21" height="10.21"/><rect class="cls-2" x="97.02" y="309.15" width="10.21" height="10.21"/><rect class="cls-2" x="111.03" y="322.86" width="10.21" height="10.21"/><rect class="cls-2" x="97.02" y="322.86" width="10.21" height="10.21"/></g><g id="build_front"><polygon class="cls-3" points="445.69 25 375.77 0 375.77 216.5 445.69 216.5 445.69 25"/><polygon class="cls-4" points="356.53 22.52 337.56 28.52 337.56 216.5 356.53 216.5 356.53 22.52"/><polygon class="cls-4" points="324.62 32.03 305.64 38.03 305.64 216.5 324.62 216.5 324.62 32.03"/><polygon class="cls-4" points="292.4 42.42 273.43 48.42 273.43 248.89 292.4 225.89 292.4 42.42"/></g><g id="build_back"><polygon class="cls-3" points="251.28 128.09 215.79 114.33 215.79 233.5 251.28 233.5 251.28 128.09"/><polygon class="cls-4" points="185.2 143.1 170.76 146.03 170.76 168.93 185.2 165.93 185.2 143.1"/><polyline class="cls-4" points="170.76 178.88 170.76 201.63 185.2 198.81 185.2 175.91"/><polyline class="cls-4" points="170.76 211.99 170.76 234.5 185.2 234.5 185.2 209.12"/><polygon class="cls-4" points="161.07 147.9 145.63 151.05 145.63 173.93 161.07 170.82 161.07 147.9"/><polyline class="cls-4" points="145.63 184.03 145.63 206.87 161.07 203.81 161.07 180.93"/><polyline class="cls-4" points="145.63 217.02 145.63 234.37 161.07 234.37 161.07 213.99"/><polygon class="cls-4" points="136.16 152.95 120.71 156.05 120.71 178.94 136.16 175.83 136.16 152.95"/><polyline class="cls-4" points="120.71 189.03 120.71 212.11 136.16 208.98 136.16 185.72"/><polyline class="cls-4" points="120.71 222.16 120.71 234.24 136.16 234.24 136.16 218.86"/></g></svg>