<svg xmlns="http://www.w3.org/2000/svg" viewBox="0 0 512 465" width="51" height="46"><path d="M121,68.5H45a15,15,0,0,0,0,30h76a15,15,0,0,0,0-30Z" transform="translate(0 -23.5)"/><path d="M121,188.5H45a15,15,0,0,0,0,30h76a15,15,0,0,0,0-30Z" transform="translate(0 -23.5)"/><path d="M91,128.5H15a15,15,0,0,0,0,30H91a15,15,0,0,0,0-30Z" transform="translate(0 -23.5)"/><path d="M482,203.5H391v-60c0-26.35-32.23-40.22-51.22-21.2l-120,120a30,30,0,0,0,0,42.42l68.79,68.79-83.79,83.79a30,30,0,0,0,42.42,42.42l105-105a30,30,0,0,0,0-42.42L283.42,263.5,331,215.92V233.5a30,30,0,0,0,30,30H482a30,30,0,0,0,0-60Z" transform="translate(0 -23.5)"/><path d="M280.14,51a30,30,0,0,0-37.85,3.75l-82.5,82.5a30,30,0,0,0,42.42,42.42l65.11-65.11,21.94,15.8,29.3-29.31a59.68,59.68,0,0,1,17-11.67Z" transform="translate(0 -23.5)"/><path d="M198.58,305.92a59.39,59.39,0,0,1-15.35-27.07L24.79,437.29a30,30,0,0,0,42.42,42.42L219.79,327.13Z" transform="translate(0 -23.5)"/><circle cx="406" cy="45" r="45"/></svg>