<svg xmlns="http://www.w3.org/2000/svg" viewBox="0 0 512 512" width="50" height="50"><path d="M301,271.05a45,45,0,1,0-45,45A45,45,0,0,0,301,271.05Z" transform="translate(0 0)"/><path d="M501,204.88l-25.11-7.06,16.17-20.47c3.94-5,4.54-12.17.89-17.36-24.67-35.11-61.67-51.15-102.43-42.22a15.53,15.53,0,0,0-9.08,6.11l-70.31,96.78a75,75,0,0,1,9.75,13.53l58.84-19.12A15,15,0,0,1,389,243.61l-58.86,19.12a71.25,71.25,0,0,1,.84,8.32,71.64,71.64,0,0,1-.84,8.33l113.86,37a15.58,15.58,0,0,0,10.93-.4c38.28-16.75,57.66-54.67,57-97.54C511.85,212.08,507.13,206.6,501,204.88Z" transform="translate(0 0)"/><path d="M360.21,95.77c-4.09-42-32.54-82.69-73.67-95.21-6-1.84-12.57,1-16.07,6.26L256,28.52,241.53,6.82c-3.49-5.25-10-8.1-16.07-6.26-41.12,12.52-69.58,53.17-73.67,95.21a15.45,15.45,0,0,0,3,10.47L225.05,203A73.73,73.73,0,0,1,241,197.59V136.08a15,15,0,1,1,30,0v61.51A73.73,73.73,0,0,1,287,203l70.26-96.71A15.46,15.46,0,0,0,360.21,95.77Z" transform="translate(0 0)"/><path d="M0,218.43C-.63,261.3,18.8,299.22,57.07,316a15.47,15.47,0,0,0,10.93.4l113.86-37a73.89,73.89,0,0,1-.84-8.33,73.71,73.71,0,0,1,.84-8.32L123,243.61a15,15,0,1,1,9.25-28.53L191.1,234.2a74.33,74.33,0,0,1,9.76-13.54l-70.32-96.78a15.51,15.51,0,0,0-9.08-6.1c-40.8-8.92-77.8,7.1-102.47,42.2-3.64,5.2-3,12.39.89,17.37l15.17,20.47L11,204.88C4.83,206.6.11,212.08,0,218.43Z" transform="translate(0 0)"/><path d="M443.35,351.65a15.54,15.54,0,0,0-8.61-6.75l-113.84-37a75,75,0,0,1-9.75,13.53l36.31,50a15,15,0,1,1-24.25,17.63L287,339.16a74.36,74.36,0,0,1-16,5.36V465.67a15.53,15.53,0,0,0,3.76,10.27c27.74,31.21,71.44,44.16,112.08,30.29,6-2.05,9.77-8.23,9.51-14.59l-1.07-27.09,24.49,9.08c6,2.21,13,.55,16.8-4.53C462.32,434.79,464.47,387.7,443.35,351.65Z" transform="translate(0 0)"/><path d="M200.86,321.44a74.6,74.6,0,0,1-9.76-13.53l-113.84,37a15.51,15.51,0,0,0-8.6,6.74c-21.13,36.06-19,83.15,6.77,117.46,3.81,5.08,10.85,6.74,16.81,4.53l24.49-9.08-1.07,27.09c-.27,6.34,3.5,12.54,9.5,14.59A106.3,106.3,0,0,0,159.61,512c29.53,0,57.71-13.75,77.68-36.35a15.48,15.48,0,0,0,3.71-10.2V344.52a74.28,74.28,0,0,1-15.95-5.36l-36.25,49.9a15,15,0,1,1-24.26-17.63Z" transform="translate(0 0)"/></svg>