<svg xmlns="http://www.w3.org/2000/svg" viewBox="0 0 530 137" width="530" height="137"><defs><style>.cls-1{fill:#165427;}.cls-2{fill:#339b37;}.cls-3{fill:#a5c720;}.cls-4{fill:#185427;}.cls-5{fill:#185126;stroke:#195126;stroke-miterlimit:10;stroke-width:3px;}.cls-6{fill:#727272;}</style></defs><g id="Слой_1" data-name="Слой 1"><polygon class="cls-1" points="124.13 0 74.04 0 0 137 50.09 137 124.13 0"/><polygon class="cls-2" points="180.04 0 130.96 0 75.3 103.26 124.39 103.26 180.04 0"/><polygon class="cls-3" points="163.79 42.58 186.56 0 218.02 56.83 171.94 56.83 163.79 42.58"/><polygon class="cls-4" points="530 129.94 68 129.94 68.96 128.2 530 128.2 530 129.94"/><polygon class="cls-3" points="530 52.91 232.63 52.91 231.72 50.98 530 50.98 530 52.91"/></g><g id="text"><path class="cls-5" d="M194,115.52h-8.11L172,94.32h-7.15v21.2H158V69.12l6.91.3V87.81h6.75l13.31-19.57,7.12,1.14L177.83,90.72Z" transform="translate(0 0)"/><path class="cls-5" d="M241.22,68.24l-22.16,47.28h-7.88l5-10.78L198.57,69.38l7.35-.46,14.21,28,14.32-30.58Z" transform="translate(0 0)"/><path class="cls-5" d="M283.78,115.52h-6.91V73.69H254.44v41.83h-6.91V67.18h29.81l6.44,6.51Z" transform="translate(0 0)"/><path class="cls-5" d="M380.67,115.52h-8.11l-13.83-21.2h-4.8v21.2H347V94.32h-4.81l-13.79,21.2h-8.11l16.12-24.8L322.21,69.38l6.21-3,14.22,21.4H347V66.38l6.91,3V87.81h4.4l14.23-21.4,6.21,3L364.54,90.72Z" transform="translate(0 0)"/><path class="cls-5" d="M424.89,91.28l-6.27,6.51H395.38v17.73h-6.91V67.21h30.14l6.28,6.51Zm-6.91,0V73.72h-22.6V91.28Z" transform="translate(0 0)"/><path class="cls-5" d="M469.69,109l-6.78,6.54H438.57L432.13,109h30.65V94.09H439l6.48-6.51h17.33V73.72H432.56L439,67.21h23.94l6.78,6.58Z" transform="translate(0 0)"/><path class="cls-5" d="M517.19,109.05l-6.51,6.47H486.21l-6.51-6.47V73.79l6.58-6.58h24.34l6.57,6.58Zm-6.91,0V73.72H486.61V109Z" transform="translate(0 0)"/><path class="cls-6" d="M350.29,41.51h-3.23V31.11h-9.64v10.4h-3.2V19.43h3.2v8.93h9.64V19.43h3.23Z" transform="translate(0 0)"/><path class="cls-6" d="M369.61,33.73c0,6-2,8.19-7.45,8.19s-7.49-2.24-7.49-8.19,2.05-8.25,7.49-8.25S369.61,27.75,369.61,33.73Zm-11.67,0c0,4.32,1,5.6,4.22,5.6s4.22-1.28,4.22-5.6-1-5.63-4.22-5.63S357.94,29.35,357.94,33.73Z" transform="translate(0 0)"/><path class="cls-6" d="M383.5,33.54c2.92.22,3.91,1.63,3.91,4.1,0,3.23-1.8,4.09-6.27,4.09-3.36,0-5.12,0-7.4-.19V25.93c2-.16,3.59-.2,6.53-.2,4.87,0,6.59.87,6.59,4.16,0,2.21-1,3.36-3.36,3.55Zm-3-1.18c2.52,0,3.42-.45,3.42-2.18s-1-2.05-3.81-2.05h-3.45v4.23Zm.16,6.94c2.68,0,3.64-.45,3.64-2.3s-1-2.44-3.8-2.44h-3.84v4.71Z" transform="translate(0 0)"/><path class="cls-6" d="M405.71,33.73c0,6-2,8.19-7.45,8.19s-7.49-2.24-7.49-8.19,2.05-8.25,7.49-8.25S405.71,27.75,405.71,33.73Zm-11.68,0c0,4.32,1,5.6,4.23,5.6s4.22-1.28,4.22-5.6-1-5.63-4.22-5.63S394,29.35,394,33.73Z" transform="translate(0 0)"/><path class="cls-6" d="M423.41,41.51h-3V28.39h-7.52V41.51h-3V25.89h13.54Z" transform="translate(0 0)"/><path class="cls-6" d="M442.51,33.73c0,6-2,8.19-7.45,8.19s-7.49-2.24-7.49-8.19,2.05-8.25,7.49-8.25S442.51,27.75,442.51,33.73Zm-11.68,0c0,4.32,1,5.6,4.23,5.6s4.22-1.28,4.22-5.6-1-5.63-4.22-5.63S430.83,29.35,430.83,33.73Z" transform="translate(0 0)"/><path class="cls-6" d="M459.6,41.51h-3.1V28.29h-3.14c-1.28,0-1.73.48-1.92,1.92A43.38,43.38,0,0,1,450,38.12a4.74,4.74,0,0,1-5.15,3.55l-.32-2.37c1.73-.38,2.27-.93,2.72-2a37.47,37.47,0,0,0,1.28-7.58c.29-2.5,1.53-3.78,4.25-3.78h6.82Z" transform="translate(0 0)"/><path class="cls-6" d="M478.7,33.73c0,6-2,8.19-7.45,8.19s-7.49-2.24-7.49-8.19,2.05-8.25,7.49-8.25S478.7,27.75,478.7,33.73Zm-11.68,0c0,4.32,1,5.6,4.23,5.6s4.22-1.28,4.22-5.6-1-5.63-4.22-5.63S467,29.35,467,33.73Z" transform="translate(0 0)"/><path class="cls-6" d="M496.4,46.12l-.29-4.61H482.86V25.89h3V39h7.27V25.89h3.07V39h2.21v7.11Z" transform="translate(0 0)"/><path class="cls-6" d="M509.52,33.41c3.52.39,4.29,2.43,6.3,8.1h-3.23c-1.89-5.06-2.56-6.88-5.5-6.91h-2.15A7.3,7.3,0,0,1,505.1,36v5.47H502V25.89h3.07v4.52a10.64,10.64,0,0,1-.16,1.79h1.95c2.95,0,3.81-2.12,5.28-6.31h3.2c-1.82,4.9-2.56,7-5.85,7.46Z" transform="translate(0 0)"/></g></svg>