<svg xmlns="http://www.w3.org/2000/svg" viewBox="0 0 1725 1437" width="35" height="29"><defs><style>.cctv-1{fill:#e5b83b;}</style></defs><path class="cctv-1" d="M1544.75,1500H255.25c-43.72,0-82.59-7.71-115.53-22.91-35.58-16.42-63.67-41.65-81.22-73s-24.33-68.31-19.6-106.95c4.38-35.78,18.29-72.59,41.37-109.43L260.75,899.66c74.11-118.29,195.39-311.84,269.52-430.11L710.84,181.44,765.31,215l-54.47-33.59c23.12-36.89,50.88-65.93,82.5-86.3,32.94-21.22,69.85-32.43,106.72-32.43h0c36.88,0,73.78,11.22,106.73,32.45,31.62,20.37,59.37,49.41,82.49,86.31l630.44,1006.25c23.08,36.83,37,73.65,41.37,109.43,4.73,38.65-2,75.63-19.61,107s-45.64,56.56-81.22,73C1627.34,1492.29,1588.47,1500,1544.75,1500Z" transform="translate(-37.44 -62.71)"/><path d="M1545.77,1450.14H254.23c-36.19,0-67.77-6.15-93.86-18.28s-45.66-29.68-58.08-52.1S85.4,1331.47,89,1302.88s15.13-58.58,34.34-89.25l180-287.3c74.24-118.5,195.73-312.39,270-430.87l180.1-287.35c19.23-30.67,41.87-54.53,67.28-70.9,25.14-16.19,51.85-24.4,79.37-24.4h0c27.53,0,54.24,8.21,79.38,24.41,25.41,16.38,48,40.24,67.27,70.91l180,287.32,270,430.88,180,287.3c19.21,30.67,30.77,60.7,34.34,89.25s-.9,54.45-13.31,76.88-32,40-58.08,52.1S1582,1450.14,1545.77,1450.14ZM765.07,215.42l11.66,7.31L596.63,510.08c-74.26,118.48-195.75,312.37-270,430.85l-180,287.31c-33.13,52.88-40.33,102-20.27,138.19s65.46,56.19,127.86,56.19H1545.77c62.39,0,107.8-19.95,127.86-56.19s12.86-85.31-20.27-138.19l-180-287.31-270-430.87-180-287.32c-33.3-53.14-77.1-82.41-123.33-82.42h0c-46.23,0-90,29.27-123.33,82.41Z" transform="translate(-37.44 -62.71)"/><path d="M614.25,651.72c-11.24,1.71-19.94,8.78-26,20.91-2.9,6-17.75,49.19-10.56,59,7.65,10,56.17,56.77,56.94,61,2.48,3.78,3.66,18.72,6.7,46.37,1.12,13,2.53,16.23,10,23.67,7.82,7.73,168.67,159.95,169.33,160.25.3.07,34.19-179.6,37.74-189,5.73-18.24,15.85-28.36,32.82-32.68,15.33-4.17,169.76-16.67,325.11-4.46-125.29-53.3-329.13-138.72-342.54-140.6C866.13,654.92,778.55,644.61,614.25,651.72Z" transform="translate(-37.44 -62.71)"/><path d="M586.86,820.9c1.48,18.72,48.46,60.21,48.46,60.21s-.92,16.72.52,24.19c18.92,22.65,53.51,61.17,178.7,165.24,3.72,1.71,14.4,3.8,22.89,5.06,3,.37,20.21,17.41,20.21,17.41s.52-11.82,2.83-19.43c-31.13-29.64-218.54-205.28-222.55-212.2-6.61-6.88-7.64-58.58-11.24-64.08-.85-2.72-40.2-42.13-40.2-42.13S583.72,810.68,586.86,820.9Z" transform="translate(-37.44 -62.71)"/><path d="M893.15,810.32c-7.08,1.86-14,4.21-21.24,14-9.89,12.53-27.79,134.78-42.55,205.18-.9,2.27,29.78,29.78,30.08,29.92s63.94-173.05,67.06-179.23c6-11.76,19.13-24.79,31.41-31,28-15.64,302.58-15.64,358.37-9.82-.82-.67-60-26.21-64.79-27.86C1185.76,794.76,934.23,800.85,893.15,810.32Z" transform="translate(-37.44 -62.71)"/><path d="M980.61,851.94c-17,2-32.89,12.35-43.31,28.13C929,893.6,867,1067,867,1067h16.15s61-170.25,65.43-176.92c5.13-8.86,16.64-20.83,33.51-23.62,93-4.16,209.14-14.21,359.25.11,3.37,2.29,3.14,7,2.93,8.42s-68.63,178.79-68.63,179,16,0,16,0S1358.52,880.46,1359,877.4c2-12.35-4.09-22.33-15.85-25.83C1287,842,1078.86,843,980.61,851.94Z" transform="translate(-37.44 -62.71)"/><path d="M1219.38,1071.88c-1.39.8-3,26.83-42.94,26.35-37.74,2.09-179.06,7.1-277.11,7.89-8.56-3-22.68-8.55-19.06-31.63a75.68,75.68,0,0,0-10.8.2c-7.94,23.52,7.16,38.65,27.86,43.42,12.94,1.18,80.19-2.12,148.5-3.67,74.72-1.69,140-2.36,164.36-11.46,9.45-4.83,16-14,19.93-26.78,3.3-12.53,33.77-182.48,29-206.62-10.24-1.25-37.44-1.27-37.44-1.27S1220.84,1023,1219.38,1071.88Z" transform="translate(-37.44 -62.71)"/><path d="M1248,1033.1c-.13.8,19.28,15.71,19.73,15.18s67.36-173.5,67.21-173.73-51.79-3.14-66.47-4.09C1271.12,897.83,1257.2,975.37,1248,1033.1Z" transform="translate(-37.44 -62.71)"/><path d="M982,902.33a21.59,21.59,0,0,0-14.67,10.86c-2.57,5.86-17.41,132.11-17.41,132.11s171.78-1.73,176.05-3.91c8.53-2.49,11.44-6.21,13.23-9.64,1.69-2.67,18.08-129,18.08-129S1111.83,901.14,982,902.33Zm66.65,132.94a60.81,60.81,0,1,1,60.81-60.81A60.81,60.81,0,0,1,1048.6,1035.27Z" transform="translate(-37.44 -62.71)"/><path d="M1048.6,922.82a51.81,51.81,0,0,0-17.29,3,24.94,24.94,0,1,1-31.91,33,51.64,51.64,0,1,0,49.2-36Z" transform="translate(-37.44 -62.71)"/><path d="M1168.77,902.62c-.23.3-19.28,133.3-19.73,134.87-1.14,7.1-6.4,9.08-11.31,10.56-7.34,2.31-189.8,5-189.8,5s0,9.31,8.33,12.58c1.79.52,135.59-.6,190.17-3.77,10.79-2.42,10.79-5.28,14.23-11.64,1.64-5.29,22-134.5,21.49-137C1179.18,904.16,1169.29,901.65,1168.77,902.62Z" transform="translate(-37.44 -62.71)"/><path d="M445.11,999.3c16.7,8.44,22.89,14.15,25.94,22.18,3.42,9.16,18.85,64.59,17.54,128.64-.38,60.1-15.66,120.12-19.33,128.37-3.27,7.36-27.46,22.56-25.53,23.07,2.9.82,91-19.91,108.47-35.66,14.09-12.72,24.31-72,24.31-72l197.31,13.26s-4.17-63.57-5.2-64.53c-.14-.14-152.43-13.32-160.4-17.2-10.05-4.92-19.06-31.56-19.06-31.56s-8.51,1.21-8.71-1c-4.75-55.07-25.63-110.67-45.63-110.67C532.23,982.26,445.38,996,445.11,999.3Zm117.34,91.78c-.14.23-43.45-11-47.12,53.74,4.35,52.39,29.69,46,29.69,46s-35.62,24-42.36-51.21C505.08,1063.89,563.19,1090.49,562.45,1091.08Z" transform="translate(-37.44 -62.71)"/><path d="M710.2,993.2l40.71,59.1,21.81,49.2s22.27,11.81,89.68,8.93c1.56-.6-27.59-25.76-27.59-25.76s-20.29-2.75-28.13-7.82C804.79,1075.68,710.2,993.2,710.2,993.2Z" transform="translate(-37.44 -62.71)"/><path d="M442.4,1012.41c-.23.67-.44,276.51-.44,276.51l6.78-3.57c11-5.73,12.65-8.41,17.78-28.88,6.55-26,11.16-61.33,12.58-97.72,1.86-44.73-3.72-93.26-14.51-127.5-3.2-10-5.36-12.65-13.62-17C444.56,1010.92,443.07,1010.62,442.4,1012.41Z" transform="translate(-37.44 -62.71)"/><circle cx="880.84" cy="994.41" r="11.26"/><circle cx="1154.82" cy="985.59" r="11.26"/><path d="M607.93,1112.75c3.27,3.55,8.89,6.5,16.88,7.32,46.9,4.81,151.84,14.2,151.84,14.2s2.51,15.76,4,33.63c1.83,21.67,1.92,43.48,7.06,50,6.26,9,16.67,11.76,16.67,12,0,1.42,14.53,17.52,38,15.93,28.61,1.53,37.68-16.37,38.25-16.79s12-3.81,17.41-9c8-5.3,10.5-28.36,12.78-49.79,2.21-20.73,4.27-39.92,4.15-40-.38-.26-11.15.41-21.55-2.27-9.88-2.55-19.44-8.49-19.44-8.49s-26.3,1-54.72.12c-21.12-.61-40.38-6.46-45-7.11-.68-.1.59,2.16.44,2.16-1.19,0-175.59-19.8-175.59-19.8S596.73,1100.36,607.93,1112.75Z" transform="translate(-37.44 -62.71)"/></svg>