<svg xmlns="http://www.w3.org/2000/svg" viewBox="0 0 297.59 94.72" width="300" height="100"><defs><style>.cls-1{fill:#339b37;}.cls-2{fill:#576996;}.cls-3{fill:#737270;}.cls-4{fill:#586a97;}.cls-5{fill:#185126;}</style></defs><title>logo_work</title><g id="Слой_7" data-name="Слой 7"><rect class="cls-1" x="124.32" y="57.78" width="164.94" height="1.02"/><rect class="cls-1" x="140.52" y="74.74" width="157.07" height="0.98"/></g><g id="hone_front"><polygon class="cls-1" points="41.96 94.72 75.21 55.39 122.52 55.39 165.24 94.72 109.79 94.72 76.74 61.76 49.04 94.72 41.96 94.72"/><rect class="cls-2" x="77.99" y="79.66" width="3.92" height="3.92"/><rect class="cls-2" x="72.6" y="79.66" width="3.92" height="3.92"/><rect class="cls-2" x="77.99" y="84.93" width="3.92" height="3.92"/><rect class="cls-2" x="72.6" y="84.93" width="3.92" height="3.92"/></g><g id="hone_back"><polygon class="cls-1" points="0 88.61 0 84.73 4.52 84.74 24.95 60.28 57.86 60.28 62.57 65.17 47.09 83.89 26.01 64.71 6.26 88.61 0 88.61"/><rect class="cls-2" x="26.96" y="75.06" width="2.48" height="2.48"/><rect class="cls-2" x="23.55" y="75.06" width="2.48" height="2.48"/><rect class="cls-2" x="26.96" y="78.39" width="2.48" height="2.48"/><rect class="cls-2" x="23.55" y="78.39" width="2.48" height="2.48"/></g><g id="build_front"><polygon class="cls-3" points="108.2 6.07 91.23 0 91.23 52.56 108.2 52.56 108.2 6.07"/><polygon class="cls-4" points="86.56 5.47 81.95 6.92 81.95 52.56 86.56 52.56 86.56 5.47"/><polygon class="cls-4" points="78.81 7.78 74.2 9.23 74.2 52.56 78.81 52.56 78.81 7.78"/><polygon class="cls-4" points="70.99 10.3 66.38 11.76 66.38 60.43 70.99 54.84 70.99 10.3"/></g><g id="build_back"><polygon class="cls-3" points="61.01 31.1 52.39 27.76 52.39 56.69 61.01 56.69 61.01 31.1"/><polygon class="cls-4" points="44.96 34.74 41.46 35.45 41.46 41.01 44.96 40.28 44.96 34.74"/><polyline class="cls-4" points="41.46 43.43 41.46 48.95 44.96 48.27 44.96 42.71"/><polyline class="cls-4" points="41.46 51.47 41.46 56.93 44.96 56.93 44.96 50.77"/><polygon class="cls-4" points="39.11 35.91 35.35 36.67 35.35 42.23 39.11 41.47 39.11 35.91"/><polyline class="cls-4" points="35.35 44.68 35.35 50.23 39.11 49.48 39.11 43.93"/><polyline class="cls-4" points="35.35 52.69 35.35 56.9 39.11 56.9 39.11 51.95"/><polygon class="cls-4" points="33.06 37.13 29.31 37.89 29.31 43.45 33.06 42.69 33.06 37.13"/><polyline class="cls-4" points="29.31 45.89 29.31 51.5 33.06 50.74 33.06 45.09"/><polyline class="cls-4" points="29.31 53.94 29.31 56.87 33.06 56.87 33.06 53.13"/></g><g id="text_копия_" data-name="text (копия)"><path class="cls-5" d="M133.68,37.74c4.69.52,5.46,4.09,8.33,12.53h-4.59c-2.55-7.77-3.32-10.89-7.35-10.89h-2a14.16,14.16,0,0,1,.25,2.38v8.51h-4.38V26.11h4.38v7.11A18.45,18.45,0,0,1,128,36h2c3.82,0,4.87-3.6,6.86-9.91h4.45c-2.38,7.22-3.29,11-7.7,11.49Z" transform="translate(-3.21 -3.65)"/><path class="cls-5" d="M156.74,44.14c-1.26,3.61-2.69,6.13-5.91,6.41a19.07,19.07,0,0,1-5.08-.53l.49-3.18c4.55.24,4.9.24,6.06-2.63l.31-.87h-1.26a2.6,2.6,0,0,1-2.8-2l-5.25-15.2h4.48l4.31,13.2a.61.61,0,0,0,.63.46h1.15l4.55-13.66h4.52Z" transform="translate(-3.21 -3.65)"/><path class="cls-5" d="M184.11,50.27h-4.37V29.51h-9.52V50.27h-4.38V26.11h18.27Z" transform="translate(-3.21 -3.65)"/><path class="cls-5" d="M217.78,37.74c4.66.52,5.57,4.09,8.3,12.53h-4.59c-2.69-7.77-3.46-10.89-6.93-10.89h-1.92a14.12,14.12,0,0,1,.24,2.38v8.51h-4.2V41.76a11.69,11.69,0,0,1,.28-2.38H206.9c-3.43,0-4.24,3.12-6.93,10.89h-4.59c2.73-8.44,3.64-12,8.3-12.53V37.6c-4.41-.53-5.29-4.27-7.63-11.49h4.44c2.14,6.31,3.19,9.91,6.37,9.91h2.07a18.11,18.11,0,0,1-.25-2.8V26.11h4.2v7.11a15,15,0,0,1-.24,2.8h1.89c3.25,0,4.3-3.6,6.47-9.91h4.45c-2.35,7.22-3.26,11-7.67,11.49Z" transform="translate(-3.21 -3.65)"/><path class="cls-5" d="M229.68,26.11a76.93,76.93,0,0,1,8.75-.31c6.23,0,8.3,1.68,8.3,7.77s-2.07,7.77-7.77,7.77a40.48,40.48,0,0,1-4.87-.28v9.21h-4.41Zm8.65,11.66c3,0,4-.87,4-4.2s-.95-4.17-4-4.17h-4.24v8.37Z" transform="translate(-3.21 -3.65)"/><path class="cls-5" d="M249.32,26.46a24.17,24.17,0,0,1,7-.77c7.38,0,10,3.29,10,12.5s-2.66,12.5-10,12.5a21.74,21.74,0,0,1-7.21-.91l.42-3.33a46.08,46.08,0,0,0,6.82.35c4,0,5.36-1.82,5.46-7.59h-10V35.92h9.94c-.28-4.76-1.75-6.34-5.43-6.34-2.94,0-4.44.07-6.65.21Z" transform="translate(-3.21 -3.65)"/><path class="cls-5" d="M290,38.19c0,9.59-2.59,12.53-10,12.53s-9.94-2.94-9.94-12.53,2.59-12.53,9.94-12.53S290,28.6,290,38.19Zm-15.3,0C274.69,44.91,276,47,280,47s5.36-2.07,5.36-8.79S284.11,29.4,280,29.4,274.69,31.47,274.69,38.19Z" transform="translate(-3.21 -3.65)"/><path class="cls-3" d="M160.42,71.38c0,2.57-.81,3.51-3.06,3.51s-3.07-.94-3.07-3.51.82-3.51,3.07-3.51S160.42,68.82,160.42,71.38Zm-5.22,0c0,2.11.55,2.76,2.16,2.76s2.15-.65,2.15-2.76-.55-2.75-2.15-2.75S155.2,69.27,155.2,71.38Z" transform="translate(-3.21 -3.65)"/><path class="cls-3" d="M166.58,67.88c2.66.08,3.67,1.09,3.67,3.5s-1,3.41-3.67,3.51v2.65h-.81V74.89c-2.68-.1-3.67-1.09-3.67-3.51s1-3.42,3.67-3.5V65.07h.81Zm-.79.75c-2.09.06-2.84.77-2.84,2.75s.75,2.68,2.84,2.75Zm.78,5.5c2.08-.07,2.82-.76,2.82-2.75s-.74-2.67-2.82-2.75Z" transform="translate(-3.21 -3.65)"/><path class="cls-3" d="M177.18,74.72v-4.8c0-.27,0-.54,0-.83h0a4.68,4.68,0,0,1-.44.71L173,74.72h-.72V68.05H173v4.77c0,.29,0,.55,0,.85h0a5.81,5.81,0,0,1,.46-.71l3.75-4.91H178v6.67Z" transform="translate(-3.21 -3.65)"/><path class="cls-3" d="M186,76.69l-.09-2h-5.6V68.05h.86v6h3.7v-6h.87v6h.86v2.69Z" transform="translate(-3.21 -3.65)"/><path class="cls-3" d="M193.31,74.72v-4.8c0-.27,0-.54,0-.83h0a4.68,4.68,0,0,1-.44.71l-3.77,4.92h-.72V68.05h.79v4.77c0,.29,0,.55,0,.85h0a4.81,4.81,0,0,1,.45-.71l3.75-4.91h.72v6.67Z" transform="translate(-3.21 -3.65)"/><path class="cls-3" d="M196.36,68.17a21.66,21.66,0,0,1,3.22-.3c1.36,0,2.13.52,2.13,2v4.8H201l-.11-1.17A4.45,4.45,0,0,1,198,74.83,1.71,1.71,0,0,1,196.08,73v-.77a1.54,1.54,0,0,1,1.76-1.62h3v-.71c0-.84-.32-1.29-1.42-1.29-.8,0-1.95.08-3,.19Zm.61,4.77c0,.76.37,1.12,1.17,1.12a4.32,4.32,0,0,0,2.69-1.13v-1.6H198a.91.91,0,0,0-1,1Z" transform="translate(-3.21 -3.65)"/><path class="cls-3" d="M209.29,74.72h-.88v-6h-1.7c-.59,0-.84.26-.91.88a15,15,0,0,1-.72,3.75,2,2,0,0,1-1.86,1.42l-.1-.69a1.64,1.64,0,0,0,1.19-1,13.85,13.85,0,0,0,.66-3.6,1.43,1.43,0,0,1,1.62-1.44h2.7Z" transform="translate(-3.21 -3.65)"/><path class="cls-3" d="M214.29,70.76c2,0,2.59.53,2.59,2s-.72,2-2.47,2c-1.3,0-1.9,0-2.76-.08h0V68.05h.84v2.71Zm-1.81,3.33h1.81c1.24,0,1.69-.25,1.69-1.35s-.37-1.33-1.69-1.33h-1.81Z" transform="translate(-3.21 -3.65)"/><path class="cls-3" d="M224.32,74.72h-.87V71.51h-3.89v3.21h-.86V68.05h.86v2.77h3.89V68.05h.87Z" transform="translate(-3.21 -3.65)"/><path class="cls-3" d="M229.3,70.76c1.86,0,2.44.53,2.44,2s-.66,2-2.32,2c-1.29,0-1.9,0-2.75-.08h0V68.05h.84v2.71Zm-1.81,3.33h1.81c1.13,0,1.55-.25,1.55-1.35s-.35-1.33-1.55-1.33h-1.81Zm6.53.63h-.87V68.05H234Z" transform="translate(-3.21 -3.65)"/><path class="cls-3" d="M241.3,74.72v-4.8c0-.27,0-.54,0-.83h0a4,4,0,0,1-.44.71l-3.76,4.92h-.72V68.05h.79v4.77c0,.29,0,.55,0,.85h0a4.83,4.83,0,0,1,.46-.71l3.75-4.91h.72v6.67Zm-.16-9.65a1.77,1.77,0,0,1-2,1.82,1.79,1.79,0,0,1-2-1.82h.7a1.31,1.31,0,1,0,2.61,0Z" transform="translate(-3.21 -3.65)"/><path class="cls-3" d="M252.55,74.58a7.76,7.76,0,0,1-2.18.31c-2.29,0-3.13-.93-3.13-3.51s.84-3.51,3.13-3.51a6.76,6.76,0,0,1,2.06.3l-.14.57a12.49,12.49,0,0,0-1.78-.11c-1.74,0-2.36.62-2.36,2.75s.62,2.75,2.36,2.75a12.58,12.58,0,0,0,2-.15Z" transform="translate(-3.21 -3.65)"/><path class="cls-3" d="M254.2,68.17a21.65,21.65,0,0,1,3.21-.3c1.37,0,2.14.52,2.14,2v4.8h-.69l-.11-1.17a4.45,4.45,0,0,1-2.93,1.28,1.7,1.7,0,0,1-1.9-1.81v-.77a1.54,1.54,0,0,1,1.75-1.62h3v-.71c0-.84-.32-1.29-1.42-1.29-.8,0-1.95.08-3,.19Zm.6,4.77c0,.76.38,1.12,1.18,1.12a4.34,4.34,0,0,0,2.69-1.13v-1.6h-2.86a.92.92,0,0,0-1,1Z" transform="translate(-3.21 -3.65)"/><path class="cls-3" d="M266.77,74.72v-4.8c0-.27,0-.54,0-.83h0a4.68,4.68,0,0,1-.44.71l-3.77,4.92h-.72V68.05h.79v4.77c0,.29,0,.55,0,.85h0a5.81,5.81,0,0,1,.46-.71l3.75-4.91h.72v6.67Zm-.17-9.65a1.76,1.76,0,0,1-2,1.82,1.8,1.8,0,0,1-2-1.82h.7a1.2,1.2,0,0,0,1.32,1.31,1.19,1.19,0,0,0,1.29-1.31Z" transform="translate(-3.21 -3.65)"/><path class="cls-3" d="M272.51,68.76v6h-.87v-6h-2.51v-.71H275v.71Z" transform="translate(-3.21 -3.65)"/></g></svg>