<svg xmlns="http://www.w3.org/2000/svg" viewBox="0 0 503 503" width="23" height="23" fill="#aaaaaa"><path d="M475.37,96.37,415.64,36.64a8.52,8.52,0,0,0-12.07,0L53.7,386.5a8.62,8.62,0,0,0-1.84,2.75L9.19,491.65a8.54,8.54,0,0,0,7.88,11.82,8.36,8.36,0,0,0,3.28-.66l102.4-42.66a8.28,8.28,0,0,0,2.75-1.85L475.37,108.44A8.54,8.54,0,0,0,475.37,96.37ZM114.63,445l-81.71,34,34-81.71L409.6,54.74l47.67,47.66Z" transform="translate(-8.53 0)"/><path d="M466.83,156.1,381.5,70.77a8.53,8.53,0,0,0-12.06,12.07l79.3,79.3-122,122a8.53,8.53,0,1,0,12.06,12.07l128-128A8.52,8.52,0,0,0,466.83,156.1Z" transform="translate(-8.53 0)"/><rect x="81.06" y="380.16" width="17.07" height="84.47" transform="translate(-280.97 187.07) rotate(-45)"/><path d="M509.5,28.1,483.9,2.5a8.53,8.53,0,0,0-12.06,0l-51.2,51.2A8.53,8.53,0,1,0,432.7,65.77L477.87,20.6,491.4,34.14,446.24,79.3A8.53,8.53,0,1,0,458.3,91.37l51.2-51.2A8.52,8.52,0,0,0,509.5,28.1Z" transform="translate(-8.53 0)"/><rect x="200.53" y="260.7" width="17.07" height="84.47" transform="translate(-161.51 236.56) rotate(-45)"/></svg>