<svg xmlns="http://www.w3.org/2000/svg" viewBox="0 0 440 490" width="22" height="25" fill="#d56e00"><path d="M226,57h60c5.52,0,10-10.57,10-23.61S291.52,11,286,11H226c-5.52,0-10,9.35-10,22.39S220.48,57,226,57Z" transform="translate(-36 -11)"/><path d="M256,61A220,220,0,1,0,476,281,219.88,219.88,0,0,0,256,61Zm0,400c-99.25,0-180-80.75-180-180s80.75-180,180-180,180,80.75,180,180S355.25,461,256,461Z" transform="translate(-36 -11)"/><path d="M342.48,182.89a16.81,16.81,0,0,0-23.64,2.49l-53,65.48A33.64,33.64,0,1,0,292,272l53-65.49A16.8,16.8,0,0,0,342.48,182.89Z" transform="translate(-36 -11)"/><path d="M60.88,137.44A19.85,19.85,0,0,0,73.35,132l51.31-48.66a20,20,0,1,0-27.53-29L45.83,103a20,20,0,0,0,15.05,34.47Z" transform="translate(-36 -11)"/><path d="M466.41,131.25a20,20,0,0,0-.75-28.28L414.35,54.31a20,20,0,0,0-27.52,29L438.13,132a20,20,0,0,0,28.28-.74Z" transform="translate(-36 -11)"/></svg>