<svg id="Слой_1" data-name="Слой 1" xmlns="http://www.w3.org/2000/svg" viewBox="0 0 50.26 50"><defs><style>.cls-1{fill:none;}.cls-2{fill:#d24a43;}.cls-3{fill:#201600;}.cls-4{fill:#f6ce57;}</style></defs><title>ico</title><rect class="cls-1" width="50" height="50"/><path class="cls-2" d="M19,36.32H0V3H19v7.23H8.69v5.68h9.74v7.23H8.69v6H19Z" transform="translate(0)"/><path class="cls-3" d="M50.26,36.32H39.49L31.21,23.53V36.32H22.55V3H36q5.91,0,8.74,3.54a10.41,10.41,0,0,1,2.3,6.71,9.53,9.53,0,0,1-2.63,7.06,9.21,9.21,0,0,1-4.64,2.34ZM38.07,13.73a4,4,0,0,0-1.29-3,5.68,5.68,0,0,0-4-1.14H31.16v8.3h1.62a5.64,5.64,0,0,0,4-1.14A4,4,0,0,0,38.07,13.73Z" transform="translate(0)"/><rect class="cls-4" y="39.11" width="50" height="8"/></svg>