<svg width="64" height="29" viewBox="0 0 64 29" fill="white" xmlns="http://www.w3.org/2000/svg"><path d="M45.297 2.55434V3.59366H54.1947C54.7878 3.59366 55.6776 3.59366 56.2618 4.18807C56.846 4.78248 56.855 5.67409 56.855 6.2595V15.1756C56.855 15.77 56.855 16.6617 56.2618 17.2471C55.6686 17.8415 54.7789 17.8415 54.1947 17.8415H49.8986C49.1581 17.8415 48.1928 17.8415 47.8315 17.0237C47.4612 16.2059 47.9796 15.4638 48.4247 14.8622L54.2126 7.1349H45.315L41.756 11.8902C41.1592 12.6863 40.6433 13.3762 40.6433 14.2678C40.6433 15.1594 41.1232 15.8007 41.756 16.6454L42.6457 17.8343C43.5355 19.0231 44.4253 20.2119 45.6116 20.8063C46.798 21.4007 48.2 21.4007 50.1413 21.4007H53.988C56.2169 21.4007 59.5422 21.4007 61.7711 19.1672C64 16.9336 64 13.6734 64 12.4846V8.91813C64 7.72931 64 4.46906 61.7711 2.23553C59.5422 0.00198732 56.2169 0.00198732 53.988 0.00198732L47.8405 5.95733e-06C47.2473 -0.000174167 46.5068 5.96934e-06 45.9172 0.594415C45.324 1.18882 45.324 1.93094 45.324 2.52174"/><path d="M34.6918 7.16504H43.4995L32.8943 21.4669H24.0865L34.6918 7.16504Z"/><path d="M0 9.68677C0 9.09237 0 8.35026 0.593175 7.75945C1.18635 7.16864 1.92692 7.16504 2.5165 7.16504H17.4178C19.3411 7.16504 20.7611 7.16504 21.9475 7.75945C23.1338 8.35386 24.0146 9.54268 24.9134 10.7315L25.8031 11.9203C26.434 12.7633 26.9158 13.4063 26.9158 14.2979C26.9158 15.1896 26.3999 15.8794 25.8031 16.6756L22.2441 21.4309H13.3464L19.1344 13.7035C19.5784 13.1091 20.0979 12.367 19.7276 11.5421C19.3573 10.7243 18.3938 10.7243 17.6604 10.7243H10.6861V28.5566H3.56804V10.7243H0.0089875V9.68317"/></svg>