<svg width="37" height="37" viewBox="0 0 37 37" fill="white" xmlns="http://www.w3.org/2000/svg"><path fill-rule="evenodd" clip-rule="evenodd" d="M18.4997 0C28.6789 0 37 8.32054 37 18.5175C37 28.6969 28.6792 37 18.4997 37C8.32028 37 0 28.6967 0 18.5172C0 8.32054 8.32028 0 18.4997 0ZM6.11418 8.56372L12.7499 25.7782L15.1817 19.4899H21.5568L23.9884 25.7782L30.6937 8.35521C29.5105 6.92772 28.088 5.71696 26.4898 4.77709L21.8347 17.5966H15.2683L10.596 4.72469C8.87623 5.71488 7.36502 7.01784 6.11418 8.56372ZM33.3692 12.8891L25.8126 32.605C30.8853 29.9472 34.3763 24.6319 34.3763 18.5175C34.3763 16.5371 34.0292 14.6435 33.3692 12.8891ZM22.5121 33.8903L22.4605 33.4907L18.3605 22.8598L14.2611 33.4907L14.2439 33.8209C15.5988 34.2028 17.0232 34.3941 18.4997 34.3941C19.8892 34.3941 21.2268 34.2205 22.5121 33.8903ZM10.8738 32.4312L3.50879 13.2366C2.91817 14.8867 2.6054 16.6585 2.6054 18.5172C2.6054 24.4927 5.9406 29.7384 10.8738 32.4312ZM18.4997 2.62286C19.8892 2.62286 21.2615 2.79671 22.5645 3.14389L18.5519 14.2439L14.5218 3.12669C15.821 2.79052 17.1577 2.62122 18.4997 2.62286Z"/></svg>