<svg width="65" height="64" viewBox="0 0 65 64" fill="none" xmlns="http://www.w3.org/2000/svg"><path fill-rule="evenodd" clip-rule="evenodd" d="M48.5953 38.3976L46.2506 39.2988C43.0042 40.4135 38.1815 40.4286 35.1033 38.9827C31.5393 37.3082 28.9907 32.3288 33.0012 29.0767C35.7742 26.8279 39.6146 26.2555 43.1761 26.3644C46.9421 26.479 47.8293 27.4665 48.3371 27.4621L48.3277 22.9795C46.3825 22.0192 43.405 20.9857 41.2534 20.4945C35.1202 19.1784 31.9907 19.0417 25.5061 19.7344C22.8437 20.0191 19.159 21.3724 16.9481 22.8958C12.3617 26.0546 10.2077 31.9963 12.4768 37.1999C15.6894 44.5673 24.4669 47.005 31.8313 46.9868C36.2094 46.9761 44.401 45.7254 48.5609 43.241L48.5953 38.3976Z" fill="#CBCECF"/><path d="M37.0686 1.79422L37.2381 1.89939C46.4483 7.60742 53.5475 12.0068 61.399 19.1431L61.4259 19.1696C61.6666 19.4095 61.9055 19.6438 62.1287 19.8629C64.853 22.5362 65.5689 23.239 64.5729 28.4155L64.5178 28.6429C61.9736 39.2334 60.0122 47.3955 55.701 57.1182L55.6859 57.1509C55.5265 57.4702 55.3821 57.7643 55.247 58.0401C53.5644 61.476 53.1224 62.3791 47.9239 63.0252L47.6907 63.0435C36.9086 63.8785 28.5981 64.5221 18.0812 63.3961L18.0486 63.393C17.5966 63.3231 17.3258 63.2834 17.0726 63.2469C13.3091 62.6971 12.3199 62.5529 10.1034 57.7719L10.0127 57.554C5.89096 47.4799 2.71335 39.7151 0.528044 29.2985L0.522417 29.2657C0.484276 29.0302 0.419248 28.6486 0.357347 28.2858C-0.286053 24.5124 -0.4555 23.5205 3.37488 19.919L3.40114 19.8982L3.55246 19.7685C11.7916 12.7071 18.1424 7.26421 27.302 1.95229L27.3314 1.93466C27.6234 1.78289 27.9235 1.62356 28.2048 1.47494C31.5682 -0.307247 32.4523 -0.775779 37.0355 1.77974L37.068 1.79485L37.0686 1.79422ZM36.4465 3.19667L36.277 3.0915L36.2783 3.08898C32.436 0.950989 31.697 1.34206 28.9083 2.81945C28.6419 2.96051 28.358 3.11102 28.0229 3.28483C18.9947 8.52371 12.6964 13.9213 4.52788 20.9222L4.4022 21.0299L4.40345 21.0311C1.17144 24.0703 1.31213 24.8946 1.84673 28.0295C1.88862 28.2776 1.93489 28.5465 2.00868 29.0006C4.16585 39.2762 7.31844 46.9811 11.4083 56.9759L11.4802 57.1516C13.3441 61.1643 14.1682 61.2852 17.2864 61.7405C17.6453 61.7928 18.0286 61.8489 18.2737 61.8866C28.6294 62.9925 36.8792 62.3539 47.5787 61.5252L47.7451 61.5126C52.1319 60.9672 52.4996 60.2172 53.8946 57.3676C54.0321 57.0861 54.1797 56.7863 54.3366 56.4721C58.5834 46.8879 60.5293 38.79 63.0528 28.2858L63.0904 28.1303C63.932 23.7542 63.338 23.1704 61.077 20.9524C60.865 20.744 60.6393 20.5229 60.3892 20.2735C52.6465 13.2361 45.5948 8.86629 36.4471 3.19667H36.4465Z" fill="#CBCECF"/><path fill-rule="evenodd" clip-rule="evenodd" d="M43.9646 28.9496H53.418V32.0738H51.1726V36.834H46.2099V32.0738H43.9646V28.9496Z" fill="#CBCECF" stroke="#CBCECF" stroke-width="0.755617" stroke-miterlimit="22.9256"/></svg>