<svg width="14" height="20" viewBox="0 0 14 20" fill="white" xmlns="http://www.w3.org/2000/svg"><path fill-rule="evenodd" clip-rule="evenodd" d="M11.7911 11.3904C12.9522 10.1906 13.6667 8.55603 13.6667 6.75456C13.6667 3.07266 10.6819 0.0878906 7.00004 0.0878906C3.31814 0.0878906 0.333374 3.07266 0.333374 6.75456C0.333374 8.55603 1.0479 10.1906 2.20902 11.3904L1.01818 18.5354L2.99489 19.9122L7.00004 17.6236L11.0052 19.9122L12.9819 18.5354L11.7911 11.3904ZM11 6.75456C11 8.9637 9.20918 10.7546 7.00004 10.7546C4.7909 10.7546 3.00004 8.9637 3.00004 6.75456C3.00004 4.54542 4.7909 2.75456 7.00004 2.75456C9.20918 2.75456 11 4.54542 11 6.75456ZM9.3548 12.9934C8.62262 13.2699 7.829 13.4212 7.00004 13.4212C6.17108 13.4212 5.37746 13.2699 4.64529 12.9934L4.11027 16.2035L7.00004 14.5522L9.88981 16.2035L9.3548 12.9934Z"/></svg>