<svg width="34" height="44" viewBox="0 0 34 44" fill="white" xmlns="http://www.w3.org/2000/svg"><path d="M19.778 19.4746C18.4642 20.8987 16.1902 21.0004 14.7752 19.6781C13.3603 18.3557 13.2592 16.067 14.5731 14.6429C15.887 13.2188 18.0599 13.1171 19.5254 14.3886C20.9908 15.711 21.1424 17.9488 19.8286 19.4238C19.8286 19.4746 19.778 19.4746 19.778 19.4746Z"/><path d="M18.1105 4.82669C18.4137 5.13186 18.6663 5.38616 18.919 5.74218C19.7781 6.75939 20.4855 7.92918 20.9909 9.14983C21.8499 9.30241 22.709 9.35327 23.5681 9.35327H23.7197H23.8713C26.1958 9.14983 28.3688 8.08176 29.9858 6.40337L30.188 6.19992C29.8848 5.79304 29.531 5.43702 29.1773 5.081C23.2143 -1.02225 13.7646 -1.68344 6.9931 3.4026C12.198 0.859584 15.8365 2.58884 18.1105 4.82669Z"/><path d="M6.03295 22.2211C6.13402 21.8142 6.23509 21.4073 6.38669 21.0513C6.84149 19.7798 7.49842 18.5592 8.25643 17.4911C7.95322 16.6773 7.59949 15.9144 7.14469 15.1515L7.04362 14.9989C7.04362 14.9481 6.99309 14.8972 6.94255 14.8972C5.57815 12.9645 3.60735 11.5913 1.33334 11.0318L1.03014 10.981C0.878541 11.4387 0.676407 11.9473 0.57534 12.4559C-1.5976 20.6444 2.54615 29.2398 10.2778 32.5966C5.57815 29.3416 5.27495 25.2727 6.03295 22.2211Z"/><path d="M27.0549 24.0514C26.6506 24.1532 26.2463 24.2549 25.8926 24.3057C24.5787 24.5092 23.2143 24.5601 21.9004 24.4075C21.3446 25.0687 20.8392 25.7807 20.4855 26.5436L20.435 26.6962L20.3844 26.8488C19.4243 28.9849 19.2222 31.4262 19.8791 33.6641C19.8791 33.7658 19.9296 33.8675 19.9802 33.9692C20.4855 33.8675 20.9908 33.7658 21.4456 33.6641C29.5815 31.4262 34.8875 23.5428 33.8769 15.1509C33.4221 20.8981 30.0869 23.1868 27.0549 24.0514Z"/><path d="M6.99309 3.40256C4.51695 5.13181 2.54615 7.57311 1.38388 10.4213C4.97176 11.1842 7.85216 13.8289 8.9639 17.3383C9.4187 17.0331 10.8842 15.9142 11.8443 12.7609C13.0066 8.94634 15.23 6.14902 18.1105 4.92837C18.1105 4.82665 14.4215 -0.411973 6.99309 3.40256Z"/><path d="M18.6663 30.867C18.6663 28.324 19.6265 25.8318 21.3446 23.95V23.8991C20.9909 23.5431 19.7781 22.6276 16.645 23.3396C12.8044 24.2551 8.5091 24.1025 6.03296 22.2207C6.03296 22.2207 3.35468 28.0188 10.3283 32.5962C13.0571 33.8677 16.1396 34.3763 19.1717 34.0203C18.8179 33.0031 18.6663 31.935 18.6663 30.867Z"/><path d="M30.6427 6.7085C28.7225 8.89549 25.9937 10.1161 23.1133 10.1161C22.3553 10.1161 21.5973 10.0144 20.8898 9.86184H20.8392C20.6876 10.3704 20.5866 11.8963 22.709 14.185C25.3873 17.1349 27.4591 20.8985 27.0549 24.001C27.0549 24.001 33.3715 23.4416 33.8263 15.0496C33.5737 12.0488 32.4619 9.1498 30.6427 6.7085Z"/><path d="M3.15255 43.5824H2.24295V39.2593H3.70842C4.76962 39.2593 5.47709 39.717 5.47709 40.6834C5.47709 41.6497 4.76962 42.2092 3.60735 42.2092H3.15255V43.5824ZM3.15255 41.3954H3.65789C4.21375 41.3954 4.56749 41.192 4.56749 40.7342C4.56749 40.2765 4.26429 40.073 3.70842 40.073H3.20309L3.15255 41.3954Z"/><path d="M6.134 41.3951C6.134 39.9201 7.0436 39.1572 8.20587 39.1572C9.51974 39.1572 10.2777 40.0219 10.2777 41.3951C10.2777 42.9209 9.36814 43.6329 8.20587 43.6329C7.0436 43.6329 6.134 42.87 6.134 41.3951ZM9.31761 41.3951C9.31761 40.4287 8.86281 39.971 8.20587 39.971C7.54894 39.971 7.14467 40.4287 7.14467 41.3951C7.14467 42.3614 7.65001 42.8192 8.30694 42.8192C8.96388 42.8192 9.31761 42.4123 9.31761 41.3951Z"/><path d="M14.4215 43.4294C14.0678 43.6329 13.6635 43.6837 13.2592 43.6837C12.1475 43.7854 11.1874 42.9208 11.0863 41.8019C11.0863 41.7002 11.0863 41.5984 11.0863 41.4967C11.0863 40.0218 11.9454 39.208 13.3603 39.208C13.714 39.208 14.1183 39.2589 14.4215 39.4115L14.2194 40.1744C13.9667 40.0726 13.714 40.0726 13.4614 40.0218C12.7034 40.0218 12.097 40.6321 12.097 41.395C12.097 42.1579 12.7034 42.7682 13.4614 42.7682C13.714 42.7682 13.9667 42.6665 14.2194 42.5648L14.4215 43.4294Z"/><path d="M17.8072 42.4126H15.988L15.5838 43.5824H15.0279L16.645 39.2593H17.2008L18.8179 43.5824H18.262L17.8072 42.4126ZM16.1396 41.904H17.6051L16.8976 39.8696L16.1396 41.904Z"/><path d="M20.6876 43.5824H20.1318V39.7679H18.8684V39.2593H21.951V39.7679H20.6876V43.5824Z"/><path d="M22.5574 41.3951C22.5574 40.0219 23.3659 39.1572 24.4777 39.1572C25.741 39.1572 26.4485 40.0727 26.4485 41.3951C26.4485 42.87 25.6399 43.6329 24.5282 43.6329C23.4165 43.6329 22.5574 42.7683 22.5574 41.3951ZM25.8421 41.3951C25.8421 40.2253 25.3367 39.6658 24.4777 39.6658C23.7197 39.6658 23.1133 40.2253 23.1133 41.3951C23.1133 42.5649 23.6691 43.1243 24.5282 43.1243C25.3873 43.1243 25.8421 42.514 25.8421 41.3951Z"/><path d="M31.805 43.5824H31.2491L30.9965 40.1748L29.8847 43.5824H29.3289L28.2677 40.2256L28.015 43.5824H27.4591L27.8129 39.2593H28.4698L29.6321 42.9721L30.7943 39.2593H31.4513L31.805 43.5824Z"/></svg>