<svg width="20" height="20" viewBox="0 0 20 20" fill="white" xmlns="http://www.w3.org/2000/svg"><path d="M14.1667 1.66663H5.83333C3.53333 1.66663 1.66667 3.52496 1.66667 5.81663V10.8V11.6333C1.66667 13.925 3.53333 15.7833 5.83333 15.7833H7.08333C7.30833 15.7833 7.60833 15.9333 7.75 16.1166L9 17.775C9.55 18.5083 10.45 18.5083 11 17.775L12.25 16.1166C12.4083 15.9083 12.6583 15.7833 12.9167 15.7833H14.1667C16.4667 15.7833 18.3333 13.925 18.3333 11.6333V5.81663C18.3333 3.52496 16.4667 1.66663 14.1667 1.66663ZM6.66667 9.99996C6.2 9.99996 5.83333 9.62496 5.83333 9.16663C5.83333 8.70829 6.20833 8.33329 6.66667 8.33329C7.125 8.33329 7.5 8.70829 7.5 9.16663C7.5 9.62496 7.13333 9.99996 6.66667 9.99996ZM10 9.99996C9.53333 9.99996 9.16667 9.62496 9.16667 9.16663C9.16667 8.70829 9.54167 8.33329 10 8.33329C10.4583 8.33329 10.8333 8.70829 10.8333 9.16663C10.8333 9.62496 10.4667 9.99996 10 9.99996ZM13.3333 9.99996C12.8667 9.99996 12.5 9.62496 12.5 9.16663C12.5 8.70829 12.875 8.33329 13.3333 8.33329C13.7917 8.33329 14.1667 8.70829 14.1667 9.16663C14.1667 9.62496 13.8 9.99996 13.3333 9.99996Z"/></svg>