<svg xmlns="http://www.w3.org/2000/svg" viewBox="0 0 80 80" width="80" height="80"><rect fill="none" width="80" height="80"/><path d="M79.25,53.11c-2.61-4.92-11.66-10.27-12.06-10.5a6.4,6.4,0,0,0-4.83-.84,4.28,4.28,0,0,0-2.59,2A42.16,42.16,0,0,1,56.4,47.5c-3.07,2.08-5.52,1.83-8.17-.82L33.32,31.77c-2.65-2.66-2.9-5.1-.82-8.17a43.86,43.86,0,0,1,3.73-3.37,4.28,4.28,0,0,0,2-2.59,6.49,6.49,0,0,0-.85-4.84c-.22-.39-5.56-9.44-10.49-12a6.39,6.39,0,0,0-7.53,1.13l-3.29,3.3C8.24,13,8,22.58,15.33,32.85a1.3,1.3,0,1,0,2.11-1.51C10.74,22,10.9,14,17.91,7L21.2,3.72a3.78,3.78,0,0,1,4.47-.67c4.28,2.26,9.42,11,9.47,11A4,4,0,0,1,35.73,17,1.75,1.75,0,0,1,34.84,18l-.19.14a38.09,38.09,0,0,0-4.3,4,11,11,0,0,0-1.6,3.46,18.32,18.32,0,0,1-1.91-6.33,1.3,1.3,0,0,0-2.59.26c.94,9,8,14.91,8.26,15.15a.39.39,0,0,0,.11.06L46.39,48.52l.18.16a.92.92,0,0,0,.13.21,27.09,27.09,0,0,0,15.06,6.85h.14A1.3,1.3,0,0,0,62,53.16a22.88,22.88,0,0,1-7.21-2,11.18,11.18,0,0,0,3-1.49,37.19,37.19,0,0,0,4-4.3l.14-.19a1.72,1.72,0,0,1,1.08-.89,4,4,0,0,1,2.84.59c2.44,1.43,9.18,5.92,11.06,9.47a3.78,3.78,0,0,1-.67,4.47L73,62.09c-7,7-15.3,7.08-24.68.21-10.55-7.87-9.67-8.24-11.14-6.89-.8,1.51-1.76.88,9.6,9,5.11,3.73,10,5.6,14.68,5.6,4.83,0,9.33-2,13.38-6.07l3.29-3.29A6.37,6.37,0,0,0,79.25,53.11Z" fill="#fe8c27"/><path d="M2.05,80v-6.6a5,5,0,0,1,1.81-3.87,64.09,64.09,0,0,1,10.88-7.06V59.73a10.24,10.24,0,0,1-.94-2.43,6.37,6.37,0,0,1-1.64-3.19c-.53-1.89-.49-3.15.13-4a1.83,1.83,0,0,1,.3-.32c-.36-2.22-.51-6.34,2.42-8.95a2.92,2.92,0,0,1-.28-1.46l.09-1.3,1.3.14a27.87,27.87,0,0,0,6.43.07,5.9,5.9,0,0,1,6.17,3.09,4.27,4.27,0,0,1,2.2,1.48c1.21,1.51,1.56,3.82,1,6.88a2.2,2.2,0,0,1,.3.31c.66.82.71,2.09.17,4a6.22,6.22,0,0,1-1.65,3.19,9.75,9.75,0,0,1-.94,2.44v2.73a63.09,63.09,0,0,1,10.88,7.06,5,5,0,0,1,1.82,3.87V80ZM15.27,55.23l.72.06.16,1a7.42,7.42,0,0,0,.92,2.52l.17.29v4a1.6,1.6,0,0,1-.88,1.43,60.73,60.73,0,0,0-10.91,7,2.54,2.54,0,0,0-.9,1.94v4.1h35.5V73.38a2.51,2.51,0,0,0-.9-1.94,61,61,0,0,0-10.91-7A1.6,1.6,0,0,1,27.35,63V59.06l.17-.29a7.25,7.25,0,0,0,.93-2.52l.15-1,.72-.06A6.45,6.45,0,0,0,30,53.41a6.14,6.14,0,0,0,.28-1.6l-1.22,0,.23-1.49c.59-2.7.48-4.76-.32-5.8a1.8,1.8,0,0,0-1.24-.73l-1-.05-.24-.92a3.28,3.28,0,0,0-3.51-2,20,20,0,0,1-4.58.17l.43.35-1.51.92c-3.31,2-2.5,6.69-2.18,8.07l.37,1.54h-1.3a5.55,5.55,0,0,0,.27,1.6A7.25,7.25,0,0,0,15.27,55.23Zm14,7,.06,0Z"/></svg>