<?xml version="1.0" encoding="utf-8"?>
<!-- Generator: Adobe Illustrator 23.0.1, SVG Export Plug-In . SVG Version: 6.00 Build 0)  -->
<svg version="1.1" xmlns="http://www.w3.org/2000/svg" xmlns:xlink="http://www.w3.org/1999/xlink" x="0px" y="0px"
	 viewBox="0 0 80 80" style="enable-background:new 0 0 80 80;" xml:space="preserve">
<style type="text/css">
	.st0{fill:none;}
	.st1{display:none;}
	.st2{fill:#FE8C27;}
	.st3{display:none;fill:none;stroke:#000000;stroke-width:2.5;stroke-miterlimit:10;}
</style>
<g id="Слой_2">
	<rect class="st0" width="80" height="80"/>
</g>
<g id="Capa_1">
	<path class="st1" d="M79.2,53.1c-2.6-4.9-11.7-10.3-12.1-10.5c-1.7-0.9-3.4-1.2-4.8-0.8c-1.1,0.3-2,1-2.6,2c-1.3,1.6-3,3.4-3.4,3.7
		c-3.1,2.1-5.5,1.8-8.2-0.8L33.3,31.8c-2.7-2.7-2.9-5.1-0.8-8.2c0.3-0.4,2.1-2,3.7-3.4c1-0.6,1.7-1.5,2-2.6c0.4-1.4,0.1-3.2-0.8-4.8
		c-0.2-0.4-5.6-9.4-10.5-12c-2.5-1.3-5.5-0.9-7.5,1.1l-3.3,3.3C8.2,13,8,22.6,15.3,32.9c0.4,0.6,1.2,0.7,1.8,0.3
		c0.6-0.4,0.7-1.2,0.3-1.8C10.7,22,10.9,14,17.9,7l3.3-3.3c1.2-1.2,3-1.5,4.5-0.7c4.3,2.3,9.4,11,9.5,11c0.6,1,0.8,2.1,0.6,2.9
		c-0.1,0.5-0.4,0.8-0.9,1.1l-0.2,0.1c-1.1,0.9-3.7,3.2-4.3,4c-0.8,1.2-1.3,2.3-1.6,3.5c-0.9-1.8-1.7-4-1.9-6.3
		c-0.1-0.7-0.7-1.2-1.4-1.2c-0.7,0.1-1.2,0.7-1.2,1.4c0.9,9,8,14.9,8.3,15.1c0,0,0.1,0,0.1,0.1l13.8,13.8c0.1,0.1,0.1,0.1,0.2,0.2
		c0,0.1,0.1,0.1,0.1,0.2c0.2,0.2,6.1,5.9,15.1,6.9c0,0,0.1,0,0.1,0c0.7,0,1.2-0.5,1.3-1.2c0.1-0.7-0.4-1.4-1.2-1.4
		c-2.7-0.3-5.2-1.1-7.2-2c1-0.3,2-0.8,3-1.5c0.8-0.6,3.1-3.2,4-4.3l0.1-0.2c0.3-0.5,0.6-0.8,1.1-0.9c0.8-0.2,1.8,0,2.8,0.6
		c2.4,1.4,9.2,5.9,11.1,9.5c0.8,1.5,0.5,3.3-0.7,4.5L73,62.1c-7,7-15.3,7.1-24.7,0.2c-0.6-0.4-1.4-0.3-1.8,0.3
		c-0.4,0.6-0.3,1.4,0.3,1.8c5.1,3.7,10,5.6,14.7,5.6c4.8,0,9.3-2,13.4-6.1l3.3-3.3C80.1,58.6,80.6,55.6,79.2,53.1z"/>
	<path class="st2" d="M79.2,53.1c-2.6-4.9-11.7-10.3-12.1-10.5c-1.7-0.9-3.4-1.2-4.8-0.8c-1.1,0.3-2,1-2.6,2c-1.3,1.6-3,3.4-3.4,3.7
		c-3.1,2.1-5.5,1.8-8.2-0.8L33.3,31.8c-2.7-2.7-2.9-5.1-0.8-8.2c0.3-0.4,2.1-2,3.7-3.4c1-0.6,1.7-1.5,2-2.6c0.4-1.4,0.1-3.2-0.8-4.8
		c-0.2-0.4-5.6-9.4-10.5-12c-2.5-1.3-5.5-0.9-7.5,1.1l-3.3,3.3C8.2,13,8,22.6,15.3,32.9c0.4,0.6,1.2,0.7,1.8,0.3
		c0.6-0.4,0.7-1.2,0.3-1.8C10.7,22,10.9,14,17.9,7l3.3-3.3c1.2-1.2,3-1.5,4.5-0.7c4.3,2.3,9.4,11,9.5,11c0.6,1,0.8,2.1,0.6,2.9
		c-0.1,0.5-0.4,0.8-0.9,1.1l-0.2,0.1c-1.1,0.9-3.7,3.2-4.3,4c-0.8,1.2-1.3,2.3-1.6,3.5c-0.9-1.8-1.7-4-1.9-6.3
		c-0.1-0.7-0.7-1.2-1.4-1.2c-0.7,0.1-1.2,0.7-1.2,1.4c0.9,9,8,14.9,8.3,15.1c0,0,0.1,0,0.1,0.1l13.8,13.8c0.1,0.1,0.1,0.1,0.2,0.2
		c0,0.1,0.1,0.1,0.1,0.2c0.2,0.2,6.1,5.9,15.1,6.9c0,0,0.1,0,0.1,0c0.7,0,1.2-0.5,1.3-1.2c0.1-0.7-0.4-1.4-1.2-1.4
		c-2.7-0.3-5.2-1.1-7.2-2c1-0.3,2-0.8,3-1.5c0.8-0.6,3.1-3.2,4-4.3l0.1-0.2c0.3-0.5,0.6-0.8,1.1-0.9c0.8-0.2,1.8,0,2.8,0.6
		c2.4,1.4,9.2,5.9,11.1,9.5c0.8,1.5,0.5,3.3-0.7,4.5L73,62.1c-7,7-15.3,7.1-24.7,0.2c-10.5-7.9-9.7-8.2-11.1-6.9
		c-0.8,1.5-1.8,0.9,9.6,9c5.1,3.7,10,5.6,14.7,5.6c4.8,0,9.3-2,13.4-6.1l3.3-3.3C80.1,58.6,80.6,55.6,79.2,53.1z"/>
	<path class="st3" d="M41.3,78.6v-5.4c0-1.1-0.5-2.2-1.4-2.9c-4.8-4-10.1-6.6-11.1-7.2c-0.1-0.1-0.2-0.2-0.2-0.3v-3.6
		c0.6-1,0.9-2,1.1-3c0.4,0,1-0.6,1.5-2.7c0.8-2.7,0-3.2-0.7-3.2c1.7-8-2.8-8-2.8-8c-0.4-1.7-2.8-3.4-5-3c-2.2,0.5-6.8-0.1-6.8-0.1
		c-0.1,1,0.8,1.6,0.8,1.6c-4,2.5-3.1,7.9-2.7,9.4c-0.7,0-1.4,0.5-0.6,3.2c0.6,2.1,1.1,2.7,1.5,2.7c0.1,0.9,0.5,2,1.1,3v3.6
		c0,0.1-0.1,0.3-0.2,0.3c-1.1,0.5-6.3,3.2-11.1,7.2c-0.9,0.7-1.4,1.8-1.4,2.9v5.3L41.3,78.6z"/>
	<path d="M2,80v-6.6c0-1.5,0.7-2.9,1.8-3.9c4.3-3.5,8.9-6.1,10.9-7.1v-2.7c-0.4-0.8-0.7-1.6-0.9-2.4c-0.8-0.6-1.3-1.9-1.6-3.2
		c-0.5-1.9-0.5-3.1,0.1-4c0.1-0.1,0.2-0.2,0.3-0.3c-0.4-2.2-0.5-6.3,2.4-8.9c-0.2-0.4-0.3-0.9-0.3-1.5l0.1-1.3l1.3,0.1
		c1.2,0.1,4.8,0.4,6.4,0.1c2.6-0.5,5.2,1.1,6.2,3.1c0.6,0.2,1.5,0.6,2.2,1.5c1.2,1.5,1.6,3.8,1,6.9c0.1,0.1,0.2,0.2,0.3,0.3
		c0.7,0.8,0.7,2.1,0.2,4c-0.4,1.3-0.8,2.6-1.6,3.2c-0.2,0.8-0.5,1.6-0.9,2.4v2.7c2,1,6.6,3.5,10.9,7.1c1.2,0.9,1.8,2.4,1.8,3.9V80
		L2,80z M15.3,55.2l0.7,0.1l0.2,1c0.1,0.8,0.5,1.7,0.9,2.5l0.2,0.3V63c0,0.6-0.3,1.2-0.9,1.4c-1.4,0.7-6.4,3.3-10.9,7
		c-0.6,0.5-0.9,1.2-0.9,1.9v4.1l35.5,0v-4.1c0-0.8-0.3-1.5-0.9-1.9c-4.5-3.7-9.5-6.3-10.9-7c-0.5-0.2-0.9-0.8-0.9-1.4v-3.9l0.2-0.3
		c0.5-0.8,0.8-1.7,0.9-2.5l0.2-1l0.7-0.1c0.1-0.2,0.4-0.7,0.7-1.8c0.2-0.9,0.3-1.3,0.3-1.6l-1.2,0l0.2-1.5c0.6-2.7,0.5-4.8-0.3-5.8
		c-0.5-0.7-1.2-0.7-1.2-0.7l-0.9,0l-0.2-0.9c-0.2-1-1.9-2.4-3.5-2C21.8,41,20,41,18.5,40.9l0.4,0.3l-1.5,0.9c-3.3,2-2.5,6.7-2.2,8.1
		l0.4,1.5h-1.3c0,0.3,0,0.7,0.3,1.6C14.9,54.6,15.1,55,15.3,55.2z M29.3,62.2C29.3,62.2,29.3,62.2,29.3,62.2
		C29.4,62.2,29.3,62.2,29.3,62.2z"/>
</g>
</svg>
