<?xml version="1.0" encoding="iso-8859-1"?>
<!-- Generator: Adobe Illustrator 19.0.0, SVG Export Plug-In . SVG Version: 6.00 Build 0)  -->
<svg version="1.1" id="Capa_1" xmlns="http://www.w3.org/2000/svg" xmlns:xlink="http://www.w3.org/1999/xlink" x="0px" y="0px"
	 viewBox="0 0 488.9 488.9" style="enable-background:new 0 0 488.9 488.9;" xml:space="preserve">
<g>
	<g>
		<path d="M416.5,215.946c40,0,72.4-32.4,72.4-72.4s-32.4-72.4-72.4-72.4h-65.6c-40,0-72.4,32.4-72.4,72.4c0,32,20.8,59.1,49.5,68.6
			v34.5c0,3.2,3.9,4.8,6.1,2.5l33.3-33.3h49.1V215.946z M404.5,134.646h17.9v17.9h-17.9V134.646z M374.7,134.646h17.9v17.9h-17.9
			V134.646z M362.9,152.546H345v-17.9h17.9V152.546z"/>
		<path d="M192.7,420.546H341v-48.1c0-10.1-4.4-19.7-12.2-26.1c-43.5-35.8-90.5-59.5-100-64.2c-1.1-0.5-1.7-1.6-1.7-2.8v-32.4
			c5.1-8.8,8.4-18.1,9.7-26.5c3.7-0.3,8.6-5.5,13.9-24.1c6.9-24.5,0.1-28.9-6.2-28.6c15.7-72-24.7-72.2-24.7-72.2
			c-3.4-15.1-24.8-30.8-44.8-26.6c-20,4.1-61.2-0.5-61.2-0.5c-0.6,8.7,6.9,14.8,6.9,14.8c-36.2,22.1-27.9,70.6-24.6,84.6
			c-6.2,0-12.5,4.7-5.8,28.6c5.3,18.6,10.2,23.8,13.9,24.1c1.3,8.4,4.6,17.7,9.7,26.5v32.4c0,1.2-0.7,2.3-1.7,2.8
			c-9.5,4.7-56.5,28.4-100,64.2c-7.8,6.4-12.2,16.1-12.2,26.1v48.1h148.3l14.6-66.8c-29.6-41.3,2.2-43.2,7.7-43.3l0,0l0,0
			c5.5,0,37.3,2,7.7,43.3L192.7,420.546z"/>
	</g>
</g>
<g>
</g>
<g>
</g>
<g>
</g>
<g>
</g>
<g>
</g>
<g>
</g>
<g>
</g>
<g>
</g>
<g>
</g>
<g>
</g>
<g>
</g>
<g>
</g>
<g>
</g>
<g>
</g>
<g>
</g>
</svg>
