<svg width="64" height="60" viewBox="0 0 64 60" fill="#F87023" xmlns="http://www.w3.org/2000/svg"><path d="M38.1496 51.6931L30.7637 54.6874V23.649L42.838 18.7228C42.838 18.7228 42.838 18.7228 42.8701 18.7228L57.6418 12.7019V35.0792C57.6418 35.6265 58.0914 36.0773 58.6373 36.0773C59.1832 36.0773 59.6328 35.6265 59.6328 35.0792V11.253C59.6328 11.253 59.6328 11.253 59.6328 11.2208C59.6328 11.1564 59.6328 11.092 59.6007 11.0276C59.5686 10.9632 59.5685 10.8988 59.5364 10.8345C59.5364 10.8023 59.5043 10.8023 59.5043 10.7701C59.4722 10.7379 59.4401 10.6735 59.408 10.6413C59.408 10.6091 59.3759 10.6091 59.3759 10.5769C59.3438 10.5447 59.3116 10.5125 59.2474 10.4803L59.2153 10.4481C59.2153 10.4481 59.2153 10.4481 59.1832 10.4481C59.119 10.4159 59.0547 10.3837 58.9905 10.3515C58.9905 10.3515 58.9905 10.3515 58.9584 10.3515L30.1215 0.0482962C29.8967 -0.0160987 29.6719 -0.0160987 29.4792 0.0482962L0.642249 10.3193C0.642249 10.3193 0.642249 10.3193 0.610136 10.3193C0.545911 10.3515 0.481686 10.3837 0.417462 10.4159C0.417462 10.4159 0.417462 10.4159 0.385349 10.4159L0.353237 10.4481C0.321124 10.4803 0.256899 10.5125 0.224787 10.5447C0.256899 10.5769 0.256899 10.6091 0.224787 10.6091C0.192675 10.6413 0.160562 10.7057 0.12845 10.7379C0.12845 10.7701 0.0963373 10.7701 0.0963373 10.8023C0.0642249 10.8666 0.0321124 10.931 0.0321124 10.9954C0 11.092 0 11.1564 0 11.2208C0 11.2208 0 11.2208 0 11.253V44.4164C0 44.8028 0.256899 45.1892 0.610136 45.318L29.415 57.07H29.4471C29.4792 57.07 29.5113 57.1022 29.5755 57.1022C29.6077 57.1022 29.6077 57.1022 29.6398 57.1022C29.704 57.1022 29.7361 57.1344 29.8003 57.1344C29.8646 57.1344 29.9288 57.1344 29.9609 57.1022C29.993 57.1022 29.993 57.1022 30.0251 57.1022C30.0572 57.1022 30.1215 57.07 30.1536 57.07H30.1857L38.9203 53.5283C39.4341 53.3351 39.6588 52.7556 39.4662 52.2404C39.2414 51.7253 38.6634 51.4999 38.1496 51.6931ZM3.72504 11.3174L14.579 7.45372L40.8149 17.4349L29.8003 21.9104L3.72504 11.3174ZM20.7767 5.23209L47.3337 14.7947L43.4802 16.3724L17.437 6.4234L20.7767 5.23209ZM29.8003 2.01234L55.8435 11.3174L50.0633 13.6678L23.699 4.16957L29.8003 2.01234ZM1.95886 12.7019L28.8048 23.649V54.7196L1.95886 43.7725V12.7019Z"/><path d="M43.5131 19.8175C42.9672 19.8175 42.5176 20.2683 42.5176 20.8156V25.5809C42.5176 25.9028 42.6781 26.2248 42.9672 26.3858C43.1277 26.4824 43.3204 26.5468 43.5131 26.5468C43.6415 26.5468 43.77 26.5146 43.8984 26.4824L50.4494 23.7134C50.8026 23.5524 51.0595 23.1982 51.0595 22.8119V17.9823C51.0595 17.4349 50.6099 16.9841 50.064 16.9841C49.5181 16.9841 49.0685 17.4349 49.0685 17.9823V22.1357L44.4764 24.0676V20.7834C44.4764 20.2361 44.059 19.8175 43.5131 19.8175Z"/><path d="M25.5289 42.2592L15.7346 38.4921C15.4456 38.3633 15.0923 38.4277 14.8354 38.5887C14.5785 38.7819 14.418 39.0717 14.418 39.3936V45.2536C14.418 45.6721 14.6749 46.0263 15.0602 46.1873L24.8224 49.9866C24.9508 50.0188 25.0472 50.051 25.1756 50.051C25.3683 50.051 25.561 49.9866 25.7215 49.89C25.9784 49.6968 26.139 49.407 26.139 49.0851V43.2251C26.139 42.7744 25.8821 42.4202 25.5289 42.2592ZM24.1801 47.604L16.3768 44.5774V40.8425L24.1801 43.8691V47.604Z"/><path d="M52.2777 36.4958C45.8231 36.4958 40.5566 41.7762 40.5566 48.2479C40.5566 54.7196 45.8231 60 52.2777 60C58.7323 60 63.9987 54.7196 63.9987 48.2479C63.9666 41.7762 58.7323 36.4958 52.2777 36.4958ZM52.2777 58.0038C46.9149 58.0038 42.5476 53.6249 42.5476 48.2479C42.5476 42.8709 46.9149 38.4921 52.2777 38.4921C57.6405 38.4921 62.0077 42.8709 62.0077 48.2479C62.0077 53.6249 57.6405 58.0038 52.2777 58.0038Z"/><path d="M57.2568 43.7724L49.7424 51.3067L47.912 49.4714C47.5267 49.085 46.9165 49.085 46.5312 49.4714C46.1459 49.8578 46.1459 50.4695 46.5312 50.8559L49.0681 53.3995C49.2608 53.5927 49.5177 53.6893 49.7746 53.6893C50.0315 53.6893 50.2884 53.5927 50.481 53.3995L58.7018 45.1569C59.0872 44.7706 59.0872 44.1588 58.7018 43.7724C58.2522 43.3861 57.6421 43.3861 57.2568 43.7724Z"/></svg>
