<svg width="44" height="60" viewBox="0 0 44 60" fill="#F87023" xmlns="http://www.w3.org/2000/svg"><path d="M42.6738 18.8212L39.8567 15.4036C39.4699 14.9344 39.2346 14.3667 39.177 13.762L38.7522 9.35333C38.5315 7.06269 36.7087 5.23988 34.4181 5.01924L30.0094 4.5949C29.4047 4.53676 28.837 4.30147 28.3678 3.91512L24.9502 1.0976C23.1745 -0.365866 20.5969 -0.365866 18.8212 1.0976L15.4036 3.91512C14.9348 4.30147 14.3672 4.53676 13.762 4.5949L9.35333 5.01924C7.06269 5.23988 5.24034 7.06269 5.01924 9.35333L4.5949 13.762C4.53676 14.3667 4.30147 14.9344 3.91512 15.4036L1.0976 18.8212C-0.365866 20.5969 -0.365866 23.1745 1.0976 24.9502L3.91512 28.3678C4.30147 28.837 4.53676 29.4047 4.5949 30.0094L5.01924 34.4181C5.23988 36.7087 7.06269 38.5311 9.35333 38.7522L12.0482 39.0117L5.64546 54.3115C5.47197 54.728 5.55025 55.1968 5.85008 55.5346C6.14991 55.872 6.60539 56.0057 7.03843 55.8825L12.5934 54.3142C12.6176 54.3074 12.641 54.3179 12.652 54.3376L15.4338 59.3958C15.6407 59.7726 16.0275 59.9996 16.4532 59.9996C16.4734 59.9996 16.4935 59.9992 16.5141 59.9982C16.9641 59.9754 17.3532 59.7034 17.5312 59.2841L24.291 43.1297C24.5203 42.9979 24.741 42.8464 24.9506 42.6738L28.3683 39.8567C28.8009 39.4997 29.3186 39.274 29.8711 39.1953L35.9937 53.8249L31.661 52.6017C30.837 52.3697 29.9741 52.7308 29.5608 53.4802L27.3914 57.4247L24.5171 50.556C24.3272 50.1024 23.8062 49.889 23.3526 50.0786C22.8994 50.2681 22.6856 50.7895 22.8756 51.2426L26.2424 59.2887C26.4187 59.7034 26.8073 59.9754 27.2578 59.9982C27.2784 59.9992 27.2985 60.0001 27.3186 60.0001C27.7444 60.0001 28.1312 59.7726 28.3381 59.3958L31.1194 54.3385C31.1309 54.3179 31.1547 54.3083 31.178 54.3142L36.7321 55.8825C37.166 56.0052 37.6219 55.872 37.9213 55.5346C38.2212 55.1968 38.2994 54.7285 38.1255 54.3106L31.7232 39.0112L34.4181 38.7517C36.7087 38.5311 38.5315 36.7087 38.7522 34.4181L39.177 30.0089C39.2346 29.4042 39.4699 28.837 39.8567 28.3678L42.6738 24.9502C44.1377 23.1745 44.1377 20.5969 42.6738 18.8212ZM16.3804 57.4247L14.2106 53.4793C13.7977 52.7304 12.9339 52.3692 12.1104 52.6017L7.77817 53.8244L13.9003 39.1953C14.4533 39.274 14.971 39.4997 15.4036 39.8563L18.8212 42.6738C19.7093 43.4058 20.7974 43.7715 21.8859 43.7715C21.956 43.7715 22.0255 43.7697 22.0956 43.7665L16.3804 57.4247ZM41.301 23.8186L38.4839 27.2362C37.8705 27.9797 37.4979 28.8796 37.4054 29.8386L36.9811 34.2473C36.8419 35.692 35.6925 36.8415 34.2478 36.9806L30.3751 37.3537C30.36 37.3546 30.3444 37.356 30.3293 37.3583L29.8391 37.4054C28.8796 37.4979 27.9797 37.8705 27.2362 38.4835L23.8186 41.3005C22.6989 42.2238 21.0729 42.2238 19.9533 41.3005L16.5356 38.4835C15.7922 37.8705 14.8922 37.4974 13.9328 37.4054L13.4402 37.3578C13.4265 37.356 13.4132 37.3551 13.3995 37.3542L9.52407 36.9806C8.07938 36.8415 6.92994 35.692 6.79078 34.2473L6.36643 29.8391C6.27397 28.8796 5.90135 27.9797 5.28795 27.2362L2.47088 23.8186C1.54758 22.6985 1.54758 21.0725 2.47088 19.9528L5.28795 16.5352C5.90135 15.7917 6.27397 14.8918 6.36643 13.9323L6.79078 9.52362C6.92994 8.07892 8.07938 6.92948 9.52407 6.79032L13.9328 6.36598C14.8922 6.27351 15.7922 5.90089 16.5356 5.28795L19.9533 2.47088C20.5131 2.00946 21.1997 1.77829 21.8859 1.77829C22.5721 1.77829 23.2588 2.009 23.8186 2.47088L27.2362 5.28795C27.9797 5.90089 28.8796 6.27397 29.8391 6.36598L34.2478 6.79032C35.6925 6.92948 36.8419 8.07892 36.9811 9.52362L37.4054 13.9323C37.4979 14.8918 37.8705 15.7917 38.4839 16.5352L41.301 19.9528C42.2238 21.0729 42.2238 22.6985 41.301 23.8186Z"/><path d="M21.8858 7.98657C21.2916 7.98657 20.6938 8.02411 20.1079 8.09918C19.6208 8.16144 19.2761 8.6073 19.3384 9.09435C19.4006 9.58187 19.847 9.92611 20.3336 9.86431C20.8444 9.79885 21.3667 9.76589 21.8858 9.76589C28.5687 9.76589 34.0055 15.2027 34.0055 21.8856C34.0055 28.5684 28.5682 34.0048 21.8858 34.0048C15.203 34.0048 9.76613 28.568 9.76613 21.8851C9.76613 17.1185 12.5768 12.7766 16.9264 10.8233C17.3746 10.6224 17.5751 10.0955 17.3737 9.64733C17.1723 9.19872 16.6454 8.99868 16.1977 9.2001C11.2095 11.4399 7.98682 16.419 7.98682 21.8851C7.98682 29.5494 14.222 35.7841 21.8858 35.7841C29.5497 35.7841 35.7848 29.5494 35.7848 21.8851C35.7848 14.2213 29.5497 7.98657 21.8858 7.98657Z"/><path d="M13.0496 20.855C11.989 21.9156 11.989 23.6418 13.0496 24.7025L16.9356 28.5889C17.4497 29.1025 18.1326 29.3854 18.8596 29.3854C19.586 29.3854 20.2695 29.1025 20.7835 28.5889L29.2664 20.1056C30.327 19.0445 30.327 17.3187 29.2664 16.2576C28.2057 15.197 26.4795 15.197 25.4184 16.2576L18.8596 22.8169L16.8971 20.855C15.8365 19.7943 14.1103 19.7943 13.0496 20.855ZM18.8596 24.9652C19.0953 24.9652 19.3214 24.8714 19.4885 24.7043L26.6768 17.516C27.0439 17.1489 27.6408 17.1494 28.008 17.516C28.3751 17.8832 28.3751 18.4805 28.008 18.8472L19.5252 27.3305C19.3475 27.5081 19.1109 27.6061 18.8596 27.6061C18.6078 27.6061 18.3716 27.5081 18.194 27.3305L14.3076 23.4445C13.9409 23.0774 13.9409 22.48 14.3076 22.1133C14.4911 21.9298 14.7324 21.8378 14.9736 21.8378C15.2144 21.8378 15.4556 21.9298 15.6387 22.1129L18.2301 24.7043C18.3972 24.8714 18.6234 24.9652 18.8596 24.9652Z"/></svg>
