<svg width="60" height="44" viewBox="0 0 60 44" fill="#F87023" xmlns="http://www.w3.org/2000/svg"><path d="M28.9803 13.2351C28.9803 13.7674 29.2004 14.5513 31.1031 15.2102C31.9113 15.49 34.3706 16.3417 34.3706 18.8351C34.3706 20.559 33.2203 22.0082 31.6755 22.3998V22.7723C31.6755 23.2526 31.3008 23.6418 30.8386 23.6418C30.3763 23.6418 30.0016 23.2526 30.0016 22.7723V22.3998C28.4567 22.0082 27.3064 20.559 27.3064 18.8351C27.3064 18.3548 27.6812 17.9656 28.1434 17.9656C28.6056 17.9656 28.9803 18.3548 28.9803 18.8351C28.9803 19.8998 29.8139 20.7657 30.8386 20.7657C31.8632 20.7657 32.6967 19.8997 32.6967 18.8351C32.6967 18.2219 32.4445 17.5078 30.5739 16.8601C28.4057 16.1091 27.3064 14.8896 27.3064 13.2351C27.3064 11.5114 28.4567 10.0622 30.0016 9.67054V9.29804C30.0016 8.81771 30.3763 8.42852 30.8386 8.42852C31.3008 8.42852 31.6755 8.81771 31.6755 9.29804V9.67054C33.2203 10.0622 34.3706 11.5114 34.3706 13.2351C34.3706 13.7154 33.9958 14.1046 33.5336 14.1046C33.0714 14.1046 32.6967 13.7154 32.6967 13.2351C32.6967 12.1706 31.8631 11.3046 30.8386 11.3046C29.814 11.3046 28.9803 12.1706 28.9803 13.2351ZM60 0.869517V31.2007C60 31.681 59.6253 32.0702 59.1631 32.0702H58.3229V37.0442C58.3229 37.2898 58.2229 37.524 58.0478 37.6888C57.8931 37.8342 57.6926 37.9137 57.486 37.9137C57.4585 37.9137 57.4309 37.9123 57.4032 37.9094L54.9687 37.6583V43.1305C54.9687 43.3933 54.8544 43.6419 54.6576 43.807C54.5074 43.933 54.3214 44 54.1318 44C54.0731 44 54.014 43.9935 53.9555 43.9805L0.670001 32.0528C0.66855 32.0525 0.667211 32.0523 0.66576 32.0519L0.660739 32.0508C0.648129 32.048 0.636077 32.044 0.62369 32.0407C0.614205 32.0381 0.604496 32.0359 0.595122 32.033C0.583628 32.0294 0.572469 32.025 0.561087 32.021C0.556958 32.0194 0.552717 32.0179 0.548588 32.0163C0.540219 32.0132 0.531738 32.0105 0.52348 32.007C0.521471 32.0062 0.519574 32.0053 0.517566 32.0045C0.507411 32.0001 0.497479 31.995 0.487547 31.9902C0.477057 31.9852 0.466456 31.9807 0.45619 31.9753C0.453623 31.9739 0.451168 31.9723 0.448601 31.9708C0.448267 31.9706 0.447932 31.9704 0.447486 31.9702C0.438 31.965 0.42885 31.9594 0.419587 31.9538C0.410325 31.9483 0.400951 31.9432 0.392024 31.9372C0.387784 31.9345 0.383766 31.9313 0.379526 31.9284C0.371379 31.923 0.363456 31.9171 0.355533 31.9114C0.34761 31.9056 0.339464 31.8999 0.331764 31.8938C0.326408 31.8896 0.321275 31.8851 0.31603 31.8807C0.308999 31.8749 0.302081 31.869 0.295273 31.8629C0.28869 31.857 0.281994 31.8512 0.275522 31.8452C0.269272 31.8394 0.263358 31.8331 0.257332 31.8271C0.251306 31.8211 0.24528 31.8153 0.239477 31.8091C0.234232 31.8035 0.229099 31.7978 0.223966 31.7921C0.217159 31.7844 0.210575 31.7764 0.203991 31.7684C0.198858 31.7623 0.193501 31.7565 0.188591 31.7502C0.184574 31.7451 0.180891 31.7398 0.176986 31.7346C0.17029 31.7257 0.163929 31.7165 0.157568 31.7074C0.153216 31.701 0.148418 31.6951 0.144177 31.6886C0.14083 31.6833 0.137928 31.6779 0.13458 31.6726C0.128554 31.6629 0.122863 31.6532 0.117172 31.6432C0.113155 31.6362 0.108803 31.6292 0.105008 31.6219C0.101549 31.6153 0.0983129 31.6087 0.0949651 31.6021C0.090613 31.5935 0.0864841 31.5848 0.0824668 31.576C0.0786726 31.5679 0.0749901 31.5596 0.0714191 31.5514C0.0680714 31.5436 0.0648352 31.5358 0.0617106 31.5279C0.0588092 31.5206 0.056131 31.5133 0.0534528 31.5058C0.0499934 31.4962 0.0468688 31.4866 0.0437442 31.4769C0.0408428 31.4681 0.0379414 31.4594 0.0353748 31.4503C0.0337009 31.4445 0.0321386 31.4387 0.0305763 31.4329C0.0274517 31.4215 0.0249967 31.4097 0.0224301 31.398C0.0203098 31.3886 0.0178548 31.3794 0.0160693 31.3699C0.0152882 31.3658 0.0146186 31.3616 0.0138375 31.3576C0.0112708 31.3428 0.00948535 31.3278 0.00769988 31.3127C0.00658395 31.3039 0.00502166 31.2953 0.00412892 31.2864C0.00390573 31.2842 0.00379414 31.2821 0.00357096 31.28C0.00133911 31.2539 0 31.2275 0 31.2007V0.869517C0 0.389196 0.374727 0 0.836943 0H59.1631C59.6253 0 60 0.389196 60 0.869517ZM50.478 30.3312C50.8744 26.0252 54.1815 22.5895 58.3261 22.1777V9.89244C54.1815 9.48063 50.8744 6.04488 50.478 1.73892H9.52196C9.12558 6.045 5.81854 9.48075 1.67389 9.89244V22.1777C5.81854 22.5895 9.12558 26.0252 9.52196 30.3312H50.478ZM7.83769 30.3312C7.45493 26.9853 4.89444 24.3251 1.67389 23.9275V30.3312H7.83769ZM7.83769 1.73903H1.67389V8.14274C4.89444 7.74496 7.45493 5.08494 7.83769 1.73903ZM58.3261 1.73903H52.1623C52.5451 5.08494 55.1056 7.74508 58.3261 8.14274V1.73903ZM53.2947 37.4857L15.4458 33.5813L53.2949 42.0537V37.4857H53.2947ZM56.649 32.0702H17.7368L56.649 36.0841V32.0702ZM58.3261 30.3312V23.9275C55.1056 24.3251 52.5451 26.9853 52.1623 30.3312H57.4838C57.4845 30.3312 57.4853 30.3311 57.4859 30.3311C57.4866 30.3311 57.4874 30.3312 57.4881 30.3312H58.3261ZM38.7448 9.20865C38.3666 9.48492 38.2756 10.0273 38.5415 10.4201C39.6575 12.0695 40.2475 14.0111 40.2475 16.0351C40.2475 21.425 36.0266 25.8102 30.8386 25.8102C25.6504 25.8102 21.4295 21.425 21.4295 16.0351C21.4295 10.6451 25.6504 6.25994 30.8386 6.25994C32.7868 6.25994 34.6559 6.8729 36.2435 8.0326C36.6217 8.30911 37.1438 8.2145 37.4096 7.82148C37.6754 7.42869 37.5844 6.88634 37.2064 6.61007C35.3353 5.24342 33.1333 4.52091 30.8386 4.52091C24.7274 4.52091 19.7556 9.68619 19.7556 16.0351C19.7556 22.3839 24.7274 27.5492 30.8386 27.5492C36.9497 27.5492 41.9214 22.3839 41.9214 16.0351C41.9214 13.6511 41.2261 11.3637 39.9107 9.41989C39.6451 9.0271 39.123 8.93272 38.7448 9.20865Z"/></svg>
