<svg width="52" height="45" viewBox="0 0 52 45" fill="#F87023" xmlns="http://www.w3.org/2000/svg"><path d="M33.7548 35.0666L40.3552 28.6523C40.556 28.4526 40.6313 28.1531 40.556 27.8536C40.4556 27.579 40.2297 27.3794 39.9286 27.3295L30.7934 26.0067L26.7027 17.7704C26.5772 17.4958 26.3012 17.3461 26 17.3461C25.6988 17.3461 25.4479 17.5208 25.2973 17.7704L21.2066 26.0067L12.0714 27.3295C11.7703 27.3794 11.5444 27.579 11.444 27.8536C11.3436 28.1281 11.4189 28.4276 11.6448 28.6523L18.3205 35.0666L16.7645 44.1015C16.7143 44.401 16.8398 44.6756 17.0656 44.8503C17.2915 45.025 17.6178 45.0499 17.8687 44.9002L26.0251 40.6323L34.1815 44.9002C34.3069 44.9501 34.4073 45 34.5328 45C34.6834 45 34.8591 44.9501 34.9846 44.8503C35.2104 44.6756 35.3359 44.376 35.2857 44.1015L33.7548 35.0666ZM26.4015 39.1098C26.3012 39.0599 26.1757 39.01 26.0502 39.01C25.9247 39.01 25.7992 39.035 25.6988 39.1098L18.5714 42.8536L19.9266 34.9418C19.9768 34.6922 19.8764 34.4426 19.7008 34.2679L13.9286 28.6772L21.9093 27.5291C22.1602 27.5042 22.3861 27.3295 22.4865 27.1048L26.0502 19.9168L29.6139 27.1048C29.7143 27.3295 29.9402 27.4792 30.1911 27.5291L38.1718 28.6772L32.3996 34.2679C32.2239 34.4426 32.1236 34.6922 32.1737 34.9418L33.529 42.8536L26.4015 39.1098Z"/><path d="M15.6098 36.0399H2.58469L5.16963 33.3694C5.44569 33.0699 5.44569 32.5957 5.16963 32.2962L2.58469 29.6256H9.23527C9.66191 29.6256 10.0133 29.2762 10.0133 28.8519C10.0133 28.4276 9.66191 28.0782 9.23527 28.0782H0.777738C0.47658 28.0782 0.175421 28.2529 0.0750353 28.5524C-0.0504473 28.827 0.0248423 29.1764 0.225614 29.376L3.56345 32.8203L0.225614 36.2895C-0.000254244 36.5141 -0.0504473 36.8386 0.0750353 37.1132C0.200518 37.3877 0.47658 37.5874 0.777738 37.5874H15.6098C16.0364 37.5874 16.3878 37.2379 16.3878 36.8137C16.3878 36.3894 16.0364 36.0399 15.6098 36.0399Z"/><path d="M48.4357 32.8453L51.7735 29.401C51.9994 29.1764 52.0496 28.8519 51.9241 28.5774C51.7986 28.3028 51.5225 28.1032 51.2214 28.1032H42.7638C42.3372 28.1032 41.9858 28.4526 41.9858 28.8769C41.9858 29.3012 42.3372 29.6506 42.7638 29.6506H49.4144L46.8295 32.3211C46.5534 32.6206 46.5534 33.0949 46.8295 33.3944L49.4144 36.0649H36.3893C35.9627 36.0649 35.6113 36.4143 35.6113 36.8386C35.6113 37.2629 35.9627 37.6123 36.3893 37.6123H51.2214C51.5225 37.6123 51.8237 37.4376 51.9241 37.1381C52.0496 36.8636 51.9743 36.5142 51.7735 36.3145L48.4357 32.8453Z"/><path d="M26.1757 10.2579C29.0117 10.2579 31.3456 7.96174 31.3456 5.11648C31.3456 2.29618 29.0367 -0.0249481 26.1757 -0.0249481C23.3147 1.02818e-05 21.0059 2.29618 21.0059 5.14144C21.0059 7.96174 23.3147 10.2579 26.1757 10.2579ZM26.1757 1.54743C28.1584 1.54743 29.7896 3.16973 29.7896 5.14144C29.7896 7.11315 28.1584 8.73545 26.1757 8.73545C24.1931 8.73545 22.5618 7.11315 22.5618 5.14144C22.5367 3.14477 24.168 1.54743 26.1757 1.54743Z"/><path d="M17.6683 25.3578C17.7185 25.3578 17.7687 25.3827 17.844 25.3827C18.1953 25.3827 18.5216 25.1331 18.5969 24.7837L20.3787 16.5474C20.8556 14.3012 22.8884 12.6789 25.1722 12.6789H27.2803C29.6143 12.6789 31.6471 14.3261 32.0988 16.5974L33.7301 24.7338C33.8054 25.1581 34.232 25.4326 34.6336 25.3328C35.0602 25.2579 35.3112 24.8336 35.2359 24.4343L33.6046 16.2979C33.0023 13.3029 30.3421 11.1315 27.2803 11.1315H25.1722C22.1606 11.1315 19.5004 13.2529 18.8479 16.198L17.066 24.4593C16.9907 24.8586 17.2417 25.2829 17.6683 25.3578Z"/><path d="M10.189 14.426C12.6986 14.426 14.7314 12.4043 14.7314 9.90849C14.7314 7.41265 12.6986 5.39102 10.189 5.39102C7.6793 5.39102 5.64648 7.41265 5.64648 9.90849C5.64648 12.4043 7.6793 14.426 10.189 14.426ZM10.189 6.93844C11.8453 6.93844 13.1754 8.2862 13.1754 9.90849C13.1754 11.5557 11.8202 12.8785 10.189 12.8785C8.53258 12.8785 7.20247 11.5308 7.20247 9.90849C7.17737 8.2862 8.53258 6.93844 10.189 6.93844Z"/><path d="M3.16203 26.9052C3.21222 26.9052 3.26241 26.9301 3.31261 26.9301C3.66396 26.9301 3.99021 26.6805 4.0655 26.3062L5.32033 19.7671C5.72187 17.8952 7.42844 16.5474 9.33577 16.5474H11.1427C13.1002 16.5474 14.7817 17.9201 15.1833 19.8419C15.2585 20.2662 15.6852 20.5158 16.0867 20.4409C16.5134 20.3661 16.7643 19.9418 16.6891 19.5424C16.162 16.8968 13.828 14.9751 11.1427 14.9751H9.33577C6.67554 14.9751 4.36666 16.8469 3.81454 19.4176C3.81454 19.4176 3.81454 19.4176 3.81454 19.4426L2.55971 26.0067C2.45932 26.431 2.73539 26.8303 3.16203 26.9052Z"/><path d="M41.9116 14.426C44.4213 14.426 46.4541 12.4043 46.4541 9.90849C46.4541 7.41265 44.4213 5.39102 41.9116 5.39102C39.402 5.39102 37.3691 7.41265 37.3691 9.90849C37.3691 12.4043 39.402 14.426 41.9116 14.426ZM41.9116 6.93844C43.568 6.93844 44.8981 8.2862 44.8981 9.90849C44.8981 11.5557 43.5429 12.8785 41.9116 12.8785C40.2552 12.8785 38.9251 11.5308 38.9251 9.90849C38.9251 8.2862 40.2552 6.93844 41.9116 6.93844Z"/><path d="M36.0136 20.416C36.4402 20.4909 36.8418 20.2413 36.9171 19.817C37.2935 17.9201 39.0001 16.5225 40.9576 16.5225H42.7645C44.697 16.5225 46.3784 17.8702 46.78 19.7421L48.0348 26.2812C48.1101 26.6556 48.4364 26.9052 48.7877 26.9052C48.8379 26.9052 48.8881 26.9052 48.9383 26.8802C49.3649 26.8053 49.641 26.406 49.5406 25.9817L48.2858 19.4176C48.2858 19.4176 48.2858 19.4176 48.2858 19.3927C47.7337 16.8469 45.4248 14.9751 42.7645 14.9751H40.9576C38.2723 14.9751 35.9383 16.8719 35.4113 19.4925C35.3109 19.9168 35.5869 20.3162 36.0136 20.416Z"/></svg>
