<svg width="14" height="15" viewBox="0 0 14 15" fill="#1567BA" xmlns="http://www.w3.org/2000/svg"><path d="M13.5078 5.26172C13.3711 5.15234 10.4453 2.80078 9.81641 2.28125C9.21484 1.81641 8.17578 0.75 7 0.75C5.79688 0.75 4.78516 1.78906 4.15625 2.28125C3.5 2.82812 0.574219 5.17969 0.464844 5.26172C0.191406 5.48047 0 5.91797 0 6.27344V13.4375C0 14.1758 0.574219 14.75 1.3125 14.75H12.6875C13.3984 14.75 14 14.1758 14 13.4375V6.27344C14 5.94531 13.7812 5.48047 13.5078 5.26172ZM12.6875 13.2734C12.6875 13.3828 12.6055 13.4375 12.5234 13.4375H1.47656C1.36719 13.4375 1.3125 13.3828 1.3125 13.2734V6.35547C1.3125 6.30078 1.3125 6.24609 1.36719 6.21875C1.80469 5.86328 4.34766 3.83984 4.97656 3.32031C5.46875 2.91016 6.34375 2.0625 7 2.0625C7.62891 2.0625 8.50391 2.9375 8.99609 3.32031C9.625 3.83984 12.168 5.86328 12.6055 6.21875C12.6602 6.24609 12.6875 6.30078 12.6875 6.35547V13.2734ZM11.8125 8.16016L11.375 7.64062C11.2656 7.50391 11.0742 7.47656 10.9102 7.61328C10.1445 8.24219 9.32422 8.89844 8.99609 9.14453C8.50391 9.55469 7.62891 10.375 7 10.375C6.34375 10.375 5.46875 9.52734 4.97656 9.14453C4.64844 8.89844 3.82812 8.24219 3.0625 7.61328C2.89844 7.47656 2.70703 7.50391 2.59766 7.64062L2.16016 8.16016C2.05078 8.29688 2.07812 8.51562 2.21484 8.625C3.00781 9.25391 3.85547 9.9375 4.15625 10.1836C4.75781 10.6484 5.79688 11.6875 7 11.6875C8.17578 11.6875 9.1875 10.6758 9.81641 10.1836C10.1172 9.91016 10.9648 9.25391 11.7578 8.625C11.8945 8.51562 11.9219 8.29688 11.8125 8.16016Z"/></svg>
