<svg width="27" height="27" viewBox="0 0 27 27" fill="none" xmlns="http://www.w3.org/2000/svg"><rect x="10" y="12.3" width="1.6" height="4.7"/><path d="M10.8,10.1c-0.5,0-0.9,0.3-0.9,0.8c0,0.4,0.3,0.8,0.9,0.8h0c0.5,0,0.9-0.4,0.9-0.8C11.6,10.4,11.3,10.1,10.8,10.1z"/><path class="st0" d="M13.5,0C6.1,0,0,6.1,0,13.5S6.1,27,13.5,27C20.9,27,27,20.9,27,13.5S20.9,0,13.5,0zM13.5,0.9c3.3,0,6.2,1.2,8.5,3.3l-1,1c-2-1.8-4.6-2.9-7.5-2.9C10.6,2.3,8,3.4,6,5.2l-1-1C7.3,2.1,10.2,0.9,13.5,0.9zM18.7,9.1v8.9c0,0.4-0.3,0.7-0.8,0.7H9.1c-0.4,0-0.8-0.3-0.8-0.7V9.1c0-0.4,0.3-0.7,0.8-0.7h8.8C18.3,8.3,18.7,8.7,18.7,9.1z M0.9,13.5c0-3.3,1.2-6.2,3.3-8.5l1,1c-1.8,2-2.9,4.6-2.9,7.5c0,2.9,1.1,5.5,2.9,7.5l-1,1C2.1,19.7,0.9,16.8,0.9,13.5z M13.5,26.1c-3.3,0-6.2-1.2-8.5-3.3l1-1c2,1.8,4.6,2.9,7.5,2.9c2.9,0,5.5-1.1,7.5-2.9l1,1C19.7,24.9,16.8,26.1,13.5,26.1z M22.8,22l-1-1c1.8-2,2.9-4.6,2.9-7.5c0-2.9-1.1-5.5-2.9-7.5l1-1c2,2.2,3.3,5.2,3.3,8.5C26.1,16.8,24.9,19.7,22.8,22z"/><path class="st0" d="M15.3,12.2c-0.8,0-1.2,0.5-1.4,0.8v0h0c0,0,0,0,0,0v-0.7h-1.6c0,0.4,0,4.7,0,4.7h1.6v-2.6c0-0.1,0-0.3,0.1-0.4c0.1-0.3,0.4-0.6,0.8-0.6c0.6,0,0.8,0.4,0.8,1.1V17h1.6v-2.7C17.1,12.9,16.3,12.2,15.3,12.2z"/></svg>