<svg width="27" height="27" viewBox="0 0 27 27" fill="none" xmlns="http://www.w3.org/2000/svg">
		
	<polygon points="12.4,15.2 15.3,13.5 12.4,11.8" fill="url(#gr_linear)"/><path d="M13.5,0C6.1,0,0,6.1,0,13.5S6.1,27,13.5,27C20.9,27,27,20.9,27,13.5S20.9,0,13.5,0z M13.5,0.9c3.3,0,6.2,1.2,8.5,3.3l-1,1c-2-1.8-4.6-2.9-7.5-2.9C10.6,2.3,8,3.4,6,5.2l-1-1C7.3,2.1,10.2,0.9,13.5,0.9z M19.1,13.5c0,1.2-0.1,2.1-0.2,2.7c-0.1,0.5-0.5,0.8-1,1c-0.3,0.1-0.7,0.1-1.5,0.2c-0.7,0-1.4,0.1-2,0.1l-0.9,0c-2.4,0-3.8-0.1-4.4-0.2c-0.5-0.1-0.8-0.5-1-1C8,16,8,15.6,8,15.1c0-0.4-0.1-0.8-0.1-1.2l0-0.5c0-1.2,0.1-2.1,0.2-2.7c0.1-0.5,0.5-0.8,1-1c0.3-0.1,0.7-0.1,1.5-0.2c0.7,0,1.4-0.1,2-0.1l0.9,0c2.4,0,3.8,0.1,4.4,0.2c0.5,0.1,0.8,0.5,1,1C19,11,19,11.4,19,11.9c0,0.5,0.1,0.8,0.1,1.2L19.1,13.5z M0.9,13.5c0-3.3,1.2-6.2,3.3-8.5l1,1c-1.8,2-2.9,4.6-2.9,7.5c0,2.9,1.1,5.5,2.9,7.5l-1,1C2.1,19.7,0.9,16.8,0.9,13.5z M13.5,26.1c-3.3,0-6.2-1.2-8.5-3.3l1-1c2,1.8,4.6,2.9,7.5,2.9c2.9,0,5.5-1.1,7.5-2.9l1,1C19.7,24.9,16.8,26.1,13.5,26.1z M22.8,22l-1-1c1.8-2,2.9-4.6,2.9-7.5c0-2.9-1.1-5.5-2.9-7.5l1-1c2,2.2,3.3,5.2,3.3,8.5C26.1,16.8,24.9,19.7,22.8,22z" fill="url(#gr_linear)"/>
	<defs>
		<linearGradient id="gr_linear" x1="32" y1="-1.90735e-06" x2="-5.64706" y2="9.41176" gradientUnits="userSpaceOnUse">
			<stop stop-color="#478BF9"/>
			<stop offset="1" stop-color="#9DADF2"/>
		</linearGradient>
	</defs>

</svg>