<svg width="27" height="27" viewBox="0 0 27 27" fill="none" xmlns="http://www.w3.org/2000/svg"><path d="M13.5,0C6.1,0,0,6.1,0,13.5S6.1,27,13.5,27C20.9,27,27,20.9,27,13.5S20.9,0,13.5,0z M13.5,0.9c3.3,0,6.2,1.2,8.5,3.3l-1,1c-2-1.8-4.6-2.9-7.5-2.9C10.6,2.3,8,3.4,6,5.2l-1-1C7.3,2.1,10.2,0.9,13.5,0.9z M11.5,10.9c-0.1-0.1-0.1-0.2,0-0.3c0-0.1,0.1-0.2,0.2-0.2h2.6c0.1,0,0.3,0.1,0.3,0.3v2.7c0.3-0.3,0.6-0.7,0.8-1.1c0.1-0.2,0.2-0.5,0.4-0.7c0-0.1,0.1-0.1,0.1-0.2c0.2-0.3,0.3-0.6,0.5-0.9c0.1-0.1,0.1-0.1,0.2-0.1h1.8c0.1,0,0.2,0,0.2,0.1c0.1,0.1,0.1,0.2,0,0.2c-0.3,1.4-1,2.3-1.6,3.2c0,0-0.1,0.1-0.1,0.1c0.9,0.8,1.6,1.8,2,2.9c0,0.1,0,0.2,0,0.3c0,0.1-0.1,0.1-0.2,0.1h-2c-0.1,0-0.1,0-0.2-0.1c-0.2-0.2-0.4-0.4-0.6-0.6c0,0-0.1-0.1-0.1-0.1c-0.1-0.2-0.3-0.3-0.4-0.4c-0.3-0.3-0.5-0.5-0.9-0.6v1.5c0,0.1-0.1,0.3-0.2,0.3c-2.2,0.3-3.7-0.9-4.7-2.3c-1-1.4-1.5-3.1-1.8-4.2c0,0,0-0.1,0-0.1c0-0.1,0-0.2,0-0.3c0.1-0.1,0.1-0.1,0.2-0.1h1.9c0.1,0,0.2,0.1,0.2,0.2c0.1,0.3,0.2,0.5,0.3,0.8c0.3,0.6,0.5,1.2,0.8,1.6c0.2,0.3,0.4,0.6,0.6,0.8c0.1,0.1,0.2,0.2,0.2,0.2v-2.4L11.5,10.9z M0.9,13.5c0-3.3,1.2-6.2,3.3-8.5l1,1c-1.8,2-2.9,4.6-2.9,7.5c0,2.9,1.1,5.5,2.9,7.5l-1,1C2.1,19.7,0.9,16.8,0.9,13.5z M13.5,26.1c-3.3,0-6.2-1.2-8.5-3.3l1-1c2,1.8,4.6,2.9,7.5,2.9c2.9,0,5.5-1.1,7.5-2.9l1,1C19.7,24.9,16.8,26.1,13.5,26.1z M22.8,22l-1-1c1.8-2,2.9-4.6,2.9-7.5c0-2.9-1.1-5.5-2.9-7.5l1-1c2,2.2,3.3,5.2,3.3,8.5C26.1,16.8,24.9,19.7,22.8,22z"/></svg>