<svg width="27" height="27" viewBox="0 0 27 27" fill="none" xmlns="http://www.w3.org/2000/svg"><path class="st0" d="M13.5,0C6.1,0,0,6.1,0,13.5S6.1,27,13.5,27C20.9,27,27,20.9,27,13.5S20.9,0,13.5,0z M13.5,0.9c3.3,0,6.2,1.2,8.5,3.3l-1,1c-2-1.8-4.6-2.9-7.5-2.9C10.6,2.3,8,3.4,6,5.2l-1-1C7.3,2.1,10.2,0.9,13.5,0.9z M10,16c-0.4-0.3-0.7-0.7-0.8-1.2c0.1,0,0.3,0,0.4,0c0.2,0,0.4,0,0.6-0.1c-0.5-0.1-1-0.4-1.3-0.8c-0.3-0.4-0.5-1-0.5-1.5v0c0.3,0.2,0.7,0.3,1,0.3c-0.5-0.3-0.8-0.8-1-1.4s0-1.2,0.2-1.7c0.6,0.7,1.3,1.3,2.1,1.8c0.8,0.4,1.7,0.7,2.6,0.7c0-0.2-0.1-0.4-0.1-0.5c0-0.5,0.1-1,0.4-1.4c0.3-0.4,0.6-0.7,1.1-0.9C15.2,9,15.7,9,16.2,9.1c0.5,0.1,0.9,0.4,1.2,0.7c0.5-0.1,1-0.3,1.5-0.6c-0.2,0.6-0.5,1-1,1.3c0.5-0.1,0.9-0.2,1.3-0.4c-0.3,0.5-0.7,0.9-1.1,1.3v0.3c0,3.2-2.3,6.8-6.6,6.8c-1.3,0-2.5-0.4-3.5-1.1c0.2,0,0.4,0,0.6,0c1,0,2.1-0.4,2.9-1C10.8,16.5,10.3,16.3,10,16z M0.9,13.5c0-3.3,1.2-6.2,3.3-8.5l1,1c-1.8,2-2.9,4.6-2.9,7.5c0,2.9,1.1,5.5,2.9,7.5l-1,1C2.1,19.7,0.9,16.8,0.9,13.5zM13.5,26.1c-3.3,0-6.2-1.2-8.5-3.3l1-1c2,1.8,4.6,2.9,7.5,2.9c2.9,0,5.5-1.1,7.5-2.9l1,1C19.7,24.9,16.8,26.1,13.5,26.1zM22.8,22l-1-1c1.8-2,2.9-4.6,2.9-7.5c0-2.9-1.1-5.5-2.9-7.5l1-1c2,2.2,3.3,5.2,3.3,8.5C26.1,16.8,24.9,19.7,22.8,22z"/></svg>