<svg xmlns="http://www.w3.org/2000/svg" viewBox="0 0 380 250" width="380" height="250"><defs><style>.v-1{fill:#eee;}.v-2{fill:#aaa;}</style></defs><rect class="v-1" width="380" height="250"/><path class="v-2" d="M201,77.39a48.61,48.61,0,0,1-.53,28.72c-2.6,7.76-8,15.92-13.52,20.52l-2,1.69V161H139.72V136.54l-1.88-.71a46.8,46.8,0,0,1-11.36-6.14l-1.62-1.25V191H265V75.93H200.59ZM225,90.94v5h-10v-10h10Zm25,0v5H240v-10h10ZM250,161h-45V106H250V161Zm-100.1,20h-10V171h10Zm25,0h-10V171h10Zm25,0h-10V171h10Zm25,0H215V171h10Zm25,0H240V171h10Z"/><polygon class="v-2" points="142.67 70.5 142.67 112.5 179.5 91.58 142.67 70.5"/><path class="v-2" d="M154.92,51a39.88,39.88,0,1,0,39.91,39.83A39.85,39.85,0,0,0,154.92,51Zm0,70a30.17,30.17,0,1,1,30.16-30.17A30.16,30.16,0,0,1,154.92,121Z"/></svg>