<svg xmlns="http://www.w3.org/2000/svg" viewBox="0 0 512 512" width="23" height="23" fill="#aaaaaa"><path d="M511.87,195.73a8,8,0,0,0-.35-1.74,9.24,9.24,0,0,0-.48-1.46,7.22,7.22,0,0,0-.86-1.31,8.38,8.38,0,0,0-1.13-1.32c-.14-.12-.2-.29-.34-.4l-82.07-63.74V59.7A25.6,25.6,0,0,0,401,34.1H308.57l-37-28.74a25.28,25.28,0,0,0-31.12,0l-37,28.74H110.91a25.6,25.6,0,0,0-25.6,25.6v66.06l-82,63.74c-.15.12-.21.28-.34.4a7.56,7.56,0,0,0-1.14,1.32,7.54,7.54,0,0,0-.85,1.31A8.35,8.35,0,0,0,.45,194,8.38,8.38,0,0,0,.1,195.7c0,.18-.1.33-.1.51V486.37a25.29,25.29,0,0,0,5,15.06,1.79,1.79,0,0,0,.12.24c.06.07.19.15.27.24A25.47,25.47,0,0,0,25.58,512h460.8a25.48,25.48,0,0,0,20.24-10.1c.06-.09.17-.11.23-.2s.06-.16.12-.24a25.36,25.36,0,0,0,5-15.06V196.24C512,196.06,511.88,195.9,511.87,195.73Zm-261-176.91a8.18,8.18,0,0,1,10.18,0L280.72,34.1H231.23ZM27.73,494.9,250.86,321.58a8.2,8.2,0,0,1,10.18,0L484.22,494.9Zm467.18-13.3L271.54,308.12a25.31,25.31,0,0,0-31.12,0L17,481.6V209.23L156.88,317.82a8.54,8.54,0,0,0,10.46-13.49L25.28,194l60-46.65V213.3a8.53,8.53,0,1,0,17.06,0V59.7a8.53,8.53,0,0,1,8.54-8.53H401a8.53,8.53,0,0,1,8.53,8.53V213.3a8.54,8.54,0,1,0,17.07,0V147.37l60,46.65L344.36,304.53A8.53,8.53,0,1,0,354.82,318L494.91,209.23V481.6Z" transform="translate(0 0)"/><path d="M358.37,204.77V170.64A102.4,102.4,0,1,0,256,273,8.54,8.54,0,1,0,256,256a85.33,85.33,0,1,1,85.34-85.33v34.13a17.07,17.07,0,0,1-34.14,0V170.64a8.53,8.53,0,0,0-17.06,0A34.14,34.14,0,1,1,256,136.51a8.54,8.54,0,1,0,0-17.07,51.2,51.2,0,1,0,34.5,88.93,34,34,0,0,0,67.9-3.6Z" transform="translate(0 0)"/></svg>