<svg xmlns="http://www.w3.org/2000/svg" viewBox="0 0 50 38" width="50" height="38"><path d="M48,24.08H44V19a.92.92,0,0,0-1-1H26V13.83h4a2,2,0,0,0,2-2V2a2,2,0,0,0-2-2H20.1a2,2,0,0,0-2,2v9.86a2,2,0,0,0,2,2h4V18H7a.91.91,0,0,0-1,1v5.13h-4a2,2,0,0,0-2,2V36a2,2,0,0,0,2,2H11.9a2,2,0,0,0,2-2V26.11a2,2,0,0,0-2-2h-4V19.92H24.06v4.16h-4a2,2,0,0,0-2,2V36a2,2,0,0,0,2,2H30a2,2,0,0,0,2-2V26.11a2,2,0,0,0-2-2H26V19.92H42.11v4.16h-4a2,2,0,0,0-2,2V36a2,2,0,0,0,2,2H48a2,2,0,0,0,2-2V26.11A2,2,0,0,0,48,24.08Zm-36,2c-.09-.1,0-.1,0,0V36c0,.1,0,.1-.09.1H2.05c-.1,0-.1,0-.1-.1V26.11c0-.1,0-.1.1-.1Zm18,0c-.09-.1,0-.1,0,0V36c0,.1,0,.1-.09.1H20.1c-.1,0-.1,0-.1-.1V26.11c0-.1,0-.1.1-.1ZM20,11.8c.1.09,0,.09,0,0V2c0-.1,0-.1.1-.1H30c.09,0,.09,0,.09.1v9.86c0,.1,0,.1-.09.1ZM48.09,35.87c0,.1-.09.1,0,0l-9.94.1c-.09,0-.09,0-.09-.1V26.11c0-.1,0-.1.09-.1H48c.09,0,.09,0,.09.1Z" transform="translate(-0.02 0)"/></svg>