<svg xmlns="http://www.w3.org/2000/svg" viewBox="0 0 430 430" Width="43" height="43"><path d="M0,88.3V430H323.85V227l-8,12.7V422H8V88H83.85V8h232V110.1l8-13V0H83.35ZM75.85,80h-59l59-63Z" transform="translate(0 0)"/><path d="M202.25,324c-3,4.9-4.1,9.3-10.9,42.4-4.1,20.3-7.5,37.1-7.5,37.3,0,1.3,57-50.6,58.6-53.5C252.35,333.1,408.15,63,408.15,63l12.5,7.5-65.4,121.9,9.2-5.7L430,70.9l-6.95-20.7S384,11.9,382.65,12C382.45,12,204.15,321,202.25,324ZM408.85,46.5l-75.4,130.2-27.3-16.3,78.2-136.2Zm-80,137.7-91,158.1-27.4-16.2L301.75,168ZM219.65,342.3c6.8,4,12.2,7.6,12,8.2-.3,1-34.3,31.5-35.1,31.5-.4,0,7.8-41.8,8.9-45.2.3-1,.8-1.8,1.2-1.8S212.85,338.3,219.65,342.3Z" transform="translate(0 0)"/><path d="M128.85,112h155v-8h-155Z" transform="translate(0 0)"/><path d="M35.85,144h248v-8h-248Z" transform="translate(0 0)"/><path d="M35.85,176h242.5l4.6-8H35.85Z" transform="translate(0 0)"/><path d="M35.85,208h223.8l4.2-8h-228Z" transform="translate(0 0)"/><path d="M35.85,240h80v-8h-80Z" transform="translate(0 0)"/><path d="M35.85,400h133.5l2.6-8H35.85Z" transform="translate(0 0)"/><path d="M35.85,368h140l2-8h-142Z" transform="translate(0 0)"/></svg>