<svg xmlns="http://www.w3.org/2000/svg" viewBox="0 0 375 512" width="37" height="51"><path d="M192.75,93.87a93.87,93.87,0,1,0,93.86,93.86A93.87,93.87,0,0,0,192.75,93.87Zm0,170.67a76.81,76.81,0,1,1,76.8-76.81A76.8,76.8,0,0,1,192.75,264.54Z" transform="translate(-5)"/><path d="M192.82,0h-.07A188.49,188.49,0,0,0,5,184.9,186.34,186.34,0,0,0,40.91,298.22a8.19,8.19,0,0,0,.87,1.69L178.71,504.64a17.07,17.07,0,0,0,28.16-.12L343.72,299.91a9,9,0,0,0,.87-1.69A187.79,187.79,0,0,0,192.82,0ZM329.53,289.9a7.74,7.74,0,0,0-1.16,2.27L192.81,495,57.23,292.32A8.39,8.39,0,0,0,56,289.89,169.41,169.41,0,0,1,22.09,185.15,171.33,171.33,0,0,1,192.75,17.07h.07A170.73,170.73,0,0,1,329.53,289.9Z" transform="translate(-5)"/></svg>