<svg xmlns="http://www.w3.org/2000/svg" viewBox="0 0 508.65 512" width="51" height="51"><path d="M439,411.72a26.48,26.48,0,1,0,26.48,26.47A26.5,26.5,0,0,0,439,411.72ZM439,449a10.79,10.79,0,1,1,10.79-10.79A10.8,10.8,0,0,1,439,449Z" transform="translate(-1.67 0)"/><path d="M510.3,436.82a69.4,69.4,0,0,0-23.1-50.2L329.25,244.16,468.91,104.5a15.84,15.84,0,0,0,2.7-1.08l30.24-16A14.72,14.72,0,0,0,505.39,64L471.34,30a14.74,14.74,0,0,0-23.44,3.54l-16,30.25a14.76,14.76,0,0,0-1.1,2.72L364.92,132.4A7.85,7.85,0,0,0,376,143.49L436.51,83l15.85,15.85-154.7,154.7L281.81,237.7l67.52-67.52a7.85,7.85,0,0,0-11.09-11.1l-49,49L235.92,160A120.47,120.47,0,0,0,78.92,8a7.84,7.84,0,0,0-2.74,12.87l61.59,61.59a9.64,9.64,0,0,1,0,13.65l-40,40a9.66,9.66,0,0,1-13.64,0L22.53,74.5A7.85,7.85,0,0,0,9.66,77.24,120.46,120.46,0,0,0,159.23,235l41.23,45.08a42.35,42.35,0,0,1-53.12,20.2,7.84,7.84,0,0,0-8.39,1.76l-96,96.06a66.7,66.7,0,0,0,94.32,94.33l96.06-96.06A7.84,7.84,0,0,0,235,388,42.43,42.43,0,0,1,290,333.1a7.84,7.84,0,0,0,8.39-1.77l18.12-18.12a28.89,28.89,0,0,0,0-40.85l-7.71-7.71,9.38-9.38,158.55,143a54.34,54.34,0,1,1-76.49,77L282.31,346.38A7.85,7.85,0,1,0,270.73,357L388.62,485.88a69.41,69.41,0,0,0,50.11,22.75c.54,0,1.08,0,1.62,0a70,70,0,0,0,69.95-71.83ZM446.15,70.45l15-28.45,32.2,32.19-28.46,15ZM167.32,220.64a7.86,7.86,0,0,0-8.53-2.06A104.76,104.76,0,0,1,20.55,94.72L73,147.19a25.35,25.35,0,0,0,35.84,0l40-40a25.31,25.31,0,0,0,0-35.83L96.39,18.88a104.78,104.78,0,0,1,123,140.45,7.85,7.85,0,0,0,2,8.73l56.68,51.12-7.43,7.43L263,218.89a28.89,28.89,0,0,0-40.85,0L204,237a7.86,7.86,0,0,0-1.77,8.39A42.26,42.26,0,0,1,205.1,262Zm138.05,81.48L290.69,316.8a58.16,58.16,0,0,0-57.2,14.74h0a58.15,58.15,0,0,0-14.74,57.21l-92.63,92.62A51,51,0,0,1,54,409.24l92.62-92.62a58.12,58.12,0,0,0,71.95-72L233.24,230a13.2,13.2,0,0,1,18.66,0l13.27,13.26,26.94,26.95,13.26,13.26A13.2,13.2,0,0,1,305.37,302.12Z" transform="translate(-1.67 0)"/><path d="M162.33,346.25a7.86,7.86,0,0,0-11.1,0L76.91,420.57A7.85,7.85,0,0,0,88,431.66l74.32-74.31A7.86,7.86,0,0,0,162.33,346.25Z" transform="translate(-1.67 0)"/><path d="M189.79,373.71a7.86,7.86,0,0,0-11.1,0L104.37,448a7.85,7.85,0,0,0,11.1,11.09l74.32-74.32A7.85,7.85,0,0,0,189.79,373.71Z" transform="translate(-1.67 0)"/></svg>