<svg xmlns="http://www.w3.org/2000/svg" viewBox="0 0 383 326" width="38" height="35"><path d="M287.86,93.35a96.5,96.5,0,0,0-14.51,1.1,101.65,101.65,0,0,0-193,8,5,5,0,0,0,9.61,2.71,91.66,91.66,0,0,1,175.38-3.51A5,5,0,0,0,271,105a85.16,85.16,0,1,1,16.84,168.64,5,5,0,1,0,0,10,95.15,95.15,0,0,0,0-190.29Z" transform="translate(0 -28.4)"/><path d="M255.23,245.58H235a2.83,2.83,0,0,1-2.83-2.83v-78.9A12.83,12.83,0,0,0,219.35,151H163.08a12.85,12.85,0,0,0-12.82,12.82v78.91a2.83,2.83,0,0,1-2.83,2.83H127.2a5,5,0,1,0,0,10h20.23a12.83,12.83,0,0,0,12.82-12.82V163.85a2.83,2.83,0,0,1,2.83-2.83h56.27a2.83,2.83,0,0,1,2.83,2.83v78.91A12.83,12.83,0,0,0,235,255.58h20.23a2.83,2.83,0,0,1,2.25,4.56l-64,83.21a2.83,2.83,0,0,1-2.24,1.1,2.8,2.8,0,0,1-2.24-1.1l-52.13-67.76a3.93,3.93,0,0,0-4-1.95H81.49a72.08,72.08,0,0,1-.34-144.15,5.22,5.22,0,0,0,5.68-5,4.83,4.83,0,0,0-4.82-5l-.52,0a82.07,82.07,0,0,0,0,164.13h48.94l50.63,65.81a12.81,12.81,0,0,0,20.32,0l64-83.2a12.82,12.82,0,0,0-10.17-20.64Z" transform="translate(0 -28.4)"/></svg>