<svg xmlns="http://www.w3.org/2000/svg" viewBox="0 0 410 440"><path d="M150.85,5.32c-20.3,3.1-42.9,20.3-53.3,40.5-5.6,11-6.7,22.6-4.4,46.1,1.1,11.8,1.1,12.2-1,14.9-1.8,2.3-2.2,4.1-2.2,10.1,0,4,.6,9.3,1.4,11.6s1.7,5.6,2.1,7.3a21.87,21.87,0,0,0,3,6.5,30,30,0,0,1,3.5,9.5c1.3,6.9,6.5,20.5,9.5,25.2,1.1,1.7,3.6,5.7,5.5,8.9,6.8,11.3,22.6,25.2,34.5,30.4,13.8,5.9,32.7,3.4,46.9-6.3,18-12.2,33.5-34.4,39.6-56.4a76.47,76.47,0,0,1,4.9-12.8c4.7-8.2,6.9-27.4,4.1-33.7-.9-1.8-.8-4.4.4-10.7,1.9-10,2-28.3.2-36.6-3-14.1-13.2-27.7-27-36-9-5.4-30.9-13.1-47.1-16.6C158.35,4.42,157.45,4.32,150.85,5.32Zm15.6,12.4c9.7,2.3,23.5,6.2,31,8.9,11.3,4,18.5,8.5,26,16.2,6.4,6.5,7.3,7.9,9.9,15.8,2.7,8.4,2.8,9.3,2.3,22-.3,7.9-1.1,14.8-2,17.2a55.31,55.31,0,0,0-2.2,8.7c-.6,4.2-.5,4.9,1.9,7.1s2.5,2.8,1.7,6.8c-2.5,11.5-3.5,14.6-5.6,17-1.2,1.5-2.7,5.5-3.4,9-3.4,17-17,39-31.3,50.4-20.3,16.3-39.9,14.9-59.1-4a91.33,91.33,0,0,1-24.4-42.7c-1.4-5.7-3.6-11.7-4.9-13.5-2.8-3.7-6.2-20.5-4.3-21.2a11.39,11.39,0,0,0,3.1-2.3c1.8-1.8,1.9-2.8,1.4-8a43,43,0,0,0-1.8-8.6c-.6-1.5-1.1-9.9-1.2-19.2-.1-16.2,0-16.6,2.8-23,5.3-11.8,12.3-19.9,24.4-28.4,5-3.5,14.4-8.2,17.7-8.9C152.65,16.12,160.65,16.42,166.45,17.72Z" transform="translate(-1.08 -4.74)"/><path d="M98.7,416.26c-23.13-3.52-82.36-21.39-82.93-21.56l-.12,0c-8.29-2.81-12.94-8.13-14.23-16.26-.89-6.09.13-33.9,1.59-43.81,6.27-43.57,15.1-73.21,26.24-88.07,4.91-6.51,19.1-15.74,28.21-18.37,3.63-1.32,44.61-18.46,50.83-23a72.52,72.52,0,0,1,6.34-4.36l1.05-.52h1.17c4.34,0,5,4,5.27,6.21.19,1.26.46,3.08.78,5.29.63,4.41,7.11,50.39,7.57,52.58.74,1.74,1.88,4.86,4.06,10.8,2.53,6.88,29.07,79.52,35.25,96,6-16.83,37.28-105.77,37.95-107.54,1.12-5,4.63-51.37,4.74-56.85a5,5,0,0,1,1.24-4c2.6-2.91,5.81-1.48,8.92-.1,1.82.8,76.63,36.49,81.94,43.65,3.12,4.14,11.73,24.06,13.42,28l3.08,7.2-7.82-.23c-13.59-.4-30.16.49-33.18,2.45-4.75,3.08-5.9,7.26-6.91,11-.85,3.08-1.9,6.91-5.84,8.13-5,1.57-11.39,1.42-18.74,1.25-18.87-.43-32.63.38-37.88,14.83-3,8.32-1.6,97.22-1.6,97.22S101.38,416.67,98.7,416.26Zm-79.91-31.1c2.12.64,59.25,17.84,81.42,21.22,4.73.72,60.94.4,98.61,0-.5-19.17-1.68-79.33,2.48-90.76,8.11-22.31,30.87-21.79,47.51-21.41,5.49.13,10.72.25,14.26-.47.15-.48.31-1.07.44-1.56,1.19-4.32,3.18-11.55,11.12-16.71,5.39-3.49,20.77-4.14,31.08-4.15-3.94-8.89-7.87-17.2-9.15-18.89-3.23-4.09-67.93-35.79-74.41-38.86-.29,4.5-4.62,52.61-5.08,53.67-.59,1.57-41.09,116.32-41.6,117.7-1,2.64-2,5.38-5.52,5.38s-4.58-2.76-5.56-5.2c-.54-1.36-42-114.14-43.15-117-.6-1.26-7.5-49.69-8.13-54.14-10.11,6.34-50.86,23.19-52.78,23.74-6.95,2-19.46,10-23.08,14.8-7,9.28-16.84,31.3-24.35,83.5-1.37,9.34-2.28,36.19-1.6,40.87C12,381.22,14.09,383.56,18.79,385.16ZM129.57,262.61a10.36,10.36,0,0,1,.9,1.78A5,5,0,0,0,129.57,262.61Zm78.28.77-.1.24C207.8,263.51,207.83,263.43,207.85,263.38ZM222.27,205a8.77,8.77,0,0,1,.15,1.56A5.11,5.11,0,0,0,222.27,205Z" transform="translate(-1.08 -4.74)"/><path d="M191.55,228.62c-.1-.1-9.93,3.51-19.83,4a65,65,0,0,1-20.07-2.6l-4.7-1.6s18.16,31.94,22.12,31.94C172.28,260.36,191.65,228.72,191.55,228.62Z" transform="translate(-1.08 -4.74)"/><path d="M150.65,271.62c-2.7,2.2,19.76,80.83,19.76,80.83s16.45-81.52,16.24-81.73c-1.5-1.3-17.2-8.4-17.6-8.3S152.15,270.32,150.65,271.62Z" transform="translate(-1.08 -4.74)"/><path d="M329.3,313.73v-8.94H297.48v8.94H281.56v-8.94a15.93,15.93,0,0,1,15.92-15.91H329.3a15.93,15.93,0,0,1,15.91,15.91v8.94Z" transform="translate(-1.08 -4.74)"/><path d="M319,392.34a16.31,16.31,0,0,1-5.65,1,17.36,17.36,0,0,1-6.13-1.11l-89.35-29.76v60.71A21.87,21.87,0,0,0,239.79,445H387a21.87,21.87,0,0,0,21.88-21.88V362.42Z" transform="translate(-1.08 -4.74)"/><path d="M408.87,334.63v18.22L315.3,384a5.86,5.86,0,0,1-3.82,0l-93.57-31.19V334.63a21.87,21.87,0,0,1,21.88-21.88H387A21.87,21.87,0,0,1,408.87,334.63Z" transform="translate(-1.08 -4.74)"/></svg>