<svg xmlns="http://www.w3.org/2000/svg" viewBox="0 0 250 335" width="18" height="23" fill="#d56e00"><path d="M125,68.18A56.82,56.82,0,1,0,181.82,125,56.81,56.81,0,0,0,125,68.18ZM125,170a45,45,0,1,1,45-45A45,45,0,0,1,125,170Z" transform="translate(0 0)"/><path d="M125,0A125,125,0,0,0,0,125c0,28.55,23.15,71.88,51.14,113.64A1056.1,1056.1,0,0,0,125,335a1056.21,1056.21,0,0,0,73.87-96.36C226.85,196.88,250,153.55,250,125A125,125,0,0,0,125,0Zm66.48,230A963.3,963.3,0,0,1,125,318.25,963.2,963.2,0,0,1,58.53,230c-25.19-38.26-46-78-46-104.11C12.5,62.6,62.87,11.33,125,11.33S237.5,62.6,237.5,125.85C237.5,152,216.66,191.7,191.48,230Z" transform="translate(0 0)"/></svg>