<svg xmlns="http://www.w3.org/2000/svg" viewBox="0 0 458 445" width="23" height="22" fill="#aaaaaa"><path d="M453,1.28a10,10,0,0,0-10,.08l-438,259a10,10,0,0,0,2.16,18.17L152.54,323l64.18,116.82a2.77,2.77,0,0,0,.21.31,10,10,0,0,0,15.54,2l73.8-72.12,138.8,42.47A10.15,10.15,0,0,0,448,413a10,10,0,0,0,10-10V10A10,10,0,0,0,453,1.28ZM34.6,266,401.32,49.19,156.41,303.3ZM217.27,329.2a10,10,0,0,0-1.78,5.69v61.17L171.66,316.3,365.58,115.09Zm18.22,82.08V348.41l49,15ZM438,389.45,241.5,329.33,438,45.67Z" transform="translate(0 0.03)"/></svg>