<svg xmlns="http://www.w3.org/2000/svg" viewBox="0 0 440 490" width="23" height="25" fill="#d56e00"><path d="M226,49h60c5.52,0,10-6.57,10-19.61S291.52,11,286,11H226c-5.52,0-10,5.35-10,18.39S220.48,49,226,49Z" transform="translate(-36 -11)"/><path d="M342.48,182.89a16.81,16.81,0,0,0-23.64,2.49l-53,65.48A33.64,33.64,0,1,0,292,272l53-65.49A16.8,16.8,0,0,0,342.48,182.89Z" transform="translate(-36 -11)"/><path d="M74.59,124.84,128.9,79.55c8.48-7.07,11.55-17.39,4.48-25.87s-17.76-7.33-26.24-.25L52.83,98.71c-8.48,7.08-11.55,17.39-4.48,25.87S66,132,74.59,124.84Z" transform="translate(-36 -11)"/><path d="M465.38,124.58c7.07-8.48,4-18.79-4.48-25.87L406.59,53.43c-8.48-7.08-19.17-8.23-26.24.25s-4,18.8,4.48,25.87l54.31,45.29C447.69,132,458.36,133,465.38,124.58Z" transform="translate(-36 -11)"/><path d="M256,61C134.5,61,36,159.5,36,281s98.5,220,220,220,220-98.5,220-220S377.5,61,256,61Zm0,411.18C150.41,472.18,64.82,386.59,64.82,281S150.41,89.82,256,89.82,447.18,175.41,447.18,281,361.59,472.18,256,472.18Z" transform="translate(-36 -11)"/></svg>