<svg width="1361" height="885" viewBox="0 0 1361 885" fill="none" xmlns="http://www.w3.org/2000/svg"><path d="M1512.7 145.369C1267.07 37.8509 1126.56 358.628 969.755 397.131C743.735 452.606 635.039 192.861 544.84 334.009C454.549 475.305 368.241 599.849 226.533 425.296C84.8238 250.742 8.81561 370.488 8.81561 370.488M9.62423 373.939C11.0727 374.227 89.169 251.606 230.391 423.01C371.613 594.414 457.094 477.595 547.775 337.966C638.695 198.281 745.651 447.386 972.853 392.136C1130.22 353.879 1270.79 44.6356 1513.41 151.605M10.3138 377.418C13.2107 377.994 93.2484 252.408 234.011 420.781C374.774 589.155 459.401 479.942 550.564 341.832C642.203 203.61 747.447 442.195 975.832 387.17C1133.85 349.011 1274.37 51.3297 1513.97 157.751M11.1504 380.988C15.4957 381.853 97.5937 253.273 237.897 418.615C378.201 583.958 461.975 482.352 553.766 345.852C646.096 208.974 749.509 437.067 979.195 382.239C1137.78 344.326 1278.24 58.2058 1514.83 164.078M11.9591 384.439C17.7528 385.592 101.792 254.047 241.636 416.358C381.481 578.67 464.401 484.671 556.674 349.69C649.751 214.395 751.424 431.848 982.321 377.364C1141.43 339.577 1281.96 64.9907 1515.53 170.314M12.6488 387.918C20.01 389.331 105.872 254.848 245.376 414.101C384.761 573.382 466.534 486.807 559.61 353.646C653.113 219.632 753.368 426.748 985.419 372.37C1145.09 334.828 1285.57 71.8035 1516.09 176.46M13.4576 391.369C22.2951 393.189 110.217 255.713 249.115 411.844C388.16 568.066 468.96 489.126 562.517 357.484C656.74 224.934 755.283 421.528 988.517 367.376C1148.75 330.079 1289.17 78.6164 1516.8 182.696M14.2662 394.82C24.5522 396.929 114.415 256.487 252.973 409.559C391.531 562.631 471.506 491.417 565.544 361.294C660.487 230.207 757.318 416.281 991.734 362.354C1152.5 325.184 1292.99 85.2545 1517.6 188.785M15.0749 398.271C26.8093 400.668 118.614 257.26 256.713 407.302C394.811 557.343 473.813 493.763 568.599 365.223C664.142 235.627 759.261 411.181 994.979 357.451C1156.3 320.526 1296.74 92.1584 1518.34 195.141M15.7646 401.749C28.9474 404.435 122.812 258.034 260.452 405.044C398.119 552.174 476.239 496.082 571.535 369.18C667.77 240.928 761.323 406.053 998.105 352.576C1159.96 315.777 1300.49 99.0622 1519.05 201.377M16.5733 405.201C31.2046 408.174 127.011 258.808 264.191 402.788C401.372 546.768 478.638 498.282 574.443 373.018C671.397 246.23 763.091 400.743 1001.17 347.463C1163.71 310.882 1304.04 105.637 1519.73 207.494M17.382 408.652C33.4617 411.914 131.209 259.581 268.049 400.502C404.771 541.452 481.183 500.573 577.47 376.828C675.144 251.503 765.126 395.496 1004.39 342.44C1167.46 305.986 1307.88 112.394 1520.41 213.612M18.0995 412.25C35.6277 415.8 135.435 260.474 271.698 398.392C408.079 536.283 483.399 503.066 580.433 380.904C678.799 256.923 767.097 390.515 1007.55 337.684C1171.17 301.476 1311.52 119.326 1521.14 219.967M18.9082 415.701C37.8848 419.539 139.662 261.367 275.556 396.107C411.45 530.848 485.945 505.357 583.46 384.714C682.426 262.224 769.131 385.268 1010.76 332.662C1174.92 296.58 1315.36 126.083 1521.97 226.176M19.7169 419.152C40.2609 423.25 143.86 262.14 279.295 393.85C414.73 525.56 488.371 507.676 586.396 388.671C686.081 267.644 771.075 380.167 1013.86 327.668C1178.58 291.831 1318.96 132.896 1522.53 232.321M20.5256 422.603C42.399 427.018 148.058 262.914 283.034 391.593C418.01 520.272 490.798 509.994 589.304 392.508C689.709 272.946 772.99 374.948 1016.96 322.674C1182.2 286.964 1322.66 139.562 1523.24 238.557M21.2154 426.082C44.6563 430.757 152.257 263.688 286.774 389.336C421.291 514.984 493.196 512.194 592.24 396.465C693.364 278.366 774.786 369.757 1020.08 317.799C1185.89 282.334 1326.29 146.494 1523.95 244.794M22.0241 429.533C46.9134 434.496 156.455 264.461 290.632 387.051C424.69 509.668 495.741 514.485 595.386 400.247C697.202 283.492 776.94 364.482 1023.42 312.749C1189.76 277.411 1330.11 153.132 1524.77 251.002M22.8328 432.984C49.1984 438.354 160.773 265.207 294.371 384.794C428.089 504.352 498.049 516.832 598.322 404.204C700.857 288.912 778.883 359.382 1026.52 307.755C1193.53 272.634 1333.83 159.917 1525.45 257.119M23.5224 436.463C51.3365 442.122 164.852 266.009 298.111 382.537C431.369 499.065 500.622 519.242 601.257 408.161C704.513 294.333 780.826 354.282 1029.76 302.852C1197.31 267.858 1337.58 166.821 1526.28 263.328M24.359 440.033C53.6215 445.98 169.106 267.02 301.878 380.398C434.677 493.896 502.929 521.588 604.193 412.118C708.049 299.781 782.769 349.181 1032.89 297.977C1201 263.228 1341.31 173.606 1526.9 269.711M25.1677 443.483C55.8786 449.719 173.424 267.766 305.736 378.113C438.048 488.461 505.475 523.879 607.22 415.928C711.795 305.054 784.804 343.934 1036.1 292.955C1204.75 258.332 1345.03 180.391 1527.7 275.8M25.8574 446.962C58.1358 453.458 177.622 268.54 309.475 375.856C441.328 483.173 507.901 526.198 610.275 419.857C715.542 310.327 786.719 338.715 1039.2 287.96C1208.4 253.584 1348.73 187.057 1528.29 282.065M26.6661 450.413C60.2739 457.226 181.702 269.341 313.214 373.599C444.727 477.857 510.328 528.516 613.183 423.695C719.169 315.628 788.634 333.496 1042.42 282.938C1212.15 248.688 1352.45 193.842 1529.09 288.154M27.4748 453.865C62.65 460.937 186.019 270.087 316.954 371.342C447.889 472.597 512.754 530.835 616.118 427.652C722.824 321.049 790.578 328.396 1045.55 278.063C1215.84 244.058 1356.2 200.746 1529.82 294.51M28.2834 457.315C64.9071 464.676 190.218 270.861 320.812 369.057C451.407 467.253 515.299 533.126 619.145 431.462C726.571 326.322 792.612 323.149 1048.76 273.041C1219.59 239.163 1359.9 207.412 1530.5 300.627M28.973 460.794C67.0452 468.443 194.297 271.662 324.432 366.828C454.568 461.993 517.607 535.472 622.081 435.418C730.226 331.742 794.555 318.049 1051.89 268.166C1223.39 234.505 1363.65 214.316 1531.21 306.863M29.7818 464.245C69.3023 472.183 198.642 272.527 328.291 364.543C457.967 456.678 520.152 537.763 625.108 439.228C733.972 337.016 796.589 312.802 1055.08 263.025C1227.14 229.61 1367.35 220.982 1532.01 312.953M30.5905 467.697C71.5595 475.922 202.841 273.301 332.03 362.286C461.219 451.271 522.579 540.082 628.044 443.185C737.628 342.436 798.386 307.61 1058.2 258.15C1230.8 224.861 1371.07 227.767 1532.6 319.217M31.3081 471.294C73.7535 479.927 206.948 274.221 335.797 360.147C464.646 446.074 525.152 542.492 631.099 447.114C741.402 347.828 800.448 302.482 1061.45 253.247C1234.6 220.203 1374.82 234.671 1533.46 325.544M32.1168 474.745C76.0106 483.666 211.265 274.967 339.536 357.89C467.807 440.814 527.459 544.838 633.888 450.98C744.911 353.157 802.245 297.291 1064.43 248.281C1238.11 215.363 1378.28 241.393 1534.02 331.69M32.9254 478.196C78.2677 487.405 215.464 275.74 343.395 355.605C471.325 435.47 530.005 547.129 636.942 454.909C748.804 358.521 804.307 292.163 1067.67 243.377C1241.92 210.706 1382.15 248.268 1534.75 338.045M33.7342 481.647C80.5249 491.145 219.662 276.514 347.134 353.348C474.606 430.182 532.431 549.448 639.969 458.719C752.55 363.795 806.341 286.916 1070.86 238.237C1245.64 205.692 1385.85 254.935 1535.52 344.016M34.4239 485.126C82.782 494.884 223.861 277.288 350.873 351.091C477.886 424.894 534.976 551.739 642.905 462.676C756.206 369.215 808.284 281.816 1073.99 233.361C1249.32 201.062 1389.57 261.72 1536.23 350.252M35.2326 488.577C85.0391 498.624 228.087 278.18 354.613 348.834C481.166 419.606 537.403 554.058 645.813 466.513C759.833 374.516 810.172 276.477 1077.08 228.367C1253.07 196.166 1393.18 268.533 1536.82 356.516M36.0413 492.028C87.2963 502.363 232.285 278.954 358.471 346.549C484.684 414.263 539.948 556.349 648.987 470.415C763.726 379.881 812.234 271.349 1080.45 223.436C1256.99 191.481 1397.14 275.262 1537.77 362.697M36.7309 495.507C89.4343 506.13 236.484 279.728 362.091 344.32C487.817 408.884 542.255 558.695 651.776 474.28C767.382 385.301 814.177 266.249 1083.43 218.47C1260.51 186.641 1400.63 282.102 1538.24 368.989M37.5675 499.077C91.7193 509.988 240.71 280.62 365.977 342.154C491.244 403.687 544.857 561.224 654.858 478.328C771.037 390.721 816.12 261.149 1086.67 213.567C1264.31 181.983 1404.5 288.979 1539.06 375.197M38.3762 502.528C93.9764 513.727 244.909 281.394 369.716 339.896C494.524 398.399 547.283 563.543 657.766 482.166C774.692 396.141 818.036 255.93 1089.77 208.573C1267.94 177.116 1408.08 295.672 1539.77 381.433M39.1849 505.979C96.2336 517.467 249.226 282.14 373.575 337.612C497.923 393.083 549.828 565.834 660.821 486.095C778.585 401.506 820.098 250.802 1093.01 203.67C1271.74 172.458 1411.95 302.549 1540.48 387.67M39.8746 509.458C98.3717 521.234 253.305 282.941 377.195 335.382C501.085 387.823 552.255 568.152 663.729 489.933C782.213 406.807 822.013 245.583 1096.11 198.676C1275.37 167.59 1415.52 309.242 1541.16 393.787M40.6833 512.909C100.657 525.092 257.504 283.715 381.053 333.097C504.603 382.48 554.828 570.562 666.784 493.862C785.987 412.199 823.929 240.364 1099.33 193.654C1279.15 162.814 1419.25 316.028 1541.99 399.996M41.492 516.36C103.033 528.804 261.849 284.58 384.793 330.84C507.736 377.1 557.255 572.881 669.692 497.7C789.643 417.62 825.872 235.263 1102.45 188.779C1282.93 158.037 1423 322.931 1542.58 406.26M42.1817 519.839C105.171 532.571 265.929 285.382 388.532 328.583C511.163 371.904 559.681 575.2 672.627 501.657C793.417 423.012 827.906 230.016 1105.55 183.785C1286.58 153.289 1426.58 329.625 1543.29 412.496M42.9904 523.29C107.428 536.31 270.127 286.155 392.271 326.326C514.443 366.616 562.254 577.61 675.682 505.586C797.072 428.432 829.85 224.916 1108.77 178.763C1290.33 148.393 1430.42 336.383 1544.09 418.586M43.8269 526.86C109.713 540.168 274.472 287.02 396.157 324.16C517.842 361.3 564.827 580.019 678.737 509.514C800.846 433.824 831.765 219.697 1111.9 173.887C1294.02 143.763 1434.05 343.314 1544.7 424.969M44.6356 530.311C111.97 543.908 278.671 287.793 399.897 321.903C521.122 356.012 567.254 582.338 681.645 513.352C804.621 439.217 833.68 214.478 1115.11 168.865C1297.77 138.868 1437.87 349.952 1545.5 431.058M45.3252 533.79C114.108 547.675 282.75 288.595 403.636 319.646C524.521 350.696 569.708 584.776 684.581 517.309C808.276 444.637 835.742 209.35 1118.24 163.99C1301.45 134.238 1441.5 356.884 1546.21 437.295M46.1339 537.241C116.365 551.414 287.068 289.341 407.375 317.388C527.683 345.436 572.134 587.094 687.488 521.147C812.05 450.029 837.658 204.13 1121.45 158.968C1305.23 129.461 1445.32 363.522 1546.92 443.531M46.9426 540.692C118.623 555.153 291.294 290.233 411.233 315.103C531.201 340.092 574.708 589.504 690.662 525.048C815.825 455.421 839.601 199.03 1124.55 153.974C1308.86 124.594 1448.92 370.335 1547.6 449.648M47.6324 544.171C120.88 558.893 295.492 291.007 414.973 312.846C534.481 334.804 577.253 591.795 693.57 528.886C819.48 460.842 841.636 193.783 1127.8 149.071C1312.78 119.908 1452.79 377.211 1548.33 456.004M48.4411 547.622C123.165 562.751 299.691 291.781 418.712 310.589C537.733 329.398 579.707 594.233 696.506 532.843C823.254 466.234 843.579 188.683 1130.9 144.077C1316.41 115.041 1456.37 383.905 1549.01 462.121M49.2498 551.073C125.303 566.518 303.889 292.554 422.479 308.451C541.041 324.229 582.162 596.671 699.442 536.8C827.029 471.626 845.494 183.464 1133.99 139.083C1320.07 110.292 1459.97 390.718 1549.72 468.358M50.0585 554.524C127.679 570.23 308.088 293.328 426.31 306.047C544.531 318.766 584.707 598.961 702.441 540.491C830.656 476.928 847.501 178.098 1137.21 134.061C1323.82 105.396 1463.79 397.356 1550.4 474.475M50.7761 558.122C129.845 574.116 312.314 294.221 429.958 303.937C547.72 313.625 587.042 601.427 705.405 544.567C834.458 482.439 849.353 173.145 1140.34 129.186C1327.5 100.767 1467.42 404.288 1551.11 480.711M51.5847 561.573C132.102 577.855 316.512 294.994 433.816 301.652C551.119 308.309 589.616 603.837 708.431 548.376C838.233 487.831 851.387 167.897 1143.55 124.163C1331.25 95.8709 1471.27 411.045 1551.94 486.92M52.3934 565.024C134.359 581.594 320.739 295.887 437.555 299.395C554.4 303.021 592.189 606.247 711.367 552.333C841.916 493.37 853.33 162.797 1146.68 119.288C1334.94 91.2415 1474.87 417.858 1552.53 493.184M53.0831 568.503C136.497 585.361 324.937 296.661 441.294 297.137C557.68 297.733 594.615 608.565 714.275 556.171C845.543 498.671 855.246 157.578 1149.78 114.294C1338.57 86.3735 1478.59 424.643 1553.24 499.42M53.8919 571.954C138.755 589.101 329.136 297.434 445.034 294.88C560.96 292.445 597.07 611.003 717.33 560.1C849.345 504.183 857.308 152.45 1153.02 109.391C1342.49 81.6882 1482.32 431.428 1554.06 505.629M54.7005 575.405C141.012 592.84 333.334 298.208 448.892 292.595C564.45 286.983 599.643 613.413 720.357 563.91C853.12 509.575 859.314 147.084 1156.21 104.25C1346.21 76.6735 1486.13 438.066 1554.72 511.627M55.3901 578.884C143.15 596.607 337.532 298.982 452.512 290.366C567.611 281.723 601.978 615.879 723.174 567.895C856.775 514.996 861.02 142.04 1159.22 99.4029C1349.78 72.072 1489.65 445.026 1555.33 518.011M56.1988 582.335C145.526 600.319 341.731 299.756 456.371 288.081C571.01 276.407 604.523 618.17 726.2 571.705C860.549 520.388 863.054 136.793 1162.43 94.381C1353.53 67.1765 1493.46 451.664 1556.13 524.1M57.0354 585.905C147.811 604.177 345.957 300.648 460.138 285.943C574.318 271.238 607.18 620.936 729.164 575.781C864.316 526.284 865.025 131.811 1165.59 89.6246C1357.24 62.6655 1497.12 458.715 1556.78 530.602M57.8441 589.356C150.068 607.916 350.274 301.394 463.996 283.658C577.717 265.922 609.726 623.227 732.31 579.563C868.181 531.529 867.178 126.537 1168.9 84.4558C1361.08 57.6232 1500.94 465.353 1557.67 536.545M58.5339 592.835C152.234 611.802 354.382 302.314 467.616 281.429C580.879 260.662 612.033 625.574 735.127 583.548C871.718 536.978 868.975 121.345 1171.9 79.6086C1364.65 53.0215 1504.54 472.166 1558.17 542.956M59.3425 596.286C154.463 615.422 358.58 303.088 471.475 279.144C584.397 255.318 614.579 627.865 738.154 587.357C875.464 542.251 871.009 116.098 1175.12 74.5865C1368.39 48.1258 1508.27 478.951 1558.96 549.045" stroke="url(#paint0_linear)" stroke-width="1.0031" stroke-miterlimit="10"/>
<defs><linearGradient id="paint0_linear" x1="860.181" y1="290.465" x2="120.681" y2="433.965" gradientUnits="userSpaceOnUse"><stop stop-color="#1B7ADC"/><stop offset="1" stop-color="#1B7ADC" stop-opacity="0"/></linearGradient></defs></svg>
