<svg width="220" height="80" viewBox="0 0 220 80" fill="none" xmlns="http://www.w3.org/2000/svg"><rect width="220" height="80" fill="red"/><g transform='translate(28,1)'><path fill-rule="evenodd" clip-rule="evenodd" d="M73.7175 77.6602V75.7351H68.8316V77.6602H68.2609V73.5303H68.8316V75.321H73.7175V73.5303H74.2815V77.6602H73.7175Z" fill="#201C26"/><path fill-rule="evenodd" clip-rule="evenodd" d="M76.2032 77.6602V73.5303H81.07V73.9421H76.765V75.321H80.9563V75.7295H76.765V77.2461H81.07V77.6602H76.2032Z" fill="#201C26"/><path fill-rule="evenodd" clip-rule="evenodd" d="M90.9463 75.8391V75.3246C90.9463 74.3429 90.46 73.8487 88.9188 73.8487H87.2414V73.4819H86.6695V73.8487H85.0124C83.4611 73.8487 82.9747 74.2605 82.9747 75.3246V75.8391C82.9747 76.8897 83.5241 77.253 85.0124 77.253H86.6695V77.6592H87.2414V77.253H88.9188C90.3981 77.253 90.9463 76.9089 90.9463 75.8391ZM90.3733 75.8391C90.3733 76.6347 89.9894 76.8445 88.9188 76.8445H87.2414V74.2616H88.9188C89.9354 74.2616 90.3733 74.5009 90.3733 75.302V75.8391ZM86.6695 76.8445H85.0124C83.9407 76.8445 83.532 76.6347 83.532 75.8335V75.284C83.532 74.4941 83.9801 74.2616 85.0124 74.2616H86.6695V76.8445Z" fill="#201C26"/><path fill-rule="evenodd" clip-rule="evenodd" d="M95.2942 73.9421V77.6602H95.8627V73.9421H98.5499V73.5303H92.6272V73.9421H95.2942Z" fill="#201C26"/><path fill-rule="evenodd" clip-rule="evenodd" d="M105.722 77.6605V73.5317H102.018C100.651 73.5317 100.087 73.8714 100.087 74.8102C100.087 75.5865 100.651 75.9488 101.729 75.9488L99.8591 77.6617H100.651L102.41 75.9488H105.149V77.6617H105.722V77.6605ZM105.149 75.5403H101.839C100.959 75.5403 100.652 75.4252 100.652 74.8102C100.652 74.1693 100.974 73.9425 101.783 73.9425H105.149V75.5403Z" fill="#201C26"/><path fill-rule="evenodd" clip-rule="evenodd" d="M113.247 77.6602V75.7351H108.364V77.6602H107.796V73.5303H108.364V75.321H113.247V73.5303H113.818V77.6602H113.247Z" fill="#201C26"/><path fill-rule="evenodd" clip-rule="evenodd" d="M121.896 77.6605L119.048 73.5317H118.173L115.327 77.6605H115.955L116.662 76.6247H120.528L121.229 77.6605H121.896ZM120.231 76.2026H116.971L118.597 73.8274L120.231 76.2026Z" fill="#201C26"/><path fill-rule="evenodd" clip-rule="evenodd" d="M128.391 77.6602V75.9473H125.653L123.884 77.6602H123.104L124.961 75.9473C123.884 75.9473 123.327 75.5851 123.327 74.8087C123.327 73.8699 123.884 73.5303 125.252 73.5303H128.964V77.6591H128.391V77.6602ZM128.391 73.9421H125.026C124.219 73.9421 123.884 74.1678 123.884 74.8099C123.884 75.426 124.195 75.5399 125.08 75.5399H128.391V73.9421Z" fill="#201C26"/><path fill-rule="evenodd" clip-rule="evenodd" d="M139.512 77.6602H140.511L136.535 75.4959L140.422 73.5303H139.414L135.944 75.3018H135.02V73.5303H134.45V77.6602H135.02V75.7171H135.967L139.512 77.6602Z" fill="#201C26"/><path fill-rule="evenodd" clip-rule="evenodd" d="M147.909 76.2442C147.909 77.0522 147.64 77.2474 146.485 77.2474H144.08C143.009 77.2474 142.609 77.0398 142.609 76.2442V74.9263C142.609 74.1229 143.047 73.9051 144.08 73.9051H146.485C147.582 73.9051 147.909 74.1093 147.909 74.9263V76.2442ZM148.473 76.2442V74.9522C148.473 73.7516 147.818 73.4819 146.485 73.4819H144.085C142.524 73.4819 142.039 73.9039 142.039 74.9522V76.2442C142.039 77.3049 142.592 77.6604 144.085 77.6604H146.485C147.947 77.6604 148.473 77.42 148.473 76.2442Z" fill="#201C26"/><path fill-rule="evenodd" clip-rule="evenodd" d="M157.121 73.5303H158.344V77.6602H157.774V73.8654H157.457L154.49 77.6602H154.198L151.235 73.8654H150.914V77.6602H150.348V73.5303H151.564L154.351 77.052L157.121 73.5303Z" fill="#201C26"/><path fill-rule="evenodd" clip-rule="evenodd" d="M160.959 77.6602V73.9421H165.83V77.6602H166.405V73.5303H160.382V77.6602H160.959Z" fill="#201C26"/><path fill-rule="evenodd" clip-rule="evenodd" d="M173.818 77.6605L173.119 76.6247H169.253L168.536 77.6605H167.908L170.76 73.5317H171.625L174.473 77.6605H173.818ZM171.192 73.8262L169.555 76.2015H172.821L171.192 73.8262Z" fill="#201C26"/><path fill-rule="evenodd" clip-rule="evenodd" d="M182.124 77.6602V73.5303H181.558V75.321H176.682V73.5303H176.104V77.6602H176.682V75.7351H181.558V77.6602H182.124Z" fill="#201C26"/><path fill-rule="evenodd" clip-rule="evenodd" d="M190.101 77.6602V73.5303H188.991L184.646 77.3386H184.596V73.5303H184.034V77.6602H184.959L189.315 73.8496H189.526V77.6602H190.101Z" fill="#201C26"/><path fill-rule="evenodd" clip-rule="evenodd" d="M196.978 75.5403H193.66C192.775 75.5403 192.478 75.4252 192.478 74.8102C192.478 74.1693 192.791 73.9425 193.598 73.9425H196.978V75.5403ZM197.537 77.6605V73.5317H193.837C192.478 73.5317 191.907 73.8714 191.907 74.8102C191.907 75.5865 192.478 75.9488 193.553 75.9488L191.676 77.6617H192.478L194.228 75.9488H196.978V77.6617H197.537V77.6605Z" fill="#201C26"/><path fill-rule="evenodd" clip-rule="evenodd" d="M68.2113 83.7784C68.2113 83.7784 80.5904 83.6114 81.5822 84.2772C82.5729 84.9339 83.5624 85.6041 83.7279 86.921C83.8923 88.2457 83.0682 92.3757 79.9307 92.5438C76.7976 92.7085 73.1715 92.3757 73.1715 92.3757L73.0094 95.6852L68.0582 95.5205L68.2113 83.7784Z" fill="#201C26"/><path fill-rule="evenodd" clip-rule="evenodd" d="M73.3314 87.0837L73.1715 89.072C73.1715 89.072 77.1275 89.8957 77.9516 89.072C78.7767 88.2471 78.1148 86.9224 76.7988 86.9224C75.4816 86.9224 73.3314 87.0837 73.3314 87.0837Z" fill="white"/><path fill-rule="evenodd" clip-rule="evenodd" d="M83.729 86.9224C85.0552 85.4363 87.363 83.1186 92.6339 83.447C97.9149 83.7799 100.726 85.9238 100.726 88.4187C100.726 90.891 100.882 94.1972 97.7483 95.1845C94.6175 96.182 91.4777 96.182 89.3354 95.8571C87.1896 95.5219 83.729 93.5337 83.2359 90.8921C82.7395 88.246 83.729 86.9224 83.729 86.9224Z" fill="#241C24"/><path fill-rule="evenodd" clip-rule="evenodd" d="M88.6813 90.0612C88.3796 87.9252 90.1606 86.5869 91.6455 86.5869C93.1281 86.5869 95.597 86.755 95.4337 89.5681C95.2727 92.3767 95.114 92.2108 93.6302 92.7096C92.1442 93.2049 89.1733 93.706 88.6813 90.0612Z" fill="white"/><path fill-rule="evenodd" clip-rule="evenodd" d="M118.367 88.4187C117.546 86.9224 115.737 84.106 112.926 83.9468C110.123 83.7798 106.326 83.447 104.513 84.1059C102.694 84.774 101.221 86.4214 100.887 87.9098C100.559 89.4026 100.219 92.71 102.37 94.1972C104.512 95.6855 107.985 96.8467 111.279 96.182C114.572 95.5219 117.709 94.1972 118.205 91.3852C116.559 91.3852 112.6 91.3852 112.6 91.3852C112.6 91.3852 111.108 93.3723 109.3 93.2053C109.3 93.2053 107.639 93.7063 106.489 92.0555C105.341 90.3934 105.502 88.9073 106.653 87.4167C107.818 85.9238 110.946 86.4203 111.278 87.0838C111.606 87.7473 112.101 88.7369 112.101 88.7369L118.367 88.4187Z" fill="#241C24"/><path fill-rule="evenodd" clip-rule="evenodd" d="M117.877 84.1055H122.994V88.0798H128.099V83.7783H133.384V95.6852H128.43V91.7166H123.159V95.6852H117.711L117.877 84.1055Z" fill="#241C24"/><path fill-rule="evenodd" clip-rule="evenodd" d="M135.038 83.7783L149.72 83.9464V86.922H140.814V88.0798H148.238V91.3848H140.479V92.88H150.047V96.0169H135.201L135.038 83.7783Z" fill="#241C24"/><path fill-rule="evenodd" clip-rule="evenodd" d="M157.306 83.7783H162.422C162.422 83.7783 162.095 84.6077 162.762 84.4441C163.411 84.2782 167.866 84.1044 169.191 85.7665C170.507 87.4163 171.006 89.567 169.681 91.0565C168.356 92.546 167.203 93.2049 166.387 93.2049C165.554 93.2049 162.762 93.3708 162.762 93.3708V96.0169H157.306V93.2049C157.306 93.2049 153.84 93.0391 152.686 92.7096C151.537 92.3767 149.386 91.0565 149.386 88.908C149.386 86.7562 150.542 84.9349 152.198 84.7736C153.84 84.6088 156.976 84.6088 156.976 84.6088L157.306 83.7783Z" fill="#241C24"/><path fill-rule="evenodd" clip-rule="evenodd" d="M157.306 87.4162L157.142 89.8953C157.142 89.8953 154.504 90.2282 154.504 89.242C154.504 88.2456 155.002 87.2526 157.306 87.4162Z" fill="white"/><path fill-rule="evenodd" clip-rule="evenodd" d="M162.761 87.5814L162.917 89.8969C162.917 89.8969 164.402 90.5615 165.233 89.4026C166.048 88.246 164.564 87.4167 162.761 87.5814Z" fill="white"/><path fill-rule="evenodd" clip-rule="evenodd" d="M173.143 87.4164V96.1818H178.42V87.4164H183.201L184.2 86.0973L182.716 84.2783H168.858C168.861 84.2783 168.195 86.9222 169.679 87.0835C171.162 87.2528 173.143 87.4164 173.143 87.4164Z" fill="#241C24"/><path fill-rule="evenodd" clip-rule="evenodd" d="M188.484 84.2783V87.5811C188.484 87.5811 194.759 87.2528 195.915 87.9095C197.069 88.573 198.223 89.5682 198.387 90.7192C198.551 91.8837 198.223 93.7061 197.069 94.6934C195.915 95.6853 194.599 96.3454 193.268 96.3454C191.952 96.3454 183.708 96.3454 183.708 96.3454V84.4442L188.484 84.2783Z" fill="#241C24"/><path fill-rule="evenodd" clip-rule="evenodd" d="M188.987 91.0568V93.0394C188.987 93.0394 191.458 93.0394 192.281 93.0394C193.102 93.0394 194.262 91.2215 192.774 90.892C191.292 90.5603 188.987 91.0568 188.987 91.0568Z" fill="white"/><path fill-rule="evenodd" clip-rule="evenodd" d="M0.573608 29.2095H8.99103V57.8199L0.573608 50.3748V29.2095Z" fill="#241C24"/><path fill-rule="evenodd" clip-rule="evenodd" d="M10.6426 19.7852H18.7256V67.0818L10.6426 59.2993V19.7852Z" fill="#241C24"/><path fill-rule="evenodd" clip-rule="evenodd" d="M20.3783 10.3608H28.628V55.1717H20.3783V10.3608Z" fill="#241C24"/><path fill-rule="evenodd" clip-rule="evenodd" d="M30.2716 0.935059H38.8511V45.9118H30.2716V0.935059Z" fill="#241C24"/><path fill-rule="evenodd" clip-rule="evenodd" d="M40.0061 9.85938H48.258V55.1712H40.0061V9.85938Z" fill="#241C24"/><path fill-rule="evenodd" clip-rule="evenodd" d="M50.2383 19.6113H58.3214V59.1356L50.2383 67.0818V19.6113Z" fill="#241C24"/><path fill-rule="evenodd" clip-rule="evenodd" d="M59.8018 29.0425H68.0582V49.7158L59.8018 57.8199V29.0425Z" fill="#241C24"/><path fill-rule="evenodd" clip-rule="evenodd" d="M20.3783 56.1714H28.628V97.6636H20.3783V56.1714Z" fill="#B3B31C"/><path fill-rule="evenodd" clip-rule="evenodd" d="M30.2716 47.2412H38.3524V97.6635H30.2716V47.2412Z" fill="#B3B31C"/><path fill-rule="evenodd" clip-rule="evenodd" d="M40.0061 56.3291H48.258V97.6633H40.0061V56.3291Z" fill="#B3B31C"/></g></svg>