<svg xmlns="http://www.w3.org/2000/svg" viewBox="0 0 300 360" width="38" height="45"><path d="M150,196.76c24.1,0,80.76-29,80.76-98.5,0-9.69-.24-19.05-1-27.9C228.41,53,224.84,37.52,216,25.69,204.58,9.6,184.65,0,150,0S95.43,9.59,84,25.68C75.16,37.51,71.59,52.94,70.28,70.36c-.8,8.85-1,18.21-1,27.9C69.24,167.76,125.9,196.76,150,196.76ZM176.36,35.85c-2.35,5.95-3.53,8.92-5.88,14.86-15.2-4.29-25.77-4.29-41,0-2.35-5.94-3.53-8.91-5.88-14.86C142.64,30.1,157.36,30.1,176.36,35.85ZM81.26,83.2c.93,2,4.88,9.85,11,10.59,7,.84,18.71-24.91,57.74-25s50.71,25.81,57.74,25c6.12-.74,10.07-8.56,11-10.59.19,5,.26,10,.26,15.06,0,34-15,55-27.58,66.69C175.57,179.66,158,185,150,185s-25.57-5.34-41.42-20.05C96,153.28,81,132.23,81,98.26,81,93.23,81.07,88.18,81.26,83.2Z"/><path d="M198.39,200.75c17.54,9.37,54.72,29.34,65.1,36.5,10.19,7,19,29,24.27,60.43-1.28,2.16-4.64,6.88-12,12.31a28,28,0,0,0-3.39-11.76,59.38,59.38,0,0,0-94.1-13.33c-1.14,1.15-2.24,2.34-3.28,3.57H125a59.37,59.37,0,0,0-97.45,9.9A27.81,27.81,0,0,0,24.21,310c-7.35-5.42-10.69-10.11-12-12.27,4.15-24.37,13.33-53.06,24.22-60.4,7.44-5,31.67-18.6,65.15-36.53A85,85,0,0,0,129.25,214l9.54,25.16L150,268.66l11.21-29.54L170.75,214a85,85,0,0,0,27.64-13.21m-96.21-13.14a5.65,5.65,0,0,0-2.67.67c-17.11,9.14-58.17,31.26-69.75,39.06-19.6,13.2-28.17,61-29.69,70.43a5.74,5.74,0,0,0,.25,2.79c.42,1.17,6.9,18,39.32,31.46a16.11,16.11,0,0,1,7.16-5.14,16,16,0,0,1-8.72-22.75,47.37,47.37,0,0,1,81-3.67h61.86a47.45,47.45,0,0,1,39.32-21h0A47.46,47.46,0,0,1,261.85,304a16,16,0,0,1-8.65,22.77,16.15,16.15,0,0,1,7.26,5.22c32.33-13.5,38.8-30.26,39.22-31.43a5.74,5.74,0,0,0,.25-2.79c-4.13-25.64-12.61-58.66-29.64-70.39-11.63-8-52.19-29.69-69.51-38.95l-.29-.15a5.66,5.66,0,0,0-6.17.54,73.67,73.67,0,0,1-29.54,14.27,5.65,5.65,0,0,0-4.06,3.51L150,234.86,139.28,206.6a5.65,5.65,0,0,0-4.06-3.51,73.67,73.67,0,0,1-29.54-14.27,5.68,5.68,0,0,0-3.5-1.21Z"/><path d="M247.88,339.83h0l-29.8,0c-.53-1.25-1.54-4.74-1.55-13.05s1-11.8,1.51-13.06l29.8,0a2,2,0,0,0,1.76-3,33.42,33.42,0,0,0-60.32,3.71H110.69a33.38,33.38,0,0,0-60.33-3.6,2,2,0,0,0,1.76,3h0l29.81-.05c.53,1.26,1.54,4.74,1.55,13.06s-1,11.8-1.52,13.05l-29.79.05a2,2,0,0,0-1.73,1,2,2,0,0,0,0,2A33.21,33.21,0,0,0,79.69,360s16.11-.47,23.66-9.59a33.27,33.27,0,0,0,7.38-11.22h78.58c6.37,20.24,31.05,20.81,31.05,20.81a33.23,33.23,0,0,0,29.28-17.19,2,2,0,0,0-1.76-3Z"/></svg>