<svg width="60" height="46" viewBox="0 0 60 46" fill="#F87023" xmlns="http://www.w3.org/2000/svg"><path d="M21.4863 37.782C21.0018 37.782 20.609 38.1746 20.609 38.6592V43.2792C20.609 43.7638 21.0018 44.1565 21.4863 44.1565C21.9707 44.1565 22.3635 43.7638 22.3635 43.2792V38.6592C22.3635 38.1746 21.9707 37.782 21.4863 37.782Z"/><path d="M38.4671 37.782C37.9826 37.782 37.5898 38.1746 37.5898 38.6592V43.2792C37.5898 43.7638 37.9826 44.1565 38.4671 44.1565C38.9516 44.1565 39.3444 43.7638 39.3444 43.2792V38.6592C39.3444 38.1746 38.9516 37.782 38.4671 37.782Z"/><path d="M55.5129 34.7193L52.5755 33.5409V32.7907C53.1522 32.4702 53.6699 32.0532 54.1056 31.561C55.9636 31.7803 57.7414 31.0386 58.8922 29.5464C60.0824 28.0034 60.33 26.0149 59.5547 24.227L58.2357 21.1856C58.1365 20.9571 58.0683 20.716 58.0328 20.4694C57.7485 18.4939 56.7612 16.686 55.2527 15.379C53.7441 14.0719 51.8142 13.3522 49.8183 13.3522C47.8223 13.3522 45.8924 14.0719 44.3838 15.379C42.8754 16.686 41.888 18.4937 41.6038 20.4694C41.5682 20.7161 41.5 20.9572 41.4008 21.1856L40.0819 24.227C39.3066 26.0147 39.5543 28.0033 40.7444 29.5464C41.7625 30.8664 43.2709 31.602 44.8915 31.6019C45.1005 31.6019 45.3116 31.5895 45.5238 31.5646C45.9192 32.0129 46.3828 32.399 46.8992 32.7064V33.5408L43.9619 34.7193C43.7705 34.7962 43.5836 34.8831 43.4013 34.9792C42.833 33.9339 42.0216 33.0198 41.0119 32.3254L37.186 29.6942C37.2081 29.211 37.0149 28.7243 36.6213 28.3903L35.0667 27.0712C34.9193 26.946 34.7537 26.8515 34.5787 26.7873V25.0113C36.222 23.8194 37.3872 22.0085 37.7288 19.923H37.8223C39.495 19.923 40.8558 18.5622 40.8558 16.8897C40.8558 16.1756 40.6071 15.5187 40.1927 14.9999L40.8197 10.5422C41.2717 7.32863 39.0281 4.32597 35.8182 3.84851L35.6934 3.83002C34.667 2.15482 33.0773 0.946196 31.1699 0.40534L30.9403 0.340189C28.4115 -0.37682 25.7065 0.0511628 23.519 1.51466C23.1163 1.78403 23.0082 2.32887 23.2776 2.73147C23.5469 3.13407 24.0917 3.24226 24.4945 2.97277C26.2538 1.79585 28.4287 1.45161 30.4617 2.02814L30.6913 2.09329C32.2873 2.54584 33.5975 3.60053 34.3805 5.06309C34.9191 6.06936 35.1569 7.17599 35.0882 8.28297L34.4936 7.77182C33.95 7.30465 33.1508 7.29225 32.5933 7.74258L31.8133 8.37268H27.3604C24.471 8.37268 22.1202 10.7235 22.1202 13.6129V13.8566C21.8875 13.8574 21.6613 13.8852 21.4438 13.9359C20.452 11.1439 20.7317 7.99815 22.2223 5.42499C22.4651 5.00566 22.3222 4.46902 21.903 4.22608C21.4838 3.98337 20.9471 4.12618 20.7042 4.54539C18.9015 7.65743 18.6092 11.4835 19.9052 14.8321C19.4047 15.3732 19.0981 16.0961 19.0981 16.8897C19.0981 18.5622 20.4589 19.923 22.1315 19.923H22.2251C22.5666 22.0085 23.7319 23.8194 25.3751 25.0113V26.7873C25.2002 26.8514 25.0345 26.946 24.8873 27.0711L23.3325 28.3903C22.9389 28.7243 22.7457 29.2111 22.7678 29.6942L18.9419 32.3254C18.1645 32.86 17.5043 33.5249 16.9822 34.2796C16.6438 34.0927 16.2911 33.9329 15.9259 33.8036L13.3283 32.8835V32.1921C14.6515 31.3746 15.6026 30.012 15.8676 28.4198H16.2601C17.7993 28.4198 19.0514 27.1677 19.0514 25.6286C19.0514 24.9376 18.7985 24.305 18.3811 23.817L18.5377 21.963C18.7554 19.2931 17.5904 16.7605 15.4212 15.1888C13.2521 13.6169 10.4826 13.2984 8.01322 14.3366L6.26468 15.0717C3.55724 15.6695 1.74763 18.2638 2.13421 21.0195L2.52535 23.808C2.10333 24.2972 1.84729 24.9334 1.84729 25.6286C1.84729 27.1677 3.09942 28.4198 4.6386 28.4198H5.03114C5.27888 29.9087 6.12701 31.1964 7.31797 32.0258V32.8835L4.72036 33.8035C4.35659 33.9324 3.9982 34.0938 3.65525 34.2835C3.23125 34.5179 3.07755 35.0516 3.31195 35.4756C3.47197 35.7651 3.77152 35.9285 4.08043 35.9285C4.22395 35.9285 4.36957 35.8932 4.50408 35.8188C4.76293 35.6756 5.03278 35.554 5.3059 35.4573L7.5505 34.6622C8.00503 35.7456 9.07645 36.5085 10.323 36.5085C11.5695 36.5085 12.6409 35.7456 13.0954 34.6622L15.3401 35.4574C15.6224 35.5573 15.8949 35.6816 16.1561 35.8276C15.8077 36.7109 15.6209 37.6628 15.6209 38.6396V43.8439C15.6209 44.3285 16.0137 44.7212 16.4981 44.7212C16.9826 44.7212 17.3754 44.3285 17.3754 43.8439V38.6396C17.3754 36.6937 18.3327 34.8737 19.9359 33.7711L23.5895 31.2584L25.087 33.2606C25.4089 33.6911 25.9137 33.9335 26.4343 33.9335C26.5964 33.9335 26.7601 33.91 26.9203 33.8613L29.0995 33.198V44.2112C29.0995 44.6958 29.4923 45.0885 29.9767 45.0885C30.4612 45.0885 30.854 44.6958 30.854 44.2112V33.198L33.0335 33.8614C33.1936 33.91 33.3571 33.9335 33.5192 33.9335C34.0397 33.9335 34.5446 33.6909 34.8665 33.2606L36.3639 31.2584L40.0175 33.7711C41.6208 34.8737 42.578 36.6937 42.578 38.6396V43.8439C42.578 44.3285 42.9708 44.7212 43.4552 44.7212C43.9397 44.7212 44.3325 44.3285 44.3325 43.8439V38.6396C44.3325 37.9487 44.2388 37.2701 44.061 36.6193C44.2388 36.5156 44.4237 36.4246 44.615 36.3479L47.1622 35.3258C47.6134 36.2971 48.5977 36.9726 49.7373 36.9726C50.8769 36.9726 51.8612 36.2972 52.3125 35.3259L54.8598 36.3479C56.4705 36.994 57.5112 38.5329 57.5112 40.2684V41.7533C57.5112 42.2379 57.904 42.6305 58.3885 42.6305C58.8729 42.6305 59.2657 42.2379 59.2657 41.7533V40.2684C59.2656 37.8121 57.7925 35.634 55.5129 34.7193ZM20.8522 16.8895C20.8522 16.1882 21.4199 15.6174 22.1198 15.6112V18.1676C21.42 18.1616 20.8522 17.5909 20.8522 16.8895ZM16.2599 26.6652H15.9431V24.5916H16.2599C16.8316 24.5916 17.2967 25.0568 17.2967 25.6284C17.2967 26.2 16.8316 26.6652 16.2599 26.6652ZM3.60157 25.6285C3.60157 25.0568 4.06663 24.5917 4.63836 24.5917H4.95511V26.6653H4.63836C4.06674 26.6652 3.60157 26.2001 3.60157 25.6285ZM6.02057 20.133C5.43865 20.9366 5.08682 21.8619 4.98611 22.8371H4.63836C4.47742 22.8371 4.31998 22.8516 4.1664 22.8778L3.87153 20.7755C3.60928 18.9064 4.85288 17.1479 6.7026 16.7721C6.75921 16.7606 6.81466 16.7436 6.86799 16.7211L8.69315 15.9537C10.5929 15.1549 12.7231 15.4002 14.3917 16.6092C16.0602 17.8184 16.9564 19.7663 16.7892 21.8175L16.7 22.8719C16.5566 22.8491 16.4097 22.837 16.2599 22.837H15.9354C15.8599 22.0932 15.23 21.5107 14.4665 21.5107H12.3003C10.7565 21.5107 9.22874 20.9968 7.99872 20.064L7.75051 19.8758C7.48991 19.6782 7.15468 19.5923 6.8315 19.6405C6.50797 19.6887 6.21239 19.8682 6.02057 20.133ZM7.4416 21.1621C7.44137 21.1625 7.44125 21.1627 7.44113 21.1629C7.44125 21.1627 7.44148 21.1625 7.4416 21.1621ZM6.70974 23.421C6.70974 22.7866 6.86261 22.1734 7.15538 21.6213C8.64941 22.6833 10.4658 23.2654 12.3004 23.2654H14.1886V27.5153C14.1886 29.5773 12.5111 31.2549 10.4492 31.2549C8.38728 31.2549 6.70974 29.5773 6.70974 27.5153V23.421ZM10.3229 34.7539C9.63322 34.7539 9.07224 34.1929 9.07224 33.5033V32.8345C9.51239 32.9486 9.97383 33.0094 10.4492 33.0094C10.8345 33.0094 11.2104 32.9691 11.5736 32.8932V33.5033C11.5736 34.1929 11.0125 34.7539 10.3229 34.7539ZM37.8333 18.1676V15.6112C38.5333 15.6173 39.1009 16.1882 39.1009 16.8895C39.1009 17.5909 38.5333 18.1616 37.8333 18.1676ZM39.0819 10.2975L38.5682 13.9492C38.3329 13.8894 38.0867 13.8573 37.8332 13.8563V13.7853C37.8332 12.371 37.3957 11.0105 36.6035 9.87372C36.9489 8.54334 36.9368 7.17365 36.5792 5.8718C38.2737 6.59501 39.3498 8.39362 39.0819 10.2975ZM23.8745 18.6491V13.6127C23.8745 11.6906 25.4382 10.127 27.3602 10.127H32.1231C32.3237 10.127 32.5182 10.0582 32.6742 9.93221L33.5203 9.24877L34.3062 9.92425C35.4327 10.8925 36.0787 12.3 36.0787 13.7853V18.649C36.0787 22.0138 33.3413 24.7511 29.9765 24.7511C26.6117 24.7511 23.8745 22.0138 23.8745 18.6491ZM29.9766 26.5058C30.9808 26.5058 31.9404 26.3144 32.824 25.9696V27.0936L29.9766 28.4898L27.1293 27.0936V25.9696C28.0128 26.3143 28.9725 26.5058 29.9766 26.5058ZM26.4601 32.1671L24.5704 29.6405L25.9503 28.4695L29.0993 30.0135V31.3639L26.4601 32.1671ZM33.493 32.1671L30.8539 31.364V30.0136L34.0029 28.4696L35.3827 29.6406L33.493 32.1671ZM42.1335 28.4749C41.3393 27.4451 41.174 26.1183 41.6915 24.9252L43.0104 21.8838C43.1716 21.5123 43.2826 21.1206 43.3403 20.7194C43.8008 17.5198 46.5856 15.1068 49.8183 15.1068C53.0509 15.1068 55.8358 17.5198 56.2961 20.7194C56.3538 21.1205 56.4648 21.5122 56.626 21.8838L57.9449 24.9252C58.4623 26.1181 58.2971 27.4451 57.5029 28.4749C56.9148 29.2373 56.0814 29.7067 55.1667 29.8193C55.3556 29.3285 55.4788 28.8053 55.524 28.26C55.564 27.7772 55.205 27.3533 54.7222 27.3133C54.2399 27.2741 53.8156 27.6324 53.7755 28.1151C53.6065 30.1558 51.8682 31.7544 49.8183 31.7544C47.6278 31.7544 45.8459 29.9726 45.8459 27.7821V23.5737C45.8459 22.6406 46.1206 21.7229 46.6265 20.9439C47.7616 21.8103 49.1609 22.3059 50.5902 22.3437L53.7906 22.4282V24.4489C53.7906 24.9335 54.1834 25.3261 54.6678 25.3261C55.1523 25.3261 55.5451 24.9335 55.5451 24.4489V22.1906C55.5451 21.3655 54.899 20.7022 54.0742 20.6806L50.6364 20.59C49.5233 20.5606 48.4347 20.1574 47.5711 19.455L47.3444 19.2705C47.077 19.0531 46.7412 18.9534 46.3984 18.9903C46.0558 19.0269 45.7485 19.1953 45.5334 19.4642C44.6034 20.6262 44.0911 22.0857 44.0911 23.5741V27.7825C44.0911 28.4991 44.2245 29.1849 44.4661 29.8177C43.553 29.7042 42.7208 29.2364 42.1335 28.4749ZM49.7372 35.218C49.1396 35.218 48.6534 34.7318 48.6534 34.1341V33.3896C49.0297 33.4677 49.4192 33.5091 49.8181 33.5091C50.1595 33.5091 50.4943 33.477 50.8209 33.4181V34.1343C50.821 34.7318 50.3348 35.218 49.7372 35.218Z"/><path d="M1.88025 36.989C1.4442 36.7774 0.919597 36.9601 0.708354 37.3961C0.238379 38.3671 0 39.4055 0 40.4827V43.2791C0 43.7637 0.392776 44.1564 0.877255 44.1564C1.36173 44.1564 1.75451 43.7637 1.75451 43.2791V40.4827C1.75451 39.6726 1.93382 38.8915 2.28765 38.1608C2.49877 37.7247 2.31642 37.2 1.88025 36.989Z"/></svg>
