<svg width="15" height="15" viewBox="0 0 15 15" fill="#1567BA" xmlns="http://www.w3.org/2000/svg"><path d="M14.0156 1.37891L11.4453 0.804688C10.8438 0.667969 10.2422 0.96875 10.0234 1.51562L8.82031 4.30469C8.60156 4.79688 8.73828 5.39844 9.17578 5.75391L10.2695 6.65625C9.50391 8.07812 8.30078 9.25391 6.87891 10.0469L5.97656 8.95312C5.62109 8.51562 5.01953 8.37891 4.52734 8.59766L1.73828 9.77344C1.19141 10.0195 0.890625 10.6211 1.02734 11.2227L1.60156 13.793C1.73828 14.3672 2.25781 14.75 2.83203 14.75C9.53125 14.75 15 9.33594 15 2.60938C15 2.03516 14.5898 1.51562 14.0156 1.37891ZM2.88672 13.4375L2.3125 10.9766L4.99219 9.82812L6.52344 11.6875C9.23047 10.4023 10.625 9.00781 11.9102 6.30078L10.0508 4.76953L11.1992 2.08984L13.6875 2.66406C13.6602 8.59766 8.82031 13.4102 2.88672 13.4375Z"/></svg>
