<svg width="72" height="42" viewBox="0 0 72 42" fill="white" xmlns="http://www.w3.org/2000/svg"><path fill-rule="evenodd" clip-rule="evenodd" d="M2.13776 29.6796C5.32389 29.9133 6.66016 28.6331 7.57574 26.0917L10.9955 13.0292C11.1263 12.5433 11.2852 12.3379 12.0606 12.2444L14.4714 12.0762L10.603 26.9886C9.8088 29.0536 8.00556 30.8943 6.28633 31.2493C4.6793 31.4269 2.84781 30.8756 2.13776 29.6796Z"/><path fill-rule="evenodd" clip-rule="evenodd" d="M6.11803 26.5674C4.09974 25.633 3.9877 24.4745 4.09974 22.587C3.65125 16.1772 12.7334 2.47932 17.7228 2.51675C21.7905 2.79848 18.8201 13.2168 13.1257 21.2415L14.5272 23.54C14.9571 24.0913 15.1065 25.0069 14.4712 25.7825L12.8454 27.2962C13.7517 28.679 16.0876 29.0527 16.8257 28.9219C18.6478 28.5295 18.928 27.1 18.844 26.3992C18.788 25.3434 18.4796 24.3715 18.0031 23.2877L19.685 21.3536L19.741 25.7825C20.5259 29.5761 23.3291 27.1747 25.2912 24.6893C27.3842 29.0622 29.6454 23.9886 30.9814 23.5401C33.719 28.2679 34.9431 23.1288 36.8399 22.4748L36.3634 24.5771L38.69 24.3249C39.6337 23.9979 39.6804 23.2784 39.7551 22.7552L40.2036 20.7369C40.3158 20.1669 40.7641 20.0455 41.2127 20.793C42.2779 22.7366 44.1841 25.6891 45.4174 25.6143C46.8003 25.3714 47.4543 21.5966 48.4727 20.1764C50.9487 24.4745 52.2757 19.4102 54.1351 18.971C56.3495 23.8672 58.1715 17.4947 60.4419 17.1491C62.1145 21.1575 63.3944 19.027 64.0299 18.8308L64.2335 18.8987C52.4503 31.13 42.1709 26.6349 37.8212 27.5361C36.4944 27.4239 35.6161 28.3209 35.3545 29.0497L34.4575 30.9558L13.7706 31.6846C2.50224 32.32 0.37185 38.3372 0.483999 42C3.34311 35.665 22.7965 36.562 30.7574 36.6181C32.6635 36.7489 32.8878 35.1418 33.4484 34.3196C33.8967 33.2171 34.6818 31.666 35.2985 31.5165C55.8637 32.5431 61.8488 23.3814 65.5224 17.8597L66.691 16.1553C66.8048 15.9996 66.9174 15.8498 67.0294 15.707C66.9644 15.7883 66.8997 15.8656 66.8348 15.9458L67.3936 15.1309L67.5618 14.7945L65.2632 16.1961C64.7773 16.327 64.2355 15.9251 64.142 14.9066C63.8775 12.5105 67.8436 9.02566 69.8527 6.25605C72.216 2.99819 70.9309 -0.303473 69.58 0.0222851C64.2173 1.73326 62.0902 8.84589 60.6101 15.9158C60.1991 16.3082 59.3954 17.6818 58.0313 17.2613C58.3303 14.6451 59.0778 11.7485 60.1055 9.07617C58.9843 8.94524 57.9471 9.17896 56.9101 9.69285L56.1251 11.2345C55.5645 9.38443 51.416 8.79582 49.0053 15.5233L47.0993 20.625C46.959 21.1576 46.3424 21.8303 45.4174 21.8023C44.2588 21.6527 43.0442 20.8585 42.4462 19.3356C46.6134 18.9432 49.8556 13.1967 48.3326 11.2625C46.7909 9.44058 44.6325 12.8043 42.7824 12.9444L44.3942 5.89463C43.2916 5.97875 41.9509 6.02068 41.3809 6.88968L37.5686 20.5689C37.1575 21.1575 34.3077 24.0727 35.3262 20.5689L37.1762 13.505L34.4292 14.0096C33.7004 14.2712 33.5322 14.7571 33.42 15.299L31.7943 21.7461C31.2057 22.4843 30.3367 23.0543 29.2714 23.0356L31.2897 14.8506C30.2619 14.8226 29.1781 15.0468 28.1223 15.5233L27.4215 17.1212C26.7674 16.5232 25.5807 14.972 23.5531 16.5325L17.4424 22.5311C16.5548 22.3067 15.8073 21.8023 15.4523 20.8492C28.1316 8.35664 22.5908 0.713677 19.3485 1.05937C8.48468 2.57635 0.248901 15.4164 0.00710237 21.634C-0.198421 26.4741 4.10899 27.0254 6.11798 26.5675L6.11803 26.5674ZM23.8619 24.3963C22.3483 22.8452 24.5347 18.3229 26.0483 18.2295C27.9545 18.323 24.9831 25.3119 23.8619 24.3963ZM14.1632 27.3119L15.3404 26.1066C15.4619 26.6392 15.4993 27.0597 15.2564 27.5361C14.6677 27.6015 14.3874 27.5549 14.1632 27.3119ZM41.5773 18.2857C41.2505 16.3329 42.3249 14.4362 44.0441 14.2493C45.997 15.0341 42.764 18.7062 41.5773 18.2857ZM54.9481 12.0629C54.4682 12.0629 52.958 13.0393 52.4534 15.2584C51.9489 17.4775 52.0015 18.4539 52.4814 18.4539C52.9613 18.4539 53.967 18.2064 54.8641 15.819C55.7611 13.4316 55.428 12.0629 54.9481 12.0629V12.0629ZM65.9082 9.70825C66.623 6.99856 68.1969 4.23305 70.225 1.7475C71.6452 2.55104 68.1881 7.67129 65.9082 9.70825Z"/><path fill-rule="evenodd" clip-rule="evenodd" d="M36.7985 6.89062C37.7042 6.89062 38.4383 7.76289 38.4383 8.83886C38.4383 9.91477 37.7042 10.787 36.7985 10.787C35.8928 10.787 35.1587 9.91477 35.1587 8.83886C35.1587 7.76289 35.8928 6.89062 36.7985 6.89062Z"/></svg>