<svg width="74" height="28" viewBox="0 0 74 28" fill="white" xmlns="http://www.w3.org/2000/svg"><path fill-rule="evenodd" clip-rule="evenodd" d="M26.966 9.71417C27.326 9.80196 27.7163 9.86049 28.138 9.90926C28.4465 9.16828 28.755 8.43669 29.0529 7.69572C30.0911 5.131 31.0986 2.5858 32.1677 0.00195312C30.934 0.00195312 29.906 0.0799909 29.0529 0.216555C28.21 0.35312 27.5312 0.548212 26.966 0.811211C25.3004 1.5912 24.6221 2.91746 23.8203 4.79972C23.4398 7.50062 24.3551 9.08987 26.966 9.71417ZM24.3242 17.2616C24.982 15.4671 25.5271 13.9169 26.1746 12.1224C26.4316 12.1029 26.699 12.1127 26.966 12.1029C27.0483 12.1029 27.1408 12.0932 27.2334 12.0834C27.3979 11.6643 27.8192 10.7572 27.994 10.3381H21.9079C21.6714 10.7575 21.4867 11.5083 21.2501 11.9273C21.6306 11.9273 22.237 11.9472 22.6175 11.9472C22.0724 13.517 21.4764 15.0481 20.921 16.6084C20.8491 16.8227 20.7668 17.0376 20.6948 17.2616H24.3242ZM14.2491 9.97754C15.1435 9.99705 16.0378 10.0361 16.9119 9.99705C18.3924 9.93852 19.7799 9.63613 20.9214 8.59276C21.6718 7.92007 22.309 6.92548 22.7923 5.48217C22.9668 2.61506 22.1753 1.22091 20.9214 0.557592C20.1197 0.138144 19.1119 0.0210872 18.0534 0.00195312C17.6729 0.986794 17.2924 1.98139 16.9123 2.97598C16.0291 5.31138 15.1414 7.64524 14.2491 9.97754Z"/><path fill-rule="evenodd" clip-rule="evenodd" d="M20.9215 14.5116C20.9626 14.4047 21.0037 14.2872 21.0449 14.1803C21.2403 13.1565 21.1683 12.3858 20.9215 11.8006C20.5307 10.8938 19.6874 10.4743 18.7009 10.3381C18.074 11.8204 17.5084 13.4393 16.9123 15.0188C16.6366 15.7719 16.3453 16.5198 16.0386 17.262C16.3471 17.262 16.6347 17.2523 16.9123 17.2328C18.9576 17.0763 20.2016 16.3451 20.9215 14.5116ZM35.8897 9.87027C36.7738 9.87027 37.5961 9.88978 38.367 9.87965C41.0807 9.83088 43.0655 9.35328 44.2067 5.87201C45.3687 1.93265 43.1992 0.00160845 40.0436 0.00160845C39.4982 1.34737 38.9326 2.67325 38.3674 3.9995C37.5241 5.95004 36.6812 7.89084 35.8897 9.87027ZM26.966 14.6969C26.6164 15.555 26.2774 16.4036 25.9278 17.2616H32.2089C34.3064 12.2692 36.3007 7.37384 38.367 2.41025C38.6961 1.61074 39.035 0.810866 39.3752 0.00160845H38.367C36.5475 -0.00814616 34.7178 0.0308723 32.8876 0.00160845C31.6025 3.20975 30.3277 6.35936 29.0529 9.52886C28.3511 11.2493 27.6555 12.972 26.966 14.6969ZM16.9119 0.85026C17.0353 0.567376 17.1587 0.284867 17.2719 0.00198342H11.2063C8.80067 5.8041 6.44644 11.4599 4.05108 17.262H10.2297C12.5836 11.7717 14.5988 6.3301 16.9119 0.85026ZM17.7959 10.3381C17.5019 10.3152 17.207 10.3021 16.9119 10.2991C15.4931 10.3085 14.0439 10.7283 13.0052 13.0098C12.1212 15.9057 13.3137 17.0272 15.1023 17.2616C15.7293 15.7891 16.3155 14.1312 16.9119 12.5517C17.1917 11.8085 17.4864 11.0705 17.7959 10.3381ZM40.4024 10.3381C39.7858 11.8302 39.056 13.5466 38.367 15.1749C38.0568 15.8934 37.7553 16.6151 37.4624 17.3401C37.7507 17.301 38.0486 17.2913 38.367 17.2815C39.6216 17.2523 41.061 17.1941 42.5616 14.7461C43.0754 11.7229 42.1507 10.4162 40.4024 10.3381ZM63.2256 11.5184H64.4383C63.7398 13.3223 63.2363 15.3017 62.5473 17.1153L62.4856 17.262H66.2174C66.9674 15.4387 67.2557 13.4296 68.0167 11.6062C68.3249 11.6062 69.0649 11.5965 69.3734 11.5965C69.61 11.2063 69.7025 10.7287 69.939 10.3385H63.7192C63.6164 10.7283 63.3281 11.1282 63.2256 11.5184ZM62.5991 10.3381H62.5473C61.4263 10.3674 60.2543 10.2991 59.1441 10.3381C58.6912 11.4404 58.3522 12.6687 57.9104 13.7804H56.7175C56.6455 14.1706 56.2246 14.9213 56.1629 15.3115L56.9338 15.3212H57.3139C57.2111 15.6818 57.0675 16.072 56.9338 16.4524C56.831 16.7255 56.7384 16.9983 56.6664 17.2616H60.4905C61.1898 15.0383 61.8377 12.737 62.5469 10.5137C62.5572 10.4552 62.5781 10.3966 62.5991 10.3381ZM62.5473 0.352775H49.3166C48.7411 1.71804 48.1347 3.08331 47.5481 4.44821C46.8488 6.05734 46.1606 7.64697 45.5535 9.19721H70.3089C71.4397 6.30121 72.8581 3.24914 74 0.352775H62.5473ZM57.7051 10.3381H53.7367C53.0584 12.2298 52.3385 14.336 51.6503 16.2963C51.5367 16.628 51.424 16.9401 51.3113 17.2616H55.125C55.6697 15.7696 56.3279 14.0535 56.9342 12.4151C57.2012 11.6936 57.4686 10.9917 57.7051 10.3381ZM26.966 18.7245H3.53688L0 27.4031H25.8763L26.966 24.8774L29.0533 20.0019L29.5979 18.7245H26.966ZM51.6499 14.0437C52.102 12.8248 52.102 11.8887 51.6499 11.2547C51.2591 10.7182 50.5289 10.3966 49.4598 10.2893C48.925 11.7424 48.2059 13.2735 47.5478 14.775C47.192 15.5689 46.8595 16.3721 46.5506 17.1836C46.8797 17.2226 47.2187 17.2418 47.5478 17.2519C49.1825 17.2616 50.7864 16.706 51.6289 14.0925C51.64 14.0828 51.64 14.0633 51.6499 14.0437ZM39.2617 10.3381C38.9741 10.3381 38.6652 10.3479 38.367 10.3479C37.4624 10.3381 36.5376 10.3089 35.6738 10.3381C33.988 14.4047 32.3018 18.9289 30.6263 23.0052C31.7572 23.0638 32.9908 22.9857 34.1217 23.0442C35.5401 19.6118 36.9589 16.0329 38.367 12.5419C38.6652 11.8009 38.9634 11.0697 39.2617 10.3381ZM48.535 10.3869C48.2077 10.3468 47.8777 10.3305 47.5478 10.3381C45.3893 10.3771 43.7957 11.401 43.3737 13.4101C42.8389 15.809 43.8266 17.6128 45.8003 17.262C46.3659 15.8285 46.9624 14.3465 47.5478 12.8739C47.8768 12.035 48.2158 11.1965 48.535 10.3869Z"/></svg>