<svg width="100" height="100" viewBox="0 0 100 100" fill="none" xmlns="http://www.w3.org/2000/svg"><path d="M50.1,0.9C22.8,0.9,0.5,23.1,0.5,50.5c0,27.3,22.2,49.6,49.6,49.6s49.6-22.2,49.6-49.6C99.7,23.1,77.4,0.9,50.1,0.9z M96.1,49.3h-9.2c-0.4-9.1-4.1-18.1-11.1-25c-6.5-6.5-14.8-10.2-23.4-11V4.5C76.3,5.7,95.4,25.2,96.1,49.3z M73.7,52.9C73.4,57,72,61,69.8,64.5l-0.2,0.3l-0.4-0.1c-2.6-0.7-5.5-1.2-8.5-1.7L60.2,63l0.1-0.6c0.6-3,1-6.2,1.1-9.6v-0.5h12.3L73.7,52.9L73.7,52.9z M48.9,75.7L48.9,75.7c-3,0-6.1-3.9-8.1-10.1L40.7,65l0.7-0.1c5-0.4,10.3-0.4,15.2,0l0.7,0.1L57,65.7C55,71.9,52,75.7,48.9,75.7z M30.3,67.5l-0.6-0.7l0.9-0.2c2.3-0.5,4.7-0.9,7.2-1.3l0.4-0.1l0.1,0.4c0.4,1.5,0.9,2.9,1.5,4.1c0.7,1.6,1.5,3,2.3,4.2l0.9,1.3l-1.5-0.5v0C37.2,73.5,33.3,70.9,30.3,67.5z M28.2,64.7L28,64.4c-2.2-3.4-3.5-7.4-3.8-11.5l0-0.6h12.3v0.5c0.1,3.3,0.5,6.5,1.1,9.5l0.1,0.6L37.1,63c-3,0.4-5.9,0.9-8.6,1.6L28.2,64.7z M24.2,49.4c0.3-4.1,1.6-8,3.8-11.5l0.2-0.3l0.4,0.1c2.7,0.7,5.5,1.2,8.6,1.6l0.6,0.1l-0.1,0.6c-0.6,3-1,6.2-1.1,9.5V50H24.2L24.2,49.4L24.2,49.4z M48.9,26.6L48.9,26.6c3,0,6.1,3.9,8,10l0.2,0.6l-0.7,0.1c-2.6,0.2-5.2,0.3-7.9,0.3c-2.5,0-4.9-0.1-7.3-0.3l-0.7-0.1l0.2-0.6C42.8,30.4,45.9,26.6,48.9,26.6z M67.5,34.7l0.6,0.7l-0.9,0.2c-2.3,0.5-4.7,1-7.2,1.3l-0.4,0.1l-0.1-0.4c-0.4-1.4-0.9-2.8-1.5-4.1c-0.7-1.6-1.5-3-2.3-4.2L54.7,27l1.5,0.5v0C60.6,28.8,64.5,31.3,67.5,34.7z M38.9,50L38.9,50l0-0.5c0.1-3.3,0.5-6.4,1.1-9.3l0.1-0.5l0.5,0c5.5,0.5,11.3,0.5,16.8-0.1l0.5,0l0.1,0.5c0.6,2.9,1,6.1,1.1,9.4V50H38.9z M59,52.4v0.5c-0.1,3.3-0.5,6.5-1.1,9.4l-0.1,0.5l-0.5,0c-5.4-0.5-11.3-0.5-16.8-0.1l-0.5,0L40,62.2c-0.6-2.9-1-6-1.1-9.3l0-0.5H59L59,52.4zM42.2,28.3c-0.9,1.2-1.6,2.6-2.3,4.2c-0.6,1.2-1.1,2.6-1.5,4.1L38.3,37L37.8,37c-2.5-0.3-5-0.7-7.2-1.3l-0.9-0.2l0.6-0.7c3-3.5,7-6,11.3-7.4l1.5-0.5L42.2,28.3z M55.7,74c0.9-1.2,1.6-2.6,2.3-4.2c0.6-1.3,1.1-2.6,1.5-4.1l0.1-0.4l0.4,0.1c2.5,0.3,4.9,0.8,7.2,1.3l0.9,0.2l-0.6,0.7c-3,3.4-6.9,5.9-11.2,7.3l-1.5,0.5L55.7,74z M61.4,50L61.4,50l0-0.5c-0.1-3.3-0.5-6.6-1.1-9.6l-0.1-0.6l0.6-0.1c3-0.4,5.8-1,8.5-1.7l0.4-0.1l0.2,0.3c2.2,3.5,3.6,7.5,3.8,11.6l0,0.6H61.4z M48.1,4.5v8.6C38.7,13.3,29.2,17,22,24.3c-6.9,6.9-10.6,15.9-11.1,25H4.1C4.8,25.1,24.1,5.5,48.1,4.5z M4.2,53.5H11c0.6,8.9,4.2,17.7,11,24.5c7.2,7.2,16.6,10.9,26.1,11.1v7.3C24.7,95.4,5.8,76.8,4.2,53.5z M52.4,96.4V89c8.5-0.8,16.8-4.4,23.4-11c6.8-6.8,10.5-15.6,11-24.5H96C94.4,76.7,75.7,95.2,52.4,96.4z"/></svg>