<svg width="100" height="100" viewBox="0 0 100 100" fill="none" xmlns="http://www.w3.org/2000/svg"><path d="M99.1109 50.065C99.1109 77.3877 76.878 99.6206 49.5554 99.6206C22.2327 99.6206 -0.00012207 77.3877 -0.00012207 50.065C-0.00012207 22.7424 22.2327 0.509521 49.5554 0.509521C76.878 0.509521 99.1109 22.7424 99.1109 50.065ZM3.57003 50.065C3.57003 75.4205 24.1999 96.0504 49.5554 96.0504C74.9108 96.0504 95.5407 75.4205 95.5407 50.065C95.5407 24.7096 74.9108 4.07968 49.5554 4.07968C24.1999 4.07968 3.57003 24.7096 3.57003 50.065Z"/><path d="M40.0118 41.3114C40.0118 43.1329 41.2505 44.715 43.02 45.1522L46.3819 45.9953V37.3457H43.9879C41.8021 37.3457 40.0223 39.1256 40.0223 41.3114H40.0118Z"/><path d="M52.7292 62.7843H55.1233C57.3091 62.7843 59.089 61.0045 59.089 58.8187C59.089 56.9971 57.8503 55.415 56.0808 54.9779L52.7189 54.1348V62.7843H52.7292Z"/><path d="M49.5562 9.74194C27.3234 9.74194 9.22278 27.8322 9.22278 50.0754C9.22278 72.3187 27.313 90.4089 49.5562 90.4089C71.7995 90.4089 89.8897 72.3187 89.8897 50.0754C89.8897 27.8322 71.7995 9.74194 49.5562 9.74194ZM65.4607 43.7053H59.1009V40.5203C59.1009 38.7716 57.675 37.3352 55.9159 37.3352H52.7309V47.5774L57.6334 48.8056C62.234 49.9609 65.4502 54.0723 65.4502 58.8187C65.4502 64.5122 60.8184 69.144 55.1249 69.144H52.7309V77.2003H46.3712V69.144H43.1862C37.9194 69.144 33.6415 64.8661 33.6415 59.5993V56.4143H40.0011V59.5993C40.0011 61.348 41.4271 62.7844 43.1862 62.7844H46.3712V52.5422L41.4687 51.314C36.8681 50.1587 33.6519 46.0473 33.6519 41.3009C33.6519 35.6074 38.2837 30.9756 43.9772 30.9756H46.3712V22.9193H52.7309V30.9756H55.9159C61.1827 30.9756 65.4607 35.2535 65.4607 40.5203V43.7053Z"/></svg>