<svg width="100" height="100" viewBox="0 0 100 100" fill="none" xmlns="http://www.w3.org/2000/svg"><path d="M50.2,0.5C22.8,0.5,0.6,22.8,0.6,50.1s22.2,49.6,49.6,49.6s49.6-22.2,49.6-49.6C99.7,22.8,77.5,0.5,50.2,0.5zM96.1,48.9h-8c-0.3-9.3-4-18.6-11.1-25.7c-6.8-6.8-15.6-10.5-24.5-11.1v-8C76.4,5.4,95.5,24.9,96.1,48.9z M74.9,51.9c-0.3,4.1-1.6,8.1-3.8,11.6l-0.2,0.3l-0.4-0.1C67.9,63,65,62.5,62,62l-0.6-0.1l0.1-0.6c0.6-3,1-6.2,1.1-9.6v-0.5h12.3V51.9L74.9,51.9z M50.2,74.7L50.2,74.7c-3,0-6.1-3.9-8.1-10.1L41.9,64l0.7-0.1c5-0.4,10.3-0.4,15.2,0l0.7,0.1l-0.2,0.6C56.3,70.8,53.2,74.7,50.2,74.7z M31.5,66.4l-0.6-0.7l0.9-0.2c2.3-0.5,4.7-0.9,7.2-1.3l0.4-0.1l0.1,0.4c0.4,1.5,0.9,2.9,1.5,4.1c0.7,1.6,1.5,3,2.3,4.2l0.9,1.3l-1.5-0.5l0,0C38.5,72.4,34.6,69.9,31.5,66.4z M29.4,63.7l-0.2-0.3C27,60,25.7,56,25.4,51.9v-0.6h12.3v0.5c0.1,3.3,0.5,6.5,1.1,9.5l0.1,0.6L38.3,62c-3,0.4-5.9,0.9-8.6,1.6L29.4,63.7z M25.5,48.3c0.3-4.1,1.6-8,3.8-11.5l0.2-0.3l0.4,0.1c2.7,0.7,5.5,1.2,8.6,1.6l0.6,0.1L39,38.9c-0.6,3-1,6.2-1.1,9.5v0.5H25.4L25.5,48.3L25.5,48.3z M50.2,25.5L50.2,25.5c3,0,6.1,3.9,8,10l0.2,0.6l-0.7,0.1c-2.6,0.2-5.2,0.3-7.9,0.3c-2.5,0-4.9-0.1-7.3-0.3l-0.7-0.1l0.3-0.5C44.1,29.4,47.1,25.5,50.2,25.5z M68.7,33.7l0.6,0.7l-0.9,0.2c-2.3,0.5-4.7,1-7.2,1.3L60.8,36l-0.1-0.4c-0.4-1.4-0.9-2.8-1.5-4.1c-0.7-1.6-1.5-3-2.3-4.2L56,26l1.5,0.5l0,0C61.8,27.8,65.7,30.3,68.7,33.7z M40.1,48.9L40.1,48.9v-0.5c0.1-3.3,0.5-6.4,1.1-9.3l0.1-0.5h0.5c5.5,0.5,11.3,0.5,16.8-0.1h0.5l0.1,0.5c0.6,2.9,1,6.1,1.1,9.4v0.5C60.3,48.9,40.1,48.9,40.1,48.9z M60.2,51.3v0.5c-0.1,3.3-0.5,6.5-1.1,9.4L59,61.7h-0.5c-5.4-0.6-11.2-0.6-16.7-0.1h-0.5l-0.1-0.5c-0.6-2.9-1-6-1.1-9.3v-0.5H60.2L60.2,51.3zM43.4,27.2c-0.9,1.2-1.6,2.6-2.3,4.2c-0.6,1.2-1.1,2.6-1.5,4.1l-0.1,0.4h-0.4c-2.5-0.3-5-0.7-7.2-1.3L31,34.4l0.6-0.7c3-3.5,7-6,11.3-7.4l1.5-0.5L43.4,27.2z M56.9,73c0.9-1.2,1.6-2.6,2.3-4.2c0.6-1.3,1.1-2.6,1.5-4.1l0.1-0.4l0.4,0.1c2.5,0.3,4.9,0.8,7.2,1.3l0.9,0.2l-0.6,0.7c-3,3.4-6.9,5.9-11.2,7.3L56,74.4L56.9,73z M62.7,48.9L62.7,48.9v-0.5c-0.1-3.3-0.5-6.6-1.1-9.6l-0.1-0.6l0.6-0.1c3-0.4,5.8-1,8.5-1.7l0.4-0.1l0.2,0.3c2.2,3.5,3.6,7.5,3.8,11.6v0.6H62.7V48.9zM48.2,4.1v8c-9.1,0.5-18,4.1-25,11.1c-7,7.1-10.7,16.4-11,25.7h-8C4.8,24.7,24.2,5.1,48.2,4.1z M4.3,53.2h8c0.7,8.7,4.4,17.2,11,23.8c6.9,6.9,15.9,10.6,25,11.1v8C24.8,95.1,5.8,76.4,4.3,53.2z M52.5,96v-8c8.9-0.6,17.7-4.2,24.5-11c6.6-6.6,10.3-15.1,11-23.8h8C94.5,76.3,75.8,94.8,52.5,96z"/></svg>