<svg width="50" height="50" viewBox="0 0 50 50" fill="none" xmlns="http://www.w3.org/2000/svg"><path d="M49.6,18.8c0,0,0-0.1,0-0.1c-0.1-0.2-0.1-0.4-0.2-0.6c-0.1-0.2-0.1-0.4-0.2-0.6c-0.2-0.6-0.4-1.3-0.7-1.9c-0.1-0.2-0.1-0.3-0.2-0.5c-0.2-0.5-0.4-1-0.7-1.4c-0.1-0.2-0.3-0.5-0.4-0.7c-0.3-0.5-0.5-0.9-0.8-1.4c-0.2-0.2-0.3-0.5-0.5-0.7c-0.3-0.5-0.6-0.9-1-1.3c-0.2-0.2-0.3-0.4-0.5-0.6c-0.4-0.5-0.8-1-1.3-1.4c-0.1-0.1-0.1-0.1-0.2-0.2c0,0-0.1-0.1-0.1-0.1c-0.5-0.5-1-0.9-1.5-1.3c-0.2-0.1-0.4-0.3-0.5-0.4c-0.5-0.4-1-0.8-1.5-1.1C39.3,4.1,39.2,4,39,4c-0.5-0.3-1.1-0.7-1.7-1c-0.2-0.1-0.4-0.2-0.6-0.3c-0.6-0.3-1.2-0.6-1.7-0.8c-0.1,0-0.1-0.1-0.2-0.1c-0.7-0.3-1.4-0.5-2.1-0.7C32.7,1,32.6,1,32.4,1c-0.3-0.1-0.5-0.2-0.8-0.2c-0.1,0-0.1,0-0.2,0c-3.9-0.9-7.9-0.9-11.7,0c-0.1,0-0.1,0-0.2,0C19.3,0.8,19,0.9,18.8,1c-0.1,0-0.2,0.1-0.3,0.1c-0.7,0.2-1.4,0.5-2.1,0.7c0,0-0.1,0-0.1,0c-0.6,0.3-1.2,0.5-1.9,0.9C14.2,2.8,14,2.9,13.9,3c-0.6,0.3-1.2,0.7-1.7,1c-0.1,0-0.1,0.1-0.2,0.1c-0.6,0.4-1.1,0.8-1.7,1.2c-0.2,0.1-0.3,0.3-0.5,0.4c-0.6,0.5-1.1,1-1.7,1.5c-0.5,0.5-1,1.1-1.5,1.7C6.5,9,6.4,9.2,6.3,9.3C5.8,9.9,5.4,10.5,5,11.1c0,0,0,0,0,0.1c-0.4,0.6-0.8,1.2-1.1,1.8c-0.1,0.2-0.2,0.3-0.3,0.5c-0.3,0.6-0.6,1.3-0.9,1.9c0,0,0,0,0,0c-0.3,0.7-0.5,1.4-0.7,2.1c0,0.1-0.1,0.2-0.1,0.3c-0.1,0.3-0.2,0.6-0.2,0.8c0,0.1,0,0.1,0,0.2c-0.9,3.9-0.9,7.9,0,11.7c0,0.1,0,0.1,0,0.2c0.1,0.3,0.2,0.6,0.2,0.8c0,0.1,0.1,0.2,0.1,0.3c0.2,0.7,0.5,1.4,0.7,2.1c0,0,0,0,0,0.1c0.3,0.6,0.6,1.3,0.9,1.9c0.1,0.2,0.2,0.3,0.3,0.5c0.3,0.6,0.7,1.2,1.1,1.8c0,0,0.1,0.1,0.1,0.1c0.4,0.6,0.8,1.2,1.3,1.7c0.1,0.2,0.2,0.3,0.4,0.4c0.5,0.6,1,1.1,1.5,1.7v0c0.5,0.5,1.1,1,1.7,1.5c0.1,0.1,0.2,0.2,0.4,0.3c1.2,0.9,2.4,1.8,3.7,2.5c0.1,0.1,0.3,0.1,0.4,0.2c1.3,0.7,2.7,1.2,4.1,1.7c0.1,0,0.2,0,0.2,0.1c0.3,0.1,0.6,0.2,0.9,0.3c0.1,0,0.1,0,0.2,0c3.9,0.9,7.9,0.9,11.7,0c0,0,0.1,0,0.1,0c0.2-0.1,0.5-0.1,0.7-0.2c0.2,0,0.3-0.1,0.5-0.1c0.7-0.2,1.3-0.4,2-0.7c0.1,0,0.2-0.1,0.3-0.1c0.5-0.2,1.1-0.5,1.6-0.7c0.2-0.1,0.4-0.2,0.6-0.3c0.5-0.3,1.1-0.6,1.6-0.9c0.1-0.1,0.3-0.2,0.4-0.3c0.5-0.4,1-0.7,1.5-1.1c0.2-0.1,0.4-0.3,0.5-0.4c0.5-0.4,1-0.9,1.5-1.3c0,0,0.1-0.1,0.1-0.1c0,0,0.1-0.1,0.1-0.1c0.5-0.5,0.9-1,1.3-1.5c0.2-0.2,0.3-0.4,0.5-0.6c0.4-0.5,0.7-1,1.1-1.5c0.1-0.2,0.2-0.3,0.3-0.5c0.3-0.5,0.6-1,0.9-1.6c0.1-0.2,0.2-0.4,0.3-0.6c0.3-0.6,0.5-1.1,0.8-1.7c0-0.1,0.1-0.1,0.1-0.2c0.3-0.7,0.5-1.4,0.7-2.1c0-0.1,0.1-0.2,0.1-0.4c0.1-0.3,0.2-0.5,0.2-0.8c0-0.1,0-0.1,0-0.2C50.5,26.7,50.5,22.7,49.6,18.8zM32.3,2.6c0.6,0.2,1.2,0.4,1.8,0.6c0.1,0.1,0.3,0.1,0.4,0.2c0.6,0.3,1.2,0.5,1.8,0.8c0.1,0.1,0.2,0.1,0.3,0.2c0.5,0.3,1,0.6,1.5,0.9c0.1,0.1,0.3,0.2,0.4,0.3c0.5,0.4,1,0.7,1.5,1.1c0.1,0.1,0.3,0.2,0.4,0.3c0.5,0.4,1,0.8,1.5,1.3c0,0,0,0,0.1,0.1c0,0,0,0.1,0.1,0.1c0.5,0.5,0.9,0.9,1.3,1.4c0.1,0.1,0.2,0.3,0.3,0.4c0.4,0.5,0.8,1,1.1,1.5c0.1,0.2,0.2,0.3,0.3,0.5c0.3,0.5,0.6,0.9,0.8,1.4c0.1,0.1,0.1,0.2,0.2,0.4c0.3,0.6,0.6,1.1,0.8,1.7c0.1,0.1,0.1,0.3,0.2,0.4c0.2,0.6,0.4,1.2,0.6,1.8h-4.3c0-0.1-0.1-0.2-0.1-0.2c-0.1-0.3-0.3-0.7-0.4-1c-0.1-0.3-0.2-0.5-0.4-0.8c-0.2-0.3-0.4-0.6-0.6-1c-0.1-0.2-0.3-0.5-0.4-0.7c-0.2-0.4-0.5-0.7-0.8-1c-0.1-0.2-0.3-0.4-0.4-0.5c-0.4-0.5-0.9-1-1.3-1.5c-0.5-0.5-1-0.9-1.5-1.3c-0.2-0.2-0.4-0.3-0.7-0.5C36.6,9.3,36.3,9,36,8.8c-0.3-0.2-0.5-0.3-0.8-0.5c-0.3-0.2-0.6-0.3-0.9-0.5c-0.3-0.1-0.5-0.2-0.8-0.4c-0.3-0.1-0.7-0.3-1-0.4C32.4,7,32.3,7,32.3,7V2.6z M21.3,24.7l3.3-4.8c-0.1-0.1-0.3-0.1-0.4-0.2c-0.2-0.2-0.4-0.4-0.6-0.6c-0.3-0.4-0.4-0.9-0.4-1.4c0-1.3,1.1-2.4,2.4-2.4c0.1,0,0.1,0,0.2,0c1.2,0.1,2.1,1,2.2,2.2c0,0.6-0.1,1.1-0.4,1.6c-0.2,0.2-0.4,0.4-0.6,0.6c-0.1,0.1-0.3,0.2-0.4,0.2l3.4,4.7l4.2-2.1C34,22.3,34,22.2,33.9,22c-0.1-0.2-0.1-0.4-0.1-0.6c0-0.1,0-0.2,0-0.3C34,19.9,35,19,36.2,19c1.3,0,2.4,1.1,2.4,2.4c0,1.3-1,2.3-2.2,2.4l-0.1,0c-0.2,0-0.5,0-0.7-0.1c-0.1,0-0.3-0.1-0.4-0.2L33,29.6c-0.2,0.6-0.7,0.9-1.3,0.9l-12,0.1v0c-0.6,0-1.1-0.4-1.3-0.9L16,23.5c-0.1,0.1-0.3,0.1-0.5,0.2c-0.2,0-0.4,0.1-0.6,0.1c-0.1,0-0.2,0-0.3,0c-1.2-0.2-2.1-1.2-2.1-2.4c0-1.3,1.1-2.4,2.4-2.4s2.4,1.1,2.4,2.4c0,0.3-0.1,0.6-0.2,0.9c-0.1,0.2-0.1,0.3-0.2,0.4L21.3,24.7z M32,20.1l0.5,1.2c0.2,0.5,0,1-0.5,1.3l-1.1,0.6c-0.1,0.1-0.3,0.1-0.4,0.1h0c-0.3,0-0.6-0.2-0.8-0.4l-0.7-1c-0.2-0.2-0.2-0.5-0.2-0.8s0.2-0.5,0.5-0.6l1.3-0.8c0.1-0.1,0.3-0.1,0.5-0.1C31.5,19.5,31.8,19.7,32,20.1z M20.6,2.2c3.3-0.7,6.7-0.7,10,0v4.2c-3.3-0.9-6.7-0.9-10,0V2.2z M20.1,19.6c0.2,0,0.3,0,0.5,0.1l1.3,0.7c0.2,0.1,0.4,0.4,0.5,0.6c0.1,0.3,0,0.5-0.1,0.8l-0.7,1c-0.2,0.3-0.5,0.4-0.8,0.4l0,0c-0.1,0-0.3,0-0.4-0.1l-1.1-0.5c-0.5-0.2-0.7-0.8-0.5-1.2l0.5-1.2C19.4,19.8,19.7,19.6,20.1,19.6z M4.2,16.1c0-0.1,0.1-0.1,0.1-0.2c0.3-0.6,0.6-1.3,0.9-1.9c0,0,0-0.1,0.1-0.1c0.3-0.6,0.6-1.1,1-1.7c0.1-0.1,0.1-0.2,0.2-0.3c0.4-0.6,0.8-1.1,1.2-1.6c0.1-0.1,0.1-0.2,0.2-0.3c0.5-0.5,0.9-1.1,1.4-1.6c0.5-0.5,1-1,1.6-1.4c0.1-0.1,0.2-0.2,0.3-0.3c0.5-0.4,1.1-0.8,1.6-1.2c0.1-0.1,0.2-0.2,0.4-0.2c0.5-0.3,1-0.6,1.6-0.9c0.1,0,0.1-0.1,0.2-0.1c0.6-0.3,1.2-0.6,1.8-0.8c0.1,0,0.2-0.1,0.4-0.1C17.7,3,18.3,2.8,19,2.6V7c-0.1,0-0.2,0.1-0.2,0.1c-0.3,0.1-0.7,0.3-1,0.4c-0.3,0.1-0.5,0.2-0.8,0.3c-0.3,0.2-0.6,0.4-1,0.5c-0.2,0.1-0.5,0.3-0.7,0.4c-0.3,0.2-0.7,0.5-1,0.7c-0.2,0.1-0.4,0.3-0.6,0.4c-0.5,0.4-1,0.9-1.5,1.3c-0.5,0.5-0.9,1-1.3,1.5c-0.2,0.3-0.4,0.5-0.6,0.8c-0.2,0.3-0.4,0.5-0.6,0.8c-0.2,0.3-0.4,0.6-0.5,0.9c-0.1,0.3-0.3,0.5-0.4,0.8c-0.2,0.3-0.3,0.6-0.4,0.9c-0.1,0.3-0.3,0.6-0.4,0.9c0,0.1-0.1,0.2-0.1,0.3H3.5C3.7,17.4,4,16.8,4.2,16.1z M3.1,19.7h4.2c-0.9,3.3-0.9,6.7,0,10H3.1C2.4,26.4,2.4,23,3.1,19.7z M19,46.8c-0.6-0.2-1.3-0.4-1.9-0.7c-0.1,0-0.1-0.1-0.2-0.1c-0.7-0.3-1.3-0.6-1.9-0.9c0,0,0,0-0.1,0c-0.6-0.3-1.2-0.7-1.8-1c-0.1-0.1-0.2-0.1-0.3-0.2c-0.6-0.4-1.1-0.8-1.7-1.2c-0.1-0.1-0.2-0.1-0.2-0.2C10.4,42,9.8,41.5,9.3,41c-0.5-0.5-1-1.1-1.5-1.6c-0.1-0.1-0.1-0.2-0.2-0.2c-0.4-0.5-0.8-1.1-1.2-1.7c-0.1-0.1-0.1-0.2-0.2-0.3c-0.4-0.6-0.7-1.2-1-1.7c0,0,0,0,0-0.1c-0.3-0.6-0.6-1.3-0.9-1.9c0-0.1-0.1-0.1-0.1-0.2C4,32.6,3.7,32,3.5,31.3h4.3c0,0.1,0.1,0.2,0.1,0.3c0.1,0.3,0.3,0.6,0.4,0.9c0.1,0.3,0.3,0.6,0.4,0.9c0.1,0.3,0.3,0.5,0.5,0.8c0.2,0.3,0.3,0.6,0.5,0.9c0.2,0.3,0.4,0.5,0.5,0.7c0.2,0.3,0.4,0.6,0.6,0.8c0.3,0.3,0.6,0.7,0.9,1c0.1,0.1,0.3,0.3,0.4,0.5c0.2,0.2,0.3,0.3,0.5,0.5c0.3,0.3,0.6,0.6,0.9,0.9c0.3,0.2,0.6,0.4,0.9,0.6c0.2,0.2,0.5,0.4,0.7,0.5c0.3,0.2,0.6,0.4,0.9,0.5c0.3,0.2,0.5,0.3,0.8,0.4c0.3,0.1,0.6,0.3,0.9,0.4c0.3,0.1,0.6,0.3,0.9,0.4c0.1,0,0.2,0.1,0.3,0.1V46.8z M30.6,47.2c-3.3,0.7-6.7,0.7-10,0v-4.2c3.3,0.9,6.7,0.9,10,0V47.2z M18.9,34.1c-0.6,0-1-0.5-1-1l0-0.5c0-0.6,0.5-1,1-1l13.6-0.1c0.6,0,1,0.5,1,1l0,0.5c0,0.6-0.5,1-1,1L18.9,34.1z M47,33.2c0,0.1-0.1,0.2-0.1,0.3c-0.3,0.6-0.5,1.2-0.8,1.8c0,0.1-0.1,0.2-0.1,0.2c-0.3,0.5-0.6,1-0.9,1.6c-0.1,0.1-0.2,0.2-0.2,0.4c-0.4,0.5-0.8,1.1-1.2,1.6c-0.1,0.1-0.2,0.2-0.3,0.3c-0.4,0.5-0.9,1.1-1.4,1.6c-0.5,0.5-1,1-1.6,1.4c-0.1,0.1-0.2,0.2-0.3,0.3c-0.5,0.4-1,0.8-1.6,1.2c-0.1,0.1-0.2,0.2-0.4,0.2c-0.5,0.3-1,0.6-1.6,0.9c-0.1,0-0.1,0.1-0.2,0.1c-0.6,0.3-1.2,0.6-1.8,0.8c-0.1,0-0.2,0.1-0.3,0.1c-0.6,0.2-1.2,0.5-1.9,0.7v-4.3c0.1,0,0.2-0.1,0.2-0.1c0.3-0.1,0.7-0.3,1-0.4c0.3-0.1,0.5-0.2,0.8-0.4c0.3-0.2,0.6-0.3,0.9-0.5c0.3-0.2,0.5-0.3,0.8-0.5c0.3-0.2,0.6-0.4,0.9-0.7c0.2-0.2,0.4-0.3,0.6-0.5c0.5-0.4,1-0.9,1.5-1.3c0.5-0.5,0.9-1,1.3-1.5c0.2-0.2,0.4-0.5,0.6-0.8c0.2-0.3,0.4-0.5,0.6-0.8c0.2-0.3,0.4-0.6,0.5-0.9c0.1-0.3,0.3-0.5,0.4-0.8c0.2-0.3,0.3-0.6,0.4-0.9c0.1-0.3,0.3-0.6,0.4-0.9c0-0.1,0.1-0.2,0.1-0.3h4.3C47.5,32,47.3,32.6,47,33.2z M48.1,29.7h-4.2c0.9-3.3,0.9-6.7,0-10h4.2C48.8,23,48.8,26.4,48.1,29.7z"/></svg>