<svg width="50" height="50" viewBox="0 0 100 100" fill="none" xmlns="http://www.w3.org/2000/svg"><path d="M49.5,0.3C22.2,0.3,0,22.5,0,49.8s22.2,49.5,49.5,49.5c27.3,0,49.5-22.2,49.5-49.5S76.9,0.3,49.5,0.3zM77.9,75.1c6-6.7,9.7-15.6,9.7-25.3c0-9.7-3.7-18.6-9.7-25.3l5.8-5.8c7.5,8.2,12.1,19.2,12.1,31.1c0,12-4.6,22.9-12.1,31.1L77.9,75.1z M32.1,30.1c4.3-3.8,9.8-6.2,15.9-6.6v7.8c-4,0.3-7.6,1.9-10.4,4.3L32.1,30.1z M35.4,37.8c-2.4,2.9-4,6.5-4.3,10.4h-7.8c0.4-6.1,2.8-11.6,6.6-15.9L35.4,37.8z M31,51.3c0.3,4,1.9,7.6,4.3,10.4l-5.5,5.5c-3.8-4.3-6.2-9.8-6.6-15.9H31z M32.1,69.4l5.5-5.5c2.9,2.4,6.5,4,10.4,4.3V76C41.9,75.7,36.4,73.2,32.1,69.4z M33.6,49.8c0-8.8,7.2-16,16-16s16,7.2,16,16s-7.2,16-16,16S33.6,58.6,33.6,49.8z M75.8,48.2h-7.8c-0.3-4-1.9-7.6-4.3-10.4l5.4-5.4l0.4,0.4l0,0C73.2,37,75.5,42.3,75.8,48.2z M75.8,51.3C75.5,57.4,73,63,69.2,67.3l-5.5-5.5c2.4-2.9,4-6.5,4.3-10.4H75.8z M67,30.2l-5.4,5.4c-2.9-2.4-6.5-4-10.4-4.3v-7.8c5.9,0.3,11.2,2.6,15.5,6.2l0,0L67,30.2z M51.1,68.3c4-0.3,7.6-1.9,10.4-4.3l5.5,5.5c-4.3,3.8-9.8,6.2-15.9,6.6V68.3z M80.7,15.6l-5.8,5.8c-6.7-6-15.6-9.7-25.3-9.7c-9.7,0-18.6,3.7-25.3,9.7l-5.8-5.8C26.6,8.1,37.6,3.6,49.5,3.6C61.5,3.6,72.5,8.1,80.7,15.6zM15.4,18.6l5.8,5.8c-6,6.7-9.7,15.6-9.7,25.3c0,9.7,3.7,18.6,9.7,25.3l-5.8,5.8C7.9,72.7,3.3,61.8,3.3,49.8C3.3,37.8,7.9,26.9,15.4,18.6z M18.4,84l5.8-5.8c6.7,6,15.6,9.7,25.3,9.7c9.7,0,18.6-3.7,25.3-9.7l5.8,5.8C72.5,91.5,61.5,96,49.5,96C37.6,96,26.6,91.5,18.4,84z"/><path d="M52.6,52.3l4.2-4.2c0.5-0.5,1.3-0.5,1.8,0l0.7,0.7c0.3,0.3,0.3,0.7,0,1L59.2,50c-0.3,0.3-0.7,0.3-1,0l-0.9-0.9c-0.1-0.1-0.1-0.1-0.2,0l-1.6,1.6c-0.1,0.1-0.1,0.1,0,0.2l1.4,1.4c1,1,2.6,1,3.6,0l1.1-1.1l0,0c1-1,1-2.6,0-3.6l-2.1-2.1c-1-1-2.6-1-3.6,0l-1.1,1.1l-1.3-1.3c-1-1-2.6-1-3.6,0l-1.1,1.2l-1.3-1.3c-1-1-2.6-1-3.6,0l-7,7c-0.1,0.1-0.1,0.1,0,0.2c0.9,0.9,2.5,0.9,3.4,0l4.5-4.5c0.5-0.5,1.3-0.5,1.8,0l0.3,0.3c0.1,0.1,0.1,0.2,0,0.2L43,52.1c-0.1,0.1-0.1,0.1,0,0.2c0.9,0.9,2.5,0.9,3.4,0l4.3-4.3c0.5-0.5,1.3-0.5,1.8,0l0.3,0.3c0.1,0.1,0.1,0.1,0,0.2l-3.6,3.6c-0.1,0.1-0.1,0.1,0,0.2C50.2,53.3,51.7,53.3,52.6,52.3z"/></svg>