<svg xmlns="http://www.w3.org/2000/svg" xmlns:xlink="http://www.w3.org/1999/xlink" viewBox="0 0 80 72" width="120" height="108" fill="#ad8a18"><path d="M79,57.2L46.4,3.3c-2.6-4.4-9-4.4-11.6,0L15.5,35.2l5.6-0.4L38.8,5.7c0.6-1,1.9-1.4,3-0.7c0.3,0.2,0.6,0.4,0.7,0.7 l32.6,53.9c0.6,1,0.3,2.4-0.7,3c-0.3,0.2-0.7,0.3-1.1,0.3H35.5l-2.4,4.6h40.1C78.5,67.5,81.7,61.8,79,57.2z"></path><path d="M40.3,32l-2.1,0.2l-0.3,1.2c-0.1,0.5-0.4,0.8-0.8,1.1l0,0c-0.4,0.2-0.9,0.3-1.3,0.1l-1.1-0.4l-1.4,1.7l0.6,1 c0.2,0.4,0.3,0.9,0.2,1.3l0,0c-0.1,0.4-0.5,0.8-0.9,1L32,39.7l0.2,2.1l1.2,0.3c0.5,0.1,0.8,0.4,1.1,0.8l0,0c0.2,0.4,0.3,0.9,0.1,1.3 l-0.4,1.1l1.7,1.4l1-0.6c0.4-0.2,0.9-0.3,1.3-0.2l0,0c0.4,0.1,0.8,0.5,1,0.9l0.5,1.1l2.1-0.2l0.3-1.2c0.1-0.5,0.4-0.8,0.8-1.1l0,0 c0.4-0.2,0.9-0.3,1.3-0.1l1.1,0.4l1.4-1.7l-0.6-1c-0.2-0.4-0.3-0.9-0.2-1.3l0,0c0.1-0.5,0.4-0.8,0.9-1l1.1-0.5l-0.2-2.1l-1.2-0.3 c-0.5-0.1-0.8-0.4-1.1-0.8l0,0c-0.2-0.4-0.3-0.9-0.1-1.3l0.4-1.2l-1.7-1.4l-1,0.6c-0.4,0.2-0.9,0.3-1.3,0.2l0,0 c-0.4-0.1-0.8-0.5-1-0.9L40.3,32z M42.9,39.7c0.2,1.6-1,3-2.6,3.2c-1.6,0.2-3-1-3.2-2.6c-0.2-1.6,1-3,2.6-3.2 C41.3,36.9,42.7,38.1,42.9,39.7L42.9,39.7z" class="developer__gear-one"></path><path d="M20.6,40.7L16.4,40l-1.2,2.1c-0.4,0.8-1.2,1.4-2.1,1.6l0,0c-0.9,0.2-1.9,0-2.6-0.5l-2-1.4L5,44.4l0.7,2.3 c0.3,0.9,0.1,1.9-0.4,2.7l0,0c-0.5,0.8-1.3,1.3-2.2,1.5l-2.4,0.4L0,55.6l2.1,1.2C3,57.2,3.6,58,3.8,58.9l0,0c0.2,0.9,0,1.9-0.5,2.6 l-1.4,2L4.4,67l2.3-0.7c0.9-0.3,1.9-0.1,2.7,0.4l0,0c0.8,0.5,1.3,1.3,1.5,2.2l0.4,2.4l4.2,0.7l1.2-2.1c0.4-0.8,1.2-1.4,2.1-1.6l0,0 c0.9-0.2,1.9,0,2.6,0.5l2,1.4l3.5-2.5l-0.7-2.3c-0.3-0.9-0.1-1.9,0.4-2.7l0,0c0.5-0.8,1.3-1.3,2.2-1.5l2.4-0.4l0.7-4.2l-2.1-1.2 c-0.8-0.4-1.4-1.2-1.6-2.1l0,0c-0.2-0.9,0-1.9,0.5-2.6l1.4-2L27.6,45l-2.3,0.7c-0.9,0.3-1.9,0.1-2.7-0.4l0,0 c-0.8-0.5-1.3-1.3-1.5-2.2L20.6,40.7z M21.8,56.9c-0.5,3.2-3.5,5.3-6.7,4.8c-3.2-0.5-5.3-3.5-4.8-6.7c0.5-3.2,3.5-5.3,6.7-4.8 C20.1,50.8,22.3,53.7,21.8,56.9C21.8,56.9,21.8,56.9,21.8,56.9z" class="developer__gear-two"></path></svg>