<svg width="100" height="100" viewBox="0 0 100 100" fill="none" xmlns="http://www.w3.org/2000/svg"><path class="st0" d="M99.7,49.9c0-9-2.4-17.8-7-25.4c0-0.1-0.1-0.1-0.1-0.2c-4.1-6.8-9.9-12.6-16.7-16.7c-0.1-0.1-0.1-0.1-0.2-0.2c-7.7-4.6-16.5-7-25.4-7c-2.5,0-5.1,0.2-7.5,0.6c0,0,0,0,0,0c-6.3,1-12.4,3.1-17.9,6.4c-0.1,0-0.1,0.1-0.2,0.1c-6.9,4.2-12.6,9.9-16.8,16.8c0,0.1-0.1,0.1-0.1,0.2c-2.4,4-4.2,8.4-5.4,12.9c0,0.1-0.1,0.2-0.1,0.4c-0.4,1.4-0.7,2.9-0.9,4.4c0,0.2-0.1,0.4-0.1,0.6C1,43.3,0.9,44,0.8,44.7c0,0,0,0.1,0,0.1c-0.1,0.7-0.1,1.5-0.2,2.2c0,0.2,0,0.4,0,0.6c0,0.8-0.1,1.5-0.1,2.3c0,0,0,0,0,0c0,0,0,0,0,0c0,0,0,0,0,0c0,0.7,0,1.5,0.1,2.2c0,0.2,0,0.4,0,0.6c0,0.7,0.1,1.3,0.2,2c0,0.2,0,0.4,0.1,0.6C0.9,55.8,1,56.4,1.1,57c0,0.3,0.1,0.6,0.1,0.8c0.1,0.5,0.2,1,0.3,1.6c0.1,0.3,0.1,0.6,0.2,0.9c0.1,0.5,0.2,1,0.3,1.5c0.1,0.3,0.1,0.5,0.2,0.8c0.1,0.5,0.3,1.1,0.5,1.6c0,0.1,0.1,0.3,0.1,0.4c0.2,0.7,0.4,1.3,0.7,2c0.1,0.2,0.1,0.3,0.2,0.5c0.2,0.7,0.5,1.3,0.8,2c0,0,0,0,0,0c0.9,2.1,1.9,4.2,3.1,6.2c0,0,0.1,0.1,0.1,0.1c4.2,6.9,10,12.7,16.9,16.9c0,0,0.1,0.1,0.1,0.1c2.6,1.6,5.3,2.9,8.2,3.9c0.2,0.1,0.3,0.1,0.5,0.2c0.6,0.2,1.3,0.5,2,0.7c0.2,0.1,0.4,0.1,0.5,0.2c0.5,0.1,1,0.3,1.5,0.4c0.3,0.1,0.6,0.1,0.9,0.2c0.5,0.1,1,0.2,1.4,0.3c0.3,0.1,0.7,0.1,1,0.2c0.5,0.1,1,0.2,1.5,0.3c0.3,0,0.6,0.1,0.8,0.1c0.6,0.1,1.2,0.2,1.7,0.2c0.2,0,0.3,0,0.5,0.1c0.7,0.1,1.3,0.1,2,0.2c0.2,0,0.4,0,0.6,0c0.7,0,1.5,0.1,2.2,0.1c0,0,0,0,0,0c0,0,0,0,0,0c0,0,0,0,0,0c0.7,0,1.4,0,2.2-0.1c0.2,0,0.5,0,0.7,0c0.6,0,1.2-0.1,1.8-0.1c0.3,0,0.6-0.1,0.9-0.1c0.5-0.1,1-0.1,1.5-0.2c0.3,0,0.6-0.1,1-0.1c0.4-0.1,0.8-0.1,1.3-0.2c0.5-0.1,1-0.2,1.5-0.3c0.4-0.1,0.8-0.2,1.1-0.3c0.3-0.1,0.7-0.2,1-0.3c0.4-0.1,0.8-0.2,1.2-0.3c0.4-0.1,0.7-0.2,1.1-0.3c0.5-0.2,1-0.3,1.5-0.5c0.2-0.1,0.5-0.2,0.7-0.3c0.5-0.2,1-0.4,1.6-0.6c0.1-0.1,0.3-0.1,0.4-0.2c0.7-0.3,1.3-0.6,2-0.9c0.1,0,0.2-0.1,0.3-0.2c0.6-0.3,1.3-0.6,1.9-1c0,0,0.1,0,0.1-0.1c0.6-0.3,1.2-0.7,1.8-1c0,0,0,0,0.1-0.1c6.9-4.1,12.7-9.9,16.9-16.8c0.1-0.1,0.1-0.2,0.2-0.3C97.3,67.6,99.7,58.8,99.7,49.9z M96.3,52.5c0,0.3,0,0.6-0.1,0.9c0,0.6-0.1,1.2-0.2,1.8c0,0.3-0.1,0.6-0.1,0.9c-0.1,0.6-0.2,1.2-0.3,1.9c0,0.3-0.1,0.5-0.1,0.7c-0.1,0.7-0.3,1.5-0.5,2.2c0,0.1-0.1,0.2-0.1,0.4c-0.2,0.9-0.5,1.7-0.7,2.6c-0.1,0.2-0.1,0.4-0.2,0.6c-0.2,0.6-0.4,1.2-0.7,1.9c-0.1,0.3-0.2,0.6-0.4,0.9c-0.2,0.5-0.4,1-0.6,1.5c-0.1,0.3-0.3,0.7-0.5,1c-0.2,0.5-0.5,1-0.7,1.4c-0.1,0.2-0.2,0.5-0.4,0.7l-6.2-6.2c0,0,0-0.1,0-0.1c0.2-0.5,0.5-1.1,0.7-1.7c0-0.1,0.1-0.1,0.1-0.2c0.2-0.5,0.4-1.1,0.6-1.6c0-0.1,0.1-0.2,0.1-0.3c0.2-0.5,0.3-1.1,0.5-1.6c0-0.1,0.1-0.2,0.1-0.3c0.2-0.6,0.3-1.1,0.4-1.7c0-0.1,0-0.1,0-0.2c0.6-2.6,0.9-5.3,0.9-8c0-2-0.2-4.1-0.5-6c0-0.1-0.1-0.3-0.1-0.4c-0.1-0.5-0.2-1-0.3-1.5c0-0.2-0.1-0.5-0.2-0.7c-0.1-0.4-0.2-0.8-0.3-1.2c-0.1-0.3-0.1-0.5-0.2-0.8c-0.1-0.4-0.2-0.7-0.3-1.1c-0.1-0.3-0.2-0.5-0.3-0.8c-0.1-0.4-0.3-0.7-0.4-1.1c-0.1-0.3-0.2-0.5-0.3-0.8c-0.1-0.4-0.3-0.7-0.4-1.1c-0.1-0.1-0.1-0.3-0.2-0.4l6.1-6.1c0.3,0.5,0.5,1,0.8,1.5c0.1,0.1,0.2,0.3,0.2,0.4c0.2,0.5,0.5,1,0.7,1.5c0.1,0.3,0.2,0.6,0.4,0.9c0.2,0.5,0.4,0.9,0.5,1.4c0.1,0.4,0.3,0.8,0.4,1.2c0.1,0.4,0.3,0.8,0.4,1.2c0.2,0.8,0.5,1.6,0.7,2.3c0.1,0.3,0.1,0.6,0.2,0.8c0.1,0.6,0.3,1.1,0.4,1.7c0.1,0.3,0.1,0.7,0.2,1c0.1,0.5,0.2,1.1,0.3,1.6c0,0.3,0.1,0.7,0.1,1c0.1,0.6,0.1,1.1,0.2,1.7c0,0.3,0.1,0.7,0.1,1c0,0.7,0.1,1.5,0.1,2.2c0,0.1,0,0.3,0,0.4c0,0.1,0,0.2,0,0.3C96.4,50.9,96.3,51.7,96.3,52.5z M89.1,25l-6,6c-3.4-5.9-8.3-10.8-14.2-14.2l6-6C80.6,14.5,85.5,19.3,89.1,25z M71,63.1c-0.1,0.2-0.3,0.2-0.4,0.2c-0.1,0-0.2-0.1-0.3-0.2c-0.7-2.2-1.2-4.6-1.4-6.9c0-0.1,0-0.2,0.1-0.3c1.5-1.8,3.3-3.4,5.2-4.7c0.1-0.1,0.1-0.1,0.2-0.1c0.1,0,0.1,0,0.2,0.1c0.1,0,0.2,0.1,0.2,0.3C74.6,55.6,73.3,59.6,71,63.1L71,63.1z M65.9,84.4l6.2,6.2c-0.3,0.2-0.6,0.3-0.9,0.5c-0.4,0.2-0.8,0.4-1.2,0.6c-0.4,0.2-0.7,0.3-1.1,0.5c-0.5,0.2-0.9,0.4-1.4,0.6c-0.3,0.1-0.7,0.3-1,0.4c-0.6,0.2-1.2,0.4-1.8,0.6c-0.2,0.1-0.4,0.1-0.6,0.2c-0.8,0.3-1.7,0.5-2.5,0.7c-0.1,0-0.2,0.1-0.4,0.1c-0.7,0.2-1.5,0.3-2.2,0.5c-0.2,0-0.5,0.1-0.7,0.1c-0.6,0.1-1.3,0.2-1.9,0.3c-0.3,0-0.5,0.1-0.8,0.1c-0.6,0.1-1.3,0.1-1.9,0.2c-0.2,0-0.5,0-0.7,0.1c-0.9,0.1-1.8,0.1-2.7,0.1c0,0,0,0,0,0c-0.9,0-1.8,0-2.6-0.1c-0.3,0-0.5,0-0.8-0.1c-0.6,0-1.3-0.1-1.9-0.2c-0.3,0-0.6-0.1-0.8-0.1c-0.6-0.1-1.2-0.2-1.9-0.3c-0.3,0-0.5-0.1-0.8-0.1c-0.7-0.1-1.4-0.3-2.1-0.5c-0.2,0-0.3-0.1-0.5-0.1c-0.8-0.2-1.7-0.5-2.5-0.7c-0.3-0.1-0.5-0.2-0.8-0.3c-0.5-0.2-1.1-0.4-1.6-0.6c-0.4-0.1-0.7-0.3-1.1-0.4c-0.4-0.2-0.8-0.3-1.2-0.5c-0.4-0.2-0.8-0.4-1.2-0.5c-0.3-0.2-0.7-0.3-1-0.5c-0.4-0.2-0.7-0.4-1.1-0.5l6.2-6.2c0.1,0,0.2,0.1,0.3,0.1c0.4,0.2,0.9,0.4,1.3,0.6c0.2,0.1,0.3,0.1,0.5,0.2c0.4,0.2,0.9,0.3,1.3,0.5c0.2,0.1,0.4,0.1,0.5,0.2c0.5,0.1,0.9,0.3,1.4,0.4c0.2,0,0.3,0.1,0.5,0.1c0.5,0.1,1,0.2,1.5,0.4c0.1,0,0.3,0.1,0.4,0.1c0.6,0.1,1.2,0.2,1.8,0.3c0,0,0.1,0,0.1,0c2,0.3,4,0.5,6.1,0.5c2.7,0,5.4-0.3,8-0.9c0.1,0,0.2,0,0.3-0.1c0.5-0.1,1.1-0.3,1.6-0.4c0.1,0,0.2-0.1,0.4-0.1c0.5-0.1,1-0.3,1.5-0.5c0.1,0,0.2-0.1,0.4-0.1c0.5-0.2,1-0.4,1.5-0.6c0.1,0,0.2-0.1,0.3-0.1c0.5-0.2,1-0.4,1.5-0.6C65.7,84.5,65.8,84.4,65.9,84.4z M29.9,63c-0.1,0.2-0.2,0.2-0.3,0.2c-0.1,0-0.2,0-0.4-0.2c-2.2-3.5-3.5-7.5-3.8-11.7c0-0.2,0.1-0.3,0.2-0.3c0.1,0,0.2-0.1,0.4,0c1.9,1.4,3.7,3,5.2,4.7c0.1,0.1,0.1,0.2,0.1,0.3C31.1,58.5,30.6,60.8,29.9,63L29.9,63zM28.8,37.4c0.1-0.1,0.2-0.2,0.3-0.2c0,0,0,0,0,0c3.2,0.2,6.4,0,9.5-0.7c0.1,0,0.3,0,0.4,0.1l2.9,4c0.1,0.1,0.1,0.3,0,0.4c-1.9,3.5-3.1,7.2-3.6,11.1c0,0.1-0.1,0.2-0.2,0.3l-4.7,1.5c-0.1,0-0.3,0-0.4-0.1c-2.1-2.4-4.5-4.4-7.3-6.1c-0.1-0.1-0.2-0.2-0.2-0.4C25.9,43.8,27,40.4,28.8,37.4L28.8,37.4z M31.1,34.1c2.7-3.2,6.1-5.7,9.9-7.2c0.1,0,0.1,0,0.1,0c0.1,0,0.2,0.1,0.2,0.1c0.1,0.1,0.2,0.2,0.1,0.4c-0.7,2.3-1.7,4.4-2.9,6.4c-0.1,0.1-0.1,0.1-0.2,0.2c-2.3,0.5-4.6,0.8-7,0.8c-0.2,0-0.3-0.2-0.3-0.2C31,34.4,31,34.2,31.1,34.1L31.1,34.1z M34.4,15.3l-6.1-6.1c0.6-0.3,1.2-0.6,1.7-0.9c0,0,0.1,0,0.1-0.1c0.6-0.3,1.1-0.5,1.7-0.8c0.2-0.1,0.4-0.2,0.6-0.2c0.5-0.2,1.1-0.4,1.6-0.6c0.2-0.1,0.5-0.2,0.7-0.2c1.7-0.6,3.4-1.1,5.2-1.5c0.4-0.1,0.7-0.2,1.1-0.2c0.5-0.1,1-0.2,1.4-0.3c0.4-0.1,0.7-0.1,1.1-0.2c0.5-0.1,1-0.1,1.5-0.2c0.3,0,0.7-0.1,1-0.1c0.5,0,1.1-0.1,1.6-0.1c0.2,0,0.4,0,0.6,0c0.6,0,1.2,0,1.9,0c0.6,0,1.2,0,1.9,0c0.2,0,0.4,0,0.6,0c0.5,0,1.1,0.1,1.6,0.1c0.3,0,0.7,0.1,1,0.1c0.5,0.1,1,0.1,1.5,0.2c0.4,0.1,0.7,0.1,1.1,0.2c0.5,0.1,1,0.2,1.4,0.3c0.4,0.1,0.7,0.2,1.1,0.2c1.8,0.4,3.5,0.9,5.2,1.5c0.2,0.1,0.5,0.2,0.7,0.3c0.5,0.2,1.1,0.4,1.6,0.6c0.2,0.1,0.4,0.2,0.6,0.3c0.6,0.2,1.1,0.5,1.7,0.8c0.1,0,0.1,0.1,0.2,0.1c0.6,0.3,1.1,0.6,1.7,0.9l-6.1,6.1c-0.2-0.1-0.4-0.2-0.6-0.2c-0.2-0.1-0.5-0.2-0.7-0.3c-0.4-0.1-0.7-0.3-1.1-0.4c-0.2-0.1-0.5-0.2-0.7-0.3c-0.4-0.1-0.8-0.3-1.2-0.4c-0.2-0.1-0.4-0.1-0.6-0.2c-0.4-0.1-0.8-0.2-1.3-0.4c-0.2,0-0.4-0.1-0.5-0.1c-0.4-0.1-0.9-0.2-1.3-0.3c-0.2,0-0.3-0.1-0.5-0.1c-0.5-0.1-0.9-0.2-1.4-0.2c-0.2,0-0.4,0-0.6-0.1c-0.4-0.1-0.9-0.1-1.3-0.2c-0.3,0-0.6,0-0.8-0.1c-0.4,0-0.7-0.1-1.1-0.1c-0.7,0-1.3-0.1-2-0.1c0,0,0,0,0,0s0,0,0,0c0,0,0,0,0,0c-0.6,0-1.3,0-1.9,0.1c-0.4,0-0.8,0.1-1.2,0.1c-0.2,0-0.5,0-0.7,0.1c-0.5,0.1-1,0.1-1.5,0.2c-0.1,0-0.3,0-0.4,0.1c-0.5,0.1-1,0.2-1.5,0.3c-0.1,0-0.2,0-0.4,0.1c-0.5,0.1-1,0.2-1.5,0.3c-0.1,0-0.3,0.1-0.4,0.1c-0.5,0.1-0.9,0.3-1.4,0.4c-0.2,0-0.3,0.1-0.5,0.1c-0.4,0.1-0.9,0.3-1.3,0.4c-0.2,0.1-0.3,0.1-0.5,0.2c-0.4,0.2-0.8,0.3-1.3,0.5c-0.2,0.1-0.3,0.1-0.5,0.2C34.9,15.1,34.6,15.2,34.4,15.3z M40.2,72.5c-3.2-1.4-6.1-3.5-8.5-6.2c-0.1-0.1-0.1-0.3-0.1-0.4c1.2-2.9,2-6,2.3-9.2c0-0.1,0.1-0.3,0.2-0.3l4.6-1.5c0,0,0.1,0,0.1,0c0.1,0,0.2,0,0.3,0.1c2.6,2.9,5.9,5.3,9.4,6.9c0.1,0.1,0.2,0.2,0.2,0.3v4.9c0,0.1-0.1,0.3-0.2,0.3c-2.9,1.3-5.6,3-8,5C40.4,72.5,40.3,72.6,40.2,72.5L40.2,72.5z M56.6,73.5L56.6,73.5c0,0.1-0.1,0.2-0.3,0.3c-4,1-8.3,1-12.3,0c-0.2-0.1-0.3-0.2-0.3-0.3c0-0.1,0-0.2,0.1-0.4c1.9-1.4,4-2.6,6.1-3.5c0.1,0,0.2,0,0.3,0c2.2,0.9,4.2,2.1,6.1,3.5C56.6,73.3,56.6,73.5,56.6,73.5z M50.3,59.6c-0.1,0-0.2,0-0.3,0c-3.5-1.5-6.6-3.7-9.1-6.6c-0.1-0.1-0.1-0.2-0.1-0.3c0.5-3.8,1.7-7.4,3.5-10.7c0.1-0.1,0.1-0.2,0.2-0.2c1.8-0.4,3.7-0.6,5.6-0.6c1.9,0,3.8,0.2,5.6,0.6c0.1,0,0.2,0.1,0.2,0.2c1.8,3.3,3,6.9,3.5,10.7h0c0,0.1,0,0.2-0.1,0.3C56.9,55.9,53.7,58.2,50.3,59.6z M56,39.2c-3.8-0.8-7.8-0.8-11.6,0c-0.1,0-0.3,0-0.4-0.1l-2.9-4C41,35,41,34.8,41,34.7c1.6-2.7,2.8-5.7,3.5-8.8c0-0.1,0.1-0.2,0.3-0.3c3.4-0.7,7.1-0.7,10.5,0c0.1,0,0.2,0.1,0.3,0.3c0.7,3.1,1.9,6,3.5,8.8c0.1,0.1,0.1,0.3,0,0.4l-2.9,4C56.2,39.2,56.1,39.3,56,39.2z M58.8,27.3c-0.1-0.2,0.1-0.3,0.1-0.4h0c0,0,0.1-0.1,0.2-0.1c0,0,0.1,0,0.1,0c3.8,1.5,7.3,4,9.9,7.2c0.1,0.2,0.1,0.3,0.1,0.4c0,0.1-0.1,0.2-0.3,0.2c-2.4,0-4.7-0.2-7-0.8c-0.1,0-0.2-0.1-0.2-0.2C60.5,31.7,59.5,29.5,58.8,27.3z M68.6,66.3c-2.4,2.7-5.3,4.8-8.5,6.2c-0.1,0.1-0.3,0-0.4-0.1c-2.4-2.1-5.1-3.8-8-5c-0.1-0.1-0.2-0.2-0.2-0.3v-4.9c0-0.1,0.1-0.3,0.2-0.3c3.6-1.6,6.8-3.9,9.4-6.9c0.1-0.1,0.2-0.1,0.3-0.1c0,0,0.1,0,0.1,0l4.6,1.5c0.1,0,0.2,0.2,0.2,0.3c0.3,3.2,1.1,6.2,2.3,9.2C68.7,66.1,68.7,66.2,68.6,66.3L68.6,66.3z M67.3,53.8c-0.1,0.1-0.2,0.2-0.4,0.1l-4.7-1.5c-0.1,0-0.2-0.2-0.2-0.3c-0.5-3.9-1.7-7.6-3.6-11.1c-0.1-0.1-0.1-0.3,0-0.4l2.9-4c0.1-0.1,0.2-0.2,0.3-0.2c0,0,0.1,0,0.1,0c3.1,0.7,6.3,0.9,9.5,0.7c0.1,0,0.3,0.1,0.4,0.2l0,0c1.8,3.1,2.9,6.4,3.2,10c0,0.1-0.1,0.3-0.2,0.4C71.9,49.4,69.4,51.4,67.3,53.8z M25.3,10.8l6,6c-5.9,3.4-10.8,8.3-14.2,14.2l-6-6C14.8,19.3,19.6,14.5,25.3,10.8z M15.5,65.5c0,0,0,0.1,0,0.1l-6.2,6.2c-0.1-0.2-0.2-0.4-0.3-0.6c-0.3-0.5-0.5-1.1-0.8-1.6c-0.1-0.3-0.3-0.6-0.4-0.9c-0.2-0.5-0.5-1.1-0.7-1.6c-0.1-0.3-0.2-0.5-0.3-0.8c-0.3-0.7-0.5-1.4-0.7-2.1c0-0.1-0.1-0.2-0.1-0.4c-0.3-0.9-0.5-1.7-0.7-2.6c0-0.1,0-0.1,0-0.2c-0.2-0.8-0.4-1.6-0.5-2.4c0-0.2-0.1-0.4-0.1-0.6c-0.1-0.7-0.2-1.3-0.3-2c0-0.2-0.1-0.5-0.1-0.7c-0.1-0.7-0.1-1.3-0.2-2C4,53,4,52.7,4,52.5c-0.1-0.9-0.1-1.8-0.1-2.7c0,0,0,0,0-0.1c0-0.9,0-1.7,0.1-2.6c0-0.3,0-0.5,0.1-0.8c0-0.6,0.1-1.2,0.2-1.8c0-0.3,0.1-0.6,0.1-0.9c0.1-0.6,0.2-1.2,0.3-1.8c0.1-0.3,0.1-0.6,0.2-0.9c0.1-0.6,0.3-1.3,0.4-1.9c0.1-0.2,0.1-0.4,0.1-0.6C5.5,37.6,5.8,36.8,6,36c0.1-0.3,0.2-0.7,0.3-1c0.2-0.5,0.3-0.9,0.5-1.4c0.2-0.4,0.3-0.9,0.5-1.3c0.1-0.3,0.3-0.7,0.4-1C8,30.9,8.2,30.4,8.4,30c0.1-0.2,0.2-0.4,0.3-0.6c0.2-0.5,0.5-0.9,0.7-1.4l6.1,6.1c-0.1,0.2-0.1,0.3-0.2,0.5c-0.1,0.3-0.3,0.6-0.4,0.9c-0.1,0.3-0.2,0.6-0.3,0.9c-0.1,0.3-0.2,0.7-0.4,1c-0.1,0.3-0.2,0.6-0.3,0.9c-0.1,0.3-0.2,0.7-0.3,1c-0.1,0.3-0.2,0.6-0.2,0.8c-0.1,0.4-0.2,0.7-0.3,1.1c-0.1,0.2-0.1,0.5-0.2,0.8c-0.1,0.5-0.2,0.9-0.3,1.4c0,0.2-0.1,0.3-0.1,0.5c-0.3,2-0.5,4-0.5,6c0,2.7,0.3,5.4,0.9,8c0,0.1,0,0.2,0.1,0.2c0.1,0.6,0.3,1.1,0.4,1.7c0,0.1,0.1,0.2,0.1,0.3c0.2,0.5,0.3,1.1,0.5,1.6c0,0.1,0.1,0.2,0.1,0.3c0.2,0.5,0.4,1.1,0.6,1.6c0,0.1,0.1,0.2,0.1,0.2C15,64.4,15.3,64.9,15.5,65.5z M11.1,74.6l6-6c3.4,5.9,8.3,10.8,14.2,14.2l-6,6C19.6,85.2,14.8,80.3,11.1,74.6z M74.9,88.8l-6-6c5.9-3.4,10.8-8.3,14.2-14.2l6,6C85.5,80.4,80.6,85.2,74.9,88.8z"/></svg>