<svg xmlns="http://www.w3.org/2000/svg" xmlns:xlink="http://www.w3.org/1999/xlink"><symbol id="icon-crown" viewBox="0 0 50 50"><path d="M49.6,18.8c0,0,0-0.1,0-0.1c-0.1-0.2-0.1-0.4-0.2-0.6c-0.1-0.2-0.1-0.4-0.2-0.6c-0.2-0.6-0.4-1.3-0.7-1.9c-0.1-0.2-0.1-0.3-0.2-0.5c-0.2-0.5-0.4-1-0.7-1.4c-0.1-0.2-0.3-0.5-0.4-0.7c-0.3-0.5-0.5-0.9-0.8-1.4c-0.2-0.2-0.3-0.5-0.5-0.7c-0.3-0.5-0.6-0.9-1-1.3c-0.2-0.2-0.3-0.4-0.5-0.6c-0.4-0.5-0.8-1-1.3-1.4c-0.1-0.1-0.1-0.1-0.2-0.2c0,0-0.1-0.1-0.1-0.1c-0.5-0.5-1-0.9-1.5-1.3c-0.2-0.1-0.4-0.3-0.5-0.4c-0.5-0.4-1-0.8-1.5-1.1C39.3,4.1,39.2,4,39,4c-0.5-0.3-1.1-0.7-1.7-1c-0.2-0.1-0.4-0.2-0.6-0.3c-0.6-0.3-1.2-0.6-1.7-0.8c-0.1,0-0.1-0.1-0.2-0.1c-0.7-0.3-1.4-0.5-2.1-0.7C32.7,1,32.6,1,32.4,1c-0.3-0.1-0.5-0.2-0.8-0.2c-0.1,0-0.1,0-0.2,0c-3.9-0.9-7.9-0.9-11.7,0c-0.1,0-0.1,0-0.2,0C19.3,0.8,19,0.9,18.8,1c-0.1,0-0.2,0.1-0.3,0.1c-0.7,0.2-1.4,0.5-2.1,0.7c0,0-0.1,0-0.1,0c-0.6,0.3-1.2,0.5-1.9,0.9C14.2,2.8,14,2.9,13.9,3c-0.6,0.3-1.2,0.7-1.7,1c-0.1,0-0.1,0.1-0.2,0.1c-0.6,0.4-1.1,0.8-1.7,1.2c-0.2,0.1-0.3,0.3-0.5,0.4c-0.6,0.5-1.1,1-1.7,1.5c-0.5,0.5-1,1.1-1.5,1.7C6.5,9,6.4,9.2,6.3,9.3C5.8,9.9,5.4,10.5,5,11.1c0,0,0,0,0,0.1c-0.4,0.6-0.8,1.2-1.1,1.8c-0.1,0.2-0.2,0.3-0.3,0.5c-0.3,0.6-0.6,1.3-0.9,1.9c0,0,0,0,0,0c-0.3,0.7-0.5,1.4-0.7,2.1c0,0.1-0.1,0.2-0.1,0.3c-0.1,0.3-0.2,0.6-0.2,0.8c0,0.1,0,0.1,0,0.2c-0.9,3.9-0.9,7.9,0,11.7c0,0.1,0,0.1,0,0.2c0.1,0.3,0.2,0.6,0.2,0.8c0,0.1,0.1,0.2,0.1,0.3c0.2,0.7,0.5,1.4,0.7,2.1c0,0,0,0,0,0.1c0.3,0.6,0.6,1.3,0.9,1.9c0.1,0.2,0.2,0.3,0.3,0.5c0.3,0.6,0.7,1.2,1.1,1.8c0,0,0.1,0.1,0.1,0.1c0.4,0.6,0.8,1.2,1.3,1.7c0.1,0.2,0.2,0.3,0.4,0.4c0.5,0.6,1,1.1,1.5,1.7v0c0.5,0.5,1.1,1,1.7,1.5c0.1,0.1,0.2,0.2,0.4,0.3c1.2,0.9,2.4,1.8,3.7,2.5c0.1,0.1,0.3,0.1,0.4,0.2c1.3,0.7,2.7,1.2,4.1,1.7c0.1,0,0.2,0,0.2,0.1c0.3,0.1,0.6,0.2,0.9,0.3c0.1,0,0.1,0,0.2,0c3.9,0.9,7.9,0.9,11.7,0c0,0,0.1,0,0.1,0c0.2-0.1,0.5-0.1,0.7-0.2c0.2,0,0.3-0.1,0.5-0.1c0.7-0.2,1.3-0.4,2-0.7c0.1,0,0.2-0.1,0.3-0.1c0.5-0.2,1.1-0.5,1.6-0.7c0.2-0.1,0.4-0.2,0.6-0.3c0.5-0.3,1.1-0.6,1.6-0.9c0.1-0.1,0.3-0.2,0.4-0.3c0.5-0.4,1-0.7,1.5-1.1c0.2-0.1,0.4-0.3,0.5-0.4c0.5-0.4,1-0.9,1.5-1.3c0,0,0.1-0.1,0.1-0.1c0,0,0.1-0.1,0.1-0.1c0.5-0.5,0.9-1,1.3-1.5c0.2-0.2,0.3-0.4,0.5-0.6c0.4-0.5,0.7-1,1.1-1.5c0.1-0.2,0.2-0.3,0.3-0.5c0.3-0.5,0.6-1,0.9-1.6c0.1-0.2,0.2-0.4,0.3-0.6c0.3-0.6,0.5-1.1,0.8-1.7c0-0.1,0.1-0.1,0.1-0.2c0.3-0.7,0.5-1.4,0.7-2.1c0-0.1,0.1-0.2,0.1-0.4c0.1-0.3,0.2-0.5,0.2-0.8c0-0.1,0-0.1,0-0.2C50.5,26.7,50.5,22.7,49.6,18.8zM32.3,2.6c0.6,0.2,1.2,0.4,1.8,0.6c0.1,0.1,0.3,0.1,0.4,0.2c0.6,0.3,1.2,0.5,1.8,0.8c0.1,0.1,0.2,0.1,0.3,0.2c0.5,0.3,1,0.6,1.5,0.9c0.1,0.1,0.3,0.2,0.4,0.3c0.5,0.4,1,0.7,1.5,1.1c0.1,0.1,0.3,0.2,0.4,0.3c0.5,0.4,1,0.8,1.5,1.3c0,0,0,0,0.1,0.1c0,0,0,0.1,0.1,0.1c0.5,0.5,0.9,0.9,1.3,1.4c0.1,0.1,0.2,0.3,0.3,0.4c0.4,0.5,0.8,1,1.1,1.5c0.1,0.2,0.2,0.3,0.3,0.5c0.3,0.5,0.6,0.9,0.8,1.4c0.1,0.1,0.1,0.2,0.2,0.4c0.3,0.6,0.6,1.1,0.8,1.7c0.1,0.1,0.1,0.3,0.2,0.4c0.2,0.6,0.4,1.2,0.6,1.8h-4.3c0-0.1-0.1-0.2-0.1-0.2c-0.1-0.3-0.3-0.7-0.4-1c-0.1-0.3-0.2-0.5-0.4-0.8c-0.2-0.3-0.4-0.6-0.6-1c-0.1-0.2-0.3-0.5-0.4-0.7c-0.2-0.4-0.5-0.7-0.8-1c-0.1-0.2-0.3-0.4-0.4-0.5c-0.4-0.5-0.9-1-1.3-1.5c-0.5-0.5-1-0.9-1.5-1.3c-0.2-0.2-0.4-0.3-0.7-0.5C36.6,9.3,36.3,9,36,8.8c-0.3-0.2-0.5-0.3-0.8-0.5c-0.3-0.2-0.6-0.3-0.9-0.5c-0.3-0.1-0.5-0.2-0.8-0.4c-0.3-0.1-0.7-0.3-1-0.4C32.4,7,32.3,7,32.3,7V2.6z M21.3,24.7l3.3-4.8c-0.1-0.1-0.3-0.1-0.4-0.2c-0.2-0.2-0.4-0.4-0.6-0.6c-0.3-0.4-0.4-0.9-0.4-1.4c0-1.3,1.1-2.4,2.4-2.4c0.1,0,0.1,0,0.2,0c1.2,0.1,2.1,1,2.2,2.2c0,0.6-0.1,1.1-0.4,1.6c-0.2,0.2-0.4,0.4-0.6,0.6c-0.1,0.1-0.3,0.2-0.4,0.2l3.4,4.7l4.2-2.1C34,22.3,34,22.2,33.9,22c-0.1-0.2-0.1-0.4-0.1-0.6c0-0.1,0-0.2,0-0.3C34,19.9,35,19,36.2,19c1.3,0,2.4,1.1,2.4,2.4c0,1.3-1,2.3-2.2,2.4l-0.1,0c-0.2,0-0.5,0-0.7-0.1c-0.1,0-0.3-0.1-0.4-0.2L33,29.6c-0.2,0.6-0.7,0.9-1.3,0.9l-12,0.1v0c-0.6,0-1.1-0.4-1.3-0.9L16,23.5c-0.1,0.1-0.3,0.1-0.5,0.2c-0.2,0-0.4,0.1-0.6,0.1c-0.1,0-0.2,0-0.3,0c-1.2-0.2-2.1-1.2-2.1-2.4c0-1.3,1.1-2.4,2.4-2.4s2.4,1.1,2.4,2.4c0,0.3-0.1,0.6-0.2,0.9c-0.1,0.2-0.1,0.3-0.2,0.4L21.3,24.7z M32,20.1l0.5,1.2c0.2,0.5,0,1-0.5,1.3l-1.1,0.6c-0.1,0.1-0.3,0.1-0.4,0.1h0c-0.3,0-0.6-0.2-0.8-0.4l-0.7-1c-0.2-0.2-0.2-0.5-0.2-0.8s0.2-0.5,0.5-0.6l1.3-0.8c0.1-0.1,0.3-0.1,0.5-0.1C31.5,19.5,31.8,19.7,32,20.1z M20.6,2.2c3.3-0.7,6.7-0.7,10,0v4.2c-3.3-0.9-6.7-0.9-10,0V2.2z M20.1,19.6c0.2,0,0.3,0,0.5,0.1l1.3,0.7c0.2,0.1,0.4,0.4,0.5,0.6c0.1,0.3,0,0.5-0.1,0.8l-0.7,1c-0.2,0.3-0.5,0.4-0.8,0.4l0,0c-0.1,0-0.3,0-0.4-0.1l-1.1-0.5c-0.5-0.2-0.7-0.8-0.5-1.2l0.5-1.2C19.4,19.8,19.7,19.6,20.1,19.6z M4.2,16.1c0-0.1,0.1-0.1,0.1-0.2c0.3-0.6,0.6-1.3,0.9-1.9c0,0,0-0.1,0.1-0.1c0.3-0.6,0.6-1.1,1-1.7c0.1-0.1,0.1-0.2,0.2-0.3c0.4-0.6,0.8-1.1,1.2-1.6c0.1-0.1,0.1-0.2,0.2-0.3c0.5-0.5,0.9-1.1,1.4-1.6c0.5-0.5,1-1,1.6-1.4c0.1-0.1,0.2-0.2,0.3-0.3c0.5-0.4,1.1-0.8,1.6-1.2c0.1-0.1,0.2-0.2,0.4-0.2c0.5-0.3,1-0.6,1.6-0.9c0.1,0,0.1-0.1,0.2-0.1c0.6-0.3,1.2-0.6,1.8-0.8c0.1,0,0.2-0.1,0.4-0.1C17.7,3,18.3,2.8,19,2.6V7c-0.1,0-0.2,0.1-0.2,0.1c-0.3,0.1-0.7,0.3-1,0.4c-0.3,0.1-0.5,0.2-0.8,0.3c-0.3,0.2-0.6,0.4-1,0.5c-0.2,0.1-0.5,0.3-0.7,0.4c-0.3,0.2-0.7,0.5-1,0.7c-0.2,0.1-0.4,0.3-0.6,0.4c-0.5,0.4-1,0.9-1.5,1.3c-0.5,0.5-0.9,1-1.3,1.5c-0.2,0.3-0.4,0.5-0.6,0.8c-0.2,0.3-0.4,0.5-0.6,0.8c-0.2,0.3-0.4,0.6-0.5,0.9c-0.1,0.3-0.3,0.5-0.4,0.8c-0.2,0.3-0.3,0.6-0.4,0.9c-0.1,0.3-0.3,0.6-0.4,0.9c0,0.1-0.1,0.2-0.1,0.3H3.5C3.7,17.4,4,16.8,4.2,16.1z M3.1,19.7h4.2c-0.9,3.3-0.9,6.7,0,10H3.1C2.4,26.4,2.4,23,3.1,19.7z M19,46.8c-0.6-0.2-1.3-0.4-1.9-0.7c-0.1,0-0.1-0.1-0.2-0.1c-0.7-0.3-1.3-0.6-1.9-0.9c0,0,0,0-0.1,0c-0.6-0.3-1.2-0.7-1.8-1c-0.1-0.1-0.2-0.1-0.3-0.2c-0.6-0.4-1.1-0.8-1.7-1.2c-0.1-0.1-0.2-0.1-0.2-0.2C10.4,42,9.8,41.5,9.3,41c-0.5-0.5-1-1.1-1.5-1.6c-0.1-0.1-0.1-0.2-0.2-0.2c-0.4-0.5-0.8-1.1-1.2-1.7c-0.1-0.1-0.1-0.2-0.2-0.3c-0.4-0.6-0.7-1.2-1-1.7c0,0,0,0,0-0.1c-0.3-0.6-0.6-1.3-0.9-1.9c0-0.1-0.1-0.1-0.1-0.2C4,32.6,3.7,32,3.5,31.3h4.3c0,0.1,0.1,0.2,0.1,0.3c0.1,0.3,0.3,0.6,0.4,0.9c0.1,0.3,0.3,0.6,0.4,0.9c0.1,0.3,0.3,0.5,0.5,0.8c0.2,0.3,0.3,0.6,0.5,0.9c0.2,0.3,0.4,0.5,0.5,0.7c0.2,0.3,0.4,0.6,0.6,0.8c0.3,0.3,0.6,0.7,0.9,1c0.1,0.1,0.3,0.3,0.4,0.5c0.2,0.2,0.3,0.3,0.5,0.5c0.3,0.3,0.6,0.6,0.9,0.9c0.3,0.2,0.6,0.4,0.9,0.6c0.2,0.2,0.5,0.4,0.7,0.5c0.3,0.2,0.6,0.4,0.9,0.5c0.3,0.2,0.5,0.3,0.8,0.4c0.3,0.1,0.6,0.3,0.9,0.4c0.3,0.1,0.6,0.3,0.9,0.4c0.1,0,0.2,0.1,0.3,0.1V46.8z M30.6,47.2c-3.3,0.7-6.7,0.7-10,0v-4.2c3.3,0.9,6.7,0.9,10,0V47.2z M18.9,34.1c-0.6,0-1-0.5-1-1l0-0.5c0-0.6,0.5-1,1-1l13.6-0.1c0.6,0,1,0.5,1,1l0,0.5c0,0.6-0.5,1-1,1L18.9,34.1z M47,33.2c0,0.1-0.1,0.2-0.1,0.3c-0.3,0.6-0.5,1.2-0.8,1.8c0,0.1-0.1,0.2-0.1,0.2c-0.3,0.5-0.6,1-0.9,1.6c-0.1,0.1-0.2,0.2-0.2,0.4c-0.4,0.5-0.8,1.1-1.2,1.6c-0.1,0.1-0.2,0.2-0.3,0.3c-0.4,0.5-0.9,1.1-1.4,1.6c-0.5,0.5-1,1-1.6,1.4c-0.1,0.1-0.2,0.2-0.3,0.3c-0.5,0.4-1,0.8-1.6,1.2c-0.1,0.1-0.2,0.2-0.4,0.2c-0.5,0.3-1,0.6-1.6,0.9c-0.1,0-0.1,0.1-0.2,0.1c-0.6,0.3-1.2,0.6-1.8,0.8c-0.1,0-0.2,0.1-0.3,0.1c-0.6,0.2-1.2,0.5-1.9,0.7v-4.3c0.1,0,0.2-0.1,0.2-0.1c0.3-0.1,0.7-0.3,1-0.4c0.3-0.1,0.5-0.2,0.8-0.4c0.3-0.2,0.6-0.3,0.9-0.5c0.3-0.2,0.5-0.3,0.8-0.5c0.3-0.2,0.6-0.4,0.9-0.7c0.2-0.2,0.4-0.3,0.6-0.5c0.5-0.4,1-0.9,1.5-1.3c0.5-0.5,0.9-1,1.3-1.5c0.2-0.2,0.4-0.5,0.6-0.8c0.2-0.3,0.4-0.5,0.6-0.8c0.2-0.3,0.4-0.6,0.5-0.9c0.1-0.3,0.3-0.5,0.4-0.8c0.2-0.3,0.3-0.6,0.4-0.9c0.1-0.3,0.3-0.6,0.4-0.9c0-0.1,0.1-0.2,0.1-0.3h4.3C47.5,32,47.3,32.6,47,33.2z M48.1,29.7h-4.2c0.9-3.3,0.9-6.7,0-10h4.2C48.8,23,48.8,26.4,48.1,29.7z"/></symbol><symbol id="icon-lang" viewBox="0 0 20 20"><path d="M17.7115 4.6486C15.9987 2.30028 13.7515 0.968835 10.7944 0.625C12.1778 2.22713 13.1293 3.96093 13.7369 5.89958C15.1203 5.61427 16.4305 5.24117 17.7115 4.6486Z"/><path d="M5.31257 6.9036C4.78751 6.76628 4.27746 6.63289 3.77486 6.47753C3.32573 6.33258 2.88257 6.1667 2.43966 6.00092C2.18962 5.90733 1.93967 5.81377 1.68876 5.72402C0.202865 8.3357 0.341938 12.0447 1.68144 14.2321C2.42998 13.9969 3.17243 13.7616 3.92163 13.5243L3.923 13.5238C4.59448 13.3111 5.27181 13.0965 5.96344 12.8787C5.56818 10.9766 5.5755 9.01606 5.97076 7.07741C5.74843 7.01759 5.52921 6.96025 5.31257 6.9036Z"/><path d="M16.1823 6.44809C15.4687 6.67486 14.7544 6.90184 14.0371 7.12861C14.4324 9.04531 14.4177 10.9913 14.0371 12.8714C15.4864 13.3323 16.8991 13.7785 18.3264 14.2248C19.7318 11.8179 19.7172 8.16011 18.3264 5.7679C17.6093 5.99463 16.8958 6.22136 16.1823 6.44809Z"/><path d="M7.14925 12.7836C6.73935 10.9254 6.75399 9.10383 7.12729 7.28224C7.42576 7.29979 7.71897 7.32062 8.00849 7.3412C8.6845 7.38924 9.34069 7.43587 9.9966 7.43587C10.6525 7.43587 11.3084 7.38926 11.9843 7.34122C12.2738 7.32065 12.5675 7.29978 12.8659 7.28224C13.2685 9.07457 13.2539 10.9108 12.8586 12.7763C10.9408 12.5276 9.067 12.5129 7.14925 12.7836Z"/><path d="M17.7116 15.3441C16.0134 17.6924 13.759 19.0165 10.8018 19.375C12.1633 17.7802 13.1368 16.0537 13.7297 14.1077C15.1058 14.3711 16.4087 14.7661 17.7116 15.3441Z"/><path d="M9.19867 0.625C6.24152 0.976151 3.98706 2.3076 2.23034 4.72907C3.60644 5.15338 4.90202 5.55574 6.24152 5.97273C6.86369 3.9463 7.82989 2.22713 9.19867 0.625Z"/><path d="M9.19867 19.375C6.24884 19.0238 4.0017 17.6997 2.23034 15.2709C2.66907 15.1356 3.0996 15.0026 3.52599 14.8708L3.52785 14.8703C4.43821 14.5889 5.32971 14.3134 6.24152 14.0346C6.86369 16.0391 7.81525 17.7729 9.19867 19.375Z"/><path d="M12.551 6.07516C12.002 4.35599 11.1602 2.85628 9.99639 1.49557C8.82524 2.87823 7.97616 4.37062 7.44914 6.07516C9.16927 6.30195 10.8382 6.30926 12.551 6.07516Z"/><path d="M10.0037 18.5044C8.83988 17.151 7.99812 15.6513 7.44914 13.9321C9.15463 13.6907 10.8235 13.698 12.5583 13.9248C12.0093 15.6367 11.1675 17.1291 10.0037 18.5044Z"/></symbol><symbol id="icon-m" viewBox="0 0 100 100"><path d="M49.5,0.3C22.2,0.3,0,22.5,0,49.8s22.2,49.5,49.5,49.5c27.3,0,49.5-22.2,49.5-49.5S76.9,0.3,49.5,0.3zM77.9,75.1c6-6.7,9.7-15.6,9.7-25.3c0-9.7-3.7-18.6-9.7-25.3l5.8-5.8c7.5,8.2,12.1,19.2,12.1,31.1c0,12-4.6,22.9-12.1,31.1L77.9,75.1z M32.1,30.1c4.3-3.8,9.8-6.2,15.9-6.6v7.8c-4,0.3-7.6,1.9-10.4,4.3L32.1,30.1z M35.4,37.8c-2.4,2.9-4,6.5-4.3,10.4h-7.8c0.4-6.1,2.8-11.6,6.6-15.9L35.4,37.8z M31,51.3c0.3,4,1.9,7.6,4.3,10.4l-5.5,5.5c-3.8-4.3-6.2-9.8-6.6-15.9H31z M32.1,69.4l5.5-5.5c2.9,2.4,6.5,4,10.4,4.3V76C41.9,75.7,36.4,73.2,32.1,69.4z M33.6,49.8c0-8.8,7.2-16,16-16s16,7.2,16,16s-7.2,16-16,16S33.6,58.6,33.6,49.8z M75.8,48.2h-7.8c-0.3-4-1.9-7.6-4.3-10.4l5.4-5.4l0.4,0.4l0,0C73.2,37,75.5,42.3,75.8,48.2z M75.8,51.3C75.5,57.4,73,63,69.2,67.3l-5.5-5.5c2.4-2.9,4-6.5,4.3-10.4H75.8z M67,30.2l-5.4,5.4c-2.9-2.4-6.5-4-10.4-4.3v-7.8c5.9,0.3,11.2,2.6,15.5,6.2l0,0L67,30.2z M51.1,68.3c4-0.3,7.6-1.9,10.4-4.3l5.5,5.5c-4.3,3.8-9.8,6.2-15.9,6.6V68.3z M80.7,15.6l-5.8,5.8c-6.7-6-15.6-9.7-25.3-9.7c-9.7,0-18.6,3.7-25.3,9.7l-5.8-5.8C26.6,8.1,37.6,3.6,49.5,3.6C61.5,3.6,72.5,8.1,80.7,15.6zM15.4,18.6l5.8,5.8c-6,6.7-9.7,15.6-9.7,25.3c0,9.7,3.7,18.6,9.7,25.3l-5.8,5.8C7.9,72.7,3.3,61.8,3.3,49.8C3.3,37.8,7.9,26.9,15.4,18.6z M18.4,84l5.8-5.8c6.7,6,15.6,9.7,25.3,9.7c9.7,0,18.6-3.7,25.3-9.7l5.8,5.8C72.5,91.5,61.5,96,49.5,96C37.6,96,26.6,91.5,18.4,84z"/><path d="M52.6,52.3l4.2-4.2c0.5-0.5,1.3-0.5,1.8,0l0.7,0.7c0.3,0.3,0.3,0.7,0,1L59.2,50c-0.3,0.3-0.7,0.3-1,0l-0.9-0.9c-0.1-0.1-0.1-0.1-0.2,0l-1.6,1.6c-0.1,0.1-0.1,0.1,0,0.2l1.4,1.4c1,1,2.6,1,3.6,0l1.1-1.1l0,0c1-1,1-2.6,0-3.6l-2.1-2.1c-1-1-2.6-1-3.6,0l-1.1,1.1l-1.3-1.3c-1-1-2.6-1-3.6,0l-1.1,1.2l-1.3-1.3c-1-1-2.6-1-3.6,0l-7,7c-0.1,0.1-0.1,0.1,0,0.2c0.9,0.9,2.5,0.9,3.4,0l4.5-4.5c0.5-0.5,1.3-0.5,1.8,0l0.3,0.3c0.1,0.1,0.1,0.2,0,0.2L43,52.1c-0.1,0.1-0.1,0.1,0,0.2c0.9,0.9,2.5,0.9,3.4,0l4.3-4.3c0.5-0.5,1.3-0.5,1.8,0l0.3,0.3c0.1,0.1,0.1,0.1,0,0.2l-3.6,3.6c-0.1,0.1-0.1,0.1,0,0.2C50.2,53.3,51.7,53.3,52.6,52.3z"/></symbol><symbol id="icon-shield" viewBox="0 0 100 100"><path d="M49.9826 99.9325C37.2841 99.9325 24.5959 95.1029 14.9263 85.4332C-4.40252 66.1044 -4.40252 34.6599 14.9263 15.3311C24.2941 5.96332 36.7428 0.811035 49.9826 0.811035C63.2224 0.811035 75.6711 5.96332 85.0389 15.3311C104.368 34.6599 104.368 66.1044 85.0389 85.4332C75.3797 95.0925 62.6811 99.9325 49.9826 99.9325ZM17.5285 82.8311C35.4209 100.724 64.5339 100.724 82.4263 82.8311C100.319 64.9386 100.319 35.8257 82.4263 17.9333C73.7559 9.26286 62.2335 4.49573 49.9722 4.49573C37.7108 4.49573 26.1884 9.27327 17.5181 17.9333C-0.374391 35.8257 -0.374391 64.9386 17.5181 82.8311H17.5285Z"/><path d="M49.3269 68.9355C49.5039 69.3622 49.9202 69.6121 50.3574 69.6121C50.5031 69.6121 50.6489 69.5808 50.7946 69.5288C54.2919 68.0612 57.4769 65.7921 59.9958 62.9609C60.4017 62.5029 60.3601 61.7951 59.9021 61.3892C59.4441 60.9833 58.7364 61.0249 58.3304 61.4829C56.0301 64.0747 53.1261 66.1459 49.9306 67.4782C49.3686 67.7176 49.0979 68.3734 49.3373 68.9355H49.3269Z"/><path d="M68.8729 33.2441L50.3872 25.8539C50.1166 25.7499 49.8251 25.7499 49.5545 25.8539L31.0688 33.2441C30.642 33.4107 30.3713 33.8166 30.3713 34.2746V47.5143C30.3922 59.7341 38.1154 70.7776 49.5857 74.9827C49.7106 75.0243 49.8355 75.0452 49.9708 75.0452C50.1061 75.0452 50.231 75.0243 50.3559 74.9827C61.8263 70.7672 69.5495 59.7341 69.5703 47.5143V34.2746C69.5703 33.8166 69.2997 33.4107 68.8729 33.2441ZM67.3428 47.5143C67.322 58.6307 60.3482 68.7583 49.9812 72.7448C39.6142 68.7583 32.63 58.6307 32.6092 47.5143V35.0344L49.9812 28.0918L67.3428 35.0344V47.5143Z"/><path d="M42.2585 34.9824C41.9878 34.8679 41.686 34.8679 41.4049 34.9824L37.0021 36.7414C36.5754 36.908 36.3047 37.3139 36.3047 37.7719V42.4662C36.3047 43.0803 36.8043 43.5799 37.4184 43.5799C38.0325 43.5799 38.5322 43.0803 38.5322 42.4662V38.5317L42.2272 37.0537C42.5082 36.9392 42.7164 36.731 42.8413 36.4499C42.9558 36.1793 42.9558 35.8775 42.8413 35.5964C42.7268 35.3154 42.5187 35.1073 42.248 34.9824H42.2585Z"/><path d="M78.1259 22.2319C70.6109 14.7065 60.6082 10.5742 49.9706 10.5742C39.333 10.5742 29.3407 14.7169 21.8152 22.2319C6.29596 37.7512 6.29596 63.0129 21.8152 78.5426C29.5801 86.3074 39.7701 90.1794 49.9706 90.1794C60.171 90.1794 70.3611 86.297 78.1259 78.5426C93.6452 63.0233 93.6452 37.7616 78.1259 22.2319ZM72.6198 47.5145C72.651 61.639 63.6267 73.994 50.1684 78.272C50.0434 78.3136 49.9081 78.3136 49.7728 78.272C36.3144 73.994 27.2902 61.639 27.3214 47.5145V31.8911C27.3214 31.6309 27.4775 31.3915 27.7273 31.2874L49.7312 22.4921C49.8041 22.4609 49.8873 22.4505 49.9706 22.4505C50.0539 22.4505 50.1371 22.4609 50.21 22.4921L72.2138 31.2978C72.4636 31.3915 72.6198 31.6309 72.6198 31.9015V47.5249V47.5145Z"/></symbol><symbol id="icon-soccer" viewBox="0 0 100 100"><path class="st0" d="M99.7,49.9c0-9-2.4-17.8-7-25.4c0-0.1-0.1-0.1-0.1-0.2c-4.1-6.8-9.9-12.6-16.7-16.7c-0.1-0.1-0.1-0.1-0.2-0.2c-7.7-4.6-16.5-7-25.4-7c-2.5,0-5.1,0.2-7.5,0.6c0,0,0,0,0,0c-6.3,1-12.4,3.1-17.9,6.4c-0.1,0-0.1,0.1-0.2,0.1c-6.9,4.2-12.6,9.9-16.8,16.8c0,0.1-0.1,0.1-0.1,0.2c-2.4,4-4.2,8.4-5.4,12.9c0,0.1-0.1,0.2-0.1,0.4c-0.4,1.4-0.7,2.9-0.9,4.4c0,0.2-0.1,0.4-0.1,0.6C1,43.3,0.9,44,0.8,44.7c0,0,0,0.1,0,0.1c-0.1,0.7-0.1,1.5-0.2,2.2c0,0.2,0,0.4,0,0.6c0,0.8-0.1,1.5-0.1,2.3c0,0,0,0,0,0c0,0,0,0,0,0c0,0,0,0,0,0c0,0.7,0,1.5,0.1,2.2c0,0.2,0,0.4,0,0.6c0,0.7,0.1,1.3,0.2,2c0,0.2,0,0.4,0.1,0.6C0.9,55.8,1,56.4,1.1,57c0,0.3,0.1,0.6,0.1,0.8c0.1,0.5,0.2,1,0.3,1.6c0.1,0.3,0.1,0.6,0.2,0.9c0.1,0.5,0.2,1,0.3,1.5c0.1,0.3,0.1,0.5,0.2,0.8c0.1,0.5,0.3,1.1,0.5,1.6c0,0.1,0.1,0.3,0.1,0.4c0.2,0.7,0.4,1.3,0.7,2c0.1,0.2,0.1,0.3,0.2,0.5c0.2,0.7,0.5,1.3,0.8,2c0,0,0,0,0,0c0.9,2.1,1.9,4.2,3.1,6.2c0,0,0.1,0.1,0.1,0.1c4.2,6.9,10,12.7,16.9,16.9c0,0,0.1,0.1,0.1,0.1c2.6,1.6,5.3,2.9,8.2,3.9c0.2,0.1,0.3,0.1,0.5,0.2c0.6,0.2,1.3,0.5,2,0.7c0.2,0.1,0.4,0.1,0.5,0.2c0.5,0.1,1,0.3,1.5,0.4c0.3,0.1,0.6,0.1,0.9,0.2c0.5,0.1,1,0.2,1.4,0.3c0.3,0.1,0.7,0.1,1,0.2c0.5,0.1,1,0.2,1.5,0.3c0.3,0,0.6,0.1,0.8,0.1c0.6,0.1,1.2,0.2,1.7,0.2c0.2,0,0.3,0,0.5,0.1c0.7,0.1,1.3,0.1,2,0.2c0.2,0,0.4,0,0.6,0c0.7,0,1.5,0.1,2.2,0.1c0,0,0,0,0,0c0,0,0,0,0,0c0,0,0,0,0,0c0.7,0,1.4,0,2.2-0.1c0.2,0,0.5,0,0.7,0c0.6,0,1.2-0.1,1.8-0.1c0.3,0,0.6-0.1,0.9-0.1c0.5-0.1,1-0.1,1.5-0.2c0.3,0,0.6-0.1,1-0.1c0.4-0.1,0.8-0.1,1.3-0.2c0.5-0.1,1-0.2,1.5-0.3c0.4-0.1,0.8-0.2,1.1-0.3c0.3-0.1,0.7-0.2,1-0.3c0.4-0.1,0.8-0.2,1.2-0.3c0.4-0.1,0.7-0.2,1.1-0.3c0.5-0.2,1-0.3,1.5-0.5c0.2-0.1,0.5-0.2,0.7-0.3c0.5-0.2,1-0.4,1.6-0.6c0.1-0.1,0.3-0.1,0.4-0.2c0.7-0.3,1.3-0.6,2-0.9c0.1,0,0.2-0.1,0.3-0.2c0.6-0.3,1.3-0.6,1.9-1c0,0,0.1,0,0.1-0.1c0.6-0.3,1.2-0.7,1.8-1c0,0,0,0,0.1-0.1c6.9-4.1,12.7-9.9,16.9-16.8c0.1-0.1,0.1-0.2,0.2-0.3C97.3,67.6,99.7,58.8,99.7,49.9z M96.3,52.5c0,0.3,0,0.6-0.1,0.9c0,0.6-0.1,1.2-0.2,1.8c0,0.3-0.1,0.6-0.1,0.9c-0.1,0.6-0.2,1.2-0.3,1.9c0,0.3-0.1,0.5-0.1,0.7c-0.1,0.7-0.3,1.5-0.5,2.2c0,0.1-0.1,0.2-0.1,0.4c-0.2,0.9-0.5,1.7-0.7,2.6c-0.1,0.2-0.1,0.4-0.2,0.6c-0.2,0.6-0.4,1.2-0.7,1.9c-0.1,0.3-0.2,0.6-0.4,0.9c-0.2,0.5-0.4,1-0.6,1.5c-0.1,0.3-0.3,0.7-0.5,1c-0.2,0.5-0.5,1-0.7,1.4c-0.1,0.2-0.2,0.5-0.4,0.7l-6.2-6.2c0,0,0-0.1,0-0.1c0.2-0.5,0.5-1.1,0.7-1.7c0-0.1,0.1-0.1,0.1-0.2c0.2-0.5,0.4-1.1,0.6-1.6c0-0.1,0.1-0.2,0.1-0.3c0.2-0.5,0.3-1.1,0.5-1.6c0-0.1,0.1-0.2,0.1-0.3c0.2-0.6,0.3-1.1,0.4-1.7c0-0.1,0-0.1,0-0.2c0.6-2.6,0.9-5.3,0.9-8c0-2-0.2-4.1-0.5-6c0-0.1-0.1-0.3-0.1-0.4c-0.1-0.5-0.2-1-0.3-1.5c0-0.2-0.1-0.5-0.2-0.7c-0.1-0.4-0.2-0.8-0.3-1.2c-0.1-0.3-0.1-0.5-0.2-0.8c-0.1-0.4-0.2-0.7-0.3-1.1c-0.1-0.3-0.2-0.5-0.3-0.8c-0.1-0.4-0.3-0.7-0.4-1.1c-0.1-0.3-0.2-0.5-0.3-0.8c-0.1-0.4-0.3-0.7-0.4-1.1c-0.1-0.1-0.1-0.3-0.2-0.4l6.1-6.1c0.3,0.5,0.5,1,0.8,1.5c0.1,0.1,0.2,0.3,0.2,0.4c0.2,0.5,0.5,1,0.7,1.5c0.1,0.3,0.2,0.6,0.4,0.9c0.2,0.5,0.4,0.9,0.5,1.4c0.1,0.4,0.3,0.8,0.4,1.2c0.1,0.4,0.3,0.8,0.4,1.2c0.2,0.8,0.5,1.6,0.7,2.3c0.1,0.3,0.1,0.6,0.2,0.8c0.1,0.6,0.3,1.1,0.4,1.7c0.1,0.3,0.1,0.7,0.2,1c0.1,0.5,0.2,1.1,0.3,1.6c0,0.3,0.1,0.7,0.1,1c0.1,0.6,0.1,1.1,0.2,1.7c0,0.3,0.1,0.7,0.1,1c0,0.7,0.1,1.5,0.1,2.2c0,0.1,0,0.3,0,0.4c0,0.1,0,0.2,0,0.3C96.4,50.9,96.3,51.7,96.3,52.5z M89.1,25l-6,6c-3.4-5.9-8.3-10.8-14.2-14.2l6-6C80.6,14.5,85.5,19.3,89.1,25z M71,63.1c-0.1,0.2-0.3,0.2-0.4,0.2c-0.1,0-0.2-0.1-0.3-0.2c-0.7-2.2-1.2-4.6-1.4-6.9c0-0.1,0-0.2,0.1-0.3c1.5-1.8,3.3-3.4,5.2-4.7c0.1-0.1,0.1-0.1,0.2-0.1c0.1,0,0.1,0,0.2,0.1c0.1,0,0.2,0.1,0.2,0.3C74.6,55.6,73.3,59.6,71,63.1L71,63.1z M65.9,84.4l6.2,6.2c-0.3,0.2-0.6,0.3-0.9,0.5c-0.4,0.2-0.8,0.4-1.2,0.6c-0.4,0.2-0.7,0.3-1.1,0.5c-0.5,0.2-0.9,0.4-1.4,0.6c-0.3,0.1-0.7,0.3-1,0.4c-0.6,0.2-1.2,0.4-1.8,0.6c-0.2,0.1-0.4,0.1-0.6,0.2c-0.8,0.3-1.7,0.5-2.5,0.7c-0.1,0-0.2,0.1-0.4,0.1c-0.7,0.2-1.5,0.3-2.2,0.5c-0.2,0-0.5,0.1-0.7,0.1c-0.6,0.1-1.3,0.2-1.9,0.3c-0.3,0-0.5,0.1-0.8,0.1c-0.6,0.1-1.3,0.1-1.9,0.2c-0.2,0-0.5,0-0.7,0.1c-0.9,0.1-1.8,0.1-2.7,0.1c0,0,0,0,0,0c-0.9,0-1.8,0-2.6-0.1c-0.3,0-0.5,0-0.8-0.1c-0.6,0-1.3-0.1-1.9-0.2c-0.3,0-0.6-0.1-0.8-0.1c-0.6-0.1-1.2-0.2-1.9-0.3c-0.3,0-0.5-0.1-0.8-0.1c-0.7-0.1-1.4-0.3-2.1-0.5c-0.2,0-0.3-0.1-0.5-0.1c-0.8-0.2-1.7-0.5-2.5-0.7c-0.3-0.1-0.5-0.2-0.8-0.3c-0.5-0.2-1.1-0.4-1.6-0.6c-0.4-0.1-0.7-0.3-1.1-0.4c-0.4-0.2-0.8-0.3-1.2-0.5c-0.4-0.2-0.8-0.4-1.2-0.5c-0.3-0.2-0.7-0.3-1-0.5c-0.4-0.2-0.7-0.4-1.1-0.5l6.2-6.2c0.1,0,0.2,0.1,0.3,0.1c0.4,0.2,0.9,0.4,1.3,0.6c0.2,0.1,0.3,0.1,0.5,0.2c0.4,0.2,0.9,0.3,1.3,0.5c0.2,0.1,0.4,0.1,0.5,0.2c0.5,0.1,0.9,0.3,1.4,0.4c0.2,0,0.3,0.1,0.5,0.1c0.5,0.1,1,0.2,1.5,0.4c0.1,0,0.3,0.1,0.4,0.1c0.6,0.1,1.2,0.2,1.8,0.3c0,0,0.1,0,0.1,0c2,0.3,4,0.5,6.1,0.5c2.7,0,5.4-0.3,8-0.9c0.1,0,0.2,0,0.3-0.1c0.5-0.1,1.1-0.3,1.6-0.4c0.1,0,0.2-0.1,0.4-0.1c0.5-0.1,1-0.3,1.5-0.5c0.1,0,0.2-0.1,0.4-0.1c0.5-0.2,1-0.4,1.5-0.6c0.1,0,0.2-0.1,0.3-0.1c0.5-0.2,1-0.4,1.5-0.6C65.7,84.5,65.8,84.4,65.9,84.4z M29.9,63c-0.1,0.2-0.2,0.2-0.3,0.2c-0.1,0-0.2,0-0.4-0.2c-2.2-3.5-3.5-7.5-3.8-11.7c0-0.2,0.1-0.3,0.2-0.3c0.1,0,0.2-0.1,0.4,0c1.9,1.4,3.7,3,5.2,4.7c0.1,0.1,0.1,0.2,0.1,0.3C31.1,58.5,30.6,60.8,29.9,63L29.9,63zM28.8,37.4c0.1-0.1,0.2-0.2,0.3-0.2c0,0,0,0,0,0c3.2,0.2,6.4,0,9.5-0.7c0.1,0,0.3,0,0.4,0.1l2.9,4c0.1,0.1,0.1,0.3,0,0.4c-1.9,3.5-3.1,7.2-3.6,11.1c0,0.1-0.1,0.2-0.2,0.3l-4.7,1.5c-0.1,0-0.3,0-0.4-0.1c-2.1-2.4-4.5-4.4-7.3-6.1c-0.1-0.1-0.2-0.2-0.2-0.4C25.9,43.8,27,40.4,28.8,37.4L28.8,37.4z M31.1,34.1c2.7-3.2,6.1-5.7,9.9-7.2c0.1,0,0.1,0,0.1,0c0.1,0,0.2,0.1,0.2,0.1c0.1,0.1,0.2,0.2,0.1,0.4c-0.7,2.3-1.7,4.4-2.9,6.4c-0.1,0.1-0.1,0.1-0.2,0.2c-2.3,0.5-4.6,0.8-7,0.8c-0.2,0-0.3-0.2-0.3-0.2C31,34.4,31,34.2,31.1,34.1L31.1,34.1z M34.4,15.3l-6.1-6.1c0.6-0.3,1.2-0.6,1.7-0.9c0,0,0.1,0,0.1-0.1c0.6-0.3,1.1-0.5,1.7-0.8c0.2-0.1,0.4-0.2,0.6-0.2c0.5-0.2,1.1-0.4,1.6-0.6c0.2-0.1,0.5-0.2,0.7-0.2c1.7-0.6,3.4-1.1,5.2-1.5c0.4-0.1,0.7-0.2,1.1-0.2c0.5-0.1,1-0.2,1.4-0.3c0.4-0.1,0.7-0.1,1.1-0.2c0.5-0.1,1-0.1,1.5-0.2c0.3,0,0.7-0.1,1-0.1c0.5,0,1.1-0.1,1.6-0.1c0.2,0,0.4,0,0.6,0c0.6,0,1.2,0,1.9,0c0.6,0,1.2,0,1.9,0c0.2,0,0.4,0,0.6,0c0.5,0,1.1,0.1,1.6,0.1c0.3,0,0.7,0.1,1,0.1c0.5,0.1,1,0.1,1.5,0.2c0.4,0.1,0.7,0.1,1.1,0.2c0.5,0.1,1,0.2,1.4,0.3c0.4,0.1,0.7,0.2,1.1,0.2c1.8,0.4,3.5,0.9,5.2,1.5c0.2,0.1,0.5,0.2,0.7,0.3c0.5,0.2,1.1,0.4,1.6,0.6c0.2,0.1,0.4,0.2,0.6,0.3c0.6,0.2,1.1,0.5,1.7,0.8c0.1,0,0.1,0.1,0.2,0.1c0.6,0.3,1.1,0.6,1.7,0.9l-6.1,6.1c-0.2-0.1-0.4-0.2-0.6-0.2c-0.2-0.1-0.5-0.2-0.7-0.3c-0.4-0.1-0.7-0.3-1.1-0.4c-0.2-0.1-0.5-0.2-0.7-0.3c-0.4-0.1-0.8-0.3-1.2-0.4c-0.2-0.1-0.4-0.1-0.6-0.2c-0.4-0.1-0.8-0.2-1.3-0.4c-0.2,0-0.4-0.1-0.5-0.1c-0.4-0.1-0.9-0.2-1.3-0.3c-0.2,0-0.3-0.1-0.5-0.1c-0.5-0.1-0.9-0.2-1.4-0.2c-0.2,0-0.4,0-0.6-0.1c-0.4-0.1-0.9-0.1-1.3-0.2c-0.3,0-0.6,0-0.8-0.1c-0.4,0-0.7-0.1-1.1-0.1c-0.7,0-1.3-0.1-2-0.1c0,0,0,0,0,0s0,0,0,0c0,0,0,0,0,0c-0.6,0-1.3,0-1.9,0.1c-0.4,0-0.8,0.1-1.2,0.1c-0.2,0-0.5,0-0.7,0.1c-0.5,0.1-1,0.1-1.5,0.2c-0.1,0-0.3,0-0.4,0.1c-0.5,0.1-1,0.2-1.5,0.3c-0.1,0-0.2,0-0.4,0.1c-0.5,0.1-1,0.2-1.5,0.3c-0.1,0-0.3,0.1-0.4,0.1c-0.5,0.1-0.9,0.3-1.4,0.4c-0.2,0-0.3,0.1-0.5,0.1c-0.4,0.1-0.9,0.3-1.3,0.4c-0.2,0.1-0.3,0.1-0.5,0.2c-0.4,0.2-0.8,0.3-1.3,0.5c-0.2,0.1-0.3,0.1-0.5,0.2C34.9,15.1,34.6,15.2,34.4,15.3z M40.2,72.5c-3.2-1.4-6.1-3.5-8.5-6.2c-0.1-0.1-0.1-0.3-0.1-0.4c1.2-2.9,2-6,2.3-9.2c0-0.1,0.1-0.3,0.2-0.3l4.6-1.5c0,0,0.1,0,0.1,0c0.1,0,0.2,0,0.3,0.1c2.6,2.9,5.9,5.3,9.4,6.9c0.1,0.1,0.2,0.2,0.2,0.3v4.9c0,0.1-0.1,0.3-0.2,0.3c-2.9,1.3-5.6,3-8,5C40.4,72.5,40.3,72.6,40.2,72.5L40.2,72.5z M56.6,73.5L56.6,73.5c0,0.1-0.1,0.2-0.3,0.3c-4,1-8.3,1-12.3,0c-0.2-0.1-0.3-0.2-0.3-0.3c0-0.1,0-0.2,0.1-0.4c1.9-1.4,4-2.6,6.1-3.5c0.1,0,0.2,0,0.3,0c2.2,0.9,4.2,2.1,6.1,3.5C56.6,73.3,56.6,73.5,56.6,73.5z M50.3,59.6c-0.1,0-0.2,0-0.3,0c-3.5-1.5-6.6-3.7-9.1-6.6c-0.1-0.1-0.1-0.2-0.1-0.3c0.5-3.8,1.7-7.4,3.5-10.7c0.1-0.1,0.1-0.2,0.2-0.2c1.8-0.4,3.7-0.6,5.6-0.6c1.9,0,3.8,0.2,5.6,0.6c0.1,0,0.2,0.1,0.2,0.2c1.8,3.3,3,6.9,3.5,10.7h0c0,0.1,0,0.2-0.1,0.3C56.9,55.9,53.7,58.2,50.3,59.6z M56,39.2c-3.8-0.8-7.8-0.8-11.6,0c-0.1,0-0.3,0-0.4-0.1l-2.9-4C41,35,41,34.8,41,34.7c1.6-2.7,2.8-5.7,3.5-8.8c0-0.1,0.1-0.2,0.3-0.3c3.4-0.7,7.1-0.7,10.5,0c0.1,0,0.2,0.1,0.3,0.3c0.7,3.1,1.9,6,3.5,8.8c0.1,0.1,0.1,0.3,0,0.4l-2.9,4C56.2,39.2,56.1,39.3,56,39.2z M58.8,27.3c-0.1-0.2,0.1-0.3,0.1-0.4h0c0,0,0.1-0.1,0.2-0.1c0,0,0.1,0,0.1,0c3.8,1.5,7.3,4,9.9,7.2c0.1,0.2,0.1,0.3,0.1,0.4c0,0.1-0.1,0.2-0.3,0.2c-2.4,0-4.7-0.2-7-0.8c-0.1,0-0.2-0.1-0.2-0.2C60.5,31.7,59.5,29.5,58.8,27.3z M68.6,66.3c-2.4,2.7-5.3,4.8-8.5,6.2c-0.1,0.1-0.3,0-0.4-0.1c-2.4-2.1-5.1-3.8-8-5c-0.1-0.1-0.2-0.2-0.2-0.3v-4.9c0-0.1,0.1-0.3,0.2-0.3c3.6-1.6,6.8-3.9,9.4-6.9c0.1-0.1,0.2-0.1,0.3-0.1c0,0,0.1,0,0.1,0l4.6,1.5c0.1,0,0.2,0.2,0.2,0.3c0.3,3.2,1.1,6.2,2.3,9.2C68.7,66.1,68.7,66.2,68.6,66.3L68.6,66.3z M67.3,53.8c-0.1,0.1-0.2,0.2-0.4,0.1l-4.7-1.5c-0.1,0-0.2-0.2-0.2-0.3c-0.5-3.9-1.7-7.6-3.6-11.1c-0.1-0.1-0.1-0.3,0-0.4l2.9-4c0.1-0.1,0.2-0.2,0.3-0.2c0,0,0.1,0,0.1,0c3.1,0.7,6.3,0.9,9.5,0.7c0.1,0,0.3,0.1,0.4,0.2l0,0c1.8,3.1,2.9,6.4,3.2,10c0,0.1-0.1,0.3-0.2,0.4C71.9,49.4,69.4,51.4,67.3,53.8z M25.3,10.8l6,6c-5.9,3.4-10.8,8.3-14.2,14.2l-6-6C14.8,19.3,19.6,14.5,25.3,10.8z M15.5,65.5c0,0,0,0.1,0,0.1l-6.2,6.2c-0.1-0.2-0.2-0.4-0.3-0.6c-0.3-0.5-0.5-1.1-0.8-1.6c-0.1-0.3-0.3-0.6-0.4-0.9c-0.2-0.5-0.5-1.1-0.7-1.6c-0.1-0.3-0.2-0.5-0.3-0.8c-0.3-0.7-0.5-1.4-0.7-2.1c0-0.1-0.1-0.2-0.1-0.4c-0.3-0.9-0.5-1.7-0.7-2.6c0-0.1,0-0.1,0-0.2c-0.2-0.8-0.4-1.6-0.5-2.4c0-0.2-0.1-0.4-0.1-0.6c-0.1-0.7-0.2-1.3-0.3-2c0-0.2-0.1-0.5-0.1-0.7c-0.1-0.7-0.1-1.3-0.2-2C4,53,4,52.7,4,52.5c-0.1-0.9-0.1-1.8-0.1-2.7c0,0,0,0,0-0.1c0-0.9,0-1.7,0.1-2.6c0-0.3,0-0.5,0.1-0.8c0-0.6,0.1-1.2,0.2-1.8c0-0.3,0.1-0.6,0.1-0.9c0.1-0.6,0.2-1.2,0.3-1.8c0.1-0.3,0.1-0.6,0.2-0.9c0.1-0.6,0.3-1.3,0.4-1.9c0.1-0.2,0.1-0.4,0.1-0.6C5.5,37.6,5.8,36.8,6,36c0.1-0.3,0.2-0.7,0.3-1c0.2-0.5,0.3-0.9,0.5-1.4c0.2-0.4,0.3-0.9,0.5-1.3c0.1-0.3,0.3-0.7,0.4-1C8,30.9,8.2,30.4,8.4,30c0.1-0.2,0.2-0.4,0.3-0.6c0.2-0.5,0.5-0.9,0.7-1.4l6.1,6.1c-0.1,0.2-0.1,0.3-0.2,0.5c-0.1,0.3-0.3,0.6-0.4,0.9c-0.1,0.3-0.2,0.6-0.3,0.9c-0.1,0.3-0.2,0.7-0.4,1c-0.1,0.3-0.2,0.6-0.3,0.9c-0.1,0.3-0.2,0.7-0.3,1c-0.1,0.3-0.2,0.6-0.2,0.8c-0.1,0.4-0.2,0.7-0.3,1.1c-0.1,0.2-0.1,0.5-0.2,0.8c-0.1,0.5-0.2,0.9-0.3,1.4c0,0.2-0.1,0.3-0.1,0.5c-0.3,2-0.5,4-0.5,6c0,2.7,0.3,5.4,0.9,8c0,0.1,0,0.2,0.1,0.2c0.1,0.6,0.3,1.1,0.4,1.7c0,0.1,0.1,0.2,0.1,0.3c0.2,0.5,0.3,1.1,0.5,1.6c0,0.1,0.1,0.2,0.1,0.3c0.2,0.5,0.4,1.1,0.6,1.6c0,0.1,0.1,0.2,0.1,0.2C15,64.4,15.3,64.9,15.5,65.5z M11.1,74.6l6-6c3.4,5.9,8.3,10.8,14.2,14.2l-6,6C19.6,85.2,14.8,80.3,11.1,74.6z M74.9,88.8l-6-6c5.9-3.4,10.8-8.3,14.2-14.2l6,6C85.5,80.4,80.6,85.2,74.9,88.8z"/></symbol></svg>