<svg xmlns="http://www.w3.org/2000/svg" xmlns:xlink="http://www.w3.org/1999/xlink"><defs><filter id="filter0_f_15967_647" x="0.0166779" y="0.935455" width="544.797" height="427.475" filterUnits="userSpaceOnUse" color-interpolation-filters="sRGB"><feFlood flood-opacity="0" result="BackgroundImageFix"/><feBlend mode="normal" in="SourceGraphic" in2="BackgroundImageFix" result="shape"/><feGaussianBlur stdDeviation="39.7346" result="effect1_foregroundBlur_15967_647"/></filter><linearGradient id="paint0_linear_15967_647" x1="83.6504" y1="75.9269" x2="462.407" y2="347.976" gradientUnits="userSpaceOnUse"><stop stop-color="#478BF9"/><stop offset="1" stop-color="#478BF9" stop-opacity="0.4"/></linearGradient></defs><symbol id="icon-crown" viewBox="0 0 51 50"><path d="M8.14346 42.1677C-1.49053 32.5337 -1.49053 16.8597 8.14346 7.22573C17.7774 -2.40825 33.4514 -2.40825 43.0854 7.22573C52.7194 16.8597 52.7194 32.5337 43.0854 42.1677C33.4514 51.8017 17.7774 51.8017 8.14346 42.1677ZM41.921 8.39015C32.9289 -0.60188 18.2999 -0.60188 9.31021 8.39015C0.318183 17.3822 0.318183 32.0112 9.31021 41.0009C18.3022 49.9929 32.9313 49.9929 41.921 41.0009C50.913 32.0089 50.913 17.3798 41.921 8.39015Z" fill="white"/><path d="M42.1876 19.4555C42.1009 19.3688 42.0306 19.2587 41.9908 19.1369C41.1356 16.6066 39.7392 14.3644 37.8415 12.4667C35.9461 10.5713 33.7016 9.1749 31.1713 8.3174C30.8362 8.2026 30.6113 7.891 30.6113 7.53722V1.53238C30.6113 1.27935 30.7285 1.04037 30.9276 0.883392C31.1291 0.726418 31.3892 0.672535 31.6328 0.73345C35.9578 1.81587 39.9173 4.06036 43.0802 7.22561C46.2431 10.3909 48.4876 14.348 49.57 18.673C49.631 18.919 49.5747 19.1791 49.4201 19.3805C49.2631 19.582 49.0241 19.6968 48.7711 19.6968H42.7663C42.5413 19.6968 42.3352 19.6055 42.1829 19.4532L42.1876 19.4555ZM39.0059 11.3022C40.9411 13.2375 42.4008 15.5054 43.352 18.0498H47.6957C46.6039 14.4136 44.6195 11.0914 41.9181 8.39003C39.2168 5.68867 35.8946 3.70424 32.2607 2.61479V6.95852C34.8051 7.90739 37.073 9.36701 39.0083 11.3046L39.0059 11.3022Z" fill="white"/><path d="M8.14273 42.1674C4.97982 39.0045 2.73298 35.045 1.65056 30.72C1.58965 30.474 1.64588 30.2139 1.80051 30.0148C1.95748 29.8133 2.19645 29.6985 2.44948 29.6985H8.45432C8.8081 29.6985 9.12205 29.9234 9.23451 30.2584C10.0897 32.7888 11.486 35.0309 13.3838 36.9287C15.2792 38.8241 17.5237 40.2204 20.054 41.0779C20.389 41.1904 20.6139 41.5043 20.6139 41.8581V47.863C20.6139 48.116 20.4968 48.355 20.2977 48.5119C20.0962 48.6689 19.8361 48.7228 19.5901 48.6619C15.2651 47.5795 11.308 45.335 8.14273 42.1721V42.1674ZM3.52957 31.3432C4.62136 34.9794 6.60578 38.3016 9.30714 41.003C12.0085 43.7043 15.3307 45.6888 18.9669 46.7805V42.4368C16.4225 41.4879 14.1546 40.0283 12.2194 38.0931C10.2841 36.1579 8.8245 33.8899 7.87329 31.3455H3.52957V31.3432Z" fill="white"/><path d="M30.8563 48.4419C30.7017 48.2873 30.615 48.0788 30.615 47.8585V41.8537C30.615 41.4999 30.8399 41.186 31.1749 41.0735C33.7053 40.2184 35.9474 38.822 37.8452 36.9243C39.7429 35.0265 41.1369 32.7844 41.9944 30.254C42.1069 29.919 42.4208 29.6941 42.7746 29.6941H48.7795C49.0325 29.6941 49.2715 29.8112 49.4284 30.0104C49.5854 30.2095 49.6393 30.4719 49.5784 30.7156C48.4936 35.0406 46.2491 38.9977 43.0862 42.163C39.9233 45.3282 35.9638 47.5727 31.6388 48.6551C31.3928 48.7161 31.1328 48.6598 30.9336 48.5052C30.9078 48.4818 30.8821 48.4607 30.8587 48.4372L30.8563 48.4419ZM32.2621 42.4348V46.7785C35.8982 45.6867 39.2204 43.7023 41.9218 41.0009C44.6232 38.2995 46.6053 34.9773 47.6994 31.3411H43.3557C42.4068 33.8855 40.9471 36.1511 39.0096 38.0887C37.0743 40.0239 34.8064 41.4859 32.2621 42.4348Z" fill="white"/><path d="M1.86647 19.4556C1.84304 19.4322 1.81962 19.4064 1.80088 19.3807C1.6439 19.1815 1.59001 18.9191 1.65093 18.6731C2.73335 14.3481 4.97784 10.3886 8.1431 7.22573C11.3083 4.06282 15.2655 1.81599 19.5905 0.73357C19.8365 0.672655 20.0965 0.728881 20.2957 0.883512C20.4948 1.04049 20.612 1.27947 20.612 1.5325V7.53734C20.612 7.89112 20.3871 8.20506 20.052 8.31752C17.5217 9.17268 15.2795 10.569 13.3818 12.4668C11.4864 14.3622 10.09 16.6067 9.23253 19.137C9.12007 19.472 8.80614 19.697 8.45236 19.697H2.44752C2.22729 19.697 2.01641 19.6103 1.86413 19.458L1.86647 19.4556ZM18.9649 2.61491C15.3288 3.7067 12.0065 5.69114 9.30516 8.39249C6.60381 11.0939 4.62172 14.4161 3.52759 18.0523H7.87131C8.82018 15.5079 10.2798 13.2423 12.2174 11.3047C14.1526 9.36948 16.4205 7.90986 18.9649 6.95864V2.61491Z" fill="white"/><path d="M39.0078 11.3024C31.623 3.91762 19.604 3.91527 12.2192 11.3024C4.83202 18.6896 4.83436 30.7063 12.2192 38.0911C19.604 45.4759 31.6207 45.4782 39.0078 38.0911C46.395 30.7039 46.3926 18.6872 39.0078 11.3024Z" fill="white"/><path d="M32.4452 31.4578L18.8379 31.548C18.2647 31.5518 17.8031 32.0196 17.8069 32.5928L17.8101 33.0778C17.814 33.651 18.2817 34.1126 18.8549 34.1088L32.4621 34.0185C33.0354 34.0147 33.497 33.547 33.4932 32.9738L33.4899 32.4888C33.4861 31.9156 33.0184 31.454 32.4452 31.4578Z" fill="#110A1D"/><path d="M20.6917 23.2442C20.5441 23.2442 20.3942 23.2114 20.2583 23.1458L19.197 22.6327C18.7354 22.4078 18.5245 21.8619 18.7167 21.3863L19.204 20.1727C19.3539 19.8025 19.7077 19.5612 20.106 19.5588C20.277 19.5588 20.4457 19.601 20.5957 19.6877L21.8608 20.4093C22.0975 20.5429 22.2685 20.7748 22.3294 21.0419C22.3903 21.309 22.3364 21.5901 22.1818 21.815L21.4883 22.8201C21.3079 23.0825 21.008 23.2419 20.6894 23.2419L20.6917 23.2442Z" fill="#110A1D"/><path d="M30.4863 23.1785C30.1677 23.1785 29.8654 23.0262 29.6827 22.7662L28.9962 21.7985C28.8369 21.576 28.7807 21.2948 28.8369 21.0277C28.8931 20.7606 29.0618 20.5263 29.2985 20.3881L30.6034 19.622C30.751 19.5353 30.9197 19.4884 31.0908 19.4861C31.4891 19.4838 31.8475 19.7204 32.0022 20.0882L32.4942 21.2667C32.691 21.74 32.4871 22.2905 32.0303 22.5201L30.9197 23.0754C30.7862 23.141 30.6362 23.1785 30.4886 23.1785H30.4863Z" fill="#110A1D"/><path d="M19.6226 30.6383C19.0251 30.643 18.4886 30.2681 18.2848 29.7058L16.0145 23.4573C15.8693 23.5276 15.7146 23.5815 15.5577 23.6213C15.3726 23.6682 15.1851 23.6916 14.9954 23.6916C14.8852 23.6916 14.7775 23.6869 14.672 23.6729C13.4889 23.5229 12.5916 22.5084 12.5845 21.3136C12.5752 19.9922 13.6435 18.9098 14.9649 18.9004C16.2863 18.891 17.3687 19.9594 17.3757 21.2808C17.3757 21.5853 17.3242 21.8782 17.2164 22.1523C17.1578 22.3023 17.0852 22.4452 17.0009 22.5811L21.3188 24.6709L24.6223 19.8844C24.4841 19.8258 24.3505 19.7532 24.224 19.6665C23.985 19.5049 23.7765 19.3034 23.6078 19.0667C23.322 18.6638 23.1674 18.1881 23.165 17.6961C23.1557 16.3747 24.224 15.2923 25.5454 15.283C25.604 15.283 25.6649 15.283 25.7235 15.2876C26.9066 15.3673 27.8625 16.3162 27.9492 17.4993C27.9891 18.0593 27.8415 18.5958 27.5228 19.0527C27.3541 19.2917 27.1479 19.4955 26.9113 19.6571C26.7871 19.7438 26.6536 19.8165 26.5154 19.875L29.8774 24.6124L34.1251 22.4874C34.0454 22.3351 33.9822 22.1758 33.9353 22.0094C33.8791 21.8079 33.8486 21.5971 33.8486 21.3839C33.8486 21.2878 33.8533 21.1917 33.8627 21.098C33.9986 19.8938 35.0154 18.98 36.2267 18.973C37.5481 18.9636 38.6305 20.032 38.6375 21.3534C38.6469 22.6139 37.6675 23.6729 36.4094 23.7595L36.2595 23.7642C36.0158 23.7642 35.7768 23.7314 35.5449 23.6611C35.395 23.6143 35.2497 23.5557 35.1138 23.4807L32.9818 29.6074C32.7873 30.1721 32.2531 30.5516 31.6557 30.5563L19.6226 30.6359V30.6383Z" fill="#110A1D"/></symbol><symbol id="icon-dot-blur" viewBox="0 0 545 429"><g opacity="0.55" filter="url(#filter0_f_15967_647)"><path d="M320.35 196.026C423.764 270.306 474.833 330.677 463.889 345.913C452.945 361.15 350.664 317.629 247.249 243.349C143.834 169.069 74.0718 89.2624 79.816 81.2652C85.5602 73.268 216.935 121.747 320.35 196.026Z" fill="url(#paint0_linear_15967_647)"/></g></symbol><symbol id="icon-lang" viewBox="0 0 20 20"><path d="M17.7115 4.6486C15.9987 2.30028 13.7515 0.968835 10.7944 0.625C12.1778 2.22713 13.1293 3.96093 13.7369 5.89958C15.1203 5.61427 16.4305 5.24117 17.7115 4.6486Z"/><path d="M5.31257 6.9036C4.78751 6.76628 4.27746 6.63289 3.77486 6.47753C3.32573 6.33258 2.88257 6.1667 2.43966 6.00092C2.18962 5.90733 1.93967 5.81377 1.68876 5.72402C0.202865 8.3357 0.341938 12.0447 1.68144 14.2321C2.42998 13.9969 3.17243 13.7616 3.92163 13.5243L3.923 13.5238C4.59448 13.3111 5.27181 13.0965 5.96344 12.8787C5.56818 10.9766 5.5755 9.01606 5.97076 7.07741C5.74843 7.01759 5.52921 6.96025 5.31257 6.9036Z"/><path d="M16.1823 6.44809C15.4687 6.67486 14.7544 6.90184 14.0371 7.12861C14.4324 9.04531 14.4177 10.9913 14.0371 12.8714C15.4864 13.3323 16.8991 13.7785 18.3264 14.2248C19.7318 11.8179 19.7172 8.16011 18.3264 5.7679C17.6093 5.99463 16.8958 6.22136 16.1823 6.44809Z"/><path d="M7.14925 12.7836C6.73935 10.9254 6.75399 9.10383 7.12729 7.28224C7.42576 7.29979 7.71897 7.32062 8.00849 7.3412C8.6845 7.38924 9.34069 7.43587 9.9966 7.43587C10.6525 7.43587 11.3084 7.38926 11.9843 7.34122C12.2738 7.32065 12.5675 7.29978 12.8659 7.28224C13.2685 9.07457 13.2539 10.9108 12.8586 12.7763C10.9408 12.5276 9.067 12.5129 7.14925 12.7836Z"/><path d="M17.7116 15.3441C16.0134 17.6924 13.759 19.0165 10.8018 19.375C12.1633 17.7802 13.1368 16.0537 13.7297 14.1077C15.1058 14.3711 16.4087 14.7661 17.7116 15.3441Z"/><path d="M9.19867 0.625C6.24152 0.976151 3.98706 2.3076 2.23034 4.72907C3.60644 5.15338 4.90202 5.55574 6.24152 5.97273C6.86369 3.9463 7.82989 2.22713 9.19867 0.625Z"/><path d="M9.19867 19.375C6.24884 19.0238 4.0017 17.6997 2.23034 15.2709C2.66907 15.1356 3.0996 15.0026 3.52599 14.8708L3.52785 14.8703C4.43821 14.5889 5.32971 14.3134 6.24152 14.0346C6.86369 16.0391 7.81525 17.7729 9.19867 19.375Z"/><path d="M12.551 6.07516C12.002 4.35599 11.1602 2.85628 9.99639 1.49557C8.82524 2.87823 7.97616 4.37062 7.44914 6.07516C9.16927 6.30195 10.8382 6.30926 12.551 6.07516Z"/><path d="M10.0037 18.5044C8.83988 17.151 7.99812 15.6513 7.44914 13.9321C9.15463 13.6907 10.8235 13.698 12.5583 13.9248C12.0093 15.6367 11.1675 17.1291 10.0037 18.5044Z"/></symbol></svg>