<?xml version="1.0" encoding="utf-8"?>
<!-- Generator: Adobe Illustrator 23.0.1, SVG Export Plug-In . SVG Version: 6.00 Build 0)  -->
<svg version="1.1" id="Слой_1" xmlns="http://www.w3.org/2000/svg" xmlns:xlink="http://www.w3.org/1999/xlink" x="0px" y="0px"
	 viewBox="0 0 626 626" style="enable-background:new 0 0 626 626;" xml:space="preserve">
<style type="text/css">
	.st0{display:none;}
</style>
<g transform="translate(0.000000,626.000000) scale(0.100000,-0.100000)">
	<path d="M2969,5370c-203-31-429-203-533-405c-56-110-67-226-44-461c11-118,11-122-10-149c-18-23-22-41-22-101c0-40,6-93,14-116
		c8-24,17-56,21-73c3-16,17-46,30-65s29-62,35-95c13-69,65-205,95-252c11-17,36-57,55-89c68-113,226-252,345-304
		c138-59,327-34,469,63c180,122,335,344,396,564c12,43,34,100,49,128c47,82,69,274,41,337c-9,18-8,44,4,107c19,100,20,283,2,366
		c-30,141-132,277-270,360c-90,54-309,131-471,166C3044,5379,3035,5380,2969,5370z M3125,5246c97-23,235-62,310-89
		c113-40,185-85,260-162c64-65,73-79,99-158c27-84,28-93,23-220c-3-79-11-148-20-172c-8-22-18-61-22-87c-6-42-5-49,19-71
		s25-28,17-68c-25-115-35-146-56-170c-12-15-27-55-34-90c-34-170-170-390-313-504c-203-163-399-149-591,40c-119,117-200,260-244,427
		c-14,57-36,117-49,135c-28,37-62,205-43,212c6,2,20,12,31,23c18,18,19,28,14,80c-4,33-12,72-18,86c-6,15-11,99-12,192
		c-1,162,0,166,28,230c53,118,123,199,244,284c50,35,144,82,177,89C2987,5262,3067,5259,3125,5246z"/>
	<path d="M2573,3331c-70-51-509-233-523-237c-81-23-214-109-257-166c-105-140-192-434-253-858c-14-95-24-368-16-423
		c10-63,44-101,109-123c29-9,599-180,822-214c72-11,1271-11,1345,0c356,52,822,183,898,253c32,29,42,77,42,197
		c0,405-136,986-274,1169c-40,54-346,202-376,213s-468,238-455,218c3-5-38-563-50-590c-8-19-421-1200-425-1200
		c-8,0-439,1193-443,1196c-4,4-86,604-88,604C2627,3369,2601,3352,2573,3331z"/>
	<path class="st0" d="M2941,3117c7-12,49-78,94-147s87-135,94-147c20-40,12-49,180,207c38,58,68,106,67,107c-2,2-33-6-69-18
		c-56-17-85-20-174-16c-61,2-129,11-156,20l-47,16L2941,3117z"/>
	<path class="st0" d="M3085,2729c-33-21-73-49-88-62c-27-22-28-25-18-62c5-22,19-103,30-181c11-77,23-147,26-155c5-13,19-101,80-494
		c29-186,35-206,46-150c25,123,170,1027,166,1031c-15,13-172,114-176,113C3148,2769,3118,2751,3085,2729z"/>
</g>
</svg>
