<?xml version="1.0" encoding="utf-8"?>
<!-- Generator: Adobe Illustrator 23.0.1, SVG Export Plug-In . SVG Version: 6.00 Build 0)  -->
<svg version="1.1" id="Слой_1" xmlns="http://www.w3.org/2000/svg" xmlns:xlink="http://www.w3.org/1999/xlink" x="0px" y="0px"
	 viewBox="0 0 453 418" style="enable-background:new 0 0 453 418;" xml:space="preserve">
<g transform="translate(0.000000,418.000000) scale(0.100000,-0.100000)">
	<path d="M1040,4060l-1025-5V15l3235-5v1765l-190-192V200H200v3670h840v-100h1190v100h830l5-851l185,186v855H2230v120H1040V4060z"/>
	<path d="M2200,1936c0-6-298-833-298-833s710,317,715,317c53,2,1894,1841,1882,1857c-26,31-481,483-487,483
		C4009,3760,2200,1941,2200,1936z M4340,3263l-165-163l-325,325l161,165L4340,3263z M2300,1844c0-115,11-125,28-120
		c38,11.7,168.3,25.1,158-53c-11.5-84-11-119,17-115c41.5,11.5,152-12,118-52c-14-18-402-204-411-204c-5,0-139,132-139,132
		s113.7,314,163.3,430C2268.3,1941.1,2300,1913,2300,1844z"/>
</g>
</svg>
