<?xml version="1.0" standalone="no"?>
<!DOCTYPE svg PUBLIC "-//W3C//DTD SVG 20010904//EN"
 "http://www.w3.org/TR/2001/REC-SVG-20010904/DTD/svg10.dtd">
<svg version="1.0" xmlns="http://www.w3.org/2000/svg"
 width="112.000000pt" height="98.000000pt" viewBox="0 0 112.000000 98.000000"
 preserveAspectRatio="xMidYMid meet">

<g transform="translate(0.000000,98.000000) scale(0.100000,-0.100000)"
fill="#000000" stroke="none">
<path d="M480 950 c-51 -14 -72 -37 -161 -172 -98 -147 -108 -180 -57 -186 25
-3 35 8 111 125 46 70 93 136 105 147 40 35 64 16 148 -112 256 -389 377 -577
382 -594 11 -44 -7 -48 -234 -48 -180 0 -215 -2 -228 -16 -19 -18 -19 -20 -6
-45 10 -18 23 -19 231 -19 246 0 276 6 306 63 31 61 20 85 -229 464 -164 251
-242 362 -263 374 -40 22 -74 28 -105 19z"/>
<path d="M555 570 c-3 -5 -3 -10 1 -10 4 0 -1 -6 -11 -14 -10 -7 -26 -11 -35
-9 -22 6 -48 -43 -32 -59 16 -16 15 -45 0 -51 -10 -3 -9 -11 3 -33 11 -21 21
-28 38 -26 16 3 24 -2 28 -17 4 -17 13 -21 44 -21 28 0 39 4 39 15 0 14 5 17
39 19 21 2 59 58 44 63 -15 6 -17 39 -3 48 6 4 4 17 -5 36 -11 21 -23 29 -41
29 -17 0 -28 7 -31 20 -4 15 -14 20 -39 20 -18 0 -36 -4 -39 -10z m84 -75 c21
-20 17 -66 -9 -87 -29 -23 -55 -23 -80 2 -58 58 29 141 89 85z"/>
<path d="M218 483 c-18 -3 -28 -11 -28 -21 0 -21 -55 -53 -75 -46 -20 8 -42
-12 -67 -60 -18 -36 -19 -41 -4 -51 21 -16 22 -81 0 -89 -18 -7 -12 -34 20
-84 16 -25 26 -32 45 -29 29 6 81 -23 81 -44 0 -11 12 -19 33 -23 47 -9 97 3
97 23 0 20 55 52 75 45 20 -8 42 12 67 60 18 36 19 41 4 51 -21 16 -21 74 0
90 15 10 14 15 -4 51 -25 48 -47 68 -67 60 -21 -8 -75 25 -75 47 0 9 -8 17
-17 17 -10 0 -27 2 -38 4 -11 2 -32 1 -47 -1z m76 -127 c43 -18 66 -51 66 -96
0 -71 -69 -122 -136 -100 -94 31 -101 156 -10 196 39 17 40 17 80 0z"/>
<path d="M217 308 c-28 -22 -32 -63 -8 -87 42 -42 104 -18 104 39 0 51 -55 79
-96 48z"/>
</g>
</svg>
