<?xml version="1.0" encoding="utf-8"?>
<!-- Generator: Adobe Illustrator 23.0.1, SVG Export Plug-In . SVG Version: 6.00 Build 0)  -->
<svg version="1.1" id="Слой_1" xmlns="http://www.w3.org/2000/svg" xmlns:xlink="http://www.w3.org/1999/xlink" x="0px" y="0px"
	 viewBox="0 0 512 512" style="enable-background:new 0 0 512 512;" xml:space="preserve">
<path d="M452,512H60c-33.1,0-60-26.9-60-60V60C0,26.9,26.9,0,60,0h392c33.1,0,60,26.9,60,60v392C512,485.1,485.1,512,452,512z
	 M60,30c-11,0-30,13-30,30v392c0,19,19,30,30,30h392c11,0,30-10,30-30V60c0-18-19-30-30-30H60z"/>
<path d="M284.8,209.8c0-18.8-13.3-30.2-32.1-30.2h-51v30.2h52.9v187h-35.9V427h102v-30.2h-35.9V209.8z"/>
<circle cx="245" cy="115.3" r="28.3"/>
</svg>
