<?xml version="1.0" encoding="utf-8"?>
<!-- Generator: Adobe Illustrator 23.0.1, SVG Export Plug-In . SVG Version: 6.00 Build 0)  -->
<svg version="1.1" id="Capa_1" xmlns="http://www.w3.org/2000/svg" xmlns:xlink="http://www.w3.org/1999/xlink" x="0px" y="0px"
	 viewBox="0 0 511.9 511.9" style="enable-background:new 0 0 511.9 511.9;" xml:space="preserve">
<style type="text/css">
	.st0{display:none;}
</style>
<g>
	<g>
		<g>
			<path class="st0" d="M490.1,12.8H132.6c-12,0-21.7,9.7-21.8,21.8v98.6l-16.3-24.5C87,97.4,71.9,94,60.3,101l-33.6,20.2
				c-11,6.5-19.1,16.9-22.5,29.2C-8.1,195.1,1,272.1,114,385.1c89.9,89.8,156.9,113.9,203,113.9c10.7,0,21.3-1.3,31.7-4.1
				c12.3-3.4,22.8-11.5,29.3-22.5l20.2-33.7c7-11.6,3.6-26.6-7.7-34.1L309.9,351c-11-7.3-25.9-4.9-34,5.5l-23.4,30.1
				c-2.5,3.2-6.9,4.2-10.4,2.2l-4.5-2.5c-14.7-8-33-18-69.9-54.9c-4-4-7.6-7.7-11-11.3h333.5c12,0,21.7-9.7,21.8-21.7v-264
				C511.9,22.6,502.1,12.8,490.1,12.8z M229.3,401.4l4.3,2.4c10.9,6.1,24.6,3.3,32.2-6.6l23.5-30.1c2.7-3.4,7.5-4.2,11.1-1.8
				l80.5,53.7c3.7,2.4,4.8,7.3,2.5,11.1l-20.2,33.7c-4.2,7.2-11.1,12.6-19.1,14.8c-40.3,11.1-110.9,1.7-218.1-105.4
				S9.6,195.3,20.6,155c2.3-8.1,7.6-14.9,14.8-19.1l33.7-20.2c3.8-2.3,8.7-1.2,11.1,2.5l53.7,80.5c2.4,3.6,1.6,8.4-1.8,11.1
				L102,233.2c-9.9,7.6-12.7,21.3-6.6,32.2l2.4,4.3c8.5,15.6,19.1,35.1,57.8,73.8C194.2,382.2,213.7,392.8,229.3,401.4z
				 M494.8,298.5c0,2.6-2.1,4.6-4.7,4.6H141.2c-11.1-12.7-20.6-26.6-28.5-41.5l-2.5-4.5c-2-3.5-1-8,2.2-10.4l30.2-23.5
				c10.4-8.2,12.8-23,5.5-34l-20.3-30.4V34.6c0-1.2,0.5-2.5,1.4-3.3c0.9-0.9,2.1-1.4,3.3-1.4h357.5c1.2,0,2.5,0.5,3.3,1.4
				c0.9,0.9,1.4,2.1,1.4,3.3L494.8,298.5L494.8,298.5z"/>
			<path d="M261.6,312l-46.1-38.8c-6.3-5.3-15.7-4.8-21.4,1.1l-16.6,17c-1.7,1.8-4.6,2.1-6.6,0.6l-2.6-1.8
				c-8.5-6-19.1-13.4-39.4-38.8c-1.1-1.4-9.1-11.3-15.5-21.4c-6.6-10.4-11.8-20.9-13.6-25.6l-1.2-2.9c-1-2.3-0.1-5,2.1-6.3
				l20.3-12.4c7-4.3,9.5-13.3,5.8-20.7L99,108.4c-3.8-7.5-12.9-10.6-20.6-7.1l-22.2,10.2c-7.3,3.2-13,9.2-16,16.5
				c-10.7,26.8-10.4,75,51.7,152.7c49.4,61.7,89.1,81.3,117.7,84.5c6.6,0.8,13.3,0.6,19.9-0.4c7.8-1.3,14.9-5.5,19.7-11.9l14.8-19.4
				C269.1,326.9,268,317.4,261.6,312z M255.5,327.1l-14.8,19.4c-3.1,4.2-7.7,7-12.9,7.9c-25.7,4.1-68.7-6.6-127.6-80.3
				S40.5,156.1,50.1,132c2-4.8,5.7-8.7,10.5-10.8L82.9,111c2.5-1.1,5.4-0.1,6.7,2.3l27.7,53.5c1.2,2.4,0.4,5.3-1.9,6.7L95,186
				c-6.7,4-9.3,12.3-6.3,19.5l1.2,2.8c4.2,10.3,9.4,23,30.6,49.6c21.2,26.6,32.5,34.5,41.6,40.9l2.5,1.8c6.3,4.5,15,3.7,20.4-1.9
				l16.6-17c1.9-1.9,4.9-2.1,7-0.3l46.1,38.8C256.8,321.9,257.2,325,255.5,327.1z"/>
			<path d="M490.1,12.8H132.6c-12,0-21.7,9.7-21.8,21.8v85.3l17.1,21.8V34.6c0-1.2,0.5-2.5,1.4-3.3s2.1-1.4,3.3-1.4h357.5
				c1.2,0,2.5,0.5,3.3,1.4c0.9,0.9,1.4,2.1,1.4,3.3v264h0c0,2.6-2.1,4.6-4.7,4.6H155.7l16.8,17h317.7c12,0,21.7-9.7,21.8-21.7v-264
				C511.9,22.6,502.1,12.8,490.1,12.8z"/>
			<path d="M460.7,52.3L318.1,160.5c-4,2.9-9.5,2.9-13.5,0L162,52.3c-3.8-2.8-9.1-2.1-12,1.6c-2.8,3.8-2.1,9.1,1.6,12l142.6,108.2
				c10.1,7.5,24,7.5,34.1,0L471,65.9c1.8-1.4,3-3.4,3.3-5.6s-0.3-4.5-1.7-6.3C469.8,50.2,464.5,49.5,460.7,52.3z"/>
			<path d="M238.5,174.8l-87.4,93.6c-3.2,3.4-3,8.8,0.4,12.1c3.4,3.2,8.8,3,12.1-0.4l87.4-93.7c2.9-3.5,2.6-8.6-0.8-11.7
				C246.9,171.6,241.8,171.7,238.5,174.8z"/>
			<path d="M384.7,174.8c-3.2-3.4-8.6-3.6-12.1-0.4c-3.4,3.2-3.6,8.6-0.4,12.1l87.4,93.6c3.2,3.4,8.6,3.6,12.1,0.4
				c3.4-3.2,3.6-8.6,0.4-12.1L384.7,174.8z"/>
		</g>
	</g>
</g>
</svg>
