<svg height="383pt" viewBox="0 -28 383.42873 383" width="383pt" xmlns="http://www.w3.org/2000/svg"><path d="m288.179688 65.238281c-4.863282 0-9.714844.371094-14.519532 1.105469-15.410156-41.21875-55.566406-67.863281-99.535156-66.042969-43.96875 1.820313-81.785156 31.695313-93.734375 74.042969-.679687 2.636719.867187 5.328125 3.488281 6.066406 2.617188.738282 5.34375-.753906 6.136719-3.355468 10.964844-38.890626 46.082031-66.035157 86.480469-66.84375 40.402344-.808594 76.574218 24.90625 89.089844 63.328124.789062 2.40625 3.25 3.847657 5.738281 3.355469 31.84375-6.417969 64.566406 5.820313 84.386719 31.554688 19.816406 25.738281 23.289062 60.503906 8.949218 89.648437-14.339844 29.148438-43.996094 47.613282-76.480468 47.621094-2.761719 0-5 2.238281-5 5s2.238281 5 5 5c52.605468 0 95.25-42.644531 95.25-95.25s-42.644532-95.25-95.25-95.25zm0 0"/><path d="m255.519531 217.640625h-20.257812c-1.5625 0-2.828125-1.269531-2.832031-2.832031v-78.988282c-.003907-7.082031-5.746094-12.824218-12.832032-12.835937h-56.335937c-7.082031.011719-12.824219 5.753906-12.832031 12.835937v79c0 1.566407-1.269532 2.832032-2.832032 2.832032h-20.257812c-2.761719 0-5 2.238281-5 5 0 2.761718 2.238281 5 5 5h20.257812c7.085938-.007813 12.824219-5.746094 12.832032-12.832032v-79c0-1.5625 1.269531-2.832031 2.832031-2.835937h56.335937c1.566406.003906 2.832032 1.273437 2.832032 2.835937v79c.011718 7.085938 5.75 12.824219 12.832031 12.832032h20.257812c1.082031 0 2.070313.613281 2.546875 1.582031.476563.96875.363282 2.128906-.300781 2.984375l-64.09375 83.304688c-.535156.695312-1.363281 1.101562-2.242187 1.101562-.878907 0-1.707032-.40625-2.242188-1.101562l-52.179688-67.835938c-.796874-1.402344-2.367187-2.175781-3.964843-1.953125h-51.457031c-39.4375-.488281-71.179688-32.546875-71.273438-71.988281s31.496094-71.652344 70.929688-72.324219c1.421874.125 2.832031-.335937 3.90625-1.273437 1.074218-.9375 1.71875-2.273438 1.78125-3.699219.046874-1.3125-.4375-2.589844-1.347657-3.535157-.910156-.949218-2.164062-1.488281-3.480469-1.492187-.144531 0-.371093-.023437-.515624-.023437-45.148438.3125-81.585938 37.003906-81.585938 82.15625 0 45.152343 36.4375 81.84375 81.585938 82.160156h48.992187l50.679687 65.882812c2.429688 3.160156 6.1875 5.011719 10.171876 5.011719 3.984374 0 7.746093-1.851563 10.171874-5.011719l64.09375-83.296875c2.980469-3.875 3.5-9.109375 1.339844-13.496093-2.160156-4.386719-6.625-7.164063-11.515625-7.164063zm0 0"/></svg>