<svg height="480pt" viewBox="0 0 480 480" width="480pt" xmlns="http://www.w3.org/2000/svg"><path d="m400 208h16v16h-16zm0 0"/><path d="m480 120h-48v-120h-224v120h-32v-32h-128v-88h-16v120h-32v336h32v24h144v-24h304zm-256-104h192v160h-192zm-208 120h16v304h-16zm144 328h-112v-360h112zm304-24h-288v-304h32v40h-16v16h256v-16h-16v-40h32zm0 0"/><path d="m208 296h64v-48h-64zm16-32h32v16h-32zm0 0"/><path d="m288 296h64v-48h-64zm16-32h32v16h-32zm0 0"/><path d="m368 296h64v-48h-64zm16-32h32v16h-32zm0 0"/><path d="m208 360h64v-48h-64zm16-32h32v16h-32zm0 0"/><path d="m288 360h64v-48h-64zm16-32h32v16h-32zm0 0"/><path d="m368 360h64v-48h-64zm16-32h32v16h-32zm0 0"/><path d="m208 424h64v-48h-64zm16-32h32v16h-32zm0 0"/><path d="m288 424h64v-48h-64zm16-32h32v16h-32zm0 0"/><path d="m368 424h64v-48h-64zm16-32h32v16h-32zm0 0"/><path d="m240 208h144v16h-144zm0 0"/><path d="m256 32h16v16h-16zm0 0"/><path d="m288 32h96v16h-96zm0 0"/><path d="m256 64h16v16h-16zm0 0"/><path d="m288 64h96v16h-96zm0 0"/><path d="m256 96h16v16h-16zm0 0"/><path d="m288 96h96v16h-96zm0 0"/><path d="m256 128h16v16h-16zm0 0"/><path d="m288 128h96v16h-96zm0 0"/></svg>