<?xml version="1.0" encoding="utf-8"?>
<!-- Generator: Adobe Illustrator 23.0.1, SVG Export Plug-In . SVG Version: 6.00 Build 0)  -->
<svg version="1.1" id="Слой_1" xmlns="http://www.w3.org/2000/svg" xmlns:xlink="http://www.w3.org/1999/xlink" x="0px" y="0px"
	 viewBox="0 0 2400 2151" style="enable-background:new 0 0 2400 2151;" xml:space="preserve">
<g transform="translate(0.000000,2151.000000) scale(0.100000,-0.100000)">
	<path d="M11870,20080c-450-40-853-336-1181-867c-114-184-9114-15789-9164-15888c-144-289-209-542-209-815c0-343,114-623,348-855
		c231-229,527-360,946-417c142-19,18578-19,18725,0c570,75,967,320,1170,722c200,396,160,906-109,1415
		c-70,132-9047,15686-9139,15835c-96,155-133,207-232,327C12705,19921,12290,20117,11870,20080z M12155,19616c94-25,252-108,342-181
		c174-140,288-291,511-680c41-71,107-186,147-255c39-69,107-186,150-260c126-219,224-389,280-485c49-85,101-175,280-485
		c42-74,111-193,152-265c42-71,108-186,147-255c40-69,107-185,149-257c106-183,220-381,282-488c29-49,86-150,128-223
		c42-72,110-189,150-260c40-70,109-188,152-262c74-129,125-217,300-520c43-74,112-193,153-265c41-71,98-170,127-220
		c28-49,86-150,128-222c72-125,112-193,301-520c129-226,221-384,281-488c32-55,90-156,130-225s107-186,150-260s111-192,152-262
		c82-143,191-333,278-483c61-106,157-271,281-487c42-73,111-191,152-263c41-71,108-186,147-255c40-69,98-170,130-225
		c59-102,142-245,280-485c43-74,110-191,150-260s116-201,170-295c54-93,139-239,187-324c49-84,132-228,185-320
		c53-91,129-223,169-293c41-71,107-185,148-255c168-293,448-777,518-898c41-71,607-1052,1258-2180c651-1127,1207-2099,1236-2160
		c103-213,148-395,147-590c-3-436-288-717-823-811c-102-18-397-19-9395-19H2675l-117,22c-151,29-319,89-422,150
		c-50,29-113,80-163,130c-66,66-90,99-127,175c-67,135-81,197-81,358c0,75,6,166,14,205c21,106,76,268,130,380
		c26,55,2615,4547,2726,4740c90,156,395,685,540,935c40,69,106,184,147,255c41,72,118,205,171,296c53,92,136,236,185,320
		c48,85,133,231,187,324c94,164,163,282,319,553c109,189,216,374,281,487c32,55,90,156,130,225c39,69,107,186,150,260
		s110,191,150,260s98,170,130,225c79,137,167,290,429,743c42,72,109,189,149,260c41,70,100,172,132,227c67,117,144,250,430,745
		c190,329,232,402,300,520c40,69,132,229,205,355c73,127,165,286,205,355s107,186,150,260s112,194,153,265c42,72,109,187,149,257
		c40,71,108,188,150,260c42,73,99,174,128,223c62,107,176,305,282,488c42,72,109,188,149,257c39,69,105,184,147,255
		c41,72,108,189,150,260c41,72,110,191,152,265c43,74,102,176,130,225c58,99,169,292,280,485c239,415,293,496,425,634
		c164,173,349,283,533,316C11923,19642,12081,19635,12155,19616z"/>
	<path d="M8470,11179c-239-5-466-13-505-19c-151-23-268-118-349-281c-39-80-56-134-107-354c-73-311-77-367-35-439
		c16-28,178-200,385-410c265-267,363-374,380-410c19-37,30-98,52-275c15-124,33-281,38-348c15-174,34-218,135-318
		c105-104,2266-2149,2275-2153c4-1,31,123,59,275c276,1461,412,2151,448,2264c77,245,213,381,441,439c182,47,860,94,1733,121
		c414,13,1507,7,1855-10c286-14,702-40,745-46l35-5l-27,15c-57,32-1065,457-1883,795c-1367,564-2622,1067-2692,1079
		c-104,18-779,63-1213,81C9962,11191,9115,11191,8470,11179z"/>
	<path d="M7584,9702c-5-37-8-218-8-402c-1-316,1-340,21-413c54-190,121-282,426-586l225-223l4-163l3-162l45-59
		c54-70,594-614,802-806c80-75,451-405,823-733c512-451,690-603,731-622c50-23,170-51,284-68c40-5,59-19,170-120l125-114l6,77
		c3,43,12,102,19,131l13,53l-54,53c-30,29-648,614-1374,1300C8288,8317,8317,8289,8283,8343c-42,67-63,142-73,261
		c-21,241-62,563-78,600c-11,26-101,124-278,302l-262,264L7584,9702z"/>
	<path d="M13600,9154c-1053-33-1705-76-1888-125c-95-25-144-51-203-106c-141-132-138-118-483-1943c-92-481-168-885-171-896
		c-4-17,34-58,196-210c111-104,204-190,208-192c5-1,36,75,71,170c447,1236,788,2155,830,2238c80,158,257,333,422,416
		c128,64,218,83,473,99c1173,73,2433,102,3285,75c363-11,932-37,1005-46c30-3,46-2,40,4c-11,9-830,364-894,386
		c-118,42-603,86-1286,116C14973,9151,13813,9161,13600,9154z"/>
	<path d="M14825,8559c-596-15-1765-69-1938-89c-228-27-442-166-582-378c-57-87-153-338-705-1857c-120-330-223-612-229-627l-11-28
		h109h108l53,148c371,1032,794,2174,826,2229c69,119,194,230,314,279c82,33,151,40,610,64c1694,87,2604,89,3969,10
		c380-22,404-27,419-84c5-17,7-47,4-66c-2-19-211-567-463-1217c-253-650-459-1185-459-1188s48-4,107-3l108,3l447,1155
		c294,757,452,1177,458,1218c27,166-55,300-213,347c-33,10-170,22-387,35C16402,8566,15681,8580,14825,8559z"/>
	<path d="M16125,8143c0-60-7-200-14-313c-12-159-15-444-15-1260l-1-1055l-37-78c-26-53-56-97-96-136c-104-105-169-125-444-140
		c-507-28-2915-101-3448-104l-275-2l-62,26c-33,14-74,37-91,50c-77,63-119,174-109,286l6,63h-74c-83,0-76,7-96-97
		c-42-224,121-425,399-489c72-17,134-15,2707,66c1343,43,1290,39,1414,102c127,65,294,253,350,395c36,93,292,1656,367,2248
		c27,207,38,488,22,528c-7,16-29,17-255,17h-248V8143z"/>
	<path d="M16759,8100c6-214-44-605-210-1624c-38-236-69-434-69-440c0-11,259-211,265-204c6,8,905,2331,903,2334c-4,3-438,30-628,39
		c-69,3-157,8-195,11l-70,5L16759,8100z"/>
	<path d="M12905,7793c-87-19-159-73-197-146c-15-31-41-210-128-905c-59-477-107-868-106-870c4-3,2054,35,2239,42c107,4,135,8,180,29
		c57,26,100,65,124,111c9,18,58,347,129,874c63,465,114,852,114,859c0,11-214,13-1167,12C13450,7798,12916,7796,12905,7793z
		 M13996,7620c321-82,555-336,613-664c42-235-38-501-204-684c-238-262-632-339-954-187c-331,157-516,506-460,867
		c50,320,292,586,609,668C13706,7647,13889,7647,13996,7620z"/>
	<path d="M13700,7510c-30-5-75-15-100-22l-44-14l55-31c64-36,113-89,143-152c16-36,21-66,21-136c0-78-4-97-27-140
		c-35-68-92-122-158-154c-75-35-191-37-265-3c-60,27-129,92-157,147l-21,40l-14-40c-23-63-28-237-9-325c43-201,186-384,371-474
		c104-51,183-69,305-69s201,18,306,69c333,163,479,577,320,909c-113,237-329,383-591,399C13791,7517,13730,7515,13700,7510z"/>
	<path d="M15415,7789c-3-4-62-406-130-891c-68-486-129-900-135-921c-17-57-86-122-152-142c-58-17-311-24-1588-45
		c-371-6-740-13-819-16l-143-6l5-45c6-54,53-108,107-124c24-7,434-4,1295,9l1260,18l53,24c62,27,133,100,150,156
		c22,71,284,1807,277,1840c-7,38-41,90-76,116C15489,7785,15422,7802,15415,7789z"/>
	<path d="M6310,6631c-289-49-543-96-564-105c-77-32-76-35,31-86c151-73,223-140,264-248c92-247,176-674,215-1093
		c21-223,24-778,6-1004c-49-590-147-1135-245-1356c-44-99-141-186-297-265c-70-36-72-38-46-45c39-11,125,5,304,57
		c235,68,967,312,1047,348c74,35,129,86,163,153c56,110,174,484,237,748l33,140l103-2c57-1,464-29,904-62c881-67,1299-96,1507-107
		l137-7l-5,139c-9,235-51,715-65,728c-2,2-247,25-544,51c-1520,130-1504,128-1611,180c-135,66-229,204-249,369l-7,55l-59,7l-58,6
		l-6,42c-3,22-16,136-30,251c-42,348-78,527-151,765c-41,132-82,223-116,261c-40,46-133,115-191,143c-43,20-70,26-119,25
		C6863,6719,6599,6679,6310,6631z M7171,5339c43-19,108-74,98-82c-2-3-38-1-79,2c-98,8-150-1-235-43c-154-76-248-213-301-441
		c-15-62-19-117-18-240c1-182,18-267,79-391c71-145,142-207,252-219l68-8l-60-29c-48-23-69-28-104-24c-127,16-272,159-340,336
		c-49,127-65,226-65,405c0,190,20,290,87,425c79,161,246,298,402,329C7021,5372,7114,5363,7171,5339z"/>
	<path d="M9254,6572c4-7,129-188,277-403l270-391l146-330l147-331l43-19c62-27,237-65,388-83c148-18,727-32,762-18c21,8,17,13-55,75
		c-43,36-129,112-191,168l-113,103l-86,14c-117,18-237,56-292,91c-25,16-320,272-656,568C9241,6592,9242,6592,9254,6572z"/>
	<path d="M5656,6314c-3-9-6-848-6-1865V2599l91,48c148,77,170,113,239,388c88,350,150,824,169,1313c25,601-50,1253-195,1713
		c-43,134-72,170-183,228C5685,6334,5665,6338,5656,6314z"/>
	<path d="M15640,5983c-38-15-74-50-92-91c-28-63-18-120,30-171c66-70,154-74,227-10c111,98,37,281-112,278
		C15672,5989,15648,5986,15640,5983z"/>
	<path d="M11980,5858c-108-74-109-219-1-282c42-24,114-26,158-3c76,40,108,158,61,226c-36,52-71,74-130,79
		C12024,5881,12009,5878,11980,5858z"/>
	<path d="M7760,5182c0-48,65-164,120-216c76-71,137-95,287-111c121-13,1075-97,1691-148c155-13,285-27,289-30c15-16,59-441,77-752
		c15-251,22-287,72-372c32-55,109-117,174-138c27-9,50-20,50-24c0-19,105-111,159-140c99-53,196-73,351-74c148-1,231,14,325,58
		c61,29,149,104,170,145c10,19,25,30,47,34c57,11,156,64,206,110c60,56,100,134,113,218c13,83,119,958,119,980c0,14-18,17-132,20
		c-152,5-237,27-355,94l-68,39l-330-3c-432-4-688,16-915,74c-112,28-104,28-96,9c3-8,1-15-4-15c-16,0-2272,259-2312,266
		C7761,5212,7760,5211,7760,5182z"/>
</g>
</svg>
