<svg id="Слой_1" data-name="Слой 1" xmlns="http://www.w3.org/2000/svg" viewBox="0 0 725 649.96"><title>icon-developer</title><path d="M716.11,518.39,420.86,29.59C397-10.22,339.31-10.08,315.51,29.52L145.86,309.42l45.82,5.75,159.64-264a19.65,19.65,0,0,1,33.73.08L680.31,540a19.65,19.65,0,0,1-16.87,29.73H321.89l-22.2,41.82H663.44C711.18,611.44,740.77,559.48,716.11,518.39Z" transform="translate(0 0.22)"/><path d="M354.33,285l-20.14,2-2.75,11.28a15.7,15.7,0,0,1-7.81,10.06h0a15.28,15.28,0,0,1-12.71.91l-10.86-3.93L287.28,321l6,9.87a16,16,0,0,1,1.61,12.61h0a15.5,15.5,0,0,1-8.28,9.63l-10.44,5,2,20.13L289.48,381a15.65,15.65,0,0,1,10.06,7.81h0a15.32,15.32,0,0,1,.92,12.71l-3.94,10.86,15.72,12.78,9.87-6a16,16,0,0,1,12.6-1.61h0a15.5,15.5,0,0,1,9.63,8.28l5,10.44,20.14-2L372.24,423a15.65,15.65,0,0,1,7.81-10.06h0a15.3,15.3,0,0,1,12.72-.92l10.85,3.94,12.78-15.72-6-9.87a16,16,0,0,1-1.61-12.6h0a15.27,15.27,0,0,1,8.28-9.63l10.44-5-2-20.14-11.18-2.77a15.83,15.83,0,0,1-10.16-7.79h0a15.18,15.18,0,0,1-.88-12.52l3.92-11-15.72-12.78-9.87,6a16,16,0,0,1-12.6,1.61h0a15.55,15.55,0,0,1-9.63-8.29Zm24.8,72.79A27.49,27.49,0,1,1,349,333.22,27.5,27.5,0,0,1,379.13,357.76Z" transform="translate(0 0.22)"/><path d="M183.6,370.94l-37.5-6L135.6,384a29.36,29.36,0,0,1-19,14.5h0a29.59,29.59,0,0,1-23.5-4.4l-18-12.4L44.3,404l6.1,20.9a29.08,29.08,0,0,1-3.2,23.7h0a29.36,29.36,0,0,1-19.7,13.5l-21.5,4-6,37.5,19.1,10.5a29.36,29.36,0,0,1,14.5,19h0a29.59,29.59,0,0,1-4.4,23.5l-12.3,18,22.3,30.8,20.9-6.1a29.08,29.08,0,0,1,23.7,3.2h0a29.36,29.36,0,0,1,13.5,19.7l4,21.5,37.5,6,10.5-19.1a29.36,29.36,0,0,1,19-14.5h0a29.59,29.59,0,0,1,23.5,4.4l18,12.4,30.8-22.3-6.1-20.9a29.08,29.08,0,0,1,3.2-23.7h0a29.36,29.36,0,0,1,19.7-13.5l21.4-4,6-37.6-19-10.4a29.37,29.37,0,0,1-14.6-19.1h0a29.15,29.15,0,0,1,4.3-23.3L267.9,440l-22.3-30.8-20.9,6.2a29.47,29.47,0,0,1-23.7-3.2h0a29.36,29.36,0,0,1-13.5-19.7Zm10,144.5a51.75,51.75,0,1,1-42.9-59.3A51.66,51.66,0,0,1,193.6,515.44Z" transform="translate(0 0.22)"/><path d="M680.14,93.16" transform="translate(0 0.22)"/></svg>