<?xml version="1.0" encoding="iso-8859-1"?>
<!-- Generator: Adobe Illustrator 19.0.0, SVG Export Plug-In . SVG Version: 6.00 Build 0)  -->
<svg version="1.1" id="Capa_1" xmlns="http://www.w3.org/2000/svg" xmlns:xlink="http://www.w3.org/1999/xlink" x="0px" y="0px"
	 viewBox="0 0 462.146 462.146" style="enable-background:new 0 0 462.146 462.146;" xml:space="preserve">
<g>
	<g>
		<path d="M197.446,246.173c-7.5-35.5-33.6-64.2-68.2-75.1c-9.6-2.9-19.6-4.4-29.6-4.4c-24.8,0-48.7,9.3-67.1,26
			c-40.7,37-43.6,100.1-6.6,140.8s100.1,43.7,140.8,6.7c20.8-18.8,32.7-45.6,32.7-73.8
			C199.446,259.673,198.746,252.773,197.446,246.173z M143.746,332.673c-26.3,10.1-56,3.7-75.8-16.2c-6.7-6.6-12-14.6-15.4-23.3
			h-15.3c-5.5,0-10-4.5-10-10s4.5-10,10-10h10.2c-0.4-3.7-0.4-7.3-0.2-11h-10c-5.5,0-10-4.5-10-10s4.5-10,10-10h14.2
			c3.5-9.8,9.1-18.6,16.5-25.9c19.9-19.9,49.6-26.1,75.8-16.1c5.1,2,7.7,7.7,5.7,12.9c-2,5.1-7.7,7.7-12.9,5.7
			c-18.8-7.3-40.1-2.7-54.4,11.5c-3.4,3.6-6.3,7.5-8.7,11.8h58.3c5.5,0,10,4.5,10,10s-4.5,10-10,10h-64.2c-0.4,3.7-0.3,7.4,0.3,11
			h58.7c5.5,0,10,4.5,10,10s-4.5,10-10,10h-51.4c1.8,3.4,4.2,6.5,7.1,9.1c14.2,14.3,35.5,18.9,54.4,11.7c0,0,0,0,0,0.1
			c5.2-1.9,10.9,0.6,12.9,5.8C151.446,324.973,148.946,330.673,143.746,332.673z"/>
	</g>
</g>
<g>
	<g>
		<path d="M319.446,85.173c-20.4-6.2-48.4-9.7-77-9.7c-28.8,0-55.8,3.5-76,9.7c-21.1,6.5-25.7,13.3-25.8,14.7
			c0.1,0.1,0.1,0.1,0.1,0.3c0.5,2.2,6.5,9.1,28,15.3c19.9,5.8,46.1,9,73.7,9c28.6,0,56.6-3.6,76.9-9.7c21.8-6.5,26.5-13.4,26.5-14.8
			C345.846,98.573,341.146,91.773,319.446,85.173z"/>
	</g>
</g>
<g>
	<g>
		<path d="M238.046,312.473v-1.8c-9.2-0.1-18.2-0.6-26.7-1.3c-4.6,11.9-11.1,23-19.2,32.9c15.4,2.5,30.9,3.9,46.4,4.1
			L238.046,312.473z"/>
	</g>
</g>
<g>
	<g>
		<path d="M325.046,133.873c-22.4,6.8-51.8,10.5-82.7,10.5c-29.5,0-57.6-3.4-79.3-9.7c-7.5-2-14.7-4.8-21.6-8.3l0.7,28.2
			c11.3,4.3,21.8,10.2,31.3,17.7c0.3,0.1,0.5,0.1,0.8,0.2c19.2,4.9,43.4,7.5,68.1,7.5c28.6,0,56.7-3.6,77-9.7
			c21.8-6.6,26.5-13.5,26.5-14.8c-0.1-1.7,0.4-3.4,1.3-4.8v-25.6C340.146,128.773,332.746,131.773,325.046,133.873z"/>
	</g>
</g>
<g>
	<g>
		<path d="M325.146,189.473c-22.5,6.8-51.9,10.5-82.8,10.5c-15.2,0-30.3-1-45.3-2.9c8.1,11.2,14.1,23.8,17.9,37.2
			c8.6,0.6,17.9,1,27.5,1c0.3,0,0.6,0,0.9,0c16.4-18.1,60.8-27.1,103.8-28.3v-26.5C340.146,184.173,332.846,187.073,325.146,189.473
			z"/>
	</g>
</g>
<g>
	<g>
		<path d="M216.946,289.673c6.7,0.5,13.6,0.8,20.7,0.9l-0.6-34.6c0-0.2-0.1-0.5-0.1-0.7c-6.2-0.1-12.3-0.3-18.2-0.7
			c0.4,4,0.6,7.9,0.5,11.8C219.246,274.173,218.446,281.973,216.946,289.673z"/>
	</g>
</g>
<g>
	<g>
		<path d="M462.046,302.273v-25.6c-7,3.7-14.4,6.6-22.1,8.8c-22.3,6.6-51.3,10.2-81.7,10.2c-28.8,0-56.5-3.4-78-9.4
			c-7.9-2.1-15.5-5-22.8-8.7l0.4,22.9l0.2,8.6c8.2,9.6,45.4,21.9,100.3,21.9c29,0,56.2-3.4,76.7-9.6c21.6-6.6,26.2-13.4,26.2-14.8
			c0-1.5,0.9-3,0.9-4.3H462.046z"/>
	</g>
</g>
<g>
	<g>
		<path d="M440.846,340.473c-22.4,6.9-51.6,10.5-82.5,10.5c-36.4,0-76.1-5.5-99.9-17.6l0.5,28.9c0,0.1,0,0.1,0,0.2
			c0,1.5,4.3,8.2,25.5,14.7c20,6.1,47,9.5,75.9,9.5c28.8,0,55.8-3.5,76.1-9.8c21.2-6.6,25.7-13.5,25.7-14.9v-30.3
			C455.346,335.273,448.246,338.273,440.846,340.473z"/>
	</g>
</g>
<g>
	<g>
		<path d="M435.446,236.673c-20.4-6.3-48.4-9.5-77-9.5h-1.3c-26.7,0-52.1,3-71.6,8.5c-20.5,5.8-27.8,12.3-28.8,15.1
			c0.2,0.5,0.3,1.1,0.4,1.7c1.9,3,9.6,9.2,28.7,14.5c19.8,5.5,45.6,8.6,72.6,8.6c28.6,0,55.6-3.3,76.1-9.4
			c22.2-6.6,27.2-13.5,27.3-15C461.546,249.473,456.546,243.073,435.446,236.673z"/>
	</g>
</g>
<g>
</g>
<g>
</g>
<g>
</g>
<g>
</g>
<g>
</g>
<g>
</g>
<g>
</g>
<g>
</g>
<g>
</g>
<g>
</g>
<g>
</g>
<g>
</g>
<g>
</g>
<g>
</g>
<g>
</g>
</svg>
