<?xml version="1.0" encoding="utf-8"?>
<!-- Generator: Adobe Illustrator 23.0.1, SVG Export Plug-In . SVG Version: 6.00 Build 0)  -->
<svg version="1.1" id="Слой_1" xmlns="http://www.w3.org/2000/svg" xmlns:xlink="http://www.w3.org/1999/xlink" x="0px" y="0px"
	 viewBox="0 0 487 487" style="enable-background:new 0 0 487 487;" xml:space="preserve">
<style type="text/css">
	.st0{display:none;}
</style>
<path class="st0" d="M249.9,265.8c-0.9-0.2-1.8-0.2-2.7-0.1c-9.1-1.1-16-8.8-16.1-18c0-4.4-3.6-8-8-8c-4.4,0-8,3.6-8,8
	c0,15.4,10.3,28.8,25.1,32.9v8c0,4.4,3.6,8,8,8s8-3.6,8-8v-7.5c17.1-3.6,28.7-19.5,26.9-36.9c-1.8-17.4-16.4-30.6-33.9-30.6
	c-10,0-18.1-8.1-18.1-18.1s8.1-18.1,18.1-18.1s18.1,8.1,18.1,18.1c0,4.4,3.6,8,8,8c4.4,0,8-3.6,8-8c0-16.1-11.3-30.1-27.1-33.4v-7.3
	c0-4.4-3.6-8-8-8s-8,3.6-8,8v7.8c-16.5,4.5-27.1,20.5-24.8,37.4s16.7,29.6,33.8,29.6c9.9,0,17.9,7.9,18.1,17.8
	C267.5,257.2,259.7,265.4,249.9,265.8z"/>
<path class="st0" d="M133.4,222.2c0,64,51.9,115.8,115.8,115.8S365,286.1,365,222.2s-51.9-115.8-115.8-115.8
	C185.3,106.4,133.4,158.2,133.4,222.2z M249.2,122.3c55.2,0,99.9,44.7,99.9,99.9S304.3,322,249.2,322s-99.9-44.7-99.9-99.9
	C149.4,167,194.1,122.4,249.2,122.3z"/>
<path d="M404.4,357.7l-62.6,29.6c-8.6-16.1-25.2-26.3-43.5-26.8l-57.8-1.6c-9.1-0.3-18.1-2.6-26.3-6.8l-5.9-3
	c-30.1-15.7-66-15.6-96,0.1l0.4-13.3c0.1-4.4-3.4-8.1-7.8-8.2l-63.3-1.7c-4.4-0.1-8.1,3.4-8.2,7.8l-3.8,139
	c-0.1,4.4,3.4,8.1,7.8,8.2l63.3,1.7h0.2c4.3,0,7.9-3.4,8-7.8l0.2-6.7l16.5-8.8c6.5-3.5,14-4.3,21.1-2.3l98.3,27.6
	c0.2,0.1,0.3,0.1,0.5,0.1c7.1,1.5,14.3,2.2,21.6,2.2c15.4,0,30.6-3.3,44.5-9.7c0.3-0.2,0.7-0.3,1-0.5l142.5-92.2
	c3.5-2.3,4.7-7,2.6-10.6C447.1,355.2,423.7,348,404.4,357.7z M304.4,463c-17.4,7.8-36.7,10-55.4,6.2l-98-27.5
	c-11-3.1-22.8-1.8-32.9,3.6l-8.4,4.5l2.3-81.8c26.6-17.7,60.8-19.5,89.2-4.8l5.9,3c10.3,5.3,21.6,8.2,33.2,8.6l57.8,1.6
	c16.2,0.5,30,12,33.3,27.9l-86-2.4c-4.4-0.1-8.1,3.4-8.2,7.8c-0.1,4.4,3.4,8.1,7.8,8.2l95,2.6h0.2c4.3,0,7.9-3.4,8-7.8
	c0.1-3.5-0.2-6.9-0.8-10.4l64.2-30.3c0.1,0,0.1-0.1,0.2-0.1c9.1-4.6,20.1-3.1,27.6,3.9L304.4,463z"/>
<path class="st0" d="M257.2,83.9V8c0-4.4-3.6-8-8-8s-8,3.6-8,8v75.9c0,4.4,3.6,8,8,8S257.2,88.3,257.2,83.9z"/>
<path class="st0" d="M317.1,83.9V47.9c0-4.4-3.6-8-8-8c-4.4,0-8,3.6-8,8v35.9c0,4.4,3.6,8,8,8C313.5,91.9,317.1,88.3,317.1,83.9z"/>
<path class="st0" d="M197.3,83.9V47.9c0-4.4-3.6-8-8-8s-8,3.6-8,8v35.9c0,4.4,3.6,8,8,8S197.3,88.3,197.3,83.9z"/>
<g>
	<g>
		<path d="M390.8,92.7H204.3c-7.4,0-13.4,6-13.4,13.4v186.5c0,7.4,6,13.4,13.4,13.4h186.5c7.4,0,13.4-6,13.4-13.4V106
			C404.1,98.7,398.2,92.7,390.8,92.7z M395.2,292.5c0,2.5-2,4.5-4.5,4.5H204.3c-2.5,0-4.5-2-4.5-4.5V106c0-2.5,2-4.5,4.5-4.5h186.5
			c2.5,0,4.5,2,4.5,4.5L395.2,292.5L395.2,292.5z"/>
	</g>
</g>
<g>
	<g>
		<path d="M348.7,175.9c-4,2.5-7.2,6.8-9.7,13.1h-0.3v-14.6h-9.1v78.2h9.1v-38.4c0-4.3,0.4-8.5,1.1-12.5c0.8-4,2.1-7.4,4.1-10.3
			c2-2.9,4.6-5.2,7.9-6.9c3.3-1.7,7.5-2.5,12.7-2.4v-9.8C358,172.2,352.7,173.5,348.7,175.9z"/>
	</g>
</g>
<g>
	<g>
		<path d="M304.2,203.8c-3.7-4.8-9.3-7.8-16.8-8.9v-0.3c2.2-0.4,4.4-1.1,6.4-2.2c2.1-1.1,3.9-2.5,5.5-4.4c1.6-1.9,2.9-4.2,3.9-6.9
			s1.5-6.1,1.5-9.9c0-4-0.7-7.7-2-11.1c-1.3-3.4-3.4-6.3-6.3-8.7c-2.9-2.4-6.6-4.3-11.1-5.6c-4.5-1.3-10-2-16.3-2h-39.3v108.7h44.4
			c5.1,0,9.9-0.5,14.3-1.6c4.4-1.1,8.1-2.8,11.2-5.2c3.1-2.4,5.6-5.6,7.3-9.5c1.8-3.9,2.6-8.7,2.6-14.3
			C309.7,214.7,307.9,208.6,304.2,203.8z M240.1,152.6h23.7c5.6,0,10.4,0.3,14.3,1c3.9,0.7,7,1.7,9.4,3.2c2.4,1.5,4.2,3.4,5.3,5.7
			c1.1,2.4,1.7,5.3,1.7,8.7c0,3.3-0.5,6.3-1.4,8.8c-1,2.6-2.5,4.7-4.8,6.5c-2.2,1.8-5.1,3.1-8.8,4s-8.1,1.4-13.4,1.4h-26
			L240.1,152.6L240.1,152.6z M297.4,233.3c-1.4,2.9-3.4,5.1-6.1,6.6s-6.2,2.6-10.3,3.1c-4.2,0.5-9.1,0.8-14.7,0.8h-26.1v-43.2h27.3
			c4.8,0,9.2,0.3,13.1,0.8c3.9,0.6,7.3,1.6,10.1,3.1c2.8,1.5,5,3.6,6.5,6.4c1.5,2.8,2.3,6.4,2.3,10.9
			C299.4,226.7,298.8,230.5,297.4,233.3z"/>
	</g>
</g>
</svg>
