<?xml version="1.0" encoding="utf-8"?>
<!-- Generator: Adobe Illustrator 23.0.1, SVG Export Plug-In . SVG Version: 6.00 Build 0)  -->
<svg version="1.1" id="Слой_1" xmlns="http://www.w3.org/2000/svg" xmlns:xlink="http://www.w3.org/1999/xlink" x="0px" y="0px"
	 viewBox="0 0 295 330" style="enable-background:new 0 0 295 330;" xml:space="preserve">
<style type="text/css">
	.st0{fill:#1D1D1B;}
</style>
<g transform="translate(0.000000,345.000000) scale(0.100000,-0.100000)">
	<path class="st0" d="M1011.8,3396.4c-25.7-36.2,59-573,59-573s-109.1,407.7-142,489c-140.3-77.4-276.2-333.5-281-457
		c-3-23-17-58-30-77c-28-42-46-197-25-222c8-10,192.8-0.3,201-34c13-20,967-19,981,0c16.5,31.7,202,25,202,25s23.8,185.8-27,234
		c-16,18-28.2,45-28,60c1.5,108-157,428.8-287,468c-50-133.1-144-482-144-482s92.7,534.1,61.8,576
		C1539.1,3421.7,1217,3502.4,1011.8,3396.4z"/>
	<path class="st0" d="M625.8,2464.6c-9.6-24.2,13-157,37-220c12-32,37-75,56-96c22-25,45-68,63-119c58-168,227.8-409.2,498.4-409.3
		c299.4-0.1,467.6,315.3,502.6,421.3c14,44,34,81,48,92c49,40,101,195,101,303c0,47-2,48-72,37c-36-6-38-9-38-43c0-88-50-214-90-224
		c-11-3-22-17-25-33c-12-57-117.6-436.3-425-439c-225.2-2-374,233-424,415c-10,38-22,58-37,65c-33,15-67,91-79,175
		c-6,41-16,78-23,82C696.8,2485.6,632.1,2480.4,625.8,2464.6z"/>
	<path class="st0" d="M2190.7,1668.6c-4.5,0-440.9,98.6-440.9,98.6s-1.1,0-3.1,0c-60.3-151.3-245.5-246.8-464.8-246.8
		c-218.9,0-404,95.2-464.6,246.1c-40.8-12.7-481.8-77.1-586.5-190.3C58.2,1389.8,0,588.3,0,588.3h1497.8c0,0,4.6,0.4,5.3-1
		c121-258.7,383.1-437.2,687.6-437.2C2610,150,2950,490,2950,909.3C2950,1328.7,2610,1668.6,2190.7,1668.6z M2190.7,249.3
		c-364.5,0-660,295.5-660,660s295.5,660,660,660c364.5,0,660-295.5,660-660S2555.2,249.3,2190.7,249.3z"/>
	<path d="M2544.7,1236.2l-466.8-495.8l-323.8,325.7l-112.3-162.9l419-415l679.7,646.1L2544.7,1236.2z"/>
</g>
</svg>
