<?xml version="1.0" encoding="utf-8"?>
<!-- Generator: Adobe Illustrator 23.0.1, SVG Export Plug-In . SVG Version: 6.00 Build 0)  -->
<svg version="1.1" id="Слой_1" xmlns="http://www.w3.org/2000/svg" xmlns:xlink="http://www.w3.org/1999/xlink" x="0px" y="0px"
	 viewBox="0 0 512 512" style="enable-background:new 0 0 512 512;" xml:space="preserve">
<g transform="translate(0.000000,512.000000) scale(0.100000,-0.100000)">
	<path d="M1290,4789c-558-69-997-481-1107-1037c-25-130-23-356,6-491c108-510,503-896,1019-998c117-23,347-23,464,0
		c526,104,921,499,1025,1025c11,58,17,136,17,232c0,157-16,262-60,397c-139,429-511,763-951,852C1584,4794,1396,4803,1290,4789z
		 M1685,4450c271-72,511-276,630-534c62-134,80-221,79-396c0-130-4-169-23-240c-74-274-262-503-516-625c-145-70-232-89-415-89
		c-130-1-169,3-240,22c-335,90-601,356-692,693c-33,123-33,357,0,478c99,361,384,629,752,707C1356,4486,1582,4478,1685,4450z"/>
	<path d="M960,4111v-591v-591c0,0,58-49,74-45c12,3,247,134,521,291c532,303,536,306,518,369c-8,28-56,58-518,323
		c-281,160-518,292-528,292C1017,4160,960,4111,960,4111z"/>
	<path d="M2915,3953c87-286,81-628-17-918c-83-248-255-509-432-656l-65-54v-496l-1-496l-26-27l-27-26h-667h-667l-27,26l-26,26
		l-2,365l-3,365l-60,23c-129,48-259,118-363,196l-52,40V320h4480v3680H2901L2915,3953z M3680,3520v-160h-160h-160v160v160h160h160
		V3520z M4480,3520v-160h-160h-160v160v160h160h160V3520z M4455,3014l25-27v-827v-827l-26-27l-27-26h-667h-667l-27,25l-26,24v831
		v831l25,24l24,25h671h671L4455,3014z M1280,640H960v320h320V640z M2080,640h-320v320h320V640z M2880,640h-320v320h320V640z
		 M3680,640h-320v320h320V640z M4480,640h-320v320h320V640z"/>
</g>
</svg>
