<?xml version="1.0" encoding="utf-8"?>
<!-- Generator: Adobe Illustrator 23.0.1, SVG Export Plug-In . SVG Version: 6.00 Build 0)  -->
<svg version="1.1" id="Слой_1" xmlns="http://www.w3.org/2000/svg" xmlns:xlink="http://www.w3.org/1999/xlink" x="0px" y="0px"
	 viewBox="0 0 430 360" style="enable-background:new 0 0 430 360;" xml:space="preserve">
<style type="text/css">
	.st0{display:none;}
</style>
<title>icon-developer</title>
<path class="st0" d="M717.4,232.6L422.1-256.2c-23.9-39.8-81.5-39.7-105.3-0.1L147.1,23.7l45.8,5.8l159.6-264
	c5.6-9.3,17.7-12.3,27-6.7c2.8,1.7,5.1,4,6.8,6.8l295.3,488.8c5.6,9.3,2.5,21.4-6.8,26.9c-3,1.8-6.5,2.8-10.1,2.8H323.1l-22.2,41.8
	h363.8C712.4,325.7,742,273.7,717.4,232.6z"/>
<path d="M356.8,0l-20.1,2l-2.8,11.3c-1.1,4.3-3.9,8-7.8,10.1l0,0c-3.9,2.1-8.5,2.5-12.7,0.9l-10.9-3.9L289.8,36l6,9.9
	c2.3,3.8,2.8,8.4,1.6,12.6l0,0c-1.3,4.2-4.3,7.7-8.3,9.6l-10.4,5l2,20.1L292,96c4.3,1.1,8,3.9,10.1,7.8l0,0
	c2.1,3.9,2.5,8.5,0.9,12.7l-3.9,10.9l15.7,12.8l9.9-6c3.8-2.3,8.4-2.8,12.6-1.6l0,0c4.2,1.3,7.7,4.3,9.6,8.3l5,10.4l20.1-2l2.8-11.3
	c1.1-4.3,3.9-8,7.8-10.1l0,0c3.9-2.1,8.5-2.5,12.7-0.9l10.9,3.9l12.8-15.7l-6-9.9c-2.3-3.8-2.8-8.4-1.6-12.6l0,0
	c1.2-4.3,4.3-7.8,8.3-9.6l10.4-5L428,58l-11.2-2.8c-4.3-1.1-8-3.9-10.2-7.8l0,0c-2.1-3.9-2.4-8.4-0.9-12.5l3.9-11L394,11.1l-9.9,6
	c-3.8,2.3-8.4,2.8-12.6,1.6l0,0c-4.2-1.3-7.7-4.3-9.6-8.3L356.8,0z M381.6,72.8c1.5,15.1-9.5,28.6-24.6,30.1s-28.6-9.5-30.1-24.6
	c-1.5-15.1,9.5-28.6,24.6-30.1C366.6,46.7,380.1,57.7,381.6,72.8L381.6,72.8z"/>
<path d="M681.4-192.6"/>
<path d="M265.9,210.8c-7.4-4-12.7-10.9-14.6-19.1c-1.9-8-0.4-16.5,4.3-23.3l12.4-18.1l-22.3-30.8l-20.9,6.2
	c-8,2.3-16.6,1.2-23.7-3.2c-7.1-4.4-12-11.5-13.5-19.7l-3.9-21.6l-37.5-6l-10.5,19.1c-4,7.3-10.9,12.6-19,14.5
	c-8.1,1.9-16.6,0.3-23.5-4.4L75.2,92l-30.8,22.3l6.1,20.9c2.4,8,1.2,16.6-3.2,23.7c-4.4,7.1-11.5,12-19.7,13.5l-21.5,4l-6,37.5
	l19.1,10.5c7.3,4,12.6,10.9,14.5,19c1.9,8.1,0.3,16.6-4.4,23.5l-12.3,18l22.3,30.8l20.9-6.1c8-2.4,16.6-1.2,23.7,3.2
	c7.1,4.4,12,11.5,13.5,19.7l4,21.5l37.5,6l10.5-19.1c4-7.3,10.9-12.6,19-14.5c8.1-1.9,16.6-0.3,23.5,4.4l18,12.4l30.8-22.3
	l-6.1-20.9c-2.4-8-1.2-16.6,3.2-23.7c4.4-7.1,11.5-12,19.7-13.5l21.4-4l6-37.6L265.9,210.8z M142.5,269.3
	c-28.5,0-51.7-23.1-51.7-51.7S114,166,142.5,166s51.7,23.1,51.7,51.7S171,269.3,142.5,269.3z"/>
</svg>
