<?xml version="1.0" encoding="utf-8"?>
<!-- Generator: Adobe Illustrator 23.0.1, SVG Export Plug-In . SVG Version: 6.00 Build 0)  -->
<svg version="1.1" id="Capa_1" xmlns="http://www.w3.org/2000/svg" xmlns:xlink="http://www.w3.org/1999/xlink" x="0px" y="0px"
	 viewBox="0 0 300 185" style="enable-background:new 0 0 300 185;" xml:space="preserve">
<style type="text/css">
	.st0{display:none;}
</style>
<path class="st0" d="M328.8,179.3l-5.1-8.3c-9.9-16.2-21.9-31-35.7-44.1l-17-16.2c-1.6-1.5-1.9-4-0.6-5.8l23.2-33
	c3.3-4.8,6.4-9.8,9.2-14.9l19.8-37c3.5-6.5,3.3-14.1-0.5-20.3c-3.8-6.3-10.4-10-17.7-10l-42.8,0c0,0,0,0,0,0
	c-9,0-17.1,5.3-20.7,13.5l-4.5,10.3c-11.6,26.4-27.4,50.4-47,71.5V9.4c0-11-8.9-19.9-19.9-19.9h-60.7c-10,0-18.1,8.1-18.1,18.1
	c0,3.8,1.2,7.4,3.4,10.5l4.2,5.9c4.2,5.8,6.4,12.6,6.4,19.8V99c-7.5-8.7-16.6-20.5-24.3-34.1c-11.8-20.8-20.3-45-24.3-57.6
	C52.7-3.4,42.9-10.5,31.8-10.5h-43.4c-6.1,0-11.8,2.8-15.5,7.7c-3.7,4.9-4.9,11.1-3.2,17l8.1,28.7c5,17.6,11.8,34.8,20.3,51
	c2.6,4.9,8.6,6.8,13.5,4.2c4.9-2.6,6.8-8.6,4.2-13.5C8,69.6,1.7,53.7-2.9,37.5l-7.9-28h42.6c2.4,0,4.5,1.5,5.2,3.8
	C41.3,26.7,50.3,52.4,63,74.8c10.4,18.4,23.1,33.6,31.9,43.2c4.8,5.3,12.2,7,18.9,4.4c6.7-2.6,11-8.9,11-16V43.8
	c0-11.3-3.5-22.2-10.1-31.4l-2.1-2.9h56.8v80.2c0,5.9,2.9,11.3,7.9,14.4c4.9,3.2,11.1,3.6,16.4,1.2l4.1-1.9c1.9-0.9,3.6-2.1,5-3.6
	c21.7-23,39.2-49.4,51.9-78.4l4.5-10.3c0.4-1,1.4-1.6,2.4-1.6h0l42.8,0c0.1,0,0.4,0,0.6,0.3c0.2,0.3,0.1,0.5,0,0.6l-19.8,37
	c-2.4,4.4-5,8.7-7.9,12.8l-23.2,33c-7,10-5.7,23.4,3.2,31.8l17,16.2c12.5,11.9,23.4,25.4,32.4,40.1l5.1,8.3c0.1,0.2,0.5,0.8,0,1.6
	s-1.2,0.8-1.4,0.8h-37c-4.8,0-9.4-2-12.7-5.4l-37-38c-8.7-9-19.8-15.1-32-17.8c-5.5-1.2-11.1,0.1-15.5,3.6s-6.9,8.7-6.9,14.4v37.4
	c0,3.2-2.6,5.8-5.8,5.8c-28.7,0-57-9.6-79.8-27c-9.2-7-17.9-14.8-26-23c-3.9-3.9-10.2-4-14.1-0.1c-3.9,3.9-4,10.2-0.1,14.1
	c8.7,8.9,18.2,17.3,28.1,24.9c26.2,20.1,58.9,31.1,91.9,31.1c14.2,0,25.8-11.6,25.8-25.8V151c7.6,2,14.5,6.1,20,11.7l37,38
	c7.1,7.3,16.9,11.4,27,11.4h37c7.8,0,15-4.2,18.9-11C333,194.3,332.9,185.9,328.8,179.3z"/>
<path class="st0" d="M328.8,179.3l-5.1-8.3c-9.9-16.2-21.9-31-35.7-44.1l-17-16.2c-1.6-1.5-1.9-4-0.6-5.8l23.2-33
	c3.3-4.8,6.4-9.8,9.2-14.9l19.8-37c3.5-6.5,3.3-14.1-0.5-20.3c-3.8-6.3-10.4-10-17.7-10l-42.8,0c0,0,0,0,0,0
	c-9,0-17.1,5.3-20.7,13.5l-4.5,10.3c-11.6,26.4-27.4,50.4-47,71.5V9.4c0-11-8.9-19.9-19.9-19.9h-60.7c-10,0-18.1,8.1-18.1,18.1
	c0,3.8,1.2,7.4,3.4,10.5l4.2,5.9c4.2,5.8,6.4,12.6,6.4,19.8V99c-7.5-8.7-16.6-20.5-24.3-34.1c-11.8-20.8-20.3-45-24.3-57.6
	C52.7-3.4,42.9-10.5,31.8-10.5h-43.4c-6.1,0-11.8,2.8-15.5,7.7c-3.7,4.9-4.9,11.1-3.2,17l8.1,28.7c5,17.6,11.8,34.8,20.3,51
	c2.6,4.9,8.6,6.8,13.5,4.2c4.9-2.6,6.8-8.6,4.2-13.5C8,69.6,1.7,53.7-2.9,37.5l-7.9-28h42.6c2.4,0,4.5,1.5,5.2,3.8
	C41.3,26.7,50.3,52.4,63,74.8c10.4,18.4,23.1,33.6,31.9,43.2c4.8,5.3,12.2,7,18.9,4.4c6.7-2.6,11-8.9,11-16V43.8
	c0-11.3-3.5-22.2-10.1-31.4l-2.1-2.9h56.8v80.2c0,5.9,2.9,11.3,7.9,14.4c4.9,3.2,11.1,3.6,16.4,1.2l4.1-1.9c1.9-0.9,3.6-2.1,5-3.6
	c21.7-23,39.2-49.4,51.9-78.4l4.5-10.3c0.4-1,1.4-1.6,2.4-1.6h0l42.8,0c0.1,0,0.4,0,0.6,0.3c0.2,0.3,0.1,0.5,0,0.6l-19.8,37
	c-2.4,4.4-5,8.7-7.9,12.8l-23.2,33c-7,10-5.7,23.4,3.2,31.8l17,16.2c12.5,11.9,23.4,25.4,32.4,40.1l5.1,8.3c0.1,0.2,0.5,0.8,0,1.6
	s-1.2,0.8-1.4,0.8h-37c-4.8,0-9.4-2-12.7-5.4l-37-38c-8.7-9-19.8-15.1-32-17.8c-5.5-1.2-11.1,0.1-15.5,3.6s-6.9,8.7-6.9,14.4v37.4
	c0,3.2-2.6,5.8-5.8,5.8c-28.7,0-57-9.6-79.8-27c-9.2-7-17.9-14.8-26-23c-3.9-3.9-10.2-4-14.1-0.1c-3.9,3.9-4,10.2-0.1,14.1
	c8.7,8.9,18.2,17.3,28.1,24.9c26.2,20.1,58.9,31.1,91.9,31.1c14.2,0,25.8-11.6,25.8-25.8V151c7.6,2,14.5,6.1,20,11.7l37,38
	c7.1,7.3,16.9,11.4,27,11.4h37c7.8,0,15-4.2,18.9-11C333,194.3,332.9,185.9,328.8,179.3z"/>
<path d="M297.4,157.7l-4.2-6.9c-8.2-13.5-18.1-25.8-29.5-36.7l-14-13.4c-1.3-1.3-1.5-3.3-0.5-4.8l19.1-27.4c2.8-4,5.3-8.1,7.6-12.4
	l16.4-30.8c2.9-5.4,2.7-11.7-0.4-16.9c-3.1-5.2-8.6-8.3-14.6-8.3l-35.4,0c0,0,0,0,0,0c-7.4,0-14.1,4.4-17.1,11.2l-3.8,8.6
	c-9.6,21.9-22.6,41.9-38.8,59.4V16.5c0-9.1-7.4-16.5-16.5-16.5h-50.2c-8.2,0-14.9,6.7-14.9,15c0,3.2,1,6.2,2.8,8.8l3.5,4.9
	c3.4,4.8,5.3,10.5,5.3,16.4v45.8c-6.2-7.2-13.7-17-20.1-28.3C82.3,45.4,75.3,25.2,72,14.8C69.2,5.9,61.1,0,51.9,0H16
	C11,0,6.3,2.3,3.3,6.4c-3.1,4.1-4,9.2-2.6,14.1l6.7,23.9c3.9,14,9.3,27.7,15.9,40.7l0,0l0.1,0.1c0.1,0.1,8.7,15.5,18.8,29.2
	c10.9,14.8,23.4,28,23.8,28.4l0,0c0,0,12.3,11.3,18.9,16.4c21.7,16.7,48.7,25.9,76,25.9c11.8,0,21.4-9.6,21.4-21.5v-29.4
	c6.3,1.7,12,5,16.5,9.8l30.6,31.6c5.8,6,14,9.5,22.3,9.5h30.6c6.5,0,12.4-3.5,15.6-9.2C300.9,170.2,300.7,163.2,297.4,157.7z
	 M283.3,167.7c-0.4,0.7-1,0.7-1.2,0.7h-30.6c-3.9,0-7.8-1.6-10.5-4.5l-30.6-31.6c-7.2-7.4-16.3-12.6-26.4-14.8
	c-4.5-1-9.2,0.1-12.8,3c-3.6,2.9-5.7,7.3-5.7,11.9v31c0,2.7-2.2,4.8-4.8,4.8c-23.7,0-47.1-8-65.9-22.4c-5.4-4.2-10.8-8.5-15.6-13.3
	C67,120.4,53.5,105.8,37.8,77.2c-6.4-11.7-11-24.5-14.6-37.4l-6.5-23.2h35.2c2,0,3.7,1.3,4.3,3.2c3.5,11.1,10.9,32.5,21.4,51
	c8.6,15.3,19.1,28,26.3,35.9c4,4.4,10.1,5.8,15.6,3.7c5.5-2.1,9.1-7.4,9.1-13.3v-52c0-9.4-2.9-18.5-8.4-26.1l-1.7-2.4h47v66.6
	c0,4.9,2.4,9.4,6.5,12c4.1,2.6,9.1,3,13.6,1l3.4-1.6c1.6-0.7,3-1.7,4.1-3c17.9-19.1,32.4-41.1,42.9-65.1l3.8-8.6
	c0.3-0.8,1.1-1.3,2-1.3h0l35.4,0c0.1,0,0.3,0,0.5,0.3c0.2,0.3,0.1,0.4,0,0.5l-16.4,30.8c-2,3.7-4.1,7.3-6.5,10.7l-19.1,27.4
	c-5.8,8.3-4.7,19.4,2.6,26.4l14,13.4c10.3,9.9,19.3,21.1,26.8,33.3l4.2,6.9C283.4,166.5,283.7,167,283.3,167.7z"/>
</svg>
