<?xml version="1.0" encoding="utf-8"?>
<!-- Generator: Adobe Illustrator 23.0.1, SVG Export Plug-In . SVG Version: 6.00 Build 0)  -->
<svg version="1.1" id="Слой_1" xmlns="http://www.w3.org/2000/svg" xmlns:xlink="http://www.w3.org/1999/xlink" x="0px" y="0px"
	 viewBox="0 0 1800 1500" style="enable-background:new 0 0 1800 1500;" xml:space="preserve">
<style type="text/css">
	.st0{display:none;fill:#E5B83B;}
	.st1{display:none;}
	.st2{display:inline;fill:none;stroke:#000000;stroke-width:27.4074;stroke-miterlimit:10;}
	.st3{fill:#E5B83B;}
</style>
<g transform="translate(0.000000,2151.000000) scale(0.100000,-0.100000)">
	<path class="st0" d="M15396.1,6510H2603.9c-433.7,0-819.3,77.1-1146,229.1c-353,164.2-631.6,416.5-805.7,729.8
		C478,7782.1,410.7,8152,457.6,8538.4c43.4,357.8,181.5,726,410.4,1094.3l1790.4,2880.7c735.2,1182.9,1938.4,3118.4,2673.7,4301.1
		l1791.3,2881.1l540.3-335.9l-540.3,335.9c229.4,368.9,504.8,659.3,818.5,863c326.8,212.2,692.9,324.3,1058.7,324.3
		c0.1,0,0.1,0,0.1,0c365.8,0,732-112.2,1058.8-324.5c313.7-203.7,589-494.1,818.3-863.1L17132,9632.7
		c228.9-368.3,367-736.5,410.4-1094.3c46.9-386.5-20.4-756.3-194.5-1069.6c-174.1-313.3-452.8-565.6-805.7-729.8
		C16215.4,6587.1,15829.8,6510,15396.1,6510z"/>
	<g class="st1">
		<path class="st2" d="M7663.8,19359.6c735.4,1182.7,1938.5,1182.6,2673.7-0.2l1790.4-2880.6
			c735.2-1182.8,1938.2-3118.4,2673.3-4301.2L16591.6,9297c735.2-1182.8,197.2-2150.6-1195.5-2150.6h-3863.2
			c-1392.7,0-3671.6,0-5064.3,0H2603.9c-1392.7,0-1930.7,967.8-1195.5,2150.6l1790.4,2880.6c735.2,1182.8,1938.3,3118.3,2673.7,4301
			L7663.8,19359.6z"/>
	</g>
	<path class="st3" d="M15447.5,6510h-12895c-437.2,0-825.9,77.1-1155.3,229.1c-355.8,164.2-636.7,416.5-812.2,729.8
		C409.5,7782.1,341.7,8152,389,8538.4c43.8,357.8,182.9,725.9,413.7,1094.3l1804.8,2880.7c741.1,1182.9,1953.9,3118.4,2695.2,4301.1
		l1805.7,2881.1l544.7-335.9l-544.7,335.9c231.2,368.9,508.8,659.3,825,863c329.4,212.2,698.5,324.3,1067.2,324.3c0.1,0,0.1,0,0.1,0
		c368.8,0,737.8-112.2,1067.3-324.5c316.2-203.7,593.7-494.1,824.9-863.1l6304.4-10062.5c230.8-368.3,370-736.5,413.7-1094.3
		c47.3-386.5-20.5-756.3-196.1-1069.6c-175.5-313.3-456.4-565.6-812.2-729.8C16273.4,6587.1,15884.7,6510,15447.5,6510z"/>
	<path d="M15457.7,7008.6H2542.3c-361.9,0-677.7,61.5-938.6,182.8c-261.2,121.4-456.6,296.7-580.8,521
		c-124.1,224.3-168.9,482.9-133.1,768.8c35.8,285.5,151.3,585.8,343.4,892.5l1800,2873.1c742.4,1184.9,1957.3,3123.8,2699.9,4308.6
		l1801,2873.5c192.3,306.8,418.6,545.3,672.8,709c251.4,161.9,518.5,244,793.7,244c0,0,0.1,0,0.1,0c275.3,0,542.3-82.2,793.8-244.1
		c254.2-163.7,480.5-402.3,672.7-709.1l1800-2873.1l2699.6-4308.8l1800-2873.1c192.1-306.6,307.7-606.9,343.4-892.5
		c35.8-285.8-9-544.5-133.2-768.8c-124.1-224.3-319.5-399.6-580.8-521C16135.4,7070.1,15819.6,7008.6,15457.7,7008.6z
		 M7650.7,19355.8l116.6-73.1l-1801-2873.5c-742.6-1184.8-1957.5-3123.7-2699.9-4308.6l-1800-2873.1
		c-331.3-528.8-403.3-1019.5-202.7-1381.9c200.6-362.3,654.7-561.9,1278.6-561.9h12915.4c623.9,0,1078,199.6,1278.6,561.9
		c200.6,362.4,128.6,853.1-202.7,1381.9l-1800,2873.1L12034,16409.4l-1800,2873.1c-333,531.5-771,824.2-1233.3,824.2
		c0,0-0.1,0-0.1,0c-462.3,0-900.3-292.6-1233.4-824L7650.7,19355.8z"/>
	<path d="M6142.5,14992.8c-112.4-17.1-199.4-87.8-259.7-209.1c-29-59.6-177.5-491.9-105.6-590.2c76.5-100.3,561.7-567.7,569.4-610.4
		c24.8-37.8,36.6-187.2,67-463.7c11.2-129.5,25.3-162.3,100.5-236.7c78.2-77.3,1686.7-1599.5,1693.3-1602.5
		c3-0.7,341.9,1796,377.4,1889.8c57.3,182.4,158.5,283.6,328.2,326.8c153.3,41.7,1697.6,166.7,3251.1,44.6
		c-1252.9,533-3291.3,1387.2-3425.4,1406C8661.3,14960.8,7785.5,15063.9,6142.5,14992.8z"/>
	<path d="M5868.6,13301c14.8-187.2,484.6-602.1,484.6-602.1s-9.2-167.2,5.2-241.9c189.2-226.5,535.1-611.7,1787-1652.4
		c37.2-17.1,144-38,228.9-50.6c29.7-3.7,202.1-174.1,202.1-174.1s5.2,118.2,28.3,194.3c-311.3,296.4-2185.4,2052.8-2225.5,2122
		c-66.1,68.8-76.4,585.8-112.4,640.8c-8.5,27.2-402,421.3-402,421.3S5837.2,13403.2,5868.6,13301z"/>
	<path d="M8931.5,13406.8c-70.8-18.6-140.1-42.1-212.4-140.2c-98.9-125.3-277.9-1347.8-425.5-2051.8
		c-9-22.7,297.8-297.8,300.8-299.2c3.7-0.7,639.4,1730.5,670.6,1792.3c59.6,117.6,191.3,247.9,314.1,309.6
		c279.8,156.4,3025.8,156.4,3583.7,98.2c-8.2,6.7-600.3,262.1-647.9,278.6C11857.6,13562.4,9342.3,13501.5,8931.5,13406.8z"/>
	<path d="M9806.1,12990.6c-169.7-20.1-328.9-123.5-433.1-281.3c-83-135.3-703.3-1869.7-703.3-1869.7h161.5
		c0,0,609.5,1702.5,654.3,1769.2c51.3,88.6,166.4,208.3,335.1,236.2c930.2,41.6,2091.4,142.1,3592.5-1.1
		c33.7-22.9,31.4-70,29.3-84.2c-1.4-14.2-686.3-1787.9-686.3-1790s160,0,160,0s669.1,1735.7,673.6,1766.3
		c20.1,123.5-40.9,223.3-158.5,258.3C12870.3,13089.9,10788.6,13079.6,9806.1,12990.6z"/>
	<path d="M12193.8,10791.2c-13.9-8-29.7-268.3-429.4-263.5c-377.4-20.9-1790.6-71-2771.1-78.9c-85.6,30.1-226.8,85.5-190.6,316.3
		c-25.9,0-64,3.4-108-2c-79.4-235.2,71.6-386.5,278.6-434.2c129.4-11.8,801.9,21.2,1485,36.7c747.2,16.9,1399.9,23.6,1643.6,114.6
		c94.5,48.3,160.3,139.7,199.3,267.8c33,125.3,337.7,1824.8,289.5,2066.2c-102.4,12.5-374.4,12.7-374.4,12.7
		S12208.4,11280.2,12193.8,10791.2z"/>
	<path d="M12480.4,11179c-1.3-8,192.8-157.1,197.3-151.8c4.4,6,673.6,1735,672.1,1737.3c-3,2.3-517.9,31.4-664.7,40.9
		C12711.2,12531.7,12572,11756.3,12480.4,11179z"/>
	<path d="M9819.5,12486.7c-64.8-14.2-118.4-54.3-146.7-108.6c-25.7-58.6-174.1-1321.1-174.1-1321.1s1717.8,17.3,1760.5,39.1
		c85.3,24.9,114.4,62.1,132.3,96.4c16.9,26.7,180.8,1289.8,180.8,1289.8S11118.3,12498.6,9819.5,12486.7z M10486,11157.3
		c-335.9,0-608.1,272.3-608.1,608.1c0,335.9,272.3,608.1,608.1,608.1s608.1-272.3,608.1-608.1
		C11094.2,11429.5,10821.9,11157.3,10486,11157.3z"/>
	<path d="M10486,12281.8c-60.7,0-118.8-10.6-172.9-29.7c93.4-36,159.9-126.6,159.9-232.8c0-137.8-111.6-249.4-249.4-249.4
		c-103.1,0-191.6,62.6-229.6,151.9c-15.6-49.3-24.1-101.8-24.1-156.3c0-285.2,231.2-516.3,516.3-516.3
		c285.2,0,516.3,231.2,516.3,516.3S10771.2,12281.8,10486,12281.8z"/>
	<path d="M11687.7,12483.8c-2.3-3-192.8-1333-197.3-1348.7c-11.4-71-64-90.8-113.1-105.6c-73.4-23.1-1898-49.9-1898-49.9
		s0-93.1,83.3-125.8c17.9-5.2,1355.9,6,1901.7,37.7c107.9,24.2,107.9,52.8,142.3,116.4c16.4,52.9,220.2,1345,214.9,1369.5
		C11791.8,12468.4,11692.9,12493.5,11687.7,12483.8z"/>
	<path d="M4451.1,11517c167-84.4,228.9-141.5,259.4-221.8c34.2-91.6,188.5-645.9,175.4-1286.4c-3.8-601-156.6-1201.2-193.3-1283.7
		c-32.7-73.6-274.6-225.6-255.3-230.7c29-8.2,910.2,199.1,1084.7,356.6c140.9,127.2,243.1,719.6,243.1,719.6L7738.2,9438
		c0,0-41.7,635.7-52,645.3c-1.4,1.4-1524.3,133.2-1604,172c-100.5,49.2-190.6,315.6-190.6,315.6s-85.1-12.1-87.1,9.7
		c-47.5,550.7-256.3,1106.7-456.3,1106.7C5322.3,11687.4,4453.8,11549.9,4451.1,11517z M5624.5,10599.2
		c-1.4-2.3-434.5,109.7-471.2-537.4c43.5-523.9,296.9-460,296.9-460s-356.2-239.7-423.6,512.1
		C5050.8,10871.1,5631.9,10605.1,5624.5,10599.2z"/>
	<path d="M7102,11578l407.1-591l218.1-492c0,0,222.7-118.1,896.8-89.3c15.6,6-275.9,257.6-275.9,257.6s-202.9,27.5-281.3,78.2
		C8047.9,10753.2,7102,11578,7102,11578z"/>
	<path d="M4424,11385.9c-2.3-6.7-4.4-2765.1-4.4-2765.1l67.8,35.7c110.2,57.3,126.5,84.1,177.8,288.8
		c65.5,260.5,111.6,613.3,125.8,977.2c18.6,447.3-37.2,932.6-145.1,1275c-32,99.8-53.6,126.5-136.2,169.7
		C4445.6,11400.8,4430.7,11403.8,4424,11385.9z"/>
	<circle cx="9182.8" cy="10938.8" r="112.6"/>
	<circle cx="11922.6" cy="11027" r="112.6"/>
	<path d="M6079.3,10382.5c32.7-35.5,88.9-65,168.8-73.2c469-48.1,1518.4-142,1518.4-142s25.1-157.6,40.2-336.3
		c18.3-216.7,19.2-434.8,70.6-500.3c62.6-90.3,166.7-117.6,166.7-120.5c0-14.2,145.3-175.2,379.5-159.3
		c286.1-15.3,376.8,163.7,382.5,167.9s120.5,38.1,174.1,90.3c79.5,53,105,283.6,127.8,497.9c22.1,207.3,42.7,399.2,41.5,400
		c-3.8,2.6-111.5-4.1-215.5,22.7c-98.8,25.5-194.4,84.9-194.4,84.9s-263-9.5-547.2-1.2c-211.2,6.1-403.8,64.6-449.7,71.1
		c-6.8,1,5.9-21.6,4.4-21.6c-11.9,0-1755.9,198-1755.9,198S5967.3,10506.4,6079.3,10382.5z"/>
</g>
</svg>
