<?xml version="1.0" standalone="no"?>
<!DOCTYPE svg PUBLIC "-//W3C//DTD SVG 20010904//EN"
 "http://www.w3.org/TR/2001/REC-SVG-20010904/DTD/svg10.dtd">
<svg version="1.0" xmlns="http://www.w3.org/2000/svg"
 width="2400.000000pt" height="2151.000000pt" viewBox="0 0 2400.000000 2151.000000"
 preserveAspectRatio="xMidYMid meet">

<g transform="translate(0.000000,2151.000000) scale(0.100000,-0.100000)"
fill="#000000" stroke="none">
<path d="M11870 20080 c-450 -40 -853 -336 -1181 -867 -114 -184 -9114 -15789
-9164 -15888 -144 -289 -209 -542 -209 -815 0 -343 114 -623 348 -855 231
-229 527 -360 946 -417 142 -19 18578 -19 18725 0 570 75 967 320 1170 722
200 396 160 906 -109 1415 -70 132 -9047 15686 -9139 15835 -96 155 -133 207
-232 327 -320 384 -735 580 -1155 543z m285 -464 c94 -25 252 -108 342 -181
174 -140 288 -291 511 -680 41 -71 107 -186 147 -255 39 -69 107 -186 150
-260 126 -219 224 -389 280 -485 49 -85 101 -175 280 -485 42 -74 111 -193
152 -265 42 -71 108 -186 147 -255 40 -69 107 -185 149 -257 106 -183 220
-381 282 -488 29 -49 86 -150 128 -223 42 -72 110 -189 150 -260 40 -70 109
-188 152 -262 74 -129 125 -217 300 -520 43 -74 112 -193 153 -265 41 -71 98
-170 127 -220 28 -49 86 -150 128 -222 72 -125 112 -193 301 -520 129 -226
221 -384 281 -488 32 -55 90 -156 130 -225 40 -69 107 -186 150 -260 43 -74
111 -192 152 -262 82 -143 191 -333 278 -483 61 -106 157 -271 281 -487 42
-73 111 -191 152 -263 41 -71 108 -186 147 -255 40 -69 98 -170 130 -225 59
-102 142 -245 280 -485 43 -74 110 -191 150 -260 40 -69 116 -201 170 -295 54
-93 139 -239 187 -324 49 -84 132 -228 185 -320 53 -91 129 -223 169 -293 41
-71 107 -185 148 -255 168 -293 448 -777 518 -898 41 -71 607 -1052 1258
-2180 651 -1127 1207 -2099 1236 -2160 103 -213 148 -395 147 -590 -3 -436
-288 -717 -823 -811 -102 -18 -397 -19 -9395 -19 l-9290 0 -117 22 c-151 29
-319 89 -422 150 -50 29 -113 80 -163 130 -66 66 -90 99 -127 175 -67 135 -81
197 -81 358 0 75 6 166 14 205 21 106 76 268 130 380 26 55 604 1063 1283
2240 1489 2580 1332 2307 1443 2500 90 156 395 685 540 935 40 69 106 184 147
255 41 72 118 205 171 296 53 92 136 236 185 320 48 85 133 231 187 324 94
164 163 282 319 553 109 189 216 374 281 487 32 55 90 156 130 225 39 69 107
186 150 260 43 74 110 191 150 260 40 69 98 170 130 225 79 137 167 290 429
743 42 72 109 189 149 260 41 70 100 172 132 227 67 117 144 250 430 745 190
329 232 402 300 520 40 69 132 229 205 355 73 127 165 286 205 355 40 69 107
186 150 260 43 74 112 194 153 265 42 72 109 187 149 257 40 71 108 188 150
260 42 73 99 174 128 223 62 107 176 305 282 488 42 72 109 188 149 257 39 69
105 184 147 255 41 72 108 189 150 260 41 72 110 191 152 265 43 74 102 176
130 225 58 99 169 292 280 485 239 415 293 496 425 634 164 173 349 283 533
316 70 12 228 5 302 -14z"/>
<path d="M8470 11179 c-239 -5 -466 -13 -505 -19 -151 -23 -268 -118 -349
-281 -39 -80 -56 -134 -107 -354 -73 -311 -77 -367 -35 -439 16 -28 178 -200
385 -410 265 -267 363 -374 380 -410 19 -37 30 -98 52 -275 15 -124 33 -281
38 -348 15 -174 34 -218 135 -318 105 -104 2266 -2149 2275 -2153 4 -1 31 123
59 275 276 1461 412 2151 448 2264 77 245 213 381 441 439 182 47 860 94 1733
121 414 13 1507 7 1855 -10 286 -14 702 -40 745 -46 l35 -5 -27 15 c-57 32
-1065 457 -1883 795 -1367 564 -2622 1067 -2692 1079 -104 18 -779 63 -1213
81 -278 11 -1125 11 -1770 -1z"/>
<path d="M7584 9702 c-5 -37 -8 -218 -8 -402 -1 -316 1 -340 21 -413 54 -190
121 -282 426 -586 l225 -223 4 -163 3 -162 45 -59 c54 -70 594 -614 802 -806
80 -75 451 -405 823 -733 512 -451 690 -603 731 -622 50 -23 170 -51 284 -68
40 -5 59 -19 170 -120 l125 -114 6 77 c3 43 12 102 19 131 l13 53 -54 53 c-30
29 -648 614 -1374 1300 -1557 1472 -1528 1444 -1562 1498 -42 67 -63 142 -73
261 -21 241 -62 563 -78 600 -11 26 -101 124 -278 302 l-262 264 -8 -68z"/>
<path d="M13600 9154 c-1053 -33 -1705 -76 -1888 -125 -95 -25 -144 -51 -203
-106 -141 -132 -138 -118 -483 -1943 -92 -481 -168 -885 -171 -896 -4 -17 34
-58 196 -210 111 -104 204 -190 208 -192 5 -1 36 75 71 170 447 1236 788 2155
830 2238 80 158 257 333 422 416 128 64 218 83 473 99 1173 73 2433 102 3285
75 363 -11 932 -37 1005 -46 30 -3 46 -2 40 4 -11 9 -830 364 -894 386 -118
42 -603 86 -1286 116 -232 11 -1392 21 -1605 14z"/>
<path d="M14825 8559 c-596 -15 -1765 -69 -1938 -89 -228 -27 -442 -166 -582
-378 -57 -87 -153 -338 -705 -1857 -120 -330 -223 -612 -229 -627 l-11 -28
109 0 108 0 53 148 c371 1032 794 2174 826 2229 69 119 194 230 314 279 82 33
151 40 610 64 1694 87 2604 89 3969 10 380 -22 404 -27 419 -84 5 -17 7 -47 4
-66 -2 -19 -211 -567 -463 -1217 -253 -650 -459 -1185 -459 -1188 0 -3 48 -4
107 -3 l108 3 447 1155 c294 757 452 1177 458 1218 27 166 -55 300 -213 347
-33 10 -170 22 -387 35 -968 56 -1689 70 -2545 49z"/>
<path d="M16125 8143 c0 -60 -7 -200 -14 -313 -12 -159 -15 -444 -15 -1260
l-1 -1055 -37 -78 c-26 -53 -56 -97 -96 -136 -104 -105 -169 -125 -444 -140
-507 -28 -2915 -101 -3448 -104 l-275 -2 -62 26 c-33 14 -74 37 -91 50 -77 63
-119 174 -109 286 l6 63 -74 0 c-83 0 -76 7 -96 -97 -42 -224 121 -425 399
-489 72 -17 134 -15 2707 66 1343 43 1290 39 1414 102 127 65 294 253 350 395
36 93 292 1656 367 2248 27 207 38 488 22 528 -7 16 -29 17 -255 17 l-248 0 0
-107z"/>
<path d="M16759 8100 c6 -214 -44 -605 -210 -1624 -38 -236 -69 -434 -69 -440
0 -11 259 -211 265 -204 6 8 905 2331 903 2334 -4 3 -438 30 -628 39 -69 3
-157 8 -195 11 l-70 5 4 -121z"/>
<path d="M12905 7793 c-87 -19 -159 -73 -197 -146 -15 -31 -41 -210 -128 -905
-59 -477 -107 -868 -106 -870 4 -3 2054 35 2239 42 107 4 135 8 180 29 57 26
100 65 124 111 9 18 58 347 129 874 63 465 114 852 114 859 0 11 -214 13
-1167 12 -643 -1 -1177 -3 -1188 -6z m1091 -173 c321 -82 555 -336 613 -664
42 -235 -38 -501 -204 -684 -238 -262 -632 -339 -954 -187 -331 157 -516 506
-460 867 50 320 292 586 609 668 106 27 289 27 396 0z"/>
<path d="M13700 7510 c-30 -5 -75 -15 -100 -22 l-44 -14 55 -31 c64 -36 113
-89 143 -152 16 -36 21 -66 21 -136 0 -78 -4 -97 -27 -140 -35 -68 -92 -122
-158 -154 -75 -35 -191 -37 -265 -3 -60 27 -129 92 -157 147 l-21 40 -14 -40
c-23 -63 -28 -237 -9 -325 43 -201 186 -384 371 -474 104 -51 183 -69 305 -69
122 0 201 18 306 69 333 163 479 577 320 909 -113 237 -329 383 -591 399 -44
3 -105 1 -135 -4z"/>
<path d="M15415 7789 c-3 -4 -62 -406 -130 -891 -68 -486 -129 -900 -135 -921
-17 -57 -86 -122 -152 -142 -58 -17 -311 -24 -1588 -45 -371 -6 -740 -13 -819
-16 l-143 -6 5 -45 c6 -54 53 -108 107 -124 24 -7 434 -4 1295 9 l1260 18 53
24 c62 27 133 100 150 156 22 71 284 1807 277 1840 -7 38 -41 90 -76 116 -30
23 -97 40 -104 27z"/>
<path d="M6310 6631 c-289 -49 -543 -96 -564 -105 -77 -32 -76 -35 31 -86 151
-73 223 -140 264 -248 92 -247 176 -674 215 -1093 21 -223 24 -778 6 -1004
-49 -590 -147 -1135 -245 -1356 -44 -99 -141 -186 -297 -265 -70 -36 -72 -38
-46 -45 39 -11 125 5 304 57 235 68 967 312 1047 348 74 35 129 86 163 153 56
110 174 484 237 748 l33 140 103 -2 c57 -1 464 -29 904 -62 881 -67 1299 -96
1507 -107 l137 -7 -5 139 c-9 235 -51 715 -65 728 -2 2 -247 25 -544 51 -1520
130 -1504 128 -1611 180 -135 66 -229 204 -249 369 l-7 55 -59 7 -58 6 -6 42
c-3 22 -16 136 -30 251 -42 348 -78 527 -151 765 -41 132 -82 223 -116 261
-40 46 -133 115 -191 143 -43 20 -70 26 -119 25 -35 0 -299 -40 -588 -88z
m861 -1292 c43 -19 108 -74 98 -82 -2 -3 -38 -1 -79 2 -98 8 -150 -1 -235 -43
-154 -76 -248 -213 -301 -441 -15 -62 -19 -117 -18 -240 1 -182 18 -267 79
-391 71 -145 142 -207 252 -219 l68 -8 -60 -29 c-48 -23 -69 -28 -104 -24
-127 16 -272 159 -340 336 -49 127 -65 226 -65 405 0 190 20 290 87 425 79
161 246 298 402 329 66 13 159 4 216 -20z"/>
<path d="M9254 6572 c4 -7 129 -188 277 -403 l270 -391 146 -330 147 -331 43
-19 c62 -27 237 -65 388 -83 148 -18 727 -32 762 -18 21 8 17 13 -55 75 -43
36 -129 112 -191 168 l-113 103 -86 14 c-117 18 -237 56 -292 91 -25 16 -320
272 -656 568 -653 576 -652 576 -640 556z"/>
<path d="M5656 6314 c-3 -9 -6 -848 -6 -1865 l0 -1850 91 48 c148 77 170 113
239 388 88 350 150 824 169 1313 25 601 -50 1253 -195 1713 -43 134 -72 170
-183 228 -86 45 -106 49 -115 25z"/>
<path d="M15640 5983 c-38 -15 -74 -50 -92 -91 -28 -63 -18 -120 30 -171 66
-70 154 -74 227 -10 111 98 37 281 -112 278 -21 0 -45 -3 -53 -6z"/>
<path d="M11980 5858 c-108 -74 -109 -219 -1 -282 42 -24 114 -26 158 -3 76
40 108 158 61 226 -36 52 -71 74 -130 79 -44 3 -59 0 -88 -20z"/>
<path d="M7760 5182 c0 -48 65 -164 120 -216 76 -71 137 -95 287 -111 121 -13
1075 -97 1691 -148 155 -13 285 -27 289 -30 15 -16 59 -441 77 -752 15 -251
22 -287 72 -372 32 -55 109 -117 174 -138 27 -9 50 -20 50 -24 0 -19 105 -111
159 -140 99 -53 196 -73 351 -74 148 -1 231 14 325 58 61 29 149 104 170 145
10 19 25 30 47 34 57 11 156 64 206 110 60 56 100 134 113 218 13 83 119 958
119 980 0 14 -18 17 -132 20 -152 5 -237 27 -355 94 l-68 39 -330 -3 c-432 -4
-688 16 -915 74 -112 28 -104 28 -96 9 3 -8 1 -15 -4 -15 -16 0 -2272 259
-2312 266 -37 6 -38 5 -38 -24z"/>
</g>
</svg>
