<?xml version="1.0" encoding="utf-8"?>
<!-- Generator: Adobe Illustrator 23.0.1, SVG Export Plug-In . SVG Version: 6.00 Build 0)  -->
<svg version="1.1" id="Слой_1" xmlns="http://www.w3.org/2000/svg" xmlns:xlink="http://www.w3.org/1999/xlink" x="0px" y="0px"
	 viewBox="0 0 380 250" style="enable-background:new 0 0 380 250;" xml:space="preserve">
<style type="text/css">
	.st0{fill:#EEEEEE;}
	.st1{fill:#AAAAAA;}
</style>
<rect class="st0" width="380" height="250"/>
<g transform="translate(0.000000,512.000000) scale(0.100000,-0.100000)">
	<path class="st1" d="M2032.4,4433.3c32.6-107.4,30.4-235.7-6.4-344.6c-31.2-93.1-95.7-191.1-162.2-246.2l-24.4-20.3v-392.3h-542.8
		v293.6l-22.5,8.6c-48.4,18-97.2,44.3-136.3,73.6l-19.5,15V3070H2800v1380.9h-772.9L2032.4,4433.3z M2319.5,4270.7v-60.1h-60.1
		h-60.1v60.1v60.1h60.1h60.1V4270.7z M2619.8,4270.7v-60.1h-60.1h-60.1v60.1v60.1h60.1h60.1V4270.7z M2619.8,3429.9h-540.5v660.7
		h540.6L2619.8,3429.9L2619.8,3429.9z M1418.6,3189.6h-120.1v120.1h120.1V3189.6z M1718.9,3189.6h-120.1v120.1h120.1V3189.6z
		 M2019.2,3189.6h-120.1v120.1h120.1V3189.6z M2319.5,3189.6h-120.1v120.1h120.1V3189.6z M2619.8,3189.6h-120.1v120.1h120.1V3189.6z
		"/>
</g>
<polygon class="st1" points="133.2,60.4 133.2,110.8 177.4,85.7 "/>
<path class="st1" d="M147.9,37C121.4,37,100,58.4,100,84.8s21.4,47.9,47.9,47.9s47.9-21.4,47.9-47.9S174.3,37,147.9,37z M147.9,121
	c-20,0-36.2-16.2-36.2-36.2c0-20,16.2-36.2,36.2-36.2s36.2,16.2,36.2,36.2C184.1,104.8,167.9,121,147.9,121z"/>
</svg>
