<?xml version="1.0" encoding="utf-8"?>
<!-- Generator: Adobe Illustrator 23.0.1, SVG Export Plug-In . SVG Version: 6.00 Build 0)  -->
<svg version="1.1" id="Слой_1" xmlns="http://www.w3.org/2000/svg" xmlns:xlink="http://www.w3.org/1999/xlink" x="0px" y="0px"
	 viewBox="0 0 380 250" style="enable-background:new 0 0 380 250;" xml:space="preserve">
<style type="text/css">
	.st0{fill:#EEEEEE;}
	.st1{fill:#AAAAAA;}
</style>
<rect class="st0" width="380" height="250"/>
<g transform="translate(0.000000,512.000000) scale(0.100000,-0.100000)">
	<path class="st1" d="M1990.3,4346.1c27.2-89.5,25.3-196.4-5.3-287.2c-26-77.6-79.8-159.3-135.2-205.2l-20.3-16.9v-326.9h-452.3
		v244.7l-18.8,7.2c-40.3,15-81,36.9-113.6,61.3l-16.3,12.5V3210H2630v1150.8h-644.1L1990.3,4346.1z M2229.6,4210.6v-50.1h-50.1
		h-50.1v50.1v50.1h50.1h50.1V4210.6z M2479.8,4210.6v-50.1h-50.1h-50.1v50.1v50.1h50.1h50.1V4210.6z M2479.8,3509.9h-450.4v550.6
		h450.5L2479.8,3509.9L2479.8,3509.9z M1478.8,3309.7h-100.1v100.1h100.1V3309.7z M1729.1,3309.7H1629v100.1h100.1V3309.7z
		 M1979.3,3309.7h-100.1v100.1h100.1V3309.7z M2229.6,3309.7h-100.1v100.1h100.1V3309.7z M2479.8,3309.7h-100.1v100.1h100.1V3309.7z
		"/>
</g>
<polygon class="st1" points="140.7,70.5 140.7,112.5 177.5,91.6 "/>
<path class="st1" d="M152.9,51C130.8,51,113,68.8,113,90.8s17.8,39.9,39.9,39.9s39.9-17.8,39.9-39.9S174.9,51,152.9,51z M152.9,121
	c-16.7,0-30.2-13.5-30.2-30.2s13.5-30.2,30.2-30.2s30.2,13.5,30.2,30.2C183.1,107.5,169.6,121,152.9,121z"/>
</svg>
