<?xml version="1.0" encoding="utf-8"?>
<!-- Generator: Adobe Illustrator 23.0.1, SVG Export Plug-In . SVG Version: 6.00 Build 0)  -->
<svg version="1.1" id="Слой_1" xmlns="http://www.w3.org/2000/svg" xmlns:xlink="http://www.w3.org/1999/xlink" x="0px" y="0px"
	 viewBox="0 0 2400 2151" style="enable-background:new 0 0 2400 2151;" xml:space="preserve">
<style type="text/css">
	.st0{display:none;}
	.st1{display:inline;}
	.st2{fill:#4D4D4D;}
	.st3{display:none;fill:none;}
</style>
<g transform="translate(0.000000,2151.000000) scale(0.100000,-0.100000)" class="st0">
	<path d="M11870,20080c-450-40-853-336-1181-867c-114-184-9114-15789-9164-15888c-144-289-209-542-209-815c0-343,114-623,348-855
		c231-229,527-360,946-417c142-19,18578-19,18725,0c570,75,967,320,1170,722c200,396,160,906-109,1415
		c-70,132-9047,15686-9139,15835c-96,155-133,207-232,327C12705,19921,12290,20117,11870,20080z M12155,19616c94-25,252-108,342-181
		c174-140,288-291,511-680c41-71,107-186,147-255c39-69,107-186,150-260c126-219,224-389,280-485c49-85,101-175,280-485
		c42-74,111-193,152-265c42-71,108-186,147-255c40-69,107-185,149-257c106-183,220-381,282-488c29-49,86-150,128-223
		c42-72,110-189,150-260c40-70,109-188,152-262c74-129,125-217,300-520c43-74,112-193,153-265c41-71,98-170,127-220
		c28-49,86-150,128-222c72-125,112-193,301-520c129-226,221-384,281-488c32-55,90-156,130-225s107-186,150-260s111-192,152-262
		c82-143,191-333,278-483c61-106,157-271,281-487c42-73,111-191,152-263c41-71,108-186,147-255c40-69,98-170,130-225
		c59-102,142-245,280-485c43-74,110-191,150-260s116-201,170-295c54-93,139-239,187-324c49-84,132-228,185-320
		c53-91,129-223,169-293c41-71,107-185,148-255c168-293,448-777,518-898c41-71,607-1052,1258-2180c651-1127,1207-2099,1236-2160
		c103-213,148-395,147-590c-3-436-288-717-823-811c-102-18-397-19-9395-19H2675l-117,22c-151,29-319,89-422,150
		c-50,29-113,80-163,130c-66,66-90,99-127,175c-67,135-81,197-81,358c0,75,6,166,14,205c21,106,76,268,130,380
		c26,55,2615,4547,2726,4740c90,156,395,685,540,935c40,69,106,184,147,255c41,72,118,205,171,296c53,92,136,236,185,320
		c48,85,133,231,187,324c94,164,163,282,319,553c109,189,216,374,281,487c32,55,90,156,130,225c39,69,107,186,150,260
		s110,191,150,260s98,170,130,225c79,137,167,290,429,743c42,72,109,189,149,260c41,70,100,172,132,227c67,117,144,250,430,745
		c190,329,232,402,300,520c40,69,132,229,205,355c73,127,165,286,205,355s107,186,150,260s112,194,153,265c42,72,109,187,149,257
		c40,71,108,188,150,260c42,73,99,174,128,223c62,107,176,305,282,488c42,72,109,188,149,257c39,69,105,184,147,255
		c41,72,108,189,150,260c41,72,110,191,152,265c43,74,102,176,130,225c58,99,169,292,280,485c239,415,293,496,425,634
		c164,173,349,283,533,316C11923,19642,12081,19635,12155,19616z"/>
	<path d="M11870,20080c-450-40-853-336-1181-867c-114-184-9114-15789-9164-15888c-144-289-209-542-209-815c0-343,114-623,348-855
		c231-229,527-360,946-417c142-19,18578-19,18725,0c570,75,967,320,1170,722c200,396,160,906-109,1415
		c-70,132-9047,15686-9139,15835c-96,155-133,207-232,327C12705,19921,12290,20117,11870,20080z M12155,19616c94-25,252-108,342-181
		c174-140,288-291,511-680c41-71,107-186,147-255c39-69,107-186,150-260c126-219,224-389,280-485c49-85,101-175,280-485
		c42-74,111-193,152-265c42-71,108-186,147-255c40-69,107-185,149-257c106-183,220-381,282-488c29-49,86-150,128-223
		c42-72,110-189,150-260c40-70,109-188,152-262c74-129,125-217,300-520c43-74,112-193,153-265c41-71,98-170,127-220
		c28-49,86-150,128-222c72-125,112-193,301-520c129-226,221-384,281-488c32-55,90-156,130-225s107-186,150-260s111-192,152-262
		c82-143,191-333,278-483c61-106,157-271,281-487c42-73,111-191,152-263c41-71,108-186,147-255c40-69,98-170,130-225
		c59-102,142-245,280-485c43-74,110-191,150-260s116-201,170-295c54-93,139-239,187-324c49-84,132-228,185-320
		c53-91,129-223,169-293c41-71,107-185,148-255c168-293,448-777,518-898c41-71,607-1052,1258-2180c651-1127,1207-2099,1236-2160
		c103-213,148-395,147-590c-3-436-288-717-823-811c-102-18-397-19-9395-19H2675l-117,22c-151,29-319,89-422,150
		c-50,29-113,80-163,130c-66,66-90,99-127,175c-67,135-81,197-81,358c0,75,6,166,14,205c21,106,76,268,130,380
		c26,55,2615,4547,2726,4740c90,156,395,685,540,935c40,69,106,184,147,255c41,72,118,205,171,296c53,92,136,236,185,320
		c48,85,133,231,187,324c94,164,163,282,319,553c109,189,216,374,281,487c32,55,90,156,130,225c39,69,107,186,150,260
		s110,191,150,260s98,170,130,225c79,137,167,290,429,743c42,72,109,189,149,260c41,70,100,172,132,227c67,117,144,250,430,745
		c190,329,232,402,300,520c40,69,132,229,205,355c73,127,165,286,205,355s107,186,150,260s112,194,153,265c42,72,109,187,149,257
		c40,71,108,188,150,260c42,73,99,174,128,223c62,107,176,305,282,488c42,72,109,188,149,257c39,69,105,184,147,255
		c41,72,108,189,150,260c41,72,110,191,152,265c43,74,102,176,130,225c58,99,169,292,280,485c239,415,293,496,425,634
		c164,173,349,283,533,316C11923,19642,12081,19635,12155,19616z"/>
	<path class="st1" d="M10164.7,12335c-93.7-14.3-166.3-73.2-216.6-174.4c-24.2-49.7-148-410.2-88.1-492.2
		c63.8-83.6,468.4-473.4,474.8-509c20.7-31.5,30.5-156.1,55.9-386.7c9.3-108,21.1-135.3,83.8-197.4
		c65.2-64.5,1406.5-1333.8,1412-1336.3c2.5-0.6,285.1,1497.7,314.7,1575.9c47.8,152.1,132.2,236.5,273.7,272.5
		c127.8,34.8,1415.6,139,2711.1,37.2c-1044.8,444.5-2744.6,1156.8-2856.4,1172.5C12265.1,12308.3,11534.8,12394.3,10164.7,12335z"/>
	<path class="st1" d="M9936.3,10924.2c12.3-156.1,404.1-502.1,404.1-502.1s-7.7-139.4,4.3-201.7
		c157.8-188.9,446.2-510.1,1490.2-1377.9c31-14.3,120.1-31.7,190.9-42.2c24.8-3.1,168.5-145.2,168.5-145.2s4.3,98.6,23.6,162
		c-259.6,247.2-1822.4,1711.8-1855.8,1769.5c-55.1,57.4-63.7,488.5-93.7,534.4c-7.1,22.7-335.2,351.3-335.2,351.3
		S9910.1,11009.4,9936.3,10924.2z"/>
	<path class="st1" d="M12490.4,11012.4c-59-15.5-116.8-35.1-177.1-116.9c-82.5-104.5-231.7-1123.9-354.8-1711
		c-7.5-18.9,248.3-248.3,250.8-249.5c3.1-0.6,533.2,1443.1,559.2,1494.6c49.7,98.1,159.5,206.7,261.9,258.2
		c233.3,130.4,2523.2,130.4,2988.4,81.9c-6.8,5.6-500.6,218.6-540.3,232.3C14930.5,11142.2,12833,11091.4,12490.4,11012.4z"/>
	<path class="st1" d="M13219.7,10665.4c-141.5-16.8-274.3-103-361.2-234.6c-69.2-112.8-586.5-1559.1-586.5-1559.1h134.7
		c0,0,508.3,1419.7,545.6,1475.3c42.8,73.9,138.8,173.7,279.4,197c775.7,34.7,1744,118.5,2995.8-0.9c28.1-19.1,26.2-58.4,24.4-70.2
		c-1.2-11.8-572.3-1490.9-572.3-1492.7s133.4,0,133.4,0s558,1447.4,561.7,1472.9c16.8,103-34.1,186.2-132.2,215.4
		C15775,10748.2,14039,10739.6,13219.7,10665.4z"/>
	<path class="st1" d="M15210.8,8831.3c-11.6-6.7-24.8-223.7-358.1-219.7c-314.7-17.4-1493.2-59.2-2310.8-65.8
		c-71.4,25.1-189.1,71.3-158.9,263.8c-21.6,0-53.4,2.8-90.1-1.7c-66.2-196.1,59.7-322.3,232.3-362.1
		c107.9-9.8,668.7,17.7,1238.3,30.6c623.1,14.1,1167.4,19.7,1370.6,95.6c78.8,40.3,133.7,116.5,166.2,223.3
		c27.5,104.5,281.6,1521.7,241.4,1723c-85.4,10.4-312.2,10.6-312.2,10.6S15223,9239.1,15210.8,8831.3z"/>
	<path class="st1" d="M15449.8,9154.7c-1.1-6.7,160.8-131,164.5-126.6c3.7,5,561.7,1446.8,560.5,1448.7
		c-2.5,1.9-431.9,26.2-554.3,34.1C15642.3,10282.7,15526.2,9636.1,15449.8,9154.7z"/>
	<path class="st1" d="M13230.9,10245.2c-54-11.8-98.7-45.3-122.3-90.6c-21.4-48.9-145.2-1101.7-145.2-1101.7
		s1432.5,14.4,1468.1,32.6c71.1,20.8,95.4,51.8,110.3,80.4c14.1,22.3,150.8,1075.6,150.8,1075.6S14314,10255.1,13230.9,10245.2z
		 M13786.7,9136.6c-280.1,0-507.1,227.1-507.1,507.1c0,280.1,227.1,507.1,507.1,507.1s507.1-227.1,507.1-507.1
		C14293.9,9363.6,14066.8,9136.6,13786.7,9136.6z"/>
	<path class="st1" d="M13786.7,10074.3c-50.6,0-99.1-8.8-144.2-24.8c77.9-30,133.3-105.6,133.3-194.1c0-114.9-93.1-208-208-208
		c-86,0-159.8,52.2-191.5,126.7c-13-41.1-20.1-84.9-20.1-130.3c0-237.8,192.8-430.5,430.5-430.5c237.8,0,430.5,192.8,430.5,430.5
		C14217.2,9881.5,14024.5,10074.3,13786.7,10074.3z"/>
	<path class="st1" d="M14788.8,10242.7c-1.9-2.5-160.8-1111.6-164.5-1124.7c-9.5-59.2-53.4-75.7-94.3-88.1
		c-61.2-19.3-1582.7-41.6-1582.7-41.6s0-77.6,69.5-104.9c14.9-4.3,1130.7,5,1585.8,31.4c90,20.2,90,44,118.7,97.1
		c13.7,44.1,183.6,1121.6,179.2,1142C14875.6,10229.9,14793.1,10250.8,14788.8,10242.7z"/>
	<path class="st1" d="M8754.2,9436.5c139.3-70.4,190.9-118,216.3-185c28.5-76.4,157.2-538.6,146.3-1072.7
		c-3.2-501.2-130.6-1001.7-161.2-1070.5c-27.3-61.4-229-188.1-212.9-192.4c24.2-6.8,759,166,904.5,297.4
		c117.5,106.1,202.7,600.1,202.7,600.1l1645.4-110.5c0,0-34.8,530.1-43.4,538.1c-1.2,1.2-1271.1,111.1-1337.6,143.4
		c-83.8,41-158.9,263.2-158.9,263.2s-71-10.1-72.6,8.1c-39.6,459.2-213.7,922.9-380.5,922.9
		C9480.7,9578.6,8756.5,9464,8754.2,9436.5z M9732.7,8671.2c-1.2-1.9-362.3,91.5-392.9-448.1c36.3-436.9,247.6-383.6,247.6-383.6
		s-297-199.9-353.2,427C9254.3,8897.9,9738.9,8676.1,9732.7,8671.2z"/>
	<path class="st1" d="M10964.8,9487.4l339.5-492.8l181.9-410.3c0,0,185.7-98.5,747.8-74.5c13,5-230.1,214.8-230.1,214.8
		s-169.2,22.9-234.6,65.2C11753.6,8799.6,10964.8,9487.4,10964.8,9487.4z"/>
	<path class="st1" d="M8731.6,9327.2c-1.9-5.6-3.7-2305.8-3.7-2305.8l56.5,29.8c91.9,47.8,105.5,70.1,148.3,240.8
		c54.6,217.2,93.1,511.4,104.9,814.9c15.5,373-31,777.7-121,1063.2c-26.7,83.2-44.7,105.5-113.6,141.5
		C8749.6,9339.6,8737.2,9342.1,8731.6,9327.2z"/>
	<circle class="st1" cx="12700" cy="8954.4" r="10.4"/>
	<circle class="st1" cx="14984.7" cy="9027.9" r="10.4"/>
	<path class="st1" d="M10112,8490.5c27.3-29.6,74.1-54.2,140.8-61c391.1-40.1,1266.2-118.4,1266.2-118.4s20.9-131.4,33.5-280.4
		c15.3-180.7,16-362.6,58.9-417.2c52.2-75.3,139-98.1,139-100.5c0-11.8,121.2-146.1,316.5-132.8c238.6-12.8,314.2,136.5,319,140
		c4.8,3.5,100.5,31.8,145.2,75.3c66.3,44.2,87.6,236.5,106.6,415.2c18.4,172.9,35.6,332.9,34.6,333.6c-3.2,2.2-93-3.4-179.7,18.9
		c-82.4,21.3-162.1,70.8-162.1,70.8s-219.3-7.9-456.3-1c-176.1,5.1-336.7,53.9-375,59.3c-5.7,0.8,4.9-18,3.7-18
		c-9.9,0-1464.2,165.1-1464.2,165.1S10018.6,8593.8,10112,8490.5z"/>
</g>
<g>
	<g class="st0">
		<path class="st2" d="M2271.4,1748.8L1361.1,241.9c-73.6-122.7-251.4-122.3-324.8-0.2L127.9,1748.8c0,0,0,0,0,0.2
			c-75.8,126.3,15,286.9,162.4,286.9H2109C2256.2,2035.7,2347.4,1875.5,2271.4,1748.8z"/>
		<path d="M2119.3,2223.5h-1819c-69.4,0-137-18.8-195.5-54.3c-54.9-33.3-100.7-80.7-132.6-136.9c-31.9-56.3-48.9-120-49.2-184.2
			c-0.2-48.3,9.1-96.7,27.3-141.8l26.9-54.2l908.4-1507l0,0c33.6-55.9,81.1-102.3,137.4-134c56.2-31.7,120.4-48.5,185.7-48.5h0.1
			c65.4,0,129.6,16.9,185.8,48.7c56.1,31.8,103.5,78,137,133.8l0,0L2441,1650.5l1.1,1.9c34.5,57.6,53.3,122.9,54.2,189
			c0.9,66.2-16.1,132-49.1,190.5c-31.8,56.3-77.7,103.7-132.6,137.1C2256.2,2204.5,2188.6,2223.3,2119.3,2223.5z M299.1,1848.4
			c0.2,0,0.6,0.1,1.1,0.1h1818.5c0.7,0,1.1-0.1,1.3-0.1c0.1-0.1,0.4-0.4,0.7-1c0.2-0.4,0.3-0.7,0.4-0.8c-0.1-0.2-0.2-0.6-0.6-1.2
			l-910-1506.6l-0.3-0.4c-0.3-0.4-0.5-0.7-0.5-0.7c-0.2,0-0.5-0.1-1-0.1c-0.7,0-1.1,0.1-1.2,0.1c-0.1,0.1-0.2,0.3-0.5,0.7l-0.1,0.2
			L325.4,1801v0.1l-26.8,44.6c-0.3,0.5-0.4,0.8-0.5,1c0.1,0.2,0.2,0.5,0.4,0.9C298.8,1848,299,1848.2,299.1,1848.4z"/>
		<path d="M2119,2073.5H300.3c-41.9,0-82.6-11.2-117.7-32.5c-33-20-60.6-48.6-79.9-82.6c-19.3-34-29.5-72.4-29.7-111
			c-0.2-37.5,9.2-74.6,27.3-108.2v-0.7l5.4-8.9l908.5-1507.1c41.3-68.8,114.1-109.8,194.5-109.8c0,0,0.1,0,0.1,0
			c80.4,0,153.1,41.2,194.4,110.1l910.2,1506.9l0,0c42.6,71.1,43.8,156.5,3.1,228.5c-19.2,34-46.9,62.7-79.9,82.7
			C2201.7,2062.1,2161,2073.4,2119,2073.5z M175.4,1759.3v0.2l-5.3,8.9c-28.6,47.6-29.3,104.8-2,153.1c27.3,48.2,76.7,77,132.2,77
			H2119c55.6-0.1,105.1-29,132.4-77.3c27.2-48.2,26.4-105.3-2.1-152.9L1339,261.2c-27.7-46.1-76.3-73.7-130.1-73.7c0,0-0.1,0-0.1,0
			c-53.9,0-102.6,27.5-130.3,73.5L175.4,1759.3z"/>
	</g>
</g>
<path class="st3" d="M1052.7,1332.9"/>
<image style="overflow:visible;" width="900" height="820" xlink:href="5BC67A0D.jpg"  transform="matrix(2.2429 0 0 2.2429 216.1937 225.7888)">
</image>
<polygon points="749.6,382.2 1032.5,872.3 1315.4,1362.4 749.6,1362.4 183.7,1362.4 466.6,872.3 "/>
</svg>
