<?xml version="1.0" encoding="utf-8"?>
<!-- Generator: Adobe Illustrator 23.0.1, SVG Export Plug-In . SVG Version: 6.00 Build 0)  -->
<svg version="1.1" id="Слой_1" xmlns="http://www.w3.org/2000/svg" xmlns:xlink="http://www.w3.org/1999/xlink" x="0px" y="0px"
	 viewBox="0 0 450 420" style="enable-background:new 0 0 450 420;" xml:space="preserve">
<g transform="translate(0.000000,512.000000) scale(0.100000,-0.100000)">
	<path d="M2580.9,4328.2c81.6-268.4,76-589.3-16-861.5c-77.9-232.7-239.3-477.7-405.4-615.6l-61-50.7v-980.7h-1357l0,733.9
		l-56.3,21.6c-121.1,45-243.1,110.7-340.7,183.9l-48.8,37.5V920H4500v3452.3H2567.7L2580.9,4328.2z M3298.8,3921.8v-150.2h-150.2
		h-150.2v150.2V4072h150.2h150.2V3921.8z M4049.5,3921.8v-150.2h-150.2h-150.2v150.2V4072h150.2h150.2V3921.8z M4049.5,1819.7
		H2698.2v1651.7h1351.4V1819.7z M1046.5,1219.1H746.2v300.3h300.3V1219.1z M1797.3,1219.1H1497v300.3h300.3V1219.1z M2548,1219.1
		h-300.3v300.3H2548V1219.1z M3298.8,1219.1h-300.3v300.3h300.3V1219.1z M4049.5,1219.1h-300.3v300.3h300.3V1219.1z"/>
</g>
<polygon points="83.1,58.4 83.1,184.4 193.6,121.7 "/>
<path d="M119.7,0C53.6,0,0,53.5,0,119.5s53.6,119.7,119.7,119.7s119.7-53.6,119.7-119.7S185.7,0,119.7,0z M119.7,210.1
	c-50,0-90.6-40.5-90.6-90.6c0-50,40.5-90.6,90.6-90.6s90.6,40.5,90.6,90.6C210.2,169.5,169.7,210.1,119.7,210.1z"/>
</svg>
