<?xml version="1.0" encoding="utf-8"?>
<!-- Generator: Adobe Illustrator 23.0.1, SVG Export Plug-In . SVG Version: 6.00 Build 0)  -->
<svg version="1.1" id="Capa_1" xmlns="http://www.w3.org/2000/svg" xmlns:xlink="http://www.w3.org/1999/xlink" x="0px" y="0px"
	 viewBox="0 0 319.6 308.8" style="enable-background:new 0 0 319.6 308.8;" xml:space="preserve">
<g>
	<path d="M280,0.5H39.5C17.7,0.5,0,18.2,0,40v160.3c0,21.8,17.7,39.6,39.6,39.6l141.2,0l64.3,64.3c3,3,6.9,4.6,11,4.6
		c2,0,4-0.4,6-1.2c5.8-2.4,9.6-8,9.6-14.3v-53.3h8.5c21.8,0,39.6-17.7,39.6-39.6V40C319.6,18.2,301.8,0.5,280,0.5z M304.6,200.4
		c0,13.5-11,24.6-24.6,24.6h-16c-4.1,0-7.5,3.4-7.5,7.5v60.8c0,0.2,0,0.3-0.3,0.5c-0.3,0.1-0.4,0-0.6-0.1l-66.5-66.5
		c-1.4-1.4-3.3-2.2-5.3-2.2H39.5c-13.5,0-24.6-11-24.6-24.6V40c0-13.5,11-24.6,24.6-24.6H280c13.5,0,24.6,11,24.6,24.6V200.4z"/>
	<path d="M159.8,48.6C159.8,48.6,159.8,48.6,159.8,48.6c-15.1,0-29,6.9-38.1,19c-2.5,3.3-1.8,8,1.5,10.5c3.3,2.5,8,1.8,10.5-1.5
		c6.2-8.3,15.7-13,26.1-13c8.5,0,16.6,3.5,22.9,9.7s9.7,14.4,9.7,22.9c0,14.3-9.5,27.1-23.2,31.2c-10.1,3-16.9,12.1-16.9,22.5v2.4
		c0,4.1,3.4,7.5,7.5,7.5s7.5-3.4,7.5-7.5v-2.4c0-3.8,2.5-7,6.2-8.1c20-6,33.9-24.7,33.9-45.6c0-12.5-5-24.4-14.1-33.5
		C184.2,53.6,172.3,48.6,159.8,48.6z"/>
	<path d="M159.8,176.8L159.8,176.8c-4.2,0-7.5,3.4-7.5,7.5c0,4.1,3.4,7.5,7.5,7.5s7.5-3.4,7.5-7.5S163.9,176.8,159.8,176.8z"/>
</g>
</svg>
