<?xml version="1.0" encoding="utf-8"?>
<!-- Generator: Adobe Illustrator 23.0.1, SVG Export Plug-In . SVG Version: 6.00 Build 0)  -->
<svg version="1.1" id="Слой_1" xmlns="http://www.w3.org/2000/svg" xmlns:xlink="http://www.w3.org/1999/xlink" x="0px" y="0px"
	 viewBox="0 0 512 512" style="enable-background:new 0 0 512 512;" xml:space="preserve">
<style type="text/css">
	.st0{display:none;}
</style>
<g transform="translate(0.000000,512.000000) scale(0.100000,-0.100000)">
	<path d="M400,3837V400h3280v2050l-80-127V480H480v3360c0,0,77,0,418,0h382v800h2320V3619l80,130v971H1275L400,3837z M1200,3920H570
		l630,630V3920z"/>
	<path d="M2464,1480c-30-49-41-93-109-424c-41-203-75-371-75-373c0-13,570,506,586,535c99,171,1657,2872,1657,2872l125-75l-654-1219
		l92,57l658,1158l-72,207c0,0-391,383-404,382C4266,4600,2483,1510,2464,1480z M4530,4255l-754-1302l-273,163l782,1362L4530,4255z
		 M3730,2878l-910-1581l-274,162l913,1581L3730,2878z M2638,1297c68-40,122-76,120-82c-3-10-343-315-351-315c-4,0,78,418,89,452
		c3,10,8,18,12,18C2512,1369,2570,1337,2638,1297z"/>
	<path d="M1730,3600h1550v80H1730V3600z"/>
	<path d="M800,3280h2480v80H800V3280z"/>
	<path d="M800,2960h2425l46,80H800V2960z"/>
	<path d="M800,2640h2238l42,80H800V2640z"/>
	<path d="M800,2320h800v80H800V2320z"/>
	<path d="M800,720h1335l26,80H800V720z"/>
	<path d="M800,1040h1400l20,80H800V1040z"/>
	<path class="st0" d="M1164,1661c-48-29-94-131-199-441c-96-284-156-429-189-462c-14-15-20-15-37-5c-43,27-80-37-37-67
		c37-26,83-20,123,15c51,45,101,157,200,449c91,266,156,420,179,420c20,0,56-92,56-145c0-52-17-124-91-385c-70-244-76-338-25-361
		c43-20,79,12,202,177c64,86,123,158,131,161c18,7,33-13,33-46c0-13-18-63-40-112s-40-98-40-109c0-31,62-37,123-12
		c55,24,67,22,67-11c1-57,22-59,143-17c122,43,239,56,369,42c107-11,128-7,128,28c0,38-26,44-194,48c-145,3-170,1-251-21
		c-49-13-98-27-107-31c-14-6-18-4-18,11c0,55-55,78-114,48c-16-9-31-14-33-12s5,24,16,48c32,74,35,111,13,163
		c-52,117-131,82-288-131c-46-61-87-114-92-117c-15-9,3,70,68,304c71,255,84,319,76,383c-7,61-52,163-84,188
		C1221,1685,1203,1685,1164,1661z"/>
</g>
</svg>
