<?xml version="1.0" encoding="utf-8"?>
<!-- Generator: Adobe Illustrator 23.0.1, SVG Export Plug-In . SVG Version: 6.00 Build 0)  -->
<svg version="1.1" id="Capa_1" xmlns="http://www.w3.org/2000/svg" xmlns:xlink="http://www.w3.org/1999/xlink" x="0px" y="0px"
	 viewBox="0 0 512 512" style="enable-background:new 0 0 512 512;" xml:space="preserve">
<g>
	<g>
		<path d="M479.9,230.9c0-10.9-5.4-20.6-13.7-26.5V195c0-13.6-11.1-24.7-24.7-24.7h-5.7l21.9-32.1c7.3-10.8,4.5-25.5-6.2-32.8
			L302.9,4.1c-5.2-3.6-11.5-4.9-17.7-3.7c-6.2,1.2-11.6,4.7-15.1,9.9L141.8,198.5h-35.7l8.6-87.1c0.1-1,0.7-1.8,1.6-2.2
			c11.1-4.2,20.7-12,27.1-22c0.5-0.8,1.4-1.2,2.4-1.1l56,5.5c4,0.4,7.6-2.5,8-6.5s-2.5-7.6-6.5-8l-56-5.5
			c-6.5-0.6-12.7,2.4-16.2,7.8c-4.7,7.3-11.7,13.1-19.9,16.2c-6.1,2.3-10.4,7.8-11,14.4l-8.7,88.6h-9.3L95.8,60.6
			c0.5-5,4.9-8.6,9.9-8.1l113.1,11.2c4,0.4,7.6-2.5,8-6.5s-2.5-7.6-6.5-8L107.1,38c-13-1.3-24.6,8.2-25.8,21.2l-11,111.1H51.6
			c-13.6,0-24.7,11.1-24.7,24.7v6.4C15.8,206.5,8,217.8,8,230.9v248.7C8,497.5,22.6,512,40.4,512h407.1c17.9,0,32.4-14.5,32.4-32.4
			L479.9,230.9z M441.5,184.9L441.5,184.9c5.6,0,10.1,4.5,10.1,10.1v3.7c-1.3-0.2-2.7-0.3-4.1-0.3h-31l9.3-13.6H441.5z M282.1,18.5
			c1.4-2,3.4-3.3,5.8-3.8c0.6-0.1,1.1-0.2,1.7-0.2c1.8,0,3.6,0.5,5.1,1.6l148.5,101.2c4.1,2.8,5.2,8.4,2.4,12.6l-46.7,68.5h-11.2
			l22.9-33.6c3.7-5.4,4-12.4,0.8-18.1c-4.3-7.6-6-16.5-4.9-25.2c0.8-6.4-2-12.7-7.4-16.4l-77-52.5c-5.4-3.7-12.3-4-17.9-0.9
			c-7.6,4.2-16.6,5.9-25.2,4.7c-6.4-0.9-12.9,2-16.5,7.4l-91.7,134.6h-11.2L282.1,18.5z M285.3,142.4c-31.8,0-57.9,24.8-60,56h-37
			l86.1-126.3c0,0,0,0,0,0c0.5-0.7,1.3-1.1,2.1-1.1c0.1,0,0.2,0,0.3,0c11.7,1.6,23.9-0.6,34.3-6.3c0.8-0.5,1.9-0.4,2.7,0.2l77,52.5
			c0.8,0.6,1.2,1.5,1.1,2.4c-1.5,11.7,0.8,23.9,6.6,34.2c0.5,0.8,0.4,1.9-0.1,2.7L370,198.5h-24.7
			C343.2,167.2,317.1,142.4,285.3,142.4z M330.7,198.5H240c2.1-23.2,21.6-41.4,45.3-41.4C309,157,328.6,175.3,330.7,198.5z
			 M41.5,195c0-5.6,4.5-10.1,10.1-10.1h17.2l-1.3,13.6h-26V195z"/>
	</g>
</g>
</svg>
