<?xml version="1.0" encoding="utf-8"?>
<!-- Generator: Adobe Illustrator 23.0.1, SVG Export Plug-In . SVG Version: 6.00 Build 0)  -->
<svg version="1.1" id="Слой_1" xmlns="http://www.w3.org/2000/svg" xmlns:xlink="http://www.w3.org/1999/xlink" x="0px" y="0px"
	 viewBox="0 0 1000 1000" style="enable-background:new 0 0 1000 1000;" xml:space="preserve">
<style type="text/css">
	.st0{display:none;}
	.st1{fill:#1D1D1B;}
</style>
<g>
	<g>
		<g>
			<path d="M987.6,835.1L574.5,151.2c-33.4-55.7-114.1-55.5-147.4-0.1l-412.3,684c0,0,0,0,0,0.1c-34.4,57.3,6.8,130.2,73.7,130.2
				h825.4C980.7,965.3,1022.1,892.6,987.6,835.1z M913.9,906.9H88.5c-21.4,0-34.6-23.3-23.6-41.6l412.3-683.9
				c10.6-17.7,36.4-17.9,47.2,0.1l413.1,683.8C948.5,883.5,935.3,906.9,913.9,906.9z"/>
		</g>
	</g>
	<path class="st0" d="M395.6,435.4l-20.2-1.2l-4.5,10.7c-1.7,4.1-5.1,7.2-9.3,8.7l0,0c-4.2,1.5-8.8,1.1-12.7-1.1l-10.1-5.6
		l-15.1,13.5l4.4,10.7c1.6,4.1,1.5,8.7-0.4,12.7l0,0c-1.9,4-5.5,7-9.7,8.2l-11.1,3.3l-1.2,20.2l10.7,4.5c4.1,1.7,7.2,5.1,8.7,9.3
		l0,0c1.5,4.2,1.1,8.8-1.1,12.7l-5.6,10.1l13.5,15.1l10.7-4.4c4.1-1.6,8.7-1.5,12.7,0.4l0,0c4,1.9,7,5.5,8.2,9.7l3.3,11.1l20.2,1.2
		l4.5-10.7c1.7-4.1,5.1-7.2,9.3-8.7l0,0c4.2-1.5,8.8-1.1,12.7,1.1l10.1,5.6l15.1-13.5l-4.4-10.7c-1.6-4.1-1.5-8.7,0.4-12.7l0,0
		c1.9-4,5.4-7,9.7-8.2l11.1-3.3l1.2-20.2l-10.6-4.5c-4.1-1.7-7.3-5.1-8.8-9.3l0,0c-1.4-4.1-1.1-8.7,1.1-12.5l5.6-10.2l-13.5-15.1
		l-10.7,4.4c-4.1,1.6-8.7,1.5-12.7-0.4l0,0c-4-1.9-7-5.5-8.2-9.7L395.6,435.4z M408.6,511.2c-0.9,15.2-13.9,26.8-29,25.9
		c-15.2-0.9-26.8-13.9-25.9-29c0.9-15.2,13.9-26.8,29-25.9C397.9,483.1,409.5,496.1,408.6,511.2z"/>
	<path class="st0" d="M272.1,547.5l-37.5-6l-10.5,19.1c-4,7.3-10.9,12.6-19,14.5l0,0c-8.1,1.9-16.7,0.3-23.5-4.4l-18-12.4
		l-30.8,22.3l6.1,20.9c2.4,8,1.2,16.6-3.2,23.7l0,0c-4.4,7.1-11.5,12-19.7,13.5l-21.5,4l-6,37.5l19.1,10.5c7.3,4,12.6,10.9,14.5,19
		l0,0c1.9,8.1,0.3,16.7-4.4,23.5l-12.3,18l22.3,30.8l20.9-6.1c8-2.4,16.6-1.2,23.7,3.2l0,0c7.1,4.4,12,11.5,13.5,19.7l4,21.5l37.5,6
		l10.5-19.1c4-7.3,10.9-12.6,19-14.5l0,0c8.1-1.9,16.7-0.3,23.5,4.4l18,12.4l30.8-22.3l-6.1-20.9c-2.4-8-1.2-16.6,3.2-23.7l0,0
		c4.4-7.1,11.5-12,19.7-13.5l21.4-4l6-37.6l-19-10.4c-7.4-4-12.7-11-14.6-19.1l0,0c-1.9-8-0.4-16.5,4.3-23.3l12.4-18.1l-22.3-30.8
		l-20.9,6.2c-8,2.3-16.6,1.2-23.7-3.2l0,0c-7.1-4.4-12-11.5-13.5-19.7L272.1,547.5z M282.1,692c-4.5,28.2-31,47.5-59.3,42.9
		s-47.5-31-42.9-59.3c4.5-28.2,31-47.5,59.3-42.9S286.6,663.8,282.1,692z"/>
</g>
<polygon class="st0" points="500,116.7 11.6,880.6 988.4,880.6 "/>
<path d="M768.5,269.7"/>
<polygon class="st1" points="545,703 455,703 443,352 557,352 "/>
<circle class="st1" cx="500" cy="802.9" r="64"/>
</svg>
