<?xml version="1.0" encoding="utf-8"?>
<!-- Generator: Adobe Illustrator 23.0.1, SVG Export Plug-In . SVG Version: 6.00 Build 0)  -->
<svg version="1.1" id="Слой_1" xmlns="http://www.w3.org/2000/svg" xmlns:xlink="http://www.w3.org/1999/xlink" x="0px" y="0px"
	 viewBox="0 0 237.3 365" style="enable-background:new 0 0 237.3 365;" xml:space="preserve">
<style type="text/css">
	.st0{display:none;}
</style>
<g transform="translate(0.000000,800.000000) scale(0.100000,-0.100000)">
	<path class="st0" d="M3628,7994c-429-30-941-146-1293-292c-33-14-89-37-124-52c-103-43-350-169-462-236C687,6781,43,5753,4,4630
		c-31-868,296-1682,947-2359l109-114l-34-79c-64-145-161-309-249-423c-146-187-418-473-610-640C45,909,12,856,3,757
		C-7,649,35,556,124,489c88-66,130-69,651-55c454,12,585,21,807,56c360,56,617,147,890,315c139,87,344,239,438,327
		c47,44,58,47,128,28c168-43,443-92,627-110c310-32,733-7,1110,65c696,134,1352,441,1875,880c271,228,511,495,691,770
		c261,397,420,799,494,1245c104,626,15,1270-255,1842c-396,837-1144,1508-2080,1866C4911,7943,4256,8040,3628,7994z M4435,7367
		c414-57,761-159,1112-327c955-457,1597-1293,1707-2226c70-596-80-1206-424-1721c-43-64-84-123-90-130c-5-7-39-49-74-93
		c-482-609-1305-1062-2149-1184c-237-34-403-44-657-38c-301,7-487,33-820,114c-226,54-259,45-455-132c-280-252-475-372-741-458
		c-61-20-140-41-176-47c-53-8-439-29-553-30c-29,0-29,1,36,68c116,119,278,338,387,522c109,185,199,451,189,556
		c-10,103-39,142-228,314c-257,234-451,486-604,785c-208,406-293,778-282,1235c5,230,19,340,67,537c154,637,562,1216,1155,1639
		c268,191,654,379,978,478c275,83,497,126,832,160c22,2,175,3,340,1C4220,7388,4317,7383,4435,7367z"/>
	<path d="M520,7978L0,7506l398-439l355,328h742l278-325v-438l-820-557l-85-143v-687h600v438l811,551l94,136v874.6l-78.4,162.4
		L1701,8005H570L520,7978z"/>
	<path d="M868,4350h600v600H868V4350z"/>
</g>
</svg>
