<?xml version="1.0" encoding="utf-8"?>
<!-- Generator: Adobe Illustrator 23.0.1, SVG Export Plug-In . SVG Version: 6.00 Build 0)  -->
<svg version="1.1" id="Слой_1" xmlns="http://www.w3.org/2000/svg" xmlns:xlink="http://www.w3.org/1999/xlink" x="0px" y="0px"
	 viewBox="0 0 430 430" style="enable-background:new 0 0 430 430;" xml:space="preserve">
<style type="text/css">
	.st0{display:none;}
</style>
<g transform="translate(0.000000,512.000000) scale(0.100000,-0.100000)">
	<path d="M0,4237V820h3238.5v2030l-80-127V900H80v3340h758.5v800h2320V4019l80,130v971h-2405L0,4237z M758.5,4320h-590l590,630V4320
		z"/>
	<path d="M2022.5,1880c-30-49-41-93-109-424c-41-203-75-371-75-373c0-13,570,506,586,535c99,171,1657,2872,1657,2872l125-75
		l-654-1219l92,57L4300,4411l-69.5,207c0,0-391,383-404,382C3824.5,5000,2041.5,1910,2022.5,1880z M4088.5,4655l-754-1302l-273,163
		l782,1362L4088.5,4655z M3288.5,3278l-910-1581l-274,162l913,1581L3288.5,3278z M2196.5,1697c68-40,122-76,120-82
		c-3-10-343-315-351-315c-4,0,78,418,89,452c3,10,8,18,12,18C2070.5,1769,2128.5,1737,2196.5,1697z"/>
	<path d="M1288.5,4000h1550v80h-1550V4000z"/>
	<path d="M358.5,3680h2480v80h-2480V3680z"/>
	<path d="M358.5,3360h2425l46,80h-2471V3360z"/>
	<path d="M358.5,3040h2238l42,80h-2280V3040z"/>
	<path d="M358.5,2720h800v80h-800V2720z"/>
	<path d="M358.5,1120h1335l26,80h-1361V1120z"/>
	<path d="M358.5,1440h1400l20,80h-1420V1440z"/>
	<path class="st0" d="M722.5,2061c-48-29-94-131-199-441c-96-284-156-429-189-462c-14-15-20-15-37-5c-43,27-80-37-37-67
		c37-26,83-20,123,15c51,45,101,157,200,449c91,266,156,420,179,420c20,0,56-92,56-145c0-52-17-124-91-385c-70-244-76-338-25-361
		c43-20,79,12,202,177c64,86,123,158,131,161c18,7,33-13,33-46c0-13-18-63-40-112s-40-98-40-109c0-31,62-37,123-12
		c55,24,67,22,67-11c1-57,22-59,143-17c122,43,239,56,369,42c107-11,128-7,128,28c0,38-26,44-194,48c-145,3-170,1-251-21
		c-49-13-98-27-107-31c-14-6-18-4-18,11c0,55-55,78-114,48c-16-9-31-14-33-12s5,24,16,48c32,74,35,111,13,163
		c-52,117-131,82-288-131c-46-61-87-114-92-117c-15-9,3,70,68,304c71,255,84,319,76,383c-7,61-52,163-84,188
		C779.5,2085,761.5,2085,722.5,2061z"/>
</g>
</svg>
