<?xml version="1.0" encoding="utf-8"?>
<!-- Generator: Adobe Illustrator 23.0.1, SVG Export Plug-In . SVG Version: 6.00 Build 0)  -->
<svg version="1.1" id="Capa_1" xmlns="http://www.w3.org/2000/svg" xmlns:xlink="http://www.w3.org/1999/xlink" x="0px" y="0px"
	 viewBox="0 0 425 316" style="enable-background:new 0 0 425 316;" xml:space="preserve">
<style type="text/css">
	.st0{display:none;}
	.st1{display:inline;}
</style>
<g class="st0">
	<g class="st1">
		<path d="M352.9-20c-32.4,0-58,26-58,58.4s26,58,58,58s58.4-26,58.4-58.4S385.3-20,352.9-20z M352.9,83.6
			c-25.2,0-45.6-20.4-45.6-45.6s20.8-45.2,45.6-45.2c25.2,0,45.6,20.4,45.6,45.6S378.1,83.6,352.9,83.6z"/>
	</g>
</g>
<g class="st0">
	<g class="st1">
		<path d="M371.3,47.2c-0.4-1.2-0.4-2-1.2-3.2c-0.4-0.8-0.8-2-1.6-2.8c-0.8-0.8-1.2-1.6-2-2.4s-1.6-1.6-2.8-2
			c-0.8-0.8-2-1.2-2.8-1.6c-1.2-0.4-2-1.2-3.2-1.6s-2.4-0.8-3.2-1.2c-0.4,0-1.2-0.4-1.6-0.8c-0.4-0.4-1.2-0.4-1.6-0.8
			c-0.4-0.4-1.2-0.4-1.6-0.8c-0.4-0.4-0.8-0.8-1.2-1.2c-0.4-0.4-0.8-0.8-0.8-1.6c-0.4-0.4-0.4-1.2-0.4-1.6c0-0.8,0-1.2,0-2
			c0-0.4,0.4-1.2,0.4-1.6c0.4-0.4,0.4-1.2,0.8-1.6c0.4-0.4,0.8-0.8,1.2-1.2c0.4-0.4,1.2-0.8,2-0.8c0.8-0.4,1.2-0.4,2-0.4
			c0.4,0,0.8,0,1.2,0s0.8,0,1.2,0c0.8,0,1.2,0,2,0.4c0.8,0,1.6,0.4,2,0.4c0.4,0,1.2,0.4,1.6,0.4c0.8,0,1.2,0.4,1.6,0.4l2,0.8
			l0.4-2.4l0.8-6.4V10l-1.6-0.4c-0.4,0-1.2-0.4-1.6-0.4c-0.4,0-0.8-0.4-1.6-0.4c-0.4,0-1.2-0.4-2-0.4s-1.2-0.4-2-0.4h-0.4V2.4v-2h-2
			h-5.6h-2v2v6h-0.4c-1.2,0.4-2.4,0.8-3.6,1.6c-1.2,0.4-2,1.2-2.8,2s-1.6,1.6-2.4,2.8c-0.8,0.8-1.2,2-1.6,3.2
			c-0.4,1.2-0.8,2.4-1.2,3.6s-0.4,2.8-0.4,4s0,2,0.4,3.2c0.4,1.2,0.4,2,1.2,3.2c0.4,0.8,1.2,2,1.6,2.8c0.8,0.8,1.2,1.6,2,2.4
			s1.6,1.6,2.8,2c0.8,0.8,2,1.2,2.8,1.6c1.2,0.4,2.4,1.2,3.2,1.6c1.2,0.4,2.4,0.8,3.2,1.2c0.4,0,1.2,0.4,1.6,0.8
			c0.4,0.4,1.2,0.4,1.6,0.8c0.4,0.4,0.8,0.8,1.2,0.8c0.4,0.4,0.8,0.8,1.2,1.2c0.4,0.4,0.4,0.8,0.8,1.6c0,0.4,0.4,1.2,0.4,2
			s0,1.2,0,2c0,0.4-0.4,1.2-0.8,1.6c-0.4,0.4-0.8,0.8-1.2,1.2c-0.4,0.4-0.8,0.8-1.6,1.2c-0.4,0.4-1.2,0.4-1.6,0.8
			c-0.4,0-1.2,0.4-2,0.4c-0.4,0-0.8,0-1.6,0c-0.4,0-1.2,0-1.6,0c-0.8,0-1.6,0-2,0c-0.8,0-1.6-0.4-2-0.4c-0.8,0-1.6-0.4-2.4-0.8
			s-1.6-0.4-2.4-0.8c-0.4,0-0.8-0.4-1.2-0.4s-0.8-0.4-1.2-0.4l-2.4-1.2l-0.4,2.8l-0.8,7.2v1.2l1.2,0.4c1.6-0.4,2.4,0,3.6,0.4
			c0.8,0.4,2,0.8,2.8,0.8c0.8,0.4,2,0.4,3.2,0.8s2,0.4,3.2,0.4h0.8v6v2h2h5.6h2v-2v-6.4h0.4c1.2-0.4,2.4-0.8,3.6-1.6
			c1.2-0.4,2-1.2,3.2-2c0.8-0.8,1.6-1.6,2.4-2.8c0.8-0.8,1.2-2,2-3.2c0.4-1.2,0.8-2.4,1.2-3.6s0.4-2.4,0.4-4
			C371.7,49.2,371.7,48.4,371.3,47.2z"/>
	</g>
</g>
<g>
	<g>
		<path d="M315.7,82.8l-64.8,51.6l-83.6-34.8c-2-0.8-4.4-0.4-6,0.8l-89.6,64l7.2,10.4l86.8-62l84,34.8c2,0.8,4.8,0.4,6.4-0.8
			l67.6-53.6L315.7,82.8z"/>
	</g>
</g>
<g>
	<g>
		<path d="M425,303.2h-36.1V111.6h-71.6v191.6h-21.6V175.6h-72v127.6h-21.6V166h-71.6v137.2h-21.6v-99.6h-72v99.6H0V316h42.9h58.8
			h35.2h58.8h34.4h58.8h34.4h58.8H425V303.2z"/>
	</g>
</g>
<g>
	<g>
		<path d="M402.5,0h-67.6c-2.7,0-4.8,2.2-4.8,4.8v67.6c0,2.7,2.2,4.8,4.8,4.8h67.6c2.7,0,4.8-2.2,4.8-4.8V4.8
			C407.3,2.2,405.2,0,402.5,0z M404.1,72.4c0,0.9-0.7,1.6-1.6,1.6h-67.6c-0.9,0-1.6-0.7-1.6-1.6V4.8c0-0.9,0.7-1.6,1.6-1.6h67.6
			c0.9,0,1.6,0.7,1.6,1.6V72.4L404.1,72.4z"/>
	</g>
</g>
<g>
	<g>
		<path d="M387.3,30.2c-1.4,0.9-2.6,2.5-3.5,4.7h-0.1v-5.3h-3.3v28.3h3.3V44c0-1.6,0.1-3.1,0.4-4.5c0.3-1.4,0.8-2.7,1.5-3.7
			c0.7-1.1,1.7-1.9,2.9-2.5c1.2-0.6,2.7-0.9,4.6-0.9v-3.6C390.6,28.8,388.7,29.3,387.3,30.2z"/>
	</g>
</g>
<g>
	<g>
		<path d="M371.1,40.3c-1.3-1.8-3.4-2.8-6.1-3.2v-0.1c0.8-0.1,1.6-0.4,2.3-0.8c0.7-0.4,1.4-0.9,2-1.6c0.6-0.7,1.1-1.5,1.4-2.5
			c0.4-1,0.5-2.2,0.5-3.6c0-1.5-0.2-2.8-0.7-4c-0.5-1.2-1.2-2.3-2.3-3.1c-1-0.9-2.4-1.6-4-2c-1.6-0.5-3.6-0.7-5.9-0.7h-14.2v39.4
			h16.1c1.9,0,3.6-0.2,5.2-0.6c1.6-0.4,2.9-1,4.1-1.9c1.1-0.9,2-2,2.7-3.4c0.6-1.4,1-3.2,1-5.2C373.1,44.2,372.5,42,371.1,40.3z
			 M347.9,21.7h8.6c2,0,3.8,0.1,5.2,0.4c1.4,0.2,2.5,0.6,3.4,1.1c0.9,0.5,1.5,1.2,1.9,2.1c0.4,0.9,0.6,1.9,0.6,3.1
			c0,1.2-0.2,2.3-0.5,3.2c-0.3,0.9-0.9,1.7-1.7,2.4c-0.8,0.6-1.9,1.1-3.2,1.5c-1.3,0.3-2.9,0.5-4.9,0.5h-9.4L347.9,21.7L347.9,21.7z
			 M368.7,51c-0.5,1-1.2,1.8-2.2,2.4c-1,0.6-2.2,0.9-3.7,1.1c-1.5,0.2-3.3,0.3-5.3,0.3h-9.5V39.1h9.9c1.8,0,3.3,0.1,4.8,0.3
			c1.4,0.2,2.6,0.6,3.7,1.1c1,0.5,1.8,1.3,2.4,2.3c0.5,1,0.8,2.3,0.8,4C369.4,48.5,369.2,49.9,368.7,51z"/>
	</g>
</g>
</svg>
