<?xml version="1.0" standalone="no"?>
<!DOCTYPE svg PUBLIC "-//W3C//DTD SVG 20010904//EN"
 "http://www.w3.org/TR/2001/REC-SVG-20010904/DTD/svg10.dtd">
<svg version="1.0" xmlns="http://www.w3.org/2000/svg"
 width="1080.000000pt" height="612.000000pt" viewBox="0 0 1080.000000 612.000000"
 preserveAspectRatio="xMidYMid meet">

<g transform="translate(0.000000,612.000000) scale(0.100000,-0.100000)"
fill="#000000" stroke="none">
<path d="M5077 5864 c-127 -19 -276 -61 -402 -111 -226 -91 -372 -189 -560
-378 -100 -99 -160 -169 -207 -240 -127 -192 -212 -393 -258 -610 -27 -127
-39 -441 -21 -567 28 -194 121 -466 208 -608 21 -36 42 -73 46 -82 21 -57 207
-364 408 -675 217 -335 408 -646 454 -738 11 -22 22 -42 25 -45 3 -3 22 -36
41 -75 20 -38 49 -97 66 -130 17 -33 43 -86 57 -118 14 -31 37 -81 50 -110
142 -307 269 -686 347 -1032 l23 -100 13 60 c50 230 139 550 179 642 8 17 14
35 14 40 0 10 121 317 137 348 6 11 26 54 44 95 41 88 180 363 188 370 3 3 17
28 31 55 41 83 214 367 353 580 233 358 261 403 372 590 99 167 275 525 314
636 61 176 76 281 76 519 0 238 -16 348 -75 533 -41 125 -146 332 -227 447
-102 143 -293 330 -433 423 -225 149 -476 244 -742 282 -128 18 -402 18 -521
-1z m419 -585 c177 -24 354 -96 490 -197 88 -66 203 -179 264 -261 48 -66 120
-205 148 -286 88 -260 76 -569 -33 -817 -103 -234 -307 -445 -540 -559 -145
-71 -266 -100 -445 -106 -332 -12 -598 90 -824 314 -107 106 -168 189 -227
308 -63 130 -97 250 -107 387 -29 371 82 666 345 919 122 117 261 205 398 251
150 50 368 70 531 47z"/>
</g>
</svg>
