<?xml version="1.0" encoding="utf-8"?>
<!-- Generator: Adobe Illustrator 23.0.1, SVG Export Plug-In . SVG Version: 6.00 Build 0)  -->
<svg version="1.1" id="Слой_1" xmlns="http://www.w3.org/2000/svg" xmlns:xlink="http://www.w3.org/1999/xlink" x="0px" y="0px"
	 viewBox="0 0 512 512" style="enable-background:new 0 0 512 512;" xml:space="preserve">
<style type="text/css">
	.st0{display:none;}
	.st1{fill:#1D1D1B;}
</style>
<path class="st0" d="M176,106c5.5,0,10-4.5,10-10c0-5.4-4.4-10-10-10c-5.5,0-10,4.5-10,10C166,101.6,170.5,106,176,106z"/>
<path d="M256,512c3.1,0,6-1.4,7.9-3.9C271,499,439,282.2,439,186C439,88.7,357.4,0,256,0C154.7,0,73,88.5,73,186
	c0,96.2,168,313,175.1,322.1C250,510.6,252.9,512,256,512z M93,186c0-88.4,76.2-166,163-166s163,77.6,163,166
	c0,74.4-118.1,240.1-163,299.5C210.8,425.7,93,260.2,93,186z"/>
<path class="st0" d="M386,186c0-71.7-58.3-130-130-130c-17.1,0-32.8,3.1-49.6,9.8c-5.1,2.1-7.6,7.9-5.6,13c2.1,5.1,7.9,7.6,13,5.6
	c14.5-5.8,27.5-8.4,42.2-8.4c60.7,0,110,49.3,110,110s-49.3,110-110,110s-110-49.3-110-110c0-18.8,4.7-36.9,14-53.7
	c2.7-4.8,0.9-10.9-3.9-13.6c-4.8-2.7-10.9-0.9-13.6,3.9c-11,19.8-16.5,41.2-16.5,63.4c0,71.7,58.3,130,130,130S386,257.7,386,186z"
	/>
<path d="M256,236c-5.5,0-10,4.5-10,10s4.5,10,10,10s10-4.5,10-10S261.5,236,256,236z"/>
<path d="M267.1,198c0.6-1,2.6-2.4,5.1-4.1c2.7-1.9,6-4.2,10-7.6c8.8-7.6,13.8-18.6,13.8-30.3c0-22.1-17.9-40-40-40
	c-22.1,0-40,17.9-40,40c0,5.5,4.5,10,10,10s10-4.5,10-10c0-11,9-20,20-20c11,0,20,9,20,20c0,5.8-2.5,11.3-6.9,15.1
	c-3.1,2.7-5.9,4.6-8.3,6.3c-9.2,6.4-14.8,11.5-14.8,28.6c0,5.5,4.5,10,10,10s10-4.5,10-10C266,200.9,266.6,198.8,267.1,198z"/>
<path class="st1" d="M256,56.2c-71.8,0-130,58.2-130,130s58.2,130,130,130s130-58.2,130-130S327.8,56.2,256,56.2z M256,295.7
	c-60.5,0-109.5-49-109.5-109.5S195.5,76.7,256,76.7s109.5,49,109.5,109.5S316.5,295.7,256,295.7z"/>
</svg>
