<svg height="512pt" viewBox="0 0 512 512.0002" width="512pt" xmlns="http://www.w3.org/2000/svg"><path d="m300.992188 271.050781c0-24.808593-20.179688-44.988281-44.988282-44.988281s-44.992187 20.179688-44.992187 44.988281c0 24.808594 20.183593 44.992188 44.992187 44.992188s44.988282-20.183594 44.988282-44.992188zm0 0"/><path d="m501.015625 204.882812-25.101563-7.058593 16.167969-20.476563c3.933594-4.976562 4.535157-12.167968.886719-17.359375-24.664062-35.113281-61.667969-51.144531-102.433594-42.214843-3.644531.800781-6.882812 3.082031-9.078125 6.101562l-70.304687 96.785156c3.761718 4.113282 6.96875 8.660156 9.75 13.53125l58.839844-19.117187c7.878906-2.578125 16.3125 1.757812 18.890624 9.636719 2.5625 7.867187-1.757812 16.332031-9.636718 18.894531l-58.851563 19.121093c.3125 2.765626.839844 5.472657.839844 8.324219 0 2.847657-.527344 5.554688-.839844 8.324219l113.851563 36.992188c3.550781 1.15625 7.511718 1.097656 10.933594-.398438 38.277343-16.75 57.664062-54.664062 57.019531-97.539062-.097657-6.351563-4.816407-11.828126-10.933594-13.546876zm0 0"/><path d="m360.210938 95.765625c-4.09375-42.035156-32.542969-82.6875-73.667969-95.207031-6.03125-1.835938-12.574219 1.011718-16.070313 6.257812l-14.472656 21.703125-14.46875-21.703125c-3.496094-5.246094-10.039062-8.09375-16.074219-6.257812-41.121093 12.519531-69.578125 53.175781-73.664062 95.214844-.359375 3.710937.808593 7.453124 3 10.46875l70.253906 96.703124c5.070313-2.316406 10.359375-4.21875 15.957031-5.359374v-61.503907c0-8.292969 6.707032-15 14.996094-15s14.996094 6.707031 14.996094 15v61.503907c5.597656 1.140624 10.886718 3.042968 15.957031 5.359374l70.253906-96.707031c2.195313-3.015625 3.363281-6.761719 3.003907-10.472656zm0 0"/><path d="m.015625 218.433594c-.644531 42.871094 18.78125 80.789062 57.050781 97.539062 3.421875 1.496094 7.378906 1.554688 10.929688.398438l113.863281-36.996094c-.308594-2.769531-.839844-5.472656-.839844-8.324219 0-2.851562.53125-5.554687.839844-8.324219l-58.851563-19.121093c-7.878906-2.5625-12.199218-11.027344-9.636718-18.890625 2.578125-7.878906 11-12.199219 18.890625-9.636719l58.839843 19.117187c2.78125-4.871093 5.988282-9.421874 9.753907-13.535156l-70.3125-96.777344c-2.195313-3.023437-5.433594-5.304687-9.082031-6.105468-40.804688-8.921875-77.800782 7.097656-102.46875 42.207031-3.644532 5.195313-3.042969 12.386719.886718 17.367187l15.167969 20.472657-24.101563 7.058593c-6.117187 1.71875-10.835937 7.195313-10.929687 13.550782zm0 0"/><path d="m443.351562 351.648438c-1.890624-3.21875-5.058593-5.597657-8.609374-6.75l-113.839844-36.988282c-2.78125 4.871094-5.996094 9.417969-9.753906 13.53125l36.3125 49.988282c4.878906 6.710937 3.386718 16.082031-3.308594 20.945312-6.734375 4.878906-16.097656 3.371094-20.941406-3.3125l-36.253907-49.90625c-5.074219 2.316406-10.359375 4.222656-15.957031 5.363281v121.148438c0 3.734375 1.277344 7.480469 3.757812 10.269531 27.742188 31.210938 71.445313 44.164062 112.082032 30.296875 6.019531-2.054687 9.769531-8.238281 9.507812-14.589844l-1.066406-27.097656 24.484375 9.078125c5.960937 2.210938 12.996094.558594 16.808594-4.527344 25.742187-34.308594 27.894531-81.394531 6.777343-117.449218zm0 0"/><path d="m200.855469 321.441406c-3.761719-4.113281-6.972657-8.660156-9.753907-13.53125l-113.839843 36.988282c-3.546875 1.152343-6.71875 3.527343-8.605469 6.746093-21.125 36.058594-18.96875 83.144531 6.773438 117.453125 3.8125 5.085938 10.851562 6.738282 16.808593 4.527344l24.488281-9.078125-1.070312 27.097656c-.261719 6.339844 3.5 12.53125 9.503906 14.585938 11.363282 3.886719 22.996094 5.769531 34.445313 5.769531 29.535156-.015625 57.714843-13.746094 77.679687-36.347656 2.453125-2.777344 3.71875-6.5 3.71875-10.207032v-120.925781c-5.597656-1.140625-10.882812-3.046875-15.953125-5.363281l-36.253906 49.90625c-4.824219 6.65625-14.179687 8.214844-20.945313 3.3125-6.691406-4.863281-8.183593-14.234375-3.308593-20.945312zm0 0"/></svg>