<?xml version="1.0" encoding="utf-8"?>
<!-- Generator: Adobe Illustrator 23.0.1, SVG Export Plug-In . SVG Version: 6.00 Build 0)  -->
<svg version="1.1" id="Capa_1" xmlns="http://www.w3.org/2000/svg" xmlns:xlink="http://www.w3.org/1999/xlink" x="0px" y="0px"
	 viewBox="0 0 512 512" style="enable-background:new 0 0 512 512;" xml:space="preserve">
<style type="text/css">
	.st0{display:none;}
</style>
<g>
	<g>
		<g>
			<path d="M226,49h60c5.5,0,10-6.6,10-19.6S291.5,11,286,11h-60c-5.5,0-10,5.4-10,18.4S220.5,49,226,49z"/>
			<path class="st0" d="M312.6,207.1l-70.7,70.7c-7.8,7.8-7.8,20.5,0,28.3c7.8,7.8,20.5,7.8,28.3,0l70.7-70.7
				c7.8-7.8,7.8-20.5,0-28.3C333,199.3,320.4,199.3,312.6,207.1z"/>
			<path class="st0" d="M256,61C134.4,61,36,159.4,36,281c0,121.6,98.4,220,220,220c121.6,0,220-98.4,220-220
				C476,159.4,377.6,61,256,61z M256,471c-99.3,0-190-90.7-190-190S156.7,91,256,91s190,90.7,190,190S355.3,471,256,471z"/>
			<path d="M342.5,182.9c-7.2-5.8-17.8-4.7-23.6,2.5l-53,65.5c-1.7-0.3-3.5-0.4-5.2-0.4c-18.5,0-33.6,15.1-33.6,33.6
				s15.1,33.6,33.6,33.6c18.5,0,33.6-15.1,33.6-33.6c0-4.2-0.8-8.3-2.2-12l53-65.5C350.8,199.3,349.7,188.7,342.5,182.9z"/>
		</g>
	</g>
</g>
<path class="st0" d="M81.7,119l0.2-70.7c0-11-5.9-20-16.9-20.1c-11,0-17,8.9-17.1,19.9l-0.2,70.7c0,11,5.9,20,16.9,20.1
	C75.6,138.9,81.7,130.2,81.7,119z"/>
<path d="M74.6,124.8l54.3-45.3c8.5-7.1,11.6-17.4,4.5-25.9c-7.1-8.5-17.8-7.3-26.2-0.3L52.8,98.7c-8.5,7.1-11.6,17.4-4.5,25.9
	C55.4,132.9,66,132,74.6,124.8z"/>
<path d="M465.4,124.6c7.1-8.5,4-18.8-4.5-25.9l-54.3-45.3c-8.5-7.1-19.2-8.2-26.2,0.3c-7.1,8.5-4,18.8,4.5,25.9l54.3,45.3
	C447.7,132,458.4,132.9,465.4,124.6z"/>
<path d="M256,61C134.5,61,36,159.5,36,281s98.5,220,220,220s220-98.5,220-220S377.5,61,256,61z M256,472.2
	c-105.6,0-191.2-85.6-191.2-191.2S150.4,89.8,256,89.8S447.2,175.4,447.2,281S361.6,472.2,256,472.2z"/>
</svg>
