<?xml version="1.0" encoding="utf-8"?>
<!-- Generator: Adobe Illustrator 23.0.1, SVG Export Plug-In . SVG Version: 6.00 Build 0)  -->
<svg version="1.1" id="Capa_1" xmlns="http://www.w3.org/2000/svg" xmlns:xlink="http://www.w3.org/1999/xlink" x="0px" y="0px"
	 viewBox="0 0 512 512" style="enable-background:new 0 0 512 512;" xml:space="preserve">
<style type="text/css">
	.st0{display:none;}
</style>
<g>
	<g>
		<g>
			<path d="M226,57h60c5.5,0,10-10.6,10-23.6S291.5,11,286,11h-60c-5.5,0-10,9.4-10,22.4S220.5,57,226,57z"/>
			<path class="st0" d="M312.6,207.1l-70.7,70.7c-7.8,7.8-7.8,20.5,0,28.3c7.8,7.8,20.5,7.8,28.3,0l70.7-70.7
				c7.8-7.8,7.8-20.5,0-28.3C333,199.3,320.4,199.3,312.6,207.1z"/>
			<path d="M256,61C134.4,61,36,159.4,36,281c0,121.6,98.4,220,220,220c121.6,0,220-98.4,220-220C476,159.4,377.6,61,256,61z
				 M256,461c-99.3,0-180-80.7-180-180s80.7-180,180-180s180,80.7,180,180S355.3,461,256,461z"/>
			<path d="M342.5,182.9c-7.2-5.8-17.8-4.7-23.6,2.5l-53,65.5c-1.7-0.3-3.5-0.4-5.2-0.4c-18.5,0-33.6,15.1-33.6,33.6
				s15.1,33.6,33.6,33.6c18.5,0,33.6-15.1,33.6-33.6c0-4.2-0.8-8.3-2.2-12l53-65.5C350.8,199.3,349.7,188.7,342.5,182.9z"/>
		</g>
	</g>
</g>
<path d="M60.9,137.4c4.5-0.3,8.9-2.1,12.5-5.4l51.3-48.7c8-7.6,8.3-20.3,0.7-28.3c-7.6-8-20.3-8.3-28.3-0.7L45.8,103
	c-8,7.6-8.3,20.3-0.7,28.3C49.3,135.7,55.2,137.8,60.9,137.4z"/>
<path d="M466.4,131.2c7.6-8,7.3-20.7-0.7-28.3l-51.3-48.7c-8-7.6-20.7-7.3-28.3,0.7c-7.6,8-7.3,20.7,0.7,28.3l51.3,48.7
	c3.5,3.4,8,5.2,12.5,5.4C456.3,137.8,462.2,135.7,466.4,131.2z"/>
</svg>
