<svg xmlns="http://www.w3.org/2000/svg" viewBox="0 0 600 180" width="300" height="90"><defs><style>.cls-1{fill:#165427;}.cls-2{fill:#339b37;}.cls-3{fill:#a5c720;}.cls-4{fill:#185427;}.cls-5{fill:#185126;stroke:#195126;stroke-miterlimit:10;stroke-width:3px;}.cls-6{fill:#727272;}</style></defs><g id="Слой_1" data-name="Слой 1"><polygon class="cls-1" points="163.52 0 95.44 0 0 180 68.09 180 163.52 0"/><polygon class="cls-2" points="238.44 0 170.35 0 91.74 148.7 159.83 148.7 238.44 0"/><polygon class="cls-3" points="212.87 58 243.96 0 292.48 84.38 228.39 84.38 212.87 58"/><polygon class="cls-4" points="600 172.85 84.39 172.85 86.11 170.11 600 170.11 600 172.85"/><polygon class="cls-3" points="600 77.83 302.74 77.83 301.11 74.89 600 74.89 600 77.83"/></g><g id="text"><path class="cls-5" d="M238,152.2h-8.9L213.94,129H206.1V152.2h-7.58V101.29l7.58.34V121.8h7.4l14.6-21.47,7.81,1.26L220.31,125Z" transform="translate(0 0)"/><path class="cls-5" d="M289.85,100.33l-24.3,51.87H256.9l5.53-11.83-19.37-38.78,8.06-.51,15.6,30.76,15.71-33.55Z" transform="translate(0 0)"/><path class="cls-5" d="M336.54,152.2H329V106.31H304.35V152.2h-7.58v-53h32.7l7.07,7.14Z" transform="translate(0 0)"/><path class="cls-5" d="M442.82,152.2h-8.9L418.76,129h-5.27V152.2h-7.58V129h-5.28L385.51,152.2h-8.9L394.3,125l-15.6-23.4,6.81-3.26,15.6,23.47h4.8V98.29l7.58,3.34V121.8h4.83l15.6-23.47,6.81,3.26L425.13,125Z" transform="translate(0 0)"/><path class="cls-5" d="M491.33,125.61l-6.88,7.14H459V152.2h-7.58v-53h33.07l6.88,7.14Zm-7.58,0V106.35H459v19.26Z" transform="translate(0 0)"/><path class="cls-5" d="M540.47,145,533,152.2h-26.7l-7.07-7.14h33.62V128.69H506.78l7.11-7.14h19v-15.2H499.75l7-7.14H533l7.43,7.21Z" transform="translate(0 0)"/><path class="cls-5" d="M592.58,145.1l-7.14,7.1H558.6l-7.14-7.1V106.42l7.21-7.21h26.7l7.21,7.21Zm-7.58,0V106.35H559v38.71Z" transform="translate(0 0)"/><path class="cls-6" d="M410.07,63.52h-3.54V52.15H396V63.52h-3.5V39.37H396v9.77h10.53V39.37h3.54Z" transform="translate(0 0)"/><path class="cls-6" d="M431.21,55c0,6.51-2.21,9-8.16,9s-8.19-2.45-8.19-9,2.24-9,8.19-9S431.21,48.47,431.21,55Zm-12.78,0c0,4.72,1.09,6.12,4.62,6.12s4.62-1.4,4.62-6.12-1.12-6.16-4.62-6.16S418.43,50.22,418.43,55Z" transform="translate(0 0)"/><path class="cls-6" d="M446.4,54.81c3.18.24,4.27,1.78,4.27,4.48,0,3.53-2,4.48-6.86,4.48-3.68,0-5.6,0-8.09-.21V46.48c2.2-.18,3.92-.21,7.14-.21,5.32,0,7.21.94,7.21,4.55,0,2.41-1.08,3.67-3.67,3.88Zm-3.29-1.3c2.76,0,3.74-.49,3.74-2.38s-1.08-2.24-4.16-2.24h-3.78v4.62Zm.17,7.6c2.94,0,4-.49,4-2.52s-1.08-2.66-4.16-2.66h-4.2v5.14Z" transform="translate(0 0)"/><path class="cls-6" d="M470.69,55c0,6.51-2.21,9-8.16,9s-8.19-2.45-8.19-9,2.24-9,8.19-9S470.69,48.47,470.69,55Zm-12.78,0c0,4.72,1.09,6.12,4.62,6.12s4.62-1.4,4.62-6.12-1.12-6.16-4.62-6.16S457.91,50.22,457.91,55Z" transform="translate(0 0)"/><path class="cls-6" d="M490,63.52h-3.29V49.17h-8.23V63.52h-3.29V46.44H490Z" transform="translate(0 0)"/><path class="cls-6" d="M510.94,55c0,6.51-2.21,9-8.16,9s-8.19-2.45-8.19-9,2.24-9,8.19-9S510.94,48.47,510.94,55Zm-12.78,0c0,4.72,1.08,6.12,4.62,6.12s4.62-1.4,4.62-6.12-1.12-6.16-4.62-6.16S498.16,50.22,498.16,55Z" transform="translate(0 0)"/><path class="cls-6" d="M529.63,63.52h-3.4V49.07H522.8c-1.4,0-1.89.52-2.1,2.1a47.71,47.71,0,0,1-1.57,8.64c-.84,2.66-2.7,4-5.64,3.89l-.35-2.59c1.89-.42,2.49-1,3-2.24a41.31,41.31,0,0,0,1.4-8.3c.31-2.73,1.68-4.13,4.65-4.13h7.46Z" transform="translate(0 0)"/><path class="cls-6" d="M550.52,55c0,6.51-2.2,9-8.15,9s-8.2-2.45-8.2-9,2.25-9,8.2-9S550.52,48.47,550.52,55Zm-12.77,0c0,4.72,1.08,6.12,4.62,6.12S547,59.74,547,55s-1.12-6.16-4.62-6.16S537.75,50.22,537.75,55Z" transform="translate(0 0)"/><path class="cls-6" d="M569.88,68.56l-.32-5H555.07V46.44h3.32V60.79h8V46.44h3.36V60.79h2.42v7.77Z" transform="translate(0 0)"/><path class="cls-6" d="M584.22,54.67c3.86.42,4.7,2.66,6.9,8.85h-3.53c-2.07-5.53-2.8-7.52-6-7.56h-2.34a8.86,8.86,0,0,1,.17,1.58v6H576V46.44h3.36v4.94a12.64,12.64,0,0,1-.17,2h2.13c3.23,0,4.17-2.31,5.78-6.9h3.5c-2,5.36-2.8,7.7-6.41,8.16Z" transform="translate(0 0)"/></g></svg>