<svg id="svg" version="1.1" xmlns="http://www.w3.org/2000/svg" xmlns:xlink="http://www.w3.org/1999/xlink" width="400" height="400" viewBox="0, 0, 400,400"><g id="svgg"><path id="path0" d="M174.689 40.096 C 174.516 40.859,170.263 57.389,168.035 65.960 L 167.369 68.521 162.840 69.659 C 160.349 70.285,156.846 71.251,155.056 71.805 L 151.800 72.813 146.400 67.218 C 137.430 57.925,130.683 51.200,130.328 51.200 C 130.057 51.200,124.936 54.050,122.400 55.612 C 121.190 56.358,113.686 60.737,109.678 63.036 C 107.411 64.336,105.251 65.582,104.878 65.803 C 104.505 66.025,102.353 67.260,100.096 68.548 C 95.221 71.329,95.454 71.035,96.202 73.459 C 96.824 75.472,99.861 86.173,102.235 94.712 C 102.986 97.413,103.600 99.793,103.600 100.001 C 103.600 100.209,101.065 102.924,97.967 106.033 L 92.334 111.687 90.067 111.062 C 88.820 110.718,86.450 110.075,84.800 109.634 C 83.150 109.192,77.575 107.664,72.411 106.238 C 67.247 104.812,62.999 103.680,62.970 103.722 C 62.381 104.613,56.800 114.449,56.800 114.598 C 56.800 114.714,55.931 116.202,54.868 117.904 C 53.806 119.607,52.387 121.990,51.715 123.200 C 51.043 124.410,48.763 128.369,46.648 131.997 L 42.802 138.594 47.901 143.565 C 50.705 146.298,55.634 151.120,58.854 154.279 L 64.709 160.024 63.912 162.512 C 62.880 165.732,62.621 166.650,61.493 171.102 C 60.304 175.798,61.741 175.018,47.400 178.751 C 40.580 180.527,34.190 182.217,33.200 182.507 L 31.400 183.035 31.298 203.218 L 31.195 223.400 40.298 225.716 C 45.304 226.989,51.877 228.689,54.905 229.492 L 60.410 230.952 60.804 232.576 C 61.727 236.387,62.956 240.791,63.823 243.400 L 64.754 246.200 53.766 257.000 L 42.778 267.800 45.189 271.764 C 46.515 273.945,47.600 275.792,47.600 275.868 C 47.600 275.945,49.515 279.291,51.856 283.304 C 54.197 287.317,56.469 291.230,56.905 292.000 C 57.341 292.770,58.514 294.840,59.512 296.600 C 60.509 298.360,61.751 300.445,62.272 301.233 L 63.218 302.667 74.309 299.569 C 80.409 297.865,86.952 296.033,88.848 295.499 L 92.296 294.527 97.980 300.235 L 103.664 305.943 102.581 309.872 C 101.986 312.032,101.083 315.240,100.574 317.000 C 98.671 323.583,95.553 335.285,95.674 335.389 C 95.743 335.448,97.013 336.147,98.496 336.941 C 99.978 337.735,101.910 338.838,102.788 339.392 C 103.666 339.946,104.495 340.400,104.630 340.400 C 104.766 340.400,105.354 340.733,105.938 341.139 C 106.522 341.545,107.990 342.426,109.200 343.095 C 110.410 343.764,114.080 345.862,117.355 347.756 C 120.631 349.650,123.393 351.200,123.494 351.200 C 123.594 351.200,124.154 351.533,124.738 351.939 C 125.322 352.345,126.871 353.259,128.180 353.969 L 130.560 355.261 135.337 350.330 C 147.944 337.316,151.787 333.586,152.360 333.806 C 153.832 334.371,162.516 336.793,164.649 337.233 L 167.019 337.723 170.176 349.561 C 171.913 356.073,173.685 362.707,174.114 364.304 L 174.894 367.207 195.131 367.104 L 215.367 367.000 215.643 365.800 C 215.928 364.556,222.663 339.499,223.020 338.350 C 223.154 337.920,224.066 337.534,225.711 337.211 C 227.080 336.943,230.223 336.110,232.695 335.361 C 235.168 334.613,237.425 334.000,237.710 334.000 C 237.996 334.000,242.993 338.768,248.815 344.595 C 254.637 350.422,259.522 355.192,259.671 355.195 C 259.820 355.198,266.390 351.490,274.271 346.956 C 282.152 342.421,289.905 337.976,291.500 337.078 C 294.972 335.122,294.922 336.370,291.967 325.527 C 288.243 311.866,287.623 309.556,287.118 307.476 L 286.652 305.552 292.082 300.121 L 297.513 294.690 310.457 298.178 C 317.575 300.096,324.245 301.908,325.278 302.205 L 327.155 302.744 328.332 300.672 C 330.958 296.051,339.625 280.959,339.975 280.400 C 340.181 280.070,341.487 277.821,342.875 275.402 C 344.264 272.983,345.618 270.643,345.884 270.202 C 347.575 267.401,348.381 268.563,336.578 256.791 C 330.650 250.879,325.864 245.807,325.943 245.521 C 326.021 245.234,326.845 241.957,327.774 238.239 L 329.463 231.478 333.432 230.355 C 337.160 229.300,339.361 228.698,353.400 224.894 L 359.000 223.377 359.101 203.189 L 359.202 183.000 348.901 180.251 C 339.268 177.681,329.953 175.118,329.680 174.962 C 329.615 174.925,329.043 172.848,328.411 170.347 C 327.035 164.908,326.144 161.624,325.816 160.778 C 325.645 160.338,328.730 157.088,336.387 149.642 C 342.334 143.859,347.200 138.927,347.200 138.682 C 347.200 138.269,343.429 131.620,338.646 123.600 C 337.531 121.730,336.335 119.660,335.988 119.000 C 335.642 118.340,333.940 115.370,332.205 112.400 C 330.471 109.430,328.629 106.252,328.113 105.337 L 327.173 103.674 321.287 105.243 C 318.049 106.106,312.970 107.457,310.000 108.244 C 307.030 109.031,303.034 110.092,301.120 110.603 L 297.641 111.531 292.187 106.078 L 286.733 100.624 289.776 89.212 C 291.449 82.935,293.087 76.917,293.415 75.838 C 294.814 71.229,294.808 71.207,291.523 69.333 C 289.915 68.416,283.776 64.861,277.879 61.433 C 271.983 58.005,267.092 55.200,267.011 55.200 C 266.930 55.200,265.412 54.300,263.639 53.200 C 261.865 52.100,260.187 51.200,259.910 51.200 C 259.632 51.200,254.594 56.009,248.714 61.886 L 238.023 72.571 236.312 72.073 C 235.370 71.799,231.990 70.908,228.800 70.094 C 225.610 69.280,222.945 68.585,222.878 68.551 C 222.810 68.517,221.689 64.284,220.385 59.144 C 219.082 54.005,217.413 47.460,216.678 44.600 L 215.341 39.400 195.118 39.296 L 174.895 39.193 174.689 40.096 M207.200 104.407 C 218.915 106.060,230.185 109.580,239.600 114.528 C 246.294 118.046,247.961 119.071,252.660 122.566 C 253.572 123.245,254.792 124.143,255.369 124.563 C 257.112 125.830,259.226 127.660,262.148 130.431 L 264.922 133.063 264.296 134.831 C 263.484 137.130,261.692 142.083,259.268 148.733 L 257.324 154.066 254.707 150.933 C 231.000 122.549,184.922 114.874,154.709 134.276 C 153.769 134.880,152.519 135.649,151.932 135.987 C 151.344 136.324,150.377 136.960,149.782 137.400 C 149.187 137.840,147.599 139.010,146.253 140.000 C 143.947 141.696,135.917 149.416,134.188 151.600 C 94.500 201.708,122.638 272.659,185.435 280.823 C 235.151 287.287,279.021 243.699,273.222 193.600 C 272.453 186.962,272.493 187.076,271.041 187.338 C 269.229 187.665,258.120 189.590,255.900 189.962 C 254.855 190.137,254.000 190.201,254.000 190.104 C 254.000 189.904,264.709 160.167,269.308 147.600 C 272.823 137.991,272.273 138.612,274.606 141.625 C 275.471 142.741,278.558 146.380,280.837 148.968 C 281.627 149.866,282.644 151.050,283.098 151.600 C 283.552 152.150,285.521 154.490,287.474 156.800 C 289.427 159.110,292.356 162.620,293.984 164.600 C 295.612 166.580,297.226 168.497,297.572 168.860 C 297.917 169.222,298.763 170.212,299.450 171.060 C 303.731 176.335,307.002 180.235,307.332 180.459 C 307.542 180.601,306.743 180.919,305.557 181.166 C 303.474 181.600,292.258 183.600,291.909 183.600 C 291.814 183.600,291.965 185.031,292.243 186.781 C 303.791 259.349,234.284 318.923,164.400 296.356 C 162.310 295.681,160.060 294.893,159.400 294.605 C 158.740 294.317,156.850 293.513,155.200 292.819 C 134.714 284.200,116.584 266.923,106.284 246.205 C 71.504 176.248,130.347 93.566,207.200 104.407 M203.200 145.632 C 216.453 147.470,230.034 154.738,238.404 164.471 C 239.600 165.862,240.684 167.090,240.813 167.200 C 241.549 167.830,245.791 174.730,247.329 177.800 C 259.362 201.823,252.201 232.660,230.777 249.068 C 201.527 271.469,159.332 261.907,143.206 229.222 C 124.498 191.305,149.769 147.907,192.200 145.081 C 194.701 144.914,199.907 145.175,203.200 145.632 " stroke="none" fill="#44ac04" fill-rule="evenodd"></path><path id="path1" d="" stroke="none" fill="#48ac04" fill-rule="evenodd"></path><path id="path2" d="" stroke="none" fill="#48ac04" fill-rule="evenodd"></path><path id="path3" d="" stroke="none" fill="#48ac04" fill-rule="evenodd"></path><path id="path4" d="" stroke="none" fill="#48ac04" fill-rule="evenodd"></path></g></svg>