<?xml version="1.0" encoding="utf-8"?>
<!-- Generator: Adobe Illustrator 23.0.1, SVG Export Plug-In . SVG Version: 6.00 Build 0)  -->
<svg version="1.1" id="Слой_1" xmlns="http://www.w3.org/2000/svg" xmlns:xlink="http://www.w3.org/1999/xlink" x="0px" y="0px"
	 viewBox="0 0 250 335" style="enable-background:new 0 0 250 335;" xml:space="preserve">
<style type="text/css">
	.st0{display:none;}
</style>
<path d="M125,68.2c-31.4,0-56.8,25.4-56.8,56.8c0,31.4,25.4,56.8,56.8,56.8c31.4,0,56.8-25.4,56.8-56.8
	C181.8,93.6,156.4,68.2,125,68.2z M125,170c-24.9,0-45-20.1-45-45c0-24.9,20.1-45,45-45c24.9,0,45,20.1,45,45
	C170,149.9,149.9,170,125,170z"/>
<path class="st0" d="M345.9,358.2l-34.7-207.9c-0.4-2.6-2.1-4.7-4.3-5.9c-1.1-0.5-2.3-0.8-3.5-0.8H190.9
	c-18.3,27.1-38.3,52.9-59.9,77.3c-3,3.3-8,3.6-11.3,0.6c-0.2-0.2-0.4-0.4-0.6-0.6c-21.6-24.5-41.7-50.3-59.9-77.3H-53.4
	c-3.9,0-7.2,2.8-7.9,6.7l-34.6,207.9c-0.7,4.4,2.2,8.5,6.6,9.2c0.4,0.1,0.9,0.1,1.3,0.1h426c4.4,0,8-3.6,8-8
	C346,359.1,346,358.6,345.9,358.2z M149,239.6h16v16h-16V239.6z M109,239.6h32v16h-32V239.6z M85,239.6h16v16H85V239.6z"/>
<path d="M125,0C56,0,0,56,0,125c0,28.6,23.1,71.9,51.1,113.6c22.7,33.5,47.4,65.7,73.9,96.4c26.4-30.7,51.1-62.8,73.9-96.4
	c28-41.8,51.1-85.1,51.1-113.6C250,56,194,0,125,0z M191.5,230c-20.5,30.7-42.7,60.2-66.5,88.3c-23.8-28.1-46-57.6-66.5-88.3
	c-25.2-38.3-46-78-46-104.1C12.5,62.6,62.9,11.3,125,11.3c62.1,0,112.5,51.3,112.5,114.5C237.5,152,216.7,191.7,191.5,230z"/>
<path class="st0" d="M303.4,143.6c1.3,0,2.5,0.3,3.5,0.8v-0.8H303.4z"/>
</svg>
