<?xml version="1.0" encoding="utf-8"?>
<!-- Generator: Adobe Illustrator 23.0.1, SVG Export Plug-In . SVG Version: 6.00 Build 0)  -->
<svg version="1.1" id="Capa_1" xmlns="http://www.w3.org/2000/svg" xmlns:xlink="http://www.w3.org/1999/xlink" x="0px" y="0px"
	 viewBox="0 0 458 445" style="enable-background:new 0 0 458 445;" xml:space="preserve">
<path d="M453,1.3c-3.1-1.8-7-1.8-10,0.1l-438,259c-3.4,2-5.3,5.9-4.8,9.8s3.2,7.2,7,8.4L152.5,323l64.2,116.8
	c0.1,0.1,0.1,0.2,0.2,0.3c1.1,1.8,2.7,3.2,4.7,4.1c1.3,0.5,2.6,0.8,3.9,0.8c2.6,0,5.1-1,7-2.8l73.8-72.1l138.8,42.5
	c1,0.3,1.9,0.4,2.9,0.4c2.1,0,4.2-0.7,5.9-2c2.5-1.9,4.1-4.9,4.1-8V10C458,6.4,456.1,3.1,453,1.3z M34.6,266L401.3,49.2L156.4,303.3
	L34.6,266z M217.3,329.2c-1.2,1.7-1.8,3.7-1.8,5.7v61.2l-43.8-79.8l193.9-201.2L217.3,329.2z M235.5,411.3v-62.9l49,15L235.5,411.3z
	 M438,389.5l-196.5-60.1L438,45.7V389.5z"/>
</svg>
