<?xml version="1.0" encoding="utf-8"?>
<!-- Generator: Adobe Illustrator 23.0.1, SVG Export Plug-In . SVG Version: 6.00 Build 0)  -->
<svg version="1.1" id="Слой_1" xmlns="http://www.w3.org/2000/svg" xmlns:xlink="http://www.w3.org/1999/xlink" x="0px" y="0px"
	 viewBox="0 0 200 230" style="enable-background:new 0 0 200 230;" xml:space="preserve">
<style type="text/css">
	.st0{fill:#CCCCCC;}
	.st1{fill:#999999;}
</style>
<path class="st0" d="M100,59.8c-30.5,0-55.2,24.7-55.2,55.2s24.7,55.2,55.2,55.2s55.2-24.7,55.2-55.2S130.5,59.8,100,59.8z M51,115
	c0-12.4,4.6-23.8,12.3-32.4l68.9,69.3c-8.6,7.5-19.9,12.1-32.2,12.1C73,164,51,142,51,115z M137,147.1L68,78
	C76.6,70.5,87.8,66,100,66c27,0,49,21.9,49,49C149,127.3,144.4,138.5,137,147.1z"/>
<path class="st1" d="M100.1,131.5c-9.1,0-16.5-7.4-16.5-16.5c0-2.1,0.4-4.1,1.1-5.9L74.1,98.4h-3.9v36.3h40.2l-4.4-4.4
	C104.2,131.1,102.2,131.5,100.1,131.5z"/>
<path class="st1" d="M116.5,98.4l-3.3-6.6H86.7l7.7,7.7c1.8-0.7,3.7-1,5.7-1c9.1,0,16.5,7.4,16.5,16.5c0,2-0.4,3.9-1,5.6l14.2,14.1
	V98.4H116.5z M123.2,108.4c-1.8,0-3.3-1.5-3.3-3.3s1.5-3.3,3.3-3.3c1.8,0,3.3,1.5,3.3,3.3S125,108.4,123.2,108.4z"/>
<path class="st1" d="M88.1,112.6c-0.2,0.8-0.2,1.6-0.2,2.4c0,6.8,5.5,12.2,12.2,12.2c0.8,0,1.6-0.1,2.4-0.2L88.1,112.6z"/>
<path class="st1" d="M112.1,117.4c0.2-0.8,0.2-1.6,0.2-2.4c0-6.8-5.5-12.2-12.2-12.2c-0.8,0-1.6,0.1-2.4,0.2L112.1,117.4z"/>
</svg>
