<?xml version="1.0" encoding="utf-8"?>
<!-- Generator: Adobe Illustrator 23.0.1, SVG Export Plug-In . SVG Version: 6.00 Build 0)  -->
<svg version="1.1" id="Capa_1" xmlns="http://www.w3.org/2000/svg" xmlns:xlink="http://www.w3.org/1999/xlink" x="0px" y="0px"
	 viewBox="0 0 512 512" style="enable-background:new 0 0 512 512;" xml:space="preserve">
<style type="text/css">
	.st0{display:none;}
	.st1{display:inline;}
</style>
<g>
	<g>
		<path d="M475.4,96.4l-59.7-59.7c-3.3-3.3-8.7-3.3-12.1,0L53.7,386.5c-0.8,0.8-1.4,1.7-1.8,2.7L9.2,491.7c-1.3,3.2-0.6,6.9,1.8,9.3
			c1.6,1.6,3.8,2.5,6,2.5c1.1,0,2.2-0.2,3.3-0.7l102.4-42.7c1-0.4,2-1,2.7-1.8l349.9-349.9C478.7,105.1,478.7,99.7,475.4,96.4z
			 M114.6,445l-81.7,34l34-81.7L409.6,54.7l47.7,47.7L114.6,445z"/>
	</g>
</g>
<g class="st0">
	<g class="st1">
		<path d="M23.1,488.9c-3.3-3.3-8.7-3.3-12.1,0l-8.5,8.5c-3.3,3.3-3.3,8.7,0,12.1c1.7,1.7,3.8,2.5,6,2.5c2.2,0,4.4-0.8,6-2.5
			l8.5-8.5C26.4,497.6,26.4,492.2,23.1,488.9z"/>
	</g>
</g>
<g>
	<g>
		<path d="M466.8,156.1l-85.3-85.3c-3.3-3.3-8.7-3.3-12.1,0c-3.3,3.3-3.3,8.7,0,12.1l79.3,79.3l-122,122c-3.3,3.3-3.3,8.7,0,12.1
			c1.7,1.7,3.8,2.5,6,2.5c2.2,0,4.4-0.8,6-2.5l128-128C470.2,164.8,470.2,159.4,466.8,156.1z"/>
	</g>
</g>
<g>
	<g>
		<rect x="81.1" y="380.2" transform="matrix(0.7071 -0.7071 0.7071 0.7071 -272.4384 187.071)" width="17.1" height="84.5"/>
	</g>
</g>
<g>
	<g>
		<path d="M509.5,28.1L483.9,2.5c-3.3-3.3-8.7-3.3-12.1,0l-51.2,51.2c-3.3,3.3-3.3,8.7,0,12.1c3.3,3.3,8.7,3.3,12.1,0l45.2-45.2
			l13.5,13.5l-45.2,45.2c-3.3,3.3-3.3,8.7,0,12.1c1.7,1.7,3.8,2.5,6,2.5c2.2,0,4.4-0.8,6-2.5l51.2-51.2
			C512.8,36.8,512.8,31.4,509.5,28.1z"/>
	</g>
</g>
<g>
	<g>
		<rect x="200.5" y="260.7" transform="matrix(0.7071 -0.7071 0.7071 0.7071 -152.9738 236.557)" width="17.1" height="84.5"/>
	</g>
</g>
</svg>
