<?xml version="1.0" encoding="utf-8"?>
<!-- Generator: Adobe Illustrator 23.0.1, SVG Export Plug-In . SVG Version: 6.00 Build 0)  -->
<svg version="1.1" xmlns="http://www.w3.org/2000/svg" xmlns:xlink="http://www.w3.org/1999/xlink" x="0px" y="0px"
	 viewBox="0 0 1400 1400" style="enable-background:new 0 0 1400 1400;" xml:space="preserve">
<style type="text/css">
	.st0{display:none;}
	.st1{display:inline;}
</style>
<g id="Слой_1" class="st0">
	<g transform="translate(0.000000,1600.000000) scale(0.100000,-0.100000)" class="st1">
		<path d="M2598.4,15993.8c-137.2-18.9-305.2-75.5-432.5-145.1c-130.2-72.6-323.1-217.7-651.2-490.1
			c-296.3-247.5-491.1-424.5-750.6-684.9c-241.6-242.6-392.7-416.5-534.9-614.3c-159.1-222.7-217.7-364.8-227.7-547.7
			c-12.9-258.5,51.7-721.7,156.1-1115.3c382.8-1438.4,1459.5-3149.2,3156.5-5015.1c439.4-483.1,1263.6-1319.1,1729.9-1755.5
			c1266.6-1183.9,2391-2045.8,3474.7-2665.1c1043.9-596.4,2013.2-922.5,2847.3-958.3c161.1-7,241.6,1,349,37.8
			c387.7,129.2,1088.6,778.4,1804.4,1674c295.3,368.8,390.7,529.8,447.4,752.5c84.5,340,5,669-212.8,874.8
			c-56.7,53.7-124.3,99.4-980.3,670c-1570.8,1044.8-1926.7,1277.4-2047,1333.1c-201.8,92.4-445.4,93.4-720.8,1
			c-180.9-59.6-352.9-151.1-1191-629.2l-345-196.8l-77.5,51.7c-135.2,90.5-377.8,276.4-568.7,435.4
			c-459.3,383.7-824.2,723.7-1482.3,1382.8c-846,846.9-1344.1,1405.6-1720.9,1931.5c-44.7,61.6-85.5,121.3-90.5,132.2
			c-8,16.9,14.9,61.6,121.3,248.5c425.5,742.6,606.5,1075.6,666.1,1225.7c73.6,184.9,93.5,284.3,94.4,454.3
			c0,224.7-27.8,305.2-194.9,563.6c-384.7,595.4-1733.9,2629.3-1816.4,2737.7c-147.1,194.8-364.9,303.2-633.3,316.1
			C2712.8,16001.8,2637.2,15998.8,2598.4,15993.8z M2850,15323.8c41.8-16.9,61.6-45.7,522.9-739.6
			c407.6-613.3,935.5-1413.6,1296.4-1965.3l91.5-139.2v-76.5c0-88.5-18.9-186.9-54.7-280.3c-33.8-90.5-145.2-292.3-678-1230.7
			l-252.5-444.4l56.7-97.4c188.9-323.1,634.3-888.7,1147.3-1458.3c1135.4-1262.5,2628.6-2619.4,3352.4-3047.8l115.3-68.6
			l277.4,157.1c667.1,380.7,1141.3,647.1,1271.6,713.7c162.1,82.5,271.4,113.3,401.6,113.3c76.6,0,86.5-3,133.2-31.8
			c146.1-92.4,970.3-636.2,1820.3-1201.8l958.4-637.2l21.9-56.7c16.9-45.7,19.9-70.6,15.9-145.1c-7-145.1-39.8-209.7-237.6-465.2
			c-274.4-353.9-570.7-689.9-877.9-997.1c-322.1-322.1-485.2-453.3-680-547.7l-93.5-45.7l-115.3,7
			c-353.9,20.9-673.1,84.5-1049.9,208.8c-1584.7,523.9-3451.8,1856.9-5552.5,3962.4c-2050,2053.8-3367.3,3906.7-3887.2,5467.4
			c-121.3,361.8-187.9,680.9-209.8,1007l-11.9,171l36.8,79.5c77.5,167,176,299.2,410.6,553.7c235.6,254.5,603.5,590.5,977.3,891.7
			c401.6,325.1,487.1,371.8,661.1,365.8C2774.4,15342.7,2823.1,15335.8,2850,15323.8z"/>
	</g>
</g>
<g id="Слой_1__x28_копия_x29_">
	<g transform="translate(0.000000,1600.000000) scale(0.100000,-0.100000)">
		<path d="M13754.1,5341.4c-56.7,53.7-124.3,99.4-980.3,670c-1570.8,1044.8-1926.7,1277.4-2047,1333c-201.8,92.4-445.4,93.4-720.8,1
			c-107.1-35.3-354.8-160.9-595.6-292.2c88.5-96.6,508.8-349.8,558-421.1c10.5,5.5,19.8,10.4,27.7,14.4
			c162.1,82.5,271.4,113.3,401.6,113.3c76.6,0,86.5-3,133.2-31.8c146.1-92.4,970.3-636.2,1820.3-1201.8l958.4-637.2l21.9-56.7
			c16.9-45.7,19.9-70.6,15.9-145.1c-7-145.1-39.8-209.7-237.6-465.2c-274.4-353.9-570.7-689.9-877.9-997.1
			c-322.1-322.1-485.2-453.3-680-547.7l-93.5-45.7l-115.3,7c-353.9,20.9-673.1,84.5-1049.9,208.8
			c-1584.7,523.9-3451.8,1856.9-5552.5,3962.4c-2050,2053.8-3367.3,3906.7-3887.2,5467.4c-121.3,361.8-187.9,680.9-209.8,1007
			l-11.9,171l36.8,79.5c77.5,167,176,299.2,410.6,553.7c235.6,254.5,603.5,590.5,977.3,891.7c401.6,325.1,487.1,371.8,661.1,365.8
			c56.7-3,105.4-9.9,132.2-21.9c41.8-16.9,61.6-45.7,522.9-739.6c407.6-613.3,935.5-1413.6,1296.4-1965.3l91.5-139.2v-76.5
			c0-88.5-18.9-186.9-54.7-280.3c-33.8-90.5-145.1-292.3-678-1230.7l-252.5-444.3l56.7-97.4c188.9-323.1,634.3-888.7,1147.3-1458.3
			c1048.2-1165.5,2941.1-2841.5,3757.9-3399.5c224.3,248.4,250.4,274.5,453.9,462.3c-127.5,94.5-795.3,580.7-924.9,688.7
			c-459.3,383.7-1266.7,1086.4-1924.9,1745.5c-846,846.9-1344.1,1405.6-1720.9,1931.5c-44.7,61.6-85.5,121.3-90.5,132.2
			c-8,16.9,14.9,61.6,121.3,248.5c425.5,742.6,606.5,1075.6,666.1,1225.7c73.6,184.9,93.5,284.3,94.4,454.3
			c0,224.7-27.8,305.2-194.9,563.6c-384.7,595.4-1733.9,2629.3-1816.4,2737.7c-147.1,194.8-364.9,303.2-633.3,316.1
			c-54.7,3-130.2,0-169-5c-137.2-18.9-305.2-75.5-432.5-145.1c-130.2-72.6-323.1-217.7-651.2-490.1
			c-296.3-247.5-491.1-424.5-750.6-684.9c-241.6-242.6-392.7-416.5-534.9-614.3c-159.1-222.7-217.7-364.8-227.7-547.7
			c-12.9-258.5,51.7-721.7,156.1-1115.3c382.8-1438.4,1459.5-3149.2,3156.5-5015.1c439.4-483.1,1263.6-1319.1,1729.9-1755.5
			c1266.6-1183.9,2391-2045.8,3474.7-2665.1c1043.9-596.4,2013.2-922.5,2847.3-958.3c161.1-7,241.6,1,349,37.8
			c387.7,129.2,1088.6,778.4,1804.4,1674c295.3,368.8,390.7,529.8,447.4,752.5C14051.4,4806.6,13971.9,5135.6,13754.1,5341.4z"/>
	</g>
</g>
</svg>
