<?xml version="1.0" standalone="no"?>
<!DOCTYPE svg PUBLIC "-//W3C//DTD SVG 20010904//EN"
 "http://www.w3.org/TR/2001/REC-SVG-20010904/DTD/svg10.dtd">
<svg version="1.0" xmlns="http://www.w3.org/2000/svg"
 width="1600.000000pt" height="1600.000000pt" viewBox="0 0 1600.000000 1600.000000"
 preserveAspectRatio="xMidYMid meet">

<g transform="translate(0.000000,1600.000000) scale(0.100000,-0.100000)"
fill="#000000" stroke="none">
<path d="M3575 15039 c-138 -19 -307 -76 -435 -146 -131 -73 -325 -219 -655
-493 -298 -249 -494 -427 -755 -689 -243 -244 -395 -419 -538 -618 -160 -224
-219 -367 -229 -551 -13 -260 52 -726 157 -1122 385 -1447 1468 -3168 3175
-5045 442 -486 1271 -1327 1740 -1766 1274 -1191 2405 -2058 3495 -2681 1050
-600 2025 -928 2864 -964 162 -7 243 1 351 38 390 130 1095 783 1815 1684 297
371 393 533 450 757 85 342 5 673 -214 880 -57 54 -125 100 -986 674 -1580
1051 -1938 1285 -2059 1341 -203 93 -448 94 -725 1 -182 -60 -355 -152 -1198
-633 l-347 -198 -78 52 c-136 91 -380 278 -572 438 -462 386 -829 728 -1491
1391 -851 852 -1352 1414 -1731 1943 -45 62 -86 122 -91 133 -8 17 15 62 122
250 428 747 610 1082 670 1233 74 186 94 286 95 457 0 226 -28 307 -196 567
-387 599 -1744 2645 -1827 2754 -148 196 -367 305 -637 318 -55 3 -131 0 -170
-5z m253 -674 c42 -17 62 -46 526 -744 410 -617 941 -1422 1304 -1977 l92
-140 0 -77 c0 -89 -19 -188 -55 -282 -34 -91 -146 -294 -682 -1238 l-254 -447
57 -98 c190 -325 638 -894 1154 -1467 1142 -1270 2644 -2635 3372 -3066 l116
-69 279 158 c671 383 1148 651 1279 718 163 83 273 114 404 114 77 0 87 -3
134 -32 147 -93 976 -640 1831 -1209 l964 -641 22 -57 c17 -46 20 -71 16 -146
-7 -146 -40 -211 -239 -468 -276 -356 -574 -694 -883 -1003 -324 -324 -488
-456 -684 -551 l-94 -46 -116 7 c-356 21 -677 85 -1056 210 -1594 527 -3472
1868 -5585 3986 -2062 2066 -3387 3930 -3910 5500 -122 364 -189 685 -211
1013 l-12 172 37 80 c78 168 177 301 413 557 237 256 607 594 983 897 404 327
490 374 665 368 57 -3 106 -10 133 -22z"/>
</g>
</svg>
