<svg height="512pt" viewBox="-68 0 512 512.00131" width="512pt" xmlns="http://www.w3.org/2000/svg"><path d="m187.746094 93.867188c-51.839844 0-93.867188 42.023437-93.867188 93.867187 0 51.839844 42.027344 93.867187 93.867188 93.867187 51.84375 0 93.867187-42.027343 93.867187-93.867187-.058593-51.816406-42.050781-93.808594-93.867187-93.867187zm0 170.667968c-42.414063 0-76.796875-34.386718-76.796875-76.800781 0-42.417969 34.382812-76.800781 76.796875-76.800781 42.417968 0 76.800781 34.382812 76.800781 76.800781-.046875 42.394531-34.402344 76.75-76.800781 76.800781zm0 0"/><path d="m187.824219 0h-.078125c-102.410156.402344-185.765625 82.503906-187.714844 184.898438-.734375 40.679687 11.863281 80.480468 35.875 113.324218.226562.59375.519531 1.15625.875 1.683594l136.925781 204.734375c3.203125 4.628906 8.480469 7.382813 14.109375 7.359375s10.886719-2.820312 14.050782-7.476562l136.847656-204.613282c.355468-.53125.648437-1.097656.875-1.691406 41.511718-57.109375 47.484375-132.675781 15.464844-195.597656-32.023438-62.921875-96.628907-102.5703128-167.230469-102.621094zm136.703125 289.898438c-.511719.6875-.902344 1.453124-1.160156 2.269531l-135.554688 202.875-135.582031-202.726563c-.285157-.871094-.710938-1.6875-1.257813-2.425781-22.640625-30.167969-34.5625-67.027344-33.878906-104.742187 1.765625-93.085938 77.546875-167.730469 170.652344-168.082032h.078125c64.566406.050782 123.582031 36.523438 152.503906 94.25 28.925781 57.726563 22.808594 126.832032-15.800781 178.582032zm0 0"/><path d="m118.214844 319.792969c-1.597656-2.597657-4.460938-4.144531-7.507813-4.058594-3.050781.085937-5.820312 1.792969-7.269531 4.476563-1.449219 2.683593-1.355469 5.933593.242188 8.53125l68.265624 110.933593c1.601563 2.59375 4.460938 4.140625 7.511719 4.054688 3.046875-.085938 5.816407-1.792969 7.265625-4.472657 1.449219-2.683593 1.355469-5.9375-.242187-8.53125zm0 0"/><path d="m102.414062 298.667969c0 4.710937-3.820312 8.53125-8.535156 8.53125-4.710937 0-8.53125-3.820313-8.53125-8.53125 0-4.714844 3.820313-8.535157 8.53125-8.535157 4.714844 0 8.535156 3.820313 8.535156 8.535157zm0 0"/></svg>