<?xml version="1.0" encoding="iso-8859-1"?>
<!-- Generator: Adobe Illustrator 19.0.0, SVG Export Plug-In . SVG Version: 6.00 Build 0)  -->
<svg version="1.1" id="Layer_1" xmlns="http://www.w3.org/2000/svg" xmlns:xlink="http://www.w3.org/1999/xlink" x="0px" y="0px"
	 viewBox="0 0 512.012 512.012" style="enable-background:new 0 0 512.012 512.012;" xml:space="preserve">
<g>
	<g>
		<path d="M256.045,119.479c-75.405,0-136.533,61.128-136.533,136.533s61.128,136.533,136.533,136.533
			s136.533-61.128,136.533-136.533S331.451,119.479,256.045,119.479z M256.045,324.279c-37.703,0-68.267-30.564-68.267-68.267
			s30.564-68.267,68.267-68.267s68.267,30.564,68.267,68.267S293.748,324.279,256.045,324.279z"/>
	</g>
</g>
<g>
	<g>
		<path d="M500.269,307.212c-20.297-8.739-33.071-29.124-32.085-51.2c-0.986-22.076,11.788-42.461,32.085-51.2
			c8.588-2.854,13.456-11.915,11.093-20.651c-5.607-20.136-13.6-39.53-23.808-57.771c-4.488-7.919-14.4-10.922-22.528-6.827
			c-20.548,8.189-44.018,2.823-58.965-13.483c-16.342-14.962-21.712-38.479-13.483-59.051c4.096-8.128,1.092-18.04-6.827-22.528
			C367.516,14.265,348.121,6.244,327.981,0.61c-8.788-2.406-17.916,2.515-20.736,11.179c-8.739,20.297-29.124,33.071-51.2,32.085
			c-22.076,0.986-42.461-11.788-51.2-32.085c-2.82-8.664-11.948-13.585-20.736-11.179c-20.136,5.607-39.53,13.6-57.771,23.808
			c-7.967,4.491-10.978,14.464-6.827,22.613c8.189,20.548,2.823,44.018-13.483,58.965c-14.947,16.305-38.418,21.672-58.965,13.483
			c-8.128-4.096-18.04-1.092-22.528,6.827c-10.237,18.236-18.259,37.631-23.893,57.771c-2.406,8.788,2.515,17.916,11.179,20.736
			c20.297,8.739,33.071,29.124,32.085,51.2c0.986,22.076-11.788,42.461-32.085,51.2c-8.588,2.854-13.456,11.915-11.093,20.651
			c5.574,20.162,13.538,39.585,23.723,57.856c4.488,7.919,14.4,10.922,22.528,6.827c20.548-8.189,44.018-2.823,58.965,13.483
			c16.335,14.927,21.737,38.4,13.568,58.965c-4.096,8.128-1.092,18.04,6.827,22.528c18.24,10.208,37.635,18.201,57.771,23.808
			c8.763,2.414,17.881-2.464,20.736-11.093c8.739-20.297,29.124-33.071,51.2-32.085c22.076-0.986,42.461,11.788,51.2,32.085
			c2.298,7.049,8.885,11.808,16.299,11.776c1.499,0.004,2.992-0.197,4.437-0.597c20.136-5.607,39.53-13.6,57.771-23.808
			c7.919-4.487,10.922-14.4,6.827-22.528c-10.373-29.674,5.273-62.138,34.947-72.511c12.139-4.243,25.357-4.251,37.501-0.022
			c8.128,4.096,18.04,1.092,22.528-6.827c10.208-18.24,18.201-37.635,23.808-57.771
			C513.777,319.185,508.899,310.067,500.269,307.212z M256.045,409.612c-84.831,0-153.6-68.769-153.6-153.6
			s68.769-153.6,153.6-153.6s153.6,68.769,153.6,153.6S340.876,409.612,256.045,409.612z"/>
	</g>
</g>
<g>
</g>
<g>
</g>
<g>
</g>
<g>
</g>
<g>
</g>
<g>
</g>
<g>
</g>
<g>
</g>
<g>
</g>
<g>
</g>
<g>
</g>
<g>
</g>
<g>
</g>
<g>
</g>
<g>
</g>
</svg>
