<svg width="100" height="100" viewBox="0 0 64 64" fill="none" xmlns="http://www.w3.org/2000/svg"><path class="st0" d="M60.5,26.8c-0.1-0.7-0.8-1.2-1.5-1c-0.7,0.1-1.1,0.8-1,1.5c0.3,1.6,0.4,3.2,0.4,4.8c0,0.7,0.6,1.3,1.3,1.3s1.3-0.6,1.3-1.3C60.9,30.3,60.8,28.5,60.5,26.8z" fill="#cccccc"/><path class="st0" d="M44.4,55.3c-1,0.5-2,1-3.1,1.4c-0.7,0.1-1.2,0.8-1,1.5c0.1,0.7,0.8,1.2,1.5,1c0.2,0,0.3,0,0.5,0c1.2-0.4,2.3-1,3.4-1.6c0.6-0.3,0.8-1.1,0.5-1.7c0,0,0,0,0,0C45.9,55.4,45.2,55,44.4,55.3C44.5,55.3,44.5,55.3,44.4,55.3z" fill="#cccccc"/><path class="st0" d="M52.8,48.4c-0.8,1-1.6,1.9-2.5,2.7c-0.5,0.5-0.5,1.3,0,1.8c0.2,0.2,0.6,0.4,0.9,0.4c0.3,0,0.6-0.1,0.9-0.4c1-0.9,1.9-1.9,2.7-2.9c0.5-0.5,0.5-1.3-0.1-1.8c-0.5-0.5-1.3-0.5-1.8,0.1C52.8,48.3,52.7,48.3,52.8,48.4L52.8,48.4z" fill="#cccccc"/><path class="st0" d="M59,38.3c-0.7-0.2-1.4,0.2-1.6,0.9v0c-0.3,1.2-0.8,2.4-1.3,3.5c-0.3,0.6,0,1.4,0.6,1.6c0,0,0,0,0,0c0.2,0,0.3,0,0.5,0c0.5,0,1-0.3,1.2-0.8c0.6-1.2,1-2.5,1.4-3.8C60,39.1,59.6,38.5,59,38.3z" fill="#cccccc"/><path class="st0" d="M57.2,20.7h0.2c0.2,0,0.4-0.1,0.5-0.2H58c0.2-0.2,0.3-0.4,0.5-0.6l0,0l2.5-7.6c0.2-0.7-0.1-1.4-0.8-1.7c-0.7-0.2-1.4,0.1-1.7,0.8l0,0l-1.6,4.9C51.3,8,42,3,32,3C16,3,3,16,3,32s13,29,29,29c1.2,0,2.3-0.1,3.5-0.2c0.7-0.1,1.2-0.7,1.1-1.4c-0.1-0.7-0.7-1.2-1.4-1.1c0,0,0,0,0,0c-1,0-2.1,0.2-3.2,0.2C17.4,58.4,5.5,46.6,5.5,32S17.4,5.6,32,5.6c9.3-0.1,18,4.7,23,12.6h-5.3c-0.7,0-1.2,0.5-1.3,1.1c0,0.1,0,0.1,0,0.2c0,0.7,0.6,1.3,1.3,1.3H57.2z" fill="#cccccc"/><path d="M29.9,14.5c-0.6,0-1.2,0.3-1.7,0.7c-0.1,0.1-0.3,0.3-0.3,0.5c0,0.1-0.1,0.2-0.5,0.4C26,16.4,25,17.6,24.7,19c-0.2,1.6-0.1,3.3,0.3,4.9c0,0.2,0,0.2-0.1,0.1c-0.1-0.1-0.5-0.1-0.6,0.2c-0.2,0.3-0.1,1,0.4,2.2c0.2,0.4,0.3,0.8,0.4,1.3c0,0.2,0.1,0.3,0.2,0.4c0.2,0.3,0.3,0.6,0.4,0.9c1.1,3.2,3.5,5.7,5.9,6.1s5.5-2.4,6.8-6.2c0.1-0.3,0.2-0.6,0.4-0.9c0.1-0.1,0.2-0.3,0.2-0.5c0.1-0.5,0.2-0.9,0.4-1.4c0.4-1.1,0.5-1.9,0.3-2.3c-0.1-0.2-0.3-0.3-0.5-0.2c0,0,0,0-0.1,0.1C39,24,39,24,39,23.8c0.3-1.6,0.4-3.3,0.3-4.9c-0.4-2-2.8-3.7-6.2-4.3C32.1,14.4,31,14.4,29.9,14.5z" fill="#498837"/><path d="M26.7,35.3c-1.5,0.8-3.1,1.4-4.7,2c-3.7,1.4-4.7,2.1-5.5,3.7c-0.7,1.6-1,3.3-1,5.1v1.4h33v-0.5c0-1.6-0.2-3.1-0.6-4.7c-0.2-1-0.8-1.9-1.5-2.6c-0.9-0.9-1.5-1.2-4.5-2.4c-1.3-0.5-3-1.3-3.8-1.7L36.6,35l-0.4,0.3c-0.7,0.6-1.4,1-2.3,1.4c-2,0.7-4.3,0.3-5.9-1.1c-0.2-0.2-0.5-0.4-0.8-0.5C27,35.1,26.9,35.2,26.7,35.3z" fill="#498837"/></svg>