<svg width="100" height="100" viewBox="0 0 64 64" fill="none" xmlns="http://www.w3.org/2000/svg"><path d="M32.9,36.7h9.4c1,0,1.9-0.9,1.9-1.9v-4.7H31.1v4.7C31.1,35.9,31.9,36.7,32.9,36.7z" fill="#498837"/><rect x="32.9" y="26.3" width="1.9" height="1.9" fill="#498837"/><polygon points="33.8,24.5 37.8,24.5 35.8,21.4" fill="#498837"/><path d="M23.5,55.6l0-3.8H10.3v3.8h3.8v-0.9c0-0.5,0.4-0.9,0.9-0.9c0.5,0,0.9,0.4,0.9,0.9v0.9h1.9v-0.9c0-0.5,0.4-0.9,0.9-0.9c0.5,0,0.9,0.4,0.9,0.9v0.9H23.5z" fill="#498837"/><path d="M36.7,15h1.9l0-0.9c0-0.4-0.2-0.7-0.6-0.9L21.4,5.7c0,0.7-0.2,1.3-0.5,1.9l15.8,7.1V15z" fill="#498837"/><path d="M30.1,18.8c5.2,0,10.2,0,15.1,0v-1.9H30.1V18.8z" fill="#498837"/><polygon points="43.3,21.4 41.3,24.5 45.3,24.5" fill="#498837"/><polygon points="47.1,23.7 49.1,20.7 45.1,20.7" fill="#498837"/><polygon points="28.2,21.4 26.2,24.5 30.2,24.5" fill="#498837"/><polygon points="55.2,24.5 52.6,20.7 51.4,20.7 48.9,24.5" fill="#498837"/><polygon points="34,20.7 30,20.7 32,23.7" fill="#498837"/><rect x="40.5" y="26.3" width="1.9" height="1.9" fill="#498837"/><polygon points="37.5,20.7 39.6,23.7 41.6,20.7" fill="#498837"/><polygon points="25.1,22.7 26.5,20.7 25.1,20.7" fill="#498837"/><path d="M18.8,11.2H15c-0.5,0-0.9,0.4-0.9,0.9v3.6l5.6-3.8C19.6,11.6,19.3,11.2,18.8,11.2z" fill="#498837"/><path d="M13.7,8.7c-0.5-0.5-0.8-1.1-1.1-1.7L3.2,18.8c0.8,0,1.6,0,2.4,0L13.7,8.7z" fill="#498837"/><path d="M16.9,8.4c1.6,0,2.8-1.3,2.8-2.8c0-1.6-1.3-2.8-2.9-2.8c-1.6,0-2.8,1.3-2.8,2.8C14.1,7.1,15.4,8.4,16.9,8.4z" fill="#498837"/><path d="M10.3,19.7v9.4c0,2.1,1.7,3.8,3.8,3.8h7.5c1,0,1.9-0.9,1.9-1.9v-1.9h-4.7c-1.6,0-2.8-1.3-2.8-2.8v-4.7c0-0.5,0.4-0.9,0.9-0.9h6.5c-0.4-1.6-1.9-2.8-3.7-2.8h-7.5C11.2,17.8,10.3,18.7,10.3,19.7z" fill="#498837"/><path d="M6,24.5l2.5-3.8c-1.8,0-3.7,0-5.4,0L5,24.5H6z" fill="#498837"/><polygon points="26.3,59.4 26.3,57.5 7.5,57.5 7.5,59.4 6.3,59.4 6.3,61.2 27.5,61.2 27.5,59.4" fill="#498837"/><polygon points="19.7,34.8 17.2,34.8 19.7,36.5" fill="#498837"/><path d="M18.8,27.3h4.7v-4.7h-5.7v3.8C17.8,26.9,18.3,27.3,18.8,27.3z" fill="#498837"/><polygon points="19.7,38.8 15.8,41.4 19.7,44.1" fill="#498837"/><polygon points="17.2,16 19.7,16 19.7,14.3" fill="#498837"/><polygon points="18,45.2 14.1,42.6 14.1,47.8" fill="#498837"/><polygon points="18,37.7 14.1,35 14.1,40.3" fill="#498837"/><polygon points="19.7,46.3 14.4,49.9 19.7,49.9" fill="#498837"/><path d="M59.4,38.6v-4.7h0.9c0.5,0,0.9-0.4,0.9-0.9c0-0.5-0.4-0.9-0.9-0.9h-0.9v-1.9c0-0.5-0.4-0.9-0.9-0.9c-0.5,0-0.9,0.4-0.9,0.9V32H48v-1.9c0-0.5-0.4-0.9-0.9-0.9c-0.5,0-0.9,0.4-0.9,0.9c0,2.8,0,5.7,0,8.5H31.1c-1,0-1.9,0.9-1.9,1.9v1.9c0,1,0.9,1.9,1.9,1.9V49c-1,0-1.9,0.8-1.9,1.8v2c0,1,0.9,1.8,1.9,1.8l0,4.7h-1.9v1.9h31.1c0.5,0,0.9-0.4,0.9-0.9c0-0.5-0.4-0.9-0.9-0.9h-0.9v-4.7c1,0,1.9-0.9,1.9-1.9v-1.9c0-1-0.9-1.9-1.9-1.9v-4.7c1,0,1.9-0.9,1.9-1.9v-1.9C61.3,39.5,60.4,38.6,59.4,38.6z M42.4,59.4h-9.4v-4.7h9.4V59.4z M42.4,49h-9.4v-4.7h9.4V49z M46.2,59.4h-1.9v-4.7h1.9V59.4z M46.2,49h-1.9v-4.7h1.9V49z M57.5,59.4H48v-4.7h9.4V59.4z M57.5,49H48v-4.7h9.4V49z M57.5,38.6H48v-4.7h9.4V38.6z" fill="#cccccc"/></svg>