<svg width="100" height="100" viewBox="0 0 64 64" fill="none" xmlns="http://www.w3.org/2000/svg"><style type="text/css">
	.st0{fill:#CCCCCC;}
	.st1{fill:#498837;}
</style>
<path class="st0" d="M60.9,28.1l0.1-0.1l-0.2-0.2C60.8,27.9,60.9,28,60.9,28.1z"/>
<polygon class="st0" points="38.7,17.8 49.8,20.6 32,9.1 24.8,13.8 24.8,7.6 17.5,7.6 17.5,18.5 3,27.9 5.2,30.8 32,13.4 "/>
<path class="st0" d="M47.4,30.6l-5-1.3l-2.4,9.3l4.9,1.2c3.1,0.8,5.2-0.5,6-3.5C51.7,33.4,50.4,31.4,47.4,30.6z"/>
<path class="st0" d="M24.3,54.2l-2.6-0.7c-0.8-0.2-1.5-0.7-1.9-1.4c-0.4-0.7-0.5-1.5-0.3-2.3l0.9-3.5c0.3-1,1-1.8,1.9-2.1
	c-0.1-0.1-0.2-0.3-0.3-0.5c-0.4-0.7-0.5-1.5-0.3-2.3l1-4c0.2-0.8,0.7-1.5,1.4-1.9c0.7-0.4,1.5-0.5,2.3-0.3l2.6,0.7l4.2-16.2
	c0.2-0.8,0.7-1.4,1.4-1.8L32,16.1L10.3,30.6v25.4h13.5L24.3,54.2z"/>
<path class="st0" d="M49.9,50.6l0.1,0c1.6,0.4,2.6,2.1,2.2,3.8l-0.4,1.5h1.9v-6.4C52.5,50.1,51.3,50.5,49.9,50.6z"/>
<path class="st1" d="M44.3,48.2c7.5,1.9,14-2,16-9.5s-2-13.9-9.5-15.8l-14.4-3.7c-0.6-0.1-1.2,0.2-1.3,0.8l-4.6,18.2L25.8,37
	c-0.6-0.1-1.2,0.2-1.3,0.8l-1,4c-0.1,0.6,0.2,1.2,0.8,1.3l4.6,1.2l-0.7,2.8l-4.6-1.2c-0.6-0.1-1.2,0.2-1.3,0.8l-0.9,3.5
	c-0.1,0.6,0.2,1.2,0.8,1.3l4.6,1.2l-1.2,4.6c-0.1,0.6,0.2,1.2,0.8,1.3l5.1,1.3c0.6,0.1,1.2-0.2,1.3-0.8l1.2-4.6l14.2,3.6
	c0.6,0.1,1.2-0.2,1.3-0.8l0.9-3.5c0.1-0.6-0.2-1.2-0.8-1.3L35.4,49l0.7-2.8L44.3,48.2z M41,26.9l6.9,1.8c4.1,1.1,5.9,4.2,4.9,8.2
	c-1,4-4.2,6-8.4,4.9l-6.8-1.7L41,26.9z"/>
</svg>
