<svg width="100" height="100" viewBox="0 0 64 64" fill="none" xmlns="http://www.w3.org/2000/svg"><path d="M43.3,38.3l11.6-11.6c1.4-1.4,1.4-3.6,0-4.9l-4.3-4.3c-1.8-1.6-4-1.3-5.5,0.5l-1.5-1.5c-1.4-1.4-3.4-1.2-4.6,0L18.3,37.2c-1.2,1.2-1.4,3,0,4.6l4.8,4.8c1.4,1.4,3.4,1.2,4.6,0l20.7-20.7c1.3-1.3,1.3-3.3,0-4.6l-1.5-1.5c0.6-0.7,1.1-1.2,1.9-0.5l4.3,4.3c0.4,0.4,0.4,1,0,1.4L41.5,36.5c-1.3,1.3-1.5,3.5,0,4.9l2.7,2.7c-1.2,1.3-1.2,3.3,0.1,4.5l9.6,9.6c1.4,1.3,3.3,1.3,4.6,0l1.6-1.6c1.3-1.3,1.3-3.3,0-4.6l-9.6-9.6c-1.2-1.2-3.2-1.3-4.5-0.1l-2.7-2.7C42.9,39.2,43,38.7,43.3,38.3z" fill="#498837"/><path d="M3,23.2l3.7-3.7l3.7,3.7l-3.7,3.7L3,23.2z M14,12.2l3.7-3.7l3.7,3.7l-3.7,3.7L14,12.2z M14,26.9l-3.7,3.7l6.3,6.3l22-22l-10-10L25,8.5l3.7,3.7L25,15.9l3.7,3.7L25,23.2l-7.4-7.4L14,19.6l7.4,7.4l-3.6,3.6L14,26.9z" fill="#cccccc"/></svg>