<svg width="100" height="100" viewBox="0 0 64 64" fill="none" xmlns="http://www.w3.org/2000/svg"><path d="M32,7.6l-7.3,4.7V6.2h-7.3V17L3,26.5l2.2,2.9L32,12l26.8,17.4l2.2-2.9L32,7.6z" fill="#cccccc"/><path d="M29.6,53.4l-1.8-0.5c-0.6-0.1-1.1-0.5-1.4-1c-0.4-0.6-0.5-1.3-0.3-1.9l0.7-2.6c0.1-0.6,0.5-1.1,1-1.5c0.1-0.1,0.2-0.1,0.4-0.2c0,0-0.1-0.1-0.1-0.1c-0.4-0.6-0.5-1.3-0.3-1.9l0.8-3c0.1-0.6,0.5-1.1,1-1.5c0.6-0.4,1.3-0.5,1.9-0.3l0.1,0l1.8,0.5l3.4-12c0.1-0.6,0.5-1.1,1-1.5c0.6-0.4,1.3-0.5,1.9-0.3l10.8,3c1.2,0.3,2.3,0.8,3.3,1.4v-1L32,14.6L10.3,29.1v25.4h19L29.6,53.4z" fill="#cccccc"/><path d="M53.1,49.9c-1.1,0.6-2.4,1-3.7,1.2c0.5,0.2,0.9,0.5,1.2,1c0.4,0.6,0.5,1.3,0.3,1.9l-0.1,0.5h3v-5C53.6,49.6,53.4,49.8,53.1,49.9z" fill="#cccccc"/><path d="M49.8,37.8c-0.5-0.9-1.5-1.4-2.3-1.6l-3.6-1L42,41.9l3.5,1.1c2.9,0.8,4-1.2,4.4-2.5C50.1,39.7,50.2,38.7,49.8,37.8z" fill="#cccccc"/><path d="M44.8,49.2c5.6,1.6,10.6-1.2,12.2-6.9c1.6-5.6-1.3-10.5-6.9-12.1l-10.8-3c-0.4-0.1-0.9,0.1-1,0.6l-3.8,13.6l-3.4-1c-0.4-0.1-0.9,0.1-1,0.6l-0.8,3c-0.1,0.4,0.1,0.9,0.6,1l3.4,1l-0.6,2.1l-3.4-1c-0.4-0.1-0.9,0.1-1,0.6l-0.7,2.6c-0.1,0.4,0.1,0.9,0.6,1l3.4,1l-1,3.4c-0.1,0.4,0.1,0.9,0.6,1l3.9,1.1c0.4,0.1,0.9-0.1,1-0.6l1-3.4l10.6,3c0.4,0.1,0.9-0.1,1-0.6l0.7-2.6c0.1-0.4-0.1-0.9-0.6-1l-10.6-3l0.6-2.1L44.8,49.2z M42.7,33.1l5.2,1.5c3.1,0.9,4.4,3.3,3.5,6.3s-3.3,4.5-6.4,3.6l-5-1.6L42.7,33.1z" fill="#498837"/></svg>