<svg width="14" height="15" viewBox="0 0 14 15" fill="#ffffff" xmlns="http://www.w3.org/2000/svg"><path d="M14 13.4375V6.24609C14 5.89062 13.7539 5.42578 13.4805 5.20703C12.7969 4.6875 12.25 4.25 8.99609 1.89844C8.53125 1.57031 7.62891 0.75 7 0.777344C6.34375 0.75 5.44141 1.57031 4.97656 1.89844C1.72266 4.25 1.17578 4.6875 0.492188 5.20703C0.21875 5.42578 0 5.89062 0 6.24609V13.4375C0 14.1758 0.574219 14.75 1.3125 14.75H12.6875C13.3984 14.75 14 14.1758 14 13.4375ZM12.1953 8.07812L12.4414 8.43359C12.4688 8.46094 12.4688 8.51562 12.4688 8.57031C12.4688 8.625 12.4414 8.70703 12.3867 8.73438C11.7578 9.19922 10.8828 9.85547 9.51562 10.8398C8.94141 11.25 7.95703 12.1523 7 12.125C6.01562 12.1523 5.03125 11.25 4.45703 10.8398C3.08984 9.85547 2.21484 9.19922 1.58594 8.73438C1.53125 8.70703 1.50391 8.625 1.50391 8.57031C1.50391 8.51562 1.50391 8.46094 1.53125 8.43359L1.77734 8.07812C1.85938 7.96875 1.99609 7.94141 2.10547 8.02344C2.70703 8.48828 3.60938 9.14453 4.97656 10.1289C5.44141 10.457 6.34375 11.2773 7 11.25C7.62891 11.2773 8.53125 10.457 8.99609 10.1289C10.3633 9.14453 11.2656 8.48828 11.8672 8.02344C11.9766 7.94141 12.1133 7.96875 12.1953 8.07812Z"/></svg>
