<svg width="14" height="15" viewBox="0 0 14 15" fill="#1567BA" xmlns="http://www.w3.org/2000/svg"><path d="M11.2539 2.74609C10.543 2.03516 9.36719 2.03516 8.65625 2.74609L3.40625 7.99609C2.23047 9.19922 2.23047 11.1406 3.40625 12.3164C4.60938 13.5195 6.55078 13.5195 7.75391 12.3164L11.9102 8.16016C12.1562 7.91406 12.5664 7.91406 12.8125 8.16016C13.0859 8.43359 13.0859 8.84375 12.8125 9.08984L8.65625 13.2461C6.96094 14.9688 4.19922 14.9688 2.50391 13.2461C0.78125 11.5508 0.78125 8.78906 2.50391 7.06641L7.75391 1.84375C8.95703 0.613281 10.9531 0.613281 12.1562 1.84375C13.3867 3.04688 13.3867 5.04297 12.1562 6.24609L7.15234 11.2773C6.27734 12.1523 4.85547 12.0703 4.08984 11.1133C3.43359 10.293 3.51562 9.11719 4.25391 8.37891L8.41016 4.22266C8.65625 3.97656 9.06641 3.97656 9.3125 4.22266C9.58594 4.49609 9.58594 4.90625 9.3125 5.15234L5.18359 9.30859C4.91016 9.58203 4.88281 9.99219 5.12891 10.293C5.40234 10.6484 5.89453 10.6758 6.22266 10.3477L11.2539 5.31641C11.9648 4.63281 11.9648 3.45703 11.2539 2.74609Z" fill="#1567BA"/></svg>