<svg width="45" height="45" viewBox="0 0 45 45" fill="#F87023" xmlns="http://www.w3.org/2000/svg"><path d="M22.5875 15.5446C22.1893 15.5446 21.8574 15.8759 21.8574 16.2733V27.4239C21.8574 27.8214 22.1893 28.1526 22.5875 28.1526C22.9857 28.1526 23.3176 27.8214 23.3176 27.4239V16.2733C23.3397 15.8759 23.0079 15.5446 22.5875 15.5446Z"/><path d="M17.9632 17.8189C18.0517 17.841 18.1402 17.841 18.2066 17.841C18.5163 17.841 18.8261 17.7527 19.0694 17.5981L19.6446 27.4019C19.6668 27.7993 19.9986 28.0864 20.3747 28.0864C20.3969 28.0864 20.3969 28.0864 20.419 28.0864C20.8172 28.0643 21.1269 27.711 21.1048 27.3135L20.3969 14.8822L21.2376 9.29588C21.3039 8.89843 21.0163 8.52306 20.6181 8.45682C20.2199 8.39058 19.8438 8.67763 19.7774 9.07508L19.0915 13.6899C19.0473 13.7561 19.0252 13.8003 19.0031 13.8665L18.4057 16.185V16.2071C18.3836 16.3175 18.273 16.3837 18.1845 16.3616C18.0738 16.3396 18.0075 16.2512 18.0075 16.1629L19.4013 8.34642C19.4013 8.34642 19.4013 8.34642 19.4013 8.32434C19.5119 7.61776 20.0429 7.02159 20.7287 6.84495L21.4809 6.64622C21.8792 6.53582 22.1004 6.13837 22.0119 5.74092C22.0119 5.71884 21.9898 5.69676 21.9898 5.6526C22.1446 5.67468 22.3216 5.69676 22.4765 5.69676C22.6756 5.69676 22.8969 5.67468 23.0739 5.63052C23.0517 5.67468 23.0517 5.69676 23.0296 5.74092C22.919 6.13837 23.1623 6.53582 23.5606 6.64622L24.3128 6.84495C25.0208 7.02159 25.5296 7.59568 25.6402 8.32434C25.6402 8.32434 25.6402 8.32434 25.6402 8.34642L27.034 16.1629C27.034 16.2733 26.9677 16.3616 26.857 16.3616C26.7464 16.3837 26.6579 16.3175 26.6358 16.2071V16.185L26.1048 13.9328C26.0827 13.8445 26.0385 13.7561 25.9942 13.6899L25.2199 9.07508C25.1535 8.67763 24.7774 8.41266 24.3792 8.4789C23.9809 8.54515 23.7154 8.92051 23.7818 9.31796L24.6889 14.7718L24.0252 27.3356C24.0031 27.7331 24.3128 28.0864 24.711 28.1084C24.7331 28.1084 24.7331 28.1084 24.7553 28.1084C25.1535 28.1084 25.4632 27.7993 25.4854 27.4019L25.9942 17.5981C26.2376 17.7527 26.5252 17.8189 26.8349 17.8189C26.9234 17.8189 27.0119 17.8189 27.0783 17.7969C27.9632 17.6644 28.5827 16.8695 28.4942 15.9642C28.4942 15.9421 28.4942 15.92 28.4942 15.92L27.1004 8.08145C26.9013 6.80079 25.95 5.74092 24.6889 5.40972L24.0473 5.23307C24.8438 4.72522 25.3526 3.842 25.3526 2.8263C25.3526 1.23651 24.0694 -0.0441589 22.4765 -0.0441589C20.8836 -0.0441589 19.6004 1.23651 19.6004 2.8263C19.6004 3.842 20.1314 4.7473 20.95 5.25515L20.3747 5.40972C19.1137 5.74092 18.1623 6.77871 17.9632 8.08145L16.5694 15.92C16.5694 15.9421 16.5694 15.9642 16.5694 15.9642C16.4588 16.8916 17.0783 17.6865 17.9632 17.8189ZM22.4765 1.45731C23.2508 1.45731 23.8703 2.07557 23.8703 2.84838C23.8703 3.6212 23.2508 4.23945 22.4765 4.23945C21.7022 4.23945 21.0827 3.6212 21.0827 2.84838C21.0827 2.09765 21.7022 1.45731 22.4765 1.45731Z"/><path d="M37.5875 21.8155C37.1893 21.8155 36.8574 22.1467 36.8574 22.5442V33.6948C36.8574 34.0922 37.1893 34.4235 37.5875 34.4235C37.9857 34.4235 38.3176 34.0922 38.3176 33.6948V22.5442C38.3397 22.1467 38.0079 21.8155 37.5875 21.8155Z"/><path d="M32.9632 24.0898C33.0517 24.1119 33.1402 24.1119 33.2066 24.1119C33.5163 24.1119 33.8261 24.0236 34.0694 23.869L34.6446 33.6727C34.6668 34.0702 34.9986 34.3572 35.3747 34.3572C35.3969 34.3572 35.3969 34.3572 35.419 34.3572C35.8172 34.3351 36.1269 33.9818 36.1048 33.5844L35.3969 21.1531L36.2376 15.5667C36.3039 15.1693 36.0163 14.7939 35.6181 14.7277C35.2199 14.6614 34.8438 14.9485 34.7774 15.3459L34.0915 19.9387C34.0473 20.0049 34.0252 20.0491 34.003 20.1153L33.4057 22.4338V22.4558C33.3836 22.5662 33.273 22.6325 33.1845 22.6104C33.0738 22.5883 33.0075 22.5 33.0075 22.4117L34.4013 14.5952C34.4013 14.5952 34.4013 14.5952 34.4013 14.5731C34.5119 13.8665 35.0429 13.2704 35.7287 13.0937L36.4809 12.895C36.8792 12.7846 37.1004 12.3872 37.0119 11.9897C37.0119 11.9676 36.9898 11.9455 36.9898 11.9014C37.1446 11.9235 37.3216 11.9455 37.4765 11.9455C37.6756 11.9455 37.8969 11.9235 38.0738 11.8793C38.0517 11.9235 38.0517 11.9455 38.0296 11.9897C37.919 12.3872 38.1623 12.7846 38.5606 12.895L39.3128 13.0937C40.0208 13.2704 40.5296 13.8445 40.6402 14.5731C40.6402 14.5731 40.6402 14.5731 40.6402 14.5952L42.034 22.4117C42.034 22.5221 41.9677 22.6104 41.857 22.6104C41.7464 22.6325 41.6579 22.5662 41.6358 22.4558V22.4338L41.1048 20.1816C41.0827 20.0932 41.0385 20.0049 40.9942 19.9387L40.2199 15.3239C40.1535 14.9264 39.7774 14.6614 39.3792 14.7277C38.9809 14.7939 38.7154 15.1693 38.7818 15.5667L39.6889 21.0206L39.0252 33.5844C39.0031 33.9818 39.3128 34.3351 39.711 34.3572C39.7331 34.3572 39.7331 34.3572 39.7553 34.3572C40.1535 34.3572 40.4632 34.0481 40.4854 33.6506L40.9942 23.8469C41.2376 24.0015 41.5252 24.0677 41.8349 24.0677C41.9234 24.0677 42.0119 24.0677 42.0783 24.0456C42.9632 23.9132 43.5827 23.1183 43.4942 22.213C43.4942 22.1909 43.4942 22.1688 43.4942 22.1688L42.1004 14.3302C41.9013 13.0496 40.95 11.9897 39.6889 11.6585L39.0473 11.4819C39.8438 10.974 40.3526 10.0908 40.3526 9.07508C40.3526 7.48529 39.0694 6.20462 37.4765 6.20462C35.8836 6.20462 34.6004 7.48529 34.6004 9.07508C34.6004 10.0908 35.1314 10.9961 35.95 11.5039L35.3747 11.6585C34.1137 11.9897 33.1623 13.0275 32.9632 14.3302L31.5694 22.1688C31.5694 22.1909 31.5694 22.213 31.5694 22.213C31.4588 23.1403 32.0783 23.9573 32.9632 24.0898ZM37.4765 7.72817C38.2508 7.72817 38.8703 8.34643 38.8703 9.11924C38.8703 9.89206 38.2508 10.5103 37.4765 10.5103C36.7022 10.5103 36.0827 9.89206 36.0827 9.11924C36.0827 8.36851 36.7022 7.72817 37.4765 7.72817Z"/><path d="M7.58751 21.8155C7.18928 21.8155 6.85742 22.1467 6.85742 22.5442V33.6948C6.85742 34.0922 7.18928 34.4235 7.58751 34.4235C7.98574 34.4235 8.3176 34.0922 8.3176 33.6948V22.5442C8.33972 22.1467 8.00786 21.8155 7.58751 21.8155Z"/><path d="M2.96323 24.0898C3.05172 24.1119 3.14022 24.1119 3.20659 24.1119C3.51632 24.1119 3.82606 24.0236 4.06942 23.869L4.64464 33.6727C4.66677 34.0702 4.99862 34.3572 5.37473 34.3572C5.39685 34.3572 5.39685 34.3572 5.41898 34.3572C5.81721 34.3351 6.12694 33.9818 6.10482 33.5844L5.39685 21.1531L6.23756 15.5667C6.30393 15.1693 6.01632 14.7939 5.61809 14.7277C5.21986 14.6614 4.84376 14.9485 4.77739 15.3459L4.09154 19.9387C4.0473 20.0049 4.02517 20.0491 4.00305 20.1153L3.4057 22.4338V22.4558C3.38358 22.5662 3.27296 22.6325 3.18446 22.6104C3.07385 22.5883 3.00747 22.5 3.00747 22.4117L4.40128 14.5952C4.40128 14.5952 4.40128 14.5952 4.40128 14.5731C4.5119 13.8665 5.04287 13.2704 5.72871 13.0937L6.48093 12.895C6.87916 12.7846 7.10039 12.3872 7.0119 11.9897C7.0119 11.9676 6.98977 11.9455 6.98977 11.9014C7.14464 11.9235 7.32163 11.9455 7.4765 11.9455C7.67562 11.9455 7.89685 11.9235 8.07385 11.8793C8.05172 11.9235 8.05172 11.9455 8.0296 11.9897C7.91898 12.3872 8.16234 12.7846 8.56057 12.895L9.31278 13.0937C10.0207 13.2704 10.5296 13.8445 10.6402 14.5731C10.6402 14.5731 10.6402 14.5731 10.6402 14.5952L12.034 22.4117C12.034 22.5221 11.9677 22.6104 11.857 22.6104C11.7464 22.6325 11.6579 22.5662 11.6358 22.4558V22.4338L11.1048 20.1816C11.0827 20.0932 11.0384 20.0049 10.9942 19.9387L10.2199 15.3239C10.1535 14.9264 9.77739 14.6614 9.37916 14.7277C8.98093 14.7939 8.71544 15.1693 8.78181 15.5667L9.68889 21.0206L9.02517 33.5844C9.00305 33.9818 9.31278 34.3351 9.71101 34.3572C9.73314 34.3572 9.73314 34.3572 9.75526 34.3572C10.1535 34.3572 10.4632 34.0481 10.4854 33.6506L10.9942 23.8469C11.2376 24.0015 11.5252 24.0677 11.8349 24.0677C11.9234 24.0677 12.0119 24.0677 12.0783 24.0456C12.9632 23.9132 13.5827 23.1183 13.4942 22.213C13.4942 22.1909 13.4942 22.1688 13.4942 22.1688L12.1004 14.3302C11.9013 13.0496 10.95 11.9897 9.68889 11.6585L9.0473 11.4819C9.84376 10.974 10.3526 10.0908 10.3526 9.07508C10.3526 7.48529 9.06942 6.20462 7.4765 6.20462C5.88358 6.20462 4.60039 7.48529 4.60039 9.07508C4.60039 10.0908 5.13137 10.9961 5.94995 11.5039L5.37473 11.7027C4.11367 12.0339 3.16234 13.0716 2.96323 14.3744L1.56942 22.213C1.56942 22.235 1.56942 22.2571 1.56942 22.2571C1.4588 23.1403 2.07827 23.9573 2.96323 24.0898ZM7.4765 7.72817C8.25084 7.72817 8.87031 8.34643 8.87031 9.11924C8.87031 9.89206 8.25084 10.5103 7.4765 10.5103C6.70216 10.5103 6.0827 9.89206 6.0827 9.11924C6.0827 8.36851 6.70216 7.72817 7.4765 7.72817Z"/><path d="M44.2693 35.2625H30.1985V30.0294C30.1985 29.632 29.8666 29.3008 29.4684 29.3008H15.641C15.2427 29.3008 14.9109 29.632 14.9109 30.0294V35.2625H0.751573C0.353343 35.2625 0.0214844 35.5937 0.0214844 35.9912V44.2493C0.0214844 44.6467 0.353343 44.9779 0.751573 44.9779C1.1498 44.9779 1.48166 44.6467 1.48166 44.2493V36.7198H15.641C16.0392 36.7198 16.371 36.3886 16.371 35.9912V30.7581H28.7162V35.9912C28.7162 36.3886 29.048 36.7198 29.4463 36.7198H43.5171V44.2493C43.5171 44.6467 43.8489 44.9779 44.2471 44.9779C44.6454 44.9779 44.9772 44.6467 44.9772 44.2493V35.9912C44.9994 35.5937 44.6675 35.2625 44.2693 35.2625Z"/></svg>
