<svg width="30" height="29" viewBox="0 0 30 29" fill="none" xmlns="http://www.w3.org/2000/svg">
<path d="M29.8741 10.807C29.7307 10.362 29.4669 9.96532 29.112 9.66095C28.7571 9.35659 28.3249 9.15637 27.8632 9.08246L20.6189 7.90515L17.2607 1.37928C17.0467 0.963828 16.7225 0.615331 16.3236 0.372023C15.9246 0.128715 15.4664 0 14.9991 0C14.5318 0 14.0736 0.128715 13.6746 0.372023C13.2757 0.615331 12.9515 0.963828 12.7375 1.37928L9.37929 7.90515L2.1351 9.08246C1.6739 9.15753 1.24228 9.35818 0.887603 9.66241C0.53293 9.96664 0.268909 10.3627 0.124508 10.8071C-0.0198929 11.2515 -0.039093 11.7271 0.0690142 12.1817C0.177121 12.6363 0.408358 13.0523 0.737353 13.3841L5.9061 18.5946L4.78735 25.8481C4.71556 26.3101 4.77258 26.7829 4.95213 27.2146C5.13168 27.6463 5.42681 28.0201 5.80505 28.2949C6.18329 28.5697 6.63 28.7349 7.09604 28.7723C7.56208 28.8096 8.0294 28.7177 8.4466 28.5067L14.9991 25.2011L21.5518 28.5067C21.969 28.7173 22.4362 28.8089 22.9021 28.7713C23.3679 28.7337 23.8144 28.5685 24.1926 28.2938C24.5707 28.0191 24.8658 27.6455 25.0454 27.2141C25.2251 26.7826 25.2824 26.31 25.211 25.8481L24.0923 18.5946L29.261 13.3841C29.5911 13.053 29.823 12.6369 29.9312 12.1821C30.0394 11.7272 30.0197 11.2513 29.8741 10.807ZM27.841 11.9757L21.9616 17.9025L23.2343 26.1531C23.2501 26.252 23.2382 26.3532 23.2 26.4457C23.1618 26.5381 23.0987 26.6182 23.0177 26.677C22.9368 26.7358 22.8411 26.7711 22.7414 26.7789C22.6416 26.7867 22.5416 26.7667 22.4525 26.7211L14.9991 22.961L7.5456 26.7213C7.4565 26.7668 7.35654 26.7868 7.25678 26.779C7.15702 26.7712 7.06137 26.736 6.98041 26.6772C6.89946 26.6183 6.83637 26.5383 6.79814 26.4458C6.7599 26.3533 6.74801 26.2521 6.76379 26.1533L8.0366 17.9025L2.15729 11.9756C2.08708 11.9047 2.03775 11.8158 2.0147 11.7187C1.99164 11.6216 1.99576 11.52 2.0266 11.4251C2.05744 11.3302 2.11381 11.2456 2.18954 11.1806C2.26526 11.1156 2.35742 11.0726 2.45592 11.0565L10.696 9.7174L14.5159 2.29446C14.5616 2.20567 14.6308 2.13118 14.7161 2.07918C14.8013 2.02717 14.8992 1.99966 14.9991 1.99966C15.099 1.99966 15.1969 2.02717 15.2821 2.07918C15.3673 2.13118 15.4366 2.20567 15.4823 2.29446L19.3022 9.7174L27.5423 11.0565C27.6408 11.0726 27.7329 11.1156 27.8087 11.1806C27.8844 11.2456 27.9408 11.3302 27.9716 11.4251C28.0024 11.52 28.0066 11.6216 27.9835 11.7187C27.9605 11.8158 27.9111 11.9047 27.8409 11.9756L27.841 11.9757Z"/>
</svg>
