<svg width="200" height="82" viewBox="0 0 200 82" fill="#292B2C" xmlns="http://www.w3.org/2000/svg"><g opacity="0.2">
<path d="M1.24352 42.1979C1.93029 42.1979 2.48704 41.6381 2.48704 40.9476C2.48704 40.2571 1.93029 39.6973 1.24352 39.6973C0.556741 39.6973 9.88721e-08 40.2571 2.20837e-07 40.9476C3.42802e-07 41.6381 0.556741 42.1979 1.24352 42.1979Z"/><path d="M20.933 42.1979C21.6197 42.1979 22.1765 41.6381 22.1765 40.9476C22.1765 40.2571 21.6197 39.6973 20.933 39.6973C20.2462 39.6973 19.6895 40.2571 19.6895 40.9476C19.6895 41.6381 20.2462 42.1979 20.933 42.1979Z"/><path d="M40.725 42.1979C41.4117 42.1979 41.9685 41.6381 41.9685 40.9476C41.9685 40.2571 41.4117 39.6973 40.725 39.6973C40.0382 39.6973 39.4814 40.2571 39.4814 40.9476C39.4814 41.6381 40.0382 42.1979 40.725 42.1979Z"/><path d="M60.5179 42.1979C61.2047 42.1979 61.7614 41.6381 61.7614 40.9476C61.7614 40.2571 61.2047 39.6973 60.5179 39.6973C59.8312 39.6973 59.2744 40.2571 59.2744 40.9476C59.2744 41.6381 59.8312 42.1979 60.5179 42.1979Z"/><path d="M80.2064 42.1979C80.8932 42.1979 81.4499 41.6381 81.4499 40.9476C81.4499 40.2571 80.8932 39.6973 80.2064 39.6973C79.5196 39.6973 78.9629 40.2571 78.9629 40.9476C78.9629 41.6381 79.5196 42.1979 80.2064 42.1979Z"/><path d="M99.9989 42.1979C100.686 42.1979 101.242 41.6381 101.242 40.9476C101.242 40.2571 100.686 39.6973 99.9989 39.6973C99.3121 39.6973 98.7554 40.2571 98.7554 40.9476C98.7554 41.6381 99.3121 42.1979 99.9989 42.1979Z"/><path d="M119.688 42.1979C120.375 42.1979 120.932 41.6381 120.932 40.9476C120.932 40.2571 120.375 39.6973 119.688 39.6973C119.002 39.6973 118.445 40.2571 118.445 40.9476C118.445 41.6381 119.002 42.1979 119.688 42.1979Z"/><path d="M139.481 42.1979C140.168 42.1979 140.724 41.6381 140.724 40.9476C140.724 40.2571 140.168 39.6973 139.481 39.6973C138.794 39.6973 138.237 40.2571 138.237 40.9476C138.237 41.6381 138.794 42.1979 139.481 42.1979Z"/><path d="M159.274 42.1979C159.961 42.1979 160.518 41.6381 160.518 40.9476C160.518 40.2571 159.961 39.6973 159.274 39.6973C158.587 39.6973 158.031 40.2571 158.031 40.9476C158.031 41.6381 158.587 42.1979 159.274 42.1979Z"/><path d="M178.963 42.1979C179.65 42.1979 180.207 41.6381 180.207 40.9476C180.207 40.2571 179.65 39.6973 178.963 39.6973C178.276 39.6973 177.72 40.2571 177.72 40.9476C177.72 41.6381 178.276 42.1979 178.963 42.1979Z"/><path d="M198.756 42.1979C199.443 42.1979 200 41.6381 200 40.9476C200 40.2571 199.443 39.6973 198.756 39.6973C198.069 39.6973 197.513 40.2571 197.513 40.9476C197.513 41.6381 198.069 42.1979 198.756 42.1979Z"/><path d="M1.24352 62.0983C1.93029 62.0983 2.48703 61.5385 2.48703 60.848C2.48703 60.1574 1.93029 59.5977 1.24352 59.5977C0.55674 59.5977 9.88711e-08 60.1574 2.20835e-07 60.848C3.42798e-07 61.5385 0.556741 62.0983 1.24352 62.0983Z"/><path d="M1.24352 81.9999C1.93029 81.9999 2.48703 81.4401 2.48703 80.7496C2.48703 80.059 1.93029 79.4993 1.24352 79.4993C0.55674 79.4993 9.88719e-08 80.0591 2.20837e-07 80.7496C3.42803e-07 81.4401 0.556741 81.9999 1.24352 81.9999Z"/><path d="M20.933 62.0983C21.6197 62.0983 22.1765 61.5385 22.1765 60.848C22.1765 60.1574 21.6197 59.5977 20.933 59.5977C20.2462 59.5977 19.6895 60.1574 19.6895 60.848C19.6895 61.5385 20.2462 62.0983 20.933 62.0983Z"/><path d="M20.9325 81.9999C21.6193 81.9999 22.176 81.4401 22.176 80.7496C22.176 80.059 21.6193 79.4993 20.9325 79.4993C20.2457 79.4993 19.689 80.0591 19.689 80.7496C19.689 81.4401 20.2457 81.9999 20.9325 81.9999Z"/><path d="M40.725 62.0983C41.4117 62.0983 41.9685 61.5385 41.9685 60.848C41.9685 60.1574 41.4117 59.5977 40.725 59.5977C40.0382 59.5977 39.4814 60.1574 39.4814 60.848C39.4814 61.5385 40.0382 62.0983 40.725 62.0983Z"/><path d="M40.725 81.9999C41.4117 81.9999 41.9685 81.4401 41.9685 80.7496C41.9685 80.059 41.4117 79.4993 40.725 79.4993C40.0382 79.4993 39.4814 80.0591 39.4814 80.7496C39.4814 81.4401 40.0382 81.9999 40.725 81.9999Z"/><path d="M60.5179 62.0983C61.2047 62.0983 61.7614 61.5385 61.7614 60.848C61.7614 60.1574 61.2047 59.5977 60.5179 59.5977C59.8312 59.5977 59.2744 60.1574 59.2744 60.848C59.2744 61.5385 59.8312 62.0983 60.5179 62.0983Z"/><path d="M60.5174 81.9999C61.2042 81.9999 61.761 81.4401 61.761 80.7496C61.761 80.059 61.2042 79.4993 60.5174 79.4993C59.8307 79.4993 59.2739 80.0591 59.2739 80.7496C59.2739 81.4401 59.8307 81.9999 60.5174 81.9999Z"/><path d="M80.2064 62.0983C80.8932 62.0983 81.4499 61.5385 81.4499 60.848C81.4499 60.1574 80.8932 59.5977 80.2064 59.5977C79.5196 59.5977 78.9629 60.1574 78.9629 60.848C78.9629 61.5385 79.5196 62.0983 80.2064 62.0983Z"/><path d="M80.2064 81.9999C80.8932 81.9999 81.4499 81.4401 81.4499 80.7496C81.4499 80.059 80.8932 79.4993 80.2064 79.4993C79.5196 79.4993 78.9629 80.0591 78.9629 80.7496C78.9629 81.4401 79.5196 81.9999 80.2064 81.9999Z"/><path d="M99.9989 62.0983C100.686 62.0983 101.242 61.5385 101.242 60.848C101.242 60.1574 100.686 59.5977 99.9989 59.5977C99.3121 59.5977 98.7554 60.1574 98.7554 60.848C98.7554 61.5385 99.3121 62.0983 99.9989 62.0983Z"/><path d="M99.9989 81.9999C100.686 81.9999 101.242 81.4401 101.242 80.7496C101.242 80.059 100.686 79.4993 99.9989 79.4993C99.3121 79.4993 98.7554 80.0591 98.7554 80.7496C98.7554 81.4401 99.3121 81.9999 99.9989 81.9999Z"/><path d="M119.688 62.0983C120.375 62.0983 120.932 61.5385 120.932 60.848C120.932 60.1574 120.375 59.5977 119.688 59.5977C119.002 59.5977 118.445 60.1574 118.445 60.848C118.445 61.5385 119.002 62.0983 119.688 62.0983Z"/><path d="M119.688 81.9999C120.375 81.9999 120.932 81.4401 120.932 80.7496C120.932 80.059 120.375 79.4993 119.688 79.4993C119.002 79.4993 118.445 80.0591 118.445 80.7496C118.445 81.4401 119.002 81.9999 119.688 81.9999Z"/><path d="M139.481 62.0983C140.168 62.0983 140.724 61.5385 140.724 60.848C140.724 60.1574 140.168 59.5977 139.481 59.5977C138.794 59.5977 138.237 60.1574 138.237 60.848C138.237 61.5385 138.794 62.0983 139.481 62.0983Z"/><path d="M139.481 81.9999C140.168 81.9999 140.724 81.4401 140.724 80.7496C140.724 80.059 140.168 79.4993 139.481 79.4993C138.794 79.4993 138.237 80.0591 138.237 80.7496C138.237 81.4401 138.794 81.9999 139.481 81.9999Z"/><path d="M159.273 62.0983C159.96 62.0983 160.517 61.5385 160.517 60.848C160.517 60.1574 159.96 59.5977 159.273 59.5977C158.587 59.5977 158.03 60.1574 158.03 60.848C158.03 61.5385 158.587 62.0983 159.273 62.0983Z"/>
<path d="M159.273 81.9999C159.96 81.9999 160.517 81.4401 160.517 80.7496C160.517 80.0591 159.96 79.4993 159.273 79.4993C158.587 79.4993 158.03 80.0591 158.03 80.7496C158.03 81.4401 158.587 81.9999 159.273 81.9999Z"/><path d="M178.963 62.0983C179.65 62.0983 180.207 61.5385 180.207 60.848C180.207 60.1574 179.65 59.5977 178.963 59.5977C178.276 59.5977 177.72 60.1574 177.72 60.848C177.72 61.5385 178.276 62.0983 178.963 62.0983Z"/><path d="M178.963 81.9999C179.65 81.9999 180.207 81.4401 180.207 80.7496C180.207 80.0591 179.65 79.4993 178.963 79.4993C178.276 79.4993 177.72 80.0591 177.72 80.7496C177.72 81.4401 178.276 81.9999 178.963 81.9999Z"/>
<path d="M198.755 62.0983C199.442 62.0983 199.999 61.5385 199.999 60.848C199.999 60.1574 199.442 59.5977 198.755 59.5977C198.068 59.5977 197.512 60.1574 197.512 60.848C197.512 61.5385 198.068 62.0983 198.755 62.0983Z"/><path d="M198.755 81.9999C199.442 81.9999 199.999 81.4401 199.999 80.7496C199.999 80.0591 199.442 79.4993 198.755 79.4993C198.068 79.4993 197.512 80.0591 197.512 80.7496C197.512 81.4401 198.068 81.9999 198.755 81.9999Z"/><path d="M1.24352 2.50112C1.93029 2.50112 2.48704 1.94133 2.48704 1.2508C2.48704 0.560273 1.93029 0.000487947 1.24352 0.000488066C0.556741 0.000488185 9.88722e-08 0.560273 2.20837e-07 1.2508C3.42802e-07 1.94133 0.556741 2.50112 1.24352 2.50112Z"/><path d="M20.933 2.50063C21.6197 2.50063 22.1765 1.94084 22.1765 1.25031C22.1765 0.559784 21.6197 -3.34151e-07 20.933 -2.15264e-07C20.2462 -9.6377e-08 19.6895 0.559785 19.6895 1.25031C19.6895 1.94084 20.2462 2.50063 20.933 2.50063Z"/><path d="M40.7255 2.50063C41.4122 2.50063 41.969 1.94084 41.969 1.25031C41.969 0.559784 41.4122 -3.34151e-07 40.7255 -2.15264e-07C40.0387 -9.63772e-08 39.4819 0.559785 39.4819 1.25031C39.4819 1.94084 40.0387 2.50063 40.7255 2.50063Z"/><path d="M60.5179 2.50063C61.2047 2.50063 61.7614 1.94084 61.7614 1.25031C61.7614 0.559784 61.2047 -3.34155e-07 60.5179 -2.15267e-07C59.8312 -9.63778e-08 59.2744 0.559785 59.2744 1.25031C59.2744 1.94084 59.8312 2.50063 60.5179 2.50063Z"/><path d="M80.2064 2.50063C80.8932 2.50063 81.4499 1.94084 81.4499 1.25031C81.4499 0.559784 80.8932 -3.34155e-07 80.2064 -2.15267e-07C79.5196 -9.63778e-08 78.9629 0.559785 78.9629 1.25031C78.9629 1.94084 79.5196 2.50063 80.2064 2.50063Z"/><path d="M99.9989 2.50063C100.686 2.50063 101.242 1.94084 101.242 1.25031C101.242 0.559784 100.686 -3.34152e-07 99.9989 -2.15264e-07C99.3121 -9.63767e-08 98.7554 0.559785 98.7554 1.25031C98.7554 1.94084 99.3121 2.50063 99.9989 2.50063Z"/><path d="M119.688 2.50063C120.375 2.50063 120.932 1.94084 120.932 1.25031C120.932 0.559784 120.375 -3.34159e-07 119.688 -2.1527e-07C119.002 -9.63808e-08 118.445 0.559785 118.445 1.25031C118.445 1.94084 119.002 2.50063 119.688 2.50063Z"/><path d="M139.481 2.50063C140.168 2.50063 140.724 1.94084 140.724 1.25031C140.724 0.559784 140.168 -3.34161e-07 139.481 -2.1527e-07C138.794 -9.63795e-08 138.237 0.559785 138.237 1.25031C138.237 1.94084 138.794 2.50063 139.481 2.50063Z"/><path d="M159.274 2.50063C159.961 2.50063 160.518 1.94084 160.518 1.25031C160.518 0.559784 159.961 -3.34158e-07 159.274 -2.15268e-07C158.587 -9.63787e-08 158.031 0.559785 158.031 1.25031C158.031 1.94084 158.587 2.50063 159.274 2.50063Z"/><path d="M178.963 2.50063C179.65 2.50063 180.207 1.94084 180.207 1.25031C180.207 0.559784 179.65 -3.34164e-07 178.963 -2.15272e-07C178.276 -9.63804e-08 177.72 0.559785 177.72 1.25031C177.72 1.94084 178.276 2.50063 178.963 2.50063Z"/><path d="M198.755 2.50063C199.442 2.50063 199.999 1.94084 199.999 1.25031C199.999 0.559784 199.442 -3.34156e-07 198.755 -2.15267e-07C198.068 -9.63781e-08 197.512 0.559785 197.512 1.25031C197.512 1.94084 198.068 2.50063 198.755 2.50063Z"/><path d="M1.24352 22.401C1.93029 22.401 2.48704 21.8412 2.48704 21.1507C2.48704 20.4602 1.93029 19.9004 1.24352 19.9004C0.556741 19.9004 9.8872e-08 20.4602 2.20837e-07 21.1507C3.42802e-07 21.8412 0.556741 22.401 1.24352 22.401Z"/><path d="M20.9325 22.401C21.6193 22.401 22.176 21.8412 22.176 21.1507C22.176 20.4602 21.6193 19.9004 20.9325 19.9004C20.2457 19.9004 19.689 20.4602 19.689 21.1507C19.689 21.8412 20.2457 22.401 20.9325 22.401Z"/><path d="M40.7255 22.401C41.4122 22.401 41.969 21.8412 41.969 21.1507C41.969 20.4602 41.4122 19.9004 40.7255 19.9004C40.0387 19.9004 39.4819 20.4602 39.4819 21.1507C39.4819 21.8412 40.0387 22.401 40.7255 22.401Z"/><path d="M60.5179 22.401C61.2047 22.401 61.7614 21.8412 61.7614 21.1507C61.7614 20.4602 61.2047 19.9004 60.5179 19.9004C59.8312 19.9004 59.2744 20.4602 59.2744 21.1507C59.2744 21.8412 59.8312 22.401 60.5179 22.401Z"/><path d="M80.2064 22.401C80.8932 22.401 81.4499 21.8412 81.4499 21.1507C81.4499 20.4602 80.8932 19.9004 80.2064 19.9004C79.5196 19.9004 78.9629 20.4602 78.9629 21.1507C78.9629 21.8412 79.5196 22.401 80.2064 22.401Z"/><path d="M99.9989 22.401C100.686 22.401 101.242 21.8412 101.242 21.1507C101.242 20.4602 100.686 19.9004 99.9989 19.9004C99.3121 19.9004 98.7554 20.4602 98.7554 21.1507C98.7554 21.8412 99.3121 22.401 99.9989 22.401Z"/><path d="M119.688 22.401C120.375 22.401 120.932 21.8412 120.932 21.1507C120.932 20.4602 120.375 19.9004 119.688 19.9004C119.002 19.9004 118.445 20.4602 118.445 21.1507C118.445 21.8412 119.002 22.401 119.688 22.401Z"/><path d="M139.481 22.401C140.168 22.401 140.724 21.8412 140.724 21.1507C140.724 20.4602 140.168 19.9004 139.481 19.9004C138.794 19.9004 138.237 20.4602 138.237 21.1507C138.237 21.8412 138.794 22.401 139.481 22.401Z"/><path d="M159.274 22.401C159.961 22.401 160.518 21.8412 160.518 21.1507C160.518 20.4602 159.961 19.9004 159.274 19.9004C158.587 19.9004 158.031 20.4602 158.031 21.1507C158.031 21.8412 158.587 22.401 159.274 22.401Z"/><path d="M178.963 22.401C179.65 22.401 180.207 21.8412 180.207 21.1507C180.207 20.4602 179.65 19.9004 178.963 19.9004C178.276 19.9004 177.72 20.4602 177.72 21.1507C177.72 21.8412 178.276 22.401 178.963 22.401Z"/><path d="M198.756 22.401C199.443 22.401 200 21.8412 200 21.1507C200 20.4602 199.443 19.9004 198.756 19.9004C198.069 19.9004 197.513 20.4602 197.513 21.1507C197.513 21.8412 198.069 22.401 198.756 22.401Z"/></g></svg>
