<svg width="15" height="13" viewBox="0 0 15 13" fill="#1567BA" xmlns="http://www.w3.org/2000/svg"><path d="M15 3.25V2.375C15 2.21094 14.8359 2.04688 14.6719 2.04688H6.57812C6.38672 2.04688 6.25 2.21094 6.25 2.40234V3.25C6.25 3.44141 6.38672 3.57812 6.57812 3.57812H14.6719C14.8359 3.57812 15 3.44141 15 3.25ZM15 7.625V6.75C15 6.58594 14.8359 6.42188 14.6719 6.42188H6.57812C6.38672 6.42188 6.25 6.58594 6.25 6.75V7.625C6.25 7.81641 6.38672 7.95312 6.57812 7.95312H14.6719C14.8359 7.95312 15 7.81641 15 7.625ZM15 12V11.125C15 10.9609 14.8359 10.7969 14.6719 10.7969H6.57812C6.38672 10.7969 6.25 10.9609 6.25 11.125V12C6.25 12.1914 6.38672 12.3281 6.57812 12.3281H14.6719C14.8359 12.3281 15 12.1914 15 12ZM5.42969 1.52734C5.53906 1.41797 5.53906 1.19922 5.42969 1.0625L5.07422 0.734375C4.96484 0.597656 4.74609 0.597656 4.60938 0.734375L2.66797 2.67578L1.875 1.88281C1.76562 1.74609 1.54688 1.74609 1.41016 1.88281L1.08203 2.21094C0.945312 2.34766 0.945312 2.53906 1.08203 2.67578L2.09375 3.71484L2.44922 4.04297C2.55859 4.17969 2.77734 4.17969 2.91406 4.04297L5.42969 1.52734ZM5.42969 5.90234C5.53906 5.76562 5.53906 5.57422 5.42969 5.4375L5.07422 5.10938C4.96484 4.97266 4.74609 4.97266 4.60938 5.10938L2.66797 7.05078L1.875 6.25781C1.76562 6.12109 1.54688 6.12109 1.41016 6.25781L1.08203 6.58594C0.945312 6.72266 0.945312 6.91406 1.08203 7.05078L2.09375 8.08984L2.44922 8.41797C2.55859 8.55469 2.77734 8.55469 2.91406 8.41797L5.42969 5.90234ZM2.75 10.25C2.01172 10.25 1.4375 10.8516 1.4375 11.5625C1.4375 12.3008 2.01172 12.875 2.75 12.875C3.46094 12.875 4.0625 12.3008 4.0625 11.5625C4.0625 10.8516 3.46094 10.25 2.75 10.25Z"/></svg>
