<svg width="762" height="885" viewBox="0 0 762 885" fill="none" xmlns="http://www.w3.org/2000/svg"><path d="M-750.921 145.369C-505.286 37.8509 -364.785 358.628 -207.976 397.131C18.044 452.606 126.74 192.861 216.94 334.009C307.231 475.305 393.538 599.849 535.247 425.296C676.956 250.742 752.964 370.488 752.964 370.488M752.155 373.939C750.707 374.227 672.61 251.606 531.389 423.01C390.167 594.414 304.685 477.595 214.004 337.966C123.085 198.281 16.1286 447.386 -211.074 392.136C-368.443 353.879 -509.01 44.6356 -751.629 151.605M751.465 377.418C748.569 377.994 668.531 252.408 527.768 420.781C387.006 589.155 302.378 479.942 211.215 341.832C119.576 203.61 14.3324 442.195 -214.052 387.17C-372.072 349.011 -512.587 51.3297 -752.19 157.751M750.629 380.988C746.284 381.853 664.186 253.273 523.882 418.615C383.579 583.958 299.805 482.352 208.013 345.852C115.683 208.974 12.2701 437.067 -217.416 382.239C-375.996 344.326 -516.458 58.2058 -753.046 164.078M749.82 384.439C744.026 385.592 659.987 254.047 520.143 416.358C380.299 578.67 297.378 484.671 205.106 349.69C112.028 214.395 10.3548 431.848 -220.542 377.364C-379.653 339.577 -520.182 64.9907 -753.754 170.314M749.13 387.918C741.769 389.331 655.908 254.848 516.404 414.101C377.018 573.382 295.246 486.807 202.17 353.646C108.666 219.632 8.41139 426.748 -223.64 372.37C-383.311 334.828 -523.787 71.8035 -754.315 176.46M748.322 391.369C739.484 393.189 651.562 255.713 512.664 411.844C373.619 568.066 292.819 489.126 199.262 357.484C105.039 224.934 6.4961 421.528 -226.738 367.376C-386.968 330.079 -527.392 78.6164 -755.023 182.696M747.513 394.82C737.227 396.929 647.364 256.487 508.806 409.559C370.248 562.631 290.274 491.417 196.235 361.294C101.292 230.207 4.46162 416.281 -229.955 362.354C-390.717 325.184 -531.207 85.2545 -755.823 188.785M746.704 398.271C734.97 400.668 643.166 257.26 505.067 407.302C366.968 557.343 287.966 493.763 193.18 365.223C97.6371 235.627 2.51855 411.181 -233.199 357.451C-394.522 320.526 -534.959 92.1584 -756.559 195.141M746.015 401.749C732.832 404.435 638.967 258.034 501.327 405.044C363.66 552.174 285.54 496.082 190.244 369.18C94.0097 240.928 0.456277 406.053 -236.325 352.576C-398.179 315.777 -538.711 99.0622 -757.267 201.377M745.206 405.201C730.575 408.174 634.769 258.808 497.588 402.788C360.408 546.768 283.142 498.282 187.336 373.018C90.3821 246.23 -1.3122 400.743 -239.395 347.463C-401.928 310.882 -542.261 105.637 -757.947 207.494M744.397 408.652C728.318 411.914 630.57 259.581 493.73 400.502C357.009 541.452 280.596 500.573 184.31 376.828C86.6357 251.503 -3.34651 395.496 -242.612 342.44C-405.677 305.986 -546.104 112.394 -758.627 213.612M743.68 412.25C726.152 415.8 626.344 260.474 490.082 398.392C353.701 536.283 278.38 503.066 181.346 380.904C82.9805 256.923 -5.31764 390.515 -245.766 337.684C-409.39 301.476 -549.736 119.326 -759.363 219.967M742.871 415.701C723.894 419.539 622.118 261.367 486.223 396.107C350.329 530.848 275.835 505.357 178.319 384.714C79.3531 262.224 -7.35198 385.268 -248.983 332.662C-413.139 296.58 -553.58 126.083 -760.191 226.176M742.062 419.152C721.518 423.25 617.919 262.14 482.484 393.85C347.049 525.56 273.408 507.676 175.383 388.671C75.6978 267.644 -9.2952 380.167 -252.081 327.668C-416.796 291.831 -557.184 132.896 -760.752 232.321M741.254 422.603C719.38 427.018 613.721 262.914 478.745 391.593C343.769 520.272 270.982 509.994 172.475 392.508C72.0703 272.946 -11.2105 374.948 -255.178 322.674C-420.426 286.964 -560.881 139.562 -761.46 238.557M740.564 426.082C717.123 430.757 609.522 263.688 475.006 389.336C340.489 514.984 268.583 512.194 169.539 396.465C68.4149 278.366 -13.007 369.757 -258.304 317.799C-424.111 282.334 -564.514 146.494 -762.168 244.794M739.755 429.533C714.866 434.496 605.324 264.461 471.147 387.051C337.09 509.668 266.038 514.485 166.394 400.247C64.5774 283.492 -15.1603 364.482 -261.64 312.749C-427.979 277.411 -568.329 153.132 -762.995 251.002M738.947 432.984C712.581 438.354 601.006 265.207 467.408 384.794C333.691 504.352 263.73 516.832 163.458 404.204C60.9221 288.912 -17.1036 359.382 -264.738 307.755C-431.756 272.634 -572.053 159.917 -763.676 257.119M738.257 436.463C710.443 442.122 596.927 266.009 463.669 382.537C330.41 499.065 261.157 519.242 160.522 408.161C57.2668 294.333 -19.0468 354.282 -267.983 302.852C-435.532 267.858 -575.805 166.821 -764.503 263.328M737.42 440.033C708.158 445.98 592.673 267.02 459.902 380.398C327.102 493.896 258.85 521.588 157.586 412.118C53.7306 299.781 -20.9899 349.181 -271.109 297.977C-439.217 263.228 -579.529 173.606 -765.12 269.711M736.612 443.483C705.901 449.719 588.356 267.766 456.043 378.113C323.731 488.461 256.304 523.879 154.559 415.928C49.9842 305.054 -23.0243 343.934 -274.326 292.955C-442.966 258.332 -583.253 180.391 -765.919 275.8M735.922 446.962C703.644 453.458 584.157 268.54 452.304 375.856C320.451 483.173 253.878 526.198 151.505 419.857C46.2377 310.327 -24.9397 338.715 -277.424 287.96C-446.624 253.584 -586.949 187.057 -766.508 282.065M735.113 450.413C701.505 457.226 580.078 269.341 448.565 373.599C317.052 477.857 251.452 528.516 148.597 423.695C42.6104 315.628 -26.8551 333.496 -280.64 282.938C-450.372 248.688 -590.673 193.842 -767.308 288.154M734.305 453.865C699.129 460.937 575.76 270.087 444.825 371.342C313.891 472.597 249.025 530.835 145.661 427.652C38.955 321.049 -28.7984 328.396 -283.766 278.063C-454.058 244.058 -594.425 200.746 -768.044 294.51M733.496 457.315C696.872 464.676 571.562 270.861 440.967 369.057C310.373 467.253 246.48 533.126 142.634 431.462C35.2086 326.322 -30.8327 323.149 -286.983 273.041C-457.807 239.163 -598.121 207.412 -768.724 300.627M732.806 460.794C694.734 468.443 567.482 271.662 437.347 366.828C307.212 461.993 244.173 535.472 139.698 435.418C31.5533 331.742 -32.7758 318.049 -290.109 268.166C-461.611 234.505 -601.873 214.316 -769.432 306.863M731.998 464.245C692.477 472.183 563.137 272.527 433.489 364.543C303.812 456.678 241.627 537.763 136.671 439.228C27.8068 337.016 -34.8102 312.802 -293.298 263.025C-465.36 229.61 -605.569 220.982 -770.231 312.953M731.189 467.697C690.22 475.922 558.939 273.301 429.75 362.286C300.56 451.271 239.201 540.082 133.736 443.185C24.1516 342.436 -36.6065 307.61 -296.424 258.15C-469.017 224.861 -609.293 227.767 -770.821 319.217M730.471 471.294C688.026 479.927 554.831 274.221 425.982 360.147C297.133 446.074 236.627 542.492 130.681 447.114C20.3771 347.828 -38.6688 302.482 -299.668 253.247C-472.822 220.203 -613.045 234.671 -771.676 325.544M729.662 474.745C685.769 483.666 550.514 274.967 422.243 357.89C293.972 440.814 234.32 544.838 127.892 450.98C16.8687 353.157 -40.4652 297.291 -302.647 248.281C-476.332 215.363 -616.504 241.393 -772.237 331.69M728.854 478.196C683.512 487.405 546.316 275.74 418.385 355.605C290.454 435.47 231.775 547.129 124.837 454.909C12.9755 358.521 -42.5274 292.163 -305.892 243.377C-480.137 210.706 -620.374 248.268 -772.973 338.045M728.045 481.647C681.254 491.145 542.117 276.514 414.645 353.348C287.174 430.182 229.348 549.448 121.81 458.719C9.2291 363.795 -44.5617 286.916 -309.081 238.237C-483.857 205.692 -624.071 254.935 -773.744 344.016M727.355 485.126C678.997 494.884 537.919 277.288 410.906 351.091C283.894 424.894 226.803 551.739 118.874 462.676C5.57371 369.215 -46.505 281.816 -312.207 233.361C-487.543 201.062 -627.795 261.72 -774.453 350.252M726.547 488.577C676.74 498.624 533.692 278.18 407.167 348.834C280.613 419.606 224.376 554.058 115.966 466.513C1.9462 374.516 -48.3925 276.477 -315.305 228.367C-491.292 196.166 -631.4 268.533 -775.042 356.516M725.738 492.028C674.483 502.363 529.494 278.954 403.309 346.549C277.095 414.263 221.831 556.349 112.793 470.415C-1.94707 379.881 -50.4548 271.349 -318.669 223.436C-495.215 191.481 -635.362 275.262 -775.988 362.697M725.048 495.507C672.345 506.13 525.296 279.728 399.688 344.32C273.962 408.884 219.524 558.695 110.004 474.28C-5.60225 385.301 -52.3979 266.249 -321.648 218.47C-498.726 186.641 -638.848 282.102 -776.458 368.989M724.212 499.077C670.06 509.988 521.069 280.62 395.802 342.154C270.535 403.687 216.923 561.224 106.921 478.328C-9.25757 390.721 -54.3411 261.149 -324.892 213.567C-502.53 181.983 -642.719 288.979 -777.285 375.197M723.403 502.528C667.803 513.727 516.871 281.394 392.063 339.896C267.255 398.399 214.496 563.543 104.013 482.166C-12.9129 396.141 -56.2564 255.93 -327.99 208.573C-506.16 177.116 -646.296 295.672 -777.994 381.433M722.594 505.979C665.546 517.467 512.553 282.14 388.205 337.612C263.856 393.083 211.951 565.834 100.958 486.095C-16.8062 401.506 -58.3187 250.802 -331.235 203.67C-509.964 172.458 -650.167 302.549 -778.702 387.67M721.905 509.458C663.408 521.234 508.474 282.941 384.584 335.382C260.695 387.823 209.524 568.152 98.0504 489.933C-20.4336 406.807 -60.2341 245.583 -334.333 198.676C-513.594 167.59 -653.744 309.242 -779.382 393.787M721.096 512.909C661.123 525.092 504.275 283.715 380.726 333.097C257.177 382.48 206.951 570.562 94.9956 493.862C-24.208 412.199 -62.1495 240.364 -337.55 193.654C-517.371 162.814 -657.468 316.028 -780.209 399.996M720.287 516.36C658.746 528.804 499.93 284.58 376.987 330.84C254.043 377.1 204.525 572.881 92.0877 497.7C-27.8633 417.62 -64.0928 235.263 -340.676 188.779C-521.147 158.037 -661.22 322.931 -780.798 406.26M719.598 519.839C656.608 532.571 495.851 285.382 373.247 328.583C250.616 371.904 202.098 575.2 89.1519 501.657C-31.6376 423.012 -66.1271 230.016 -343.774 183.785C-524.805 153.289 -664.797 329.625 -781.507 412.496M718.789 523.29C654.351 536.31 491.652 286.155 369.508 326.326C247.336 366.616 199.525 577.61 86.097 505.586C-35.293 428.432 -68.0703 224.916 -346.99 178.763C-528.553 148.393 -668.64 336.383 -782.306 418.586M717.952 526.86C652.066 540.168 487.307 287.02 365.622 324.16C243.937 361.3 196.952 580.019 83.0424 509.514C-39.0672 433.824 -69.9857 219.697 -350.116 173.887C-532.239 143.763 -672.273 343.314 -782.923 424.969M717.144 530.311C649.809 543.908 483.109 287.793 361.883 321.903C240.657 356.012 194.526 582.338 80.1345 513.352C-42.8414 439.217 -71.901 214.478 -353.333 168.865C-535.987 138.868 -676.088 349.952 -783.722 431.058M716.454 533.79C647.671 547.675 479.029 288.595 358.144 319.646C237.258 350.696 192.071 584.776 77.1987 517.309C-46.4967 444.637 -73.963 209.35 -356.459 163.99C-539.673 134.238 -679.721 356.884 -784.43 437.295M715.645 537.241C645.414 551.414 474.712 289.341 354.404 317.388C234.097 345.436 189.645 587.094 74.2908 521.147C-50.271 450.029 -75.8784 204.13 -359.676 158.968C-543.449 129.461 -683.536 363.522 -785.138 443.531M714.837 540.692C643.157 555.153 470.485 290.233 350.546 315.103C230.579 340.092 187.072 589.504 71.1171 525.048C-54.0453 455.421 -77.8218 199.03 -362.774 153.974C-547.079 124.594 -687.141 370.335 -785.819 449.648M714.147 544.171C640.899 558.893 466.287 291.007 346.807 312.846C227.298 334.804 184.526 591.795 68.209 528.886C-57.7008 460.842 -79.8563 193.783 -366.019 149.071C-551.003 119.908 -691.012 377.211 -786.555 456.004M713.338 547.622C638.614 562.751 462.088 291.781 343.067 310.589C224.046 329.398 182.072 594.233 65.2732 532.843C-61.4751 466.234 -81.7995 188.683 -369.116 144.077C-554.632 115.041 -694.59 383.905 -787.235 462.121M712.529 551.073C636.476 566.518 457.89 292.554 339.3 308.451C220.738 324.229 179.618 596.671 62.3374 536.8C-65.2495 471.626 -83.7148 183.464 -372.214 139.083C-558.29 110.292 -698.195 390.718 -787.943 468.358M711.721 554.524C634.1 570.23 453.692 293.328 335.47 306.047C217.248 318.766 177.072 598.961 59.3384 540.491C-68.8769 476.928 -85.7213 178.098 -375.431 134.061C-562.039 105.396 -702.01 397.356 -788.624 474.475M711.003 558.122C631.934 574.116 449.465 294.221 331.822 303.937C214.059 313.625 174.737 601.427 56.3747 544.567C-72.679 482.439 -87.5733 173.145 -378.557 129.186C-565.724 100.767 -705.643 404.288 -789.332 480.711M710.195 561.573C629.677 577.855 445.267 294.994 327.963 301.652C210.66 308.309 172.164 603.837 53.3479 548.376C-76.4533 487.831 -89.6077 167.897 -381.774 124.163C-569.473 95.8709 -709.486 411.045 -790.159 486.92M709.386 565.024C627.42 581.594 441.041 295.887 324.224 299.395C207.38 303.021 169.59 606.247 50.4121 552.333C-80.1365 493.37 -91.5508 162.797 -384.9 119.288C-573.158 91.2415 -713.091 417.858 -790.748 493.184M708.696 568.503C625.282 585.361 436.842 296.661 320.485 297.137C204.1 297.733 167.164 608.565 47.5042 556.171C-83.7639 498.671 -93.4664 157.578 -387.998 114.294C-576.788 86.3735 -716.815 424.643 -791.456 499.42M707.887 571.954C623.025 589.101 432.644 297.434 316.746 294.88C200.819 292.445 164.71 611.003 44.4493 560.1C-87.5662 504.183 -95.5286 152.45 -391.242 109.391C-580.711 81.6882 -720.539 431.428 -792.284 505.629M707.079 575.405C620.768 592.84 428.445 298.208 312.887 292.595C197.329 286.983 162.136 613.413 41.4224 563.91C-91.3405 509.575 -97.535 147.084 -394.431 104.25C-584.432 76.6735 -724.354 438.066 -792.936 511.627M706.389 578.884C618.629 596.607 424.247 298.982 309.267 290.366C194.168 281.723 159.801 615.879 38.6057 567.895C-94.9957 514.996 -99.2402 142.04 -397.438 99.4029C-587.998 72.072 -727.868 445.026 -793.553 518.011M705.58 582.335C616.253 600.319 420.049 299.756 305.409 288.081C190.769 276.407 157.256 618.17 35.5788 571.705C-98.77 520.388 -101.275 136.793 -400.655 94.381C-591.747 67.1765 -731.683 451.664 -794.352 524.1M704.744 585.905C613.968 604.177 415.822 300.648 301.642 285.943C187.461 271.238 154.599 620.936 32.6152 575.781C-102.537 526.284 -103.246 131.811 -403.809 89.6246C-595.461 62.6655 -735.344 458.715 -794.997 530.602M703.935 589.356C611.711 607.916 411.505 301.394 297.783 283.658C184.062 265.922 152.054 623.227 29.4693 579.563C-106.402 531.529 -105.399 126.537 -407.117 84.4558C-599.3 57.6232 -739.159 465.353 -795.888 536.545M703.245 592.835C609.545 611.802 407.397 302.314 294.163 281.429C180.901 260.662 149.746 625.574 26.6524 583.548C-109.939 536.978 -107.195 121.345 -410.123 79.6086C-602.867 53.0215 -742.764 472.166 -796.386 542.956M702.437 596.286C607.316 615.422 403.199 303.088 290.305 279.144C177.382 255.318 147.201 627.865 23.6255 587.357C-113.685 542.251 -109.23 116.098 -413.34 74.5865C-606.615 48.1258 -746.488 478.951 -797.185 549.045" stroke="url(#paint0_linear)" stroke-width="1.0031" stroke-miterlimit="10"/><defs><linearGradient id="paint0_linear" x1="-98.4014" y1="290.465" x2="641.099" y2="433.965" gradientUnits="userSpaceOnUse"><stop stop-color="#F2F2F2"/><stop offset="1" stop-color="#F2F2F2" stop-opacity="0"/></linearGradient></defs></svg>
