<svg xmlns="http://www.w3.org/2000/svg" xmlns:xlink="http://www.w3.org/1999/xlink"><symbol id="icon-align-left" viewBox="0 0 13 13"><path d="M7.875 1.0625C7.875 0.898438 7.71094 0.734375 7.54688 0.734375H0.328125C0.136719 0.734375 0 0.898438 0 1.0625V1.9375C0 2.12891 0.136719 2.26562 0.328125 2.26562H7.54688C7.71094 2.26562 7.875 2.12891 7.875 1.9375V1.0625ZM0.328125 5.76562H11.9219C12.0859 5.76562 12.25 5.62891 12.25 5.4375V4.5625C12.25 4.39844 12.0859 4.23438 11.9219 4.23438H0.328125C0.136719 4.23438 0 4.39844 0 4.5625V5.4375C0 5.62891 0.136719 5.76562 0.328125 5.76562ZM0.328125 12.7656H11.9219C12.0859 12.7656 12.25 12.6289 12.25 12.4375V11.5625C12.25 11.3984 12.0859 11.2344 11.9219 11.2344H0.328125C0.136719 11.2344 0 11.3984 0 11.5625V12.4375C0 12.6289 0.136719 12.7656 0.328125 12.7656ZM7.54688 7.73438H0.328125C0.136719 7.73438 0 7.89844 0 8.0625V8.9375C0 9.12891 0.136719 9.26562 0.328125 9.26562H7.54688C7.71094 9.26562 7.875 9.12891 7.875 8.9375V8.0625C7.875 7.89844 7.71094 7.73438 7.54688 7.73438Z"/></symbol><symbol id="icon-best" viewBox="0 0 44 60"><path d="M42.6738 18.8212L39.8567 15.4036C39.4699 14.9344 39.2346 14.3667 39.177 13.762L38.7522 9.35333C38.5315 7.06269 36.7087 5.23988 34.4181 5.01924L30.0094 4.5949C29.4047 4.53676 28.837 4.30147 28.3678 3.91512L24.9502 1.0976C23.1745 -0.365866 20.5969 -0.365866 18.8212 1.0976L15.4036 3.91512C14.9348 4.30147 14.3672 4.53676 13.762 4.5949L9.35333 5.01924C7.06269 5.23988 5.24034 7.06269 5.01924 9.35333L4.5949 13.762C4.53676 14.3667 4.30147 14.9344 3.91512 15.4036L1.0976 18.8212C-0.365866 20.5969 -0.365866 23.1745 1.0976 24.9502L3.91512 28.3678C4.30147 28.837 4.53676 29.4047 4.5949 30.0094L5.01924 34.4181C5.23988 36.7087 7.06269 38.5311 9.35333 38.7522L12.0482 39.0117L5.64546 54.3115C5.47197 54.728 5.55025 55.1968 5.85008 55.5346C6.14991 55.872 6.60539 56.0057 7.03843 55.8825L12.5934 54.3142C12.6176 54.3074 12.641 54.3179 12.652 54.3376L15.4338 59.3958C15.6407 59.7726 16.0275 59.9996 16.4532 59.9996C16.4734 59.9996 16.4935 59.9992 16.5141 59.9982C16.9641 59.9754 17.3532 59.7034 17.5312 59.2841L24.291 43.1297C24.5203 42.9979 24.741 42.8464 24.9506 42.6738L28.3683 39.8567C28.8009 39.4997 29.3186 39.274 29.8711 39.1953L35.9937 53.8249L31.661 52.6017C30.837 52.3697 29.9741 52.7308 29.5608 53.4802L27.3914 57.4247L24.5171 50.556C24.3272 50.1024 23.8062 49.889 23.3526 50.0786C22.8994 50.2681 22.6856 50.7895 22.8756 51.2426L26.2424 59.2887C26.4187 59.7034 26.8073 59.9754 27.2578 59.9982C27.2784 59.9992 27.2985 60.0001 27.3186 60.0001C27.7444 60.0001 28.1312 59.7726 28.3381 59.3958L31.1194 54.3385C31.1309 54.3179 31.1547 54.3083 31.178 54.3142L36.7321 55.8825C37.166 56.0052 37.6219 55.872 37.9213 55.5346C38.2212 55.1968 38.2994 54.7285 38.1255 54.3106L31.7232 39.0112L34.4181 38.7517C36.7087 38.5311 38.5315 36.7087 38.7522 34.4181L39.177 30.0089C39.2346 29.4042 39.4699 28.837 39.8567 28.3678L42.6738 24.9502C44.1377 23.1745 44.1377 20.5969 42.6738 18.8212ZM16.3804 57.4247L14.2106 53.4793C13.7977 52.7304 12.9339 52.3692 12.1104 52.6017L7.77817 53.8244L13.9003 39.1953C14.4533 39.274 14.971 39.4997 15.4036 39.8563L18.8212 42.6738C19.7093 43.4058 20.7974 43.7715 21.8859 43.7715C21.956 43.7715 22.0255 43.7697 22.0956 43.7665L16.3804 57.4247ZM41.301 23.8186L38.4839 27.2362C37.8705 27.9797 37.4979 28.8796 37.4054 29.8386L36.9811 34.2473C36.8419 35.692 35.6925 36.8415 34.2478 36.9806L30.3751 37.3537C30.36 37.3546 30.3444 37.356 30.3293 37.3583L29.8391 37.4054C28.8796 37.4979 27.9797 37.8705 27.2362 38.4835L23.8186 41.3005C22.6989 42.2238 21.0729 42.2238 19.9533 41.3005L16.5356 38.4835C15.7922 37.8705 14.8922 37.4974 13.9328 37.4054L13.4402 37.3578C13.4265 37.356 13.4132 37.3551 13.3995 37.3542L9.52407 36.9806C8.07938 36.8415 6.92994 35.692 6.79078 34.2473L6.36643 29.8391C6.27397 28.8796 5.90135 27.9797 5.28795 27.2362L2.47088 23.8186C1.54758 22.6985 1.54758 21.0725 2.47088 19.9528L5.28795 16.5352C5.90135 15.7917 6.27397 14.8918 6.36643 13.9323L6.79078 9.52362C6.92994 8.07892 8.07938 6.92948 9.52407 6.79032L13.9328 6.36598C14.8922 6.27351 15.7922 5.90089 16.5356 5.28795L19.9533 2.47088C20.5131 2.00946 21.1997 1.77829 21.8859 1.77829C22.5721 1.77829 23.2588 2.009 23.8186 2.47088L27.2362 5.28795C27.9797 5.90089 28.8796 6.27397 29.8391 6.36598L34.2478 6.79032C35.6925 6.92948 36.8419 8.07892 36.9811 9.52362L37.4054 13.9323C37.4979 14.8918 37.8705 15.7917 38.4839 16.5352L41.301 19.9528C42.2238 21.0729 42.2238 22.6985 41.301 23.8186Z"/><path d="M21.8858 7.98657C21.2916 7.98657 20.6938 8.02411 20.1079 8.09918C19.6208 8.16144 19.2761 8.6073 19.3384 9.09435C19.4006 9.58187 19.847 9.92611 20.3336 9.86431C20.8444 9.79885 21.3667 9.76589 21.8858 9.76589C28.5687 9.76589 34.0055 15.2027 34.0055 21.8856C34.0055 28.5684 28.5682 34.0048 21.8858 34.0048C15.203 34.0048 9.76613 28.568 9.76613 21.8851C9.76613 17.1185 12.5768 12.7766 16.9264 10.8233C17.3746 10.6224 17.5751 10.0955 17.3737 9.64733C17.1723 9.19872 16.6454 8.99868 16.1977 9.2001C11.2095 11.4399 7.98682 16.419 7.98682 21.8851C7.98682 29.5494 14.222 35.7841 21.8858 35.7841C29.5497 35.7841 35.7848 29.5494 35.7848 21.8851C35.7848 14.2213 29.5497 7.98657 21.8858 7.98657Z"/><path d="M13.0496 20.855C11.989 21.9156 11.989 23.6418 13.0496 24.7025L16.9356 28.5889C17.4497 29.1025 18.1326 29.3854 18.8596 29.3854C19.586 29.3854 20.2695 29.1025 20.7835 28.5889L29.2664 20.1056C30.327 19.0445 30.327 17.3187 29.2664 16.2576C28.2057 15.197 26.4795 15.197 25.4184 16.2576L18.8596 22.8169L16.8971 20.855C15.8365 19.7943 14.1103 19.7943 13.0496 20.855ZM18.8596 24.9652C19.0953 24.9652 19.3214 24.8714 19.4885 24.7043L26.6768 17.516C27.0439 17.1489 27.6408 17.1494 28.008 17.516C28.3751 17.8832 28.3751 18.4805 28.008 18.8472L19.5252 27.3305C19.3475 27.5081 19.1109 27.6061 18.8596 27.6061C18.6078 27.6061 18.3716 27.5081 18.194 27.3305L14.3076 23.4445C13.9409 23.0774 13.9409 22.48 14.3076 22.1133C14.4911 21.9298 14.7324 21.8378 14.9736 21.8378C15.2144 21.8378 15.4556 21.9298 15.6387 22.1129L18.2301 24.7043C18.3972 24.8714 18.6234 24.9652 18.8596 24.9652Z"/></symbol><symbol id="icon-calendar-plus" viewBox="0 0 13 15"><path d="M9.1875 8.73438C9.1875 8.57031 9.02344 8.40625 8.85938 8.40625H6.78125V6.32812C6.78125 6.16406 6.61719 6 6.45312 6H5.79688C5.60547 6 5.46875 6.16406 5.46875 6.32812V8.40625H3.39062C3.19922 8.40625 3.0625 8.57031 3.0625 8.73438V9.39062C3.0625 9.58203 3.19922 9.71875 3.39062 9.71875H5.46875V11.7969C5.46875 11.9883 5.60547 12.125 5.79688 12.125H6.45312C6.61719 12.125 6.78125 11.9883 6.78125 11.7969V9.71875H8.85938C9.02344 9.71875 9.1875 9.58203 9.1875 9.39062V8.73438ZM12.25 3.8125C12.25 3.10156 11.6484 2.5 10.9375 2.5H9.625V1.07812C9.625 0.914062 9.46094 0.75 9.29688 0.75H8.20312C8.01172 0.75 7.875 0.914062 7.875 1.07812V2.5H4.375V1.07812C4.375 0.914062 4.21094 0.75 4.04688 0.75H2.95312C2.76172 0.75 2.625 0.914062 2.625 1.07812V2.5H1.3125C0.574219 2.5 0 3.10156 0 3.8125V13.4375C0 14.1758 0.574219 14.75 1.3125 14.75H10.9375C11.6484 14.75 12.25 14.1758 12.25 13.4375V3.8125ZM10.9375 13.2734C10.9375 13.3828 10.8555 13.4375 10.7734 13.4375H1.47656C1.36719 13.4375 1.3125 13.3828 1.3125 13.2734V5.125H10.9375V13.2734Z"/></symbol><symbol id="icon-clock" viewBox="0 0 14 15"><path d="M7 0.96875C3.25391 0.96875 0.21875 4.00391 0.21875 7.75C0.21875 11.4961 3.25391 14.5312 7 14.5312C10.7461 14.5312 13.7812 11.4961 13.7812 7.75C13.7812 4.00391 10.7461 0.96875 7 0.96875ZM7 13.2188C3.96484 13.2188 1.53125 10.7852 1.53125 7.75C1.53125 4.74219 3.96484 2.28125 7 2.28125C10.0078 2.28125 12.4688 4.74219 12.4688 7.75C12.4688 10.7852 10.0078 13.2188 7 13.2188ZM8.66797 10.375C8.83203 10.4844 9.02344 10.457 9.13281 10.293L9.65234 9.60938C9.76172 9.44531 9.73438 9.25391 9.57031 9.14453L7.76562 7.80469V3.92188C7.76562 3.75781 7.60156 3.59375 7.4375 3.59375H6.5625C6.37109 3.59375 6.23438 3.75781 6.23438 3.92188V8.43359C6.23438 8.51562 6.26172 8.625 6.34375 8.67969L8.66797 10.375Z"/></symbol><symbol id="icon-email" viewBox="0 0 14 15"><path d="M13.5078 5.26172C13.3711 5.15234 10.4453 2.80078 9.81641 2.28125C9.21484 1.81641 8.17578 0.75 7 0.75C5.79688 0.75 4.78516 1.78906 4.15625 2.28125C3.5 2.82812 0.574219 5.17969 0.464844 5.26172C0.191406 5.48047 0 5.91797 0 6.27344V13.4375C0 14.1758 0.574219 14.75 1.3125 14.75H12.6875C13.3984 14.75 14 14.1758 14 13.4375V6.27344C14 5.94531 13.7812 5.48047 13.5078 5.26172ZM12.6875 13.2734C12.6875 13.3828 12.6055 13.4375 12.5234 13.4375H1.47656C1.36719 13.4375 1.3125 13.3828 1.3125 13.2734V6.35547C1.3125 6.30078 1.3125 6.24609 1.36719 6.21875C1.80469 5.86328 4.34766 3.83984 4.97656 3.32031C5.46875 2.91016 6.34375 2.0625 7 2.0625C7.62891 2.0625 8.50391 2.9375 8.99609 3.32031C9.625 3.83984 12.168 5.86328 12.6055 6.21875C12.6602 6.24609 12.6875 6.30078 12.6875 6.35547V13.2734ZM11.8125 8.16016L11.375 7.64062C11.2656 7.50391 11.0742 7.47656 10.9102 7.61328C10.1445 8.24219 9.32422 8.89844 8.99609 9.14453C8.50391 9.55469 7.62891 10.375 7 10.375C6.34375 10.375 5.46875 9.52734 4.97656 9.14453C4.64844 8.89844 3.82812 8.24219 3.0625 7.61328C2.89844 7.47656 2.70703 7.50391 2.59766 7.64062L2.16016 8.16016C2.05078 8.29688 2.07812 8.51562 2.21484 8.625C3.00781 9.25391 3.85547 9.9375 4.15625 10.1836C4.75781 10.6484 5.79688 11.6875 7 11.6875C8.17578 11.6875 9.1875 10.6758 9.81641 10.1836C10.1172 9.91016 10.9648 9.25391 11.7578 8.625C11.8945 8.51562 11.9219 8.29688 11.8125 8.16016Z"/></symbol><symbol id="icon-logo" viewBox="0 0 31 33"><path fill-rule="evenodd" clip-rule="evenodd" d="M18.9307 1.44774C17.1178 0.501179 15.0967 0 13 0C9.53015 0 6.26736 1.37259 3.81254 3.86493C1.35798 6.35708 0.00399518 9.67138 0 13.2002C0.00247321 15.769 0.704484 18.179 2.14605 20.5682C3.39436 22.6369 5.01604 24.4419 6.73292 26.3529L6.73302 26.353C8.41651 28.2267 10.1572 30.1643 11.5474 32.3997C11.7798 32.7734 12.1845 33 12.6195 33H13.3805C13.8155 33 14.2202 32.7734 14.4526 32.3996C15.8428 30.1643 17.5835 28.2267 19.267 26.3529C19.6761 25.8976 20.0798 25.4483 20.4743 25H17.0477C15.6611 26.5459 14.2524 28.1466 13 29.9666C11.6433 27.995 10.1031 26.2807 8.60623 24.6146L8.60619 24.6146L8.60613 24.6145C5.35173 20.9922 2.54106 17.8638 2.53662 13.2004C2.54322 7.34327 7.23711 2.57812 13 2.57812C14.0535 2.57812 15.0714 2.73738 16.0313 3.03343C16.74 2.45497 17.5338 1.98647 18.3864 1.64543C18.5659 1.57363 18.7474 1.50772 18.9307 1.44774Z" fill="#292B2C"/><path d="M28.1875 4H20.0664C19.2957 4 18.5512 4.32101 18.0219 4.88116L14.069 8.82586C13.4182 9.34143 13 10.1384 13 11.0312V19.1875C13 20.7383 14.2617 22 15.8125 22H23.9336C24.7333 22 25.4562 21.6645 25.9688 21.1268C25.9724 21.1233 25.9761 21.1197 25.9798 21.1161L30.1783 16.9554L30.1819 16.9517C30.7095 16.4212 31 15.7169 31 14.9688V6.8125C31 5.26169 29.7383 4 28.1875 4ZM19.023 5.8688L19.0396 5.85168C19.3085 5.56445 19.6732 5.40625 20.0664 5.40625H28.1837L25.11 8.47673C24.7519 8.31118 24.3533 8.21875 23.9336 8.21875H16.6681L19.023 5.8688ZM29.5938 14.9688C29.5938 15.342 29.4492 15.6934 29.1865 15.9584L26.7461 18.3769V17.0781C26.7461 16.6898 26.4313 16.375 26.043 16.375C25.6546 16.375 25.3398 16.6898 25.3398 17.0781V19.1875C25.3398 19.9629 24.709 20.5938 23.9336 20.5938H15.8125C15.0371 20.5938 14.4062 19.9629 14.4062 19.1875V11.0312C14.4062 10.2558 15.0371 9.625 15.8125 9.625H23.9336C24.709 9.625 25.3398 10.2558 25.3398 11.0312V13.5625C25.3398 13.9508 25.6546 14.2656 26.043 14.2656C26.4313 14.2656 26.7461 13.9508 26.7461 13.5625V11.0312C26.7461 10.4113 26.5445 9.83759 26.2034 9.37219L29.4281 6.15089C29.5338 6.34819 29.5938 6.57347 29.5938 6.8125V14.9688Z" fill="#1567BA"/></symbol><symbol id="icon-map-marker" viewBox="0 0 11 15"><path d="M5.25 0.75C2.32422 0.75 0 3.12891 0 6C0 7.96875 0.628906 8.57031 4.12891 14.1484C4.64844 14.9688 5.82422 14.9688 6.34375 14.1484C9.84375 8.57031 10.5 7.96875 10.5 6C10.5 3.10156 8.12109 0.75 5.25 0.75ZM5.25 13.4375C1.75 7.85938 1.3125 7.50391 1.3125 6C1.3125 3.83984 3.0625 2.0625 5.25 2.0625C7.41016 2.0625 9.1875 3.83984 9.1875 6C9.1875 7.50391 8.75 7.80469 5.25 13.4375ZM3.0625 6C3.0625 7.23047 4.01953 8.1875 5.25 8.1875C6.45312 8.1875 7.4375 7.23047 7.4375 6C7.4375 4.79688 6.45312 3.8125 5.25 3.8125C4.01953 3.8125 3.0625 4.79688 3.0625 6Z"/></symbol><symbol id="icon-money" viewBox="0 0 60 44"><path d="M28.9803 13.2351C28.9803 13.7674 29.2004 14.5513 31.1031 15.2102C31.9113 15.49 34.3706 16.3417 34.3706 18.8351C34.3706 20.559 33.2203 22.0082 31.6755 22.3998V22.7723C31.6755 23.2526 31.3008 23.6418 30.8386 23.6418C30.3763 23.6418 30.0016 23.2526 30.0016 22.7723V22.3998C28.4567 22.0082 27.3064 20.559 27.3064 18.8351C27.3064 18.3548 27.6812 17.9656 28.1434 17.9656C28.6056 17.9656 28.9803 18.3548 28.9803 18.8351C28.9803 19.8998 29.8139 20.7657 30.8386 20.7657C31.8632 20.7657 32.6967 19.8997 32.6967 18.8351C32.6967 18.2219 32.4445 17.5078 30.5739 16.8601C28.4057 16.1091 27.3064 14.8896 27.3064 13.2351C27.3064 11.5114 28.4567 10.0622 30.0016 9.67054V9.29804C30.0016 8.81771 30.3763 8.42852 30.8386 8.42852C31.3008 8.42852 31.6755 8.81771 31.6755 9.29804V9.67054C33.2203 10.0622 34.3706 11.5114 34.3706 13.2351C34.3706 13.7154 33.9958 14.1046 33.5336 14.1046C33.0714 14.1046 32.6967 13.7154 32.6967 13.2351C32.6967 12.1706 31.8631 11.3046 30.8386 11.3046C29.814 11.3046 28.9803 12.1706 28.9803 13.2351ZM60 0.869517V31.2007C60 31.681 59.6253 32.0702 59.1631 32.0702H58.3229V37.0442C58.3229 37.2898 58.2229 37.524 58.0478 37.6888C57.8931 37.8342 57.6926 37.9137 57.486 37.9137C57.4585 37.9137 57.4309 37.9123 57.4032 37.9094L54.9687 37.6583V43.1305C54.9687 43.3933 54.8544 43.6419 54.6576 43.807C54.5074 43.933 54.3214 44 54.1318 44C54.0731 44 54.014 43.9935 53.9555 43.9805L0.670001 32.0528C0.66855 32.0525 0.667211 32.0523 0.66576 32.0519L0.660739 32.0508C0.648129 32.048 0.636077 32.044 0.62369 32.0407C0.614205 32.0381 0.604496 32.0359 0.595122 32.033C0.583628 32.0294 0.572469 32.025 0.561087 32.021C0.556958 32.0194 0.552717 32.0179 0.548588 32.0163C0.540219 32.0132 0.531738 32.0105 0.52348 32.007C0.521471 32.0062 0.519574 32.0053 0.517566 32.0045C0.507411 32.0001 0.497479 31.995 0.487547 31.9902C0.477057 31.9852 0.466456 31.9807 0.45619 31.9753C0.453623 31.9739 0.451168 31.9723 0.448601 31.9708C0.448267 31.9706 0.447932 31.9704 0.447486 31.9702C0.438 31.965 0.42885 31.9594 0.419587 31.9538C0.410325 31.9483 0.400951 31.9432 0.392024 31.9372C0.387784 31.9345 0.383766 31.9313 0.379526 31.9284C0.371379 31.923 0.363456 31.9171 0.355533 31.9114C0.34761 31.9056 0.339464 31.8999 0.331764 31.8938C0.326408 31.8896 0.321275 31.8851 0.31603 31.8807C0.308999 31.8749 0.302081 31.869 0.295273 31.8629C0.28869 31.857 0.281994 31.8512 0.275522 31.8452C0.269272 31.8394 0.263358 31.8331 0.257332 31.8271C0.251306 31.8211 0.24528 31.8153 0.239477 31.8091C0.234232 31.8035 0.229099 31.7978 0.223966 31.7921C0.217159 31.7844 0.210575 31.7764 0.203991 31.7684C0.198858 31.7623 0.193501 31.7565 0.188591 31.7502C0.184574 31.7451 0.180891 31.7398 0.176986 31.7346C0.17029 31.7257 0.163929 31.7165 0.157568 31.7074C0.153216 31.701 0.148418 31.6951 0.144177 31.6886C0.14083 31.6833 0.137928 31.6779 0.13458 31.6726C0.128554 31.6629 0.122863 31.6532 0.117172 31.6432C0.113155 31.6362 0.108803 31.6292 0.105008 31.6219C0.101549 31.6153 0.0983129 31.6087 0.0949651 31.6021C0.090613 31.5935 0.0864841 31.5848 0.0824668 31.576C0.0786726 31.5679 0.0749901 31.5596 0.0714191 31.5514C0.0680714 31.5436 0.0648352 31.5358 0.0617106 31.5279C0.0588092 31.5206 0.056131 31.5133 0.0534528 31.5058C0.0499934 31.4962 0.0468688 31.4866 0.0437442 31.4769C0.0408428 31.4681 0.0379414 31.4594 0.0353748 31.4503C0.0337009 31.4445 0.0321386 31.4387 0.0305763 31.4329C0.0274517 31.4215 0.0249967 31.4097 0.0224301 31.398C0.0203098 31.3886 0.0178548 31.3794 0.0160693 31.3699C0.0152882 31.3658 0.0146186 31.3616 0.0138375 31.3576C0.0112708 31.3428 0.00948535 31.3278 0.00769988 31.3127C0.00658395 31.3039 0.00502166 31.2953 0.00412892 31.2864C0.00390573 31.2842 0.00379414 31.2821 0.00357096 31.28C0.00133911 31.2539 0 31.2275 0 31.2007V0.869517C0 0.389196 0.374727 0 0.836943 0H59.1631C59.6253 0 60 0.389196 60 0.869517ZM50.478 30.3312C50.8744 26.0252 54.1815 22.5895 58.3261 22.1777V9.89244C54.1815 9.48063 50.8744 6.04488 50.478 1.73892H9.52196C9.12558 6.045 5.81854 9.48075 1.67389 9.89244V22.1777C5.81854 22.5895 9.12558 26.0252 9.52196 30.3312H50.478ZM7.83769 30.3312C7.45493 26.9853 4.89444 24.3251 1.67389 23.9275V30.3312H7.83769ZM7.83769 1.73903H1.67389V8.14274C4.89444 7.74496 7.45493 5.08494 7.83769 1.73903ZM58.3261 1.73903H52.1623C52.5451 5.08494 55.1056 7.74508 58.3261 8.14274V1.73903ZM53.2947 37.4857L15.4458 33.5813L53.2949 42.0537V37.4857H53.2947ZM56.649 32.0702H17.7368L56.649 36.0841V32.0702ZM58.3261 30.3312V23.9275C55.1056 24.3251 52.5451 26.9853 52.1623 30.3312H57.4838C57.4845 30.3312 57.4853 30.3311 57.4859 30.3311C57.4866 30.3311 57.4874 30.3312 57.4881 30.3312H58.3261ZM38.7448 9.20865C38.3666 9.48492 38.2756 10.0273 38.5415 10.4201C39.6575 12.0695 40.2475 14.0111 40.2475 16.0351C40.2475 21.425 36.0266 25.8102 30.8386 25.8102C25.6504 25.8102 21.4295 21.425 21.4295 16.0351C21.4295 10.6451 25.6504 6.25994 30.8386 6.25994C32.7868 6.25994 34.6559 6.8729 36.2435 8.0326C36.6217 8.30911 37.1438 8.2145 37.4096 7.82148C37.6754 7.42869 37.5844 6.88634 37.2064 6.61007C35.3353 5.24342 33.1333 4.52091 30.8386 4.52091C24.7274 4.52091 19.7556 9.68619 19.7556 16.0351C19.7556 22.3839 24.7274 27.5492 30.8386 27.5492C36.9497 27.5492 41.9214 22.3839 41.9214 16.0351C41.9214 13.6511 41.2261 11.3637 39.9107 9.41989C39.6451 9.0271 39.123 8.93272 38.7448 9.20865Z"/></symbol><symbol id="icon-people" viewBox="0 0 60 46"><path d="M21.4863 37.782C21.0018 37.782 20.609 38.1746 20.609 38.6592V43.2792C20.609 43.7638 21.0018 44.1565 21.4863 44.1565C21.9707 44.1565 22.3635 43.7638 22.3635 43.2792V38.6592C22.3635 38.1746 21.9707 37.782 21.4863 37.782Z"/><path d="M38.4671 37.782C37.9826 37.782 37.5898 38.1746 37.5898 38.6592V43.2792C37.5898 43.7638 37.9826 44.1565 38.4671 44.1565C38.9516 44.1565 39.3444 43.7638 39.3444 43.2792V38.6592C39.3444 38.1746 38.9516 37.782 38.4671 37.782Z"/><path d="M55.5129 34.7193L52.5755 33.5409V32.7907C53.1522 32.4702 53.6699 32.0532 54.1056 31.561C55.9636 31.7803 57.7414 31.0386 58.8922 29.5464C60.0824 28.0034 60.33 26.0149 59.5547 24.227L58.2357 21.1856C58.1365 20.9571 58.0683 20.716 58.0328 20.4694C57.7485 18.4939 56.7612 16.686 55.2527 15.379C53.7441 14.0719 51.8142 13.3522 49.8183 13.3522C47.8223 13.3522 45.8924 14.0719 44.3838 15.379C42.8754 16.686 41.888 18.4937 41.6038 20.4694C41.5682 20.7161 41.5 20.9572 41.4008 21.1856L40.0819 24.227C39.3066 26.0147 39.5543 28.0033 40.7444 29.5464C41.7625 30.8664 43.2709 31.602 44.8915 31.6019C45.1005 31.6019 45.3116 31.5895 45.5238 31.5646C45.9192 32.0129 46.3828 32.399 46.8992 32.7064V33.5408L43.9619 34.7193C43.7705 34.7962 43.5836 34.8831 43.4013 34.9792C42.833 33.9339 42.0216 33.0198 41.0119 32.3254L37.186 29.6942C37.2081 29.211 37.0149 28.7243 36.6213 28.3903L35.0667 27.0712C34.9193 26.946 34.7537 26.8515 34.5787 26.7873V25.0113C36.222 23.8194 37.3872 22.0085 37.7288 19.923H37.8223C39.495 19.923 40.8558 18.5622 40.8558 16.8897C40.8558 16.1756 40.6071 15.5187 40.1927 14.9999L40.8197 10.5422C41.2717 7.32863 39.0281 4.32597 35.8182 3.84851L35.6934 3.83002C34.667 2.15482 33.0773 0.946196 31.1699 0.40534L30.9403 0.340189C28.4115 -0.37682 25.7065 0.0511628 23.519 1.51466C23.1163 1.78403 23.0082 2.32887 23.2776 2.73147C23.5469 3.13407 24.0917 3.24226 24.4945 2.97277C26.2538 1.79585 28.4287 1.45161 30.4617 2.02814L30.6913 2.09329C32.2873 2.54584 33.5975 3.60053 34.3805 5.06309C34.9191 6.06936 35.1569 7.17599 35.0882 8.28297L34.4936 7.77182C33.95 7.30465 33.1508 7.29225 32.5933 7.74258L31.8133 8.37268H27.3604C24.471 8.37268 22.1202 10.7235 22.1202 13.6129V13.8566C21.8875 13.8574 21.6613 13.8852 21.4438 13.9359C20.452 11.1439 20.7317 7.99815 22.2223 5.42499C22.4651 5.00566 22.3222 4.46902 21.903 4.22608C21.4838 3.98337 20.9471 4.12618 20.7042 4.54539C18.9015 7.65743 18.6092 11.4835 19.9052 14.8321C19.4047 15.3732 19.0981 16.0961 19.0981 16.8897C19.0981 18.5622 20.4589 19.923 22.1315 19.923H22.2251C22.5666 22.0085 23.7319 23.8194 25.3751 25.0113V26.7873C25.2002 26.8514 25.0345 26.946 24.8873 27.0711L23.3325 28.3903C22.9389 28.7243 22.7457 29.2111 22.7678 29.6942L18.9419 32.3254C18.1645 32.86 17.5043 33.5249 16.9822 34.2796C16.6438 34.0927 16.2911 33.9329 15.9259 33.8036L13.3283 32.8835V32.1921C14.6515 31.3746 15.6026 30.012 15.8676 28.4198H16.2601C17.7993 28.4198 19.0514 27.1677 19.0514 25.6286C19.0514 24.9376 18.7985 24.305 18.3811 23.817L18.5377 21.963C18.7554 19.2931 17.5904 16.7605 15.4212 15.1888C13.2521 13.6169 10.4826 13.2984 8.01322 14.3366L6.26468 15.0717C3.55724 15.6695 1.74763 18.2638 2.13421 21.0195L2.52535 23.808C2.10333 24.2972 1.84729 24.9334 1.84729 25.6286C1.84729 27.1677 3.09942 28.4198 4.6386 28.4198H5.03114C5.27888 29.9087 6.12701 31.1964 7.31797 32.0258V32.8835L4.72036 33.8035C4.35659 33.9324 3.9982 34.0938 3.65525 34.2835C3.23125 34.5179 3.07755 35.0516 3.31195 35.4756C3.47197 35.7651 3.77152 35.9285 4.08043 35.9285C4.22395 35.9285 4.36957 35.8932 4.50408 35.8188C4.76293 35.6756 5.03278 35.554 5.3059 35.4573L7.5505 34.6622C8.00503 35.7456 9.07645 36.5085 10.323 36.5085C11.5695 36.5085 12.6409 35.7456 13.0954 34.6622L15.3401 35.4574C15.6224 35.5573 15.8949 35.6816 16.1561 35.8276C15.8077 36.7109 15.6209 37.6628 15.6209 38.6396V43.8439C15.6209 44.3285 16.0137 44.7212 16.4981 44.7212C16.9826 44.7212 17.3754 44.3285 17.3754 43.8439V38.6396C17.3754 36.6937 18.3327 34.8737 19.9359 33.7711L23.5895 31.2584L25.087 33.2606C25.4089 33.6911 25.9137 33.9335 26.4343 33.9335C26.5964 33.9335 26.7601 33.91 26.9203 33.8613L29.0995 33.198V44.2112C29.0995 44.6958 29.4923 45.0885 29.9767 45.0885C30.4612 45.0885 30.854 44.6958 30.854 44.2112V33.198L33.0335 33.8614C33.1936 33.91 33.3571 33.9335 33.5192 33.9335C34.0397 33.9335 34.5446 33.6909 34.8665 33.2606L36.3639 31.2584L40.0175 33.7711C41.6208 34.8737 42.578 36.6937 42.578 38.6396V43.8439C42.578 44.3285 42.9708 44.7212 43.4552 44.7212C43.9397 44.7212 44.3325 44.3285 44.3325 43.8439V38.6396C44.3325 37.9487 44.2388 37.2701 44.061 36.6193C44.2388 36.5156 44.4237 36.4246 44.615 36.3479L47.1622 35.3258C47.6134 36.2971 48.5977 36.9726 49.7373 36.9726C50.8769 36.9726 51.8612 36.2972 52.3125 35.3259L54.8598 36.3479C56.4705 36.994 57.5112 38.5329 57.5112 40.2684V41.7533C57.5112 42.2379 57.904 42.6305 58.3885 42.6305C58.8729 42.6305 59.2657 42.2379 59.2657 41.7533V40.2684C59.2656 37.8121 57.7925 35.634 55.5129 34.7193ZM20.8522 16.8895C20.8522 16.1882 21.4199 15.6174 22.1198 15.6112V18.1676C21.42 18.1616 20.8522 17.5909 20.8522 16.8895ZM16.2599 26.6652H15.9431V24.5916H16.2599C16.8316 24.5916 17.2967 25.0568 17.2967 25.6284C17.2967 26.2 16.8316 26.6652 16.2599 26.6652ZM3.60157 25.6285C3.60157 25.0568 4.06663 24.5917 4.63836 24.5917H4.95511V26.6653H4.63836C4.06674 26.6652 3.60157 26.2001 3.60157 25.6285ZM6.02057 20.133C5.43865 20.9366 5.08682 21.8619 4.98611 22.8371H4.63836C4.47742 22.8371 4.31998 22.8516 4.1664 22.8778L3.87153 20.7755C3.60928 18.9064 4.85288 17.1479 6.7026 16.7721C6.75921 16.7606 6.81466 16.7436 6.86799 16.7211L8.69315 15.9537C10.5929 15.1549 12.7231 15.4002 14.3917 16.6092C16.0602 17.8184 16.9564 19.7663 16.7892 21.8175L16.7 22.8719C16.5566 22.8491 16.4097 22.837 16.2599 22.837H15.9354C15.8599 22.0932 15.23 21.5107 14.4665 21.5107H12.3003C10.7565 21.5107 9.22874 20.9968 7.99872 20.064L7.75051 19.8758C7.48991 19.6782 7.15468 19.5923 6.8315 19.6405C6.50797 19.6887 6.21239 19.8682 6.02057 20.133ZM7.4416 21.1621C7.44137 21.1625 7.44125 21.1627 7.44113 21.1629C7.44125 21.1627 7.44148 21.1625 7.4416 21.1621ZM6.70974 23.421C6.70974 22.7866 6.86261 22.1734 7.15538 21.6213C8.64941 22.6833 10.4658 23.2654 12.3004 23.2654H14.1886V27.5153C14.1886 29.5773 12.5111 31.2549 10.4492 31.2549C8.38728 31.2549 6.70974 29.5773 6.70974 27.5153V23.421ZM10.3229 34.7539C9.63322 34.7539 9.07224 34.1929 9.07224 33.5033V32.8345C9.51239 32.9486 9.97383 33.0094 10.4492 33.0094C10.8345 33.0094 11.2104 32.9691 11.5736 32.8932V33.5033C11.5736 34.1929 11.0125 34.7539 10.3229 34.7539ZM37.8333 18.1676V15.6112C38.5333 15.6173 39.1009 16.1882 39.1009 16.8895C39.1009 17.5909 38.5333 18.1616 37.8333 18.1676ZM39.0819 10.2975L38.5682 13.9492C38.3329 13.8894 38.0867 13.8573 37.8332 13.8563V13.7853C37.8332 12.371 37.3957 11.0105 36.6035 9.87372C36.9489 8.54334 36.9368 7.17365 36.5792 5.8718C38.2737 6.59501 39.3498 8.39362 39.0819 10.2975ZM23.8745 18.6491V13.6127C23.8745 11.6906 25.4382 10.127 27.3602 10.127H32.1231C32.3237 10.127 32.5182 10.0582 32.6742 9.93221L33.5203 9.24877L34.3062 9.92425C35.4327 10.8925 36.0787 12.3 36.0787 13.7853V18.649C36.0787 22.0138 33.3413 24.7511 29.9765 24.7511C26.6117 24.7511 23.8745 22.0138 23.8745 18.6491ZM29.9766 26.5058C30.9808 26.5058 31.9404 26.3144 32.824 25.9696V27.0936L29.9766 28.4898L27.1293 27.0936V25.9696C28.0128 26.3143 28.9725 26.5058 29.9766 26.5058ZM26.4601 32.1671L24.5704 29.6405L25.9503 28.4695L29.0993 30.0135V31.3639L26.4601 32.1671ZM33.493 32.1671L30.8539 31.364V30.0136L34.0029 28.4696L35.3827 29.6406L33.493 32.1671ZM42.1335 28.4749C41.3393 27.4451 41.174 26.1183 41.6915 24.9252L43.0104 21.8838C43.1716 21.5123 43.2826 21.1206 43.3403 20.7194C43.8008 17.5198 46.5856 15.1068 49.8183 15.1068C53.0509 15.1068 55.8358 17.5198 56.2961 20.7194C56.3538 21.1205 56.4648 21.5122 56.626 21.8838L57.9449 24.9252C58.4623 26.1181 58.2971 27.4451 57.5029 28.4749C56.9148 29.2373 56.0814 29.7067 55.1667 29.8193C55.3556 29.3285 55.4788 28.8053 55.524 28.26C55.564 27.7772 55.205 27.3533 54.7222 27.3133C54.2399 27.2741 53.8156 27.6324 53.7755 28.1151C53.6065 30.1558 51.8682 31.7544 49.8183 31.7544C47.6278 31.7544 45.8459 29.9726 45.8459 27.7821V23.5737C45.8459 22.6406 46.1206 21.7229 46.6265 20.9439C47.7616 21.8103 49.1609 22.3059 50.5902 22.3437L53.7906 22.4282V24.4489C53.7906 24.9335 54.1834 25.3261 54.6678 25.3261C55.1523 25.3261 55.5451 24.9335 55.5451 24.4489V22.1906C55.5451 21.3655 54.899 20.7022 54.0742 20.6806L50.6364 20.59C49.5233 20.5606 48.4347 20.1574 47.5711 19.455L47.3444 19.2705C47.077 19.0531 46.7412 18.9534 46.3984 18.9903C46.0558 19.0269 45.7485 19.1953 45.5334 19.4642C44.6034 20.6262 44.0911 22.0857 44.0911 23.5741V27.7825C44.0911 28.4991 44.2245 29.1849 44.4661 29.8177C43.553 29.7042 42.7208 29.2364 42.1335 28.4749ZM49.7372 35.218C49.1396 35.218 48.6534 34.7318 48.6534 34.1341V33.3896C49.0297 33.4677 49.4192 33.5091 49.8181 33.5091C50.1595 33.5091 50.4943 33.477 50.8209 33.4181V34.1343C50.821 34.7318 50.3348 35.218 49.7372 35.218Z"/><path d="M1.88025 36.989C1.4442 36.7774 0.919597 36.9601 0.708354 37.3961C0.238379 38.3671 0 39.4055 0 40.4827V43.2791C0 43.7637 0.392776 44.1564 0.877255 44.1564C1.36173 44.1564 1.75451 43.7637 1.75451 43.2791V40.4827C1.75451 39.6726 1.93382 38.8915 2.28765 38.1608C2.49877 37.7247 2.31642 37.2 1.88025 36.989Z"/></symbol><symbol id="icon-phone" viewBox="0 0 15 15"><path d="M14.0156 1.37891L11.4453 0.804688C10.8438 0.667969 10.2422 0.96875 10.0234 1.51562L8.82031 4.30469C8.60156 4.79688 8.73828 5.39844 9.17578 5.75391L10.2695 6.65625C9.50391 8.07812 8.30078 9.25391 6.87891 10.0469L5.97656 8.95312C5.62109 8.51562 5.01953 8.37891 4.52734 8.59766L1.73828 9.77344C1.19141 10.0195 0.890625 10.6211 1.02734 11.2227L1.60156 13.793C1.73828 14.3672 2.25781 14.75 2.83203 14.75C9.53125 14.75 15 9.33594 15 2.60938C15 2.03516 14.5898 1.51562 14.0156 1.37891ZM2.88672 13.4375L2.3125 10.9766L4.99219 9.82812L6.52344 11.6875C9.23047 10.4023 10.625 9.00781 11.9102 6.30078L10.0508 4.76953L11.1992 2.08984L13.6875 2.66406C13.6602 8.59766 8.82031 13.4102 2.88672 13.4375Z"/></symbol><symbol id="icon-tasks" viewBox="0 0 15 13"><path d="M15 3.25V2.375C15 2.21094 14.8359 2.04688 14.6719 2.04688H6.57812C6.38672 2.04688 6.25 2.21094 6.25 2.40234V3.25C6.25 3.44141 6.38672 3.57812 6.57812 3.57812H14.6719C14.8359 3.57812 15 3.44141 15 3.25ZM15 7.625V6.75C15 6.58594 14.8359 6.42188 14.6719 6.42188H6.57812C6.38672 6.42188 6.25 6.58594 6.25 6.75V7.625C6.25 7.81641 6.38672 7.95312 6.57812 7.95312H14.6719C14.8359 7.95312 15 7.81641 15 7.625ZM15 12V11.125C15 10.9609 14.8359 10.7969 14.6719 10.7969H6.57812C6.38672 10.7969 6.25 10.9609 6.25 11.125V12C6.25 12.1914 6.38672 12.3281 6.57812 12.3281H14.6719C14.8359 12.3281 15 12.1914 15 12ZM5.42969 1.52734C5.53906 1.41797 5.53906 1.19922 5.42969 1.0625L5.07422 0.734375C4.96484 0.597656 4.74609 0.597656 4.60938 0.734375L2.66797 2.67578L1.875 1.88281C1.76562 1.74609 1.54688 1.74609 1.41016 1.88281L1.08203 2.21094C0.945312 2.34766 0.945312 2.53906 1.08203 2.67578L2.09375 3.71484L2.44922 4.04297C2.55859 4.17969 2.77734 4.17969 2.91406 4.04297L5.42969 1.52734ZM5.42969 5.90234C5.53906 5.76562 5.53906 5.57422 5.42969 5.4375L5.07422 5.10938C4.96484 4.97266 4.74609 4.97266 4.60938 5.10938L2.66797 7.05078L1.875 6.25781C1.76562 6.12109 1.54688 6.12109 1.41016 6.25781L1.08203 6.58594C0.945312 6.72266 0.945312 6.91406 1.08203 7.05078L2.09375 8.08984L2.44922 8.41797C2.55859 8.55469 2.77734 8.55469 2.91406 8.41797L5.42969 5.90234ZM2.75 10.25C2.01172 10.25 1.4375 10.8516 1.4375 11.5625C1.4375 12.3008 2.01172 12.875 2.75 12.875C3.46094 12.875 4.0625 12.3008 4.0625 11.5625C4.0625 10.8516 3.46094 10.25 2.75 10.25Z"/></symbol><symbol id="icon-user" viewBox="0 0 14 15"><path d="M6.78125 3.59375C5.33203 3.59375 4.15625 4.76953 4.15625 6.21875C4.15625 7.66797 5.33203 8.84375 6.78125 8.84375C8.23047 8.84375 9.40625 7.66797 9.40625 6.21875C9.40625 4.76953 8.23047 3.59375 6.78125 3.59375ZM6.78125 7.53125C6.04297 7.53125 5.46875 6.95703 5.46875 6.21875C5.46875 5.50781 6.04297 4.90625 6.78125 4.90625C7.49219 4.90625 8.09375 5.50781 8.09375 6.21875C8.09375 6.95703 7.49219 7.53125 6.78125 7.53125ZM6.78125 0.96875C3.03516 0.96875 0 4.00391 0 7.75C0 11.4961 3.03516 14.5312 6.78125 14.5312C10.5273 14.5312 13.5625 11.4961 13.5625 7.75C13.5625 4.00391 10.5273 0.96875 6.78125 0.96875ZM6.78125 13.2188C5.41406 13.2188 4.15625 12.7266 3.19922 11.9062C3.60938 11.2773 4.32031 10.8398 5.11328 10.8398C5.6875 11.0039 6.23438 11.0859 6.78125 11.0859C7.30078 11.0859 7.84766 11.0039 8.42188 10.8398C9.21484 10.8672 9.92578 11.2773 10.3359 11.9062C9.37891 12.7266 8.12109 13.2188 6.78125 13.2188ZM11.2109 10.9219C10.5547 10.0742 9.51562 9.5 8.33984 9.5C8.06641 9.5 7.62891 9.77344 6.78125 9.77344C5.90625 9.77344 5.46875 9.5 5.19531 9.5C4.01953 9.5 2.98047 10.0742 2.32422 10.9219C1.66797 10.0469 1.3125 8.95312 1.3125 7.75C1.3125 4.74219 3.74609 2.28125 6.78125 2.28125C9.78906 2.28125 12.25 4.74219 12.25 7.75C12.25 8.95312 11.8672 10.0469 11.2109 10.9219Z"/></symbol></svg>