<svg xmlns="http://www.w3.org/2000/svg" xmlns:xlink="http://www.w3.org/1999/xlink"><symbol id="icon-logo" viewBox="0 0 31 33"><path fill-rule="evenodd" clip-rule="evenodd" d="M18.9307 1.44774C17.1178 0.501179 15.0967 0 13 0C9.53015 0 6.26736 1.37259 3.81254 3.86493C1.35798 6.35708 0.00399518 9.67138 0 13.2002C0.00247321 15.769 0.704484 18.179 2.14605 20.5682C3.39436 22.6369 5.01604 24.4419 6.73292 26.3529L6.73302 26.353C8.41651 28.2267 10.1572 30.1643 11.5474 32.3997C11.7798 32.7734 12.1845 33 12.6195 33H13.3805C13.8155 33 14.2202 32.7734 14.4526 32.3996C15.8428 30.1643 17.5835 28.2267 19.267 26.3529C19.6761 25.8976 20.0798 25.4483 20.4743 25H17.0477C15.6611 26.5459 14.2524 28.1466 13 29.9666C11.6433 27.995 10.1031 26.2807 8.60623 24.6146L8.60619 24.6146L8.60613 24.6145C5.35173 20.9922 2.54106 17.8638 2.53662 13.2004C2.54322 7.34327 7.23711 2.57812 13 2.57812C14.0535 2.57812 15.0714 2.73738 16.0313 3.03343C16.74 2.45497 17.5338 1.98647 18.3864 1.64543C18.5659 1.57363 18.7474 1.50772 18.9307 1.44774Z" fill="#292B2C"/><path d="M28.1875 4H20.0664C19.2957 4 18.5512 4.32101 18.0219 4.88116L14.069 8.82586C13.4182 9.34143 13 10.1384 13 11.0312V19.1875C13 20.7383 14.2617 22 15.8125 22H23.9336C24.7333 22 25.4562 21.6645 25.9688 21.1268C25.9724 21.1233 25.9761 21.1197 25.9798 21.1161L30.1783 16.9554L30.1819 16.9517C30.7095 16.4212 31 15.7169 31 14.9688V6.8125C31 5.26169 29.7383 4 28.1875 4ZM19.023 5.8688L19.0396 5.85168C19.3085 5.56445 19.6732 5.40625 20.0664 5.40625H28.1837L25.11 8.47673C24.7519 8.31118 24.3533 8.21875 23.9336 8.21875H16.6681L19.023 5.8688ZM29.5938 14.9688C29.5938 15.342 29.4492 15.6934 29.1865 15.9584L26.7461 18.3769V17.0781C26.7461 16.6898 26.4313 16.375 26.043 16.375C25.6546 16.375 25.3398 16.6898 25.3398 17.0781V19.1875C25.3398 19.9629 24.709 20.5938 23.9336 20.5938H15.8125C15.0371 20.5938 14.4062 19.9629 14.4062 19.1875V11.0312C14.4062 10.2558 15.0371 9.625 15.8125 9.625H23.9336C24.709 9.625 25.3398 10.2558 25.3398 11.0312V13.5625C25.3398 13.9508 25.6546 14.2656 26.043 14.2656C26.4313 14.2656 26.7461 13.9508 26.7461 13.5625V11.0312C26.7461 10.4113 26.5445 9.83759 26.2034 9.37219L29.4281 6.15089C29.5338 6.34819 29.5938 6.57347 29.5938 6.8125V14.9688Z" fill="#1567BA"/></symbol></svg>