<svg xmlns="http://www.w3.org/2000/svg" viewBox="0 0 200 200" width="50" height="50"><rect fill="none" width="200" height="200"/><polygon points="13.68 164.01 22.86 167.18 44.41 142.84 64.63 181.62 76.99 185.88 50.66 135.79 76.07 107.1 67.98 103.73 46.4 127.69 24.22 85.47 16.1 82.09 11.92 80.54 40.14 134.64 13.68 164.01"/><polygon points="119.51 121.8 128.69 124.97 150.25 100.63 170.46 139.41 182.82 143.68 156.49 93.58 181.9 64.89 173.82 61.52 152.24 85.48 130.05 43.26 121.94 39.88 117.75 38.33 145.97 92.43 119.51 121.8"/><polyline points="62.85 125.67 54.56 134.78 135.41 100.48 142.61 92.72"/></svg>