<svg xmlns="http://www.w3.org/2000/svg" viewBox="0 0 50 50" width="50" height="50"><rect fill="none" width="50" height="50"/><rect x="11.67" y="12.81" width="16.78" height="1.65" rx="0.43"/><rect x="11.67" y="17.18" width="16.78" height="1.65" rx="0.43"/><path d="M20.43,30.29H11.9c-.13,0-.23.19-.23.43v.79c0,.24.1.43.23.43h8.53c.13,0,.23-.19.23-.43v-.79C20.66,30.48,20.56,30.29,20.43,30.29Z"/><rect x="11.67" y="21.55" width="16.78" height="1.65" rx="0.43"/><rect x="11.67" y="25.92" width="16.78" height="1.65" rx="0.43"/><path d="M13.46,39.19a.44.44,0,0,1-.44-.44.42.42,0,0,1,.06-.21l2.17-4.06a.44.44,0,0,1,.38-.23h0a.46.46,0,0,1,.38.23l.7,1.33.79-1.42a.44.44,0,0,1,.37-.23.46.46,0,0,1,.4.22l.82,1.4.72-1.38a.43.43,0,0,1,.38-.23.47.47,0,0,1,.39.22l.82,1.5.8-1.49a.44.44,0,0,1,.38-.23h0a.44.44,0,0,1,.39.23l.72,1.35,1.7-3.31a.44.44,0,0,1,.6-.16.45.45,0,0,1,.18.56l-2.1,4a.43.43,0,0,1-.38.25h0a.45.45,0,0,1-.39-.23l-.73-1.36L21.78,37a.44.44,0,0,1-.59.18h0A.42.42,0,0,1,21,37l-.83-1.47-.7,1.35a.42.42,0,0,1-.58.19.33.33,0,0,1-.18-.17l-.82-1.41L17.1,37a.44.44,0,0,1-.39.22.42.42,0,0,1-.39-.24l-.7-1.31L13.85,39A.45.45,0,0,1,13.46,39.19Z"/><path d="M27.23,36.41a.44.44,0,0,1-.44-.44.36.36,0,0,1,0-.11l1.37-5.23a.35.35,0,0,1,.06-.14l9.65-13.78a.43.43,0,0,1,.6-.11l3,2a.43.43,0,0,1,.13.6h0L32.1,33.05a.38.38,0,0,1-.11.11l-4.51,3.17A.44.44,0,0,1,27.23,36.41Z"/><path d="M32.59,33.86l-1.16.93-.08.06v5.49a0,0,0,0,1,0,0H8.76a0,0,0,0,1,0,0h0V9.66a0,0,0,0,1,0,0H31.32a0,0,0,0,1,0,0h0V24.55l.09-.11,2-2.88V8.65A1.13,1.13,0,0,0,32.3,7.52H7.78A1.13,1.13,0,0,0,6.66,8.65v32.7a1.13,1.13,0,0,0,1.12,1.13H32.3a1.13,1.13,0,0,0,1.13-1.13h0V32.82Z"/></svg>