<?xml version="1.0" encoding="utf-8"?>
<!-- Generator: Adobe Illustrator 23.0.1, SVG Export Plug-In . SVG Version: 6.00 Build 0)  -->
<svg version="1.1" id="Слой_1" xmlns="http://www.w3.org/2000/svg" xmlns:xlink="http://www.w3.org/1999/xlink" x="0px" y="0px"
	 viewBox="0 0 70 70" style="enable-background:new 0 0 70 70;" xml:space="preserve">
<style type="text/css">
	.st0{display:none;fill:#FF3E41;}
	.st1{display:none;fill:#FFFFFF;}
	.st2{fill:#FF3E41;}
	.st3{fill:#FFFFFF;}
</style>
<rect class="st0" width="70" height="70"/>
<path class="st1" d="M6,46.7h5.9V33.1c2.8,4.7,5.5,9.3,8.2,13.9c2.7-4.6,5.5-9.3,8.2-13.9v13.6h4.5h1.4h16.1l-2.8-4.5H34.3v-5.1
	h10.5l-2.8-4.5h-7.8v-4.9h5L36.6,23c-2.7,0-5.4,0-8.2,0l-8.2,14.4L11.9,23H6L6,46.7L6,46.7z M66,23c-9.5,0-18.9,0-28.4,0l2.8,4.5
	h6.8H49v14.5l3,4.9l3-4.9V27.6h1.6h6.8L66,23L66,23z"/>
<path class="st2" d="M3,50.7h10.2V23.2c4.8,9.5,9.4,18.7,14.1,28.2C32,42,36.8,32.5,41.5,23.1v27.5h10.2V2.8c-4.7,0-5.5,0-10.2,0
	L27.3,31.8L13.2,2.8H3L3,50.7L3,50.7z"/>
<path class="st1" d="M2.2,66.1h9H14h32l-5.5-10.6H14V43.6h20.9L29.4,33H14V21.4h9.9l-5.5-10.6c-5.4,0-10.8,0-16.3,0L2.2,66.1z
	 M76.9,10.8c-18.9,0-37.4,0-56.4,0L26,21.4h13.4H43v34l5.9,11.4l5.9-11.4v-34H58h13.4L76.9,10.8L76.9,10.8z"/>
<path class="st3" d="M67.5,70H29.9c-1.4,0-2.5-1.1-2.5-2.5V39.6v-0.5c0-1.4,1.1-2.5,2.5-2.5h37.6c1.4,0,2.5,1.1,2.5,2.5v28.3
	C70,68.9,68.9,70,67.5,70z"/>
<path class="st2" d="M30.2,66.8h4.4H36h15.6L49,61.6H36v-5.8h10.2l-2.7-5.2H36v-5.6h4.9l-2.7-5.2c-2.6,0-5.3,0-8,0L30.2,66.8z
	 M66.8,39.7c-9.2,0-18.3,0-27.5,0l2.7,5.2h6.6h1.8v16.6l2.9,5.6l2.9-5.6V44.9h1.5h6.6L66.8,39.7L66.8,39.7z"/>
</svg>
