<?xml version="1.0" encoding="utf-8"?>
<!-- Generator: Adobe Illustrator 23.0.1, SVG Export Plug-In . SVG Version: 6.00 Build 0)  -->
<svg version="1.1" id="Слой_1" xmlns="http://www.w3.org/2000/svg" xmlns:xlink="http://www.w3.org/1999/xlink" x="0px" y="0px"
	 viewBox="0 0 70 70" style="enable-background:new 0 0 70 70;" xml:space="preserve">
<style type="text/css">
	.st0{display:none;fill:#FF3E41;}
	.st1{display:none;fill:#FFFFFF;}
	.st2{display:none;}
	.st3{fill:#FF3E41;}
	.st4{display:inline;fill:#FF3E41;}
</style>
<rect class="st0" width="70" height="70"/>
<path class="st1" d="M6,46.7h5.9V33.1c2.8,4.7,5.5,9.3,8.2,13.9c2.7-4.6,5.5-9.3,8.2-13.9v13.6h4.5h1.4h16.1l-2.8-4.5H34.3v-5.1
	h10.5l-2.8-4.5h-7.8v-4.9h5L36.6,23c-2.7,0-5.4,0-8.2,0l-8.2,14.4L11.9,23H6L6,46.7L6,46.7z M66,23c-9.5,0-18.9,0-28.4,0l2.8,4.5
	h6.8H49v14.5l3,4.9l3-4.9V27.6h1.6h6.8L66,23L66,23z"/>
<path class="st0" d="M0,68.3h14.7V31.1C21.5,43.9,28.2,55,35,67.8c6.8-12.6,13.6-24,20.3-36.7v37.2H70V3.6c-6.7,0-7.8,0-14.7,0
	L35,42.8L14.7,3.6H0L0,68.3L0,68.3z"/>
<path class="st1" d="M2.2,66.1h9H14h32l-5.5-10.6H14V43.6h20.9L29.4,33H14V21.4h9.9l-5.5-10.6c-5.4,0-10.8,0-16.3,0L2.2,66.1z
	 M76.9,10.8c-18.9,0-37.4,0-56.4,0L26,21.4h13.4H43v34l5.9,11.4l5.9-11.4v-34H58h13.4L76.9,10.8L76.9,10.8z"/>
<path class="st1" d="M53.3,70H22.7c-1.1,0-2.1-1.2-2.1-2.8V36.6V36c0-1.5,0.9-2.8,2.1-2.8h30.6c1.1,0,2.1,1.2,2.1,2.8v31.2
	C55.3,68.8,54.4,70,53.3,70z"/>
<g class="st2">
	<polygon class="st3" points="0,68.1 0,68.1 0,68.1 	"/>
	<path class="st3" d="M55.3,3.4l-7.5,14.5H70V3.4C63.3,3.4,62.2,3.4,55.3,3.4z"/>
	<polygon class="st4" points="14.7,17.9 22.2,17.9 14.7,3.4 0,3.4 0,68.1 14.7,68.1 14.7,30.9 14.7,30.9 	"/>
</g>
<g>
	<path class="st3" d="M67.6,21.8v44.5H10.1V21.8H67.6 M69.6,19.8H8.1v48.5h61.4V19.8L69.6,19.8z"/>
</g>
<g>
	<path class="st3" d="M55.3,3.6l-8.4,16.2h22.6v48.5H70V3.6C63.3,3.6,62.2,3.6,55.3,3.6z"/>
	<polygon class="st3" points="0,68.3 0,68.3 0,68.3 	"/>
	<polygon class="st3" points="8.1,19.8 23.1,19.8 14.7,3.6 0,3.6 0,68.3 8.1,68.3 	"/>
</g>
<g>
	<path class="st3" d="M17,60.8h5.3H24h19l-3.2-6.3H24v-7h12.4l-3.2-6.3H24v-6.8h5.9L26.6,28c-3.2,0-6.4,0-9.6,0L17,60.8z M61.3,28
		c-11.2,0-22.2,0-33.4,0l3.3,6.3h8h2.1v20.2l3.5,6.8l3.5-6.8V34.3h1.8h8L61.3,28L61.3,28z"/>
</g>
</svg>
