<?xml version="1.0" encoding="utf-8"?>
<!-- Generator: Adobe Illustrator 23.0.1, SVG Export Plug-In . SVG Version: 6.00 Build 0)  -->
<svg version="1.1" id="Слой_1" xmlns="http://www.w3.org/2000/svg" xmlns:xlink="http://www.w3.org/1999/xlink" x="0px" y="0px"
	 viewBox="0 0 70 70" style="enable-background:new 0 0 70 70;" xml:space="preserve">
<style type="text/css">
	.st0{display:none;fill:#FF3E41;}
	.st1{display:none;fill:#FFFFFF;}
	.st2{fill:#FF3E41;}
	.st3{display:none;}
	.st4{display:inline;fill:#FF3E41;}
	.st5{fill:#FFFFFF;}
</style>
<rect class="st0" width="70" height="70"/>
<path class="st1" d="M6,46.7h5.9V33.1c2.8,4.7,5.5,9.3,8.2,13.9c2.7-4.6,5.5-9.3,8.2-13.9v13.6h4.5h1.4h16.1l-2.8-4.5H34.3v-5.1
	h10.5l-2.8-4.5h-7.8v-4.9h5L36.6,23c-2.7,0-5.4,0-8.2,0l-8.2,14.4L11.9,23H6L6,46.7L6,46.7z M66,23c-9.5,0-18.9,0-28.4,0l2.8,4.5
	h6.8H49v14.5l3,4.9l3-4.9V27.6h1.6h6.8L66,23L66,23z"/>
<path class="st2" d="M0,68.3h14.7V31.1C21.5,43.9,28.2,55,35,67.8c6.8-12.6,13.6-24,20.3-36.7v37.2H70V3.6c-6.7,0-7.8,0-14.7,0
	L35,42.8L14.7,3.6H0L0,68.3L0,68.3z"/>
<path class="st1" d="M2.2,66.1h9H14h32l-5.5-10.6H14V43.6h20.9L29.4,33H14V21.4h9.9l-5.5-10.6c-5.4,0-10.8,0-16.3,0L2.2,66.1z
	 M76.9,10.8c-18.9,0-37.4,0-56.4,0L26,21.4h13.4H43v34l5.9,11.4l5.9-11.4v-34H58h13.4L76.9,10.8L76.9,10.8z"/>
<path class="st1" d="M53.3,70H22.7c-1.1,0-2.1-1.2-2.1-2.8V36.6V36c0-1.5,0.9-2.8,2.1-2.8h30.6c1.1,0,2.1,1.2,2.1,2.8v31.2
	C55.3,68.8,54.4,70,53.3,70z"/>
<g class="st3">
	<path class="st4" d="M67.6,21.8v44.5H10.1V21.8H67.6 M69.6,19.8H8.1v48.5h61.4V19.8L69.6,19.8z"/>
</g>
<g>
	<path class="st5" d="M15.1,67.9l0-40.1h11.3l3.6,6.9h-7.1v9.6h11.7l3.6,6.9H22.9V61h19.9l3.6,6.9H15.1z M45.6,60.3V34.7H32.7
		l-3.6-6.9h40.3l-3.6,6.9H53.3v25.7l-3.9,7.5L45.6,60.3z"/>
	<path class="st2" d="M68.6,28.3l-3,5.9h-9.4h-2.3h-1v1v25l-3.4,6.5l-3.4-6.5v-25v-1h-1h-2.7H33l-3-5.9H68.6 M15.6,28.3l5.1,0l5.4,0
		l3,5.9h-5.8h-1v1v8.6v1h1h10.9l3,5.9H23.4h-1v1v8.8v1h1h19.1l3,5.9H23.4h-2.1h-5.7L15.6,28.3 M70.2,27.3L70.2,27.3
		C70.2,27.3,70.2,27.3,70.2,27.3L70.2,27.3z M70.2,27.3c-14.1,0-27.9,0-42,0l4.1,7.9h10h2.7v25.3l4.4,8.5l4.4-8.5V35.2h2.3h10
		L70.2,27.3L70.2,27.3z M14.6,27.3l0,41.1h6.7h2.1h23.8l-4.1-7.9H23.4v-8.8H39l-4.1-7.9H23.4v-8.6h7.4l-4.1-7.9
		C22.7,27.3,18.7,27.3,14.6,27.3L14.6,27.3z"/>
</g>
</svg>
