<?xml version="1.0" encoding="utf-8"?>
<!-- Generator: Adobe Illustrator 23.0.1, SVG Export Plug-In . SVG Version: 6.00 Build 0)  -->
<svg version="1.1" id="Слой_1" xmlns="http://www.w3.org/2000/svg" xmlns:xlink="http://www.w3.org/1999/xlink" x="0px" y="0px"
	 viewBox="0 0 70 70" style="enable-background:new 0 0 70 70;" xml:space="preserve">
<style type="text/css">
	.st0{display:none;fill:#FF3E41;}
	.st1{display:none;fill:#FFFFFF;}
	.st2{fill:#FF3E41;}
	.st3{display:none;}
	.st4{display:inline;fill:#FF3E41;}
	.st5{display:inline;fill:#FFFFFF;}
	.st6{fill:#FFFFFF;}
</style>
<rect class="st0" width="70" height="70"/>
<path class="st1" d="M6,46.7h5.9V33.1c2.8,4.7,5.5,9.3,8.2,13.9c2.7-4.6,5.5-9.3,8.2-13.9v13.6h4.5h1.4h16.1l-2.8-4.5H34.3v-5.1
	h10.5l-2.8-4.5h-7.8v-4.9h5L36.6,23c-2.7,0-5.4,0-8.2,0l-8.2,14.4L11.9,23H6L6,46.7L6,46.7z M66,23c-9.5,0-18.9,0-28.4,0l2.8,4.5
	h6.8H49v14.5l3,4.9l3-4.9V27.6h1.6h6.8L66,23L66,23z"/>
<path class="st2" d="M0,68.3h14.7v-25c0,0,4.1-4.6,6.2-1c4.7,8.4,9.4,16.5,14.1,25.4c6.8-12.6,13.6-24,20.3-36.7v37.2H70V1
	C63.3,1,0,1,0,1L0,68.3L0,68.3z"/>
<path class="st1" d="M2.2,66.1h9H14h32l-5.5-10.6H14V43.6h20.9L29.4,33H14V21.4h9.9l-5.5-10.6c-5.4,0-10.8,0-16.3,0L2.2,66.1z
	 M76.9,10.8c-18.9,0-37.4,0-56.4,0L26,21.4h13.4H43v34l5.9,11.4l5.9-11.4v-34H58h13.4L76.9,10.8L76.9,10.8z"/>
<g class="st3">
	<path class="st4" d="M67.6,21.8v44.5H10.1V21.8H67.6 M69.6,19.8H8.1v48.5h61.4V19.8L69.6,19.8z"/>
</g>
<g class="st3">
	<path class="st5" d="M41.6,55.5H-0.7l0-52.7h71.3l-6.5,12.6H49.7v29.5l-6.8,13.2L41.6,55.5z M36.1,42.9V15.3H12.9v7.4h13.3
		l6.5,12.6H12.9v7.6H36.1z"/>
	<path class="st5" d="M68.1,4.2C68.1,4.2,68.1,4.2,68.1,4.2L68.1,4.2 M68.1,4.2l-4.9,9.6H51h-2.8v30.6l-5.3,10.3l-5.3-10.3V13.8
		h-3.2H22.2l-4.9-9.6C34.3,4.2,51,4.2,68.1,4.2 M0.8,4.2c5,0,9.8,0,14.7,0l4.9,9.6h-9v10.4h13.9l4.9,9.6H11.4v10.6h23.9l4.9,9.6
		H11.4H8.8H0.8L0.8,4.2 M73,1.2h-4.9H17.3h-4.9l-4.2,0l-7.4,0h-3l0,3l0,49.7l0,3h3h8.1h2.6h28.8h0.5l2.2,4.2l2.2-4.2h0l0,0l0.5-0.9
		l5.3-10.3l0.3-0.6v-0.7V16.8h11.9H65l0.8-1.6l4.9-9.6L73,1.2L73,1.2z M25.3,16.8h9.1h0.2v18.9l-1.7-3.3l-4.9-9.6l-0.8-1.6h-1.8
		H14.4v-4.4h6L25.3,16.8L25.3,16.8L25.3,16.8z M14.4,36.7h15.8h4.4v4.6H14.4V36.7L14.4,36.7z"/>
</g>
<g>
	<path class="st6" d="M36.8,46.7H1.6V2.5l12.7,0l47,0l-5.6,10.9H43.9v24.2L38,49L36.8,46.7z M32.1,35.8V13.4H13.4V19h10.9L29.9,30
		H13.4v5.8H32.1z"/>
	<path class="st2" d="M58.8,4C58.8,4,58.8,4,58.8,4L58.8,4 M58.8,4l-4.1,7.9h-10h-2.3v25.3L38,45.8l-4.4-8.5V11.9h-2.7h-10L16.8,4
		C30.9,4,44.7,4,58.8,4 M3.1,4c4.1,0,8.1,0,12.1,0l4.1,7.9h-7.4v8.6h11.5l4.1,7.9H11.9v8.8h19.8l4.1,7.9H11.9H9.8H3.1L3.1,4 M63.8,1
		h-4.9H16.8h-4.9L9.2,1L3.1,1h-3l0,3l0,41.2l0,3h3h6.7h2.1h23.9h0.1l2.1,4.1l2.1-4.1h0.6l-0.3-0.6l0.3-0.5l4.4-8.5l0.3-0.6v-0.7
		V14.9h9.4h1.8l0.8-1.6l4.1-7.9L63.8,1L63.8,1z M24.2,14.9h6.3v13l-0.5-0.9L26,19.2l-0.8-1.6h-1.8h-8.5v-2.6h4.4L24.2,14.9
		L24.2,14.9L24.2,14.9z M14.9,31.5h12.6h3.1v2.8H14.9V31.5L14.9,31.5z"/>
</g>
</svg>
