<?xml version="1.0" encoding="utf-8"?>
<!-- Generator: Adobe Illustrator 23.0.1, SVG Export Plug-In . SVG Version: 6.00 Build 0)  -->
<svg version="1.1" id="Слой_1" xmlns="http://www.w3.org/2000/svg" xmlns:xlink="http://www.w3.org/1999/xlink" x="0px" y="0px"
	 viewBox="0 0 70 70" style="enable-background:new 0 0 70 70;" xml:space="preserve">
<style type="text/css">
	.st0{display:none;fill:#FF3E41;}
	.st1{display:none;fill:#FFFFFF;}
	.st2{fill:#FF3E41;}
	.st3{fill:#FFFFFF;}
</style>
<rect class="st0" width="70" height="70"/>
<path class="st1" d="M6,46.7h5.9V33.1c2.8,4.7,5.5,9.3,8.2,13.9c2.7-4.6,5.5-9.3,8.2-13.9v13.6h4.5h1.4h16.1l-2.8-4.5H34.3v-5.1
	h10.5l-2.8-4.5h-7.8v-4.9h5L36.6,23c-2.7,0-5.4,0-8.2,0l-8.2,14.4L11.9,23H6L6,46.7L6,46.7z M66,23c-9.5,0-18.9,0-28.4,0l2.8,4.5
	h6.8H49v14.5l3,4.9l3-4.9V27.6h1.6h6.8L66,23L66,23z"/>
<path class="st2" d="M0,68.1h14.7V30.9C21.5,43.7,28.2,56.2,35,69c6.8-12.6,13.6-25.4,20.3-38.1v37.2H70V3.4c-6.7,0-7.8,0-14.7,0
	L35,42.6L14.7,3.4H0L0,68.1L0,68.1z"/>
<path class="st1" d="M2.2,66.1h9H14h32l-5.5-10.6H14V43.6h20.9L29.4,33H14V21.4h9.9l-5.5-10.6c-5.4,0-10.8,0-16.3,0L2.2,66.1z
	 M76.9,10.8c-18.9,0-37.4,0-56.4,0L26,21.4h13.4H43v34l5.9,11.4l5.9-11.4v-34H58h13.4L76.9,10.8L76.9,10.8z"/>
<path class="st1" d="M53.3,70H22.7c-1.1,0-2.1-1.2-2.1-2.8V36.6V36c0-1.5,0.9-2.8,2.1-2.8h30.6c1.1,0,2.1,1.2,2.1,2.8v31.2
	C55.3,68.8,54.4,70,53.3,70z"/>
<g>
	<rect x="6.4" y="9.8" class="st3" width="57.3" height="51.3"/>
</g>
<g>
	<path class="st2" d="M12.8,54.2h5.6h1.8h20l-3.4-6.6H20.2v-7.4h13.1l-3.4-6.6h-9.6v-7.2h6.2L23,19.7c-3.4,0-6.7,0-10.2,0L12.8,54.2
		z M59.6,19.7c-11.8,0-23.4,0-35.3,0l3.4,6.6h8.4h2.3v21.3l3.7,7.1l3.7-7.1V26.3h1.9h8.4L59.6,19.7L59.6,19.7z"/>
</g>
</svg>
