<?xml version="1.0" encoding="utf-8"?>
<!-- Generator: Adobe Illustrator 23.0.1, SVG Export Plug-In . SVG Version: 6.00 Build 0)  -->
<svg version="1.1" id="Слой_1" xmlns="http://www.w3.org/2000/svg" xmlns:xlink="http://www.w3.org/1999/xlink" x="0px" y="0px"
	 viewBox="0 0 70 70" style="enable-background:new 0 0 70 70;" xml:space="preserve">
<style type="text/css">
	.st0{display:none;fill:#FF3E41;}
	.st1{display:none;fill:#FFFFFF;}
	.st2{fill:#FF3E41;}
	.st3{display:none;}
	.st4{display:inline;fill:#FF3E41;}
	.st5{display:inline;fill:#FFFFFF;}
	.st6{fill:#FFFFFF;}
</style>
<rect y="0" class="st0" width="70" height="70"/>
<path class="st1" d="M6,46.7h5.9V33.1c2.8,4.7,5.5,9.3,8.2,13.9c2.7-4.6,5.5-9.3,8.2-13.9v13.6h4.5h1.4h16.1l-2.8-4.5H34.3v-5.1
	h10.5L42,32.6h-7.8v-4.9h5L36.6,23c-2.7,0-5.4,0-8.2,0l-8.2,14.4L11.9,23H6V46.7L6,46.7z M66,23c-9.5,0-18.9,0-28.4,0l2.8,4.5h6.8
	H49V42l3,4.9l3-4.9V27.6h1.6h6.8L66,23L66,23z"/>
<path class="st0" d="M0,68.3h14.7v-25c0,0,4.1-4.6,6.2-1c4.7,8.4,9.4,16.5,14.1,25.4c6.8-12.6,13.6-24,20.3-36.7v37.2H70V1
	C63.3,1,0,1,0,1V68.3L0,68.3z"/>
<path class="st0" d="M0,68.3h14.7v-25c0,0,4.1-4.6,6.2-1c4.7,8.4,9.4,16.5,14.1,25.4c6.8-12.6,13.6-24,20.3-36.7v37.2H70V1
	C63.3,1,0,1,0,1V68.3L0,68.3z"/>
<path class="st2" d="M-0.1,67.6h14.7V30.4c6.8,12.8,13.5,25.3,20.3,38.1c6.8-12.6,13.6-25.4,20.3-38.1v37.2h14.7V2.9
	c-6.7,0-7.8,0-14.7,0L34.9,42.1L14.6,2.9H-0.1V67.6L-0.1,67.6z"/>
<rect x="5.3" y="8.4" class="st2" width="60.4" height="49.1"/>
<path class="st1" d="M2.2,66.1h9H14h32l-5.5-10.6H14V43.6h20.9L29.4,33H14V21.4h9.9l-5.5-10.6c-5.4,0-10.8,0-16.3,0L2.2,66.1z
	 M76.9,10.8c-18.9,0-37.4,0-56.4,0L26,21.4h13.4H43v34l5.9,11.4l5.9-11.4v-34H58h13.4L76.9,10.8L76.9,10.8z"/>
<g class="st3">
	<path class="st4" d="M67.6,21.8v44.5H10.1V21.8H67.6 M69.6,19.8H8.1v48.5h61.4L69.6,19.8L69.6,19.8z"/>
</g>
<g class="st3">
	<path class="st5" d="M41.6,55.5H-0.7V2.8h71.3l-6.5,12.6H49.7v29.5l-6.8,13.2L41.6,55.5z M36.1,42.9V15.3H12.9v7.4h13.3l6.5,12.6
		H12.9v7.6H36.1z"/>
	<path class="st5" d="M68.1,4.2L68.1,4.2L68.1,4.2 M68.1,4.2l-4.9,9.6H51h-2.8v30.6l-5.3,10.3l-5.3-10.3V13.8h-3.2H22.2l-4.9-9.6
		C34.3,4.2,51,4.2,68.1,4.2 M0.8,4.2c5,0,9.8,0,14.7,0l4.9,9.6h-9v10.4h13.9l4.9,9.6H11.4v10.6h23.9l4.9,9.6H11.4H8.8h-8V4.2
		 M73,1.2h-4.9H17.3h-4.9H8.2H0.8h-3v3v49.7v3h3h8.1h2.6h28.8h0.5l2.2,4.2l2.2-4.2l0,0l0,0l0.5-0.9L51,45.7l0.3-0.6v-0.7V16.8h11.9
		H65l0.8-1.6l4.9-9.6L73,1.2L73,1.2z M25.3,16.8h9.1h0.2v18.9l-1.7-3.3L28,22.8l-0.8-1.6h-1.8h-11v-4.4h6L25.3,16.8L25.3,16.8
		L25.3,16.8z M14.4,36.7h15.8h4.4v4.6H14.4V36.7L14.4,36.7z"/>
</g>
<g>
	<path class="st6" d="M40.4,53.2H8.1V11.6h56.1l-5.8,11.2H48v21.6L42,56L40.4,53.2z M35.9,41.9V22.8H20.1v3.8h9.7l5.8,11.2H20.1v4
		L35.9,41.9L35.9,41.9z"/>
	<path class="st2" d="M61,13.9L61,13.9L61,13.9 M61,13.9l-3.7,7.2h-9.1H46v23.1l-4,7.7l-4-7.7V21.1h-2.5h-9.1l-3.8-7.2
		C35.5,13.9,48.1,13.9,61,13.9 M10.1,13.9c3.7,0,7.4,0,11.1,0l3.7,7.2h-6.8v7.8h10.5l3.7,7.2H18.1v8h18l3.7,7.2H18.1h-1.9h-6.1V13.9
		 M67.5,9.9H61H22.6H16h-0.3h-5.6h-4v4v37.6v4h4h6.1h1.9h21.1l3,1.1l2.4-1.1h1.8l-0.9-1.8l3.9-7.6l0.4-0.9v-1V25.1h7.3h2.4l1.1-2.2
		l3.7-7.2L67.5,9.9L67.5,9.9z M31.5,25.1H34v5.4l-1.8-3.4l-1-2H31.5L31.5,25.1L31.5,25.1z M22.1,40.2h10.2h1.6l0,0H22.1L22.1,40.2
		L22.1,40.2z"/>
</g>
</svg>
