<?xml version="1.0" encoding="utf-8"?>
<!-- Generator: Adobe Illustrator 23.0.1, SVG Export Plug-In . SVG Version: 6.00 Build 0)  -->
<svg version="1.1" id="Слой_1" xmlns="http://www.w3.org/2000/svg" xmlns:xlink="http://www.w3.org/1999/xlink" x="0px" y="0px"
	 viewBox="0 0 70 70" style="enable-background:new 0 0 70 70;" xml:space="preserve">
<style type="text/css">
	.st0{fill:#FF3E41;}
	.st1{display:none;fill:#FFFFFF;}
	.st2{fill:#FFFFFF;}
</style>
<rect class="st0" width="70" height="70"/>
<path class="st1" d="M6,46.7h5.9V33.1c2.8,4.7,5.5,9.3,8.2,13.9c2.7-4.6,5.5-9.3,8.2-13.9v13.6h4.5h1.4h16.1l-2.8-4.5H34.3v-5.1
	h10.5l-2.8-4.5h-7.8v-4.9h5L36.6,23c-2.7,0-5.4,0-8.2,0l-8.2,14.4L11.9,23H6L6,46.7L6,46.7z M66,23c-9.5,0-18.9,0-28.4,0l2.8,4.5
	h6.8H49v14.5l3,4.9l3-4.9V27.6h1.6h6.8L66,23L66,23z"/>
<path class="st2" d="M-31.1,65.3H-18V30c6.1,12.2,12,24,18.1,36.2c6-12,12.1-24.1,18.1-36.2v35.3h10h3.1h35.5l-6.1-11.8H31.3V40.4
	h23.2l-6.1-11.8H31.3V15.8h11L36.3,4c-6,0-11.9-0.1-18.1-0.1L0.1,41.1L-18,3.9h-13.1L-31.1,65.3L-31.1,65.3z M101.1,4
	c-21,0-41.6,0-62.5,0l6.1,11.8h14.9h4v37.7l6.5,12.7l6.6-12.7V15.8h3.5h14.9L101.1,4L101.1,4z"/>
</svg>
