<?xml version="1.0" encoding="utf-8"?>
<!-- Generator: Adobe Illustrator 23.0.1, SVG Export Plug-In . SVG Version: 6.00 Build 0)  -->
<svg version="1.1" id="Слой_1" xmlns="http://www.w3.org/2000/svg" xmlns:xlink="http://www.w3.org/1999/xlink" x="0px" y="0px"
	 viewBox="0 0 100 101" style="enable-background:new 0 0 100 101;" xml:space="preserve">
<style type="text/css">
	.st0{fill:#478BF9;}
</style>
<path class="st0" d="M50.1,0.9C22.7,0.9,0.5,23.2,0.5,50.5c0,27.3,22.2,49.6,49.6,49.6s49.6-22.2,49.6-49.6
	C99.6,23.2,77.4,0.9,50.1,0.9z M96,49.3h-8c-0.3-9.3-4-18.6-11.1-25.7c-6.8-6.8-15.6-10.5-24.5-11.1v-8C76.3,5.8,95.4,25.3,96,49.3z
	 M74.8,52.3c-0.3,4.1-1.6,8.1-3.8,11.6l-0.2,0.3l-0.4-0.1c-2.6-0.7-5.5-1.2-8.5-1.7l-0.6-0.1l0.1-0.6c0.6-3,1-6.2,1.1-9.6v-0.5h12.3
	L74.8,52.3L74.8,52.3z M50.1,75.1L50.1,75.1c-3,0-6.1-3.9-8.1-10.1l-0.2-0.6l0.7-0.1c5-0.4,10.3-0.4,15.2,0l0.7,0.1l-0.2,0.6
	C56.2,71.2,53.1,75.1,50.1,75.1z M31.4,66.8l-0.6-0.7l0.9-0.2c2.3-0.5,4.7-0.9,7.2-1.3l0.4-0.1l0.1,0.4c0.4,1.5,0.9,2.9,1.5,4.1
	c0.7,1.6,1.5,3,2.3,4.2l0.9,1.3l-1.5-0.5v0C38.4,72.8,34.5,70.3,31.4,66.8z M29.3,64.1l-0.2-0.3c-2.2-3.4-3.5-7.4-3.8-11.5l0-0.6
	h12.3v0.5c0.1,3.3,0.5,6.5,1.1,9.5l0.1,0.6l-0.6,0.1c-3,0.4-5.9,0.9-8.6,1.6L29.3,64.1z M25.4,48.7c0.3-4.1,1.6-8,3.8-11.5l0.2-0.3
	l0.4,0.1c2.7,0.7,5.5,1.2,8.6,1.6l0.6,0.1l-0.1,0.6c-0.6,3-1,6.2-1.1,9.5v0.5H25.3L25.4,48.7L25.4,48.7z M50.1,25.9L50.1,25.9
	c3,0,6.1,3.9,8,10l0.2,0.6l-0.7,0.1c-2.6,0.2-5.2,0.3-7.9,0.3c-2.5,0-4.9-0.1-7.3-0.3l-0.7-0.1L42,36C44,29.8,47,25.9,50.1,25.9z
	 M68.6,34.1l0.6,0.7l-0.9,0.2c-2.3,0.5-4.7,1-7.2,1.3l-0.4,0.1l-0.1-0.4c-0.4-1.4-0.9-2.8-1.5-4.1c-0.7-1.6-1.5-3-2.3-4.2l-0.9-1.3
	l1.5,0.5v0C61.7,28.2,65.6,30.7,68.6,34.1z M40,49.3L40,49.3l0-0.5c0.1-3.3,0.5-6.4,1.1-9.3l0.1-0.5l0.5,0
	c5.5,0.5,11.3,0.5,16.8-0.1l0.5,0l0.1,0.5c0.6,2.9,1,6.1,1.1,9.4v0.5H40z M60.1,51.7v0.5c-0.1,3.3-0.5,6.5-1.1,9.4l-0.1,0.5l-0.5,0
	C53,61.5,47.2,61.5,41.7,62l-0.5,0l-0.1-0.5c-0.6-2.9-1-6-1.1-9.3l0-0.5H60.1L60.1,51.7z M43.3,27.6c-0.9,1.2-1.6,2.6-2.3,4.2
	c-0.6,1.2-1.1,2.6-1.5,4.1l-0.1,0.4L39,36.3c-2.5-0.3-5-0.7-7.2-1.3l-0.9-0.2l0.6-0.7c3-3.5,7-6,11.3-7.4l1.5-0.5L43.3,27.6z
	 M56.8,73.4c0.9-1.2,1.6-2.6,2.3-4.2c0.6-1.3,1.1-2.6,1.5-4.1l0.1-0.4l0.4,0.1c2.5,0.3,4.9,0.8,7.2,1.3l0.9,0.2l-0.6,0.7
	c-3,3.4-6.9,5.9-11.2,7.3l-1.5,0.5L56.8,73.4z M62.6,49.3L62.6,49.3l0-0.5c-0.1-3.3-0.5-6.6-1.1-9.6l-0.1-0.6l0.6-0.1
	c3-0.4,5.8-1,8.5-1.7l0.4-0.1l0.2,0.3c2.2,3.5,3.6,7.5,3.8,11.6l0,0.6H62.6z M48.1,4.5v8c-9.1,0.5-18,4.1-25,11.1
	C16.1,30.7,12.4,40,12.1,49.3h-8C4.7,25.1,24.1,5.5,48.1,4.5z M4.2,53.6h8c0.7,8.7,4.4,17.2,11,23.8c6.9,6.9,15.9,10.6,25,11.1v8
	C24.7,95.5,5.7,76.8,4.2,53.6z M52.4,96.4v-8c8.9-0.6,17.7-4.2,24.5-11c6.6-6.6,10.3-15.1,11-23.8h8C94.4,76.7,75.7,95.2,52.4,96.4z
	"/>
</svg>
