<svg xmlns="http://www.w3.org/2000/svg" viewBox="0 0 200 200" width="50" height="50"><rect fill="none" width="200" height="200"/><path d="M161.45,50.57l5.08-5.9,2.82,2.43,6.16-7.16L160.22,26.78l-6.16,7.15,2.82,2.43-5.32,6.18a81.11,81.11,0,0,0-40-14.11v-8h3.72V11H95.15v9.44h3.72v8A81.06,81.06,0,0,0,52.53,47.71L62.68,59.87A65.56,65.56,0,1,1,39.84,109.6a66.27,66.27,0,0,1,.46-7.76l5.05,6.57,3.27-45.82L14.18,93.09l11.64-.64A81.4,81.4,0,1,0,161.45,50.57Z"/><path d="M69.83,139.59H83.94v12.1a2,2,0,0,0,2,2H96.49a2,2,0,0,0,1.41-.57,1.91,1.91,0,0,0,.6-1.45v-12.1h31.83a2,2,0,0,0,2-2V129.5a1.93,1.93,0,0,0-2-2H98.5v-7.44h21.43q12.6,0,20.58-7.69t8-19.85q0-12.17-8-19.86T119.93,65H86a2,2,0,0,0-2,2v39.65H69.83a1.89,1.89,0,0,0-1.45.59,2,2,0,0,0-.57,1.42V118a2,2,0,0,0,2,2H83.94v7.44H69.83a1.93,1.93,0,0,0-2,2v8.07a2,2,0,0,0,2,2ZM98.5,78.39h20.17q6.67,0,10.78,3.91a13.46,13.46,0,0,1,4.09,10.21,13.46,13.46,0,0,1-4.09,10.21,15,15,0,0,1-10.78,3.91H98.5Z"/></svg>