<svg xmlns="http://www.w3.org/2000/svg" viewBox="0 0 200 200" width="50" height="50"><rect fill="none" width="200" height="200"/><path d="M10,53.34v93.1l29.38,4.7V48.68ZM36.17,100.6a.28.28,0,0,1-.27.28H23.42a.28.28,0,0,1-.28-.28V97.78a.28.28,0,0,1,.28-.28H35.9a.28.28,0,0,1,.27.28Z"/><path d="M45.37,47.53V152.36L73.76,157V43.14ZM61.54,100.6a.28.28,0,0,1-.27.28H48.79a.28.28,0,0,1-.28-.28V97.78a.28.28,0,0,1,.28-.28H61.27a.28.28,0,0,1,.27.28Z"/><path d="M79.71,43V157L190,136.46V63.65Zm16,102.56-7.67,1.28v-92L95.73,56ZM111.21,143l-7.48,1.25v-87l7.48,1.12Zm13.92-2.33-5.92,1V59.58l5.92.89Zm12.37-2.06-5.37.89v-78l5.37.81Zm11.41-1.91-5.41.9V63.23l5.41.82Zm10.78-1.81-4.78.8V65l4.78.72Zm10.05-1.68-5.05.85V66.42l5.05.76Zm8.58-1.43-4.58.76V67.78l4.58.69Zm7.5-1.26-3.5.59v-62l3.5.53Z"/></svg>