<svg xmlns="http://www.w3.org/2000/svg" viewBox="0 0 200 200" width="50" height="50"><rect fill="none" width="200" height="200"/><rect x="0.01" y="107.84" width="38.18" height="27.57" rx="4.24"/><rect x="0.01" y="141.78" width="82.72" height="27.57" rx="4.24"/><path d="M48.79,135.41h29.7a4.24,4.24,0,0,0,4.24-4.24V112.08a4.22,4.22,0,0,0-2.93-4c-7.22,3.54-16.11,7.31-16.16,7.26s1.89-2.81,5.1-7.49H48.79a4.24,4.24,0,0,0-4.24,4.24v19.09A4.24,4.24,0,0,0,48.79,135.41Z"/><path d="M147.89,173.59h-5.16V144.77a17,17,0,0,0-2.9-9.48l-12.92-19.14a17,17,0,0,0-14.06-7.46h-20a4.24,4.24,0,0,0-4.24,4.24v60.66H55.81a17.49,17.49,0,0,1,5.86,10.69H96.26a17.41,17.41,0,0,1,34.47,0h17.16a2.11,2.11,0,0,0,2.12-2.12v-6.45A2.12,2.12,0,0,0,147.89,173.59ZM126.76,139.1H100.33A2.11,2.11,0,0,1,98.21,137V122.33a2.13,2.13,0,0,1,2.12-2.12h16.1a2.12,2.12,0,0,1,1.74.89l10.33,14.67A2.11,2.11,0,0,1,126.76,139.1Z"/><path d="M44.44,173.59a13.21,13.21,0,1,0,13.2,13.2A13.22,13.22,0,0,0,44.44,173.59Zm0,19.81a6.61,6.61,0,1,1,6.6-6.61A6.62,6.62,0,0,1,44.44,193.4Z"/><path d="M113.48,173.59a13.21,13.21,0,1,0,13.2,13.2A13.21,13.21,0,0,0,113.48,173.59Zm0,19.81a6.61,6.61,0,1,1,6.6-6.61A6.61,6.61,0,0,1,113.48,193.4Z"/><path d="M33.07,173.6H3.49a2.12,2.12,0,0,0-2.12,2.12v6.43a2.12,2.12,0,0,0,2.12,2.13H27.2A17.4,17.4,0,0,1,33.07,173.6Z"/><g id="Слой_2_копия_" data-name="Слой 2 (копия)"><path d="M182.77.2a19.74,19.74,0,0,1,4.31,1.28,9.8,9.8,0,0,0,3.37.55c5.8.35,7.89,1.3,9.1,3.67A3.11,3.11,0,0,1,200,7.44c-.59,3.66-6.07,9.83-12.71,13.92-2.74,1.7-29.38,13.16-29.79,13.33-.59.24.44-.89,4.24-4.72,4.2-4.19,4.87-5,4.13-4.65-1.17.48-56.87,24.16-57,24.27S103,57.92,103,57.92,90.76,62.35,83,64.22c-12.9,3.14-29.69,5.92-49.28,8.16-8,.91-10,1-11.72.57-1.48-.37-1.87-6.9.35-7.9C23.89,64.38,173.81.64,177.33.18A20.45,20.45,0,0,1,182.77.2Z"/><path d="M133,14.16c-.37.18-37.5,16-37.5,16S70,19.14,70,19.08s7.07-2.87,8-3C80,15.79,133.62,13.88,133,14.16Z"/><path d="M50.33,49.35C50.22,49.46,21,61.94,21,61.94L.29,35.26l11.2-4.81S50.44,49.26,50.33,49.35Z"/><path d="M86.17,101.28c-2,1.7-12.72,6.29-12.77,6.24s39.3-57,39.3-57,43.37-18.4,43.43-18.4S90.43,97.65,86.17,101.28Z"/></g><path d="M57.91,88.84c-2.33.75-2.4.78-3.09,1.58-1.18,1.34-1.29,1.15-1.35,10.41H73.54c5.63-8.57,13.36-20.3,21.82-33.14C76.67,79.59,63.52,87,57.91,88.84Z"/><path d="M200,146.44c0-2,0-73.76,0-73.76l-.24-1.82c-2.11-9.56-8.69-17.07-16.2-18.49-.78-.15-24.66-.2-43-.16-1.33,1.36-2.63,2.71-3.93,4H182s2.44,2,3.19,2.69,2.37,2.7,2.37,2.7H131.39C111.61,82.06,96.62,97.38,93.74,100a13.66,13.66,0,0,1-1.14.88h26.88a16.92,16.92,0,0,1,3.35.34V76.49a6.79,6.79,0,0,1,6.79-6.8h57.72a6.8,6.8,0,0,1,6.8,6.8v28.73a6.81,6.81,0,0,1-6.8,6.8H136.06c3.09,4.59,8.22,12.18,10.4,15.41,1.89,2.8,4.66,7,4.76,9.7.21,6.1.25,15.71.22,25.75,12.84.06,24.51.09,24.51.09s5.2,4,5.4,4.2-14.69.13-29.93.06v1.28c0,.17,5.68.77,5.74,2.22s.07,3.13.06,4.91h34.47l8.31,7.62v-7.68c-6.44-6-14.18-13.36-14.16-13.37s2.27-.8,3.06-1.17A20.2,20.2,0,0,0,200,146.44Zm-15.4.35a8.94,8.94,0,1,1,8.94-8.94A8.93,8.93,0,0,1,184.6,146.79Z"/><path d="M181.82,108.23s-6.95-2.3-25.63-18.15c-6.73-5.71-15.07-14.2-18.06-17.3h-8.3A4.28,4.28,0,0,0,125.47,77v24.72a16.86,16.86,0,0,1,8.74,6.61l.39.58h48.23Z"/></svg>