<svg width="40" height="48" viewBox="0 0 40 48" xmlns="http://www.w3.org/2000/svg"><path d="M19.9905 27.3347C20.5089 27.3347 20.9298 26.9138 20.9298 26.3953C20.9298 25.8769 20.5089 25.456 19.9905 25.456C19.472 25.456 19.0511 25.8769 19.0511 26.3953C19.0511 26.9138 19.472 27.3347 19.9905 27.3347Z" /><path d="M19.454 47.825C19.6173 47.9416 19.8084 48 20 48C20.1915 48 20.3827 47.9416 20.546 47.825C30.1165 40.9887 39.726 37.9891 39.726 23.9229V6.50853C39.726 6.02015 39.3514 5.61323 38.8648 5.5725L36.4233 5.36849C30.8258 4.90212 25.319 3.06235 20.4979 0.0487714C20.1934 -0.141664 19.8066 -0.141664 19.5021 0.0487714C14.6806 3.06235 9.17379 4.90212 3.5763 5.36886L1.13514 5.5725C0.648222 5.61323 0.273956 6.02015 0.273956 6.50853V23.9229C0.273956 38.3857 11.233 41.9526 19.454 47.825ZM2.15263 7.37265L3.73262 7.24092C9.43504 6.76538 15.0461 4.93808 20 1.94762C24.9535 4.93808 30.5649 6.76538 36.267 7.24092L37.8473 7.37265V23.9229C37.8473 36.6065 29.3959 39.328 19.9985 45.9111C11.7511 40.1863 2.15263 36.9375 2.15263 23.9229V7.37265Z" /><path d="M19.4525 40.9972C19.7938 41.2302 20.2235 41.2133 20.5474 40.9726C29.051 35.0867 34.09 33.1501 34.09 23.924V11.6037C34.09 11.1388 33.7499 10.7436 33.2901 10.6746C28.7945 9.99912 24.4681 8.60003 20.4308 6.51624C20.1402 6.36617 19.7941 6.38525 19.5278 6.53716C15.5018 8.60993 11.1893 10.0021 6.70988 10.6746C6.25012 10.7436 5.90997 11.1384 5.90997 11.6037V23.924C5.90997 33.237 11.4289 35.5226 19.4525 40.9972ZM7.78864 12.4047C11.6953 11.7439 15.4732 10.5554 19.0511 8.86568V22.6379C19.0511 23.1568 19.4716 23.5773 19.9905 23.5773C20.5093 23.5773 20.9298 23.1568 20.9298 22.6379V8.85688C24.5128 10.5506 28.2977 11.7424 32.2113 12.4047V23.924C32.2113 31.5598 28.6345 33.2245 20.9298 38.4353V30.1526C20.9298 29.6338 20.5093 29.2133 19.9905 29.2133C19.4716 29.2133 19.0511 29.6338 19.0511 30.1526V38.4624C11.8524 33.6704 7.78864 31.6225 7.78864 23.924V12.4047Z" /></svg>