<svg width="23" height="17" viewBox="0 0 23 17" fill="none" xmlns="http://www.w3.org/2000/svg"><path d="M21.2222 0.166664H1.7778C1.40945 0.166664 1.05618 0.312993 0.795712 0.57346C0.535245 0.833927 0.388916 1.1872 0.388916 1.55555V15.4444C0.388916 15.8128 0.535245 16.1661 0.795712 16.4265C1.05618 16.687 1.40945 16.8333 1.7778 16.8333H21.2222C21.5906 16.8333 21.9439 16.687 22.2043 16.4265C22.4648 16.1661 22.6111 15.8128 22.6111 15.4444V1.55555C22.6111 1.1872 22.4648 0.833927 22.2043 0.57346C21.9439 0.312993 21.5906 0.166664 21.2222 0.166664ZM20.1528 15.4444H2.93058L7.79169 10.4167L6.79169 9.45139L1.7778 14.6389V2.61111L10.4097 11.2014C10.67 11.4601 11.022 11.6053 11.3889 11.6053C11.7558 11.6053 12.1079 11.4601 12.3681 11.2014L21.2222 2.39583V14.5486L16.1111 9.4375L15.132 10.4167L20.1528 15.4444ZM2.68753 1.55555H20.0972L11.3889 10.2153L2.68753 1.55555Z"></path></svg>