<svg width="159" height="77" viewBox="0 0 159 77" fill="none" xmlns="http://www.w3.org/2000/svg"><path d="M130.095 46.8196C129.472 46.8196 128.964 46.3428 128.964 45.7524C128.964 45.7394 128.97 45.7264 128.97 45.7121V27.7073V27.6261L128.975 27.5494C129.034 27.0188 129.508 26.5992 130.09 26.5992C130.67 26.5992 131.153 27.0188 131.209 27.5494L131.216 27.6261V27.7073V45.7128C131.216 45.7264 131.22 45.7401 131.22 45.753C131.221 46.3428 130.714 46.8196 130.095 46.8196ZM132.198 23.2749H127.987C124.427 23.2749 124.215 26.1932 124.215 28.0755V45.338C124.215 47.2229 124.427 50.1419 127.987 50.1419H132.198C135.758 50.1419 135.976 47.2229 135.976 45.338V28.0755C135.977 26.1932 135.758 23.2749 132.198 23.2749Z" fill="#007BC4"/><path d="M52.9398 23.2749H62.6398V26.6109H58.024V50.1419H52.9398V23.2749Z" fill="#007BC4"/><path d="M63.3922 50.1406H68.3619L68.8392 42.9997H71.2386L71.7076 50.1406H76.6849L74.0302 23.2749H66.0444L63.3922 50.1406ZM69.019 40.047L69.8956 26.6063H70.1809L71.0517 40.047H69.019Z" fill="#007BC4"/><path d="M83.9663 40.7348V45.7914C83.9663 46.4818 84.4679 46.6786 84.7642 46.6786C85.2319 46.6786 85.5608 46.2525 85.5608 45.7914V39.5449C85.5608 38.7011 85.42 37.7834 83.5222 37.7834H81.4619V34.8267H83.5964C85.0495 34.8267 85.5608 34.4753 85.5608 32.8359V27.4897C85.5608 27.0305 85.2325 26.6115 84.7642 26.6115C84.4679 26.6115 83.9663 26.8025 83.9663 27.4897V31.8727H78.8776V28.0768C78.8776 26.1945 79.0996 23.2749 82.6552 23.2749H86.8718C90.4332 23.2749 90.6481 26.1939 90.6481 28.0768V32.3774C90.6481 35.2885 88.7216 36.0926 87.193 36.0173V36.2882C90.6053 36.205 90.6481 38.9713 90.6481 39.9339V45.3386C90.6481 47.2236 90.4332 50.1419 86.8718 50.1419H82.6552C79.0996 50.1419 78.8776 47.2242 78.8776 45.3386V40.7355H83.9663V40.7348Z" fill="#007BC4"/><path d="M93.9933 23.2749H105.759V50.1419H101.017V26.6109H98.7345V50.1419H93.9933V23.2749Z" fill="#007BC4"/><path d="M109.443 50.1422H114.525V41.0086H117.431C120.992 41.0086 121.559 38.0929 121.559 36.2047V28.0759C121.559 26.1935 120.992 23.2739 117.431 23.2739H109.443V50.1422ZM114.525 38.0467V26.6112H115.86C116.413 26.6112 116.813 27.11 116.813 27.9505V36.7081C116.813 37.5531 116.413 38.0474 115.86 38.0474H114.525V38.0467Z" fill="#007BC4"/><path d="M152.202 23.2749H158.817V50.1419H153.73V33.2932H153.548L150.928 50.1419H146.867L144.25 33.2932H144.07V50.1419H138.983V23.2749H145.587L148.89 42.156L152.202 23.2749Z" fill="#007BC4"/><path d="M42.0945 26.0057C42.0356 28.7298 41.7138 31.6046 41.3068 33.3207C41.4547 30.3627 41.1015 26.1856 40.429 22.9237C39.761 19.6611 37.8562 14.222 36.3404 11.6993C34.9449 14.0973 33.2173 18.8064 32.3145 22.8977C31.4047 26.9859 31.3791 31.9333 31.3791 33.4201C31.1366 32.1587 30.5338 27.7075 30.7072 23.2251C30.8506 19.5241 31.7003 15.7283 32.1674 13.9771C33.9468 8.14116 35.9648 4.41223 36.3404 3.81726C36.7198 4.41223 39.2619 9.00503 40.5781 13.8304C41.8872 18.6602 42.1476 23.2823 42.0945 26.0057ZM36.3724 46.8523C35.5854 45.3454 34.3537 42.4732 34.2392 38.0375C34.2065 33.7403 35.9015 30.0633 36.3986 29.2917C36.8427 30.0633 38.2945 33.2661 38.4704 37.6491C38.5907 41.9386 37.192 45.3135 36.3724 46.8523ZM42.559 13.8914C40.9543 6.75247 36.9214 0.946359 36.3724 0C35.4945 1.33088 32.2825 6.45564 30.6503 12.1435C28.8683 18.4842 28.606 24.1085 29.219 29.6528C29.8332 35.1894 32.1405 40.8747 32.1405 40.8747C33.3664 43.8631 35.2034 47.0582 36.3993 48.6294C38.1486 46.3183 42.1841 39.4275 43.4362 30.4212C44.1343 25.4159 44.1605 21.0278 42.559 13.8914Z" fill="#007BC4"/><path d="M26.5131 50.1361V58.5799C26.524 58.5689 26.5355 58.5591 26.5502 58.5455C29.457 55.6057 34.1745 55.6057 37.0845 58.5455C39.9971 61.4833 39.9971 66.2605 37.0845 69.1971C37.0737 69.2107 37.0634 69.2204 37.05 69.2341V69.2373C37.0314 69.2503 37.0186 69.2633 37.0071 69.2763C34.1003 72.1868 30.308 73.647 26.5131 73.647C22.7105 73.647 18.8945 72.1719 15.9903 69.2432C10.8709 64.0632 10.2566 56.0539 14.1654 50.203C14.6895 49.4118 15.298 48.6616 15.9903 47.9647C18.8951 45.0269 22.7105 43.5622 26.5131 43.5622V23.4185C11.878 23.4185 0 35.4165 0 50.203C0 65.0031 11.878 76.9979 26.5131 76.9979C34.1534 76.9979 41.0266 73.7294 45.8619 68.5137V50.1361H26.5131Z" fill="#007BC4"/><path d="M154.065 70.6519C154.065 73.2058 152.919 73.6605 150.004 73.6605H147.32V61.997H150.004V66.4982H150.453C153.09 66.4982 154.065 67.1217 154.065 69.4542V70.6519ZM131.67 64.2002H129.637V73.6689H127.084V64.2002H124.906V61.9866H131.67V64.2002ZM111.021 69.5009C111.021 71.8691 109.834 72.5069 107.193 72.5069V73.6605H104.583V72.5069C101.931 72.5069 100.73 71.8698 100.73 69.5009V65.8564C100.73 63.4759 101.883 62.8699 104.583 62.8699V61.997H107.193V62.8699C109.876 62.8699 111.021 63.4759 111.021 65.8564V69.5009ZM86.6921 64.2002H83.0213V66.4949H86.3075V68.7059H83.0213V71.4547H86.6921V73.6683H80.2521V61.9866H86.6921V64.2002ZM64.4346 73.6605H61.7485V68.5546H60.3703V73.6605H57.6868V61.997H60.3703V66.4982H61.7485V61.997H64.4346V73.6605ZM158.817 59.0884H52.9398V76.9997H158.817V59.0884ZM103.339 65.7817V69.5159C103.339 70.2011 103.556 70.357 104.148 70.357H104.582V64.9231H104.148C103.557 64.9231 103.339 65.0984 103.339 65.7817ZM150.6 68.5546H150.003V71.5996H150.6C151.203 71.5996 151.383 71.4463 151.383 70.7792V69.3756C151.383 68.7059 151.203 68.5546 150.6 68.5546ZM107.605 64.9231H107.192V70.357H107.605C108.202 70.357 108.418 70.1868 108.418 69.5009V65.7506C108.418 65.064 108.202 64.9231 107.605 64.9231Z" fill="#007BC4"/></svg>