<svg width="196" height="52" viewBox="0 0 196 52" fill="none" xmlns="http://www.w3.org/2000/svg"><path d="M51.757 0.672852H0.0957031V51.9413H51.757V0.672852Z" fill="#ED1A3A"/><path d="M43.4136 5.77998C42.2264 5.77998 41.3273 6.56164 40.8794 7.50097L34.3746 18.1286C33.9235 19.1115 33.5943 20.2157 33.5943 20.9466C33.5943 21.5998 33.6845 22.1769 33.9257 22.7088L40.9622 39.3907H13.638C12.6544 39.3907 11.8426 38.4103 11.8426 37.5052V8.76943C11.6358 4.84102 5.94647 4.84313 5.82117 8.89285L5.94546 39.3907C5.94546 42.7064 8.5284 45.3628 11.8426 45.3628H49.0967L40.0162 22.3042C39.7656 21.4458 39.654 20.6672 40.2648 19.6439L46.2724 9.94876C46.357 9.74658 46.4796 8.89173 46.4796 8.64602C46.3605 6.88554 44.9705 5.70222 43.4136 5.77998ZM28.6639 5.7937C27.2026 5.80342 25.743 6.80523 25.743 8.76943V29.3322C25.743 32.3182 21.6964 32.0724 21.6964 29.3322V8.76943C21.6964 4.84102 15.8408 4.84102 15.8408 8.76943V29.4968C15.8408 34.237 19.4074 37.3886 23.6645 37.3886C28.0374 37.3886 31.5917 34.237 31.5917 29.4968V8.76943C31.5917 6.76635 30.1252 5.78398 28.6639 5.7937Z" fill="white"/><path d="M61.8781 6.69775V20.2621C61.8781 23.6525 61.5304 25.5374 58.7487 25.5374C58.2287 25.5374 57.881 25.5374 57.361 25.3507V31.1889C58.401 31.5684 59.0964 31.5684 59.9673 31.5684C67.786 31.5684 68.1337 25.7271 68.1337 22.3337V12.5391H72.6508V31.1889H78.9033V6.69775H61.8781Z" fill="black"/><path d="M80.9895 6.69775L89.5036 24.4083L86.3774 31.1889H93.153L103.23 6.69775H96.4547L92.8053 17.0584L88.4605 6.69775H80.9895Z" fill="black"/><path d="M105.141 31.1889H111.397V20.6385L117.825 31.1889H125.816L116.957 18.567L125.643 6.69775H118.172L111.397 17.0584V6.69775H105.141V31.1889Z" fill="black"/><path d="M136.068 31.9444C144.407 31.9444 148.229 25.537 148.229 18.943C148.229 12.5387 144.407 6.13135 136.068 6.13135C127.902 6.13135 124.08 12.5387 124.08 18.943C124.08 25.537 127.902 31.9444 136.068 31.9444ZM136.068 26.1031C133.287 26.1031 130.508 23.6521 130.508 18.943C130.508 14.2339 133.287 11.9727 136.068 11.9727C139.022 11.9727 141.801 14.2339 141.801 18.943C141.801 23.6521 139.022 26.1031 136.068 26.1031Z" fill="black"/><path d="M151.358 6.69753V31.1887H157.438L166.125 16.4952V31.1887H172.208V6.69753H166.125L157.438 21.3941V6.69753H151.358ZM161.955 5.37873C164.562 5.37873 167.168 4.43628 168.386 1.60894L164.737 0.103516C164.214 1.98841 162.651 2.17503 161.955 2.17503C161.435 2.17503 159.697 1.98841 159.349 0.103516L155.703 1.60894C156.743 4.43628 159.524 5.37873 161.955 5.37873Z" fill="black"/><path d="M178.811 6.69775V20.2621C178.811 23.6525 178.46 25.5374 175.682 25.5374C175.162 25.5374 174.814 25.5374 174.291 25.3507V31.1889C175.334 31.5684 176.03 31.5684 176.897 31.5684C184.716 31.5684 185.064 25.7271 185.064 22.3337V12.5391H189.581V31.1889H195.836V6.69775H178.811Z" fill="black"/><path d="M57.4111 44.9335H58.2914V40.3893H63.4318V44.9335H64.312V36.0254H63.4318V39.6739H58.2914V36.0254H57.4111V44.9335Z" fill="black"/><path d="M66.5518 44.9335H71.3727V44.2181H67.432V40.3022H71.2161V39.5868H67.432V36.7439H71.3727V36.0254H66.5518V44.9335Z" fill="black"/><path d="M77.1741 44.9334H78.0449V43.7079H78.4114C81.3121 43.7079 82.5119 42.0035 82.5119 40.2181C82.5119 38.1279 80.955 36.7438 78.4114 36.7438H78.0449V35.6738H77.1741V36.7438H76.8201C74.2609 36.7438 72.7072 38.1279 72.7072 40.2181C72.7072 42.0035 73.9069 43.7079 76.8201 43.7079H77.1741V44.9334ZM78.0449 37.4592C80.955 37.4965 81.5941 38.8464 81.5941 40.2181C81.5941 42.358 80.1625 42.9148 78.0449 42.9895V37.4592ZM77.1741 42.9895C75.0565 42.9148 73.625 42.358 73.625 40.2181C73.625 38.8464 74.2609 37.4965 77.1741 37.4592V42.9895Z" fill="black"/><path d="M85.6914 44.9335H86.5372V36.7439H88.9241V36.0254H83.3076V36.7439H85.6914V44.9335Z" fill="black"/><path d="M89.9641 44.9335H90.9539L93.3409 41.0207H94.099V44.9335H94.9823V36.0254H92.9118C90.1959 36.0254 89.8043 37.8139 89.8043 38.6039C89.8043 40.1093 90.9915 41.0207 92.3886 40.9709L89.9641 44.9335ZM94.099 40.3022H92.8272C92.1067 40.3022 90.6751 40.2182 90.6751 38.5168C90.6751 36.8652 92.1913 36.7439 92.9118 36.7439H94.099V40.3022Z" fill="black"/><path d="M97.2346 44.9335H98.1148V40.3893H103.255V44.9335H104.135V36.0254H103.255V39.6739H98.1148V36.0254H97.2346V44.9335Z" fill="black"/><path d="M105.42 44.9332H106.303L107.537 42.0406H111.318L112.556 44.9332H113.436L109.411 35.7949L105.42 44.9332ZM107.857 41.3376L109.411 37.6923L111.002 41.3376H107.857Z" fill="black"/><path d="M114.454 44.9335H115.444L117.831 41.0207H118.589V44.9335H119.469V36.0254H117.402C114.686 36.0254 114.294 37.8139 114.294 38.6039C114.294 40.1093 115.481 41.0207 116.875 40.9709L114.454 44.9335ZM118.589 40.3022H117.317C116.594 40.3022 115.162 40.2182 115.162 38.5168C115.162 36.8652 116.681 36.7439 117.402 36.7439H118.589V40.3022Z" fill="black"/><path d="M124.697 44.9335H125.578V40.6194L129.603 44.9335H130.752L126.408 40.3395L130.68 36.0254H129.603L125.578 40.1809V36.0254H124.697V44.9335Z" fill="black"/><path d="M136.432 45.2132C139.101 45.2132 141.29 43.3065 141.29 40.4978C141.29 37.6923 139.101 35.7949 136.432 35.7949C133.8 35.7949 131.611 37.6923 131.611 40.4978C131.611 43.3065 133.8 45.2132 136.432 45.2132ZM136.432 44.4605C134.242 44.4605 132.529 42.8306 132.529 40.4978C132.529 38.165 134.242 36.501 136.432 36.501C138.624 36.501 140.372 38.165 140.372 40.4978C140.372 42.8306 138.624 44.4605 136.432 44.4605Z" fill="black"/><path d="M142.502 44.9334H143.348L144.178 38.3581L147.483 45.3347L150.75 38.3581L151.634 44.9334H152.426L151.192 35.6738L147.483 43.6333L143.737 35.6738L142.502 44.9334Z" fill="black"/><path d="M154.08 36.0254V44.9335H154.96V36.7439H160.101V44.9335H160.981V36.0254H154.08Z" fill="black"/><path d="M162.269 44.9332H163.149L164.383 42.0406H168.167L169.401 44.9332H170.282L166.256 35.7949L162.269 44.9332ZM164.703 41.3376L166.256 37.6923L167.848 41.3376H164.703Z" fill="black"/><path d="M171.531 44.9335H172.412V40.3893H177.552V44.9335H178.435V36.0254H177.552V39.6739H172.412V36.0254H171.531V44.9335Z" fill="black"/><path d="M180.672 36.0253V45.3347L186.818 37.8853V44.9334H187.686V35.6738L181.555 43.0734V36.0253H180.672Z" fill="black"/><path d="M189.669 44.9335H190.658L193.045 41.0207H193.803V44.9335H194.687V36.0254H192.619C189.9 36.0254 189.509 37.8139 189.509 38.6039C189.509 40.1093 190.696 41.0207 192.093 40.9709L189.669 44.9335ZM193.803 40.3022H192.532C191.811 40.3022 190.38 40.2182 190.38 38.5168C190.38 36.8652 191.896 36.7439 192.619 36.7439H193.803V40.3022Z" fill="black"/></svg>