<?xml version="1.0" encoding="utf-8"?>
<!-- Generator: Adobe Illustrator 23.0.1, SVG Export Plug-In . SVG Version: 6.00 Build 0)  -->
<svg version="1.1" id="Слой_1" xmlns="http://www.w3.org/2000/svg" xmlns:xlink="http://www.w3.org/1999/xlink" x="0px" y="0px"
	 viewBox="0 0 85 86.9" style="enable-background:new 0 0 85 86.9;" xml:space="preserve">
<style type="text/css">
	.st0{fill:#FD4D35;}
	.st1{fill:#FFFFFF;}
</style>
<path class="st0" d="M35.4,4.1c4.1-3.5,10.1-3.5,14.2,0c2.4,2.1,5.5,3,8.7,2.5c5.3-0.8,10.4,2.5,11.9,7.7c0.9,3,3,5.5,5.9,6.8
	C81,23.3,83.6,28.8,82,34c-0.9,3-0.4,6.3,1.3,8.9c2.9,4.5,2.1,10.5-2,14c-2.4,2.1-3.8,5.1-3.7,8.2c0,5.4-4,10-9.3,10.7
	c-3.1,0.4-5.9,2.2-7.6,4.9c-2.9,4.5-8.7,6.3-13.6,4c-2.9-1.3-6.2-1.3-9,0c-4.9,2.3-10.7,0.5-13.6-4c-1.7-2.7-4.5-4.4-7.6-4.9
	c-5.3-0.8-9.3-5.3-9.3-10.7C7.5,62,6.1,59,3.8,57c-4.1-3.5-4.9-9.5-2-14C3.4,40.3,3.9,37,3,34c-1.5-5.2,1-10.7,5.9-12.9
	c2.9-1.3,5-3.8,5.9-6.8c1.5-5.2,6.6-8.5,11.9-7.7C29.9,7.1,33,6.1,35.4,4.1z"/>
<path class="st1" d="M36.1,65.2c-0.9,0-2.1-0.4-3-1.3L18.2,51c-1.8-1.8-2-4.4-0.4-6c1.6-1.6,4.5-2.1,6.3-0.3L35.7,55L61,26.9
	c1.6-1.6,4.1-1.8,5.9-0.5l0.1,0.1c1.6,1.6,1.7,4.1,0.4,5.9L39.5,63.5C38.7,64.6,37.5,65.2,36.1,65.2z"/>
</svg>
