<svg xmlns="http://www.w3.org/2000/svg" viewBox="0 0 200 200" width="50" height="50"><rect fill="none" width="200" height="200"/><path d="M158.51,139.19c-11.23-4.72-45.84-15.86-45.84-15.86l-16.32,48h0c-1.21-8.23-3-20.66-3.85-28.64-.25-2.29,3.63-6.24,3.47-8.53-.12-1.73-1.6-5.83-3.3-6a98.94,98.94,0,0,0-16,0c-1.65.11-2.7,4.33-2.75,6,0,2,3.59,6.26,3.32,8.53-1.33,11.19-3.35,25.37-3.82,28.7L57.07,123.39s-34.61,11.14-45.84,15.86c-2.35,1-11.23,8.64-11.23,15v38H169.55V154.19C169.55,147.83,160.86,140.18,158.51,139.19Z"/><path d="M76.47,8.7c-5.76.62-9.77,1.89-12.55,4a20.75,20.75,0,0,0-3.12,3.6,14.52,14.52,0,0,1-5.93,5.42c-3.73,1.85-5.38,4.29-6.2,9-.55,3.25-.21,16.35.51,19.44s1,6.24.62,6.78a4.63,4.63,0,0,1-2.06.72c-4.18.66-5.24,4-4,12.69,1,7,2.61,10.21,6.14,12.55,2.09,1.4,2.16,1.54,3.77,6.41C57.14,100,63.89,108,72.84,112.07c5.59,2.57,7.57,3.05,12,3.08,3.81,0,4.35-.1,7.37-1.16,6.41-2.27,10.56-4.8,14.71-9A37,37,0,0,0,116,89.47c1.1-3.73,1.27-4,4.49-6.92,3.47-3.12,4.46-5.11,5.35-10.8s.86-9.6-.07-11.52a4.06,4.06,0,0,0-3.49-2.5,2.83,2.83,0,0,1-1.41-.45c-.58-.41-.58-.72-.2-3.87.24-1.85,1.85-11,2.09-13.06.68-6.41-.45-12.52-3.19-17.18a31,31,0,0,0-8.5-8.4A57.7,57.7,0,0,0,94.64,9.18,99.2,99.2,0,0,0,76.47,8.7Z"/><path d="M190.59,28.39H130.88l1.06,7.6h57.45a2.77,2.77,0,0,1,2.77,2.77V88.91a2.77,2.77,0,0,1-2.77,2.78H170.78l-16.15,15.92V91.69H124.35l-2.76,7.59h25.08v25.63l27.68-25.63h16.24A9.41,9.41,0,0,0,200,89.86v-52A9.41,9.41,0,0,0,190.59,28.39Z"/></svg>