<svg xmlns="http://www.w3.org/2000/svg" viewBox="0 0 200 200" width="50" height="50"><rect fill="none" width="200" height="200"/><rect x="35.88" y="40.73" width="81.6" height="8.04" rx="2.09"/><rect x="35.88" y="61.98" width="81.6" height="8.04" rx="2.09"/><path d="M78.49,125.73H37c-.62,0-1.12.94-1.12,2.09v3.86c0,1.15.5,2.09,1.12,2.09H78.49c.62,0,1.12-.94,1.12-2.09v-3.86C79.61,126.67,79.11,125.73,78.49,125.73Z"/><rect x="35.88" y="83.23" width="81.6" height="8.04" rx="2.09"/><rect x="35.88" y="104.48" width="81.6" height="8.04" rx="2.09"/><path d="M44.6,169a2.13,2.13,0,0,1-2.12-2.13,2.06,2.06,0,0,1,.25-1L53.3,146.11A2.13,2.13,0,0,1,55.17,145h0A2.14,2.14,0,0,1,57,146.12l3.4,6.43,3.83-6.89a2.1,2.1,0,0,1,1.83-1.09A2.2,2.2,0,0,1,68,145.62l4,6.8,3.47-6.68a2.15,2.15,0,0,1,1.86-1.15,2.2,2.2,0,0,1,1.88,1.1l4,7.25,3.9-7.23a2.11,2.11,0,0,1,1.87-1.12h0a2.18,2.18,0,0,1,1.87,1.12l3.49,6.55,8.29-16.08a2.13,2.13,0,0,1,3.78,1.95L96.21,157.8A2.13,2.13,0,0,1,94.34,159h0a2.12,2.12,0,0,1-1.87-1.12l-3.54-6.62-3.86,7.16a2.11,2.11,0,0,1-2.87.85,2,2,0,0,1-.85-.85l-4-7.18-3.4,6.61a2.12,2.12,0,0,1-2.85.92,2.15,2.15,0,0,1-.86-.83l-4-6.89-3.93,7.06a2.2,2.2,0,0,1-1.91,1.07A2.11,2.11,0,0,1,58.49,158l-3.4-6.36L46.48,167.9A2.14,2.14,0,0,1,44.6,169Z"/><path d="M111.56,155.47a2.12,2.12,0,0,1-2.12-2.12,2,2,0,0,1,.07-.54l6.67-25.45a2.2,2.2,0,0,1,.31-.68l46.93-67a2.12,2.12,0,0,1,2.93-.55L180.8,69a2.13,2.13,0,0,1,.56,3l-46.1,67.15a1.91,1.91,0,0,1-.53.53l-21.94,15.43A2.16,2.16,0,0,1,111.56,155.47Z"/><path d="M137.63,143.09,132,147.6l-.4.31V174.6a.16.16,0,0,1-.16.16H21.74a.16.16,0,0,1-.16-.16V25.4a.16.16,0,0,1,.16-.16H131.47a.16.16,0,0,1,.16.16V97.8l.4-.53,9.69-14V20.47A5.47,5.47,0,0,0,136.25,15H17a5.47,5.47,0,0,0-5.47,5.47V179.53A5.47,5.47,0,0,0,17,185H136.25a5.47,5.47,0,0,0,5.47-5.47V138.05Z"/></svg>