<svg xmlns="http://www.w3.org/2000/svg" viewBox="0 0 200 200" width="50" height="50"><rect fill="none" width="200" height="200"/><path d="M112.5,0A87.53,87.53,0,0,0,25.8,99.34h7.54a80,80,0,0,1-.79-8.12H62.29c.07,2.72.24,5.43.49,8.12h7.47c-.26-2.69-.44-5.4-.52-8.12h39.05v8.12h7.44V91.22h39a124.93,124.93,0,0,1-6.31,35.5,17,17,0,0,1,2.42,8.7v7.19h19.28a80.17,80.17,0,0,1-19.28,14.92v6.72s0,.63,0,1.7A87.52,87.52,0,0,0,112.5,0ZM86.09,11.92A124.87,124.87,0,0,0,74.24,32.39H54.38A79.29,79.29,0,0,1,86.09,11.92ZM62.29,83.78H32.55A79.74,79.74,0,0,1,48.12,39.83h23A131.74,131.74,0,0,0,62.29,83.78Zm46.49,0h-39a125.45,125.45,0,0,1,9.45-43.95h29.6Zm0-51.39H82.58A122.22,122.22,0,0,1,97.79,8.8a79.38,79.38,0,0,1,11-1.25Zm68.07,7.44a79.5,79.5,0,0,1,15.57,44H162.71a130.9,130.9,0,0,0-9-43.95Zm-6.26-7.44H150.57a130.72,130.72,0,0,0-11.84-20.54A79.52,79.52,0,0,1,170.62,32.39ZM116.22,7.55a86.33,86.33,0,0,1,11,1.25,126.24,126.24,0,0,1,15.13,23.59H116.22Zm0,76.23V39.83h29.52a124.09,124.09,0,0,1,9.52,44Zm37.43,51.39h0a137.41,137.41,0,0,0,9-43.95h29.81a79.74,79.74,0,0,1-15.57,43.95Z"/><path d="M44.44,173.59a13.21,13.21,0,1,0,13.2,13.2A13.22,13.22,0,0,0,44.44,173.59Zm0,19.81a6.61,6.61,0,1,1,6.6-6.61A6.62,6.62,0,0,1,44.44,193.4ZM33.07,173.6H3.49a2.12,2.12,0,0,0-2.12,2.12v6.43a2.12,2.12,0,0,0,2.12,2.13H27.2A17.4,17.4,0,0,1,33.07,173.6Zm80.41,0a13.21,13.21,0,1,0,13.2,13.2A13.21,13.21,0,0,0,113.48,173.59Zm0,19.81a6.61,6.61,0,1,1,6.6-6.61A6.61,6.61,0,0,1,113.48,193.4Zm34.41-19.81h-5.16V144.77a17,17,0,0,0-2.9-9.48l-12.92-19.14a17,17,0,0,0-14.06-7.46h-20a4.24,4.24,0,0,0-4.24,4.24v60.66H55.81a17.49,17.49,0,0,1,5.86,10.69H96.26a17.41,17.41,0,0,1,34.47,0h17.16a2.11,2.11,0,0,0,2.12-2.12v-6.45A2.12,2.12,0,0,0,147.89,173.59ZM126.76,139.1H100.33A2.11,2.11,0,0,1,98.21,137V122.33a2.13,2.13,0,0,1,2.12-2.12h16.1a2.12,2.12,0,0,1,1.74.89l10.33,14.67A2.11,2.11,0,0,1,126.76,139.1ZM78.49,169.35H4.25A4.24,4.24,0,0,1,0,165.11V146a4.24,4.24,0,0,1,4.24-4.24H78.49A4.24,4.24,0,0,1,82.73,146v19.09A4.24,4.24,0,0,1,78.49,169.35ZM33.94,135.41H4.25A4.24,4.24,0,0,1,0,131.17V112.08a4.24,4.24,0,0,1,4.24-4.24H33.94a4.24,4.24,0,0,1,4.25,4.24v19.09A4.24,4.24,0,0,1,33.94,135.41Zm44.55,0H48.79a4.24,4.24,0,0,1-4.24-4.24V112.08a4.24,4.24,0,0,1,4.24-4.24h29.7a4.24,4.24,0,0,1,4.24,4.24v19.09A4.24,4.24,0,0,1,78.49,135.41Z"/></svg>