<svg xmlns="http://www.w3.org/2000/svg" viewBox="0 0 200 200" width="50" height="50"><rect fill="none" width="200" height="200"/><rect x="35.88" y="40.73" width="81.6" height="8.04" rx="2.09"/><rect x="35.88" y="61.98" width="81.6" height="8.04" rx="2.09"/><rect x="35.88" y="83.23" width="81.6" height="8.04" rx="2.09"/><path d="M149,102.45a47.5,47.5,0,1,0,47.5,47.5A47.5,47.5,0,0,0,149,102.45Zm0,85a37.5,37.5,0,1,1,37.5-37.5A37.5,37.5,0,0,1,149,187.45Z"/><path d="M91.54,150c0-1,0-2,.08-3H38a2.1,2.1,0,0,0-2.1,2.09v3.86A2.1,2.1,0,0,0,38,155h53.8C91.63,153.35,91.54,151.66,91.54,150Z"/><path d="M96.89,125.73H38a2.1,2.1,0,0,0-2.1,2.09v3.86a2.1,2.1,0,0,0,2.1,2.09H93.87A57,57,0,0,1,96.89,125.73Z"/><path d="M113.86,104.48H38a2.1,2.1,0,0,0-2.1,2.09v3.86a2.1,2.1,0,0,0,2.1,2.09h67.43A57.9,57.9,0,0,1,113.86,104.48Z"/><path d="M97.49,175.41H21.74a.16.16,0,0,1-.16-.16V25.4a.16.16,0,0,1,.16-.16H131.47a.16.16,0,0,1,.16.16V95.14a57.16,57.16,0,0,1,10.09-2.21V20.47A5.47,5.47,0,0,0,136.25,15H17a5.47,5.47,0,0,0-5.47,5.47V179.53A5.47,5.47,0,0,0,17,185h86.52A57.09,57.09,0,0,1,97.49,175.41Z"/><polygon points="177.72 136.49 170.65 129.42 141.24 158.83 127.44 145.03 120.37 152.1 141.4 173.13 177.72 136.49"/></svg>