<svg width="70" height="70" viewBox="0 0 70 70" fill="none" xmlns="http://www.w3.org/2000/svg">
<g clip-path="url(#clip0)">
<path d="M44.8 67.76C49.4654 66.389 53.7949 64.0631 57.5136 60.9301C61.2324 57.797 64.2592 53.925 66.4021 49.56C63.7858 51.743 60.9076 53.5912 57.8341 55.062C54.8961 60.5325 50.3454 64.9659 44.8 67.76Z" fill="#480028" fill-opacity="0.8"/>
<path d="M50.9041 3.01C48.9466 2.0128 46.9038 1.19286 44.8 0.559998C46.8696 1.56131 48.8031 2.82212 50.5541 4.312C50.7923 4.04916 50.9353 3.71388 50.9601 3.36C50.954 3.24166 50.9352 3.12432 50.9041 3.01Z" fill="#480028"/>
<path d="M68.012 45.794C69.0496 42.8165 69.6853 39.7137 69.902 36.568C67.618 37.8973 65.2302 39.0397 62.7619 39.984C62.2229 44.3182 61.0089 48.5412 59.1639 52.5C62.4329 50.7211 65.4157 48.4605 68.012 45.794Z" fill="#480028" fill-opacity="0.9"/>
<path d="M52.57 3.892C52.457 4.46954 52.1911 5.00619 51.8 5.446C56.264 9.82775 59.5235 15.2859 61.2641 21.294C63.0323 20.522 64.7011 19.5396 66.2341 18.368C63.1653 12.3297 58.4213 7.30383 52.57 3.892Z" fill="#480028"/>
<path d="M70 34.16C70.0018 29.2589 68.9715 24.4124 66.976 19.936C65.3424 21.1338 63.5817 22.148 61.726 22.96C62.6643 26.6191 63.1347 30.3825 63.126 34.16C63.126 35.56 63.042 36.862 62.93 38.178C65.3635 37.2123 67.7061 36.0317 69.93 34.65C70 34.482 70 34.328 70 34.16Z" fill="#480028"/>
<path d="M39.41 0.476013C41.2041 2.47358 42.5968 4.79788 43.512 7.32201C45.4947 6.97372 47.4118 6.32208 49.196 5.39001C46.369 3.00043 43.015 1.31624 39.41 0.476013Z" fill="#480028"/>
<path d="M39.41 67.844C45.9705 66.1812 51.6221 62.0216 55.16 56.252C51.6062 57.6989 47.9009 58.7414 44.114 59.36C43.1698 62.4914 41.5658 65.3843 39.41 67.844Z" fill="#480028" fill-opacity="0.7"/>
<path d="M61.46 34.16C61.4774 30.612 61.0542 27.0756 60.2 23.632C56.1151 25.2025 51.8642 26.3016 47.53 26.908C47.698 29.246 47.796 31.668 47.796 34.16C47.796 36.96 47.684 39.634 47.474 42.224C52.164 41.5696 56.7752 40.4391 61.236 38.85C61.3963 37.2919 61.4711 35.7262 61.46 34.16Z" fill="#480028" fill-opacity="0.9"/>
<path d="M60.97 40.656C56.5209 42.2047 51.9301 43.3114 47.264 43.96C46.8648 48.5791 46.0066 53.147 44.702 57.596C48.8271 56.8382 52.8365 55.5488 56.63 53.76C58.8297 49.6785 60.2985 45.2436 60.97 40.656Z" fill="#480028" fill-opacity="0.8"/>
<path d="M50.512 6.53799C48.5393 7.72768 46.3666 8.54839 44.1 8.95999C45.8404 14.2303 46.9311 19.6934 47.348 25.228C51.5775 24.6199 55.7246 23.535 59.71 21.994C58.0597 16.1214 54.8865 10.7893 50.512 6.53799Z" fill="#480028"/>
<path d="M41.8461 7.56C39.8441 2.758 37.3941 0 35.0001 0C32.6061 0 30.1561 2.8 28.1541 7.616C30.4204 7.95318 32.7087 8.12164 35.0001 8.12C37.2928 8.10311 39.5811 7.91592 41.8461 7.56Z" fill="#480028"/>
<path d="M42.882 57.862C44.2539 53.3949 45.1548 48.7965 45.57 44.142C42.0632 44.573 38.5332 44.788 35.0001 44.786C31.4669 44.788 27.9369 44.573 24.4301 44.142C24.8453 48.7965 25.7462 53.3949 27.1181 57.862C32.3435 58.6461 37.6566 58.6461 42.882 57.862Z" fill="#480028" fill-opacity="0.7"/>
<path d="M27.734 59.64C29.806 65.17 32.438 68.32 35 68.32C37.562 68.32 40.194 65.17 42.266 59.64C37.444 60.2933 32.556 60.2933 27.734 59.64Z" fill="#480028" fill-opacity="0.6"/>
<path d="M45.696 25.424C45.2893 19.9075 44.2031 14.4623 42.462 9.21201C39.9944 9.60799 37.499 9.80463 35 9.80001C32.5009 9.80463 30.0055 9.60799 27.538 9.21201C25.7968 14.4623 24.7106 19.9075 24.304 25.424C27.8502 25.8907 31.4232 26.1246 35 26.124C38.5768 26.1246 42.1497 25.8907 45.696 25.424Z" fill="#480028" fill-opacity="0.9"/>
<path d="M45.7239 42.448C45.9339 39.83 46.0599 37.072 46.0599 34.16C46.0599 31.71 45.9759 29.372 45.8219 27.16C42.2324 27.6118 38.6178 27.8362 34.9999 27.832C31.3821 27.8362 27.7675 27.6118 24.1779 27.16C24.0239 29.4 23.9399 31.738 23.9399 34.16C23.9399 37.072 24.0659 39.83 24.2759 42.448C27.834 42.8846 31.4152 43.1043 34.9999 43.106C38.5846 43.1043 42.1659 42.8846 45.7239 42.448Z" fill="#480028" fill-opacity="0.8"/>
<path d="M22.736 43.96C18.0709 43.3205 13.4801 42.2232 9.03003 40.684C9.70475 45.262 11.1735 49.6871 13.37 53.76C17.1662 55.5295 21.1756 56.8001 25.298 57.54C23.9971 53.1092 23.1389 48.5602 22.736 43.96Z" fill="#480028" fill-opacity="0.6"/>
<path d="M30.59 67.844C28.4342 65.3843 26.8302 62.4914 25.886 59.36C22.0985 58.7369 18.3932 57.6897 14.84 56.238C18.3752 62.0129 24.0271 66.1778 30.59 67.844Z" fill="#480028" fill-opacity="0.5"/>
<path d="M30.59 0.476013C26.9801 1.31416 23.6211 2.99846 20.79 5.39001C22.5743 6.32208 24.4914 6.97372 26.474 7.32201C27.3935 4.79678 28.791 2.4724 30.59 0.476013Z" fill="#480028" fill-opacity="0.9"/>
<path d="M22.26 34.16C22.26 31.668 22.3581 29.246 22.5261 26.908C18.2156 26.2964 13.9885 25.1974 9.92605 23.632C8.62439 28.5934 8.24945 33.7525 8.82005 38.85C13.2809 40.4391 17.892 41.5696 22.582 42.224C22.4 39.634 22.26 36.96 22.26 34.16Z" fill="#480028" fill-opacity="0.7"/>
<path d="M25.9 8.96002C23.6362 8.56141 21.4637 7.755 19.488 6.58002C15.1219 10.8158 11.9493 16.1275 10.29 21.98C14.2755 23.5211 18.4225 24.606 22.652 25.214C23.07 19.6841 24.1608 14.2259 25.9 8.96002Z" fill="#480028" fill-opacity="0.8"/>
<path d="M25.2 67.76C19.6547 64.9659 15.1039 60.5325 12.166 55.062C9.09245 53.5912 6.21425 51.743 3.59802 49.56C5.74088 53.925 8.76772 57.797 12.4865 60.9301C16.2052 64.0631 20.5346 66.389 25.2 67.76Z" fill="#480028" fill-opacity="0.4"/>
<path d="M19.446 4.312C21.1969 2.82212 23.1305 1.56131 25.2 0.559998C23.0963 1.19286 21.0534 2.0128 19.096 3.01C19.0836 3.12634 19.0836 3.24366 19.096 3.36C19.105 3.70714 19.228 4.04168 19.446 4.312Z" fill="#480028" fill-opacity="0.8"/>
<path d="M18.2 5.446C17.8039 5.00777 17.5331 4.47099 17.416 3.892C11.5751 7.30804 6.84122 12.3335 3.78003 18.368C5.31304 19.5396 6.98175 20.522 8.75003 21.294C10.4866 15.2874 13.7412 9.82935 18.2 5.446Z" fill="#480028" fill-opacity="0.7"/>
<path d="M10.836 52.5C8.99109 48.5412 7.77707 44.3182 7.23802 39.984C4.7698 39.0397 2.38201 37.8973 0.0980225 36.568C0.314717 39.7137 0.950329 42.8165 1.98802 45.794C4.58431 48.4605 7.56703 50.7211 10.836 52.5Z" fill="#480028" fill-opacity="0.5"/>
<path d="M6.86005 34.16C6.85132 30.3825 7.32174 26.6191 8.26005 22.96C6.40362 22.1435 4.64297 21.1247 3.01005 19.922C1.01743 24.4038 -0.00819712 29.2552 4.93363e-05 34.16C4.93363e-05 34.328 4.93363e-05 34.482 4.93363e-05 34.65C2.22392 36.0316 4.56653 37.2123 7.00005 38.178C7.00005 36.862 6.86005 35.56 6.86005 34.16Z" fill="#480028" fill-opacity="0.6"/>
</g>
<defs>
<clipPath id="clip0">
<rect width="70" height="70" fill="none"/>
</clipPath>
</defs>
</svg>
