<svg width="15" height="14" viewBox="0 0 15 14" fill="white" xmlns="http://www.w3.org/2000/svg"><path fill-rule="evenodd" clip-rule="evenodd" d="M6.70601 0.0020752H6.71635L7.00098 0.00213623C9.28115 0.00213623 9.5514 0.0103149 10.4518 0.051239C11.2845 0.089325 11.7364 0.228455 12.0374 0.345337C12.4359 0.500122 12.7201 0.68515 13.0188 0.984039C13.3177 1.28296 13.5027 1.56763 13.6579 1.96616C13.7748 2.26682 13.9141 2.71872 13.952 3.55136C13.9929 4.45163 14.0018 4.72205 14.0018 7.00116C14.0018 9.28024 13.9929 9.55069 13.952 10.4509C13.9139 11.2836 13.7748 11.7355 13.6579 12.0362C13.5031 12.4347 13.3177 12.7185 13.0188 13.0172C12.7199 13.3161 12.4361 13.5011 12.0374 13.6559C11.7367 13.7733 11.2845 13.9121 10.4518 13.9502C9.55158 13.9911 9.28115 14 7.00098 14C4.72063 14 4.45038 13.9911 3.55013 13.9502C2.71748 13.9117 2.26558 13.7726 1.96437 13.6557C1.56584 13.5009 1.28117 13.3159 0.982272 13.017C0.683374 12.7181 0.498342 12.4342 0.343199 12.0355C0.226309 11.7348 0.0870007 11.2829 0.0491047 10.4502C0.00818412 9.54999 0 9.27954 0 6.99902C0 4.71851 0.00818412 4.44949 0.0491047 3.54922C0.0871786 2.71658 0.226309 2.26468 0.343199 1.96365C0.497986 1.56512 0.683374 1.28046 0.982272 0.981567C1.28117 0.682648 1.56584 0.49762 1.96437 0.342499C2.2654 0.225067 2.71748 0.0863037 3.55013 0.0480347C4.33794 0.0124512 4.64324 0.00177002 6.23487 0V0.00213623C6.38066 0.00189209 6.53726 0.00198364 6.70601 0.0020752ZM11.5596 1.42029C10.9938 1.42029 10.5348 1.87875 10.5348 2.4447C10.5348 3.0105 10.9938 3.46951 11.5596 3.46951C12.1254 3.46951 12.5844 3.0105 12.5844 2.4447C12.5844 1.87894 12.1254 1.41992 11.5596 1.41992V1.42029ZM2.61536 7.00281C2.61536 4.5809 4.57891 2.61728 7.0008 2.61719C9.42276 2.61719 11.3859 4.58084 11.3859 7.00281C11.3859 9.42477 9.42294 11.3875 7.00098 11.3875C4.57901 11.3875 2.61536 9.42477 2.61536 7.00281Z"/><path fill-rule="evenodd" clip-rule="evenodd" d="M6.99908 4.15723C8.5712 4.15723 9.84583 5.43163 9.84583 7.00386C9.84583 8.57591 8.5712 9.85049 6.99908 9.85049C5.42679 9.85049 4.15234 8.57591 4.15234 7.00386C4.15234 5.43163 5.42679 4.15723 6.99908 4.15723V4.15723Z"/></svg>
