<svg width="13" height="15" viewBox="0 0 13 15" fill="#1567BA" xmlns="http://www.w3.org/2000/svg"><path d="M9.1875 8.73438C9.1875 8.57031 9.02344 8.40625 8.85938 8.40625H6.78125V6.32812C6.78125 6.16406 6.61719 6 6.45312 6H5.79688C5.60547 6 5.46875 6.16406 5.46875 6.32812V8.40625H3.39062C3.19922 8.40625 3.0625 8.57031 3.0625 8.73438V9.39062C3.0625 9.58203 3.19922 9.71875 3.39062 9.71875H5.46875V11.7969C5.46875 11.9883 5.60547 12.125 5.79688 12.125H6.45312C6.61719 12.125 6.78125 11.9883 6.78125 11.7969V9.71875H8.85938C9.02344 9.71875 9.1875 9.58203 9.1875 9.39062V8.73438ZM12.25 3.8125C12.25 3.10156 11.6484 2.5 10.9375 2.5H9.625V1.07812C9.625 0.914062 9.46094 0.75 9.29688 0.75H8.20312C8.01172 0.75 7.875 0.914062 7.875 1.07812V2.5H4.375V1.07812C4.375 0.914062 4.21094 0.75 4.04688 0.75H2.95312C2.76172 0.75 2.625 0.914062 2.625 1.07812V2.5H1.3125C0.574219 2.5 0 3.10156 0 3.8125V13.4375C0 14.1758 0.574219 14.75 1.3125 14.75H10.9375C11.6484 14.75 12.25 14.1758 12.25 13.4375V3.8125ZM10.9375 13.2734C10.9375 13.3828 10.8555 13.4375 10.7734 13.4375H1.47656C1.36719 13.4375 1.3125 13.3828 1.3125 13.2734V5.125H10.9375V13.2734Z"/></svg>
