<svg width="48" height="60" viewBox="0 0 48 60" fill="#F87023" xmlns="http://www.w3.org/2000/svg"><path d="M23.8307 31.2535C23.6617 31.2535 23.4927 31.2535 23.4927 31.2535C17.5772 31.0864 12.6758 25.9053 12.6758 19.8886V11.0306C12.6758 4.8468 17.7462 0 23.8307 0C30.0842 0 34.9856 5.01393 34.9856 11.0306V20.0557C34.9856 23.0641 33.8025 25.9053 31.6054 28.078C29.4082 30.2507 26.704 31.2535 23.8307 31.2535ZM23.8307 2.00557C18.7603 2.00557 14.7039 6.01671 14.7039 11.0306V19.8886C14.7039 24.9025 18.5913 29.0808 23.4927 29.2479C26.0279 29.415 28.3941 28.4123 30.2532 26.7409C32.1124 25.0696 33.1265 22.7298 33.1265 20.2228V11.0306C32.9575 6.01671 28.9011 2.00557 23.8307 2.00557Z"/><path d="M26.5357 11.0307C25.1836 11.0307 23.8315 10.6964 22.3103 10.0279C17.2399 7.68805 14.3667 9.0251 14.3667 9.0251C13.8596 9.19223 13.1836 9.0251 13.0146 8.52371C12.8455 8.02231 13.0146 7.35379 13.5216 7.18666C13.6906 7.18666 17.2399 5.34822 23.1554 8.18945C28.2258 10.5293 32.4512 6.68527 32.6202 6.68527C32.9582 6.351 33.6343 6.351 34.1413 6.68527C34.4793 7.01953 34.4793 7.68805 34.1413 8.18945C33.8033 8.18945 30.761 11.0307 26.5357 11.0307Z"/><path d="M34.3091 18.7188C34.1401 18.7188 33.9711 18.7188 33.8021 18.7188C33.2951 18.5516 32.957 18.2174 32.957 17.716V10.8636C32.957 10.3622 33.2951 9.86084 33.8021 9.86084C33.9711 9.86084 34.1401 9.86084 34.3091 9.86084C36.1683 9.86084 37.6894 11.8664 37.6894 14.3734C37.5204 16.7132 36.1683 18.7188 34.3091 18.7188ZM34.9852 12.3678V16.2118C35.3232 15.7104 35.4922 15.0419 35.4922 14.2062C35.4922 13.5377 35.3232 12.7021 34.9852 12.3678Z"/><path d="M13.183 18.7184C11.3239 18.7184 9.80273 16.7129 9.80273 14.2059C9.80273 11.6989 11.3239 9.69336 13.183 9.69336C13.352 9.69336 13.521 9.69336 13.6901 9.69336C14.1971 9.86049 14.5351 10.1948 14.5351 10.6961V10.8633V17.5485C14.5351 18.0499 14.1971 18.3842 13.6901 18.5513C13.521 18.7184 13.352 18.7184 13.183 18.7184ZM12.507 12.3675C12.1689 12.7017 11.9999 13.5374 11.9999 14.2059C11.9999 15.0415 12.1689 15.7101 12.507 16.2115V12.3675Z"/><path d="M24.0002 37.4372C20.958 37.4372 18.5918 36.1001 18.5918 34.2617V29.2478C18.5918 28.9135 18.7608 28.5792 19.0988 28.4121C19.4369 28.245 19.7749 28.245 20.1129 28.4121C21.127 28.9135 22.3101 29.2478 23.4932 29.2478C25.0143 29.2478 26.7045 28.9135 28.0566 28.245C28.3946 28.0778 28.7326 28.0778 29.0707 28.245C29.4087 28.4121 29.5777 28.7464 29.5777 29.0806V34.2617C29.5777 36.1001 27.2115 37.4372 24.0002 37.4372ZM20.62 30.7519V34.2617C20.62 34.596 21.8031 35.4316 24.0002 35.4316C26.1974 35.4316 27.3805 34.596 27.3805 34.2617V30.5848C26.0284 31.0862 24.6763 31.2533 23.3242 31.2533C22.4791 31.2533 21.465 31.0862 20.62 30.7519Z"/><path d="M44.7885 60H3.21105C2.87302 60 2.53499 59.8329 2.36598 59.6658C2.19696 59.4987 2.02795 59.1644 2.19696 58.8301L6.2533 40.78C6.92936 37.6045 9.29555 35.2647 12.5068 34.429L19.2674 32.7577C19.6054 32.7577 19.9434 32.7577 20.1125 32.9248C20.2815 33.092 20.4505 33.4262 20.4505 33.7605V34.429C20.4505 34.7633 21.6336 35.5989 23.8308 35.5989C26.0279 35.5989 27.211 34.7633 27.211 34.429V33.7605C27.211 33.4262 27.3801 33.092 27.5491 32.9248C27.7181 32.7577 28.0561 32.5906 28.3941 32.7577L35.1547 34.429C38.197 35.2647 40.5632 37.6045 41.4082 40.78L45.4646 58.8301C45.4646 59.1644 45.4646 59.4987 45.2956 59.6658C45.4646 59.8329 45.1265 60 44.7885 60ZM4.56316 57.8273H43.6054L39.8871 41.1143C39.3801 38.7744 37.5209 36.936 35.1547 36.2675L29.5772 34.7633C29.0702 36.2675 27.042 37.4374 24.1688 37.4374C21.4646 37.4374 19.2674 36.2675 18.7603 34.7633L13.1829 36.2675C10.8167 36.936 8.95752 38.7744 8.45048 41.1143L4.56316 57.8273Z"/><path d="M34.8175 59.9998C34.3104 59.9998 33.9724 59.6655 33.8034 59.1642L32.1132 49.1363C31.9442 48.6349 32.4513 48.1335 32.9583 47.9664C33.4653 47.7992 33.9724 48.3006 34.1414 48.802L35.8315 58.8299C35.8315 59.3313 35.4935 59.8327 34.8175 59.9998Z"/><path d="M13.3515 59.9998C13.1825 59.9998 13.1825 59.9998 13.3515 59.9998C12.6755 59.8327 12.1684 59.3313 12.3374 58.8299L14.0276 48.802C14.1966 48.3006 14.7036 47.7992 15.2107 47.9664C15.7177 48.1335 16.2248 48.6349 16.0558 49.1363L14.3656 59.1642C14.1966 59.4984 13.8586 59.9998 13.3515 59.9998Z"/><path d="M24.0005 57.3257C23.8315 57.3257 23.4934 57.1585 23.3244 56.9914L20.7892 54.6516C20.4512 54.4844 20.4512 54.1502 20.4512 53.8159L22.9864 36.4343C22.9864 35.9329 23.4934 35.5986 24.0005 35.5986C24.5075 35.5986 25.0146 35.9329 25.0146 36.4343L27.5498 53.8159C27.5498 54.1502 27.5498 54.4844 27.2117 54.6516L24.6765 56.9914C24.5075 57.1585 24.3385 57.3257 24.0005 57.3257ZM22.4793 53.4816L24.0005 54.8187L25.5216 53.4816L24.0005 43.4538L22.4793 53.4816Z"/><path d="M46.9859 60.0002H1.01408C0.507042 60.0002 0 59.4988 0 58.9974C0 58.496 0.507042 57.9946 1.01408 57.9946H46.9859C47.493 57.9946 48 58.496 48 58.9974C48 59.4988 47.662 60.0002 46.9859 60.0002Z"/></svg>
