<svg width="51" height="45" viewBox="0 0 51 45" fill="#F87023" xmlns="http://www.w3.org/2000/svg"><path d="M51 9.43231C50.9021 9.43231 50.9021 9.43231 51 9.43231C50.9021 9.33406 50.9021 9.23581 50.8042 9.23581L42.5816 0.29476C42.4837 0.29476 42.4837 0.196507 42.3858 0.196507C42.19 0 42.0921 0 41.9942 0H9.00576C8.71209 0 8.41843 0.196507 8.32054 0.491266L0.195777 9.23581C0.195777 9.23581 0.195777 9.23581 0.0978887 9.33406C0.0978887 9.33406 0.0978887 9.33406 0 9.43231V9.53057V9.62882V9.72707V9.82533V9.92358C0 9.92358 0 9.92358 0 10.0218C0 10.0218 0 10.1201 0.0978887 10.1201C0.0978887 10.1201 0.0978887 10.2183 0.195777 10.2183L15.3685 26.7249L15.2706 26.8231C13.9002 28.3952 12.8234 29.5742 12.8234 30.8515V43.0349C12.8234 44.1157 13.7044 45 14.7812 45H30.5413C30.6392 45 30.737 45 30.737 45C32.5969 44.8035 33.9674 43.3297 33.9674 41.4629C33.9674 41.1681 33.9674 40.8734 33.8695 40.5786C35.0441 39.9891 35.8273 38.81 35.8273 37.4345C35.8273 36.7467 35.6315 36.1572 35.3378 35.6659C35.9251 34.9782 36.2188 34.1921 36.2188 33.3079C36.2188 32.3253 35.8273 31.5393 35.2399 30.9498C35.6315 30.4585 36.023 29.7707 36.023 28.5917C36.023 28.0022 35.8273 27.4127 35.5336 26.9214L50.8042 10.3166L50.9021 10.2183V10.1201V10.0218C50.9021 10.0218 50.9021 10.0218 50.9021 9.92358C51 9.62882 51 9.53057 51 9.43231ZM40.2322 1.57205L33.7716 8.64629L27.3109 1.57205H40.2322ZM25.5489 25.3493C25.7447 24.2686 25.9405 22.6965 25.8426 20.8297C25.5489 17.2926 23.7869 14.9345 21.6334 14.8362C20.7524 14.8362 20.1651 14.8362 19.7735 14.9345L18.4031 10.5131H32.7927L28.2898 25.2511H25.5489V25.3493ZM32.0096 8.94105H18.9904L25.4511 1.96507L32.0096 8.94105ZM17.2284 8.54803L10.7678 1.57205H23.6891L17.2284 8.54803ZM9.00576 1.96507L15.4664 8.94105H2.54511L9.00576 1.96507ZM2.54511 10.5131H16.6411L18.3052 16.0153C18.6967 17.4891 19.0883 20.2402 18.8925 21.2227C18.501 22.6965 17.5221 24.1703 16.3474 25.5459L2.54511 10.5131ZM33.7716 36.059C34.1631 36.452 34.3589 36.9432 34.3589 37.4345C34.3589 38.3188 33.6737 39.2031 32.7927 39.3996C32.5969 39.4978 32.4012 39.5961 32.3033 39.8908C32.2054 40.0873 32.2054 40.3821 32.3033 40.5786C32.499 40.8734 32.5969 41.1681 32.5969 41.5611C32.5969 42.6419 31.8138 43.4279 30.8349 43.5262H30.737H14.7812C14.5854 43.5262 14.3896 43.3297 14.3896 43.1332V30.9498C14.3896 30.3603 15.4664 29.083 16.4453 28.0022C18.0115 26.2336 19.8714 24.0721 20.4587 21.714C20.7524 20.3384 20.263 17.7838 20.0672 16.5065C20.3608 16.5065 20.8503 16.4083 21.5355 16.4083C22.906 16.4083 24.0806 18.3734 24.2764 21.0262C24.4722 23.286 23.9827 25.2511 23.7869 25.9389C23.6891 26.1354 23.7869 26.4301 23.8848 26.6266C24.0806 26.8231 24.2764 26.9214 24.4722 26.9214H32.9885C33.6737 26.9214 34.4568 27.7074 34.4568 28.5917C34.4568 29.6725 34.0653 30.0655 33.8695 30.262C33.5758 30.4585 33.4779 30.8515 33.4779 31.1463C33.4779 31.5393 33.6737 31.8341 34.0653 31.9323C34.3589 32.1288 34.7505 32.5218 34.7505 33.3079C34.7505 33.9956 34.4568 34.4869 33.9674 34.8799C33.7716 34.9782 33.6737 35.2729 33.6737 35.4694C33.5758 35.6659 33.5758 35.9607 33.7716 36.059ZM34.4568 25.7424C34.0653 25.4476 33.5758 25.3493 32.9885 25.3493H29.7582L34.261 10.6114H48.4549L34.4568 25.7424ZM35.5336 8.94105L41.9942 1.96507L48.4549 9.0393H35.5336V8.94105Z"/><path d="M7.63439 29.476C5.97028 29.476 4.50195 30.8515 4.50195 32.6201V41.9541C4.50195 43.7227 5.8724 45.0983 7.63439 45.0983C9.2985 45.0983 10.7668 43.7227 10.7668 41.9541V32.6201C10.6689 30.9498 9.2985 29.476 7.63439 29.476ZM9.20061 41.9541C9.20061 42.8384 8.51539 43.5262 7.63439 43.5262C6.75339 43.5262 6.06817 42.8384 6.06817 41.9541V32.6201C6.06817 31.7358 6.75339 31.048 7.63439 31.048C8.51539 31.048 9.20061 31.7358 9.20061 32.6201V41.9541Z"/></svg>
