<svg id="Слой_1" data-name="Слой 1" xmlns="http://www.w3.org/2000/svg" viewBox="0 0 200 230"><defs><style>.cls-1{fill:#eee;}.cls-2{fill:#ccc;}.cls-3{fill:#999;}</style></defs><title>no-image</title><rect class="cls-1" width="200" height="230"/><path class="cls-2" d="M100,59.83A55.17,55.17,0,1,0,155.17,115,55.17,55.17,0,0,0,100,59.83ZM51,115A48.78,48.78,0,0,1,63.31,82.59l68.87,69.3A49,49,0,0,1,51,115ZM137,147.1,68,78a49,49,0,0,1,69,69.13Z"/><path class="cls-3" d="M100.11,131.48A16.48,16.48,0,0,1,83.63,115a16.25,16.25,0,0,1,1.11-5.94L74.11,98.43H70.25v36.34h40.2l-4.4-4.4A16.5,16.5,0,0,1,100.11,131.48Z"/><path class="cls-3" d="M116.48,98.43l-3.3-6.59H86.71l7.71,7.69a16.49,16.49,0,0,1,21.17,21.12l14.16,14.12V98.43Zm6.7,10a3.3,3.3,0,1,1,3.29-3.3A3.3,3.3,0,0,1,123.18,108.4Z"/><path class="cls-3" d="M88.1,112.61a12.5,12.5,0,0,0-.23,2.39,12.24,12.24,0,0,0,12.24,12.24,11.74,11.74,0,0,0,2.39-.24Z"/><path class="cls-3" d="M112.11,117.41a12.71,12.71,0,0,0,.24-2.41,12.24,12.24,0,0,0-12.24-12.24,11.94,11.94,0,0,0-2.41.24Z"/></svg>