<svg width="232" height="69" viewBox="0 0 232 69" fill="none" xmlns="http://www.w3.org/2000/svg"><path d="M230 68C231.105 68 232 67.1046 232 66C232 64.8954 231.105 64 230 64V68ZM65.8441 33.8895C66.7972 34.4478 68.0224 34.1278 68.5807 33.1747C69.139 32.2216 68.8189 30.9964 67.8658 30.4381L65.8441 33.8895ZM1.97824 35.8324C1.0287 36.3967 0.716393 37.6239 1.28069 38.5735C1.845 39.523 3.07221 39.8353 4.02176 39.271L1.97824 35.8324ZM21.1325 26.7759L22.1542 28.4952L22.1544 28.4951L21.1325 26.7759ZM38.7533 16.3015L39.7753 18.0207L38.7533 16.3015ZM230 64H11.9824V68H230V64ZM12.9824 65V33.2414H8.98242V65H12.9824ZM37.7314 14.5823L20.1105 25.0567L22.1544 28.4951L39.7753 18.0207L37.7314 14.5823ZM20.1107 25.0566L1.97824 35.8324L4.02176 39.271L22.1542 28.4952L20.1107 25.0566ZM67.8658 30.4381L54.0686 22.3562L52.0469 25.8076L65.8441 33.8895L67.8658 30.4381ZM54.0686 22.3562L40.7806 14.5725L38.7588 18.024L52.0469 25.8076L54.0686 22.3562ZM39.7753 18.0207C39.4623 18.2067 39.073 18.208 38.7588 18.024L40.7806 14.5725C39.8382 14.0205 38.6702 14.0242 37.7314 14.5823L39.7753 18.0207ZM11.9824 64C12.5347 64 12.9824 64.4477 12.9824 65H8.98242C8.98242 66.6568 10.3256 68 11.9824 68V64Z" fill="url(#icon-logo-home)"/><path d="M25.0508 46.2129L21.1836 58H18.0684L23.3516 43.7812H25.334L25.0508 46.2129ZM28.2637 58L24.3867 46.2129L24.0742 43.7812H26.0762L31.3887 58H28.2637ZM28.0879 52.707V55.002H20.5781V52.707H28.0879ZM32.707 43.7812H38.0098C39.097 43.7812 40.0312 43.944 40.8125 44.2695C41.6003 44.5951 42.2057 45.0768 42.6289 45.7148C43.0521 46.3529 43.2637 47.1374 43.2637 48.0684C43.2637 48.8301 43.1335 49.4844 42.873 50.0312C42.6191 50.5716 42.2578 51.0241 41.7891 51.3887C41.3268 51.7467 40.7832 52.0332 40.1582 52.248L39.2305 52.7363H34.6211L34.6016 50.4512H38.0293C38.5436 50.4512 38.9701 50.36 39.3086 50.1777C39.6471 49.9954 39.901 49.7415 40.0703 49.416C40.2461 49.0905 40.334 48.7129 40.334 48.2832C40.334 47.8275 40.2493 47.4336 40.0801 47.1016C39.9108 46.7695 39.6536 46.5156 39.3086 46.3398C38.9635 46.1641 38.5306 46.0762 38.0098 46.0762H35.6367V58H32.707V43.7812ZM40.6562 58L37.4141 51.6621L40.5098 51.6426L43.791 57.8633V58H40.6562ZM57.1992 50.5586V51.2324C57.1992 52.3132 57.0527 53.2832 56.7598 54.1426C56.4668 55.002 56.0534 55.7344 55.5195 56.3398C54.9857 56.9388 54.3477 57.3978 53.6055 57.7168C52.8698 58.0358 52.0527 58.1953 51.1543 58.1953C50.2624 58.1953 49.4453 58.0358 48.7031 57.7168C47.9674 57.3978 47.3294 56.9388 46.7891 56.3398C46.2487 55.7344 45.8288 55.002 45.5293 54.1426C45.2363 53.2832 45.0898 52.3132 45.0898 51.2324V50.5586C45.0898 49.4714 45.2363 48.5013 45.5293 47.6484C45.8223 46.7891 46.2357 46.0566 46.7695 45.4512C47.3099 44.8457 47.9479 44.3835 48.6836 44.0645C49.4258 43.7454 50.2428 43.5859 51.1348 43.5859C52.0332 43.5859 52.8503 43.7454 53.5859 44.0645C54.3281 44.3835 54.9661 44.8457 55.5 45.4512C56.0404 46.0566 56.457 46.7891 56.75 47.6484C57.0495 48.5013 57.1992 49.4714 57.1992 50.5586ZM54.2402 51.2324V50.5391C54.2402 49.7839 54.1719 49.1198 54.0352 48.5469C53.8984 47.974 53.6966 47.4922 53.4297 47.1016C53.1628 46.7109 52.8372 46.418 52.4531 46.2227C52.069 46.0208 51.6296 45.9199 51.1348 45.9199C50.64 45.9199 50.2005 46.0208 49.8164 46.2227C49.4388 46.418 49.1165 46.7109 48.8496 47.1016C48.5892 47.4922 48.3906 47.974 48.2539 48.5469C48.1172 49.1198 48.0488 49.7839 48.0488 50.5391V51.2324C48.0488 51.9811 48.1172 52.6452 48.2539 53.2246C48.3906 53.7975 48.5924 54.2826 48.8594 54.6797C49.1263 55.0703 49.4518 55.3665 49.8359 55.5684C50.2201 55.7702 50.6595 55.8711 51.1543 55.8711C51.6491 55.8711 52.0885 55.7702 52.4727 55.5684C52.8568 55.3665 53.179 55.0703 53.4395 54.6797C53.6999 54.2826 53.8984 53.7975 54.0352 53.2246C54.1719 52.6452 54.2402 51.9811 54.2402 51.2324ZM60.6465 43.7812H63.127L66.7793 54.2207L70.4316 43.7812H72.9121L67.7754 58H65.7832L60.6465 43.7812ZM59.3086 43.7812H61.7793L62.2285 53.957V58H59.3086V43.7812ZM71.7793 43.7812H74.2598V58H71.3301V53.957L71.7793 43.7812ZM82.7852 46.2129L78.918 58H75.8027L81.0859 43.7812H83.0684L82.7852 46.2129ZM85.998 58L82.1211 46.2129L81.8086 43.7812H83.8105L89.123 58H85.998ZM85.8223 52.707V55.002H78.3125V52.707H85.8223ZM95.8125 50.793V53H90.2949V50.793H95.8125ZM105.734 54.2793C105.734 54.0254 105.695 53.7975 105.617 53.5957C105.546 53.3874 105.409 53.1986 105.207 53.0293C105.005 52.8535 104.722 52.681 104.357 52.5117C103.993 52.3424 103.521 52.1667 102.941 51.9844C102.297 51.776 101.685 51.5417 101.105 51.2812C100.533 51.0208 100.025 50.7181 99.582 50.373C99.1458 50.0215 98.8008 49.6146 98.5469 49.1523C98.2995 48.6901 98.1758 48.153 98.1758 47.541C98.1758 46.9486 98.306 46.4115 98.5664 45.9297C98.8268 45.4414 99.1914 45.0247 99.6602 44.6797C100.129 44.3281 100.682 44.0579 101.32 43.8691C101.965 43.6803 102.671 43.5859 103.439 43.5859C104.488 43.5859 105.402 43.7747 106.184 44.1523C106.965 44.5299 107.57 45.0475 108 45.7051C108.436 46.3626 108.654 47.1146 108.654 47.9609H105.744C105.744 47.5443 105.656 47.1797 105.48 46.8672C105.311 46.5482 105.051 46.2975 104.699 46.1152C104.354 45.9329 103.918 45.8418 103.391 45.8418C102.883 45.8418 102.46 45.9199 102.121 46.0762C101.783 46.2259 101.529 46.431 101.359 46.6914C101.19 46.9453 101.105 47.2318 101.105 47.5508C101.105 47.7917 101.164 48.0098 101.281 48.2051C101.405 48.4004 101.587 48.5827 101.828 48.752C102.069 48.9212 102.365 49.0807 102.717 49.2305C103.068 49.3802 103.475 49.5267 103.938 49.6699C104.712 49.9043 105.393 50.168 105.979 50.4609C106.571 50.7539 107.066 51.0827 107.463 51.4473C107.86 51.8118 108.16 52.2253 108.361 52.6875C108.563 53.1497 108.664 53.6738 108.664 54.2598C108.664 54.8783 108.544 55.4316 108.303 55.9199C108.062 56.4082 107.714 56.8216 107.258 57.1602C106.802 57.4987 106.258 57.7559 105.627 57.9316C104.995 58.1074 104.289 58.1953 103.508 58.1953C102.805 58.1953 102.111 58.1042 101.428 57.9219C100.744 57.7331 100.122 57.4499 99.5625 57.0723C99.0091 56.6947 98.5664 56.2129 98.2344 55.627C97.9023 55.041 97.7363 54.3477 97.7363 53.5469H100.676C100.676 53.9896 100.744 54.3639 100.881 54.6699C101.018 54.9759 101.21 55.2233 101.457 55.4121C101.711 55.6009 102.01 55.7376 102.355 55.8223C102.707 55.9069 103.091 55.9492 103.508 55.9492C104.016 55.9492 104.432 55.8776 104.758 55.7344C105.09 55.5911 105.334 55.3926 105.49 55.1387C105.653 54.8848 105.734 54.5983 105.734 54.2793ZM117.014 43.7812V58H114.094V43.7812H117.014ZM121.389 43.7812V46.0762H109.787V43.7812H121.389ZM123.059 43.7812H128.361C129.449 43.7812 130.383 43.944 131.164 44.2695C131.952 44.5951 132.557 45.0768 132.98 45.7148C133.404 46.3529 133.615 47.1374 133.615 48.0684C133.615 48.8301 133.485 49.4844 133.225 50.0312C132.971 50.5716 132.609 51.0241 132.141 51.3887C131.678 51.7467 131.135 52.0332 130.51 52.248L129.582 52.7363H124.973L124.953 50.4512H128.381C128.895 50.4512 129.322 50.36 129.66 50.1777C129.999 49.9954 130.253 49.7415 130.422 49.416C130.598 49.0905 130.686 48.7129 130.686 48.2832C130.686 47.8275 130.601 47.4336 130.432 47.1016C130.262 46.7695 130.005 46.5156 129.66 46.3398C129.315 46.1641 128.882 46.0762 128.361 46.0762H125.988V58H123.059V43.7812ZM131.008 58L127.766 51.6621L130.861 51.6426L134.143 57.8633V58H131.008ZM147.551 50.5586V51.2324C147.551 52.3132 147.404 53.2832 147.111 54.1426C146.818 55.002 146.405 55.7344 145.871 56.3398C145.337 56.9388 144.699 57.3978 143.957 57.7168C143.221 58.0358 142.404 58.1953 141.506 58.1953C140.614 58.1953 139.797 58.0358 139.055 57.7168C138.319 57.3978 137.681 56.9388 137.141 56.3398C136.6 55.7344 136.18 55.002 135.881 54.1426C135.588 53.2832 135.441 52.3132 135.441 51.2324V50.5586C135.441 49.4714 135.588 48.5013 135.881 47.6484C136.174 46.7891 136.587 46.0566 137.121 45.4512C137.661 44.8457 138.299 44.3835 139.035 44.0645C139.777 43.7454 140.594 43.5859 141.486 43.5859C142.385 43.5859 143.202 43.7454 143.938 44.0645C144.68 44.3835 145.318 44.8457 145.852 45.4512C146.392 46.0566 146.809 46.7891 147.102 47.6484C147.401 48.5013 147.551 49.4714 147.551 50.5586ZM144.592 51.2324V50.5391C144.592 49.7839 144.523 49.1198 144.387 48.5469C144.25 47.974 144.048 47.4922 143.781 47.1016C143.514 46.7109 143.189 46.418 142.805 46.2227C142.421 46.0208 141.981 45.9199 141.486 45.9199C140.992 45.9199 140.552 46.0208 140.168 46.2227C139.79 46.418 139.468 46.7109 139.201 47.1016C138.941 47.4922 138.742 47.974 138.605 48.5469C138.469 49.1198 138.4 49.7839 138.4 50.5391V51.2324C138.4 51.9811 138.469 52.6452 138.605 53.2246C138.742 53.7975 138.944 54.2826 139.211 54.6797C139.478 55.0703 139.803 55.3665 140.188 55.5684C140.572 55.7702 141.011 55.8711 141.506 55.8711C142.001 55.8711 142.44 55.7702 142.824 55.5684C143.208 55.3665 143.531 55.0703 143.791 54.6797C144.051 54.2826 144.25 53.7975 144.387 53.2246C144.523 52.6452 144.592 51.9811 144.592 51.2324ZM151.184 43.7812L154.152 50.2656L157.121 43.7812H160.314L155.637 52.8242V58H152.668V52.8242L147.98 43.7812H151.184ZM177.863 50.5684V56.2031C177.642 56.4701 177.3 56.7598 176.838 57.0723C176.376 57.3783 175.78 57.6419 175.051 57.8633C174.322 58.0846 173.439 58.1953 172.404 58.1953C171.486 58.1953 170.65 58.0456 169.895 57.7461C169.139 57.4401 168.488 56.9941 167.941 56.4082C167.401 55.8223 166.984 55.1061 166.691 54.2598C166.398 53.4069 166.252 52.4336 166.252 51.3398V50.4512C166.252 49.3574 166.392 48.3841 166.672 47.5312C166.958 46.6784 167.365 45.959 167.893 45.373C168.42 44.7871 169.048 44.3411 169.777 44.0352C170.507 43.7292 171.317 43.5762 172.209 43.5762C173.446 43.5762 174.462 43.778 175.256 44.1816C176.05 44.5788 176.656 45.1322 177.072 45.8418C177.495 46.5449 177.756 47.3522 177.854 48.2637H175.012C174.94 47.7819 174.803 47.362 174.602 47.0039C174.4 46.6458 174.11 46.3659 173.732 46.1641C173.361 45.9622 172.88 45.8613 172.287 45.8613C171.799 45.8613 171.363 45.9622 170.979 46.1641C170.601 46.3594 170.282 46.6491 170.021 47.0332C169.761 47.4173 169.562 47.8926 169.426 48.459C169.289 49.0254 169.221 49.6829 169.221 50.4316V51.3398C169.221 52.082 169.292 52.7396 169.436 53.3125C169.579 53.8789 169.79 54.3574 170.07 54.748C170.357 55.1322 170.708 55.4219 171.125 55.6172C171.542 55.8125 172.027 55.9102 172.58 55.9102C173.042 55.9102 173.426 55.8711 173.732 55.793C174.045 55.7148 174.296 55.6204 174.484 55.5098C174.68 55.3926 174.829 55.2819 174.934 55.1777V52.6582H172.258V50.5684H177.863ZM180.227 43.7812H185.529C186.617 43.7812 187.551 43.944 188.332 44.2695C189.12 44.5951 189.725 45.0768 190.148 45.7148C190.572 46.3529 190.783 47.1374 190.783 48.0684C190.783 48.8301 190.653 49.4844 190.393 50.0312C190.139 50.5716 189.777 51.0241 189.309 51.3887C188.846 51.7467 188.303 52.0332 187.678 52.248L186.75 52.7363H182.141L182.121 50.4512H185.549C186.063 50.4512 186.49 50.36 186.828 50.1777C187.167 49.9954 187.421 49.7415 187.59 49.416C187.766 49.0905 187.854 48.7129 187.854 48.2832C187.854 47.8275 187.769 47.4336 187.6 47.1016C187.43 46.7695 187.173 46.5156 186.828 46.3398C186.483 46.1641 186.05 46.0762 185.529 46.0762H183.156V58H180.227V43.7812ZM188.176 58L184.934 51.6621L188.029 51.6426L191.311 57.8633V58H188.176ZM204.719 50.5586V51.2324C204.719 52.3132 204.572 53.2832 204.279 54.1426C203.986 55.002 203.573 55.7344 203.039 56.3398C202.505 56.9388 201.867 57.3978 201.125 57.7168C200.389 58.0358 199.572 58.1953 198.674 58.1953C197.782 58.1953 196.965 58.0358 196.223 57.7168C195.487 57.3978 194.849 56.9388 194.309 56.3398C193.768 55.7344 193.348 55.002 193.049 54.1426C192.756 53.2832 192.609 52.3132 192.609 51.2324V50.5586C192.609 49.4714 192.756 48.5013 193.049 47.6484C193.342 46.7891 193.755 46.0566 194.289 45.4512C194.829 44.8457 195.467 44.3835 196.203 44.0645C196.945 43.7454 197.762 43.5859 198.654 43.5859C199.553 43.5859 200.37 43.7454 201.105 44.0645C201.848 44.3835 202.486 44.8457 203.02 45.4512C203.56 46.0566 203.977 46.7891 204.27 47.6484C204.569 48.5013 204.719 49.4714 204.719 50.5586ZM201.76 51.2324V50.5391C201.76 49.7839 201.691 49.1198 201.555 48.5469C201.418 47.974 201.216 47.4922 200.949 47.1016C200.682 46.7109 200.357 46.418 199.973 46.2227C199.589 46.0208 199.149 45.9199 198.654 45.9199C198.16 45.9199 197.72 46.0208 197.336 46.2227C196.958 46.418 196.636 46.7109 196.369 47.1016C196.109 47.4922 195.91 47.974 195.773 48.5469C195.637 49.1198 195.568 49.7839 195.568 50.5391V51.2324C195.568 51.9811 195.637 52.6452 195.773 53.2246C195.91 53.7975 196.112 54.2826 196.379 54.6797C196.646 55.0703 196.971 55.3665 197.355 55.5684C197.74 55.7702 198.179 55.8711 198.674 55.8711C199.169 55.8711 199.608 55.7702 199.992 55.5684C200.376 55.3665 200.699 55.0703 200.959 54.6797C201.219 54.2826 201.418 53.7975 201.555 53.2246C201.691 52.6452 201.76 51.9811 201.76 51.2324ZM214.68 43.7812H217.6V53.1758C217.6 54.2695 217.365 55.1908 216.896 55.9395C216.434 56.6882 215.793 57.2513 214.973 57.6289C214.159 58.0065 213.221 58.1953 212.16 58.1953C211.099 58.1953 210.155 58.0065 209.328 57.6289C208.508 57.2513 207.863 56.6882 207.395 55.9395C206.932 55.1908 206.701 54.2695 206.701 53.1758V43.7812H209.631V53.1758C209.631 53.8138 209.732 54.3346 209.934 54.7383C210.135 55.1419 210.425 55.4382 210.803 55.627C211.187 55.8158 211.639 55.9102 212.16 55.9102C212.694 55.9102 213.146 55.8158 213.518 55.627C213.895 55.4382 214.182 55.1419 214.377 54.7383C214.579 54.3346 214.68 53.8138 214.68 53.1758V43.7812ZM225.549 52.9316H221.926V50.6465H225.549C226.109 50.6465 226.564 50.5553 226.916 50.373C227.268 50.1842 227.525 49.9238 227.688 49.5918C227.85 49.2598 227.932 48.8854 227.932 48.4688C227.932 48.0456 227.85 47.6517 227.688 47.2871C227.525 46.9225 227.268 46.6296 226.916 46.4082C226.564 46.1868 226.109 46.0762 225.549 46.0762H222.941V58H220.012V43.7812H225.549C226.662 43.7812 227.616 43.9831 228.41 44.3867C229.211 44.7839 229.823 45.334 230.246 46.0371C230.669 46.7402 230.881 47.5443 230.881 48.4492C230.881 49.3672 230.669 50.1615 230.246 50.832C229.823 51.5026 229.211 52.0202 228.41 52.3848C227.616 52.7493 226.662 52.9316 225.549 52.9316Z" fill="url(#icon-logo-text)"/></svg>