<svg width="43" height="34" viewBox="0 0 43 34" fill="none" xmlns="http://www.w3.org/2000/svg"><path d="M41 34C42.1046 34 43 33.1046 43 32C43 30.8954 42.1046 30 41 30V34ZM40.0025 13.4318C40.9599 13.9827 42.1826 13.6532 42.7335 12.6958C43.2844 11.7384 42.9549 10.5157 41.9975 9.9648L40.0025 13.4318ZM0.991636 13.2038C0.0377325 13.7607 -0.284099 14.9855 0.272805 15.9394C0.829709 16.8933 2.05446 17.2151 3.00836 16.6582L0.991636 13.2038ZM13.0746 8.46552L14.0829 10.1927L14.0831 10.1926L13.0746 8.46552ZM32.5732 6.84914L33.5708 5.11566V5.11566L32.5732 6.84914ZM23.6459 2.29232L24.6544 4.01941L23.6459 2.29232ZM24.6489 2.28913L23.6514 4.02261L24.6489 2.28913ZM41 30H7.87534V34H41V30ZM8.87534 31V12.3448H4.87534V31H8.87534ZM22.6373 0.565235L12.066 6.73843L14.0831 10.1926L24.6544 4.01941L22.6373 0.565235ZM12.0662 6.73832L0.991636 13.2038L3.00836 16.6582L14.0829 10.1927L12.0662 6.73832ZM41.9975 9.9648L33.5708 5.11566L31.5757 8.58262L40.0025 13.4318L41.9975 9.9648ZM33.5708 5.11566L25.6464 0.555648L23.6514 4.02261L31.5757 8.58262L33.5708 5.11566ZM24.6544 4.01941C24.3448 4.2002 23.9621 4.20142 23.6514 4.02261L25.6464 0.555648C24.7142 0.0191995 23.5661 0.0228604 22.6373 0.565235L24.6544 4.01941ZM7.87534 30C8.42762 30 8.87534 30.4477 8.87534 31H4.87534C4.87534 32.6569 6.21848 34 7.87534 34V30Z" fill="url(#paint0_linear_100_593)"/><path d="M18.0508 15.2129L14.1836 27H11.0684L16.3516 12.7812H18.334L18.0508 15.2129ZM21.2637 27L17.3867 15.2129L17.0742 12.7812H19.0762L24.3887 27H21.2637ZM21.0879 21.707V24.002H13.5781V21.707H21.0879ZM25.707 12.7812H31.0098C32.097 12.7812 33.0312 12.944 33.8125 13.2695C34.6003 13.5951 35.2057 14.0768 35.6289 14.7148C36.0521 15.3529 36.2637 16.1374 36.2637 17.0684C36.2637 17.8301 36.1335 18.4844 35.873 19.0312C35.6191 19.5716 35.2578 20.0241 34.7891 20.3887C34.3268 20.7467 33.7832 21.0332 33.1582 21.248L32.2305 21.7363H27.6211L27.6016 19.4512H31.0293C31.5436 19.4512 31.9701 19.36 32.3086 19.1777C32.6471 18.9954 32.901 18.7415 33.0703 18.416C33.2461 18.0905 33.334 17.7129 33.334 17.2832C33.334 16.8275 33.2493 16.4336 33.0801 16.1016C32.9108 15.7695 32.6536 15.5156 32.3086 15.3398C31.9635 15.1641 31.5306 15.0762 31.0098 15.0762H28.6367V27H25.707V12.7812ZM33.6562 27L30.4141 20.6621L33.5098 20.6426L36.791 26.8633V27H33.6562Z" fill="url(#paint1_linear_100_593)"/>
<defs><linearGradient id="paint0_linear_100_593" x1="2" y1="4.20102" x2="55.7862" y2="4.91764" gradientUnits="userSpaceOnUse"><stop offset="0.513007" stop-color="#9ECB5D"/><stop offset="1" stop-color="#498837"/></linearGradient><linearGradient id="paint1_linear_100_593" x1="11" y1="12.9149" x2="39.5444" y2="13.6421" gradientUnits="userSpaceOnUse"><stop stop-color="#9ECB5D"/><stop offset="1" stop-color="#498837"/></linearGradient></defs></svg>