<svg width="18" height="18" viewBox="0 0 18 18" fill="none" xmlns="http://www.w3.org/2000/svg"><path d="M9 0.53125C10.5469 0.53125 12.0234 0.953125 13.3594 1.72656C14.6953 2.5 15.75 3.55469 16.5234 4.89062C17.2969 6.22656 17.7188 7.70312 17.7188 9.25C17.7188 10.832 17.2969 12.2734 16.5234 13.6094C15.75 14.9453 14.6953 16.0352 13.3594 16.8086C12.0234 17.582 10.5469 17.9688 9 17.9688C7.41797 17.9688 5.97656 17.582 4.64062 16.8086C3.30469 16.0352 2.21484 14.9453 1.44141 13.6094C0.667969 12.2734 0.28125 10.832 0.28125 9.25C0.28125 7.70312 0.667969 6.22656 1.44141 4.89062C2.21484 3.55469 3.30469 2.5 4.64062 1.72656C5.97656 0.953125 7.41797 0.53125 9 0.53125ZM16.5938 9.25C16.5938 7.87891 16.2422 6.61328 15.5742 5.45312C14.8711 4.29297 13.957 3.37891 12.7969 2.67578C11.6016 2.00781 10.3359 1.65625 8.96484 1.65625C7.59375 1.65625 6.32812 2.00781 5.16797 2.67578C4.00781 3.37891 3.09375 4.29297 2.42578 5.45312C1.72266 6.64844 1.40625 7.91406 1.40625 9.28516C1.40625 10.6562 1.72266 11.9219 2.42578 13.082C3.09375 14.2422 4.00781 15.1562 5.20312 15.8242C6.36328 16.5273 7.62891 16.8438 9 16.8438C10.3711 16.8438 11.6367 16.5273 12.7969 15.8242C13.957 15.1562 14.8711 14.2422 15.5742 13.0469C16.2422 11.8867 16.5938 10.6211 16.5938 9.25ZM13.3594 9.07422V9.10938C13.4297 9.17969 13.4648 9.28516 13.4648 9.39062C13.4648 9.53125 13.4297 9.60156 13.3594 9.67188L9.31641 13.7148C9.21094 13.8203 9.10547 13.8555 9 13.8555C8.85938 13.8555 8.78906 13.8203 8.71875 13.7148L4.67578 9.67188C4.57031 9.60156 4.53516 9.53125 4.53516 9.39062C4.53516 9.28516 4.57031 9.17969 4.67578 9.07422L4.88672 8.82812C4.95703 8.75781 5.0625 8.72266 5.20312 8.72266C5.30859 8.72266 5.41406 8.79297 5.51953 8.86328L8.40234 11.8516V5.17188C8.40234 5.06641 8.4375 4.96094 8.50781 4.89062C8.57812 4.82031 8.68359 4.75 8.82422 4.75H9.17578C9.28125 4.75 9.38672 4.82031 9.45703 4.89062C9.52734 4.96094 9.59766 5.06641 9.59766 5.17188V11.8516L12.5156 8.86328C12.5859 8.79297 12.6562 8.72266 12.7969 8.72266C12.9023 8.72266 13.0078 8.79297 13.1133 8.86328L13.3594 9.07422Z" fill="#5ACF28"/></svg>