<svg width="20" height="30" viewBox="0 0 20 30" fill="none" xmlns="http://www.w3.org/2000/svg"><path d="M9.99903 30C10.6462 30 11.1709 29.4753 11.1709 28.8281C11.1709 28.1809 10.6462 27.6562 9.99903 27.6562C9.35182 27.6562 8.82715 28.1809 8.82715 28.8281C8.82715 29.4753 9.35182 30 9.99903 30Z" fill="#DEE0E4"/><path d="M19.1979 9.12744C19.1594 4.08779 15.0476 0 9.99902 0C4.92656 0 0.799805 4.12676 0.799805 9.19922C0.799805 9.84645 1.32445 10.3711 1.97168 10.3711C2.61891 10.3711 3.14355 9.84645 3.14355 9.19922C3.14355 5.4191 6.21891 2.34375 9.99902 2.34375C13.7791 2.34375 16.8545 5.4191 16.8545 9.19922C16.8545 9.22008 16.855 9.24082 16.8561 9.26145C16.8324 11.9897 15.2022 14.4381 12.6889 15.5111C10.343 16.5127 8.82715 18.8319 8.82715 21.4196V24.1406C8.82715 24.7879 9.3518 25.3125 9.99902 25.3125C10.6462 25.3125 11.1709 24.7879 11.1709 24.1406V21.4196C11.1709 19.7722 12.128 18.2991 13.6092 17.6667C17.0064 16.2162 19.201 12.8925 19.2001 9.19893C19.2001 9.1749 19.1994 9.15111 19.1979 9.12744Z" fill="#DEE0E4"/></svg>