<svg width="20" height="21" viewBox="0 0 20 21" fill="none" xmlns="http://www.w3.org/2000/svg"><path d="M10 0.8125C8.24219 0.8125 6.64062 1.28125 5.15625 2.14062C3.67188 3 2.46094 4.17188 1.60156 5.65625C0.742188 7.14062 0.3125 8.78125 0.3125 10.5C0.3125 12.2578 0.742188 13.8594 1.60156 15.3438C2.46094 16.8281 3.67188 18.0391 5.15625 18.8984C6.64062 19.7578 8.24219 20.1875 10 20.1875C11.7188 20.1875 13.3594 19.7578 14.8438 18.8984C16.3281 18.0391 17.5 16.8281 18.3594 15.3438C19.2188 13.8594 19.6875 12.2578 19.6875 10.5C19.6875 8.78125 19.2188 7.14062 18.3594 5.65625C17.5 4.17188 16.3281 3 14.8438 2.14062C13.3594 1.28125 11.7188 0.8125 10 0.8125ZM5.46875 12.2188C5.3125 12.2188 5.19531 12.1797 5.11719 12.1016C5.03906 12.0234 5 11.9062 5 11.75V9.25C5 9.13281 5.03906 9.01562 5.11719 8.9375C5.19531 8.85938 5.3125 8.78125 5.46875 8.78125H10V6.00781C10 5.8125 10.0781 5.65625 10.2734 5.57812C10.4688 5.5 10.6641 5.53906 10.8203 5.69531L15.2734 10.1875C15.3516 10.2656 15.3906 10.3828 15.3906 10.5C15.3906 10.6562 15.3516 10.7344 15.2734 10.8125L10.8203 15.3047C10.6641 15.4609 10.4688 15.5 10.2734 15.4219C10.0781 15.3438 10 15.2266 10 14.9922V12.2188H5.46875Z" fill="#5ACF28"/></svg>