<svg id="Слой_1" data-name="Слой 1" xmlns="http://www.w3.org/2000/svg" viewBox="0 0 530 137"><defs><style>.cls-1{fill:#165427;}.cls-2{fill:#339b37;}.cls-3{fill:#a5c720;}.cls-4{fill:#185427;}.cls-5{fill:#185126;stroke:#195126;stroke-width:3px;}.cls-5,.cls-6{stroke-miterlimit:10;}.cls-6{fill:#727272;stroke:#727272;}</style></defs><title>icon-logo</title><g id="elements"><polygon class="cls-1" points="124.13 0 74.04 0 0 137 50.09 137 124.13 0"/><polygon class="cls-2" points="180.04 0 130.96 0 75.3 103.26 124.39 103.26 180.04 0"/><polygon class="cls-3" points="163.79 42.58 186.56 0 218.02 56.83 171.94 56.83 163.79 42.58"/><polygon class="cls-4" points="530 129.94 68 129.94 68.96 128.2 530 128.2 530 129.94"/><polygon class="cls-3" points="530 52.91 232.63 52.91 231.72 50.98 530 50.98 530 52.91"/></g><g id="text"><path class="cls-5" d="M194,115.52h-8.11L172,94.32h-7.15v21.2H158V69.12l6.91.3V87.81h6.75L185,68.24l7.12,1.14L177.83,90.72Z"/><path class="cls-5" d="M241.22,68.24l-22.16,47.28h-7.88l5-10.78L198.57,69.38l7.35-.46,14.21,28,14.32-30.58Z"/><path class="cls-5" d="M283.78,115.52h-6.91V73.69H254.44v41.83h-6.91V67.18h29.81l6.44,6.51Z"/><path class="cls-5" d="M380.67,115.52h-8.11l-13.83-21.2h-4.8v21.2H347V94.32h-4.81l-13.79,21.2h-8.11l16.12-24.8-14.2-21.34,6.21-3,14.22,21.4H347V66.38l6.91,3V87.81h4.4l14.23-21.4,6.21,3L364.54,90.72Z"/><path class="cls-5" d="M424.89,91.28l-6.27,6.51H395.38v17.73h-6.91V67.21h30.14l6.28,6.51Zm-6.91,0V73.72h-22.6V91.28Z"/><path class="cls-5" d="M469.69,109l-6.78,6.54H438.57L432.13,109h30.65V94.09H439l6.48-6.51h17.33V73.72H432.56L439,67.21h23.94l6.78,6.58Z"/><path class="cls-5" d="M517.19,109.05l-6.51,6.47H486.21l-6.51-6.47V73.79l6.58-6.58h24.34l6.57,6.58Zm-6.91,0V73.72H486.61V109Z"/></g><g id="Новополоцкое"><path class="cls-6" d="M310.8,41.41h-2.9V30.48H297.4V41.41h-2.9V18.63h2.9V28h10.5V18.63h2.9Z"/><path class="cls-6" d="M330.67,33.39c0,6.17-2.05,8.44-7.56,8.44s-7.59-2.27-7.59-8.44,2.05-8.45,7.59-8.45S330.67,27.25,330.67,33.39Zm-12.21,0c0,4.68,1.12,6.07,4.65,6.07s4.62-1.39,4.62-6.07-1.12-6.08-4.62-6.08S318.46,28.7,318.46,33.39Z"/><path class="cls-6" d="M345,33.19c3,.23,4,1.68,4,4.25,0,3.31-1.79,4.2-6.44,4.2-3.4,0-5.15,0-7.43-.2V25.36c2-.16,3.57-.19,6.54-.19,5,0,6.76.89,6.76,4.29,0,2.27-1,3.43-3.46,3.63Zm-3-1.06c2.77,0,3.76-.49,3.76-2.44s-1.09-2.31-4.19-2.31c-1.52,0-2.77,0-3.8,0v4.75Zm-4.23,7.26c1.16,0,2.68,0,4.39,0,3,0,4-.49,4-2.57s-1.09-2.71-4.19-2.71h-4.23Z"/><path class="cls-6" d="M367.79,33.39c0,6.17-2,8.44-7.55,8.44s-7.59-2.27-7.59-8.44,2-8.45,7.59-8.45S367.79,27.25,367.79,33.39Zm-12.21,0c0,4.68,1.13,6.07,4.66,6.07s4.62-1.39,4.62-6.07-1.12-6.08-4.62-6.08S355.58,28.7,355.58,33.39Z"/><path class="cls-6" d="M386,41.41h-2.77V27.61H375v13.8h-2.74V25.33H386Z"/><path class="cls-6" d="M405.61,33.39c0,6.17-2,8.44-7.56,8.44s-7.59-2.27-7.59-8.44,2.05-8.45,7.59-8.45S405.61,27.25,405.61,33.39Zm-12.21,0c0,4.68,1.12,6.07,4.65,6.07s4.62-1.39,4.62-6.07-1.12-6.08-4.62-6.08S393.4,28.7,393.4,33.39Z"/><path class="cls-6" d="M423.07,41.41h-2.81V27.54h-3.49c-1.39,0-1.89.53-2.08,2A43.94,43.94,0,0,1,413.14,38a4.93,4.93,0,0,1-5.05,3.56l-.3-2.15a3.34,3.34,0,0,0,2.84-2.24c.82-2.08,1.19-5.81,1.42-8.09.29-2.47,1.52-3.76,4.19-3.76h6.83Z"/><path class="cls-6" d="M442.7,33.39c0,6.17-2,8.44-7.55,8.44s-7.59-2.27-7.59-8.44,2-8.45,7.59-8.45S442.7,27.25,442.7,33.39Zm-12.21,0c0,4.68,1.13,6.07,4.66,6.07s4.62-1.39,4.62-6.07-1.13-6.08-4.62-6.08S430.49,28.7,430.49,33.39Z"/><path class="cls-6" d="M461.05,46.16l-.29-4.75H447.19V25.33h2.74V39.16h8V25.33h2.77V39.16h2.21v7Z"/><path class="cls-6" d="M474.12,33.09c3.6.33,4.52,2.74,6.6,8.32h-2.94c-2-5.09-2.77-7.23-6-7.27h-2.38a12.71,12.71,0,0,1,.14,1.56v5.71h-2.81V25.33h2.81v4.79A11.36,11.36,0,0,1,469.4,32h2.24c3.17,0,4.16-2.45,5.71-6.64h2.91c-1.82,4.79-2.74,7.3-6.14,7.66Z"/><path class="cls-6" d="M498.71,33.39c0,6.17-2,8.44-7.56,8.44s-7.59-2.27-7.59-8.44,2-8.45,7.59-8.45S498.71,27.25,498.71,33.39Zm-12.22,0c0,4.68,1.13,6.07,4.66,6.07s4.62-1.39,4.62-6.07-1.12-6.08-4.62-6.08S486.49,28.7,486.49,33.39Z"/><path class="cls-6" d="M505.37,34.74c.3,3.83,1.75,4.68,5.05,4.68A44.63,44.63,0,0,0,516,39l.26,1.88a19.68,19.68,0,0,1-6.23.89c-5.52,0-7.66-2.31-7.66-8.48s2.21-8.38,7.36-8.38c4.85,0,6.9,1.78,6.93,5.24,0,2.88-1.15,4.56-3.83,4.56Zm6.77-2.18c1.41,0,1.74-1.19,1.71-2.38,0-2-1.05-2.87-4-2.87-3.33,0-4.49,1.19-4.55,5.25Z"/></g></svg>