<svg width="71" height="28" viewBox="0 0 71 28" fill="white" xmlns="http://www.w3.org/2000/svg"><path fill-rule="evenodd" clip-rule="evenodd" d="M5.27603 7.2524H9.01433C9.88925 7.2524 10.6051 7.19934 11.427 7.19934C13.1768 7.19934 14.529 7.14627 16.1463 7.14627C18.5324 7.14627 19.8315 7.01362 21.2632 8.12793C22.4033 9.02999 22.8805 11.0729 22.0851 12.3995C21.767 12.9301 21.3162 13.1689 21.0511 13.5934C21.3428 13.8852 21.7935 14.0709 22.1912 14.6811C23.0131 15.9016 22.907 17.6261 22.2177 18.6078C21.5549 19.5894 20.7595 19.9078 19.5399 20.12C18.5589 20.3058 17.8961 20.3058 16.8886 20.3058C16.4379 20.3058 16.0402 20.3588 15.51 20.3588C11.374 20.3588 9.01433 20.4119 4.82532 20.4119C4.87834 20.5711 5.1965 20.8894 5.35557 21.0752C5.70024 21.4466 6.0449 21.818 6.44259 22.1364L7.0789 22.6936C7.68869 23.2242 8.72269 23.7548 9.43853 24.1262C10.446 24.6303 12.3814 25.1344 13.495 25.1344C15.669 25.1344 16.9947 24.9752 18.7975 24.0732C19.858 23.5426 20.8125 22.9589 21.6609 22.1099C22.0321 21.7119 21.7935 22.0303 22.3502 21.4201C23.2252 20.4384 24.2592 18.7139 24.6303 17.4934C24.7894 16.9363 25.1341 15.7954 25.1606 15.2648C25.2136 14.0179 25.3197 12.7178 24.975 11.4709C24.9485 11.3382 24.8955 11.2321 24.8689 11.0729C24.6568 10.1443 24.5508 9.90552 24.1266 8.97693C24.0471 8.79121 24.0471 8.76468 23.941 8.60549L23.3047 7.57077C23.1986 7.41159 23.1721 7.38506 23.0661 7.22587C22.801 6.77484 21.6344 5.60746 21.1837 5.2095C20.2292 4.38703 18.6915 3.61762 17.4984 3.21966C15.0327 2.3972 12.3814 2.58291 10.1014 3.40537C9.65064 3.56456 9.19992 3.80334 8.7492 4.01559C8.66966 4.06865 8.66966 4.06865 8.56361 4.12172C7.45008 4.73193 5.91234 5.89931 5.1965 6.98709C5.11696 7.09321 5.06393 7.2524 5.27603 7.2524ZM14.1313 12.3729L18.0287 12.3199C18.8771 12.3199 19.699 12.1607 19.699 11.0994C19.699 10.7545 19.5399 10.5157 19.3808 10.33C19.1687 10.1178 18.9036 10.0647 18.5059 10.0647H14.1313V12.3729ZM14.6615 15.2648H14.2108V17.4404L18.2143 17.3873C20.5209 17.3077 19.9641 15.6628 19.2748 15.3444C18.5854 15.0526 15.563 15.2648 14.6615 15.2648ZM12.8057 0.0624499C9.96879 0.248168 7.55613 0.991042 4.85183 3.24619C4.69275 3.37884 4.63973 3.45844 4.45414 3.59109C3.76481 4.12172 2.73081 5.52787 2.25358 6.27074C1.69681 7.09321 0.583279 9.34836 0.583279 10.2504C2.14753 10.4096 6.60167 10.2504 8.61664 10.1974C9.51807 10.1974 10.4195 10.1974 11.3209 10.1974V12.5056C8.9613 12.5056 6.62818 12.6382 4.32158 12.6117H0V15.5567C3.81783 15.5567 7.52962 15.4505 11.374 15.4505V17.52C9.49156 17.52 1.034 17.5465 0.636304 17.7588C0.530253 17.9975 0.742355 18.422 0.848406 18.7139C1.08702 19.4302 1.43169 20.1996 1.80286 20.8629C2.09451 21.3935 2.67779 22.2425 3.02245 22.6936C3.73829 23.5956 4.5867 24.365 5.51465 25.1079C5.75326 25.2936 5.96537 25.4263 6.23049 25.612C7.23798 26.2753 8.29849 26.859 9.49156 27.2304C9.7832 27.3365 10.0748 27.4161 10.4195 27.5222C13.0178 28.2916 16.3849 28.1059 18.9301 27.1508C20.4943 26.5671 21.5549 25.8773 22.801 24.8957C23.4903 24.3385 23.3842 24.3916 24.0471 23.7283C24.1531 23.6222 24.2592 23.516 24.3652 23.4099C24.4713 23.2772 24.4978 23.2242 24.6303 23.0915C24.9485 22.7732 25.4257 22.0568 25.6908 21.6854C26.6719 20.2262 27.4672 18.2098 27.7589 16.4587C27.918 15.5567 27.8915 15.4505 27.9445 14.7607C28.1831 12.6382 27.6263 9.93205 26.7779 8.15446C25.9029 6.29728 25.1341 5.1299 23.7554 3.75028C23.5433 3.53803 23.3577 3.37884 23.1191 3.16659C22.9865 3.06047 22.907 2.98087 22.7744 2.87475C22.6684 2.76862 22.5623 2.71556 22.4563 2.60944C21.0776 1.49513 18.3468 0.593074 17.3128 0.380824C15.8546 0.0624499 15.2448 -0.0967373 12.8057 0.0624499Z"/><path fill-rule="evenodd" clip-rule="evenodd" d="M64.2988 15.1812H66.2805C67.845 15.1812 68.5229 15.635 68.5229 17.0498C68.5229 18.3845 67.845 18.865 65.4982 18.865C64.5595 18.865 63.0211 18.7315 62.2128 18.4912L61.7696 20.5467C62.8647 20.7869 64.6638 21.0005 65.9415 21.0005C69.4094 21.0005 71 20.0929 71 17.3968C71 15.5282 70.4524 14.2736 68.1579 14.1668C70.3221 13.98 70.7393 12.8321 70.7393 11.1771C70.7393 8.93478 69.4877 8.00049 65.9415 8.00049C64.5335 8.00049 62.8908 8.24073 61.8217 8.45429L62.265 10.483C63.0211 10.2428 64.5335 10.0826 65.4722 10.0826C67.7407 10.0826 68.2622 10.483 68.2622 11.6042C68.2622 12.8321 67.7407 13.2058 66.1762 13.2058H64.2988V15.1812ZM53.0085 16.2223C51.9915 13.6329 50.74 10.6699 49.5927 8.24073H46.4376V20.7069H48.654V11.444C49.723 13.8465 50.9746 17.1299 51.9133 19.5857H53.7125C54.7033 17.1299 56.007 13.9266 57.1022 11.444V20.7335H59.3446V8.24073H56.346C55.2509 10.6432 53.9732 13.6329 53.0085 16.2223ZM41.0141 14.1134C43.2044 13.9266 43.5433 12.8855 43.5433 11.2305C43.5433 9.41527 42.9958 8.24073 40.5447 8.24073H34V20.7069H40.649C42.6047 20.7069 43.8041 19.7459 43.8041 17.29C43.8041 15.4481 43.3347 14.2202 41.0141 14.1134ZM36.2946 10.2428H40.0493C40.8316 10.2428 41.0923 10.6966 41.0923 11.711C41.0923 12.6453 40.8055 13.2058 40.0493 13.2058H36.3206V10.2428H36.2946ZM36.2946 15.1545H40.0754C40.9098 15.1545 41.327 15.8218 41.327 16.9964C41.327 18.1175 40.988 18.7582 40.1536 18.7582H36.2946V15.1545Z"/></svg>