<svg width="18" height="19" viewBox="0 0 18 19" fill="#CBCECF" xmlns="http://www.w3.org/2000/svg"><path fill-rule="evenodd" clip-rule="evenodd" d="M12.6529 15.2052C11.519 15.8215 10.2195 16.1716 8.83821 16.1716C4.41993 16.1716 0.838211 12.5898 0.838211 8.17157C0.838211 3.75329 4.41993 0.17157 8.83821 0.17157C13.2565 0.17157 16.8382 3.75329 16.8382 8.17157C16.8382 10.2402 16.0531 12.1255 14.7645 13.5456L17.3905 16.1716L15.5049 18.0572L12.6529 15.2052ZM14.1715 8.17157C14.1715 11.1171 11.7837 13.5049 8.83821 13.5049C5.89269 13.5049 3.50488 11.1171 3.50488 8.17157C3.50488 5.22605 5.89269 2.83824 8.83821 2.83824C11.7837 2.83824 14.1715 5.22605 14.1715 8.17157Z"/></svg>