<svg width="18" height="18" viewBox="0 0 18 18" fill="white" xmlns="http://www.w3.org/2000/svg"><path fill-rule="evenodd" clip-rule="evenodd" d="M7.55001 8.4707C7.34998 8.67072 7.13578 8.84793 6.91063 9.00232C7.23404 9.42762 7.57923 9.82285 7.94689 10.1905C8.31454 10.5582 8.70977 10.9033 9.13507 11.2268C9.28946 11.0016 9.46667 10.7874 9.6667 10.5874C11.4202 8.83386 14.2632 8.83386 16.0168 10.5874C17.0553 11.6259 17.5268 13.055 17.3352 14.4052C17.3192 14.4023 17.3512 14.408 17.3352 14.4052L16.815 17.3531C12.1411 16.5282 8.50451 14.9815 5.8302 12.3072C3.15588 9.63288 1.60914 5.9963 0.784332 1.3224L3.73223 0.802178C3.72939 0.786176 3.73506 0.818218 3.73223 0.802178C5.08237 0.610611 6.51151 1.08214 7.55001 2.12063C9.30353 3.87415 9.30353 6.71717 7.55001 8.4707ZM4.41911 3.79959C4.69539 4.74841 5.01371 5.61537 5.3762 6.40825C5.3956 6.39076 5.41464 6.37268 5.43332 6.35401C6.01783 5.7695 6.01783 4.82183 5.43332 4.23732C5.15229 3.95629 4.78732 3.81038 4.41911 3.79959ZM14.3378 13.7183C14.327 13.3501 14.1811 12.9851 13.9001 12.7041C13.3156 12.1196 12.3679 12.1196 11.7834 12.7041C11.7647 12.7227 11.7466 12.7418 11.7292 12.7612C12.522 13.1237 13.389 13.442 14.3378 13.7183Z"/></svg>