<svg width="18" height="16" viewBox="0 0 18 16" fill="white" xmlns="http://www.w3.org/2000/svg"><path d="M13.1667 0.916626H4.83333C2.33333 0.916626 0.666668 2.16663 0.666668 5.08329V10.9166C0.666668 13.8333 2.33333 15.0833 4.83333 15.0833H13.1667C15.6667 15.0833 17.3333 13.8333 17.3333 10.9166V5.08329C17.3333 2.16663 15.6667 0.916626 13.1667 0.916626ZM13.5583 5.99163L10.95 8.07496C10.4 8.51663 9.7 8.73329 9 8.73329C8.3 8.73329 7.59167 8.51663 7.05 8.07496L4.44167 5.99163C4.175 5.77496 4.13333 5.37496 4.34167 5.10829C4.55833 4.84163 4.95 4.79163 5.21667 5.00829L7.825 7.09163C8.45833 7.59996 9.53333 7.59996 10.1667 7.09163L12.775 5.00829C13.0417 4.79163 13.4417 4.83329 13.65 5.10829C13.8667 5.37496 13.825 5.77496 13.5583 5.99163Z"/></svg>