<svg width="65" height="16" viewBox="0 0 65 16" fill="white" xmlns="http://www.w3.org/2000/svg"><path d="M0.000453145 0.00262547C1.60597 0.00831604 3.21194 0.0036478 4.81786 0.00525284C4.81519 1.36621 4.81746 2.72718 4.81656 4.08817C4.82269 4.54593 4.80469 5.0042 4.82665 5.4619L4.82745 5.47245C4.83051 5.47016 4.83624 5.46538 4.8393 5.46281C5.12425 5.21472 5.37897 4.9329 5.63982 4.6594C6.93854 3.35473 8.21094 2.02493 9.50654 0.717246C9.74384 0.485848 9.96265 0.237526 10.199 0.00569057C11.706 0.000876427 13.2135 0.0122557 14.7206 0C13.1657 1.55486 11.6076 3.10624 10.0489 4.65718C11.0718 7.19925 12.0738 9.75057 13.0892 12.2961C13.1513 12.4192 13.1657 12.5728 13.2665 12.673C14.6623 8.45206 16.0464 4.22671 17.433 0.0030632C18.6323 0.00744057 19.832 0.00525284 21.0315 0.00393963C22.3616 4.03014 23.7001 8.05363 25.0308 12.0794C25.058 12.1445 25.058 12.2285 25.1236 12.2733C25.1304 8.1834 25.1271 4.09301 25.1248 0.00262547C27.0695 0.00875378 29.0139 0.00262737 30.9586 0.00569057C31.6485 2.33274 32.3531 4.65586 33.0482 6.98115C33.236 7.62937 33.4505 8.27042 33.6189 8.92435C33.6802 8.85528 33.7026 8.76603 33.7302 8.68163C34.6861 5.78812 35.653 2.89828 36.6059 0.00393963C38.463 0.00612831 40.3202 0.00612831 42.1774 0.00393963C42.1691 4.07277 42.1806 8.14208 42.1717 12.2109C42.1871 12.2118 42.2174 12.2131 42.2326 12.2134C42.5608 11.1485 42.9303 10.0958 43.2713 9.03464C44.0544 6.67248 44.827 4.30672 45.6118 1.94497C45.8157 1.2972 46.0463 0.657865 46.2443 0.00831699C47.4478 0.000437737 48.6516 0.00744152 49.8554 0.00525284C51.179 4.08685 52.5187 8.16316 53.8467 12.2434C53.9571 12.5644 54.0486 12.8916 54.1712 13.2086C55.6365 9.72595 57.0914 6.23888 58.5482 2.75232C57.0688 2.75403 55.5897 2.7505 54.1107 2.75403C54.112 1.83719 54.1147 0.920776 54.1094 0.00393963C57.7393 0.00612831 61.3696 0.00525284 65 0.00437737C63.201 4.41666 61.4187 8.83591 59.6258 13.2508C61.4139 13.2473 63.2018 13.253 64.9903 13.2482C64.982 13.9622 64.9477 14.676 64.9335 15.3906C64.9142 15.5832 64.9537 15.7846 64.8896 15.9719C63.7124 15.9508 62.5365 15.9872 61.36 15.9789C60.1498 15.9754 58.9395 15.9811 57.7297 15.9886C55.2373 15.9842 52.7454 16.0044 50.2536 15.9974C50.0636 15.4046 49.8658 14.8141 49.6781 14.2205C48.0895 14.2196 46.5012 14.2187 44.9131 14.2209C44.7207 14.8136 44.5232 15.4046 44.3332 15.9982C42.0155 15.9982 39.6978 15.9948 37.3802 16C37.3833 13.1386 37.3863 10.2769 37.3789 7.4156C37.3671 7.42836 37.3439 7.45389 37.332 7.4666C36.4676 10.3117 35.5939 13.1541 34.7312 15.9991C33.4396 15.9952 32.1478 15.9978 30.8562 15.9982C30.092 13.6009 29.3321 11.2021 28.5692 8.80473C28.4322 8.33465 28.2514 7.87689 28.1393 7.40112L28.0882 7.40067C28.093 10.2669 28.0856 13.1334 28.0921 16C25.8637 15.9938 23.6353 15.9991 21.4071 15.9974C21.2302 15.4011 21.0213 14.8145 20.8388 14.22C19.2491 14.22 17.6593 14.2191 16.0696 14.2205C15.8709 14.8118 15.6826 15.4068 15.4843 15.9987C13.3589 15.9965 11.2334 15.9969 9.10819 15.9987C8.12517 13.461 7.13987 10.9246 6.1585 8.38697C5.7463 8.76335 5.36854 9.17717 4.95531 9.55405C4.90403 9.61465 4.81213 9.66309 4.81786 9.75502C4.81564 11.8358 4.81701 13.9165 4.81746 15.9974C3.21149 15.9991 1.60597 15.9938 0 16C0.00436849 10.6674 0.00391395 5.33526 0.000453145 0.00262547ZM18.4323 6.95036C17.9618 8.46174 17.4435 9.95814 16.9707 11.4686C17.9596 11.4668 18.9483 11.4717 19.9372 11.466C19.5016 10.1389 19.0683 8.81134 18.631 7.48507C18.5636 7.30743 18.5388 7.1087 18.4323 6.95036ZM47.2689 6.96797C47.1604 7.37428 47.0128 7.76872 46.8898 8.17108C46.5331 9.26904 46.1759 10.3671 45.8224 11.4663C46.8076 11.4686 47.7933 11.4731 48.7785 11.4642C48.2857 9.96651 47.7937 8.4683 47.3123 6.96707L47.2689 6.96797Z"/></svg>