<svg width="69" height="27" viewBox="0 0 69 27" fill="white" xmlns="http://www.w3.org/2000/svg"><path fill-rule="evenodd" clip-rule="evenodd" d="M0 13.5C0 6.04406 15.4457 0 34.5 0C53.5539 0 69 6.04406 69 13.5C69 20.9559 53.5539 27 34.5 27C15.4461 27 0 20.9563 0 13.5ZM42.1948 14.6821C42.1901 14.6599 42.1787 14.6396 42.162 14.6239C42.1453 14.6082 42.1241 14.5978 42.1013 14.5941C41.1084 14.4521 40.1111 14.3408 39.111 14.2601C39.0521 14.2501 39.0105 14.1967 39.0494 14.0703C42.238 10.7881 43.4491 6.61166 41.8369 3.34407C41.8387 3.32918 41.8435 3.31478 41.851 3.3017C41.8585 3.28862 41.8685 3.27711 41.8806 3.26783C41.8926 3.25856 41.9064 3.25169 41.9211 3.24763C41.9359 3.24356 41.9513 3.24238 41.9665 3.24415C52.9391 4.54611 60.9505 8.6453 60.9505 13.5C60.9505 19.4026 49.1086 24.1878 34.5004 24.1878C19.8922 24.1878 8.04989 19.403 8.04989 13.5C8.04989 8.38322 16.9503 4.10572 28.8373 3.05777C28.8951 3.05969 28.9438 3.10312 28.9469 3.19227L26.366 17.095C26.3178 17.3393 26.3254 17.591 26.3882 17.8321C26.451 18.0732 26.5676 18.2977 26.7295 18.4895C26.8914 18.6814 27.0946 18.8359 27.3247 18.9419C27.5548 19.048 27.806 19.1029 28.0603 19.1029L28.1526 19.1075C30.4546 18.9903 32.9283 18.2874 35.2648 16.9678C35.927 16.5939 36.5642 16.1793 37.1728 15.7266C37.1903 15.7125 37.2117 15.7039 37.2342 15.7017C37.2567 15.6996 37.2794 15.7041 37.2993 15.7146C38.0775 16.2215 38.5253 16.8149 38.5253 17.4497C38.5253 18.312 37.6988 19.0987 36.3392 19.6955C34.7597 20.3887 32.4604 20.8245 29.9003 20.8245C27.7307 20.8245 25.7485 20.5113 24.2106 19.9887C24.1957 19.9861 24.1804 19.9864 24.1657 19.9896C24.1509 19.9928 24.1369 19.9988 24.1245 20.0073C24.1122 20.0158 24.1016 20.0266 24.0935 20.0391C24.0854 20.0516 24.08 20.0656 24.0774 20.0801L23.8582 21.2588C23.8545 21.2868 23.8617 21.3152 23.8783 21.3383C23.895 21.3615 23.9199 21.3776 23.9482 21.3836C27.0763 22.0957 30.6738 22.5008 34.5028 22.5008C39.2658 22.5008 43.1281 20.9894 43.1281 19.126C43.1281 18.4008 42.5444 17.7295 41.5513 17.1799C40.6812 16.7626 40.1332 16.2215 40.2675 15.8588C40.407 15.4825 41.2394 15.4222 42.2282 15.6828C42.2843 15.6901 42.3385 15.657 42.3586 15.5586L42.1948 14.6821ZM34.5 6.1728C34.5 6.24582 34.4976 6.31845 34.4929 6.38954C34.6186 8.86704 33.0528 12.1815 30.1918 14.9803C29.6239 15.5368 29.0191 16.0561 28.3813 16.5347C28.3561 16.5505 28.3256 16.5559 28.2964 16.5497C28.2367 16.5374 28.1978 16.4817 28.2084 16.4133L31.0124 1.31388C31.0109 1.28596 30.9989 1.25959 30.9786 1.23985C30.9584 1.22012 30.9314 1.20843 30.9028 1.20705C15.4489 1.91798 3.44984 7.15043 3.44984 13.5C3.44984 20.3345 17.3513 25.8748 34.5 25.8748C51.649 25.8748 65.5505 20.3345 65.5505 13.5C65.5505 6.66546 51.6494 1.12519 34.5 1.12519C33.9567 1.12519 33.4162 1.13096 32.8741 1.1421C32.8484 1.14221 32.8235 1.1507 32.8033 1.16622C32.7831 1.18174 32.7687 1.20341 32.7625 1.2278L32.4345 2.98975C32.4266 3.03702 32.4494 3.08198 32.4895 3.10542C33.0896 3.37482 33.598 3.80706 33.9544 4.35079C34.3108 4.89452 34.5002 5.5269 34.5 6.1728Z"/></svg>