<svg width="24" height="24" viewBox="0 0 24 24" fill="none" xmlns="http://www.w3.org/2000/svg"><path d="M16.5 11.625V10.875C16.5 10.6875 16.3125 10.5 16.125 10.5H7.875C7.64062 10.5 7.5 10.6875 7.5 10.875V11.625C7.5 11.8594 7.64062 12 7.875 12H16.125C16.3125 12 16.5 11.8594 16.5 11.625ZM7.875 9H16.125C16.3125 9 16.5 8.85938 16.5 8.625V7.875C16.5 7.6875 16.3125 7.5 16.125 7.5H7.875C7.64062 7.5 7.5 7.6875 7.5 7.875V8.625C7.5 8.85938 7.64062 9 7.875 9ZM23.1562 7.73438C23.0625 7.64062 22.125 6.89062 21 5.95312V4.5C21 3.70312 20.2969 3 19.5 3H17.2969C17.1094 2.85938 16.9219 2.71875 16.8281 2.625C15.7969 1.82812 14.0156 0 12 0C9.9375 0 8.20312 1.78125 7.125 2.625C7.03125 2.71875 6.84375 2.85938 6.65625 3H4.5C3.65625 3 3 3.70312 3 4.5V5.95312C1.82812 6.89062 0.890625 7.64062 0.796875 7.73438C0.328125 8.10938 0 8.85938 0 9.46875V21.75C0 23.0156 0.984375 24 2.25 24H21.75C22.9688 24 24 23.0156 24 21.75V9.46875C24 8.8125 23.6719 8.15625 23.1562 7.73438ZM12 1.5C12.9844 1.5 14.0625 2.29688 14.9531 3H9C9.89062 2.29688 10.9688 1.5 12 1.5ZM4.5 4.5H19.5V12.6562C17.9531 13.875 16.4062 15.0938 15.4219 15.8906C14.625 16.5469 13.0781 18.0469 12 18C10.875 18.0469 9.32812 16.5469 8.53125 15.8906C7.54688 15.0938 6 13.875 4.5 12.6562V4.5ZM1.5 9.46875C1.5 9.23438 1.59375 9.04688 1.73438 8.90625C1.82812 8.85938 2.29688 8.4375 3 7.92188V11.4375C2.4375 11.0156 1.92188 10.5938 1.5 10.2188V9.46875ZM22.5 21.75C22.5 22.1719 22.125 22.5 21.75 22.5H2.25C1.82812 22.5 1.5 22.1719 1.5 21.75V12.1406C3.46875 13.7812 6.14062 15.8906 7.59375 17.0625C8.57812 17.8594 10.2656 19.5469 12 19.5C13.6875 19.5469 15.375 17.8594 16.3594 17.0625C17.8125 15.8906 20.4844 13.7812 22.5 12.1406V21.75ZM22.5 10.2188C22.0312 10.5938 21.5156 11.0156 21 11.4375V7.92188C21.6562 8.4375 22.125 8.85938 22.2188 8.90625C22.3594 9.04688 22.5 9.23438 22.5 9.46875V10.2188Z" fill="#5ACF28"/></svg>