<svg width="17" height="14" viewBox="0 0 17 14" fill="none" xmlns="http://www.w3.org/2000/svg"><path d="M5.34616 14C11.7613 14 15.2701 8.61332 15.2701 3.94201C15.2701 3.78901 15.2701 3.6367 15.2599 3.48508C15.9425 2.98467 16.5317 2.36507 17 1.65529C16.3635 1.9413 15.6882 2.12878 14.9967 2.21146C15.7249 1.76973 16.2698 1.07487 16.5301 0.25624C15.8455 0.668035 15.0964 0.958224 14.3154 1.11428C13.7895 0.547548 13.094 0.172275 12.3365 0.0465293C11.579 -0.0792164 10.8017 0.0515763 10.1249 0.418668C9.44811 0.785759 8.90957 1.36868 8.59261 2.07723C8.27564 2.78579 8.19793 3.58046 8.37148 4.33829C6.9848 4.26779 5.62824 3.90255 4.38986 3.26627C3.15148 2.62998 2.05896 1.73689 1.1832 0.644941C0.737183 1.42314 0.600576 2.34438 0.801196 3.22108C1.00181 4.09778 1.52458 4.86402 2.26304 5.3638C1.70796 5.34732 1.16496 5.19555 0.68 4.92134V4.96614C0.68022 5.78229 0.958978 6.57324 1.46899 7.20483C1.97901 7.83642 2.68888 8.26976 3.4782 8.43137C2.96472 8.57333 2.42595 8.59408 1.90332 8.49202C2.12629 9.19436 2.56022 9.80854 3.14446 10.2487C3.7287 10.6888 4.43404 10.9329 5.16188 10.9469C4.43873 11.523 3.6106 11.9489 2.72487 12.2004C1.83914 12.4518 0.913194 12.5237 0 12.4121C1.59505 13.4495 3.45095 13.9998 5.34616 13.9972"/></svg>