<svg width="70" height="80" viewBox="0 0 70 80" fill="none" xmlns="http://www.w3.org/2000/svg"><path d="M69.9589 14.9693C69.9179 14.3967 69.5083 13.9468 68.9349 13.8241C54.64 11.3701 35.8805 0.286302 35.7166 0.163602C35.307 -0.0817965 34.8155 -0.0817965 34.4469 0.163602C34.2421 0.286302 15.4416 11.3701 1.14671 13.865C0.614233 13.9468 0.163677 14.3967 0.122717 14.9693C0.0817576 15.3783 -0.860314 25.6442 2.86701 38.8139C5.03787 46.544 8.39656 53.7014 12.8612 60C18.4317 67.8937 25.6815 74.5603 34.4469 79.7955C34.6517 79.9182 34.8565 79.9591 35.1022 79.9591C35.348 79.9591 35.5528 79.8773 35.7576 79.7546C44.2772 74.4785 51.4042 67.8119 56.8928 59.8773C61.2754 53.5378 64.6341 46.4213 66.8869 38.6912C70.6962 25.6033 69.9589 15.4192 69.9589 14.9693ZM64.4703 38.0368C62.2994 45.4806 59.0227 52.3926 54.8038 58.4867C49.6429 65.9305 43.0074 72.229 35.0613 77.2597C26.9103 72.2699 20.152 66.0123 14.9501 58.6094C10.6493 52.5562 7.41353 45.6851 5.28363 38.2413C2.29358 27.7301 2.41646 18.9366 2.53934 16.1554C15.7693 13.5378 31.6207 4.66258 35.0203 2.69939C38.42 4.66258 54.2304 13.5378 67.4603 16.1145C67.5832 18.9366 67.5013 27.5665 64.4703 38.0368Z" fill="#FE8C27"/><path d="M27.5654 56.6871C27.893 56.6871 28.2207 56.5644 28.4665 56.319L59.0633 25.2352C59.5548 24.7444 59.5548 23.9673 59.0633 23.4765L54.4349 18.8957C54.1891 18.6503 53.8614 18.5276 53.5338 18.5276C53.2061 18.5276 52.8784 18.6503 52.6326 18.8957L27.2377 44.6217L22.1177 40.1227C21.872 39.9182 21.5443 39.7955 21.1757 39.8364C20.848 39.8773 20.5203 40.0409 20.3155 40.2863L15.9738 45.5624C15.5642 46.0941 15.6051 46.8712 16.1376 47.2802L26.7462 56.3599C26.9919 56.5644 27.2786 56.6871 27.5654 56.6871ZM21.4624 42.863L26.5414 47.2802C27.0329 47.7301 27.7702 47.6892 28.2617 47.1984L53.5747 21.5542L56.4419 24.3763L27.5244 53.7423L18.7181 46.2168L21.4624 42.863Z" fill="#292B2C"/><path d="M33.832 29.8159C33.832 30.5112 34.4055 31.0429 35.0608 31.0429C35.7572 31.0429 36.2896 30.4703 36.2896 29.8159V12.638C36.4535 12.7607 36.5763 12.8834 36.7402 13.0061C39.2387 14.8057 42.4745 16.3599 46.3657 17.6687C46.4886 17.7096 46.6115 17.7505 46.7753 17.7505C47.3078 17.7505 47.7993 17.4233 47.9631 16.8916C48.1679 16.2372 47.8402 15.5419 47.1849 15.2965C38.7472 12.4744 36.1258 9.07974 36.0848 9.03884C36.0848 9.03884 36.0848 9.03884 36.0439 8.99794C36.0029 8.95704 35.9619 8.91614 35.921 8.87524L35.88 8.83434C35.8391 8.79344 35.7572 8.75254 35.7162 8.71164C35.6752 8.71164 35.6752 8.67074 35.6343 8.67074C35.5933 8.67074 35.5933 8.62984 35.5524 8.62984C35.5524 8.62984 35.5114 8.62984 35.5114 8.58894C35.4704 8.58894 35.4704 8.58894 35.4295 8.54804C35.3885 8.54804 35.3066 8.50714 35.2656 8.50714H35.2247C35.1428 8.50714 35.1018 8.50714 35.0199 8.50714C34.9789 8.50714 34.9789 8.50714 34.938 8.50714C34.897 8.50714 34.856 8.50714 34.7741 8.50714C34.7332 8.50714 34.7332 8.50714 34.6922 8.50714C34.6103 8.50714 34.5693 8.54804 34.4874 8.58894C34.4874 8.58894 34.4874 8.58894 34.4464 8.58894C34.4055 8.62984 34.3236 8.62984 34.2826 8.67074C34.2826 8.67074 34.2826 8.67074 34.2416 8.67074C34.2416 8.67074 34.2416 8.67074 34.2007 8.71164L34.1597 8.75254C34.1597 8.91614 23.8379 17.3824 9.82971 20.5726C9.25628 20.6953 8.84668 21.1861 8.84668 21.7996C8.84668 22.2086 8.84668 32.3108 12.3282 40.4499C12.533 40.9407 12.9836 41.227 13.4751 41.227C13.639 41.227 13.8028 41.1861 13.9666 41.1452C14.581 40.8589 14.9087 40.1636 14.622 39.5092C11.9596 33.2515 11.4681 25.4806 11.3862 22.7812C21.9128 20.1636 30.1866 14.8875 33.832 12.2699V29.8159Z" fill="#FE8C27"/><path d="M59.9646 29.7342C59.3092 29.5706 58.6129 30.0205 58.49 30.6749C58.49 30.7567 57.0155 37.0552 53.2881 44.9489C50.1343 51.6974 44.6866 60.8589 36.3309 67.5665V55.3783C36.3309 54.683 35.7574 54.1513 35.1021 54.1513C34.4058 54.1513 33.8733 54.7239 33.8733 55.3783V67.4847C27.2788 62.0859 25.3946 59.591 25.3537 59.5501C24.9441 58.9775 24.1658 58.8548 23.6334 59.2638C23.0599 59.6728 22.9371 60.4499 23.3467 61.0225C23.4286 61.1452 25.7633 64.2536 34.3648 71.0839C34.4467 71.1248 34.4877 71.1657 34.5696 71.2066C34.5696 71.2066 34.6106 71.2066 34.6106 71.2475C34.6925 71.2884 34.7334 71.2884 34.8154 71.3293C34.8563 71.3293 34.8563 71.3293 34.8973 71.3293C34.9792 71.3293 35.0611 71.3702 35.143 71.3702C35.2249 71.3702 35.3069 71.3702 35.3888 71.3293H35.4297C35.5117 71.3293 35.5936 71.2884 35.6345 71.2475C35.6345 71.2475 35.6755 71.2475 35.6755 71.2066C35.7165 71.1657 35.7574 71.1657 35.7984 71.1248C45.7106 64.0491 52.0184 53.5788 55.5409 46.0532C59.3502 37.9141 60.8247 31.5338 60.9066 31.2475C61.0295 30.5522 60.6199 29.8569 59.9646 29.7342Z" fill="#FE8C27"/></svg>