<svg width="12" height="19" viewBox="0 0 12 19" fill="none" xmlns="http://www.w3.org/2000/svg"><path d="M7.125 14.875C7.125 14.2773 6.59766 13.75 6 13.75C5.36719 13.75 4.875 14.2773 4.875 14.875C4.875 15.5078 5.36719 16 6 16C6.59766 16 7.125 15.5078 7.125 14.875ZM11.625 1.9375C11.625 1.02344 10.8516 0.25 9.9375 0.25H2.0625C1.11328 0.25 0.375 1.02344 0.375 1.9375V16.5625C0.375 17.5117 1.11328 18.25 2.0625 18.25H9.9375C10.8516 18.25 11.625 17.5117 11.625 16.5625V1.9375ZM10.5 1.9375V16.5625C10.5 16.8789 10.2188 17.125 9.9375 17.125H2.0625C1.74609 17.125 1.5 16.8789 1.5 16.5625V1.9375C1.5 1.65625 1.74609 1.375 2.0625 1.375H9.9375C10.2188 1.375 10.5 1.65625 10.5 1.9375Z"/></svg>
