<svg width="52" height="52" viewBox="0 0 52 52" fill="none" xmlns="http://www.w3.org/2000/svg"><path d="M7.12726 23.6256L3.32885 10.313C3.17486 9.78047 3.1492 9.24797 3.22619 8.6901C3.30319 8.25903 2.99521 7.82796 2.53324 7.75188C2.09693 7.67581 1.66063 7.9801 1.58363 8.43653C1.45531 9.19725 1.50664 9.98333 1.71196 10.744L5.53604 24.082C5.6387 24.437 5.97234 24.6652 6.33165 24.6652C6.40864 24.6652 6.48564 24.6652 6.56263 24.6399C6.99894 24.5131 7.25559 24.082 7.12726 23.6256Z" fill="#FE8C27"/><path d="M50.0903 22.6868L37.4632 14.4203C37.0782 14.1667 36.5649 14.2681 36.3339 14.6485C36.0773 15.0289 36.1799 15.536 36.5649 15.7642L49.192 24.0307C50.4496 24.8675 50.7319 26.6425 49.8337 27.9864L47.4982 31.4604L45.06 29.0515C44.752 28.7472 44.2131 28.7472 43.9051 29.0515C43.5971 29.3557 43.5971 29.8882 43.9051 30.1925L47.0362 33.2861L48.0885 34.3258C48.6018 34.8329 48.8584 35.5176 48.8327 36.2529C48.8071 37.0136 48.4734 37.749 47.9088 38.3069L36.6932 49.4641C35.5383 50.6052 33.7161 50.6812 32.6382 49.6416L27.4025 44.4687C27.0945 44.1644 26.5556 44.1644 26.2476 44.4687C25.9396 44.7983 25.9396 45.3055 26.2476 45.6098L31.4832 50.7827C32.3045 51.5941 33.4081 51.9998 34.5117 51.9998C35.718 51.9998 36.9242 51.5434 37.8481 50.6052L49.0894 39.4987C49.962 38.6365 50.4496 37.5208 50.501 36.329C50.5523 35.1372 50.0903 34.0215 49.269 33.1847L48.6788 32.6015L51.1939 28.8486C52.6055 26.7947 52.1179 24.0053 50.0903 22.6868Z" fill="#FE8C27"/><path d="M5.38171 8.74044C5.22772 9.07008 5.15073 9.45044 5.15073 9.8308C5.15073 11.3776 6.43398 12.6455 7.99954 12.6455C9.5651 12.6455 10.8483 11.3776 10.8483 9.8308C10.8483 8.28401 9.5651 7.01614 7.99954 7.01614C7.40924 7.01614 6.87028 7.19364 6.40831 7.49793C5.97201 7.11757 5.45871 6.63578 4.91974 6.00185C5.94634 5.24113 7.20392 5.01291 8.38451 5.34256L22.2179 9.27294C22.6286 9.39973 23.0135 9.60259 23.3215 9.90688L24.5791 11.1494C24.7331 11.3015 24.9384 11.3776 25.1694 11.3776C25.3747 11.3776 25.58 11.3015 25.7597 11.1494C26.0677 10.8197 26.0677 10.3126 25.7597 10.0083L24.5021 8.7658C24.0145 8.28401 23.3728 7.90365 22.6799 7.70079L15.1344 5.54542L20.601 5.69756C21.0373 5.72292 21.448 5.87506 21.8073 6.10328L25.503 8.51222C25.6314 8.61365 25.811 8.63901 25.965 8.63901C26.2217 8.63901 26.504 8.51222 26.658 8.28401C26.9146 7.90365 26.8119 7.3965 26.427 7.16829L22.7312 4.75934C22.1409 4.37898 21.448 4.15077 20.7294 4.07469C20.7037 4.07469 20.7037 4.07469 20.678 4.07469L8.74382 3.71969C7.0756 3.28862 5.33038 3.64362 3.91881 4.68327C3.1232 3.59291 2.30192 2.22361 1.55763 0.499314C1.40364 0.0682393 0.916011 -0.109262 0.505371 0.0682393C0.0690672 0.220383 -0.110587 0.702172 0.0690672 1.10789C1.76295 5.08899 3.89314 7.44722 5.38171 8.74044ZM9.20579 9.8308C9.20579 10.4901 8.66683 11.0226 7.99954 11.0226C7.33225 11.0226 6.79328 10.4901 6.79328 9.8308V9.80545C6.9986 9.93223 7.15259 10.0083 7.17826 10.0083C7.30658 10.059 7.43491 10.0844 7.53757 10.0844C7.84555 10.0844 8.12786 9.93223 8.28185 9.62794C8.46151 9.27294 8.35885 8.81651 8.0252 8.61365C8.66683 8.63901 9.20579 9.17151 9.20579 9.8308Z" fill="#FE8C27"/><path d="M26.2468 42.0852H33.9977H37.1031C39.413 42.0852 41.3122 40.2341 41.3122 37.9266V25.7043C41.3122 24.5886 40.8759 23.549 40.0803 22.7629C39.2846 21.9768 38.2324 21.5457 37.1031 21.5457H31.4312C32.4578 20.3286 33.7153 18.4268 34.1003 16.1954C34.3056 15.0036 34.434 13.761 34.4853 12.5185C34.5366 11.5296 34.1773 10.5914 33.51 9.88138C32.8171 9.17138 31.8931 8.79102 30.9179 8.79102C29.1727 8.79102 27.6841 10.0335 27.3761 11.7325C26.8115 14.8261 25.8619 16.9814 24.6556 17.8436C24.014 18.3 23.475 18.6043 23.0387 18.8325C22.1405 19.3397 21.4218 19.7454 21.1909 20.785C20.5749 23.4983 19.3686 24.6647 18.265 25.1718C18.1624 24.969 18.0597 24.7915 17.9057 24.6393C17.5464 24.259 17.0588 24.0561 16.5198 24.0561L12.6958 24.1322C11.6692 24.1575 10.8735 24.9943 10.8222 26.034H7.5371C7.07513 26.034 6.71582 26.389 6.71582 26.8454C6.71582 27.3019 7.07513 27.6569 7.5371 27.6569H10.8479L11.0019 39.7777H7.5371C7.07513 39.7777 6.71582 40.1327 6.71582 40.5891C6.71582 41.0455 7.07513 41.4005 7.5371 41.4005H11.0275C11.0789 41.8316 11.2585 42.2373 11.5665 42.567C11.9258 42.9473 12.4134 43.1502 12.9011 43.1502H12.9267L16.7508 43.0741C17.7004 43.0487 18.4704 42.3387 18.5987 41.4005C19.574 41.4259 21.4732 41.5273 22.9874 41.7809C24.0397 41.9837 25.1433 42.0852 26.2468 42.0852ZM22.8077 21.1654C22.8847 20.8357 23.0387 20.7343 23.86 20.2525C24.322 19.9989 24.8866 19.6693 25.6052 19.1622C26.7088 18.4014 28.1974 16.525 28.993 12.0114C29.147 11.0985 29.9683 10.4139 30.9179 10.4139C31.4568 10.4139 31.9445 10.6167 32.3294 10.9971C32.6887 11.3775 32.8941 11.8846 32.8684 12.4171C32.8171 13.6089 32.6887 14.8007 32.5091 15.9164C31.9958 19.1368 29.0443 21.6979 29.0187 21.7232C28.7877 21.9261 28.685 22.2304 28.762 22.5347V29.5079C28.762 32.0944 27.1964 34.4019 24.7839 35.3908L23.8343 35.7712C23.4237 35.9487 23.2184 36.4305 23.398 36.8362C23.5264 37.1405 23.8343 37.3434 24.168 37.3434C24.2706 37.3434 24.3733 37.318 24.476 37.2926L25.4256 36.9123C28.454 35.6698 30.4046 32.779 30.4046 29.5333V23.194H37.1288C37.8217 23.194 38.4634 23.4475 38.9253 23.9293C39.413 24.4111 39.6696 25.0451 39.6696 25.7043V37.9266C39.6696 39.3212 38.5147 40.4623 37.1031 40.4623H34.126C32.8684 40.0819 31.9958 38.9155 31.9958 37.5969V33.0326C31.9958 32.5762 31.6365 32.2212 31.1745 32.2212C30.7125 32.2212 30.3532 32.5762 30.3532 33.0326V37.5969C30.3532 38.6619 30.7382 39.6509 31.3542 40.4623H26.2468C25.2203 40.4623 24.2193 40.3862 23.2954 40.2087C21.6528 39.9298 19.6253 39.8284 18.6244 39.803L18.4704 26.8708C20.6262 26.1354 22.1405 24.1322 22.8077 21.1654ZM16.7508 41.4766L12.9267 41.5527C12.8497 41.5527 12.7984 41.5019 12.7727 41.4766C12.7214 41.4005 12.6701 41.3244 12.6701 41.1977L12.4904 26.1101C12.4904 25.9072 12.6188 25.7551 12.7471 25.7551L16.5712 25.679C16.6482 25.679 16.6995 25.7297 16.7251 25.7551C16.7765 25.8311 16.8278 25.9072 16.8278 26.034L17.0075 41.1216C17.0075 41.3244 16.8791 41.4766 16.7508 41.4766Z" fill="white"/></svg>