<svg width="74" height="80" viewBox="0 0 74 80" fill="none" xmlns="http://www.w3.org/2000/svg"><path d="M72.8379 19.2362L60.9135 2.71819C59.8373 1.27445 58.2445 0.297807 56.3934 0.0854933C54.5854 -0.169284 52.6913 0.297808 51.1415 1.40184L32.3725 14.5653C30.7797 15.7118 29.6605 17.4103 29.3591 19.2787L28.5412 24.2044C28.2399 25.9454 28.6273 27.6439 29.6174 29.0452L37.3661 39.7883C38.3562 41.1895 39.8629 42.0812 41.6279 42.3785L46.6215 43.2277C47.0089 43.3127 47.3963 43.3127 47.7838 43.3127C49.2905 43.3127 50.8402 42.8456 52.0886 41.9539L70.8577 28.7904C72.4074 27.6863 73.4836 26.1152 73.828 24.3318C74.2585 22.5059 73.871 20.68 72.8379 19.2362ZM49.1613 5.86044L60.2247 21.232L49.5057 28.7479L38.3993 13.3764L49.1613 5.86044ZM71.4173 23.8222C71.159 24.9687 70.4702 26.0303 69.4371 26.7522L50.668 39.9156C49.5918 40.68 48.3004 40.9772 47.052 40.7649L42.0584 39.9156C40.9822 39.7458 40.0351 39.1513 39.4324 38.3021L31.6837 27.559C31.081 26.7097 30.8228 25.6481 31.038 24.5866L31.8559 19.6609C32.0712 18.4294 32.803 17.3254 33.8792 16.5611L36.376 14.8201L48.1712 31.1683C48.3865 31.4231 48.6447 31.6354 48.9891 31.6778C49.0752 31.6778 49.1183 31.6778 49.2044 31.6778C49.4627 31.6778 49.721 31.5929 49.9362 31.4655L62.6785 22.5059C63.2381 22.1237 63.3673 21.3169 62.9798 20.7649L51.1846 4.4167L52.6052 3.3976C53.4662 2.80312 54.4563 2.46341 55.4464 2.46341C55.6616 2.46341 55.8338 2.46341 56.049 2.50588C57.2114 2.67573 58.2015 3.22774 58.8472 4.11946L70.7285 20.6375C71.4173 21.5717 71.6325 22.6757 71.4173 23.8222Z" fill="#FE8C27"/><path d="M27.8095 29.512C27.4221 28.96 26.6042 28.8326 26.0445 29.2148C25.4849 29.597 25.3558 30.4037 25.7432 30.9558L34.2237 42.718C34.482 43.0577 34.8694 43.2275 35.2569 43.2275C35.5152 43.2275 35.7735 43.1426 35.9887 43.0152C36.5483 42.633 36.6775 41.8262 36.29 41.2742L27.8095 29.512Z" fill="#292B2C"/><path d="M30.4353 41.4862L7.96405 52.9512C7.70576 53.0786 7.40442 52.9937 7.27528 52.7814C7.10308 52.569 7.14613 52.2718 7.36137 52.0595L25.6999 34.9045C26.2165 34.4374 26.2165 33.6306 25.743 33.1635C25.2695 32.654 24.4515 32.654 23.978 33.1211L5.59639 50.2336C4.47714 51.2527 4.34799 52.9512 5.20896 54.1826C5.81164 54.9894 6.7587 55.4565 7.70576 55.4565C8.17929 55.4565 8.65282 55.3291 9.08331 55.1168L31.5545 43.6518C32.1572 43.3546 32.4155 42.5903 32.1141 41.9958C31.8128 41.4013 31.0379 41.1465 30.4353 41.4862Z" fill="#292B2C"/><path d="M5.89762 57.707C5.38104 57.707 4.90751 58.0043 4.73531 58.4714C4.56312 58.9385 0 69.9363 0 74.1826C0 77.3673 2.62595 80 5.89762 80C9.12624 80 11.7952 77.4098 11.7952 74.1826C11.7952 70.4884 7.5765 59.7028 7.05992 58.5138C6.88773 58.0043 6.4142 57.707 5.89762 57.707ZM5.89762 77.4947C4.04654 77.4947 2.53985 76.0085 2.53985 74.1826C2.53985 71.8047 4.43397 66.2845 5.89762 62.4204C7.36126 66.4119 9.29843 72.1019 9.29843 74.1826C9.25538 76.0085 7.74869 77.4947 5.89762 77.4947Z" fill="#292B2C"/></svg>