<svg width="80" height="80" viewBox="0 0 80 80" fill="none" xmlns="http://www.w3.org/2000/svg"><path d="M79.338 35.6107C78.9653 35.4036 78.4684 35.4036 78.0957 35.6521C78.0129 35.6935 70.0212 40.7452 61.574 35.6521C61.1599 35.4036 60.663 35.4036 60.2904 35.6935C56.9777 37.8467 53.251 38.5092 49.1102 37.6811C45.9632 37.0185 43.7686 35.6935 43.7686 35.6935C43.396 35.445 42.9405 35.445 42.5264 35.6521C42.1537 35.8591 41.9053 36.2732 41.9053 36.6873V55.6935C41.9053 62.1531 44.9695 68.3229 50.1454 72.1738L60.2075 79.71C60.4146 79.8757 60.663 79.9585 60.9529 79.9585C61.2013 79.9585 61.4498 79.8757 61.6982 79.71L71.7603 72.1738C76.9363 68.2815 80.0005 62.1531 80.0005 55.6935V36.6873C80.0005 36.2318 79.7521 35.8177 79.338 35.6107ZM77.5574 55.6935C77.5574 61.4078 74.8245 66.8322 70.2697 70.2691L60.9529 77.267L51.6361 70.2691C47.0813 66.8322 44.3483 61.4078 44.3483 55.6935V38.6334C45.3835 39.0889 46.8328 39.6272 48.5305 39.9999C53.0026 40.9523 57.2676 40.2898 60.9529 38.0951C64.8038 40.2483 69.1516 40.8695 73.5409 39.9585C75.1558 39.6272 76.5222 39.1303 77.5574 38.6748V55.6935Z" fill="#292B2C"/><path d="M69.814 43.6023L56.522 56.8943L52.7125 53.0848C52.4641 52.8363 52.1742 52.7535 51.843 52.7121C51.5117 52.7121 51.2218 52.8363 50.9734 53.0848L47.5779 56.6458C47.1225 57.1013 47.1225 57.8881 47.5779 58.3436L55.6111 66.3767C55.8595 66.6251 56.1494 66.7494 56.4806 66.7494C56.8119 66.7494 57.1018 66.6251 57.3502 66.3767L74.99 48.7369C75.197 48.5299 75.3626 48.1986 75.3626 47.8674C75.3626 47.5361 75.2384 47.2462 74.99 46.9978L71.5531 43.5609C71.0562 43.1469 70.3109 43.1469 69.814 43.6023ZM56.4806 63.8094L50.1452 57.474L51.8844 55.652L55.6525 59.4202C56.108 59.8756 56.8947 59.8756 57.3502 59.4202L70.6421 46.1282L72.3813 47.8674L56.4806 63.8094Z" fill="#292B2C"/><path d="M33.8721 13.8715C33.8721 17.267 36.605 19.9999 40.0004 19.9999C43.3959 19.9999 46.1288 17.267 46.1288 13.8715C46.1288 10.4761 43.3959 7.74316 40.0004 7.74316C36.605 7.74316 33.8721 10.4761 33.8721 13.8715ZM43.6857 13.8715C43.6857 15.9005 42.0294 17.5982 39.959 17.5982C37.93 17.5982 36.2323 15.9419 36.2323 13.8715C36.2323 11.8425 37.8886 10.1448 39.959 10.1448C42.0294 10.1448 43.6857 11.8011 43.6857 13.8715Z" fill="#FE8C27"/><path d="M32.4226 28.2816V40L27.1638 67.3707C26.9567 68.4058 27.1224 69.441 27.7021 70.352C28.2818 71.263 29.1514 71.8841 30.1866 72.0912C30.4764 72.174 30.7663 72.174 31.0561 72.174C32.8781 72.174 34.5344 70.8903 34.9485 69.0684L39.5447 48.4058C39.669 47.7433 39.2963 47.1222 38.6338 46.9566C37.9712 46.7909 37.3501 47.205 37.1845 47.8675L32.5882 68.5301C32.3812 69.3582 31.553 69.8965 30.7249 69.7309C30.3108 69.6481 29.9795 69.3996 29.7311 69.027C29.524 68.6543 29.4412 68.2402 29.524 67.8261V67.7847L34.8242 40.2485C34.8242 40.1657 34.8657 40.0829 34.8657 40.0414V27.0808C34.8657 26.4183 34.3274 25.88 33.6648 25.88H18.1783C17.3087 25.88 16.6048 25.176 16.6048 24.3065C16.6048 23.4369 17.3087 22.733 18.1783 22.733H61.8222C62.6917 22.733 63.3957 23.4369 63.3957 24.3065C63.3957 25.176 62.6917 25.88 61.8222 25.88H46.4599C45.7973 25.88 45.259 26.4183 45.259 27.0808V31.8841C45.259 32.5466 45.7973 33.0849 46.4599 33.0849C47.1224 33.0849 47.6607 32.5466 47.6607 31.8841V28.2816H61.8222C64.0168 28.2816 65.7973 26.5011 65.7973 24.3065C65.7973 22.1118 64.0168 20.3313 61.8222 20.3313H18.1783C15.9837 20.3313 14.2031 22.1118 14.2031 24.3065C14.2031 26.5011 15.9837 28.2816 18.1783 28.2816H32.4226Z" fill="#FE8C27"/><path d="M6.50104 60.7448C6.70807 60.7448 6.91511 60.7034 7.12215 60.5791C7.70186 60.2479 7.9089 59.5025 7.53623 58.9228C4.18219 53.2085 2.40166 46.6247 2.40166 39.958C2.40166 29.9373 6.294 20.4963 13.4162 13.3742C20.4969 6.33482 29.9379 2.40107 40 2.40107C48.6128 2.40107 56.6874 5.21681 63.3955 10.5584C69.8965 15.7344 74.5756 23.0222 76.5217 31.0553C76.6874 31.7178 77.3499 32.0905 77.971 31.9249C78.6335 31.7593 79.0062 31.0967 78.8406 30.4756C76.7702 21.9042 71.8012 14.1609 64.8861 8.65366C57.764 2.98078 49.1511 -0.0419922 40 -0.0419922C29.3168 -0.000584316 19.2547 4.1402 11.7184 11.7178C4.14079 19.2541 0 29.3162 0 39.9994C0 47.1216 1.90476 54.0781 5.46584 60.1651C5.67288 60.5377 6.08696 60.7448 6.50104 60.7448Z" fill="#FE8C27"/><path d="M50.6005 76.0661C47.1637 77.0599 43.6026 77.5982 40.0001 77.5982C32.1326 77.5982 24.5964 75.1966 18.2196 70.6417C17.6813 70.269 16.9359 70.3933 16.5218 70.9316C16.1492 71.4699 16.2734 72.2152 16.8117 72.6293C23.6026 77.474 31.6357 80.0413 40.0001 80.0413C43.851 80.0413 47.6605 79.503 51.3044 78.4264C51.9256 78.2193 52.2982 77.5568 52.1326 76.9357C51.9256 76.2318 51.263 75.8591 50.6005 76.0661Z" fill="#FE8C27"/><path d="M9.7311 62.3601C9.06858 62.3601 8.53027 62.8984 8.53027 63.5609V64.5961C8.53027 65.2587 9.06858 65.797 9.7311 65.797C10.3936 65.797 10.9319 65.2587 10.9319 64.5961V63.5609C10.9319 62.8984 10.3936 62.3601 9.7311 62.3601Z" fill="#FE8C27"/><path d="M9.7311 69.8965C9.06858 69.8965 8.53027 70.4348 8.53027 71.0973V72.1325C8.53027 72.795 9.06858 73.3333 9.7311 73.3333C10.3936 73.3333 10.9319 72.795 10.9319 72.1325V71.0973C10.9319 70.4348 10.3936 69.8965 9.7311 69.8965Z" fill="#FE8C27"/><path d="M6.50067 66.6252H5.46548C4.80295 66.6252 4.26465 67.1636 4.26465 67.8261C4.26465 68.4886 4.80295 69.0269 5.46548 69.0269H6.50067C7.1632 69.0269 7.7015 68.4886 7.7015 67.8261C7.7015 67.1636 7.1632 66.6252 6.50067 66.6252Z" fill="#FE8C27"/><path d="M13.9958 66.6252H12.9606C12.2981 66.6252 11.7598 67.1636 11.7598 67.8261C11.7598 68.4886 12.2981 69.0269 12.9606 69.0269H13.9958C14.6583 69.0269 15.1966 68.4886 15.1966 67.8261C15.1966 67.1636 14.6583 66.6252 13.9958 66.6252Z" fill="#FE8C27"/><path d="M5.46548 4.26498C6.128 4.26498 6.6663 3.72668 6.6663 3.06415V2.02895C6.6663 1.36643 6.128 0.828125 5.46548 0.828125C4.80295 0.828125 4.26465 1.36643 4.26465 2.02895V3.06415C4.26465 3.72668 4.80295 4.26498 5.46548 4.26498Z" fill="#FE8C27"/><path d="M5.46548 11.7599C6.128 11.7599 6.6663 11.2215 6.6663 10.559V9.52383C6.6663 8.8613 6.128 8.323 5.46548 8.323C4.80295 8.323 4.26465 8.8613 4.26465 9.52383V10.559C4.26465 11.2215 4.80295 11.7599 5.46548 11.7599Z" fill="#FE8C27"/><path d="M1.20083 7.49467H2.23602C2.89855 7.49467 3.43685 6.95637 3.43685 6.29384C3.43685 5.63132 2.89855 5.09302 2.23602 5.09302H1.20083C0.538302 5.09302 0 5.63132 0 6.29384C0 6.95637 0.538302 7.49467 1.20083 7.49467Z" fill="#FE8C27"/><path d="M8.69595 7.49467H9.73114C10.3937 7.49467 10.932 6.95637 10.932 6.29384C10.932 5.63132 10.3937 5.09302 9.73114 5.09302H8.69595C8.03342 5.09302 7.49512 5.63132 7.49512 6.29384C7.49512 6.95637 8.03342 7.49467 8.69595 7.49467Z" fill="#FE8C27"/><path d="M74.1199 4.26498C74.7824 4.26498 75.3207 3.72668 75.3207 3.06415V2.02895C75.3207 1.36643 74.7824 0.828125 74.1199 0.828125C73.4574 0.828125 72.9191 1.36643 72.9191 2.02895V3.06415C72.8777 3.72668 73.4574 4.26498 74.1199 4.26498Z" fill="#FE8C27"/><path d="M74.1199 11.7599C74.7824 11.7599 75.3207 11.2215 75.3207 10.559V9.52383C75.3207 8.8613 74.7824 8.323 74.1199 8.323C73.4574 8.323 72.9191 8.8613 72.9191 9.52383V10.559C72.8777 11.2215 73.4574 11.7599 74.1199 11.7599Z" fill="#FE8C27"/><path d="M69.8551 7.49467H70.8903C71.5528 7.49467 72.0912 6.95637 72.0912 6.29384C72.0912 5.63132 71.5528 5.09302 70.8903 5.09302H69.8551C69.1926 5.09302 68.6543 5.63132 68.6543 6.29384C68.6543 6.95637 69.1926 7.49467 69.8551 7.49467Z" fill="#FE8C27"/><path d="M77.3502 7.49467H78.3854C79.048 7.49467 79.5863 6.95637 79.5863 6.29384C79.5863 5.63132 79.048 5.09302 78.3854 5.09302H77.3502C76.6877 5.09302 76.1494 5.63132 76.1494 6.29384C76.1494 6.95637 76.6877 7.49467 77.3502 7.49467Z" fill="#FE8C27"/><path d="M2.236 75.5278C1.32503 75.5278 0.621094 76.2732 0.621094 77.1427C0.621094 78.0537 1.36644 78.7576 2.236 78.7576C3.10557 78.7576 3.85091 78.0123 3.85091 77.1427C3.85091 76.2732 3.10557 75.5278 2.236 75.5278Z" fill="#FE8C27"/></svg>