<svg width="16" height="16" viewBox="0 0 16 16" fill="none" xmlns="http://www.w3.org/2000/svg"><path d="M8.00469 1.44091C10.1434 1.44091 10.3967 1.45028 11.2378 1.48779C12.0195 1.52217 12.4417 1.65345 12.7231 1.76284C13.0952 1.90662 13.3641 2.08166 13.6424 2.35984C13.9238 2.64114 14.0958 2.90682 14.2396 3.27877C14.349 3.56007 14.4804 3.98515 14.5148 4.76343C14.5523 5.60735 14.5617 5.86052 14.5617 7.99531C14.5617 10.1332 14.5523 10.3864 14.5148 11.2272C14.4804 12.0086 14.349 12.4306 14.2396 12.7119C14.0958 13.0838 13.9207 13.3526 13.6424 13.6308C13.361 13.9121 13.0952 14.084 12.7231 14.2278C12.4417 14.3372 12.0164 14.4685 11.2378 14.5028C10.3936 14.5403 10.1403 14.5497 8.00469 14.5497C5.86594 14.5497 5.61266 14.5403 4.77155 14.5028C3.98984 14.4685 3.56772 14.3372 3.2863 14.2278C2.91421 14.084 2.6453 13.909 2.36701 13.6308C2.0856 13.3495 1.91362 13.0838 1.76979 12.7119C1.66035 12.4306 1.52902 12.0055 1.49463 11.2272C1.4571 10.3833 1.44772 10.1301 1.44772 7.99531C1.44772 5.85739 1.4571 5.60422 1.49463 4.76343C1.52902 3.98203 1.66035 3.56007 1.76979 3.27877C1.91362 2.90682 2.08872 2.63802 2.36701 2.35984C2.64843 2.07853 2.91421 1.90662 3.2863 1.76284C3.56772 1.65345 3.99296 1.52217 4.77155 1.48779C5.61266 1.45028 5.86594 1.44091 8.00469 1.44091ZM8.00469 0C5.83154 0 5.55951 0.00937683 4.70588 0.0468842C3.85538 0.0843915 3.27067 0.221918 2.76412 0.418832C2.23568 0.625122 1.78855 0.89705 1.34454 1.34401C0.897401 1.78785 0.625366 2.23481 0.418995 2.75991C0.222005 3.26939 0.0844245 3.85075 0.0469025 4.70092C0.0093805 5.55734 0 5.82926 0 8.00156C0 10.1739 0.0093805 10.4458 0.0469025 11.2991C0.0844245 12.1492 0.222005 12.7337 0.418995 13.2401C0.625366 13.7683 0.897401 14.2153 1.34454 14.6591C1.78855 15.103 2.23568 15.378 2.76099 15.5812C3.27067 15.7781 3.85226 15.9156 4.70275 15.9531C5.55638 15.9906 5.82841 16 8.00156 16C10.1747 16 10.4467 15.9906 11.3004 15.9531C12.1509 15.9156 12.7356 15.7781 13.2421 15.5812C13.7674 15.378 14.2146 15.103 14.6586 14.6591C15.1026 14.2153 15.3778 13.7683 15.581 13.2432C15.778 12.7337 15.9156 12.1524 15.9531 11.3022C15.9906 10.4489 16 10.177 16 8.00469C16 5.83239 15.9906 5.56046 15.9531 4.70717C15.9156 3.857 15.778 3.27251 15.581 2.76617C15.384 2.23481 15.112 1.78785 14.6648 1.34401C14.2208 0.900176 13.7737 0.625122 13.2484 0.421957C12.7387 0.225044 12.1571 0.0875171 11.3066 0.0500098C10.4499 0.00937684 10.1778 0 8.00469 0Z"/><path d="M8.00436 3.89136C5.73428 3.89136 3.89258 5.73234 3.89258 8.00154C3.89258 10.2707 5.73428 12.1117 8.00436 12.1117C10.2744 12.1117 12.1161 10.2707 12.1161 8.00154C12.1161 5.73234 10.2744 3.89136 8.00436 3.89136ZM8.00436 10.6677C6.53162 10.6677 5.33717 9.4737 5.33717 8.00154C5.33717 6.52937 6.53162 5.33539 8.00436 5.33539C9.4771 5.33539 10.6715 6.52937 10.6715 8.00154C10.6715 9.4737 9.4771 10.6677 8.00436 10.6677Z"/><path d="M13.2392 3.72923C13.2392 4.26079 12.8077 4.68917 12.2793 4.68917C11.7477 4.68917 11.3193 4.25766 11.3193 3.72923C11.3193 3.19766 11.7508 2.76929 12.2793 2.76929C12.8077 2.76929 13.2392 3.20079 13.2392 3.72923Z"/></svg>