<svg width="58" height="52" viewBox="0 0 58 52" fill="none" xmlns="http://www.w3.org/2000/svg"><path d="M57.0999 50.1792H54.0621C53.8371 44.0064 51.4462 38.4024 47.6489 34.107C47.5926 34.0217 47.5364 33.9648 47.4801 33.9079C42.8671 28.816 36.2289 25.6016 28.8875 25.6016C21.5179 25.6016 14.9079 28.816 10.2949 33.9079C10.2105 33.9648 10.1542 34.0217 10.098 34.107C6.30068 38.4024 3.9098 44.0348 3.68477 50.1792H0.900097C0.393792 50.1792 0 50.5775 0 51.0895C0 51.6016 0.393792 51.9998 0.900097 51.9998H57.0999C57.6062 51.9998 58 51.6016 58 51.0895C58 50.6059 57.6062 50.1792 57.0999 50.1792ZM36.7352 34.1355C37.1571 34.9889 37.5509 35.8992 37.9166 36.8663C35.3569 37.4068 32.6004 37.7197 29.7876 37.7766V27.5359C32.3472 27.9626 34.7944 30.2668 36.7352 34.1355ZM27.9593 27.5075V37.7482C25.1465 37.6913 22.3899 37.3784 19.8303 36.8379C20.1959 35.8707 20.5897 34.9604 21.0116 34.107C22.9243 30.2668 25.3715 27.9626 27.9593 27.5075ZM27.9593 39.5972V50.1792H17.5238C17.6081 46.0261 18.1988 42.072 19.2396 38.63C21.9961 39.1989 24.9496 39.5403 27.9593 39.5972ZM29.7876 39.5972C32.7973 39.5403 35.7507 39.1989 38.5073 38.6016C39.548 42.072 40.1668 46.0261 40.2231 50.1508H29.7876V39.5972ZM40.2512 38.2033C42.614 37.5775 44.7798 36.7525 46.6644 35.7854C49.9554 39.711 52.0369 44.7175 52.2338 50.1792H42.0233C41.9389 45.9123 41.3482 41.816 40.2512 38.2033ZM45.3986 34.3631C43.711 35.2164 41.7701 35.8992 39.6887 36.4396C39.2949 35.3302 38.8448 34.2777 38.3666 33.2821C37.2978 31.1486 36.0883 29.4418 34.7381 28.1617C38.8167 29.2427 42.5015 31.4331 45.3986 34.3631ZM19.3802 33.3105C18.902 34.3062 18.452 35.3587 18.0582 36.4681C15.9767 35.9276 14.0359 35.2164 12.3482 34.3915C15.2454 31.4615 18.9302 29.2711 23.0369 28.2186C21.6867 29.4418 20.4491 31.1771 19.3802 33.3105ZM11.0543 35.7854C12.9389 36.781 15.1048 37.5775 17.4675 38.2033C16.3986 41.816 15.7798 45.9123 15.6954 50.1792H5.48497C5.70999 44.6891 7.76334 39.6825 11.0543 35.7854Z" fill="#FE8C27"/><path d="M28.9721 12.2888C32.3194 12.2888 35.0478 9.52954 35.0478 6.14442C35.0478 2.7593 32.3194 0 28.9721 0C25.6249 0 22.8965 2.7593 22.8965 6.14442C22.8965 9.52954 25.6249 12.2888 28.9721 12.2888ZM28.9721 1.84902C31.3068 1.84902 33.2195 3.78337 33.2195 6.14442C33.2195 8.50547 31.3068 10.4398 28.9721 10.4398C26.6375 10.4398 24.7248 8.50547 24.7248 6.14442C24.7248 3.75492 26.6094 1.84902 28.9721 1.84902Z" fill="white"/><path d="M20.2243 25.3169C20.7306 25.4022 21.1807 25.0893 21.2932 24.5773L22.1651 19.7698C22.7277 17.0959 25.1186 15.1615 27.8189 15.1615H30.2941C33.0507 15.1615 35.4135 17.1243 35.9479 19.8552L36.848 24.5773C36.9324 25.004 37.298 25.3169 37.7481 25.3169C37.8043 25.3169 37.8606 25.3169 37.9168 25.2884C38.4232 25.2031 38.7326 24.7195 38.6482 24.2075L37.7481 19.4854C37.0449 15.9011 33.8945 13.3125 30.2941 13.3125H27.8189C24.2748 13.3125 21.1525 15.8727 20.3931 19.3716V19.4L19.5211 24.2359C19.4086 24.7479 19.718 25.2315 20.2243 25.3169Z" fill="white"/><path d="M10.1822 16.7833C13.1357 16.7833 15.5265 14.3653 15.5265 11.3784C15.5265 8.39158 13.1357 5.97363 10.1822 5.97363C7.22877 5.97363 4.83789 8.39158 4.83789 11.3784C4.83789 14.3369 7.22877 16.7833 10.1822 16.7833ZM10.1822 7.7942C12.1231 7.7942 13.6982 9.3872 13.6982 11.35C13.6982 13.3128 12.1231 14.9058 10.1822 14.9058C8.24138 14.9058 6.66621 13.3128 6.66621 11.35C6.66621 9.41565 8.24138 7.7942 10.1822 7.7942Z" fill="white"/><path d="M1.91262 31.689C1.96888 31.689 2.02514 31.7175 2.08139 31.7175C2.50331 31.7175 2.8971 31.4046 2.98149 30.9779L4.44415 23.1551C4.92232 20.9078 6.91941 19.3148 9.16965 19.3148H11.3074C13.6139 19.3148 15.611 20.9647 16.061 23.2404C16.1454 23.724 16.6517 24.0654 17.1299 23.9516C17.6362 23.8378 17.9456 23.3542 17.8331 22.8706C17.2143 19.7415 14.4577 17.4658 11.3074 17.4658H9.16965C6.04744 17.4658 3.31903 19.7131 2.67208 22.7853C2.67208 22.7853 2.67208 22.7853 2.67208 22.8137L1.18129 30.6649C1.09691 31.0916 1.40632 31.5752 1.91262 31.689Z" fill="white"/><path d="M47.4801 16.7833C50.4335 16.7833 52.8244 14.3653 52.8244 11.3784C52.8244 8.39158 50.4335 5.97363 47.4801 5.97363C44.5266 5.97363 42.1357 8.39158 42.1357 11.3784C42.1357 14.3369 44.5266 16.7833 47.4801 16.7833ZM47.4801 7.7942C49.4209 7.7942 50.9961 9.3872 50.9961 11.35C50.9961 13.3128 49.4209 14.9058 47.4801 14.9058C45.5392 14.9058 43.9641 13.3128 43.9641 11.35C43.9641 9.41565 45.5392 7.7942 47.4801 7.7942Z" fill="white"/><path d="M40.5325 23.9234C41.0388 24.0372 41.517 23.6958 41.6013 23.2122C42.0514 20.9365 44.0485 19.2866 46.355 19.2866H48.4927C50.743 19.2866 52.74 20.9081 53.2182 23.1269L54.6809 30.9497C54.7653 31.3764 55.1309 31.6893 55.581 31.6893C55.6372 31.6893 55.6935 31.6893 55.7497 31.6608C56.2561 31.5755 56.5655 31.0919 56.4811 30.5799L54.9903 22.7571C54.9903 22.7571 54.9903 22.7571 54.9903 22.7287C54.3433 19.6564 51.5868 17.4092 48.4927 17.4092H46.355C43.2046 17.4092 40.4481 19.6849 39.8293 22.814C39.7449 23.326 40.0543 23.8096 40.5325 23.9234Z" fill="white"/></svg>