<svg width="28" height="30" viewBox="0 0 28 30" fill="none" xmlns="http://www.w3.org/2000/svg"><path d="M27.3369 1.69072C27.5163 1.3275 27.4953 0.897363 27.2815 0.553301C27.0677 0.209238 26.6913 0 26.2862 0H18.7051C18.2591 0 17.8518 0.253125 17.6544 0.653027L12.9762 10.1263C11.2485 10.2963 9.64899 10.9095 8.29325 11.8504L3.5986 2.34375H8.56571L10.4474 6.15416C10.734 6.73447 11.4366 6.97254 12.017 6.68602C12.5973 6.39943 12.8354 5.69672 12.5489 5.11641L10.3447 0.653027C10.1473 0.253125 9.73993 0 9.29397 0H1.71294C1.30782 0 0.931416 0.209238 0.717548 0.553301C0.50374 0.897363 0.482763 1.3275 0.662177 1.69072L6.44925 13.4095C6.45892 13.4291 6.46911 13.4483 6.47972 13.4671C4.93565 15.2222 3.9981 17.5232 3.9981 20.0391C3.9981 25.5315 8.46657 30 13.959 30C15.7911 30 17.5825 29.498 19.1395 28.5483C19.692 28.2113 19.8667 27.4901 19.5297 26.9376C19.1926 26.385 18.4715 26.2103 17.919 26.5474C16.7297 27.2728 15.3604 27.6562 13.9589 27.6562C9.75874 27.6562 6.34173 24.2391 6.34173 20.039C6.34173 15.8389 9.75874 12.4218 13.9589 12.4218C18.1591 12.4218 21.5761 15.8389 21.5761 20.039C21.5761 21.0415 21.3847 22.0153 21.0073 22.9333C20.7613 23.5319 21.0471 24.2167 21.6457 24.4628C22.2442 24.7089 22.9291 24.423 23.1751 23.8245C23.6694 22.6223 23.9199 21.3487 23.9199 20.0391C23.9199 17.5494 23.0017 15.2701 21.4863 13.5221C21.5093 13.4861 21.5305 13.4486 21.5498 13.4095L27.3369 1.69072ZM19.685 11.8925C18.4764 11.0406 17.0708 10.4504 15.5511 10.2053L19.4334 2.34375H24.4004L19.685 11.8925Z" fill="#DEE0E4"/><path d="M14.0176 24.2578C14.6648 24.2578 15.1894 23.7332 15.1894 23.0859V17.1094C15.1894 16.4621 14.6648 15.9375 14.0176 15.9375H11.9668C11.3196 15.9375 10.7949 16.4621 10.7949 17.1094C10.7949 17.7566 11.3196 18.2812 11.9668 18.2812H12.8457V23.0859C12.8457 23.7332 13.3703 24.2578 14.0176 24.2578Z" fill="#DEE0E4"/></svg>