<svg width="30" height="30" viewBox="0 0 30 30" fill="none" xmlns="http://www.w3.org/2000/svg"><path d="M29.5098 19.1064C28.9836 18.7303 28.2515 18.8513 27.8748 19.3766L22.0986 27.4302C21.9409 27.6128 21.7432 27.6522 21.6373 27.6592C21.5284 27.6664 21.3196 27.6527 21.1355 27.4805L17.4024 23.8441C16.9392 23.3929 16.1973 23.4019 15.7453 23.8643C15.2933 24.3266 15.3024 25.0672 15.7655 25.5184L19.505 29.161C19.5085 29.1643 19.512 29.1677 19.5155 29.1711C20.0762 29.7038 20.8245 30.0001 21.5944 30.0001C21.6606 30.0001 21.727 29.9979 21.7933 29.9935C22.6321 29.9377 23.415 29.5306 23.9416 28.8765C23.9552 28.8596 23.9683 28.8423 23.981 28.8247L29.7806 20.7384C30.1573 20.2131 30.0361 19.4825 29.5098 19.1064Z"/><path d="M14.6897 15.9023C14.7926 15.9063 14.8959 15.9083 14.9998 15.9083C15.1039 15.9083 15.2075 15.9063 15.3105 15.9023C18.323 15.9745 21.2155 17.0954 23.4862 19.0768C23.9735 19.5021 24.7138 19.4524 25.1397 18.966C25.5657 18.4797 25.516 17.7407 25.0287 17.3155C23.4818 15.9656 21.6908 14.9537 19.7694 14.3222C21.7103 12.8701 22.9684 10.556 22.9684 7.95405C22.9685 3.56818 19.3938 0 14.9998 0C10.6058 0 7.03111 3.56818 7.03111 7.9541C7.03111 10.557 8.29013 12.8719 10.2323 14.3239C8.45291 14.9087 6.78327 15.8185 5.32197 17.0182C2.64238 19.2183 0.779325 22.287 0.0760269 25.6591C-0.144396 26.7157 0.119701 27.801 0.800398 28.6365C1.47781 29.468 2.48224 29.9449 3.55624 29.9449H13.8866C14.5339 29.9449 15.0585 29.4212 15.0585 28.7752C15.0585 28.1292 14.5338 27.6055 13.8866 27.6055H3.55618C3.05593 27.6055 2.75409 27.3267 2.61872 27.1606C2.38498 26.8737 2.29452 26.5003 2.37054 26.136C3.5867 20.3051 8.73937 16.0458 14.6897 15.9023ZM9.37493 7.95416C9.37493 4.85819 11.8983 2.33947 14.9999 2.33947C18.1015 2.33947 20.6249 4.85819 20.6249 7.95416C20.6249 10.955 18.2542 13.4135 15.2841 13.5618C15.1894 13.56 15.0948 13.5591 15 13.5591C14.9055 13.5591 14.8111 13.5601 14.7168 13.5618C11.7462 13.414 9.37493 10.9553 9.37493 7.95416Z" /></svg>