<svg width="40" height="52" viewBox="0 0 40 52" fill="none" xmlns="http://www.w3.org/2000/svg"><path d="M14.5649 47.2139H13.0303C12.5996 47.2139 12.2227 47.5654 12.2227 48.0251C12.2227 48.4578 12.5726 48.8363 13.0303 48.8363H14.5649C14.9957 48.8363 15.3726 48.4848 15.3726 48.0251C15.3726 47.5654 15.0226 47.2139 14.5649 47.2139Z" fill="#5ACF28"/><path d="M26.8147 40.5075C26.3839 40.5075 26.007 40.8591 26.007 41.3188V44.077H1.58842V3.43422C1.58842 2.4337 2.42301 1.59542 3.41914 1.59542H24.1763C25.1993 1.59542 26.007 2.4337 26.007 3.43422V16.1165C26.007 16.5491 26.357 16.9277 26.8147 16.9277C27.2454 16.9277 27.6224 16.5762 27.6224 16.1165V3.43422C27.6224 1.54134 26.0878 0 24.2032 0H3.41914C1.53458 0 0 1.54134 0 3.43422V48.5658C0 50.4587 1.53458 52 3.41914 52H24.1763C26.0609 52 27.5954 50.4587 27.5954 48.5658V41.3188C27.6224 40.8861 27.2724 40.5075 26.8147 40.5075ZM24.2032 50.4046H3.41914C2.42301 50.4046 1.58842 49.5663 1.58842 48.5658V45.6724H26.007V48.5658C26.0339 49.5933 25.1993 50.4046 24.2032 50.4046Z" fill="#5ACF28"/><path d="M26.9497 37.1817C27.9311 37.1817 28.7266 36.3827 28.7266 35.397C28.7266 34.4113 27.9311 33.6123 26.9497 33.6123C25.9684 33.6123 25.1729 34.4113 25.1729 35.397C25.1729 36.3827 25.9684 37.1817 26.9497 37.1817Z" fill="white"/><path d="M33.5181 33.6123C32.5489 33.6123 31.7412 34.4235 31.7412 35.397C31.7412 36.3705 32.5489 37.1817 33.5181 37.1817C34.4873 37.1817 35.295 36.3705 35.295 35.397C35.295 34.4235 34.4873 33.6123 33.5181 33.6123Z" fill="white"/><path d="M39.8188 20.659C39.6572 20.4697 39.4418 20.3616 39.1995 20.3616H21.8615L20.7846 16.4406C20.6769 16.0891 20.3808 15.8457 20.0039 15.8457H16.6924C16.2617 15.8457 15.8848 16.1972 15.8848 16.6569C15.8848 17.0896 16.2348 17.4682 16.6924 17.4682H19.4116L23.5576 32.7734C23.6653 33.125 23.9615 33.3683 24.3384 33.3683H36.7227C37.1534 33.3683 37.5303 33.0168 37.5303 32.5571C37.5303 32.1244 37.1804 31.7459 36.7227 31.7459H24.9307L24.3115 29.4203H37.3688C37.7457 29.4203 38.0688 29.177 38.1496 28.7984L39.9803 21.335C40.0341 21.1187 39.9803 20.8753 39.8188 20.659ZM38.1765 21.957L37.665 24.0662H22.8577L22.2923 21.957H38.1765ZM23.8807 27.8249L23.3153 25.6887H37.2611L36.7496 27.7979H23.8807V27.8249Z" fill="white"/><path d="M6.24615 20.3618C5.81539 20.3618 5.43848 20.7134 5.43848 21.173C5.43848 21.6057 5.78847 21.9843 6.24615 21.9843H7.05382C7.48458 21.9843 7.86149 21.6327 7.86149 21.173C7.86149 20.7404 7.5115 20.3618 7.05382 20.3618H6.24615Z" fill="white"/><path d="M18.3347 20.3618H9.8272C9.39644 20.3618 9.01953 20.7134 9.01953 21.173C9.01953 21.6057 9.36952 21.9843 9.8272 21.9843H18.3077C18.7385 21.9843 19.1154 21.6327 19.1154 21.173C19.1154 20.7134 18.7654 20.3618 18.3347 20.3618Z" fill="white"/><path d="M18.792 24.1748H11.9268C11.4961 24.1748 11.1191 24.5263 11.1191 24.986C11.1191 25.4187 11.4691 25.7973 11.9268 25.7973H18.7651C19.1959 25.7973 19.5728 25.4457 19.5728 24.986C19.5728 24.5263 19.2228 24.1748 18.792 24.1748Z" fill="white"/><path d="M14.3496 28.7175C14.3496 29.1501 14.6996 29.5287 15.1573 29.5287H19.8687C20.2995 29.5287 20.6764 29.1772 20.6764 28.7175C20.6764 28.2848 20.3264 27.9062 19.8687 27.9062H15.1573C14.7265 27.9333 14.3496 28.2848 14.3496 28.7175Z" fill="white"/></svg>