<svg width="58" height="52" viewBox="0 0 58 52" fill="none" xmlns="http://www.w3.org/2000/svg"><path d="M57.8689 50.6511L50.6814 39.9167V14.4014C50.6814 13.9237 50.2852 13.5303 49.8041 13.5303H47.8516C47.3706 13.5303 46.9744 13.9237 46.9744 14.4014C46.9744 14.8791 47.3706 15.2725 47.8516 15.2725H48.9269V39.3266H8.94283V15.2725H10.3294C10.8105 15.2725 11.2066 14.8791 11.2066 14.4014C11.2066 13.9237 10.8105 13.5303 10.3294 13.5303H8.06561C7.58456 13.5303 7.1884 13.9237 7.1884 14.4014V39.9167L0.142367 50.6511C-0.0274171 50.9321 -0.0557144 51.2693 0.114069 51.5503C0.255556 51.8313 0.566826 51.9999 0.878097 51.9999H57.1332C57.4444 51.9999 57.7557 51.8313 57.8972 51.5503C58.0387 51.2412 58.0387 50.904 57.8689 50.6511ZM2.49104 50.2577L8.51837 41.0407H49.3231L55.4919 50.2296H2.49104V50.2577Z" fill="#5ACF28"/><path d="M13.3567 32.3015H44.6536C45.1063 32.3015 45.4742 31.9362 45.4742 31.4866V12.7997C45.4742 12.7435 45.4742 12.6873 45.4459 12.6311C45.4459 12.5749 45.4176 12.5187 45.3893 12.4625C45.3893 12.4344 45.361 12.4344 45.361 12.4063C45.3327 12.3782 45.3327 12.3501 45.3044 12.322C45.3044 12.322 45.3044 12.322 45.3044 12.2939C45.3044 12.2658 45.2761 12.2658 45.2478 12.2377C45.2195 12.2096 45.1912 12.1815 45.1629 12.1534C45.1629 12.1534 45.1629 12.1534 45.1346 12.1253L42.8991 10.355C42.5596 10.074 42.0219 10.1302 41.7389 10.4955C41.456 10.8327 41.5126 11.3666 41.8804 11.6476L43.267 12.7435L29.3447 22.6911C29.1183 22.8597 28.8354 22.8597 28.609 22.6911L14.715 12.7716L16.0167 11.7319C16.3562 11.4509 16.4128 10.9451 16.1582 10.5798C15.8752 10.2426 15.3658 10.1864 14.998 10.4393L12.8474 12.1534C12.8474 12.1534 12.8474 12.1534 12.8191 12.1815C12.7908 12.2096 12.7625 12.2377 12.7342 12.2658C12.7059 12.2939 12.7059 12.2939 12.6776 12.322C12.6776 12.322 12.6776 12.322 12.6776 12.3501C12.6493 12.3782 12.6493 12.4063 12.621 12.4344C12.621 12.4625 12.5927 12.4625 12.5927 12.4906C12.5644 12.5468 12.5361 12.603 12.5361 12.6592C12.5361 12.7154 12.5078 12.7716 12.5078 12.8278V31.5428C12.5361 31.9362 12.904 32.3015 13.3567 32.3015ZM29.0051 24.4333C29.4579 24.4333 29.939 24.2928 30.3351 24.0118L31.6651 23.0845L34.891 25.2201C35.0325 25.3044 35.174 25.3606 35.3437 25.3606C35.5984 25.3606 35.8814 25.2201 36.0229 24.9953C36.2776 24.63 36.1644 24.1242 35.7965 23.8713L33.08 22.0729L43.8329 14.4014V30.7278H14.1774V14.3733L24.7888 21.9605L21.563 23.8151C21.1668 24.0399 21.0536 24.5457 21.28 24.911C21.4215 25.1639 21.7044 25.3044 21.9874 25.3044C22.1289 25.3044 22.2704 25.2763 22.3836 25.192L26.2603 22.9721L27.6752 23.9837C28.0713 24.2928 28.5241 24.4333 29.0051 24.4333Z" fill="white"/><path d="M18.3655 15.1602C18.8183 15.1602 19.1862 14.7949 19.1862 14.3453V4.00433H38.8245V14.3453C38.8245 14.7949 39.1924 15.1602 39.6451 15.1602C40.0979 15.1602 40.4657 14.7949 40.4657 14.3453V3.18941C40.4657 2.7398 40.0979 2.37449 39.6451 2.37449H32.8538L30.4768 0.491759L30.4485 0.463659C29.5996 -0.154553 28.4394 -0.154553 27.5905 0.463659L27.5622 0.491759L25.1852 2.34639C25.1569 2.34639 25.1569 2.37449 25.1569 2.37449H18.3655C17.9128 2.37449 17.5449 2.7398 17.5449 3.18941V14.3453C17.5449 14.7949 17.9128 15.1602 18.3655 15.1602ZM28.5243 1.78438C28.8073 1.58768 29.1751 1.58768 29.4581 1.78438L30.2221 2.4026H27.7603L28.5243 1.78438Z" fill="white"/><path d="M21.9593 7.62934H28.3828C28.8355 7.62934 29.2034 7.26404 29.2034 6.81443C29.2034 6.36482 28.8355 5.99951 28.3828 5.99951H21.9593C21.5065 5.99951 21.1387 6.36482 21.1387 6.81443C21.1387 7.26404 21.5065 7.62934 21.9593 7.62934Z" fill="white"/><path d="M35.6835 9.62451H21.9593C21.5065 9.62451 21.1387 9.98982 21.1387 10.4394C21.1387 10.889 21.5065 11.2543 21.9593 11.2543H35.6835C36.1362 11.2543 36.5041 10.889 36.5041 10.4394C36.5041 9.98982 36.1362 9.62451 35.6835 9.62451Z" fill="white"/><path d="M36.5041 14.0366C36.5041 13.587 36.1362 13.2217 35.6835 13.2217H21.9593C21.5065 13.2217 21.1387 13.587 21.1387 14.0366C21.1387 14.4862 21.5065 14.8515 21.9593 14.8515H35.6835C36.1362 14.8234 36.5041 14.4862 36.5041 14.0366Z" fill="white"/><path d="M25.8929 16.8184C25.4401 16.8184 25.0723 17.1837 25.0723 17.6333C25.0723 18.0829 25.4401 18.4482 25.8929 18.4482H32.3164C32.7691 18.4482 33.137 18.0829 33.137 17.6333C33.137 17.1837 32.7691 16.8184 32.3164 16.8184H25.8929Z" fill="white"/><path d="M11.6032 47.3354H8.46218C7.98112 47.3354 7.58496 47.7289 7.58496 48.2066C7.58496 48.6843 7.98112 49.0777 8.46218 49.0777H11.6032C12.0842 49.0777 12.4804 48.6843 12.4804 48.2066C12.4521 47.7289 12.0842 47.3354 11.6032 47.3354Z" fill="#5ACF28"/><path d="M43.2105 47.3354H14.7717C14.2907 47.3354 13.8945 47.7289 13.8945 48.2066C13.8945 48.6843 14.2907 49.0777 14.7717 49.0777H43.2105C43.6916 49.0777 44.0878 48.6843 44.0878 48.2066C44.0878 47.7289 43.7199 47.3354 43.2105 47.3354Z" fill="#5ACF28"/><path d="M46.4085 47.3354C45.9274 47.3354 45.5312 47.7289 45.5312 48.2066C45.5312 48.6843 45.9274 49.0777 46.4085 49.0777H49.5495C50.0305 49.0777 50.4267 48.6843 50.4267 48.2066C50.4267 47.7289 50.0305 47.3354 49.5495 47.3354H46.4085Z" fill="#5ACF28"/><path d="M12.9042 44.4131H10.0178C9.53679 44.4131 9.14062 44.8065 9.14062 45.2842C9.14062 45.7619 9.53679 46.1553 10.0178 46.1553H12.9042C13.3852 46.1553 13.7814 45.7619 13.7814 45.2842C13.7814 44.8065 13.4135 44.4131 12.9042 44.4131Z" fill="#5ACF28"/><path d="M15.8753 46.1553H18.7616C19.2426 46.1553 19.6388 45.7619 19.6388 45.2842C19.6388 44.8065 19.2426 44.4131 18.7616 44.4131H15.8753C15.3942 44.4131 14.998 44.8065 14.998 45.2842C14.998 45.7619 15.3942 46.1553 15.8753 46.1553Z" fill="#5ACF28"/><path d="M21.7044 46.1553H24.619C25.1 46.1553 25.4962 45.7619 25.4962 45.2842C25.4962 44.8065 25.1 44.4131 24.619 44.4131H21.7044C21.2233 44.4131 20.8271 44.8065 20.8271 45.2842C20.8271 45.7619 21.2233 46.1553 21.7044 46.1553Z" fill="#5ACF28"/><path d="M27.5628 46.1553H30.4491C30.9301 46.1553 31.3263 45.7619 31.3263 45.2842C31.3263 44.8065 30.9301 44.4131 30.4491 44.4131H27.5628C27.0817 44.4131 26.6855 44.8065 26.6855 45.2842C26.6855 45.7619 27.0817 46.1553 27.5628 46.1553Z" fill="#5ACF28"/><path d="M33.3919 44.4131C32.9108 44.4131 32.5146 44.8065 32.5146 45.2842C32.5146 45.7619 32.9108 46.1553 33.3919 46.1553H36.2782C36.7592 46.1553 37.1554 45.7619 37.1554 45.2842C37.1554 44.8065 36.7592 44.4131 36.2782 44.4131H33.3919Z" fill="#5ACF28"/><path d="M38.3721 45.2842C38.3721 45.7619 38.7682 46.1553 39.2493 46.1553H42.1356C42.6167 46.1553 43.0128 45.7619 43.0128 45.2842C43.0128 44.8065 42.6167 44.4131 42.1356 44.4131H39.2493C38.7682 44.4131 38.3721 44.8065 38.3721 45.2842Z" fill="#5ACF28"/><path d="M48.8702 45.2842C48.8702 44.8065 48.4741 44.4131 47.993 44.4131H45.1067C44.6257 44.4131 44.2295 44.8065 44.2295 45.2842C44.2295 45.7619 44.6257 46.1553 45.1067 46.1553H47.993C48.4741 46.1553 48.8702 45.7619 48.8702 45.2842Z" fill="#5ACF28"/><path d="M11.6028 43.626H14.2628C14.7438 43.626 15.14 43.2326 15.14 42.7549C15.14 42.2772 14.7155 41.8838 14.2345 41.8838H11.6028C11.1217 41.8838 10.7256 42.2772 10.7256 42.7549C10.7256 43.2326 11.0935 43.626 11.6028 43.626Z" fill="#5ACF28"/><path d="M16.9514 43.626H19.6114C20.0924 43.626 20.4886 43.2326 20.4886 42.7549C20.4886 42.2772 20.0924 41.8838 19.6114 41.8838H16.9514C16.4704 41.8838 16.0742 42.2772 16.0742 42.7549C16.0742 43.2326 16.4704 43.626 16.9514 43.626Z" fill="#5ACF28"/><path d="M22.2991 43.626H24.959C25.4401 43.626 25.8363 43.2326 25.8363 42.7549C25.8363 42.2772 25.4401 41.8838 24.959 41.8838H22.2991C21.818 41.8838 21.4219 42.2772 21.4219 42.7549C21.4219 43.2326 21.818 43.626 22.2991 43.626Z" fill="#5ACF28"/><path d="M27.676 43.626H30.336C30.817 43.626 31.2132 43.2326 31.2132 42.7549C31.2132 42.2772 30.817 41.8838 30.336 41.8838H27.676C27.195 41.8838 26.7988 42.2772 26.7988 42.7549C26.7988 43.2326 27.195 43.626 27.676 43.626Z" fill="#5ACF28"/><path d="M33.0237 43.626H35.6836C36.1647 43.626 36.5609 43.2326 36.5609 42.7549C36.5609 42.2772 36.1647 41.8838 35.6836 41.8838H33.0237C32.5426 41.8838 32.1465 42.2772 32.1465 42.7549C32.1465 43.2326 32.5426 43.626 33.0237 43.626Z" fill="#5ACF28"/><path d="M38.4007 43.626H41.0606C41.5417 43.626 41.9378 43.2326 41.9378 42.7549C41.9378 42.2772 41.5417 41.8838 41.0606 41.8838H38.4007C37.9196 41.8838 37.5234 42.2772 37.5234 42.7549C37.5234 43.2326 37.9196 43.626 38.4007 43.626Z" fill="#5ACF28"/><path d="M43.7483 43.626H46.4083C46.8893 43.626 47.2855 43.2326 47.2855 42.7549C47.2855 42.2772 46.8893 41.8838 46.4083 41.8838H43.7483C43.2673 41.8838 42.8711 42.2772 42.8711 42.7549C42.8711 43.2326 43.2673 43.626 43.7483 43.626Z" fill="#5ACF28"/></svg>