<svg width="76" height="80" viewBox="0 0 76 80" fill="none" xmlns="http://www.w3.org/2000/svg"><path d="M6.1004 22.1526C6.68323 22.4266 7.38261 22.1918 7.69345 21.6047C8.97566 18.9432 10.5687 16.4775 12.4726 14.2466C15.2313 15.6947 18.4174 16.8689 21.8755 17.7691C21.3315 19.5303 20.8652 21.409 20.5155 23.3659C20.399 24.0313 20.8264 24.6575 21.4481 24.775C21.5258 24.775 21.6035 24.8141 21.6812 24.8141C22.2251 24.8141 22.7303 24.4227 22.8468 23.8356C23.2354 21.8787 23.6628 20.0391 24.2067 18.317C28.2088 19.1781 32.4828 19.6869 36.8734 19.726V20.6654C36.8734 21.3307 37.4174 21.8395 38.0391 21.8395C38.6996 21.8395 39.2047 21.2916 39.2047 20.6654V19.726C43.5953 19.6478 47.8693 19.1781 51.8714 18.317C52.1822 19.3738 52.493 20.5088 52.765 21.6438C52.9204 22.2701 53.5421 22.7006 54.2027 22.544C54.8243 22.3875 55.2517 21.7613 55.0963 21.0959C54.8243 19.9609 54.5135 18.8258 54.2027 17.7691C57.6607 16.8689 60.8468 15.6947 63.6055 14.2466C65.5483 16.5558 67.219 19.0998 68.5012 21.8787C68.6955 22.3092 69.1229 22.5832 69.5892 22.5832C69.7446 22.5832 69.9388 22.544 70.0943 22.4658C70.6771 22.1918 70.9491 21.4873 70.6771 20.8611C67.8018 14.7162 63.2947 9.51076 57.6219 5.79256C51.7548 1.99609 44.9941 0 38.0002 0C31.084 0 24.401 1.99609 18.6117 5.71429C12.9389 9.35421 8.43169 14.4814 5.55644 20.5479C5.28445 21.1742 5.51758 21.8787 6.1004 22.1526ZM24.9061 16.047C27.7425 8.29746 32.0943 3.20939 36.8346 2.46575V17.3386C32.6771 17.2994 28.675 16.8297 24.9061 16.047ZM39.2047 17.3777V2.50489C43.9061 3.20939 48.2579 8.25832 51.0943 16.047C47.3642 16.8297 43.3233 17.2994 39.2047 17.3777ZM56.262 7.82779C58.3213 9.15851 60.1863 10.7241 61.8959 12.4462C59.3703 13.6986 56.5339 14.7554 53.4256 15.5382C52.1045 11.82 50.4337 8.61057 48.491 6.10568C47.675 5.04892 46.8591 4.14873 45.9654 3.36595C49.6178 4.22701 53.0759 5.75342 56.262 7.82779ZM19.855 7.71037C23.0022 5.67515 26.4215 4.18787 30.035 3.32681C27.0431 6.0274 24.4787 10.1761 22.5748 15.499C19.4665 14.7162 16.6301 13.6595 14.1045 12.407C15.853 10.6458 17.7957 9.08024 19.855 7.71037Z" fill="#FE8C27"/><path d="M68.7729 60.1957C68.1901 59.8826 67.4907 60.0783 67.141 60.6262C66.0919 62.4266 64.8874 64.1487 63.5664 65.7143C60.9243 64.3053 57.1553 62.5832 52.687 61.5656C52.687 61.5656 52.687 61.5656 52.6482 61.5656H52.6093C52.5705 61.5656 52.5705 61.5656 52.5316 61.5656H52.4928C52.4539 61.5656 52.4539 61.5656 52.415 61.5656H52.3762C52.3373 61.5656 52.3373 61.5656 52.2985 61.5656H52.2596C52.2208 61.5656 52.2208 61.5656 52.1819 61.5656H52.1431C52.1042 61.5656 52.1042 61.5656 52.0654 61.5656H52.0265C51.9876 61.5656 51.9876 61.5656 51.9488 61.6047C51.9488 61.6047 51.9488 61.6047 51.9099 61.6047C51.8711 61.6047 51.8711 61.6438 51.8322 61.6438C51.8322 61.6438 51.8322 61.6438 51.7934 61.6438C51.7545 61.6438 51.7545 61.683 51.7157 61.683C51.7157 61.683 51.7157 61.683 51.6768 61.683C51.638 61.683 51.638 61.7221 51.5991 61.7221C51.5991 61.7221 51.5991 61.7221 51.5602 61.7221C51.5214 61.7221 51.5214 61.7613 51.4825 61.7613C51.4825 61.7613 51.4825 61.7612 51.4437 61.8004C51.4048 61.8004 51.4048 61.8395 51.4048 61.8395C51.4048 61.8395 51.4048 61.8787 51.366 61.8787L51.3271 61.9178C51.3271 61.9178 51.3271 61.9569 51.2883 61.9569L51.2494 61.9961L51.2106 62.0352C51.2106 62.0352 51.2105 62.0744 51.1717 62.0744C51.1717 62.1135 51.1717 62.1135 51.1328 62.1526V62.1918C48.0245 70.8415 43.4784 76.4775 39.049 77.3386V68.6106C39.049 67.9452 38.505 67.4364 37.8834 67.4364C37.2228 67.4364 36.7177 67.9843 36.7177 68.6106V77.4951C32.2883 76.6341 27.7811 70.998 24.6727 62.3483V62.3092C24.6727 62.2701 24.6727 62.2701 24.6339 62.2309C24.6339 62.2309 24.6339 62.1918 24.595 62.1918C24.595 62.1526 24.5562 62.1526 24.5562 62.1135L24.5173 62.0744L24.4784 62.0352L24.4396 61.9961L24.4007 61.9569L24.3619 61.9178L24.323 61.8787L24.2842 61.8395L24.2453 61.8004L24.2065 61.7613L24.1676 61.7221C24.1676 61.7221 24.1288 61.7221 24.1288 61.683C24.1288 61.683 24.0899 61.6438 24.051 61.6438H24.0122C23.9733 61.6438 23.9733 61.6438 23.9345 61.6047H23.8956C23.8568 61.6047 23.8568 61.6047 23.8179 61.5656H23.7791C23.7402 61.5656 23.7402 61.5656 23.7013 61.5656H23.6625C23.6236 61.5656 23.6236 61.5656 23.5848 61.5656H23.5459C23.5071 61.5656 23.5071 61.5656 23.4682 61.5656C23.4294 61.5656 23.4294 61.5656 23.3905 61.5656H23.3517C23.3128 61.5656 23.3128 61.5656 23.2739 61.5656H23.2351C19.5827 62.4266 15.8138 63.8356 12.3169 65.7143C10.957 64.1487 9.79133 62.4266 8.74225 60.6262C8.43141 60.0391 7.69317 59.8434 7.11035 60.1957C6.52752 60.5088 6.33325 61.2524 6.68294 61.8395C7.9263 64.0313 9.44164 66.0665 11.1124 67.9452C11.1512 67.9843 11.1901 68.0626 11.229 68.1018C13.6768 70.8023 16.4744 73.1115 19.6216 74.9902C25.139 78.2779 31.4335 80 37.8834 80C44.3333 80 50.6277 78.2779 56.1451 74.9902C59.2535 73.1507 62.0899 70.8023 64.5378 68.1018C64.5766 68.0626 64.6155 68.0235 64.6543 67.9452C66.3251 66.0665 67.8016 64.0313 69.0838 61.8395C69.5112 61.2916 69.3169 60.5479 68.7729 60.1957ZM20.9427 72.9159C18.456 71.4286 16.1247 69.6282 14.1042 67.5538C16.9406 66.0665 19.9713 64.9315 22.9243 64.1487C25.0613 69.7847 27.7811 74.1292 30.7729 76.8297C27.3148 76.047 24.0122 74.7554 20.9427 72.9159ZM55.0572 72.9159C51.9876 74.7162 48.685 76.047 45.2269 76.7906C45.8486 76.2035 46.5091 75.5773 47.0919 74.8337C49.3844 72.1331 51.4437 68.4149 53.1144 64.1096C56.6114 65.0098 59.642 66.3405 61.8956 67.5147C59.8752 69.6282 57.5827 71.4286 55.0572 72.9159Z" fill="#FE8C27"/><path d="M38.3881 55.773C37.611 54.9902 36.6008 54.5988 35.6294 54.5988C35.6294 53.5812 35.2409 52.5636 34.4638 51.82C33.6867 51.0372 32.7153 50.6458 31.7051 50.6458C31.7051 49.589 31.2777 48.6106 30.5394 47.8669C29.8012 47.1233 28.8298 46.6928 27.7807 46.6928C27.7807 45.636 27.3533 44.6575 26.6151 43.9139C25.8768 43.1702 24.8666 42.7397 23.8175 42.7397C22.7685 42.7397 21.7582 43.1702 21.02 43.9139L19.3492 45.5969C18.611 46.3405 18.1836 47.3581 18.1836 48.4149C18.1836 49.4716 18.611 50.4892 19.3492 51.2329C20.0875 51.9765 21.0589 52.407 22.1079 52.407C22.1079 53.4638 22.5353 54.4423 23.2736 55.1859C24.0118 55.9295 24.9832 56.3601 26.0323 56.3601C26.0323 57.3777 26.4208 58.3953 27.1979 59.1389C27.975 59.9217 28.9852 60.3131 29.9566 60.3131C29.9566 61.3307 30.3451 62.3483 31.1222 63.092C31.8993 63.8747 32.9096 64.2661 33.9198 64.2661C34.93 64.2661 35.9402 63.8747 36.7173 63.092L37.8441 61.9569C38.6212 62.7006 39.6314 63.092 40.6417 63.092C41.6519 63.092 42.6621 62.7006 43.4392 61.9178C44.022 61.3307 44.3717 60.6262 44.5272 59.8826C44.7991 59.9609 45.11 60 45.4208 60C46.431 60 47.4413 59.6086 48.2184 58.8258C48.7623 58.2779 49.112 57.6125 49.2674 56.8689C49.6171 56.9472 49.9668 57.0254 50.3165 57.0254C51.3656 57.0254 52.3758 56.5949 53.1141 55.8513C53.8523 55.1076 54.2797 54.09 54.2797 53.0333C54.2797 52.3288 54.0854 51.6243 53.7357 50.998C54.2797 50.8023 54.7848 50.4892 55.2122 50.0587C55.9505 49.3151 56.3779 48.2975 56.3779 47.2407C56.3779 46.1839 55.9505 45.1663 55.2122 44.4227L47.5578 36.7123C47.0916 36.2427 46.3533 36.2427 45.8871 36.7123C45.4208 37.182 45.4208 37.9256 45.8871 38.3953L53.5415 46.1057C53.8523 46.4188 54.0077 46.8102 54.0077 47.2407C54.0077 47.6712 53.8523 48.0626 53.5415 48.3757C53.2306 48.6888 52.8421 48.8454 52.4147 48.8454C52.065 48.8454 51.7541 48.728 51.4822 48.5323L51.4433 48.4931C51.4044 48.454 51.3267 48.3757 51.249 48.3366L45.8871 42.9354C45.4208 42.4657 44.6826 42.4657 44.2163 42.9354C43.7501 43.4051 43.7501 44.1487 44.2163 44.6184L49.5783 50.0196C49.6948 50.137 49.7725 50.2153 49.8891 50.2935L51.4045 51.82C51.7153 52.1331 51.8707 52.5245 51.8707 52.955C51.8707 53.3855 51.7153 53.7769 51.4045 54.09C51.0936 54.4031 50.7051 54.5597 50.2777 54.5597C49.8503 54.5597 49.4617 54.4031 49.1509 54.09L48.4903 53.4247C48.4126 53.3072 48.2961 53.1898 48.2184 53.1115L42.2736 47.1233C41.8073 46.6536 41.0691 46.6536 40.6028 47.1233C40.1366 47.593 40.1366 48.3366 40.6028 48.8063L45.6928 53.9335C45.7317 54.0117 45.7705 54.0509 45.8482 54.1292L46.7419 55.0294C47.2081 55.6556 47.1304 56.5558 46.5865 57.1037C45.9648 57.7299 44.9546 57.7299 44.294 57.1037L43.7501 56.5558C43.6723 56.4384 43.5558 56.3209 43.4781 56.2427L38.2327 50.9589C37.7664 50.4892 37.0282 50.4892 36.5619 50.9589C36.0957 51.4286 36.0957 52.1722 36.5619 52.6419L40.8359 56.9472C40.8748 57.0254 40.9137 57.0646 40.9914 57.1429L42.0016 58.1605C42.4678 58.7867 42.3901 59.6869 41.8462 60.2348C41.2245 60.861 40.2143 60.861 39.5537 60.2348L39.3595 60.0391C39.8646 58.6301 39.5537 56.908 38.3881 55.773ZM20.5149 48.3757C20.5149 47.9452 20.6703 47.5538 20.9811 47.2407L22.6519 45.5577C22.9627 45.2446 23.3513 45.0881 23.7787 45.0881C24.2061 45.0881 24.5946 45.2446 24.9055 45.5577C25.2163 45.8708 25.3717 46.2622 25.3717 46.6928C25.3717 47.045 25.2552 47.3973 25.0609 47.6712C25.022 47.7104 24.9443 47.7886 24.9055 47.8278L23.2347 49.5108C23.1959 49.5499 23.1182 49.6282 23.0793 49.6673C22.8073 49.863 22.4576 49.9804 22.1079 49.9804C21.6805 49.9804 21.292 49.8239 20.9811 49.5108C20.6703 49.2368 20.5149 48.8063 20.5149 48.3757ZM24.4392 52.3679C24.4392 52.0157 24.5558 51.6634 24.7501 51.3894C24.7889 51.3503 24.8666 51.272 24.9055 51.2329L26.5762 49.5499C26.6151 49.5108 26.6928 49.4325 26.7317 49.3933C27.0036 49.1976 27.3533 49.0802 27.703 49.0802C28.1304 49.0802 28.519 49.2368 28.8298 49.5499C29.1406 49.863 29.2961 50.2544 29.2961 50.6849C29.2961 51.0372 29.1795 51.3894 28.9852 51.6634C28.9464 51.7025 28.8687 51.7808 28.8298 51.82L27.1591 53.5029C27.1202 53.5421 27.0425 53.6203 27.0036 53.6595C26.7317 53.8552 26.382 53.9726 26.0323 53.9726C25.6049 53.9726 25.2163 53.816 24.9055 53.5029C24.5946 53.1898 24.4392 52.7984 24.4392 52.3679ZM28.3636 56.3209C28.3636 55.9687 28.4801 55.6164 28.6744 55.3425C28.7132 55.3033 28.791 55.225 28.8298 55.1859L30.5006 53.5029C30.5394 53.4638 30.6171 53.3855 30.656 53.3464C30.928 53.1507 31.2777 53.0333 31.6274 53.0333C32.0548 53.0333 32.4433 53.1898 32.7541 53.5029C33.337 54.09 33.3758 54.9902 32.9096 55.6164C32.8707 55.6556 32.793 55.7339 32.7541 55.773L31.0834 57.456C31.0445 57.4951 30.9668 57.5734 30.928 57.6125C30.3063 58.0822 29.3738 58.043 28.8298 57.456C28.5578 57.182 28.3636 56.7515 28.3636 56.3209ZM33.9198 61.9178C33.4924 61.9178 33.1038 61.7612 32.793 61.4481C32.2102 60.8611 32.1713 59.9609 32.6376 59.3346C32.6764 59.2955 32.7541 59.2172 32.793 59.1781L34.4638 57.4951C34.5026 57.456 34.5803 57.3777 34.6192 57.3385C34.8912 57.1037 35.2409 57.0254 35.5905 57.0254C36.0179 57.0254 36.4065 57.182 36.7173 57.4951C37.339 58.1213 37.339 59.1389 36.7173 59.8043L35.0466 61.4873C34.7746 61.7612 34.3472 61.9178 33.9198 61.9178Z" fill="#292B2C"/><path d="M74.7955 53.1115H69.4335V31.2329H74.7955C75.456 31.2329 75.9611 30.6849 75.9611 30.0587C75.9611 29.3933 75.4172 28.8845 74.7955 28.8845H68.2679H62.09C61.4294 28.8845 60.9243 29.4325 60.9243 30.0587V31.82H56.2229L52.5706 26.4188C51.8323 25.3229 50.589 24.6575 49.2679 24.6575H40.7975C39.7096 24.6575 38.6994 25.0881 37.9611 25.8317L36.2127 27.593H29.2188C26.8098 27.593 24.5174 28.5323 22.8078 30.2544L21.5256 31.546H15.0757V30.0196C15.0757 29.3542 14.5317 28.8454 13.91 28.8454H7.73211H1.16564C0.505112 28.8454 0 29.3933 0 30.0196C0 30.6849 0.543967 31.1937 1.16564 31.1937H6.52761V53.0333H1.16564C0.505112 53.0333 0 53.5812 0 54.2074C0 54.8337 0.543967 55.3816 1.16564 55.3816H7.69325H13.8712C14.5317 55.3816 15.0368 54.8337 15.0368 54.2074V52.955H16.1247C16.7853 52.955 17.2904 52.407 17.2904 51.7808C17.2904 51.1546 16.7464 50.6067 16.1247 50.6067H15.0368V33.9726H21.9918C22.3027 33.9726 22.6135 33.8552 22.8466 33.6204L24.4785 31.9765C25.7607 30.6849 27.4315 29.9804 29.2188 29.9804H33.8425L32.5215 31.3112C31.6667 32.1722 31.2004 33.3072 31.2004 34.5205C31.2004 35.7339 31.6667 36.8689 32.5215 37.7299C33.3763 38.591 34.5031 39.0607 35.7076 39.0607C36.9121 39.0607 38.0389 38.591 38.8937 37.7299L43.1288 33.4638H47.908C48.5685 33.4638 49.0736 32.9158 49.0736 32.2896C49.0736 31.6243 48.5297 31.1155 47.908 31.1155H42.6237C42.3129 31.1155 42.002 31.2329 41.7689 31.4677L37.2229 36.047C36.8344 36.4384 36.2904 36.6732 35.7076 36.6732C35.1247 36.6732 34.6196 36.4384 34.1922 36.047C33.8037 35.6556 33.5706 35.1076 33.5706 34.5205C33.5706 33.9335 33.8037 33.4247 34.1922 32.9941L39.6319 27.5147C39.9427 27.2016 40.3701 27.045 40.7975 27.045H49.229C49.773 27.045 50.2781 27.319 50.589 27.7495L54.591 33.6595C54.8241 33.9726 55.1738 34.1683 55.5624 34.1683H60.8855V50.6067H58.593C57.9325 50.6067 57.4274 51.1546 57.4274 51.7808C57.4274 52.407 57.9714 52.955 58.593 52.955H60.8855V54.2074C60.8855 54.8728 61.4294 55.3816 62.0511 55.3816H68.229H74.7566C75.4172 55.3816 75.9223 54.8337 75.9223 54.2074C75.9223 53.5812 75.456 53.1115 74.7955 53.1115ZM12.7055 53.1115H8.89775V31.2329H12.7055V53.1115ZM63.2945 31.2329H67.1022V53.0724H63.2945V31.2329Z" fill="#292B2C"/></svg>