<svg xmlns="http://www.w3.org/2000/svg" xmlns:xlink="http://www.w3.org/1999/xlink"><defs>
		<filter id="filter0_f_25:18" x="0" y="0" width="192" height="192" filterUnits="userSpaceOnUse" color-interpolation-filters="sRGB">
			<feFlood flood-opacity="0" result="BackgroundImageFix"/>
			<feBlend mode="normal" in="SourceGraphic" in2="BackgroundImageFix" result="shape"/>
			<feGaussianBlur stdDeviation="10" result="effect1_foregroundBlur_25:18"/>
		</filter>
		<linearGradient id="paint0_linear_25:18" x1="25.1351" y1="-20.2595" x2="106.476" y2="172" gradientUnits="userSpaceOnUse">
			<stop stop-color="#FE8C27"/>
			<stop offset="1" stop-color="#F26210"/>
		</linearGradient>
	</defs><symbol id="icon-address" viewBox="0 0 21 19"><path d="M20.0625 5.875C19.9922 5.875 19.9219 5.91016 19.8516 5.94531L13.875 8.125L13.4883 8.01953C14.332 6.78906 15 5.52344 15 4.57422C15 2.18359 12.9609 0.25 10.5 0.25C8.00391 0.25 6 2.21875 6 4.57422C6 4.99609 6.14062 5.48828 6.35156 6.01562L1.07812 7.84375C0.65625 8.01953 0.375 8.44141 0.375 8.89844V17.6875C0.375 18.0391 0.621094 18.25 0.9375 18.25C1.00781 18.25 1.07812 18.25 1.14844 18.2148L7.125 16L13.1719 18.1445C13.6289 18.2852 14.1211 18.3203 14.5781 18.1445L19.8867 16.2812C20.3438 16.1406 20.625 15.7188 20.625 15.2617V6.4375C20.625 6.12109 20.3438 5.875 20.0625 5.875ZM6.5625 15.0156L1.46484 16.8789L1.42969 8.93359L6.5625 7.14062V15.0156ZM10.5 1.375C12.3281 1.375 13.875 2.81641 13.875 4.57422C13.875 5.52344 12.5039 7.70312 10.5 10.0938C8.46094 7.70312 7.125 5.52344 7.125 4.57422C7.125 2.81641 8.63672 1.375 10.5 1.375ZM13.3125 17.0195L7.6875 15.0156V8.30078C8.53125 9.56641 9.51562 10.6914 10.043 11.3242C10.1484 11.4648 10.3242 11.5 10.5 11.5C10.6406 11.5 10.8164 11.4648 10.9219 11.3242C11.3789 10.7969 12.1172 9.95312 12.8203 8.96875L13.3125 9.14453V17.0195ZM14.4375 17.0195V9.14453L19.5 7.24609L19.5352 15.2266L14.4375 17.0195ZM11.3438 4.75C11.3438 4.29297 10.957 3.90625 10.5 3.90625C10.0078 3.90625 9.65625 4.29297 9.65625 4.75C9.65625 5.24219 10.0078 5.59375 10.5 5.59375C10.957 5.59375 11.3438 5.24219 11.3438 4.75Z"/></symbol><symbol id="icon-circle-orange" viewBox="0 0 192 192">
	<g filter="url(#filter0_f_25:18)">
		<circle cx="96" cy="96" r="76" fill="url(#paint0_linear_25:18)"/>
	</g>
	
</symbol><symbol id="icon-email" viewBox="0 0 18 14"><path d="M16.3125 0.5H1.6875C0.738281 0.5 0 1.27344 0 2.1875V12.3125C0 13.2617 0.738281 14 1.6875 14H16.3125C17.2266 14 18 13.2617 18 12.3125V2.1875C18 1.27344 17.2266 0.5 16.3125 0.5ZM1.6875 1.625H16.3125C16.5938 1.625 16.875 1.90625 16.875 2.1875V3.66406C16.1016 4.29688 14.9766 5.21094 11.5664 7.91797C10.9688 8.41016 9.80859 9.53516 9 9.5C8.15625 9.53516 6.99609 8.41016 6.39844 7.91797C2.98828 5.21094 1.86328 4.29688 1.125 3.66406V2.1875C1.125 1.90625 1.37109 1.625 1.6875 1.625ZM16.3125 12.875H1.6875C1.37109 12.875 1.125 12.6289 1.125 12.3125V5.10547C1.89844 5.77344 3.16406 6.79297 5.69531 8.79688C6.43359 9.39453 7.69922 10.6602 9 10.625C10.2656 10.6602 11.5312 9.39453 12.2695 8.79688C14.8008 6.79297 16.0664 5.77344 16.875 5.10547V12.3125C16.875 12.6289 16.5938 12.875 16.3125 12.875Z"/></symbol><symbol id="icon-facebook" viewBox="0 0 8 15"><path d="M7.4758 8.37379L7.89041 5.67961H5.2968V3.93204C5.2968 3.19496 5.65918 2.47573 6.82082 2.47573H8V0.182039C8 0.182039 6.92986 0 5.90667 0C3.77059 0 2.37443 1.29029 2.37443 3.62621V5.67961H0V8.37379H2.37443V14.8868C3.34267 15.0377 4.32857 15.0377 5.2968 14.8868V8.37379H7.4758Z"/></symbol><symbol id="icon-google" viewBox="0 0 640 512"><path d="M386.061 228.496c1.834 9.692 3.143 19.384 3.143 31.956C389.204 370.205 315.599 448 204.8 448c-106.084 0-192-85.915-192-192s85.916-192 192-192c51.864 0 95.083 18.859 128.611 50.292l-52.126 50.03c-14.145-13.621-39.028-29.599-76.485-29.599-65.484 0-118.92 54.221-118.92 121.277 0 67.056 53.436 121.277 118.92 121.277 75.961 0 104.513-54.745 108.965-82.773H204.8v-66.009h181.261zm185.406 6.437V179.2h-56.001v55.733h-55.733v56.001h55.733v55.733h56.001v-55.733H627.2v-56.001h-55.733z"/></symbol><symbol id="icon-insta" viewBox="0 0 16 16"><path d="M8.00469 1.44091C10.1434 1.44091 10.3967 1.45028 11.2378 1.48779C12.0195 1.52217 12.4417 1.65345 12.7231 1.76284C13.0952 1.90662 13.3641 2.08166 13.6424 2.35984C13.9238 2.64114 14.0958 2.90682 14.2396 3.27877C14.349 3.56007 14.4804 3.98515 14.5148 4.76343C14.5523 5.60735 14.5617 5.86052 14.5617 7.99531C14.5617 10.1332 14.5523 10.3864 14.5148 11.2272C14.4804 12.0086 14.349 12.4306 14.2396 12.7119C14.0958 13.0838 13.9207 13.3526 13.6424 13.6308C13.361 13.9121 13.0952 14.084 12.7231 14.2278C12.4417 14.3372 12.0164 14.4685 11.2378 14.5028C10.3936 14.5403 10.1403 14.5497 8.00469 14.5497C5.86594 14.5497 5.61266 14.5403 4.77155 14.5028C3.98984 14.4685 3.56772 14.3372 3.2863 14.2278C2.91421 14.084 2.6453 13.909 2.36701 13.6308C2.0856 13.3495 1.91362 13.0838 1.76979 12.7119C1.66035 12.4306 1.52902 12.0055 1.49463 11.2272C1.4571 10.3833 1.44772 10.1301 1.44772 7.99531C1.44772 5.85739 1.4571 5.60422 1.49463 4.76343C1.52902 3.98203 1.66035 3.56007 1.76979 3.27877C1.91362 2.90682 2.08872 2.63802 2.36701 2.35984C2.64843 2.07853 2.91421 1.90662 3.2863 1.76284C3.56772 1.65345 3.99296 1.52217 4.77155 1.48779C5.61266 1.45028 5.86594 1.44091 8.00469 1.44091ZM8.00469 0C5.83154 0 5.55951 0.00937683 4.70588 0.0468842C3.85538 0.0843915 3.27067 0.221918 2.76412 0.418832C2.23568 0.625122 1.78855 0.89705 1.34454 1.34401C0.897401 1.78785 0.625366 2.23481 0.418995 2.75991C0.222005 3.26939 0.0844245 3.85075 0.0469025 4.70092C0.0093805 5.55734 0 5.82926 0 8.00156C0 10.1739 0.0093805 10.4458 0.0469025 11.2991C0.0844245 12.1492 0.222005 12.7337 0.418995 13.2401C0.625366 13.7683 0.897401 14.2153 1.34454 14.6591C1.78855 15.103 2.23568 15.378 2.76099 15.5812C3.27067 15.7781 3.85226 15.9156 4.70275 15.9531C5.55638 15.9906 5.82841 16 8.00156 16C10.1747 16 10.4467 15.9906 11.3004 15.9531C12.1509 15.9156 12.7356 15.7781 13.2421 15.5812C13.7674 15.378 14.2146 15.103 14.6586 14.6591C15.1026 14.2153 15.3778 13.7683 15.581 13.2432C15.778 12.7337 15.9156 12.1524 15.9531 11.3022C15.9906 10.4489 16 10.177 16 8.00469C16 5.83239 15.9906 5.56046 15.9531 4.70717C15.9156 3.857 15.778 3.27251 15.581 2.76617C15.384 2.23481 15.112 1.78785 14.6648 1.34401C14.2208 0.900176 13.7737 0.625122 13.2484 0.421957C12.7387 0.225044 12.1571 0.0875171 11.3066 0.0500098C10.4499 0.00937684 10.1778 0 8.00469 0Z"/><path d="M8.00436 3.89136C5.73428 3.89136 3.89258 5.73234 3.89258 8.00154C3.89258 10.2707 5.73428 12.1117 8.00436 12.1117C10.2744 12.1117 12.1161 10.2707 12.1161 8.00154C12.1161 5.73234 10.2744 3.89136 8.00436 3.89136ZM8.00436 10.6677C6.53162 10.6677 5.33717 9.4737 5.33717 8.00154C5.33717 6.52937 6.53162 5.33539 8.00436 5.33539C9.4771 5.33539 10.6715 6.52937 10.6715 8.00154C10.6715 9.4737 9.4771 10.6677 8.00436 10.6677Z"/><path d="M13.2392 3.72923C13.2392 4.26079 12.8077 4.68917 12.2793 4.68917C11.7477 4.68917 11.3193 4.25766 11.3193 3.72923C11.3193 3.19766 11.7508 2.76929 12.2793 2.76929C12.8077 2.76929 13.2392 3.20079 13.2392 3.72923Z"/></symbol><symbol id="icon-mobile" viewBox="0 0 12 19"><path d="M7.125 14.875C7.125 14.2773 6.59766 13.75 6 13.75C5.36719 13.75 4.875 14.2773 4.875 14.875C4.875 15.5078 5.36719 16 6 16C6.59766 16 7.125 15.5078 7.125 14.875ZM11.625 1.9375C11.625 1.02344 10.8516 0.25 9.9375 0.25H2.0625C1.11328 0.25 0.375 1.02344 0.375 1.9375V16.5625C0.375 17.5117 1.11328 18.25 2.0625 18.25H9.9375C10.8516 18.25 11.625 17.5117 11.625 16.5625V1.9375ZM10.5 1.9375V16.5625C10.5 16.8789 10.2188 17.125 9.9375 17.125H2.0625C1.74609 17.125 1.5 16.8789 1.5 16.5625V1.9375C1.5 1.65625 1.74609 1.375 2.0625 1.375H9.9375C10.2188 1.375 10.5 1.65625 10.5 1.9375Z"/></symbol><symbol id="icon-phone" viewBox="0 0 512 512"><path d="M493.4 24.6l-104-24c-11.3-2.6-22.9 3.3-27.5 13.9l-48 112c-4.2 9.8-1.4 21.3 6.9 28l60.6 49.6c-36 76.7-98.9 140.5-177.2 177.2l-49.6-60.6c-6.8-8.3-18.2-11.1-28-6.9l-112 48C3.9 366.5-2 378.1.6 389.4l24 104C27.1 504.2 36.7 512 48 512c256.1 0 464-207.5 464-464 0-11.2-7.7-20.9-18.6-23.4z"/></symbol><symbol id="icon-pinterest" viewBox="0 0 384 512"><path d="M204 6.5C101.4 6.5 0 74.9 0 185.6 0 256 39.6 296 63.6 296c9.9 0 15.6-27.6 15.6-35.4 0-9.3-23.7-29.1-23.7-67.8 0-80.4 61.2-137.4 140.4-137.4 68.1 0 118.5 38.7 118.5 109.8 0 53.1-21.3 152.7-90.3 152.7-24.9 0-46.2-18-46.2-43.8 0-37.8 26.4-74.4 26.4-113.4 0-66.2-93.9-54.2-93.9 25.8 0 16.8 2.1 35.4 9.6 50.7-13.8 59.4-42 147.9-42 209.1 0 18.9 2.7 37.5 4.5 56.4 3.4 3.8 1.7 3.4 6.9 1.5 50.4-69 48.6-82.5 71.4-172.8 12.3 23.4 44.1 36 69.3 36 106.2 0 153.9-103.5 153.9-196.8C384 71.3 298.2 6.5 204 6.5z"/></symbol><symbol id="icon-twitter" viewBox="0 0 17 14"><path d="M5.34616 14C11.7613 14 15.2701 8.61332 15.2701 3.94201C15.2701 3.78901 15.2701 3.6367 15.2599 3.48508C15.9425 2.98467 16.5317 2.36507 17 1.65529C16.3635 1.9413 15.6882 2.12878 14.9967 2.21146C15.7249 1.76973 16.2698 1.07487 16.5301 0.25624C15.8455 0.668035 15.0964 0.958224 14.3154 1.11428C13.7895 0.547548 13.094 0.172275 12.3365 0.0465293C11.579 -0.0792164 10.8017 0.0515763 10.1249 0.418668C9.44811 0.785759 8.90957 1.36868 8.59261 2.07723C8.27564 2.78579 8.19793 3.58046 8.37148 4.33829C6.9848 4.26779 5.62824 3.90255 4.38986 3.26627C3.15148 2.62998 2.05896 1.73689 1.1832 0.644941C0.737183 1.42314 0.600576 2.34438 0.801196 3.22108C1.00181 4.09778 1.52458 4.86402 2.26304 5.3638C1.70796 5.34732 1.16496 5.19555 0.68 4.92134V4.96614C0.68022 5.78229 0.958978 6.57324 1.46899 7.20483C1.97901 7.83642 2.68888 8.26976 3.4782 8.43137C2.96472 8.57333 2.42595 8.59408 1.90332 8.49202C2.12629 9.19436 2.56022 9.80854 3.14446 10.2487C3.7287 10.6888 4.43404 10.9329 5.16188 10.9469C4.43873 11.523 3.6106 11.9489 2.72487 12.2004C1.83914 12.4518 0.913194 12.5237 0 12.4121C1.59505 13.4495 3.45095 13.9998 5.34616 13.9972"/></symbol><symbol id="icon-youtube" viewBox="0 0 576 512"><path d="M549.655 124.083c-6.281-23.65-24.787-42.276-48.284-48.597C458.781 64 288 64 288 64S117.22 64 74.629 75.486c-23.497 6.322-42.003 24.947-48.284 48.597-11.412 42.867-11.412 132.305-11.412 132.305s0 89.438 11.412 132.305c6.281 23.65 24.787 41.5 48.284 47.821C117.22 448 288 448 288 448s170.78 0 213.371-11.486c23.497-6.321 42.003-24.171 48.284-47.821 11.412-42.867 11.412-132.305 11.412-132.305s0-89.438-11.412-132.305zm-317.51 213.508V175.185l142.739 81.205-142.739 81.201z"/></symbol></svg>