<svg width="19" height="20" viewBox="0 0 19 20" fill="none" xmlns="http://www.w3.org/2000/svg"><path d="M9.43675 0.50042C8.87367 0.503647 8.30898 0.537528 7.73944 0.606905C6.65038 0.740818 5.57101 0.96347 4.5352 1.43943C2.8879 2.19612 1.71979 3.4804 1.38097 5.34712C1.23737 6.13447 1.12121 6.93311 1.05506 7.73659C0.927599 9.29676 1.00666 10.8618 1.44873 12.3994C1.79723 13.611 2.43937 14.7001 3.56392 15.4068C4.03988 15.7052 4.6675 15.8505 4.99502 16.0021C5.08698 16.0457 5.10957 16.0715 5.11441 16.0779C5.11925 16.0828 5.13216 16.0941 5.13055 16.1909C5.11925 17.1783 5.13055 19.0886 5.13055 19.0886L5.13216 19.5H5.86949L5.98888 19.3838C5.98888 19.3838 7.86206 17.5816 8.53969 16.8395C8.66231 16.7072 8.72524 16.633 8.73814 16.6249C8.74944 16.6168 8.73008 16.612 8.85592 16.6088C9.74492 16.591 10.6323 16.5571 11.5197 16.5087C12.6894 16.4442 13.8817 16.3329 15.0289 15.8537C16.0276 15.4358 16.8617 14.7533 17.3667 13.7304C17.883 12.6817 18.1589 11.5701 18.2621 10.4197C18.4332 8.50457 18.3735 6.58622 17.8443 4.6953C17.5329 3.58688 16.9069 2.64949 15.9469 1.98799C14.7981 1.19742 13.5026 0.900547 12.2344 0.711777C11.4939 0.602065 10.7485 0.529461 9.99984 0.506873C9.81268 0.502033 9.62552 0.498806 9.43675 0.50042ZM9.97725 1.33294C10.6888 1.3523 11.4003 1.42168 12.1134 1.52817C13.3364 1.71048 14.49 1.98799 15.479 2.66885C16.2809 3.22064 16.781 3.96604 17.0488 4.91634C17.5426 6.68464 17.6055 8.49651 17.4393 10.3471C17.3441 11.4136 17.0908 12.4187 16.6245 13.3658C16.2131 14.2015 15.571 14.7324 14.7094 15.0921C13.7091 15.51 12.6216 15.6213 11.4761 15.6843C10.5984 15.7327 9.7191 15.7649 8.83979 15.7827C8.61875 15.7875 8.40255 15.8456 8.24928 15.9586C8.096 16.0715 8.02663 16.1764 7.93144 16.2796C7.44741 16.8088 6.48259 17.7398 5.95662 18.2496C5.95339 17.6333 5.94855 16.8879 5.95662 16.2006C5.95984 15.9892 5.91144 15.773 5.79043 15.602C5.66943 15.431 5.50325 15.3277 5.34352 15.2535C4.87724 15.0373 4.26737 14.8727 4.00277 14.7065C3.07828 14.1257 2.55392 13.2545 2.24253 12.1703C1.83434 10.7521 1.75689 9.29192 1.8779 7.80597C1.94244 7.03475 2.05376 6.26193 2.19413 5.49555C2.48777 3.88053 3.41065 2.86407 4.87885 2.18967C5.80657 1.76372 6.7972 1.55398 7.84108 1.42652C8.5526 1.3394 9.26412 1.31197 9.97725 1.33294ZM10.1515 3.39166C9.81107 3.39166 9.48032 3.43038 9.15925 3.50137C8.93821 3.553 8.79784 3.77404 8.84786 3.99669C8.89787 4.21934 9.12052 4.3581 9.34317 4.30808C9.60293 4.24838 9.87399 4.21773 10.1515 4.21773C12.1683 4.21773 13.7946 5.84405 13.7946 7.85921C13.7946 8.13833 13.7639 8.40938 13.7042 8.67076C13.6542 8.89179 13.793 9.11445 14.0156 9.16446C14.2383 9.21448 14.4593 9.07411 14.5093 8.85146C14.5819 8.532 14.6207 8.20125 14.6207 7.85921C14.6207 5.39714 12.6152 3.39166 10.1515 3.39166ZM6.03083 4.21934C5.96307 4.21612 5.89369 4.22096 5.82109 4.23709C5.07085 4.40327 4.32545 4.94699 4.30448 5.91827C4.32545 6.0538 4.32384 6.199 4.37385 6.32162C4.61909 6.92181 4.83206 7.54137 5.13861 8.10929C6.63102 10.8682 8.88819 12.7866 11.7649 14.0047C12.1086 14.1499 12.4635 14.1806 12.8104 14.0354C13.288 13.8369 13.6929 13.5304 13.9624 13.0899C14.3319 12.4849 14.3367 12.0654 13.7284 11.6185C13.3299 11.3248 12.9379 11.0231 12.5345 10.7359C11.9198 10.3003 11.2551 10.2245 10.7969 10.9892C10.7727 11.028 10.7372 11.0602 10.7065 11.0925C10.471 11.3426 10.1822 11.4039 9.8756 11.278C8.71233 10.7989 7.81366 10.026 7.27155 8.87566C6.95209 8.19964 7.03922 7.86082 7.63618 7.41068C7.69588 7.36712 7.75235 7.32033 7.8072 7.27031C8.06858 7.03153 8.13795 6.74756 7.98307 6.42649C7.63295 5.694 7.16668 5.04057 6.57617 4.47749C6.41644 4.32583 6.23412 4.23064 6.03083 4.21934ZM10.145 4.63076C9.96273 4.63076 9.78202 4.64528 9.60455 4.67594C9.4545 4.6953 9.32704 4.79533 9.27218 4.9357C9.21733 5.07768 9.24476 5.23741 9.34156 5.35357C9.43998 5.46813 9.59487 5.52137 9.7433 5.4891C9.87238 5.46813 10.0079 5.45683 10.145 5.45683C11.4874 5.45683 12.5652 6.53459 12.5652 7.87696C12.5652 8.0141 12.5539 8.14962 12.5329 8.2787C12.5006 8.42713 12.5539 8.58202 12.6684 8.68044C12.7846 8.77724 12.9443 8.80467 13.0863 8.74981C13.2267 8.69496 13.3267 8.5675 13.3461 8.41745C13.3767 8.23997 13.3912 8.05927 13.3912 7.87696C13.3912 6.08929 11.9327 4.63076 10.145 4.63076ZM10.087 5.86987C9.93853 5.86825 9.79977 5.9457 9.72394 6.07477C9.64972 6.20384 9.64972 6.36196 9.72394 6.49103C9.79977 6.6201 9.93853 6.69755 10.087 6.69594C10.7759 6.69594 11.3261 7.24611 11.3261 7.93504C11.3244 8.08347 11.4019 8.22223 11.531 8.29806C11.66 8.37227 11.8182 8.37227 11.9472 8.29806C12.0763 8.22223 12.1537 8.08347 12.1521 7.93504C12.1521 6.79919 11.2228 5.86987 10.087 5.86987Z" fill="white"/></svg>