<svg width="64" height="64" viewBox="0 0 64 64" fill="#000000" xmlns="http://www.w3.org/2000/svg"><path d="M48.3,31.3c-0.5,0-0.9-0.5-0.9-1c0-0.2,0.1-0.5,0.3-0.6l9.5-8.5c0.4-0.3,0.4-0.9,0.1-1.3l-0.6-0.7l-1.4,1.2L32.3,41.2c-1,0.9-2.4,1.2-3.7,0.7L21,44L19.8,45c-0.4,0.3-1,0.3-1.3-0.1c-0.3-0.4-0.3-1,0.1-1.3l1.2-1.1l2.9-7.3c-0.3-1.3,0.1-2.7,1.1-3.6l23.1-20.8l3.4-3.1c1.2-1.1,3.1-1.2,4.5-0.3c0,0,2.1-1.9,2.1-1.9C57.5,5,58.7,5,59.4,5.8c0,0,0,0,0,0l2.4,2.7c0.7,0.8,0.6,1.9-0.1,2.6L59.5,13c0.8,1.5,0.4,3.3-0.8,4.4L58.1,18l0.6,0.7c1,1.1,0.9,2.9-0.2,3.9L49,31.1C48.8,31.2,48.6,31.3,48.3,31.3z M23.8,37.3l-1.8,4.5l4.7-1.3L23.8,37.3z M48.7,11.7l-1.4,1.2l6.1,6.8l1.4-1.2L48.7,11.7z"/><path d="M32,61.5C15.7,61.5,2.5,48.3,2.5,32C2.5,15.7,15.7,2.5,32,2.5c4.1,0,8.1,0.8,11.8,2.5c0.8,0.3,1.1,1.2,0.8,2c-0.3,0.8-1.2,1.1-2,0.8C39.3,6.2,35.7,5.5,32,5.5C17.4,5.5,5.5,17.4,5.5,32S17.4,58.5,32,58.5S58.5,46.6,58.5,32c0-1.2-0.1-2.4-0.2-3.6c-0.1-0.8,0.5-1.6,1.3-1.7c0.8-0.1,1.6,0.5,1.7,1.3c0.2,1.3,0.3,2.7,0.3,4C61.5,48.3,48.3,61.5,32,61.5z"/></svg>