<svg width="36" height="29" viewBox="0 0 36 29" fill="none" xmlns="http://www.w3.org/2000/svg"><path d="M35.4721 18.2271L29.6686 3.51239C29.6669 3.50951 29.6669 3.50663 29.6656 3.50375L29.6639 3.50217C28.899 1.56146 26.9234 0.258667 24.75 0.258667C22.5766 0.258667 20.601 1.56146 19.8344 3.50375C19.6125 4.06729 19.4999 4.66068 19.4999 5.26429V11.7H16.5001V5.26429C16.5001 2.50393 14.1449 0.258667 11.25 0.258667C9.07663 0.258667 7.10101 1.56146 6.33444 3.50375C6.33307 3.50663 6.33307 3.50951 6.33142 3.51239L0.527893 18.2229C0.527893 18.2242 0.52652 18.2242 0.52652 18.2242C0.17688 19.1124 0 20.0434 0 20.9958C0 25.3337 3.70212 28.8618 8.24991 28.8618C12.798 28.8618 16.5001 25.3337 16.5001 20.9958V20.2809H19.4999V20.9958C19.4999 25.3337 23.202 28.8618 27.7501 28.8618C32.2979 28.8618 36 25.3337 36 20.9958C36 20.0434 35.8231 19.1124 35.4721 18.2271ZM8.24991 26.0014C5.35501 26.0014 3.00009 23.7562 3.00009 20.9958C3.00009 20.3896 3.11243 19.7959 3.33463 19.2339C4.09955 17.2945 6.07489 15.9904 8.24991 15.9904C11.1451 15.9904 13.5 18.2357 13.5 20.9958C13.5 23.7562 11.1451 26.0014 8.24991 26.0014ZM27.7501 26.0014C24.8549 26.0014 22.5 23.7562 22.5 20.9958C22.5 18.2357 24.8549 15.9904 27.7501 15.9904C29.9251 15.9904 31.9005 17.2945 32.6654 19.2339C32.8876 19.7959 32.9999 20.3896 32.9999 20.9958C32.9999 23.7562 30.645 26.0014 27.7501 26.0014Z" fill="#498837"/></svg>