<svg width="19" height="19" viewBox="0 0 19 19" fill="none" xmlns="http://www.w3.org/2000/svg"><path d="M16.1512 2.76212C15.2801 1.88299 14.2428 1.18601 13.0997 0.711791C11.9565 0.237576 10.7305 -0.00438861 9.49287 -2.45516e-06C4.30706 -2.45516e-06 0.08075 4.22512 0.076 9.41212C0.076 11.0734 0.510625 12.6896 1.33119 14.1206L0 19L4.99225 17.6914C6.37332 18.443 7.92054 18.8369 9.49287 18.8373H9.49763C14.6846 18.8373 18.9097 14.6122 18.9145 9.42043C18.9157 8.18311 18.672 6.95778 18.1976 5.81504C17.7231 4.6723 17.0272 3.63473 16.15 2.76212H16.1512ZM9.49287 17.2437C8.09043 17.2442 6.71377 16.8668 5.50762 16.1512L5.22262 15.9802L2.261 16.7568L3.05187 13.8676L2.86662 13.5696C2.08265 12.3231 1.66802 10.8799 1.67081 9.40737C1.67081 5.1015 5.18225 1.58887 9.49763 1.58887C10.5257 1.58703 11.544 1.7887 12.4937 2.18226C13.4435 2.57581 14.3059 3.15347 15.0314 3.88193C15.7593 4.60755 16.3365 5.47013 16.7294 6.4199C17.1224 7.36967 17.3234 8.38784 17.3209 9.41568C17.3161 13.737 13.8047 17.2437 9.49287 17.2437ZM13.7857 11.3846C13.5518 11.267 12.3963 10.6982 12.179 10.6174C11.9629 10.5402 11.8049 10.4999 11.6506 10.735C11.4926 10.9689 11.0414 11.5021 10.906 11.6553C10.7706 11.8132 10.6305 11.8311 10.3954 11.7147C10.1614 11.5959 9.40262 11.3489 8.50488 10.545C7.80425 9.92156 7.33519 9.14968 7.19506 8.91575C7.05969 8.68062 7.182 8.55475 7.29956 8.43718C7.40287 8.33268 7.5335 8.16168 7.65106 8.02631C7.76981 7.89093 7.809 7.79118 7.88619 7.63443C7.96337 7.47531 7.92656 7.33993 7.86837 7.22237C7.809 7.10481 7.33994 5.94462 7.14162 5.47675C6.95162 5.01481 6.75806 5.07893 6.61319 5.073C6.47781 5.06468 6.31987 5.06468 6.16194 5.06468C6.04267 5.06765 5.9253 5.09523 5.8172 5.14571C5.7091 5.19618 5.6126 5.26846 5.53375 5.358C5.31762 5.59312 4.71319 6.16193 4.71319 7.32212C4.71319 8.48231 5.55631 9.59737 5.67506 9.75531C5.79144 9.91325 7.33044 12.2871 9.69237 13.3083C10.2505 13.5517 10.6899 13.6954 11.0331 13.8047C11.5971 13.9852 12.1066 13.9579 12.5127 13.8997C12.9639 13.8308 13.9032 13.3297 14.1016 12.7799C14.2963 12.2289 14.2963 11.7586 14.2369 11.6601C14.1787 11.5603 14.0208 11.5021 13.7857 11.3846Z" fill="white"/></svg>