<?xml version="1.0" standalone="no"?>
<!DOCTYPE svg PUBLIC "-//W3C//DTD SVG 20010904//EN"
 "http://www.w3.org/TR/2001/REC-SVG-20010904/DTD/svg10.dtd">
<svg version="1.0" xmlns="http://www.w3.org/2000/svg"
 width="2575.000000pt" height="1742.000000pt" viewBox="0 0 2575.000000 1742.000000"
 preserveAspectRatio="xMidYMid meet">

<g transform="translate(0.000000,1742.000000) scale(0.100000,-0.100000)"
fill="#000000" stroke="none">
<path d="M10010 16686 l0 -736 -4797 0 c-2695 0 -4793 -4 -4787 -9 5 -4 624
-341 1376 -747 1033 -558 1364 -742 1355 -750 -6 -6 -618 -339 -1359 -739
-741 -400 -1355 -733 -1365 -741 -15 -11 749 -13 4779 -14 l4798 0 2 -733 3
-734 3387 1481 c1863 815 3388 1483 3388 1486 0 4 -6699 2940 -6771 2968 -5 2
-9 -322 -9 -732z"/>
<path d="M15703 9848 c3 -7 322 -591 709 -1298 l704 -1285 -3153 -3 c-1734 -1
-3153 -5 -3153 -9 0 -5 521 -529 1157 -1165 l1158 -1158 -1158 -1158 c-636
-636 -1157 -1160 -1157 -1165 0 -4 1419 -8 3153 -9 l3152 -3 -708 -1294 c-389
-711 -706 -1296 -703 -1298 5 -6 10046 4919 10046 4927 0 6 -10031 4930
-10044 4930 -4 0 -6 -6 -3 -12z"/>
<path d="M8750 7253 c0 -5 521 -529 1157 -1165 l1158 -1158 -1158 -1158 c-636
-636 -1157 -1160 -1157 -1165 0 -4 334 -7 743 -7 l742 0 1165 1165 1165 1165
-1165 1165 -1165 1165 -742 0 c-409 0 -743 -3 -743 -7z"/>
<path d="M7705 6080 l1150 -1150 -1150 -1150 -1150 -1150 745 0 745 0 1153
1153 1152 1152 -1148 1148 -1147 1147 -750 0 -750 0 1150 -1150z"/>
<path d="M5500 6065 l1135 -1135 -1135 -1135 -1135 -1135 750 0 750 0 1135
1135 1135 1135 -1135 1135 -1135 1135 -750 0 -750 0 1135 -1135z"/>
<path d="M2190 7173 c0 -5 503 -511 1117 -1125 l1118 -1118 -1118 -1118 c-614
-614 -1117 -1120 -1117 -1125 0 -4 334 -7 743 -7 l742 0 1125 1125 1125 1125
-1125 1125 -1125 1125 -742 0 c-409 0 -743 -3 -743 -7z"/>
<path d="M1103 6042 l1107 -1107 -1105 -1105 c-608 -608 -1105 -1108 -1105
-1112 0 -5 334 -8 743 -8 l742 0 1108 1108 c609 609 1107 1112 1107 1117 0 6
-496 506 -1103 1113 l-1102 1102 -750 0 -750 0 1108 -1108z"/>
</g>
</svg>
