<?xml version="1.0" standalone="no"?>
<!DOCTYPE svg PUBLIC "-//W3C//DTD SVG 20010904//EN"
 "http://www.w3.org/TR/2001/REC-SVG-20010904/DTD/svg10.dtd">
<svg version="1.0" xmlns="http://www.w3.org/2000/svg"
 width="800.000000pt" height="800.000000pt" viewBox="0 0 800.000000 800.000000"
 preserveAspectRatio="xMidYMid meet">

<g transform="translate(0.000000,800.000000) scale(0.100000,-0.100000)"
fill="#000000" stroke="none">
<path d="M2200 6319 c-261 -12 -745 -48 -825 -60 -238 -38 -479 -207 -697
-488 -111 -142 -212 -241 -320 -312 -50 -32 -94 -59 -98 -59 -4 0 -14 -24 -20
-52 -35 -148 -122 -378 -144 -378 -16 0 -63 -46 -80 -78 -12 -23 -13 -62 -8
-207 6 -153 8 -169 13 -105 4 41 7 120 8 174 1 112 17 150 77 182 25 14 37 34
68 116 21 54 52 149 70 210 l32 111 88 53 c142 86 220 156 314 284 233 315
471 484 747 529 91 14 420 37 755 52 289 13 902 7 1110 -11 426 -35 799 -100
1035 -180 l60 -20 -130 5 c-71 2 -269 10 -440 16 -545 20 -1795 -1 -1913 -32
-27 -8 -54 -25 -73 -47 l-32 -36 7 -120 c12 -217 35 -380 93 -649 8 -37 68
-82 131 -97 36 -8 208 -8 688 0 812 13 1107 26 1504 67 148 15 213 15 655 5
594 -15 725 -15 798 -2 54 10 67 8 316 -60 297 -80 416 -120 586 -198 66 -30
161 -70 210 -88 237 -91 414 -203 558 -353 66 -70 177 -220 177 -240 0 -3 -44
-31 -97 -61 -112 -64 -138 -95 -149 -177 -7 -58 0 -210 10 -220 10 -11 460 17
467 29 4 6 -4 45 -17 86 -13 42 -22 78 -20 80 8 7 116 -167 155 -248 69 -143
103 -363 91 -575 -5 -87 -5 -84 -11 60 -3 83 -10 159 -16 170 -11 19 -12 19
-21 -5 -31 -80 -133 -305 -194 -428 l-71 -144 6 -71 c5 -68 32 -167 45 -167 3
0 40 23 83 51 l77 50 18 69 c10 38 19 68 21 66 2 -1 -2 -38 -8 -82 -10 -66 -9
-89 5 -142 23 -92 21 -117 -21 -186 -65 -108 -66 -112 -13 -56 96 103 108 143
70 240 -25 64 -25 127 0 221 60 217 64 247 64 434 1 166 -2 189 -28 290 -41
159 -113 307 -227 465 -26 36 -56 91 -67 122 -24 69 -75 144 -112 167 -16 9
-48 44 -72 76 -93 127 -233 256 -366 339 -60 37 -226 119 -287 141 -27 10
-122 51 -210 90 -88 40 -199 87 -247 105 l-88 33 0 36 0 37 118 18 c203 30
320 66 341 104 10 19 0 139 -13 161 -12 19 -139 75 -216 96 -36 9 -117 19
-181 22 -138 7 -170 -4 -200 -70 -15 -33 -19 -66 -19 -157 0 -137 -8 -190 -26
-190 -25 0 -437 112 -479 130 -22 10 -81 53 -130 96 -323 284 -731 571 -1023
718 -252 128 -684 214 -1227 246 -196 11 -778 11 -1035 -1z m5747 -3296 c-3
-10 -5 -4 -5 12 0 17 2 24 5 18 2 -7 2 -21 0 -30z m-10 -55 c-3 -7 -5 -2 -5
12 0 14 2 19 5 13 2 -7 2 -19 0 -25z m-10 -50 c-3 -8 -6 -5 -6 6 -1 11 2 17 5
13 3 -3 4 -12 1 -19z m-10 -40 c-3 -8 -6 -5 -6 6 -1 11 2 17 5 13 3 -3 4 -12
1 -19z m-10 -40 c-3 -8 -6 -5 -6 6 -1 11 2 17 5 13 3 -3 4 -12 1 -19z"/>
<path d="M1197 6074 c-211 -45 -364 -159 -490 -361 -85 -138 -98 -169 -100
-233 -2 -72 13 -101 69 -128 l44 -22 28 29 c68 71 343 140 516 129 123 -8 152
-67 140 -293 l-6 -130 160 -72 c88 -40 164 -73 169 -73 17 0 -35 503 -83 793
-29 178 -50 231 -115 292 -90 84 -177 102 -332 69z"/>
<path d="M355 5231 c18 -21 20 -39 21 -225 1 -127 7 -241 18 -311 20 -139 57
-337 62 -332 2 1 -8 82 -23 178 -22 147 -26 211 -27 409 l-1 235 60 5 c58 5
116 28 131 51 4 6 3 10 -2 7 -61 -29 -96 -41 -141 -45 -49 -5 -57 -3 -86 23
-21 20 -25 21 -12 5z"/>
<path d="M715 5223 c-19 -77 85 -134 310 -168 116 -17 172 -31 181 -46 3 -6
12 -38 20 -70 8 -33 21 -72 30 -87 l15 -27 -6 25 c-3 14 -8 60 -12 102 l-6 78
-46 29 c-53 33 -95 49 -246 92 -60 17 -138 45 -172 63 l-62 33 -6 -24z"/>
<path d="M440 5146 c110 -120 417 -368 586 -474 121 -75 404 -213 404 -196 0
2 -44 26 -99 53 -244 123 -518 310 -781 536 -132 113 -154 129 -110 81z"/>
<path d="M5620 5005 c0 -3 44 -27 99 -54 243 -122 370 -205 485 -318 58 -57
72 -67 51 -38 -76 107 -195 200 -365 285 -124 62 -270 130 -270 125z"/>
<path d="M2490 4871 c107 -38 224 -80 260 -94 454 -178 927 -422 1343 -693 71
-47 126 -80 122 -74 -11 18 -419 285 -562 368 -273 158 -611 315 -903 420
-143 51 -430 142 -445 141 -5 0 78 -31 185 -68z"/>
<path d="M4257 4815 c392 -133 638 -254 938 -465 72 -50 30 -12 -78 71 -214
165 -466 287 -822 397 -237 73 -257 72 -38 -3z"/>
<path d="M2014 4710 c273 -263 487 -528 816 -1010 120 -175 183 -263 136 -187
-10 16 -45 75 -79 130 -103 172 -330 506 -429 631 -150 192 -372 415 -514 516
-32 22 -8 -5 70 -80z"/>
<path d="M95 4790 c-34 -37 -46 -117 -50 -325 -3 -167 -2 -184 5 -100 15 168
55 305 89 305 26 0 63 -64 75 -131 l7 -34 -18 35 -17 35 -11 -155 c-6 -85 -13
-141 -16 -125 -5 25 -6 23 -8 -14 0 -24 -3 -42 -5 -40 -3 3 -33 227 -37 276
-1 21 -18 -40 -24 -88 -5 -40 -1 -76 15 -139 28 -112 31 -121 39 -92 3 13 11
23 16 23 6 0 13 -10 16 -23 5 -22 6 -22 12 -3 3 11 15 73 27 138 12 64 23 117
25 117 1 0 8 -45 15 -99 l12 -100 -28 -38 c-15 -21 -39 -48 -53 -60 -20 -18
-23 -25 -13 -35 6 -6 13 -10 15 -7 2 2 20 28 40 58 l36 54 7 -39 c10 -56 -4
-418 -20 -505 -16 -91 -49 -169 -70 -169 -22 0 -55 47 -71 104 -35 119 -44
203 -68 591 -2 28 -4 -28 -5 -123 -3 -283 23 -444 98 -600 46 -96 62 -107 181
-117 91 -8 376 10 394 25 11 9 120 -78 497 -396 266 -224 494 -417 507 -429
18 -18 27 -45 41 -122 63 -341 166 -578 288 -658 52 -34 188 -49 357 -41 222
12 255 18 285 55 l27 32 84 -41 c92 -44 128 -52 329 -74 222 -25 518 -36 965
-36 406 0 434 1 781 35 1248 122 1970 239 2709 441 138 38 160 50 181 100 12
29 9 42 -42 185 -42 116 -63 194 -85 319 -24 132 -38 187 -76 275 -78 187
-157 322 -247 421 l-46 52 0 148 c0 144 -8 230 -31 342 -10 48 -13 53 -32 48
-12 -4 -121 -26 -242 -51 -319 -63 -566 -98 -945 -131 -262 -22 -968 -30
-1345 -14 l-300 12 -194 -41 -194 -40 -71 33 c-74 36 -131 50 -331 87 -185 33
-459 104 -634 164 -173 60 -214 66 -231 36 -25 -48 -13 -73 169 -342 253 -372
259 -376 564 -324 258 43 430 57 690 53 130 -2 236 0 235 3 -11 26 -235 191
-315 233 -18 9 -33 20 -33 25 0 10 357 84 379 78 17 -4 721 -505 754 -537 18
-17 18 -19 -13 -80 -65 -129 -145 -238 -344 -469 -195 -227 -221 -259 -290
-358 -68 -97 -148 -263 -171 -353 -29 -111 -3 -216 69 -283 l31 -29 -495 5
c-492 5 -648 14 -944 53 -65 8 -146 24 -180 36 -69 23 -296 124 -309 137 -5 5
-17 82 -28 172 -90 779 -137 1046 -240 1346 -82 240 -244 515 -319 542 -70 24
-129 2 -168 -60 -29 -48 -60 -159 -72 -259 -23 -193 -7 -626 35 -979 9 -68 14
-126 11 -128 -5 -5 -173 141 -376 326 -69 63 -238 227 -376 363 -246 244 -251
248 -262 223 -10 -21 -18 -25 -51 -25 -55 0 -147 36 -188 74 l-34 31 -39 265
c-87 582 -148 835 -225 936 -30 39 -54 43 -80 14z m132 -312 c-3 -8 -6 -5 -6
6 -1 11 2 17 5 13 3 -3 4 -12 1 -19z m1778 -779 c150 -132 265 -714 235 -1187
-20 -302 -80 -498 -166 -539 -32 -16 -37 -16 -69 0 -72 34 -152 201 -201 419
-42 186 -56 304 -61 551 -6 264 5 405 42 553 53 209 131 281 220 203z m5612
-1275 c-8 -71 -27 -89 -169 -160 -73 -36 -143 -78 -158 -93 -18 -20 -54 -36
-130 -59 -447 -132 -964 -222 -1634 -283 l-239 -21 -36 20 c-73 41 -177 56
-499 72 -141 7 -212 14 -231 25 -28 14 -53 55 -66 108 -7 28 -7 28 26 23 357
-62 1129 -53 1694 20 603 77 1103 220 1390 398 35 21 41 23 49 9 4 -8 6 -35 3
-59z"/>
<path d="M1940 3584 c0 -27 7 -146 15 -264 17 -255 17 -250 7 -250 -4 0 -27
99 -51 221 -32 161 -47 216 -53 204 -6 -9 -19 -60 -29 -112 l-20 -96 54 -141
c30 -77 58 -150 62 -161 l8 -20 4 20 c8 41 26 75 39 75 10 0 12 11 9 43 -3 23
-12 150 -20 281 -14 224 -25 313 -25 200z"/>
<path d="M2036 3525 c-3 -33 -13 -153 -21 -266 -15 -196 -15 -207 3 -246 l18
-41 52 210 52 209 -31 75 c-17 41 -39 84 -49 96 -17 22 -18 22 -24 -37z"/>
<path d="M2125 3005 c-37 -41 -71 -72 -76 -69 -11 6 -10 -11 1 -46 4 -14 8
-18 9 -10 1 9 35 49 76 90 41 41 75 80 75 87 0 31 -24 17 -85 -52z"/>
<path d="M1800 3012 c0 -11 29 -46 65 -79 61 -56 65 -58 64 -34 -1 33 -129
145 -129 113z"/>
<path d="M1975 2997 c-4 -10 -3 -28 2 -39 13 -29 22 -3 13 32 -6 22 -8 23 -15
7z"/>
<path d="M1946 2929 c-4 -8 -3 -26 3 -40 8 -21 10 -22 16 -6 4 10 3 28 -3 40
-8 18 -11 19 -16 6z"/>
<path d="M2010 2910 c0 -16 5 -30 10 -30 6 0 10 14 10 30 0 17 -4 30 -10 30
-5 0 -10 -13 -10 -30z"/>
<path d="M1920 2822 c0 -6 -23 -29 -51 -49 l-51 -38 6 -60 c8 -79 27 -175 35
-175 3 0 25 47 49 105 42 101 43 105 33 161 -10 53 -21 82 -21 56z"/>
<path d="M2050 2775 c0 -48 6 -63 79 -179 56 -91 81 -122 84 -109 3 10 8 64
12 120 l6 101 -90 60 -91 60 0 -53z"/>
<path d="M1957 2803 c-11 -10 -8 -51 3 -58 6 -4 10 8 10 29 0 37 -2 41 -13 29z"/>
<path d="M2020 2776 c0 -20 5 -36 10 -36 6 0 10 13 10 29 0 17 -4 33 -10 36
-6 4 -10 -8 -10 -29z"/>
<path d="M1990 2711 c0 -16 5 -33 10 -36 6 -4 10 6 10 24 0 16 -4 33 -10 36
-6 4 -10 -6 -10 -24z"/>
<path d="M2040 2665 c-3 -25 -8 -3 55 -233 51 -185 65 -226 65 -189 0 14 -103
402 -115 432 -2 6 -4 1 -5 -10z"/>
<path d="M1960 2660 c0 -8 -9 -87 -20 -175 -11 -88 -20 -171 -19 -185 1 -52
16 14 28 125 7 61 16 134 21 164 6 33 6 59 0 70 -8 13 -9 13 -10 1z"/>
<path d="M2007 2622 c-17 -3 -17 -18 -11 -235 5 -194 9 -234 22 -244 20 -16
62 -17 62 -2 0 7 -11 107 -25 223 -13 116 -26 222 -27 236 -2 18 -8 24 -21 22z"/>
<path d="M1606 4707 c-152 -244 -198 -465 -176 -836 7 -108 13 -197 15 -199 1
-1 2 114 1 255 -1 208 3 276 17 353 29 152 90 318 166 448 47 78 29 63 -23
-21z"/>
<path d="M7023 4645 c69 -101 124 -226 162 -369 29 -110 32 -77 5 54 -24 119
-81 236 -150 310 l-51 55 34 -50z"/>
<path d="M144 4485 c0 -66 1 -92 3 -57 2 34 2 88 0 120 -2 31 -3 3 -3 -63z"/>
<path d="M70 4200 c0 -8 14 -33 30 -54 22 -29 30 -35 30 -20 -1 10 -14 35 -30
54 -17 19 -30 28 -30 20z"/>
<path d="M146 4154 c-4 -20 -5 -38 -3 -40 3 -3 8 11 11 32 4 20 5 38 3 40 -3
3 -8 -11 -11 -32z"/>
<path d="M102 4048 c-18 -20 -22 -35 -21 -84 1 -32 4 -70 8 -84 11 -38 52 114
43 158 l-7 34 -23 -24z"/>
<path d="M174 4055 c-6 -15 62 -192 78 -201 4 -3 8 30 8 73 0 76 -1 80 -33
111 -37 36 -45 39 -53 17z"/>
<path d="M146 4025 c6 -44 10 -52 21 -42 3 4 1 17 -5 30 -6 12 -13 29 -16 37
-3 8 -3 -3 0 -25z"/>
<path d="M147 3819 c4 -176 8 -199 28 -199 18 0 18 17 5 189 -5 69 -14 127
-18 130 -5 3 -11 12 -14 20 -2 8 -3 -55 -1 -140z"/>
<path d="M173 3955 c3 -11 15 -74 27 -140 11 -65 24 -122 27 -125 3 -3 3 11
-1 30 -4 19 -14 80 -23 135 -9 55 -20 105 -26 110 -6 7 -7 3 -4 -10z"/>
<path d="M133 3865 c0 -27 2 -38 4 -22 2 15 2 37 0 50 -2 12 -4 0 -4 -28z"/>
<path d="M123 3765 c0 -27 2 -38 4 -22 2 15 2 37 0 50 -2 12 -4 0 -4 -28z"/>
<path d="M7750 3738 c-55 -41 -272 -151 -321 -163 -24 -6 -31 -1 -59 39 -17
26 -36 43 -42 40 -26 -16 17 -234 46 -234 29 0 315 151 358 189 48 42 83 110
76 149 -3 18 -8 17 -58 -20z"/>
<path d="M1453 3615 c0 -27 2 -38 4 -22 2 15 2 37 0 50 -2 12 -4 0 -4 -28z"/>
<path d="M4275 3334 l60 -56 -155 6 c-272 11 -822 59 -949 82 -51 10 -31 -11
50 -51 212 -107 605 -174 1136 -192 197 -6 223 -3 223 33 0 32 -227 162 -380
218 l-45 16 60 -56z"/>
<path d="M3126 2753 c-94 -189 -164 -387 -207 -587 -21 -98 -21 -99 -1 -125
25 -34 39 -36 419 -51 380 -16 400 -13 517 80 107 85 166 162 166 217 0 53
-32 87 -141 148 -144 81 -389 232 -544 335 -71 47 -135 89 -141 93 -7 4 -33
-39 -68 -110z"/>
</g>
</svg>
