<svg width="38" height="48" viewBox="0 0 38 48" xmlns="http://www.w3.org/2000/svg"><path d="M36.8886 46.3093L30.5606 32.9236C30.4343 32.6565 30.2155 32.4518 29.9531 32.3401L26.805 30.9387L32.2598 21.7964C32.2728 21.7744 32.2851 21.7522 32.2968 21.7295C33.3813 19.6127 33.9313 17.3253 33.9313 14.9312C33.9313 10.9038 32.352 7.12815 29.4842 4.2998C26.617 1.47212 22.8184 -0.0551661 18.7886 0.00145885C14.8747 0.0557401 11.1896 1.62783 8.41187 4.42833C5.63444 7.22865 4.09206 10.9264 4.06881 14.8408C4.05456 17.2328 4.61978 19.6148 5.70297 21.7294C5.71459 21.752 5.72687 21.7743 5.73991 21.7963L11.1947 30.9385L8.02834 32.3476C7.76931 32.4629 7.56025 32.6671 7.43912 32.9235L1.11128 46.3093C0.8995 46.7569 0.988844 47.2892 1.33516 47.6433C1.68138 47.9974 2.21125 48.0989 2.66378 47.8975L10.5911 44.3682L18.5184 47.8975C18.8251 48.0339 19.1752 48.0339 19.4819 47.8975L27.4092 44.3682L35.3365 47.8975C35.4914 47.9664 35.6553 48 35.8179 48C36.1302 48 36.4374 47.8764 36.6651 47.6434C37.0112 47.2892 37.1004 46.7571 36.8886 46.3093ZM7.79434 20.6161C6.88216 18.8225 6.42569 16.8844 6.43778 14.8549C6.47791 8.06471 12.0333 2.46399 18.8216 2.36996C22.2122 2.3244 25.4087 3.60737 27.8209 5.98646C30.2339 8.36612 31.5626 11.5427 31.5626 14.9313C31.5626 16.9337 31.1061 18.8461 30.2057 20.6161L20.0172 37.6925C19.7061 38.2138 19.2023 38.27 19.0001 38.27C18.7978 38.27 18.294 38.2138 17.983 37.6925L7.79434 20.6161ZM27.8907 41.9897C27.584 41.8533 27.2339 41.8533 26.9272 41.9897L18.9999 45.5191L11.0726 41.9897C10.7659 41.8533 10.4158 41.8533 10.1091 41.9897L4.61744 44.4347L9.39287 34.3333L12.4171 32.9874L15.9484 38.9061C16.5957 39.991 17.7364 40.6387 18.9997 40.6387C20.263 40.6387 21.4037 39.991 22.051 38.9062L25.5824 32.9875L28.6068 34.3338L33.382 44.4348L27.8907 41.9897Z" /><path d="M19.0004 9.52563C16.0197 9.52563 13.5948 11.9505 13.5948 14.9311C13.5948 17.9117 16.0197 20.3365 19.0004 20.3365C21.981 20.3366 24.4058 17.9117 24.4058 14.9311C24.4058 11.9505 21.981 9.52563 19.0004 9.52563ZM19.0004 17.9678C17.3259 17.9679 15.9635 16.6057 15.9635 14.9311C15.9635 13.2566 17.3258 11.8943 19.0004 11.8943C20.6748 11.8943 22.0371 13.2566 22.0371 14.9311C22.0371 16.6055 20.6748 17.9678 19.0004 17.9678Z" /></svg>