<svg id="Слой_1" data-name="Слой 1" xmlns="http://www.w3.org/2000/svg" viewBox="0 0 380 250"><defs><style>.cls-1{fill:#eee;}</style></defs><title>icon-video</title><rect class="cls-1" width="380" height="250"/><path d="M203.24,68.67a58.39,58.39,0,0,1-.64,34.46c-3.12,9.31-9.58,19.11-16.22,24.63l-2.44,2V169H129.66V139.66l-2.25-.87a55.89,55.89,0,0,1-13.63-7.35l-2-1.5V205H280V66.91H202.71ZM232,84.93v6h-12v-12h12Zm30,0v6H250v-12h12ZM262,169H207.93V102.94H262V169ZM141.86,193h-12V181h12Zm30,0h-12V181h12Zm30,0h-12V181h12Zm30,0h-12V181h12Zm30,0H250V181h12Z"/><polygon points="133.24 60.36 133.24 110.76 177.44 85.68 133.24 60.36"/><path d="M147.88,37a47.84,47.84,0,1,0,47.88,47.8A47.84,47.84,0,0,0,147.88,37Zm0,84A36.24,36.24,0,1,1,184.12,84.8,36.23,36.23,0,0,1,147.88,121Z"/></svg>