<svg xmlns="http://www.w3.org/2000/svg" viewBox="0 0 450 420" width="135" height="126" fill="#aaaaaa"><path d="M258.09,79.18c8.16,26.84,7.6,58.94-1.6,86.15-7.79,23.28-23.93,47.77-40.54,61.56l-6.1,5.07V330H74.15V256.64l-5.63-2.16a139.64,139.64,0,0,1-34.06-18.39l-4.88-3.75V420H450V74.77H256.77Zm71.79,40.64v15h-30v-30h30Zm75.07,0v15h-30v-30h30ZM405,330H269.82V164.86H405Zm-300.3,60.06h-30v-30h30Zm75.08,0h-30v-30h30Zm75.07,0h-30v-30h30Zm75.08,0h-30v-30h30Zm75.07,0h-30v-30h30Z"/><polygon points="83.07 58.37 83.07 184.45 193.64 121.69 83.07 58.37"/><path d="M119.65,0A119.59,119.59,0,1,0,239.3,119.53,119.55,119.55,0,0,0,119.65,0Zm0,210.09a90.56,90.56,0,1,1,90.56-90.56A90.56,90.56,0,0,1,119.65,210.09Z"/></svg>