<svg xmlns="http://www.w3.org/2000/svg" viewBox="0 0 512 512" width="23" height="23" fill="#d56e00"><path d="M469.33,358.4H230.4a8.54,8.54,0,0,0,0,17.07H469.33a8.54,8.54,0,1,0,0-17.07Z"/><path d="M435.2,187.73H401.07a8.54,8.54,0,1,0,0,17.07H435.2a8.54,8.54,0,0,0,0-17.07Z"/><path d="M435.2,290.13H401.07a8.54,8.54,0,1,0,0,17.07H435.2a8.54,8.54,0,0,0,0-17.07Z"/><path d="M435.2,238.93H401.07a8.54,8.54,0,1,0,0,17.07H435.2a8.54,8.54,0,0,0,0-17.07Z"/><path d="M213.33,392.53H204.8V25.6A25.64,25.64,0,0,0,179.2,0H76.8A25.64,25.64,0,0,0,51.2,25.6V366.93a8.54,8.54,0,1,0,17.07,0V25.6a8.54,8.54,0,0,1,8.53-8.53H179.2a8.54,8.54,0,0,1,8.53,8.53V435.2a8.54,8.54,0,0,1-8.53,8.53H76.8a8.54,8.54,0,0,1-8.53-8.53V401.07a8.55,8.55,0,0,0-8.54-8.54H42.67c-15.31,0-25.6-10.29-25.6-25.6V59.73a25.32,25.32,0,0,1,12.82-22A8.54,8.54,0,0,0,21.31,23,42.8,42.8,0,0,0,0,59.73v307.2c0,24.72,18,42.67,42.67,42.67H51.2v25.6a25.64,25.64,0,0,0,25.6,25.6H179.2a25.64,25.64,0,0,0,25.6-25.6V409.6h8.53a8.54,8.54,0,1,0,0-17.07Z"/><path d="M452.27,392.53a8.54,8.54,0,0,0-8.54,8.54v93.86H256V401.07a8.54,8.54,0,1,0-17.07,0v102.4a8.54,8.54,0,0,0,8.54,8.53h204.8a8.53,8.53,0,0,0,8.53-8.53V401.07A8.53,8.53,0,0,0,452.27,392.53Z"/><path d="M298.67,460.8H384a8.54,8.54,0,0,0,0-17.07H298.67a8.54,8.54,0,1,0,0,17.07Z"/><path d="M298.67,426.67h102.4a8.54,8.54,0,0,0,0-17.07H298.67a8.54,8.54,0,1,0,0,17.07Z"/><path d="M264.53,256h34.14a8.54,8.54,0,0,0,0-17.07H264.53a8.54,8.54,0,0,0,0,17.07Z"/><path d="M264.53,204.8h34.14a8.54,8.54,0,0,0,0-17.07H264.53a8.54,8.54,0,0,0,0,17.07Z"/><path d="M264.53,307.2h34.14a8.54,8.54,0,0,0,0-17.07H264.53a8.54,8.54,0,0,0,0,17.07Z"/><path d="M469.33,17.07H230.4a8.53,8.53,0,1,0,0,17.06H469.33a25.63,25.63,0,0,1,25.6,25.6V375.47a25.69,25.69,0,0,1-12.66,22.09,8.53,8.53,0,1,0,8.64,14.72A42.84,42.84,0,0,0,512,375.47V59.73A42.71,42.71,0,0,0,469.33,17.07Z"/><path d="M366.93,238.93H332.8a8.54,8.54,0,0,0,0,17.07h34.13a8.54,8.54,0,1,0,0-17.07Z"/><path d="M443.73,93.87a8.54,8.54,0,0,0-8.53-8.54H264.53A8.54,8.54,0,0,0,256,93.87v51.2a8.53,8.53,0,0,0,8.53,8.53H435.2a8.53,8.53,0,0,0,8.53-8.53Zm-17.06,42.66H273.07V102.4h153.6Z"/><path d="M366.93,290.13H332.8a8.54,8.54,0,0,0,0,17.07h34.13a8.54,8.54,0,1,0,0-17.07Z"/><path d="M366.93,187.73H332.8a8.54,8.54,0,0,0,0,17.07h34.13a8.54,8.54,0,1,0,0-17.07Z"/></svg>