<svg xmlns="http://www.w3.org/2000/svg" viewBox="0 0 295 330" width="30" height="33"><path d="M101.18,5.36c-2.57,3.62,5.9,57.3,5.9,57.3s-10.91-40.77-14.2-48.9c-14,7.74-27.62,33.35-28.1,45.7a21.34,21.34,0,0,1-3,7.7c-2.8,4.2-4.6,19.7-2.5,22.2.8,1,19.28,0,20.1,3.4,1.3,2,96.7,1.9,98.1,0,1.65-3.17,20.2-2.5,20.2-2.5s2.38-18.57-2.7-23.4c-1.6-1.8-2.82-4.5-2.8-6,.15-10.79-15.7-42.88-28.7-46.8-5,13.31-14.4,48.2-14.4,48.2s9.27-53.41,6.18-57.6C153.91,2.83,121.7-5.24,101.18,5.36Z" transform="translate(0 0)"/><path d="M62.58,98.54c-1,2.42,1.3,15.7,3.7,22a35.69,35.69,0,0,0,5.6,9.6c2.2,2.5,4.5,6.8,6.3,11.9C84,158.84,101,183,128,183c29.94,0,46.76-31.53,50.26-42.13,1.4-4.4,3.4-8.1,4.8-9.2,4.9-4,10.1-19.5,10.1-30.3,0-4.7-.2-4.8-7.2-3.7-3.6.6-3.8.9-3.8,4.3,0,8.8-5,21.4-9,22.4a4.25,4.25,0,0,0-2.5,3.3c-1.2,5.7-11.76,43.64-42.5,43.9-22.52.2-37.4-23.3-42.4-41.5-1-3.8-2.2-5.8-3.7-6.5-3.3-1.5-6.7-9.1-7.9-17.5-.6-4.1-1.6-7.8-2.3-8.2C69.68,96.44,63.21,97,62.58,98.54Z" transform="translate(0 0)"/><path d="M219.07,178.14c-.45,0-44.09-9.87-44.09-9.87h-.31c-6,15.14-24.55,24.69-46.48,24.69s-40.4-9.52-46.46-24.61c-4.08,1.27-48.18,7.71-58.65,19C5.82,206,0,286.17,0,286.17H149.78s.46,0,.53.11a75.93,75.93,0,1,0,68.76-108.14Zm0,141.93a66,66,0,1,1,66-66A66,66,0,0,1,219.07,320.07Z" transform="translate(0 0)"/><path d="M254.47,221.38,207.79,271l-32.38-32.58-11.23,16.29,41.9,41.5,68-64.6Z" transform="translate(0 0)"/></svg>