<svg xmlns="http://www.w3.org/2000/svg" viewBox="0 0 430 360" width="43" height="36"><path d="M356.81,0,336.68,2l-2.75,11.28a15.73,15.73,0,0,1-7.81,10.06h0a15.29,15.29,0,0,1-12.71.91l-10.86-3.93L289.77,36l6,9.87a16,16,0,0,1,1.6,12.61h0a15.46,15.46,0,0,1-8.28,9.63l-10.44,5,2,20.13L292,96A15.69,15.69,0,0,1,302,103.81h0a15.36,15.36,0,0,1,.92,12.71L299,127.38l15.72,12.78,9.87-6a16,16,0,0,1,12.6-1.61h0a15.54,15.54,0,0,1,9.63,8.28l5,10.44,20.14-2L374.72,138a15.64,15.64,0,0,1,7.81-10.06h0a15.31,15.31,0,0,1,12.72-.92L406.1,131l12.78-15.72-6-9.87a16,16,0,0,1-1.6-12.6h0a15.27,15.27,0,0,1,8.28-9.63l10.44-5L428,58l-11.18-2.77a15.79,15.79,0,0,1-10.16-7.79h0a15.15,15.15,0,0,1-.88-12.52l3.92-11L394,11.14l-9.87,6a16,16,0,0,1-12.6,1.61h0a15.54,15.54,0,0,1-9.63-8.29Zm24.8,72.79a27.49,27.49,0,1,1-30.12-24.57,27.49,27.49,0,0,1,30.12,24.57Z" transform="translate(-0.08 0)"/><path d="M681.39-192.6" transform="translate(-0.08 0)"/><path d="M265.88,210.8a29.43,29.43,0,0,1-10.3-42.4L268,150.3l-22.3-30.8-20.9,6.2a29.44,29.44,0,0,1-37.2-22.9l-3.9-21.56-37.5-6L135.68,94.3a29.41,29.41,0,0,1-42.5,10.1L75.18,92l-30.8,22.3,6.1,20.9a29.11,29.11,0,0,1-3.2,23.7,29.38,29.38,0,0,1-19.7,13.5l-21.5,4-6,37.5,19.1,10.5a29.34,29.34,0,0,1,14.5,19,29.64,29.64,0,0,1-4.4,23.5L17,284.9l22.3,30.8,20.9-6.1a29.07,29.07,0,0,1,23.7,3.2,29.38,29.38,0,0,1,13.5,19.7l4,21.5,37.5,6,10.5-19.1a29.41,29.41,0,0,1,42.5-10.1l18,12.4,30.8-22.3-6.1-20.9a29.44,29.44,0,0,1,22.9-37.2l21.4-4,6-37.6Zm-123.4,58.47a51.65,51.65,0,1,1,51.65-51.65A51.65,51.65,0,0,1,142.48,269.27Z" transform="translate(-0.08 0)"/></svg>