<svg xmlns="http://www.w3.org/2000/svg" viewBox="0 0 500 350" width="50" height="35"><path d="M272.42,283.52l-55.25-46.47a19,19,0,0,0-25.68,1.27l-19.87,20.4a6.11,6.11,0,0,1-7.93.77l-3.1-2.19c-10.22-7.15-22.94-16.06-47.24-46.47-1.3-1.62-10.85-13.59-18.57-25.65-8-12.45-14.11-25.05-16.31-30.68L77,151a6.08,6.08,0,0,1,2.5-7.54l24.3-14.89a19,19,0,0,0,6.91-24.76L77.61,39.62A18.86,18.86,0,0,0,52.94,31.1L26.34,43.3A36.8,36.8,0,0,0,7.2,63.1c-12.79,32.1-12.43,89.91,62,183,59.15,74,106.8,97.45,141,101.27A88.72,88.72,0,0,0,234,347a36.87,36.87,0,0,0,23.54-14.27l17.77-23.28A18.86,18.86,0,0,0,272.42,283.52Zm-7.26,18.16L247.4,325a24.24,24.24,0,0,1-15.4,9.42c-30.82,4.87-82.36-7.93-152.89-96.23S7.5,96.77,19.05,67.81A24.17,24.17,0,0,1,31.63,54.87L58.26,42.69a6.16,6.16,0,0,1,8,2.77l33.13,64.15a6.17,6.17,0,0,1-2.25,8.07l-24.3,14.89a18.74,18.74,0,0,0-7.59,23.31l1.41,3.42c5,12.3,11.28,27.61,36.73,59.47s39,41.33,49.88,49l3,2.12a18.74,18.74,0,0,0,24.42-2.25l19.88-20.4a6.18,6.18,0,0,1,8.37-.42l55.25,46.48A6.13,6.13,0,0,1,265.16,301.68Z" transform="translate(-0.87 -3.57)"/><path d="M476.82,3.57H119.27A21.78,21.78,0,0,0,97.51,25.33V44.6l14.07,31.83V25.33c0-4.63,1.93-7.7,7.69-7.7H476.82c6.41,0,7.69,3.46,7.69,7.7v264c0,5.14-5.12,7.63-7.69,7.61H296.36a64.83,64.83,0,0,1,.36,6.73c-.1,3.52-2.61,7.32-2.61,7.32H476.82a21.75,21.75,0,0,0,21.76-21.66V25.33A21.78,21.78,0,0,0,476.82,3.57Z" transform="translate(-0.87 -3.57)"/><path d="M452,50.7l-144.84,110a9,9,0,0,1-10.6,0L148.07,48.35A6.69,6.69,0,0,0,140,59L288.54,171.3a22.46,22.46,0,0,0,26.73,0L460.12,61.36A6.69,6.69,0,0,0,452,50.7Z" transform="translate(-0.87 -3.57)"/><path d="M248.06,168.53l-70.57,55.63s13.42-6.3,19.69-7.49a24,24,0,0,1,11.82.58l47.57-38.43a6.69,6.69,0,0,0-8.51-10.29Z" transform="translate(-0.87 -3.57)"/><path d="M357.46,170.86a6.68,6.68,0,0,0-8.56,10.27L426,245.32a6.68,6.68,0,0,0,8.56-10.27Z" transform="translate(-0.87 -3.57)"/></svg>