<svg version="1.1" xmlns="http://www.w3.org/2000/svg" xmlns:xlink="http://www.w3.org/1999/xlink" width="791" height="497" viewBox="0 0 791 497" preserveAspectRatio="xMinYMin meet">
    <defs>
        <mask id="msk1">
            <!-- Ко всему изображению применён красный цвет маски, что делает его полупрозрачным -->
            <rect width="100%" height="100%" fill="black" />   
            <!-- К эллипсу применен белый цвет маски, поэтому на этом участке цвет остается неизменным от оригинального изображения    -->
            <g fill="white">
                <path d="M552.251 0H40C17.9086 0 0 17.9086 0 40V311.147C0 333.238 17.9086 351.147 39.9999 351.147H143.268C165.36 351.147 183.268 369.055 183.268 391.147V457C183.268 479.091 201.177 497 223.268 497H751C773.091 497 791 479.091 791 457V191.348C791 169.256 773.091 151.348 751 151.348H632.251C610.16 151.348 592.251 133.439 592.251 111.348V40C592.251 17.9086 574.343 0 552.251 0Z"/>
            </g>
        </mask>
    </defs> 

    <!-- К изображению применена маска -->
    <image xlink:href="img/promo-img.webp" width="100%" height="100%" mask="url(#msk1)" />
</svg>