<svg xmlns="http://www.w3.org/2000/svg" xmlns:xlink="http://www.w3.org/1999/xlink"><symbol id="icon-telegram" viewBox="0 0 40 40"><rect y="0" width="40" height="40" fill="none"/><path d="M34,0H6C2.7,0,0,2.7,0,6v28c0,3.3,2.7,6,6,6h28c3.3,0,6-2.7,6-6V6C40,2.7,37.3,0,34,0z" fill="#37AEE2"/><path d="M15.5,31.6c-0.9,0-0.8-0.3-1-1.1L12,22.3L31.2,11" fill="#C8DAEA"/><path d="M15.5,31.6c0.5,0,0.9-0.3,1.3-0.6l3.5-3.4l-4.4-2.7" fill="#A9C9DD"/><path class="st4" d="M15.9,24.9l10.5,7.7c1.1,0.7,2,0.3,2.3-1.1l4.3-20.2c0.4-1.7-0.7-2.5-1.9-2L6.2,19.1c-1.6,0.6-1.6,1.6-0.3,2l6.5,2l14.8-9.5c0.7-0.4,1.3-0.2,0.9,0.3" fill="#F6FBFE"/></symbol><symbol id="icon-whatsapp" viewBox="0 0 40 40"><rect y="0" width="40" height="40" fill="none"/><path d="M34,0H6C2.7,0,0,2.7,0,6v28c0,3.3,2.7,6,6,6h28c3.3,0,6-2.7,6-6V6C40,2.7,37.3,0,34,0z" fill="url(#SVG_BG)"/><path d="M8.5,20c0-6.6,5.3-11.9,11.9-11.9S32.2,13.4,32.2,20c0,6.6-5.3,11.9-11.9,11.9c-2.3,0-4.5-0.7-6.3-1.8c-0.3-0.2-0.8-0.3-1.1-0.2L9,31l1.4-3.4c0.2-0.4,0.1-0.9-0.1-1.3C9.1,24.4,8.5,22.3,8.5,20z M20.3,5.3C12.3,5.3,5.7,11.9,5.7,20c0,2.6,0.7,5,1.8,7.1l-2.2,7.1l7.7-1.5c2.1,1.2,4.6,1.9,7.3,1.9C28.4,34.7,35,28.1,35,20C35,11.9,28.4,5.3,20.3,5.3z M23.5,23l-1.8,1.3c-0.9-0.5-1.8-1.2-2.8-2.1c-1-1-1.7-2-2.3-3l1.2-1c0.5-0.4,0.6-1.1,0.3-1.7l-1.5-2.8c-0.2-0.4-0.6-0.6-1-0.7c-0.4-0.1-0.8,0-1.2,0.3l-0.4,0.4c-1.1,0.9-1.7,2.4-1.2,4c0.5,1.6,1.7,4.1,4,6.5c2.5,2.5,5.1,3.5,6.6,3.9c1.2,0.3,2.4-0.1,3.2-0.8l0.8-0.7c0.4-0.3,0.5-0.7,0.5-1.2c0-0.5-0.3-0.9-0.7-1.1L25.1,23C24.6,22.7,24,22.7,23.5,23z" fill="#ffffff"/></symbol></svg>