<svg xmlns="http://www.w3.org/2000/svg" viewBox="0 0 490 512" width="20" height="22" fill="#d56e00"><path d="M335,295.15l48.19-166.36H355.5l-9.6,34.44a70.17,70.17,0,0,0-18.47-28.4c-13-12-30.71-18.05-52.76-18.05a102.22,102.22,0,0,0-58.3,17.8A160.69,160.69,0,0,0,172.57,179a227.72,227.72,0,0,0-37.11,121.7A121.58,121.58,0,0,0,140,333.81a82.11,82.11,0,0,0,14.84,29.33,78.36,78.36,0,0,0,25.77,20.7c10.41,5.34,22.95,8.05,37.3,8.05a90.33,90.33,0,0,0,33.39-6.12A120.71,120.71,0,0,0,278.49,371a106.81,106.81,0,0,0,20.94-20.25c1.12-1.42,2.2-2.86,3.26-4.28q2.28,19.06,14.92,29.93c12.06,10.29,27.54,15.53,46,15.53,22,0,41.79-4.63,58.94-13.76a125.64,125.64,0,0,0,43.05-37.6c11.35-15.74,20.13-34.62,26.09-56.12a258.42,258.42,0,0,0,8.95-69.11c0-30.56-5.93-59.39-17.61-85.7a204.78,204.78,0,0,0-49.32-68.53c-21-19.15-46.22-34.29-74.93-45S298.31,0,264.35,0c-35.51,0-69,6.69-99.45,19.87a251.37,251.37,0,0,0-134,135.54c-13,30.91-19.54,64.54-19.54,99.92s6.21,68.95,18.46,99.84a250,250,0,0,0,52.06,81.46c22.31,23.24,49.52,41.82,80.85,55.17S229.29,512,267.33,512c41.31,0,79.77-8.75,114.33-26a278.14,278.14,0,0,0,88.78-69.68l4.09-4.84-19.72-17.07-4.19,5c-21.12,25-48,45.92-79.77,62.17-31.65,16.14-66.47,24.31-103.52,24.31-33.69,0-64.93-6.12-92.89-18.15s-52.33-28.75-72.31-49.61a224.17,224.17,0,0,1-46.72-73.34,242.27,242.27,0,0,1-16.57-89.41A228.37,228.37,0,0,1,55.72,169a237.41,237.41,0,0,1,46.77-73.42A225.08,225.08,0,0,1,173.56,45C200.88,32.49,231.29,26.17,264,26.17c29.74,0,57.73,4.82,83.19,14.29s47.71,22.86,66.33,39.75a185.15,185.15,0,0,1,43.86,60c10.46,22.88,15.77,48.15,15.77,75.1a245.08,245.08,0,0,1-6.5,56.57A157.2,157.2,0,0,1,446.78,320a103.56,103.56,0,0,1-33.94,33.31c-13.62,8.24-30.24,12.43-49.41,12.43-10.11,0-18.74-2.51-25.61-7.44-6.29-4.56-9.35-12.68-9.35-24.86a106.18,106.18,0,0,1,1.92-18.23A199.21,199.21,0,0,1,335,295.15Zm-13.1-46.43a248.65,248.65,0,0,1-21.15,54,168.67,168.67,0,0,1-34.38,45c-13.15,12.11-27.87,18-45,18-20.32,0-34.7-5.83-43.95-17.84-9.54-12.37-14.37-28-14.37-46.46,0-16.69,2.62-34.66,7.79-53.37A200,200,0,0,1,193,196.29a134.76,134.76,0,0,1,35.36-38.55A77,77,0,0,1,274.67,143c9.63,0,17.92,1.6,24.62,4.71a44.61,44.61,0,0,1,16.39,12.86,58.73,58.73,0,0,1,9.91,19.55A83.62,83.62,0,0,1,329,203.93C329,215.34,326.59,230.4,321.86,248.72Z" transform="translate(-11.33)"/></svg>