<?xml version="1.0" encoding="utf-8"?>
<!-- Generator: Adobe Illustrator 23.0.1, SVG Export Plug-In . SVG Version: 6.00 Build 0)  -->
<svg version="1.1" id="Слой_1" xmlns="http://www.w3.org/2000/svg" xmlns:xlink="http://www.w3.org/1999/xlink" x="0px" y="0px"
	 viewBox="0 0 230 230" style="enable-background:new 0 0 230 230;" xml:space="preserve">
<style type="text/css">
	.st0{fill:#165427;}
	.st1{fill:#339B37;}
	.st2{fill:#A5C720;}
	.st3{display:none;fill:#185427;}
	.st4{display:none;fill:#A5C720;}
	.st5{display:none;}
	.st6{display:inline;fill:#185126;stroke:#195126;stroke-width:3;stroke-miterlimit:10;}
	.st7{display:inline;fill:#727272;}
</style>
<g>
	<polygon class="st0" points="125.1,46.5 75,46.5 1,183.5 51.1,183.5 	"/>
	<polygon class="st1" points="186,46.5 137,46.5 81.3,149.8 130.4,149.8 	"/>
	<polygon class="st2" points="174.8,89.1 197.6,46.5 229,103.3 182.9,103.3 	"/>
	<polygon class="st3" points="536,176.4 74,176.4 74.9,174.7 536,174.7 	"/>
	<polygon class="st4" points="536,99.4 238.6,99.4 237.7,97.5 536,97.5 	"/>
</g>
<g id="text" class="st5">
	<path class="st6" d="M200,162h-8.1L178,140.8h-7.1V162H164v-46.4l6.9,0.3v18.4h6.8l13.3-19.6l7.1,1.1l-14.3,21.3L200,162z"/>
	<path class="st6" d="M247.2,114.7L225,162h-7.9l5-10.8l-17.6-35.4l7.4-0.5l14.2,28l14.3-30.6L247.2,114.7z"/>
	<path class="st6" d="M289.8,162h-6.9v-41.8h-22.4V162h-6.9v-48.3h29.8l6.4,6.5V162z"/>
	<path class="st6" d="M386.7,162h-8.1l-13.8-21.2h-4.8V162H353v-21.2h-4.8L334.4,162h-8.1l16.1-24.8l-14.2-21.3l6.2-3l14.2,21.4h4.4
		v-21.4l6.9,3v18.4h4.4l14.2-21.4l6.2,3l-14.2,21.3L386.7,162z"/>
	<path class="st6" d="M430.9,137.8l-6.3,6.5h-23.2V162h-6.9v-48.3h30.1l6.3,6.5L430.9,137.8z M424,137.8v-17.6h-22.6v17.6H424z"/>
	<path class="st6" d="M475.7,155.5l-6.8,6.5h-24.3l-6.4-6.5h30.6v-14.9H445l6.5-6.5h17.3v-13.9h-30.3l6.4-6.5h23.9l6.8,6.6
		L475.7,155.5z"/>
	<path class="st6" d="M523.2,155.6l-6.5,6.5h-24.5l-6.5-6.5v-35.3l6.6-6.6h24.3l6.6,6.6L523.2,155.6z M516.3,155.6v-35.3h-23.7v35.3
		L516.3,155.6z"/>
	<path class="st7" d="M356.3,88H353V77.6h-9.6V88h-3.2V65.9h3.2v8.9h9.6v-8.9h3.2V88z"/>
	<path class="st7" d="M375.6,80.2c0,6-2,8.2-7.5,8.2s-7.5-2.2-7.5-8.2s2-8.3,7.5-8.3S375.6,74.3,375.6,80.2z M363.9,80.2
		c0,4.3,1,5.6,4.2,5.6s4.2-1.3,4.2-5.6c0-4.3-1-5.6-4.2-5.6S363.9,75.8,363.9,80.2L363.9,80.2z"/>
	<path class="st7" d="M389.5,80c2.9,0.2,3.9,1.6,3.9,4.1c0,3.2-1.8,4.1-6.3,4.1c-3.4,0-5.1,0-7.4-0.2V72.4c2-0.2,3.6-0.2,6.5-0.2
		c4.9,0,6.6,0.9,6.6,4.2C392.9,78.6,391.9,79.8,389.5,80L389.5,80z M386.5,78.9c2.5,0,3.4-0.4,3.4-2.2s-1-2-3.8-2h-3.5v4.2H386.5z
		 M386.6,85.8c2.7,0,3.6-0.5,3.6-2.3s-1-2.4-3.8-2.4h-3.8v4.7L386.6,85.8z"/>
	<path class="st7" d="M411.7,80.2c0,6-2,8.2-7.5,8.2s-7.5-2.2-7.5-8.2s2-8.3,7.5-8.3S411.7,74.3,411.7,80.2z M400,80.2
		c0,4.3,1,5.6,4.2,5.6s4.2-1.3,4.2-5.6c0-4.3-1-5.6-4.2-5.6S400,75.8,400,80.2L400,80.2z"/>
	<path class="st7" d="M429.4,88h-3V74.9h-7.5V88h-3V72.4h13.5L429.4,88z"/>
	<path class="st7" d="M448.5,80.2c0,6-2,8.2-7.5,8.2s-7.5-2.2-7.5-8.2s2-8.3,7.5-8.3S448.5,74.3,448.5,80.2z M436.8,80.2
		c0,4.3,1,5.6,4.2,5.6s4.2-1.3,4.2-5.6c0-4.3-1-5.6-4.2-5.6S436.8,75.8,436.8,80.2L436.8,80.2z"/>
	<path class="st7" d="M465.6,88h-3.1V74.8h-3.1c-1.3,0-1.7,0.5-1.9,1.9c-0.2,2.7-0.7,5.3-1.4,7.9c-0.6,2.3-2.8,3.8-5.1,3.6l-0.3-2.4
		c1.7-0.4,2.3-0.9,2.7-2c0.7-2.5,1.1-5,1.3-7.6c0.3-2.5,1.5-3.8,4.3-3.8h6.8V88z"/>
	<path class="st7" d="M484.7,80.2c0,6-2,8.2-7.5,8.2s-7.5-2.2-7.5-8.2s2-8.3,7.5-8.3S484.7,74.3,484.7,80.2z M473,80.2
		c0,4.3,1,5.6,4.2,5.6s4.2-1.3,4.2-5.6c0-4.3-1-5.6-4.2-5.6S473,75.8,473,80.2L473,80.2z"/>
	<path class="st7" d="M502.4,92.6l-0.3-4.6h-13.3V72.4h3v13.1h7.3V72.4h3.1v13.1h2.2v7.1L502.4,92.6z"/>
	<path class="st7" d="M515.5,79.9c3.5,0.4,4.3,2.4,6.3,8.1h-3.2c-1.9-5.1-2.6-6.9-5.5-6.9h-2.1c0.1,0.5,0.2,0.9,0.2,1.4V88H508V72.4
		h3.1v4.5c0,0.6-0.1,1.2-0.2,1.8h2c3,0,3.8-2.1,5.3-6.3h3.2C519.5,77.3,518.8,79.4,515.5,79.9L515.5,79.9z"/>
</g>
</svg>
