<svg xmlns="http://www.w3.org/2000/svg" viewBox="0 0 998 855" width="50" height="43"><path d="M768.5,269.7" transform="translate(-2.39 -109.49)"/><path d="M987.6,835.1,574.5,151.2c-33.4-55.7-114.1-55.5-147.4-.1L14.8,835.1v.1c-34.4,57.3,6.8,130.2,73.7,130.2H913.9C980.7,965.3,1022.1,892.6,987.6,835.1ZM500,875.56a71.11,71.11,0,1,1,71.1-71.1A71.1,71.1,0,0,1,500,875.56Zm0-186.9c-46.61,0-71.1-273.59-71.1-312.86a71.1,71.1,0,1,1,142.2,0C571.1,415.07,557.94,688.66,500,688.66Z" transform="translate(-2.39 -109.49)"/></svg>