<svg xmlns="http://www.w3.org/2000/svg" viewBox="0 0 397 436" width="40" height="43"><title>icon-ur</title><path d="M296.9,88c-20.3,3.1-42.9,20.3-53.3,40.5-5.6,11-6.7,22.6-4.4,46.1,1.1,11.8,1.1,12.2-1,14.9-1.8,2.3-2.2,4.1-2.2,10.1,0,4,.6,9.3,1.4,11.6s1.7,5.6,2.1,7.3a21.87,21.87,0,0,0,3,6.5,30,30,0,0,1,3.5,9.5c1.3,6.9,6.5,20.5,9.5,25.2,1.1,1.7,3.6,5.7,5.5,8.9,6.8,11.3,22.6,25.2,34.5,30.4,13.8,5.9,32.7,3.4,46.9-6.3,18-12.2,33.5-34.4,39.6-56.4a76.47,76.47,0,0,1,4.9-12.8c4.7-8.2,6.9-27.4,4.1-33.7-.9-1.8-.8-4.4.4-10.7,1.9-10,2-28.3.2-36.6-3-14.1-13.2-27.7-27-36-9-5.4-30.9-13.1-47.1-16.6C304.4,87.1,303.5,87,296.9,88Zm15.6,12.4c9.7,2.3,23.5,6.2,31,8.9,11.3,4,18.5,8.5,26,16.2,6.4,6.5,7.3,7.9,9.9,15.8,2.7,8.4,2.8,9.3,2.3,22-.3,7.9-1.1,14.8-2,17.2a55.31,55.31,0,0,0-2.2,8.7c-.6,4.2-.5,4.9,1.9,7.1s2.5,2.8,1.7,6.8c-2.5,11.5-3.5,14.6-5.6,17-1.2,1.5-2.7,5.5-3.4,9-3.4,17-17,39-31.3,50.4-20.3,16.3-39.9,14.9-59.1-4a91.33,91.33,0,0,1-24.4-42.7c-1.4-5.7-3.6-11.7-4.9-13.5-2.8-3.7-6.2-20.5-4.3-21.2a11.39,11.39,0,0,0,3.1-2.3c1.8-1.8,1.9-2.8,1.4-8a43,43,0,0,0-1.8-8.6c-.6-1.5-1.1-9.9-1.2-19.2-.1-16.2,0-16.6,2.8-23,5.3-11.8,12.3-19.9,24.4-28.4,5-3.5,14.4-8.2,17.7-8.9C298.7,98.8,306.7,99.1,312.5,100.4Z" transform="translate(-152.12 -87.42)"/><path d="M257.3,291.9c-7,5.1-50.9,23.3-52.3,23.7-8.1,2.3-21.4,10.9-25.7,16.6-10.5,14-19.2,43.4-25.3,85.8-1.4,9.5-2.4,36.8-1.6,42.3,1,6.3,4.4,10.1,10.9,12.3,2.9.9,59.9,18,82.2,21.4,7.2,1.1,104.5,0,104.5,0s-2.44-81.67,2-94c9.79-26.91,45.46-14.68,59.85-19.14,3.47-1.08,1.26-11.88,11.51-18.52,6.35-4.12,36-3.25,36-3.25s-9.9-23.1-12.84-27c-4-5.4-34.6-20.2-37.6-21.3S362.2,287,363.5,289c.3.5-3.8,56.3-5,59-.8,1.9-42.1,120-42.5,120-.8,0-43.9-119.3-44.3-119.6s-8.6-60.4-8.8-60.4S260.1,289.8,257.3,291.9Z" transform="translate(-152.12 -87.42)"/><path d="M312.9,342.7c2,4,1.2,4.9,18-20.7,3.8-5.8,6.8-10.6,6.7-10.7s-9.94,3.51-19.83,4a65,65,0,0,1-20.07-2.6l-4.7-1.6S312.2,341.5,312.9,342.7Z" transform="translate(-152.12 -87.42)"/><path d="M296.7,360.3c-2.7,2.2,19.76,90.83,19.76,90.83s16.45-91.52,16.24-91.73c-1.5-1.3-17.2-8.4-17.6-8.3S298.2,359,296.7,360.3Z" transform="translate(-152.12 -87.42)"/><path d="M470.35,392.41v-8.94H438.52v8.94H422.61v-8.94a15.93,15.93,0,0,1,15.91-15.91h31.83a15.93,15.93,0,0,1,15.91,15.91v8.94Z" transform="translate(-152.12 -87.42)"/><path d="M460.08,471a16.31,16.31,0,0,1-5.65,1,17.34,17.34,0,0,1-6.12-1.11L359,441.1v60.71a21.87,21.87,0,0,0,21.88,21.88H528a21.87,21.87,0,0,0,21.88-21.88V441.1Z" transform="translate(-152.12 -87.42)"/><path d="M549.91,413.31v18.22l-93.57,31.19a5.83,5.83,0,0,1-3.81,0L359,431.53V413.31a21.87,21.87,0,0,1,21.88-21.88H528A21.87,21.87,0,0,1,549.91,413.31Z" transform="translate(-152.12 -87.42)"/></svg>