<svg xmlns="http://www.w3.org/2000/svg" viewBox="0 0 462 311"><path d="M319.45,85.17c-20.4-6.2-48.4-9.7-77-9.7-28.8,0-55.8,3.5-76,9.7-21.1,6.5-25.7,13.3-25.8,14.7.1.1.1.1.1.3.5,2.2,6.5,9.1,28,15.3,19.9,5.8,46.1,9,73.7,9,28.6,0,56.6-3.6,76.9-9.7,21.8-6.5,26.5-13.4,26.5-14.8S341.15,91.77,319.45,85.17Z" transform="translate(0 -75.47)"/><path d="M238.05,312.47v-1.8c-9.2-.1-18.2-.6-26.7-1.3a120.75,120.75,0,0,1-19.2,32.9,314.91,314.91,0,0,0,46.4,4.1Z" transform="translate(0 -75.47)"/><path d="M325.05,133.87c-22.4,6.8-51.8,10.5-82.7,10.5-29.5,0-57.6-3.4-79.3-9.7a110.79,110.79,0,0,1-21.6-8.3l.7,28.2a118.08,118.08,0,0,1,31.3,17.7c.3.1.5.1.8.2,19.2,4.9,43.4,7.5,68.1,7.5,28.6,0,56.7-3.6,77-9.7,21.8-6.6,26.5-13.5,26.5-14.8a8.09,8.09,0,0,1,1.3-4.8v-25.6A108.39,108.39,0,0,1,325.05,133.87Z" transform="translate(0 -75.47)"/><path d="M325.15,189.47c-22.5,6.8-51.9,10.5-82.8,10.5a360.16,360.16,0,0,1-45.3-2.9,118.55,118.55,0,0,1,17.9,37.2c8.6.6,17.9,1,27.5,1h.9c16.4-18.1,60.8-27.1,103.8-28.3v-26.5A128.54,128.54,0,0,1,325.15,189.47Z" transform="translate(0 -75.47)"/><path d="M217,289.67q10.05.75,20.7.9l-.6-34.6c0-.2-.1-.5-.1-.7-6.2-.1-12.3-.3-18.2-.7a94,94,0,0,1,.5,11.8A121.89,121.89,0,0,1,217,289.67Z" transform="translate(0 -75.47)"/><path d="M462.05,302.27v-25.6a114.45,114.45,0,0,1-22.1,8.8c-22.3,6.6-51.3,10.2-81.7,10.2-28.8,0-56.5-3.4-78-9.4a116.49,116.49,0,0,1-22.8-8.7l.4,22.9.2,8.6c8.2,9.6,45.4,21.9,100.3,21.9,29,0,56.2-3.4,76.7-9.6,21.6-6.6,26.2-13.4,26.2-14.8s.9-3,.9-4.3Z" transform="translate(0 -75.47)"/><path d="M440.85,340.47c-22.4,6.9-51.6,10.5-82.5,10.5-36.4,0-76.1-5.5-99.9-17.6l.5,28.9v.2c0,1.5,4.3,8.2,25.5,14.7,20,6.1,47,9.5,75.9,9.5s55.8-3.5,76.1-9.8c21.2-6.6,25.7-13.5,25.7-14.9v-30.3A116.53,116.53,0,0,1,440.85,340.47Z" transform="translate(0 -75.47)"/><path d="M435.45,236.67c-20.4-6.3-48.4-9.5-77-9.5h-1.3c-26.7,0-52.1,3-71.6,8.5-20.5,5.8-27.8,12.3-28.8,15.1a8.47,8.47,0,0,1,.4,1.7c1.9,3,9.6,9.2,28.7,14.5,19.8,5.5,45.6,8.6,72.6,8.6,28.6,0,55.6-3.3,76.1-9.4,22.2-6.6,27.2-13.5,27.3-15C461.55,249.47,456.55,243.07,435.45,236.67Z" transform="translate(0 -75.47)"/><path d="M90.91,240.11c0-10-3.9-12.35-15.86-12.35H60.1V253H76.35C87.27,253,90.91,250.38,90.91,240.11Z" transform="translate(0 -75.47)"/><path d="M76.61,264.81H60.1v28.34l17,.13C89.22,293.28,93,290.81,93,280,93,268.06,89,264.94,76.61,264.81Z" transform="translate(0 -75.47)"/><path d="M99.77,165.47a99.77,99.77,0,1,0,99.76,99.76A99.76,99.76,0,0,0,99.77,165.47ZM79.86,306.41c-16.38,0-25-.13-35.75-1v-89.7c9.62-.91,17.42-1,31.72-1,22.62,0,30.68,4.94,30.68,23.4,0,12.87-4.42,19.5-15.34,20.54v.52c13.52,1.17,18.07,9.62,18.07,23.92C109.24,301.47,100.79,306.41,79.86,306.41Zm86.19-51.74H161.5c-6.11,0-12,2.08-21.06,5.72v45H124.58v-63.7h12.35l1.43,9.36c8.71-7.15,17.94-11.18,26.26-11.18h3.12Z" transform="translate(0 -75.47)"/></svg>