<svg xmlns="http://www.w3.org/2000/svg" viewBox="0 0 300 185" width="30" height="19"><path d="M297.37,157.67l-4.19-6.89A181.37,181.37,0,0,0,263.7,114.1l-14-13.42a3.69,3.69,0,0,1-.48-4.82l19.15-27.42a120.49,120.49,0,0,0,7.57-12.38l16.36-30.77a17.1,17.1,0,0,0-.41-16.9A16.92,16.92,0,0,0,277.25.05L241.84,0h0A18.69,18.69,0,0,0,224.7,11.25L221,19.84a212.57,212.57,0,0,1-38.84,59.43V16.55A16.52,16.52,0,0,0,165.65,0H115.5a15,15,0,0,0-12.13,23.77l3.5,4.91a28.05,28.05,0,0,1,5.26,16.43V90.94A183.47,183.47,0,0,1,92,62.64C82.28,45.37,75.28,25.24,72,14.78A21,21,0,0,0,51.9,0H16A15.89,15.89,0,0,0,3.26,6.38,16.06,16.06,0,0,0,.61,20.48L7.3,44.35a220.77,220.77,0,0,0,15.93,40.7h0l.05.07A318,318,0,0,0,42,114.31a331.3,331.3,0,0,0,23.82,28.44l0,0s12.34,11.3,18.93,16.37a125.31,125.31,0,0,0,76,25.85,21.43,21.43,0,0,0,21.35-21.46V134.16a35.88,35.88,0,0,1,16.55,9.76l30.57,31.59A31.24,31.24,0,0,0,251.57,185h30.57a18,18,0,0,0,15.23-27.33Zm-14.07,10a1.24,1.24,0,0,1-1.16.68H251.57a14.67,14.67,0,0,1-10.49-4.45l-30.57-31.6a52.42,52.42,0,0,0-26.44-14.78,15.24,15.24,0,0,0-18.49,14.94v31a4.83,4.83,0,0,1-4.82,4.84A108.72,108.72,0,0,1,94.84,146,163.9,163.9,0,0,1,79.21,132.6C67,120.43,53.51,105.81,37.82,77.23c-6.45-11.73-11-24.49-14.61-37.39L16.7,16.62H51.9a4.53,4.53,0,0,1,4.33,3.18c3.49,11.09,10.93,32.46,21.44,51.05A205.15,205.15,0,0,0,104,106.78a14.17,14.17,0,0,0,24.64-9.64v-52A44.69,44.69,0,0,0,120.3,19l-1.69-2.37h47V83.25a14.24,14.24,0,0,0,6.51,12,14.06,14.06,0,0,0,13.56,1l3.41-1.56a13.17,13.17,0,0,0,4.15-3,229.07,229.07,0,0,0,42.87-65.14l3.76-8.59a2.15,2.15,0,0,1,2-1.31h0l35.41,0a.48.48,0,0,1,.46.27.46.46,0,0,1,0,.53L261.34,48.23a102.61,102.61,0,0,1-6.52,10.66L235.67,86.32a20.27,20.27,0,0,0,2.61,26.39l14,13.43a164.23,164.23,0,0,1,26.78,33.32l4.2,6.88A1.27,1.27,0,0,1,283.3,167.7Z" transform="translate(0 0)"/></svg>