<svg xmlns="http://www.w3.org/2000/svg" viewBox="0 0 470 512" width="47" height="51"><path d="M479.93,230.88a32.4,32.4,0,0,0-13.75-26.48V195a24.74,24.74,0,0,0-24.72-24.72h-5.72l21.89-32.12a23.65,23.65,0,0,0-6.22-32.83L302.88,4.11a23.63,23.63,0,0,0-32.83,6.22L141.85,198.45H106.17l8.61-87.13a2.58,2.58,0,0,1,1.63-2.16,55.52,55.52,0,0,0,27.05-22A2.58,2.58,0,0,1,145.89,86l56,5.53A7.3,7.3,0,0,0,203.28,77l-56-5.53a17.09,17.09,0,0,0-16.17,7.83A40.72,40.72,0,0,1,111.26,95.5a17.07,17.07,0,0,0-11,14.39l-8.75,88.56h-9.3L95.82,60.65a9,9,0,0,1,9.88-8.11L218.78,63.71a7.3,7.3,0,1,0,1.43-14.52L107.14,38A23.66,23.66,0,0,0,81.3,59.21l-11,111.07H51.64A24.75,24.75,0,0,0,26.92,195v6.41A32.47,32.47,0,0,0,8,230.88V479.57A32.46,32.46,0,0,0,40.43,512H447.5a32.47,32.47,0,0,0,32.43-32.43Zm-38.47-46h0A10.14,10.14,0,0,1,451.59,195v3.71a32.42,32.42,0,0,0-4.09-.26H416.55l9.25-13.58ZM282.11,18.55a9,9,0,0,1,12.56-2.38L443.2,117.39A9.05,9.05,0,0,1,445.58,130l-46.69,68.5h-11.2l22.89-33.59a17.06,17.06,0,0,0,.79-18.09,40.77,40.77,0,0,1-4.89-25.16,17.06,17.06,0,0,0-7.38-16.38l-77-52.47a17.07,17.07,0,0,0-17.95-.88A40.81,40.81,0,0,1,279,56.54a17.28,17.28,0,0,0-16.55,7.35l-91.7,134.56h-11.2Zm3.21,123.89a60.21,60.21,0,0,0-60,56h-37L274.46,72.11h0A2.61,2.61,0,0,1,276.6,71l.33,0a55.49,55.49,0,0,0,34.29-6.34,2.58,2.58,0,0,1,2.67.17l77,52.47a2.59,2.59,0,0,1,1.13,2.43,55.43,55.43,0,0,0,6.64,34.22,2.6,2.6,0,0,1-.14,2.71L370,198.45H345.3A60.21,60.21,0,0,0,285.32,142.44Zm45.35,56H240a45.54,45.54,0,0,1,90.7,0ZM41.51,195a10.15,10.15,0,0,1,10.13-10.13H68.89l-1.34,13.58h-26Z" transform="translate(-8.01 0)"/></svg>