<svg xmlns="http://www.w3.org/2000/svg" viewBox="0 0 370 400" width="37" height="40"><path d="M0,0V400H284.5V186l-19,19.2V380.5H19.5V19.5h246V51.6l19-18.6V0Z"/><path d="M143.88,207.8c0,.6-27.17,84.19-27.17,84.19s70-33.91,70.47-33.93c5.29-.36,183.53-189.95,182.28-191.51-2.7-3-49.59-46.77-50.19-46.75C319,19.81,143.86,207.3,143.88,207.8ZM353.61,68.45l-16,16.81-33.5-31.47,15.57-17ZM154.16,216.68c.36,11.49,1.5,12.46,3.18,11.9,3.76-1.28,16.75-3,16,4.81-.89,8.43-.73,11.93,2.06,11.44,4.11-1.28,15.23.72,11.95,4.82-1.34,1.85-39.54,21.66-40.43,21.68-.5,0-14.31-12.75-14.31-12.75s10.37-31.74,15-43.49C150.69,207.07,154,209.78,154.16,216.68Z"/></svg>