<svg xmlns="http://www.w3.org/2000/svg" xmlns:xlink="http://www.w3.org/1999/xlink"><defs><style>.cls-1{fill:#ffffff;}</style><style>.cls-1{fill:#339b37;}.cls-2{fill:#576996;}.cls-3{fill:#737270;}.cls-4{fill:#586a97;}</style></defs><symbol id="icon-clock" viewBox="0 0 141.67 139.54">
	<title>clock-icon</title>
	<path class="cls-1" d="M72.76,21.53V1.06a1,1,0,0,0-2,0V21.53c.33,0,.66,0,1,0Z" transform="translate(-0.93 -0.06)"/>
	<path class="cls-1" d="M46.69,28.5c.57-.35,1.15-.67,1.74-1L38.19,9.8a1,1,0,1,0-1.73,1Z" transform="translate(-0.93 -0.06)"/>
	<path class="cls-1" d="M11.43,34.79a1,1,0,0,0,.36,1.37L29.47,46.43c.32-.59.65-1.17,1-1.73L12.79,34.43A1,1,0,0,0,11.43,34.79Z" transform="translate(-0.93 -0.06)"/>
	<path class="cls-1" d="M107.34,8.58A1,1,0,0,0,106,9L95.17,27.54c.58.33,1.16.66,1.73,1L107.7,10A1,1,0,0,0,107.34,8.58Z" transform="translate(-0.93 -0.06)"/>
	<path class="cls-1" d="M132.71,35.73a1,1,0,0,0-1-1.73L113.09,44.77c.35.57.68,1.15,1,1.73Z" transform="translate(-0.93 -0.06)"/>
	<path class="cls-1" d="M23.43,69.83c0-.33,0-.66,0-1H1.93a1,1,0,1,0,0,2H23.45C23.44,70.5,23.43,70.17,23.43,69.83Z" transform="translate(-0.93 -0.06)"/>
	<path class="cls-1" d="M141.59,68.83H120.07c0,.34,0,.67,0,1s0,.67,0,1h21.52a1,1,0,0,0,0-2Z" transform="translate(-0.93 -0.06)"/>
	<path class="cls-1" d="M131.73,103.51,114.05,93.24c-.33.58-.66,1.16-1,1.73l17.67,10.27a1,1,0,0,0,.5.14,1,1,0,0,0,.51-1.87Z" transform="translate(-0.93 -0.06)"/>
	<path class="cls-1" d="M10.81,103.94a1,1,0,0,0,.5,1.86,1,1,0,0,0,.5-.13L30.42,94.9c-.34-.57-.67-1.15-1-1.73Z" transform="translate(-0.93 -0.06)"/>
	<path class="cls-1" d="M96.82,111.17c-.56.34-1.15.67-1.73,1l10.24,17.7a1,1,0,0,0,.87.5,1,1,0,0,0,.86-1.5Z" transform="translate(-0.93 -0.06)"/>
	<path class="cls-1" d="M35.82,129.72a1,1,0,0,0,.36,1.36,1,1,0,0,0,.5.14,1,1,0,0,0,.87-.5l10.8-18.6c-.58-.32-1.16-.65-1.73-1Z" transform="translate(-0.93 -0.06)"/>
	<path class="cls-1" d="M70.76,118.14V138.6a1,1,0,0,0,2,0V118.14l-1,0C71.42,118.17,71.09,118.15,70.76,118.14Z" transform="translate(-0.93 -0.06)"/>
	<path class="cls-1" d="M105.67,52a1.5,1.5,0,0,0-1.5-2.6L75.74,65.8h0a5.67,5.67,0,0,0-7.95,0L47.45,54a1.5,1.5,0,1,0-1.51,2.6L66.28,68.39a5.67,5.67,0,1,0,11,0ZM76.27,66.41l-.06-.08Zm.39.59,0,0Zm-9.78,0,0,0Zm.43-.63,0,.07Zm4.45,6.17a2.67,2.67,0,1,1,2.67-2.67A2.68,2.68,0,0,1,71.76,72.5Z" transform="translate(-0.93 -0.06)"/>
</symbol><symbol id="icon-dot-arrow" viewBox="0 0 297.613 297.613">
	<circle cx="15.279" cy="14.83" r="14.83"/>
	<circle cx="59.32" cy="59.769" r="14.83"/>
	<circle cx="59.32" cy="14.83" r="14.83"/>
	<circle cx="104.261" cy="59.769" r="14.83"/>
	<circle cx="104.261" cy="103.81" r="14.83"/>
	<circle cx="104.261" cy="14.83" r="14.83"/>
	<circle cx="148.302" cy="59.769" r="14.83"/>
	<circle cx="148.302" cy="103.81" r="14.83"/>
	<circle cx="148.302" cy="14.83" r="14.83"/>
	<circle cx="192.343" cy="59.769" r="14.83"/>
	<circle cx="192.343" cy="103.81" r="14.83"/>
	<circle cx="148.302" cy="147.852" r="14.83"/>
	<circle cx="192.343" cy="147.852" r="14.83"/>
	<circle cx="104.261" cy="192.79" r="14.831"/>
	<circle cx="148.302" cy="192.79" r="14.831"/>
	<circle cx="192.343" cy="192.79" r="14.831"/>
	<circle cx="59.32" cy="236.887" r="14.83"/>
	<circle cx="104.261" cy="236.887" r="14.83"/>
	<circle cx="148.302" cy="236.887" r="14.83"/>
	<circle cx="192.343" cy="236.887" r="14.83"/>
	<circle cx="238.238" cy="103.81" r="14.83"/>
	<circle cx="238.238" cy="147.852" r="14.83"/>
	<circle cx="238.238" cy="192.79" r="14.831"/>
	<circle cx="15.279" cy="282.782" r="14.831"/>
	<circle cx="59.32" cy="282.782" r="14.831"/>
	<circle cx="104.261" cy="282.782" r="14.831"/>
	<circle cx="148.302" cy="282.782" r="14.831"/>
	<circle cx="282.334" cy="147.852" r="14.83"/>	
</symbol><symbol id="icon-facebook" viewBox="0 0 10 19"><path d="M7.05,19H2V10.16H0V5.8H1.94A5.68,5.68,0,0,1,3.07,1.39,4.76,4.76,0,0,1,6.46,0H10V4.21H7.22A4.2,4.2,0,0,0,7,5.8H10v4.37H7.05ZM3.12,18H5.94V9.14H8.87V6.83H5.94V6.32c0-1.39,0-2.59.75-3.05l.14-.09H8.89V1H6.49a3.54,3.54,0,0,0-2.57,1c-.77.84-1,2.26-.82,4.21l.07.57H1.11V9.14h2Z"/></symbol><symbol id="icon-logo" viewBox="0 0 680 390"><title>icon-logo</title><g id="hone_front"><polygon class="cls-1" points="172.82 390.15 309.77 228.15 504.64 228.15 680.6 390.15 452.21 390.15 316.08 254.37 201.99 390.15 172.82 390.15"/><rect class="cls-2" x="321.22" y="328.12" width="16.16" height="16.16"/><rect class="cls-2" x="299.04" y="328.12" width="16.16" height="16.16"/><rect class="cls-2" x="321.22" y="349.82" width="16.16" height="16.16"/><rect class="cls-2" x="299.04" y="349.82" width="16.16" height="16.16"/></g><g id="hone_back"><polygon class="cls-1" points="0 364.98 0.01 349 18.63 349.02 102.76 248.28 238.32 248.28 257.73 268.41 193.95 345.54 107.15 266.52 25.79 364.98 0 364.98"/><rect class="cls-2" x="111.03" y="309.15" width="10.21" height="10.21"/><rect class="cls-2" x="97.02" y="309.15" width="10.21" height="10.21"/><rect class="cls-2" x="111.03" y="322.86" width="10.21" height="10.21"/><rect class="cls-2" x="97.02" y="322.86" width="10.21" height="10.21"/></g><g id="build_front"><polygon class="cls-3" points="445.69 25 375.77 0 375.77 216.5 445.69 216.5 445.69 25"/><polygon class="cls-4" points="356.53 22.52 337.56 28.52 337.56 216.5 356.53 216.5 356.53 22.52"/><polygon class="cls-4" points="324.62 32.03 305.64 38.03 305.64 216.5 324.62 216.5 324.62 32.03"/><polygon class="cls-4" points="292.4 42.42 273.43 48.42 273.43 248.89 292.4 225.89 292.4 42.42"/></g><g id="build_back"><polygon class="cls-3" points="251.28 128.09 215.79 114.33 215.79 233.5 251.28 233.5 251.28 128.09"/><polygon class="cls-4" points="185.2 143.1 170.76 146.03 170.76 168.93 185.2 165.93 185.2 143.1"/><polyline class="cls-4" points="170.76 178.88 170.76 201.63 185.2 198.81 185.2 175.91"/><polyline class="cls-4" points="170.76 211.99 170.76 234.5 185.2 234.5 185.2 209.12"/><polygon class="cls-4" points="161.07 147.9 145.63 151.05 145.63 173.93 161.07 170.82 161.07 147.9"/><polyline class="cls-4" points="145.63 184.03 145.63 206.87 161.07 203.81 161.07 180.93"/><polyline class="cls-4" points="145.63 217.02 145.63 234.37 161.07 234.37 161.07 213.99"/><polygon class="cls-4" points="136.16 152.95 120.71 156.05 120.71 178.94 136.16 175.83 136.16 152.95"/><polyline class="cls-4" points="120.71 189.03 120.71 212.11 136.16 208.98 136.16 185.72"/><polyline class="cls-4" points="120.71 222.16 120.71 234.24 136.16 234.24 136.16 218.86"/></g></symbol></svg>