<svg width="54" height="45" viewBox="0 0 54 45" fill="#F87023" xmlns="http://www.w3.org/2000/svg"><path d="M17.0824 38.1816C16.5314 38.1816 16.2559 38.4544 16.2559 38.9998C16.2559 39.5453 16.5314 39.818 17.0824 39.818C17.6334 39.818 17.9089 39.5453 17.9089 38.9998C18.1844 38.7271 17.6334 38.1816 17.0824 38.1816Z"/><path d="M42.4281 38.1816C41.8771 38.1816 41.6016 38.4544 41.6016 38.9998C41.6016 39.5453 41.8771 39.818 42.4281 39.818C42.9791 39.818 43.2546 39.5453 43.2546 38.9998C43.2546 38.7271 42.9791 38.1816 42.4281 38.1816Z"/><path d="M6.61169 24.818H26.9994C27.5505 24.818 27.826 24.5452 27.826 23.9998V6.54523C27.826 5.99978 27.5505 5.72705 26.9994 5.72705H6.61169C6.06067 5.72705 5.78516 5.99978 5.78516 6.54523V23.9998C5.78516 24.2725 6.06067 24.818 6.61169 24.818ZM7.43822 7.36341H26.1729V23.1816H7.43822V7.36341Z"/><path d="M41.0505 28.6362H38.0199C37.4689 28.6362 37.1934 28.909 37.1934 29.4544C37.1934 29.9999 37.4689 30.2726 38.0199 30.2726H41.0505C41.6015 30.2726 41.877 29.9999 41.877 29.4544C41.6015 29.1817 41.326 28.6362 41.0505 28.6362Z"/><path d="M53.7245 29.4545V25.0909C53.7245 16.3636 49.3163 11.7273 45.7347 9.27273C43.8061 8.18182 41.602 7.36364 39.1224 7.36364H33.3367V0.818182C33.6122 0.272727 33.0612 0 32.7857 0H0.826531C0.27551 0 0 0.272727 0 0.818182V36.5455C0 38.4545 1.65306 40.0909 3.58163 40.0909H11.2959C11.5714 42.8182 14.051 45 17.0816 45C20.1122 45 22.3163 42.8182 22.8673 40.0909H36.6429C36.9184 42.8182 39.398 45 42.4286 45C45.4592 45 47.6633 42.8182 48.2143 40.0909H50.4184C52.3469 40.0909 54 38.4545 54 36.5455V34.9091V29.4545H53.7245ZM17.0816 43.3636C14.8776 43.3636 12.949 41.4545 12.949 39.2727C12.949 37.0909 14.8776 35.1818 17.0816 35.1818C19.2857 35.1818 21.2143 37.0909 21.2143 39.2727C21.2143 41.4545 19.5612 43.3636 17.0816 43.3636ZM31.9592 38.4545H22.8673C22.5918 35.7273 20.1122 33.5455 17.0816 33.5455C14.051 33.5455 11.8469 35.7273 11.2959 38.4545H3.58163C2.47959 38.4545 1.65306 37.6364 1.65306 36.5455V30.5455H31.9592V38.4545ZM31.9592 28.6364H1.65306V1.36364H31.9592V28.6364ZM52.0714 34.0909H51.5204C50.4184 34.0909 49.5918 33.2727 49.5918 32.1818C49.5918 31.0909 50.4184 30.2727 51.5204 30.2727H52.0714V34.0909ZM38.2959 9.27273H39.1224C41.051 9.27273 43.2551 9.81818 44.6327 10.9091C47.9388 13.0909 51.7959 16.9091 52.0714 24.5455H42.9796C42.1531 21.2727 40.7755 18.2727 38.2959 15.8182V9.27273ZM42.4286 43.3636C40.2245 43.3636 38.2959 41.4545 38.2959 39.2727C38.2959 37.0909 40.2245 35.1818 42.4286 35.1818C44.6326 35.1818 46.5612 37.0909 46.5612 39.2727C46.5612 41.4545 44.6326 43.3636 42.4286 43.3636ZM50.4184 38.4545H48.2143C47.9388 35.7273 45.4592 33.5455 42.4286 33.5455C39.398 33.5455 37.1939 35.7273 36.6429 38.4545H33.6122V9.27273H36.9184V16.0909C36.9184 16.3636 36.9184 16.6364 37.1939 16.6364C39.398 18.8182 40.7755 21.2727 41.602 24.2727H38.0204C37.4694 24.2727 37.1939 24.5455 37.1939 25.0909C37.1939 25.6364 37.4694 25.9091 38.0204 25.9091H52.3469V28.6364H51.7959C49.8673 28.6364 48.2143 30.2727 48.2143 32.1818C48.2143 34.0909 49.8673 35.7273 51.7959 35.7273H52.3469V36.5455C52.0714 37.6364 51.2449 38.4545 50.4184 38.4545Z"/></svg>
