<svg width="13" height="13" viewBox="0 0 13 13" fill="#1567BA" xmlns="http://www.w3.org/2000/svg"><path d="M7.875 1.0625C7.875 0.898438 7.71094 0.734375 7.54688 0.734375H0.328125C0.136719 0.734375 0 0.898438 0 1.0625V1.9375C0 2.12891 0.136719 2.26562 0.328125 2.26562H7.54688C7.71094 2.26562 7.875 2.12891 7.875 1.9375V1.0625ZM0.328125 5.76562H11.9219C12.0859 5.76562 12.25 5.62891 12.25 5.4375V4.5625C12.25 4.39844 12.0859 4.23438 11.9219 4.23438H0.328125C0.136719 4.23438 0 4.39844 0 4.5625V5.4375C0 5.62891 0.136719 5.76562 0.328125 5.76562ZM0.328125 12.7656H11.9219C12.0859 12.7656 12.25 12.6289 12.25 12.4375V11.5625C12.25 11.3984 12.0859 11.2344 11.9219 11.2344H0.328125C0.136719 11.2344 0 11.3984 0 11.5625V12.4375C0 12.6289 0.136719 12.7656 0.328125 12.7656ZM7.54688 7.73438H0.328125C0.136719 7.73438 0 7.89844 0 8.0625V8.9375C0 9.12891 0.136719 9.26562 0.328125 9.26562H7.54688C7.71094 9.26562 7.875 9.12891 7.875 8.9375V8.0625C7.875 7.89844 7.71094 7.73438 7.54688 7.73438Z"/></svg>
