<svg width="20" height="21" viewBox="0 0 20 21" fill="none" xmlns="http://www.w3.org/2000/svg"><path d="M19.375 5.5C19.375 5.10938 19.2578 4.75781 19.0625 4.44531C18.8281 4.13281 18.5547 3.9375 18.2031 3.78125L10.7031 0.65625C10.2344 0.460938 9.76562 0.460938 9.29688 0.65625L1.79688 3.78125C1.40625 3.9375 1.13281 4.13281 0.9375 4.44531C0.703125 4.75781 0.625 5.10938 0.625 5.5C0.625 7.96094 1.05469 10.2656 1.95312 12.4141C2.73438 14.3672 3.78906 16.0469 5.19531 17.4531C6.44531 18.7812 7.8125 19.7578 9.29688 20.3438C9.76562 20.5781 10.2344 20.5781 10.7031 20.3438C11.9922 19.8359 13.2422 18.9766 14.4531 17.8047C15.8594 16.3984 17.0312 14.7578 17.8906 12.8828C18.8672 10.6562 19.375 8.19531 19.375 5.5ZM9.17969 15.4219C9.0625 15.5781 8.90625 15.6172 8.75 15.6172C8.55469 15.6172 8.39844 15.5781 8.32031 15.4219L4.25781 11.3594C4.10156 11.2422 4.0625 11.0859 4.0625 10.9297C4.0625 10.7734 4.10156 10.6172 4.25781 10.4609L5.11719 9.60156C5.23438 9.48438 5.39062 9.40625 5.54688 9.40625C5.70312 9.40625 5.85938 9.48438 6.01562 9.60156L8.75 12.3359L14.6094 6.47656C14.7266 6.35938 14.8828 6.28125 15.0391 6.28125C15.1953 6.28125 15.3516 6.35938 15.5078 6.47656L16.3672 7.33594C16.4844 7.49219 16.5625 7.64844 16.5625 7.80469C16.5625 7.96094 16.4844 8.11719 16.3672 8.23438L9.17969 15.4219Z" /></svg>