<svg xmlns="http://www.w3.org/2000/svg" xmlns:xlink="http://www.w3.org/1999/xlink"><symbol id="icon-developer" viewBox="0 0 80 72"><path d="M79,57.2L46.4,3.3c-2.6-4.4-9-4.4-11.6,0L15.5,35.2l5.6-0.4L38.8,5.7c0.6-1,1.9-1.4,3-0.7c0.3,0.2,0.6,0.4,0.7,0.7 l32.6,53.9c0.6,1,0.3,2.4-0.7,3c-0.3,0.2-0.7,0.3-1.1,0.3H35.5l-2.4,4.6h40.1C78.5,67.5,81.7,61.8,79,57.2z"/><path d="M40.3,32l-2.1,0.2l-0.3,1.2c-0.1,0.5-0.4,0.8-0.8,1.1l0,0c-0.4,0.2-0.9,0.3-1.3,0.1l-1.1-0.4l-1.4,1.7l0.6,1 c0.2,0.4,0.3,0.9,0.2,1.3l0,0c-0.1,0.4-0.5,0.8-0.9,1L32,39.7l0.2,2.1l1.2,0.3c0.5,0.1,0.8,0.4,1.1,0.8l0,0c0.2,0.4,0.3,0.9,0.1,1.3 l-0.4,1.1l1.7,1.4l1-0.6c0.4-0.2,0.9-0.3,1.3-0.2l0,0c0.4,0.1,0.8,0.5,1,0.9l0.5,1.1l2.1-0.2l0.3-1.2c0.1-0.5,0.4-0.8,0.8-1.1l0,0 c0.4-0.2,0.9-0.3,1.3-0.1l1.1,0.4l1.4-1.7l-0.6-1c-0.2-0.4-0.3-0.9-0.2-1.3l0,0c0.1-0.5,0.4-0.8,0.9-1l1.1-0.5l-0.2-2.1l-1.2-0.3 c-0.5-0.1-0.8-0.4-1.1-0.8l0,0c-0.2-0.4-0.3-0.9-0.1-1.3l0.4-1.2l-1.7-1.4l-1,0.6c-0.4,0.2-0.9,0.3-1.3,0.2l0,0 c-0.4-0.1-0.8-0.5-1-0.9L40.3,32z M42.9,39.7c0.2,1.6-1,3-2.6,3.2c-1.6,0.2-3-1-3.2-2.6c-0.2-1.6,1-3,2.6-3.2 C41.3,36.9,42.7,38.1,42.9,39.7L42.9,39.7z" class="developer__gear-one"/><path d="M20.6,40.7L16.4,40l-1.2,2.1c-0.4,0.8-1.2,1.4-2.1,1.6l0,0c-0.9,0.2-1.9,0-2.6-0.5l-2-1.4L5,44.4l0.7,2.3 c0.3,0.9,0.1,1.9-0.4,2.7l0,0c-0.5,0.8-1.3,1.3-2.2,1.5l-2.4,0.4L0,55.6l2.1,1.2C3,57.2,3.6,58,3.8,58.9l0,0c0.2,0.9,0,1.9-0.5,2.6 l-1.4,2L4.4,67l2.3-0.7c0.9-0.3,1.9-0.1,2.7,0.4l0,0c0.8,0.5,1.3,1.3,1.5,2.2l0.4,2.4l4.2,0.7l1.2-2.1c0.4-0.8,1.2-1.4,2.1-1.6l0,0 c0.9-0.2,1.9,0,2.6,0.5l2,1.4l3.5-2.5l-0.7-2.3c-0.3-0.9-0.1-1.9,0.4-2.7l0,0c0.5-0.8,1.3-1.3,2.2-1.5l2.4-0.4l0.7-4.2l-2.1-1.2 c-0.8-0.4-1.4-1.2-1.6-2.1l0,0c-0.2-0.9,0-1.9,0.5-2.6l1.4-2L27.6,45l-2.3,0.7c-0.9,0.3-1.9,0.1-2.7-0.4l0,0 c-0.8-0.5-1.3-1.3-1.5-2.2L20.6,40.7z M21.8,56.9c-0.5,3.2-3.5,5.3-6.7,4.8c-3.2-0.5-5.3-3.5-4.8-6.7c0.5-3.2,3.5-5.3,6.7-4.8 C20.1,50.8,22.3,53.7,21.8,56.9C21.8,56.9,21.8,56.9,21.8,56.9z" class="developer__gear-two"/></symbol><symbol id="icon-email" viewBox="0 0 23 17"><path d="M21.2222 0.166664H1.7778C1.40945 0.166664 1.05618 0.312993 0.795712 0.57346C0.535245 0.833927 0.388916 1.1872 0.388916 1.55555V15.4444C0.388916 15.8128 0.535245 16.1661 0.795712 16.4265C1.05618 16.687 1.40945 16.8333 1.7778 16.8333H21.2222C21.5906 16.8333 21.9439 16.687 22.2043 16.4265C22.4648 16.1661 22.6111 15.8128 22.6111 15.4444V1.55555C22.6111 1.1872 22.4648 0.833927 22.2043 0.57346C21.9439 0.312993 21.5906 0.166664 21.2222 0.166664ZM20.1528 15.4444H2.93058L7.79169 10.4167L6.79169 9.45139L1.7778 14.6389V2.61111L10.4097 11.2014C10.67 11.4601 11.022 11.6053 11.3889 11.6053C11.7558 11.6053 12.1079 11.4601 12.3681 11.2014L21.2222 2.39583V14.5486L16.1111 9.4375L15.132 10.4167L20.1528 15.4444ZM2.68753 1.55555H20.0972L11.3889 10.2153L2.68753 1.55555Z"/></symbol><symbol id="icon-logo" viewBox="0 0 270 120"><path d="M72.9,102.9H43.5l-27-44.2l27-44.2l68.5,0l-5.6-9.1c-1.1-1.8-3-2.9-5.1-2.9H40.2c-2.1,0-4,1.1-5.1,2.9L4.4,55.5c-1.2,1.9-1.2,4.3,0,6.2L35,112c1.1,1.8,3,2.9,5.1,2.9h32.8V102.9z" fill="#CD4B44"/><g fill="#979695"><path d="M95.4,93.5c2,0,3.7,0.8,5,2.3c1.3,1.5,2,3.4,2,5.6c0,2.2-0.7,4.1-2,5.6c-1.3,1.5-3,2.3-5,2.3c-2.1,0-3.7-0.7-4.9-2.2v7.8h-4.2v-21h4.2v1.8C91.6,94.2,93.3,93.5,95.4,93.5z M94.2,97.2c-0.8,0-1.5,0.2-2.2,0.6s-1.2,1-1.5,1.6v3.9c0.4,0.7,0.9,1.2,1.5,1.6c0.7,0.4,1.4,0.6,2.2,0.6c1.2,0,2.2-0.4,2.9-1.2c0.8-0.8,1.1-1.8,1.1-3c0-1.2-0.4-2.2-1.1-3C96.4,97.6,95.4,97.2,94.2,97.2z"/><path d="M109.8,108.9h-4.2v-15h4.2v2.5c0.5-0.8,1.2-1.5,2.1-2c1-0.6,2-0.9,3.1-0.9c0.2,0,0.4,0,0.5,0v4.1c-0.4-0.1-0.8-0.2-1.3-0.2c-1,0-1.9,0.3-2.7,0.8c-0.8,0.5-1.4,1.1-1.7,1.8V108.9z"/><path d="M117.3,101.4c0-2.2,0.8-4.1,2.3-5.6c1.5-1.5,3.5-2.3,6-2.3c2.4,0,4.4,0.8,6,2.3c1.6,1.5,2.3,3.4,2.3,5.6c0,2.2-0.8,4.1-2.3,5.6c-1.6,1.5-3.6,2.3-6,2.3c-2.4,0-4.4-0.8-6-2.3C118.1,105.5,117.3,103.6,117.3,101.4z M121.5,101.4c0,1.2,0.4,2.2,1.2,3c0.8,0.8,1.8,1.2,3,1.2c1.2,0,2.2-0.4,3-1.2c0.8-0.8,1.2-1.8,1.2-3c0-1.2-0.4-2.2-1.2-3c-0.8-0.8-1.8-1.2-3-1.2c-1.2,0-2.2,0.4-3,1.2C121.9,99.2,121.5,100.2,121.5,101.4z"/><path d="M143.1,109.2c-2,0-3.7-0.8-5.1-2.3c-1.3-1.5-2-3.4-2-5.6c0-2.2,0.7-4.1,2-5.6c1.3-1.5,3-2.3,5.1-2.3c2.1,0,3.7,0.7,4.9,2.2v-7.9h4.2v21H148V107C146.9,108.5,145.3,109.2,143.1,109.2z M144.3,105.6c0.8,0,1.5-0.2,2.2-0.6c0.7-0.4,1.2-1,1.5-1.6v-3.9c-0.4-0.7-0.9-1.2-1.5-1.6c-0.7-0.4-1.4-0.6-2.2-0.6c-1.2,0-2.2,0.4-2.9,1.2c-0.8,0.8-1.1,1.8-1.1,3c0,1.2,0.4,2.2,1.1,3C142.1,105.2,143.1,105.6,144.3,105.6z"/><path d="M166.6,103.4v-9.5h4.2v15h-4.2v-1.8c-1.3,1.5-3,2.2-5,2.2c-1.7,0-3.1-0.5-4-1.6c-1-1.1-1.4-2.6-1.4-4.5v-9.2h4.2v8.3c0,1.1,0.3,1.9,0.8,2.4c0.5,0.5,1.2,0.8,2.1,0.8c0.6,0,1.3-0.2,1.9-0.6S166.2,104,166.6,103.4z"/><path d="M182.1,109.2c-2.2,0-4.1-0.7-5.7-2.2c-1.6-1.5-2.4-3.4-2.4-5.8c0-2.4,0.8-4.3,2.4-5.7c1.6-1.4,3.5-2.2,5.8-2.2c1.6,0,3.1,0.3,4.4,1v3.6c-1.3-0.6-2.6-0.9-3.8-0.9c-1.3,0-2.4,0.4-3.3,1.2c-0.9,0.8-1.3,1.8-1.3,3c0,1.2,0.5,2.3,1.3,3c0.9,0.8,2,1.2,3.3,1.2c1.5,0,2.9-0.3,4-1v3.6C185.4,108.9,183.9,109.2,182.1,109.2z"/><path d="M191.9,104.2v-6.8h-2.9v-3.5h2.9v-4.1h4.2v4.1h4.3v3.5h-4.3v5.9c0,0.7,0.2,1.3,0.5,1.6c0.3,0.3,0.8,0.5,1.6,0.5c0.7,0,1.5-0.2,2.2-0.5v3.5c-0.9,0.5-2.1,0.8-3.6,0.8C193.5,109.2,191.9,107.6,191.9,104.2z"/><path d="M203.5,89.9c0-0.7,0.2-1.3,0.7-1.8c0.5-0.5,1.1-0.7,1.8-0.7s1.3,0.2,1.8,0.7c0.5,0.5,0.7,1.1,0.7,1.8c0,0.7-0.2,1.3-0.7,1.8s-1.1,0.7-1.8,0.7s-1.3-0.2-1.8-0.7S203.5,90.6,203.5,89.9z M208.1,108.9h-4.2v-15h4.2V108.9z"/><path d="M211.5,101.4c0-2.2,0.8-4.1,2.3-5.6c1.5-1.5,3.5-2.3,6-2.3s4.4,0.8,6,2.3c1.6,1.5,2.3,3.4,2.3,5.6c0,2.2-0.8,4.1-2.3,5.6c-1.6,1.5-3.6,2.3-6,2.3s-4.4-0.8-6-2.3C212.3,105.5,211.5,103.6,211.5,101.4z M215.6,101.4c0,1.2,0.4,2.2,1.2,3s1.8,1.2,3,1.2c1.2,0,2.2-0.4,3-1.2c0.8-0.8,1.2-1.8,1.2-3c0-1.2-0.4-2.2-1.2-3c-0.8-0.8-1.8-1.2-3-1.2c-1.2,0-2.2,0.4-3,1.2C216,99.2,215.6,100.2,215.6,101.4z"/><path d="M235.4,99.3v9.5h-4.2v-15h4.2v1.8c1.3-1.5,3-2.2,5-2.2c1.7,0,3.1,0.5,4,1.6s1.4,2.6,1.4,4.5v9.2h-4.2v-8.3c0-1.1-0.3-1.9-0.8-2.4c-0.5-0.5-1.2-0.8-2.1-0.8c-0.6,0-1.3,0.2-1.9,0.6S235.8,98.8,235.4,99.3z"/></g><g fill="#46433E"><path d="M89.9,45.2c0,10.7-7.4,17.8-18.3,17.8h-8.7v13.5H50v-49h21.5C82.7,27.5,89.9,34.5,89.9,45.2z M76.8,45.2c0-4.2-2.5-6.6-6.6-6.6h-7.4v13.3h7.4C74.4,51.9,76.8,49.4,76.8,45.2z"/><path d="M139.7,75.8v0.7h-13.8l-2.8-6.2h-18.5l-2.7,6.2H88.1v-0.7l23-48.8h5.6L139.7,75.8z M109.3,59.2h9l-4.4-12L109.3,59.2z"/><path d="M186.6,27.5v49.1h-5.2l-24.7-25l0.1,8.8v16h-12.6V27.2h5.2l24.8,24.2l-0.2-8.7V27.5H186.6z"/><path d="M228.3,65v11.5h-31.2v-49h30.6v11.4h-17.9v7.3h16.5v11.2h-16.5V65H228.3z"/><path d="M267.7,65v11.5h-30.5v-49H250V65H267.7z"/></g></symbol><symbol id="icon-map" viewBox="0 0 37.05 50.52"><path d="M29.42,3.78A18.54,18.54,0,0,0,18.53.24h0A18.6,18.6,0,0,0,0,18.48,18.4,18.4,0,0,0,3.54,29.67a1.29,1.29,0,0,0,.09.16L17.14,50a1.68,1.68,0,0,0,2.34.43,1.84,1.84,0,0,0,.44-.44l13.5-20.19.09-.16A18.55,18.55,0,0,0,29.42,3.78Zm-1.63,15A9.27,9.27,0,1,1,18.52,9.5a9.27,9.27,0,0,1,9.27,9.27Z" transform="translate(0 -0.24)"/></symbol><symbol id="icon-phone" viewBox="0 0 30 30"><path class="st0" d="M29.4,22.4c-0.1-0.1-0.2-0.2-2.1-1.4c-3.4-2.3-4.1-2.7-4.3-2.8c-0.5-0.2-1.1-0.2-1.8,0c-0.3,0.1-0.9,0.4-1.3,0.6L19.5,19l1.7,1.4l0.3-0.1c0.3-0.2,0.5-0.2,0.8-0.2c0.3,0.2,2,1.3,3.8,2.5l1.9,1.3l0,0c0,0,0,0,0,0.2c0,0.2,0,0.2-0.4,0.8c-0.6,0.7-1.2,1.4-1.8,2c-0.6,0.6-1,0.9-1.3,1.1l-0.1,0.1l-0.1,0c-0.7,0-1.3-0.2-2.1-0.4c-3.3-1.1-7.1-3.8-11.5-8.2c-4.3-4.3-7-8.1-8-11.3C2.3,7.3,2.1,6.7,2.1,6l0-0.3l0-0.1c0.1-0.3,0.3-0.6,0.8-1.1c0.5-0.5,1.2-1.2,2-1.8C5.7,2.1,5.8,2.1,6,2.1c0.1,0,0.1,0,0.1,0c0.1,0.1,0.4,0.6,1,1.4c0.9,1.3,2,3,2.7,4.1L10,7.8v0c0,0.2,0,0.3-0.1,0.5c-0.1,0.2-0.4,0.7-1.4,2.5L7.8,12l0.2,0.4c0.4,0.7,1.3,1.9,2.4,3.1c2.2,2.4,6.2,6,7.9,7.2l0.3,0.2l0.2-0.2c0.5-0.5,0.5-0.6,0.9-0.9l0.3-0.3l-0.7-0.5c-0.5-0.4-1.4-1-1.6-1.2c-1.1-0.9-2.7-2.4-4-3.6c-1.8-1.8-2.8-2.9-3.6-4c0,0-0.1-0.1-0.1-0.1c0-0.1,0.1-0.2,0.2-0.3c0.9-1.6,1.3-2.3,1.4-2.6C12,8.6,12,8.3,12,7.9c0-0.6-0.1-0.8-0.5-1.4C10.8,5.4,8,1.1,7.8,0.8C7.4,0.3,6.8,0,6.2,0C6,0,5.9,0,5.7,0c-0.3,0-0.7,0.2-1,0.3C4.4,0.5,4,0.8,3.3,1.4C2.7,2,2.2,2.3,1.7,2.9C1.2,3.4,0.9,3.8,0.5,4.2C0.2,4.7,0,5.1,0,5.6C0,6.1,0.1,7.1,0.3,8c0.8,3.1,3.1,6.7,6.7,10.6c0.9,1,2.7,2.8,3.6,3.7c2.7,2.5,5,4.3,7.3,5.6c2.2,1.3,4.3,2,6.1,2.1c0.1,0,0.1,0,0.2,0c0.2,0,0.4,0,0.6-0.1c0.9-0.3,2.4-1.7,3.9-3.6c0.6-0.8,0.9-1.2,1-1.7C30.1,23.7,29.9,22.9,29.4,22.4z"/></symbol></svg>