<svg xmlns="http://www.w3.org/2000/svg" viewBox="0 0 50 50" width="50" height="50"><rect fill="none" width="50" height="50"/><path d="M23.34,15.44a2.38,2.38,0,0,0-1.47.58,1,1,0,0,0-.29.42c0,.1-.11.18-.48.32a3.51,3.51,0,0,0-2.34,2.69A12.82,12.82,0,0,0,19,23.8c0,.2,0,.2-.13.09s-.42-.09-.56.19-.08.84.31,1.91A8.33,8.33,0,0,1,19,27.11a.73.73,0,0,0,.16.38,4.55,4.55,0,0,1,.38.83c1,2.81,3.11,5,5.2,5.37s4.82-2.07,6-5.43a3.13,3.13,0,0,1,.35-.75.86.86,0,0,0,.19-.44,10.9,10.9,0,0,1,.34-1.22c.33-1,.41-1.7.24-2a.33.33,0,0,0-.51-.09c-.06.07-.07.05,0-.08a18.77,18.77,0,0,0,.25-4.35c-.37-1.79-2.48-3.25-5.45-3.79A11.78,11.78,0,0,0,23.34,15.44Z"/><path d="M10.22,18.16c-.82.09-1.29.33-1.45.75,0,.13-.17.22-.46.33a2.79,2.79,0,0,0-1.65,1.61,3.08,3.08,0,0,0-.17,1.48,9.86,9.86,0,0,0,.28,2.48c0,.08,0,.1-.16.07s-.23,0-.35.16-.17.5.14,1.39a9.72,9.72,0,0,1,.31,1,.86.86,0,0,0,.19.41,3.38,3.38,0,0,1,.34.71A7.45,7.45,0,0,0,9,31.43a4.87,4.87,0,0,0,1.71,1.15,2.69,2.69,0,0,0,2-.08,7.49,7.49,0,0,0,3.38-4.05,6.49,6.49,0,0,1,.27-.63.82.82,0,0,0,.11-.36,1,1,0,0,1,.13-.37,5.52,5.52,0,0,0,.48-1.79c0-.38-.17-.62-.38-.54s-.1,0-.06-.21a11.55,11.55,0,0,0,.07-3.44c-.32-1.22-1.77-2.24-3.92-2.75a14.25,14.25,0,0,0-2.11-.26Z"/><path d="M36.93,18.16a4.12,4.12,0,0,0-.7.14c-.36.11-.76.46-.76.66s0,.15-.09.15a3.55,3.55,0,0,0-.64.27c-1.58.79-1.94,2.16-1.4,5.31,0,.21,0,.25-.06.21s-.37.14-.42.41a4.18,4.18,0,0,0,.4,1.65,1.56,1.56,0,0,1,.18.53.69.69,0,0,0,.11.35,3.75,3.75,0,0,1,.22.5,11.45,11.45,0,0,0,.91,1.82,6.45,6.45,0,0,0,2.41,2.25,2.21,2.21,0,0,0,1.15.31,2,2,0,0,0,1-.12A5.09,5.09,0,0,0,41,31.35a8.39,8.39,0,0,0,1.84-3,5.25,5.25,0,0,1,.26-.58.67.67,0,0,0,.1-.32,1,1,0,0,1,.14-.42,4.94,4.94,0,0,0,.47-1.74c0-.44-.15-.65-.4-.57s-.17.07,0-.82a8.55,8.55,0,0,0,0-2.9c-.34-1.1-1.3-1.88-3-2.45A8.73,8.73,0,0,0,36.93,18.16Z"/><path d="M7.54,33c-.63.33-1.75.79-3.79,1.57-1.7.64-2.5,1.25-3,2.28A8.82,8.82,0,0,0,0,40.51l0,1H9.83l.08-.55a7.54,7.54,0,0,1,1.19-3.15,8,8,0,0,1,1.6-1.5,16.75,16.75,0,0,1,3.4-1.51,7.22,7.22,0,0,0,1.67-.71,8.22,8.22,0,0,0-1.3-.65c-.73-.33-1.37-.63-1.43-.68s-.15,0-.35.11a4.6,4.6,0,0,1-1.21.77,3.67,3.67,0,0,1-1.9.42,4.4,4.4,0,0,1-2.77-1,5.14,5.14,0,0,0-.54-.37Z"/><path d="M34.22,33c-.41.2-1,.48-1.37.62a2.7,2.7,0,0,0-.63.3s1.64.74,3,1.28a15,15,0,0,1,2.41,1.21,6.86,6.86,0,0,1,1.74,1.79,9.13,9.13,0,0,1,1,3l0,.26H50l0-1.07c-.08-2.23-.48-3.44-1.44-4.39-.6-.6-1.24-.94-3.48-1.83-.91-.36-2.06-.85-2.54-1.09l-.89-.43-.34.26a4.47,4.47,0,0,1-5.74.11,5.14,5.14,0,0,0-.54-.37Z"/><path d="M20.46,33.82a34.12,34.12,0,0,1-4.14,1.77c-3.22,1.2-4.13,1.82-4.84,3.28a10.83,10.83,0,0,0-.86,4.48l0,1.24H39.68v-.42a16.94,16.94,0,0,0-.52-4.1,4.71,4.71,0,0,0-1.34-2.29c-.81-.8-1.34-1.09-3.94-2.13-1.12-.45-2.62-1.11-3.35-1.46l-1.31-.64-.35.29a7,7,0,0,1-2,1.19,5.3,5.3,0,0,1-5.24-1,7.43,7.43,0,0,0-.68-.47A3.71,3.71,0,0,0,20.46,33.82Z"/></svg>