<svg xmlns="http://www.w3.org/2000/svg" viewBox="0 0 200 200" width="50" height="50"><rect fill="none" width="200" height="200"/><polygon points="60.52 134.42 54.93 128.84 31.71 152.06 20.82 141.17 15.24 146.75 31.84 163.35 60.52 134.42"/><path d="M37.88,107.55a37.5,37.5,0,1,0,37.5,37.5A37.49,37.49,0,0,0,37.88,107.55Zm0,67.1a29.61,29.61,0,1,1,29.6-29.6A29.6,29.6,0,0,1,37.88,174.65Z"/><path d="M162.17,27,77,66.75v27L61,86.5V59.65l85.26-40-34.44-16L23.17,44.55v58a45,45,0,0,1,56,60.37l32.35,14.37h0l88.45-39V44.56Zm11.31,46.34,10.91,11.39-4.9,2.34V118l-10.86,5V92.29l-6.06,2.9Zm-35.8,17.1,11.5,10.77-6.08,2.9v30l-10.86,5V109.34l-6.07,2.89Zm53.4,34.57-68.76,30.08v-4.78l68.76-30.08Z"/></svg>