<svg xmlns="http://www.w3.org/2000/svg" viewBox="0 0 200 200" width="50" height="50"><rect fill="none" width="200" height="200"/><rect x="94.29" y="43.73" width="10" height="111.25" rx="3.27" transform="translate(99.34 -41.11) rotate(45)"/><path d="M100,116.57,93,123.64l2.22,2.3A10,10,0,0,1,94.94,140L59.36,174.39a10,10,0,0,1-14.09-.25l-20-20.69a10,10,0,0,1,.25-14.09L61.11,105A10,10,0,0,1,68,102.21h.18a9.87,9.87,0,0,1,7,3l.71.74L83,98.92l-.6-.62a20,20,0,0,0-28.23-.49L18.59,132.17a20,20,0,0,0-.49,28.23l20,20.69a19.83,19.83,0,0,0,14,6.09h.36a19.89,19.89,0,0,0,13.86-5.61l35.58-34.35a20,20,0,0,0,.49-28.24Z"/><path d="M182,39.51,162,18.83a20,20,0,0,0-28.23-.5L98.17,52.69a20,20,0,0,0-.49,28.23l1.63,1.69,7.07-7.07L104.87,74a10,10,0,0,1,.25-14.09l35.57-34.35a10,10,0,0,1,14.1.24l20,20.69a10,10,0,0,1-.25,14.09L138.94,94.91a10,10,0,0,1-14.09-.25l-1.43-1.47-7.07,7.07,1.31,1.35a20,20,0,0,0,28.23.49l35.58-34.35A20,20,0,0,0,182,39.51Z"/></svg>