<svg width="18" height="16" viewBox="0 0 18 16" fill="white" xmlns="http://www.w3.org/2000/svg"><path d="M13.1667 0.916626H4.83335C2.33335 0.916626 0.666687 2.16663 0.666687 5.08329V10.9166C0.666687 13.8333 2.33335 15.0833 4.83335 15.0833H13.1667C15.6667 15.0833 17.3334 13.8333 17.3334 10.9166V5.08329C17.3334 2.16663 15.6667 0.916626 13.1667 0.916626ZM13.5584 5.99163L10.95 8.07496C10.4 8.51663 9.70002 8.73329 9.00002 8.73329C8.30002 8.73329 7.59169 8.51663 7.05002 8.07496L4.44169 5.99163C4.17502 5.77496 4.13335 5.37496 4.34169 5.10829C4.55835 4.84163 4.95002 4.79163 5.21669 5.00829L7.82502 7.09163C8.45835 7.59996 9.53335 7.59996 10.1667 7.09163L12.775 5.00829C13.0417 4.79163 13.4417 4.83329 13.65 5.10829C13.8667 5.37496 13.825 5.77496 13.5584 5.99163Z"/></svg>