<svg width="34" height="29" viewBox="0 0 34 29" fill="none" xmlns="http://www.w3.org/2000/svg"><path d="M15.7565 22.9928C15.0827 22.4846 14.1065 22.9652 14.1065 23.8214V24.7687C13.2622 24.7218 12.4372 24.6596 11.6548 24.5726C4.95158 23.8794 2.76255 22.2388 2.76255 21.75C2.76255 21.6008 3.21493 20.8979 5.41359 20.1633C5.8701 20.0569 6.20698 19.6454 6.20698 19.1538C6.20698 18.473 5.49472 17.9593 4.84845 18.1692C2.09566 19.0737 0.700012 20.2779 0.700012 21.75C0.700012 25.1554 8.21313 26.2988 11.4362 26.633C12.2887 26.7269 13.1838 26.796 14.1065 26.8457V27.9642C14.1065 28.8204 15.0827 29.2996 15.7565 28.7928L18.5066 26.7214C19.0538 26.3085 19.0566 25.4785 18.5066 25.0643L15.7565 22.9928Z" fill="#498837"/><path d="M29.5447 18.1689C29.0002 17.9908 28.4213 18.2891 28.2439 18.8332C28.0679 19.3772 28.3636 19.9614 28.9053 20.1395C31.1356 20.8687 31.6375 21.5647 31.6375 21.7511C31.6375 22.3629 28.8091 24.0683 21.8088 24.6552C21.2409 24.7036 20.8202 25.2035 20.8669 25.7738C20.9123 26.3193 21.3771 26.7612 21.9807 26.7197C25.5035 26.4215 33.7 25.3457 33.7 21.7497C33.7 20.2762 32.3016 19.0707 29.5447 18.1689Z" fill="#498837"/><path d="M17.0026 0.0850831C17.1288 0.0307696 17.2718 0.0307698 17.3979 0.0850833L25.7584 3.68358C26.1615 3.85708 26.1615 4.42861 25.7584 4.60211L17.3979 8.2006C17.2718 8.25491 17.1288 8.25491 17.0026 8.2006L8.64213 4.60211C8.23903 4.42861 8.23903 3.85708 8.64213 3.68358L17.0026 0.0850831Z" fill="#498837"/><path d="M18.8776 10.5678C18.6941 10.6467 18.5753 10.8273 18.5753 11.027V17.981C18.5753 18.3403 18.9429 18.5823 19.2729 18.4403L26.523 15.3202C26.7065 15.2413 26.8254 15.0607 26.8254 14.8609V7.90697C26.8254 7.54769 26.4578 7.30568 26.1278 7.4477L18.8776 10.5678Z" fill="#498837"/><path d="M15.8252 11.027C15.8252 10.8273 15.7064 10.6467 15.5229 10.5678L8.27276 7.4477C7.94274 7.30568 7.57511 7.54769 7.57511 7.90697V14.8609C7.57511 15.0607 7.69399 15.2413 7.87746 15.3202L15.1276 18.4403C15.4576 18.5823 15.8252 18.3403 15.8252 17.981V11.027Z" fill="#498837"/></svg>