<svg xmlns="http://www.w3.org/2000/svg" viewBox="0 0 30 30" width="30" height="30"><path class="st0" d="M29.4,22.4c-0.1-0.1-0.2-0.2-2.1-1.4c-3.4-2.3-4.1-2.7-4.3-2.8c-0.5-0.2-1.1-0.2-1.8,0c-0.3,0.1-0.9,0.4-1.3,0.6L19.5,19l1.7,1.4l0.3-0.1c0.3-0.2,0.5-0.2,0.8-0.2c0.3,0.2,2,1.3,3.8,2.5l1.9,1.3l0,0c0,0,0,0,0,0.2c0,0.2,0,0.2-0.4,0.8c-0.6,0.7-1.2,1.4-1.8,2c-0.6,0.6-1,0.9-1.3,1.1l-0.1,0.1l-0.1,0c-0.7,0-1.3-0.2-2.1-0.4c-3.3-1.1-7.1-3.8-11.5-8.2c-4.3-4.3-7-8.1-8-11.3C2.3,7.3,2.1,6.7,2.1,6l0-0.3l0-0.1c0.1-0.3,0.3-0.6,0.8-1.1c0.5-0.5,1.2-1.2,2-1.8C5.7,2.1,5.8,2.1,6,2.1c0.1,0,0.1,0,0.1,0c0.1,0.1,0.4,0.6,1,1.4c0.9,1.3,2,3,2.7,4.1L10,7.8v0c0,0.2,0,0.3-0.1,0.5c-0.1,0.2-0.4,0.7-1.4,2.5L7.8,12l0.2,0.4c0.4,0.7,1.3,1.9,2.4,3.1c2.2,2.4,6.2,6,7.9,7.2l0.3,0.2l0.2-0.2c0.5-0.5,0.5-0.6,0.9-0.9l0.3-0.3l-0.7-0.5c-0.5-0.4-1.4-1-1.6-1.2c-1.1-0.9-2.7-2.4-4-3.6c-1.8-1.8-2.8-2.9-3.6-4c0,0-0.1-0.1-0.1-0.1c0-0.1,0.1-0.2,0.2-0.3c0.9-1.6,1.3-2.3,1.4-2.6C12,8.6,12,8.3,12,7.9c0-0.6-0.1-0.8-0.5-1.4C10.8,5.4,8,1.1,7.8,0.8C7.4,0.3,6.8,0,6.2,0C6,0,5.9,0,5.7,0c-0.3,0-0.7,0.2-1,0.3C4.4,0.5,4,0.8,3.3,1.4C2.7,2,2.2,2.3,1.7,2.9C1.2,3.4,0.9,3.8,0.5,4.2C0.2,4.7,0,5.1,0,5.6C0,6.1,0.1,7.1,0.3,8c0.8,3.1,3.1,6.7,6.7,10.6c0.9,1,2.7,2.8,3.6,3.7c2.7,2.5,5,4.3,7.3,5.6c2.2,1.3,4.3,2,6.1,2.1c0.1,0,0.1,0,0.2,0c0.2,0,0.4,0,0.6-0.1c0.9-0.3,2.4-1.7,3.9-3.6c0.6-0.8,0.9-1.2,1-1.7C30.1,23.7,29.9,22.9,29.4,22.4z"/></svg>