<svg width="64" height="64" viewBox="0 0 64 64" fill="#000000" xmlns="http://www.w3.org/2000/svg"><path d="M48.8,32.6c-0.6,0-1-0.5-1-1c0-0.3,0.1-0.5,0.3-0.7l9.8-10c0.4-0.4,0.4-1,0-1.4l-0.7-0.7l-1.4,1.4L32,44.5c-1,1.1-2.6,1.5-4,1l-8.1,2.8l-1.2,1.3c-0.4,0.4-1,0.4-1.4,0c-0.4-0.4-0.4-1,0-1.4l1.2-1.3l2.6-8.2c-0.5-1.4-0.1-3,1-4l23.8-24.2l3.5-3.6c1.3-1.3,3.3-1.6,4.8-0.7c0,0,2.2-2.2,2.2-2.2c0.8-0.8,2-0.8,2.8,0c0,0,0,0,0,0l2.9,2.8c0.8,0.8,0.8,2,0,2.8l-2.2,2.2c0.9,1.6,0.7,3.6-0.6,4.9l-0.7,0.7l0.7,0.7c1.2,1.2,1.2,3.1,0,4.2l-9.8,10C49.4,32.5,49.1,32.6,48.8,32.6z M22.5,40.8l-1.6,5.1l5-1.7L22.5,40.8z M48,11.1l-1.4,1.4l7.1,7l1.4-1.4L48,11.1z"/><path d="M32,61.5C15.7,61.5,2.5,48.3,2.5,32C2.5,15.7,15.7,2.5,32,2.5c4.1,0,8.1,0.8,11.8,2.5c0.8,0.3,1.1,1.2,0.8,2c-0.3,0.8-1.2,1.1-2,0.8C39.3,6.2,35.7,5.5,32,5.5C17.4,5.5,5.5,17.4,5.5,32S17.4,58.5,32,58.5S58.5,46.6,58.5,32c0-1.2-0.1-2.5-0.3-3.7c-0.1-0.8,0.5-1.6,1.3-1.7c0.8-0.1,1.6,0.5,1.7,1.3c0.2,1.3,0.3,2.7,0.3,4.1C61.5,48.3,48.3,61.5,32,61.5z"/></svg>