<?xml version="1.0" encoding="utf-8"?>
<!-- Generator: Adobe Illustrator 23.0.1, SVG Export Plug-In . SVG Version: 6.00 Build 0)  -->
<svg version="1.1" id="Слой_1" xmlns="http://www.w3.org/2000/svg" xmlns:xlink="http://www.w3.org/1999/xlink" x="0px" y="0px"
	 viewBox="0 0 70 70" style="enable-background:new 0 0 70 70;" xml:space="preserve">
<style type="text/css">
	.st0{display:none;fill:#00D435;}
	.st1{display:none;fill:#FFFFFF;}
	.st2{display:none;fill:#FF3E41;}
	.st3{fill:#FF3E41;}
	.st4{display:none;fill:#FF3E41;stroke:#FFFFFF;stroke-width:4;stroke-miterlimit:10;}
	.st5{display:none;}
	.st6{display:inline;fill:#FF3E41;}
	.st7{display:inline;fill:#FFFFFF;}
	.st8{fill:#FFFFFF;}
</style>
<rect y="0" class="st0" width="70" height="70"/>
<path class="st1" d="M6,46.7h5.9V33.1c2.8,4.7,5.5,9.3,8.2,13.9c2.7-4.6,5.5-9.3,8.2-13.9v13.6h4.5h1.4h16.1l-2.8-4.5H34.3v-5.1
	h10.5L42,32.6h-7.8v-4.9h5L36.6,23c-2.7,0-5.4,0-8.2,0l-8.2,14.4L11.9,23H6V46.7L6,46.7z M66,23c-9.5,0-18.9,0-28.4,0l2.8,4.5h6.8
	H49V42l3,4.9l3-4.9V27.6h1.6h6.8L66,23L66,23z"/>
<path class="st2" d="M0,68.3h14.7v-25c0,0,4.1-4.6,6.2-1c4.7,8.4,9.4,16.5,14.1,25.4c6.8-12.6,13.6-24,20.3-36.7v37.2H70V1
	C63.3,1,0,1,0,1V68.3L0,68.3z"/>
<path class="st2" d="M0,68.3h14.7v-25c0,0,4.1-4.6,6.2-1c4.7,8.4,9.4,16.5,14.1,25.4c6.8-12.6,13.6-24,20.3-36.7v37.2H70V1
	C63.3,1,0,1,0,1V68.3L0,68.3z"/>
<path class="st2" d="M-0.1,67.6h14.7V30.4c6.8,12.8,13.5,25.3,20.3,38.1c6.8-12.6,13.6-25.4,20.3-38.1v37.2h14.7V2.9
	c-6.7,0-7.8,0-14.7,0L34.9,42.1L14.6,2.9H-0.1V67.6L-0.1,67.6z"/>
<path class="st2" d="M-0.1,67.6h14.7V30.4c6.8,12.8,13.5,25.3,20.3,38.1c6.8-12.6,13.6-25.4,20.3-38.1v37.2h14.7V2.9
	c-6.7,0-7.8,0-14.7,0L34.9,42.1L14.6,2.9H-0.1V67.6L-0.1,67.6z"/>
<g>
	<path class="st3" d="M8.3,46.2V19.8c0-4.5,3.6-8.1,8.1-8.1h2.8l-4.6-8.8H-0.1v64.7h14.7V54.1C11,53.3,8.3,50.1,8.3,46.2z"/>
	<path class="st3" d="M27.3,54.3c2.5,4.7,5,9.4,7.6,14.2c2.5-4.7,5.1-9.5,7.6-14.2H27.3z"/>
	<path class="st3" d="M55.2,2.9l-4.6,8.8h3.7c4.5,0,8.1,3.6,8.1,8.1v26.4c0,4.2-3.1,7.6-7.2,8v13.4h14.7V2.9
		C63.2,2.9,62.1,2.9,55.2,2.9z"/>
</g>
<path class="st4" d="M56.1,52.3H14.6c-3.4,0-6.1-2.7-6.1-6.1V19.8c0-3.4,2.7-6.1,6.1-6.1h41.5c3.4,0,6.1,2.7,6.1,6.1v26.4
	C62.2,49.6,59.5,52.3,56.1,52.3z"/>
<path class="st3" d="M52.7,50.8H18c-3.1,0-5.6-2.5-5.6-5.6V21c0-3.1,2.5-5.6,5.6-5.6h34.8c3.1,0,5.6,2.5,5.6,5.6v24.2
	C58.3,48.3,55.9,50.8,52.7,50.8z"/>
<g class="st5">
	<path class="st6" d="M54.3,52.3H16.4c-4.3,0-7.8-3.5-7.8-7.8v-23c0-4.3,3.5-7.8,7.8-7.8h37.9c4.3,0,7.8,3.5,7.8,7.8v22.9
		C62.2,48.8,58.7,52.3,54.3,52.3z"/>
	<path class="st7" d="M54.3,54.3H16.4c-5.4,0-9.8-4.4-9.8-9.8v-23c0-5.4,4.4-9.8,9.8-9.8h37.9c5.4,0,9.8,4.4,9.8,9.8v22.9
		C64.2,49.9,59.8,54.3,54.3,54.3z"/>
</g>
<path class="st1" d="M2.2,66.1h9H14h32l-5.5-10.6H14V43.6h20.9L29.4,33H14V21.4h9.9l-5.5-10.6c-5.4,0-10.8,0-16.3,0L2.2,66.1z
	 M76.9,10.8c-18.9,0-37.4,0-56.4,0L26,21.4h13.4H43v34l5.9,11.4l5.9-11.4v-34H58h13.4L76.9,10.8L76.9,10.8z"/>
<g class="st5">
	<path class="st6" d="M67.6,21.8v44.5H10.1V21.8H67.6 M69.6,19.8H8.1v48.5h61.4L69.6,19.8L69.6,19.8z"/>
</g>
<g class="st5">
	<path class="st7" d="M41.6,55.5H-0.7V2.8h71.3l-6.5,12.6H49.7v29.5l-6.8,13.2L41.6,55.5z M36.1,42.9V15.3H12.9v7.4h13.3l6.5,12.6
		H12.9v7.6H36.1z"/>
	<path class="st7" d="M68.1,4.2L68.1,4.2L68.1,4.2 M68.1,4.2l-4.9,9.6H51h-2.8v30.6l-5.3,10.3l-5.3-10.3V13.8h-3.2H22.2l-4.9-9.6
		C34.3,4.2,51,4.2,68.1,4.2 M0.8,4.2c5,0,9.8,0,14.7,0l4.9,9.6h-9v10.4h13.9l4.9,9.6H11.4v10.6h23.9l4.9,9.6H11.4H8.8h-8L0.8,4.2
		 M73,1.2h-4.9H17.3h-4.9H8.2H0.8h-3v3v49.7v3h3h8.1h2.6h28.8h0.5l2.2,4.2l2.2-4.2l0,0l0,0l0.5-0.9L51,45.7l0.3-0.6v-0.7V16.8h11.9
		H65l0.8-1.6l4.9-9.6L73,1.2L73,1.2z M25.3,16.8h9.1h0.2v18.9l-1.7-3.3L28,22.8l-0.8-1.6h-1.8h-11v-4.4h6H25.3L25.3,16.8L25.3,16.8z
		 M14.4,36.7h15.8h4.4v4.6H14.4V36.7L14.4,36.7z"/>
</g>
<g class="st5">
	<path class="st7" d="M39.1,46.5H18V19.4h36.5l-3.8,7.3H44v14.1l-3.9,7.6L39.1,46.5z M36.1,39.1V26.7H25.9v2.5h6.3l3.8,7.3H25.9V39
		L36.1,39.1L36.1,39.1z"/>
	<path class="st6" d="M52.5,20.8L52.5,20.8L52.5,20.8 M52.5,20.8l-2.4,4.7h-5.9h-1.4v15l-2.6,5l-2.6-5v-15H36h-6l-2.5-4.7
		C35.9,20.8,44.1,20.8,52.5,20.8 M19.3,20.8c2.4,0,4.8,0,7.2,0l2.4,4.7h-4.4v5.1h6.8l2.4,4.7h-9.3v5.2h11.7l2.4,4.7h-14h-1.2h-4
		V20.8 M54.6,19.4l-2.1-1.1h-25h-4.3H23h-3.6h-2.6v2.6v24.5V48h2.6h4h1.2h13.7l2,0.8l1.5-0.8H43l-0.6-1.2l2.5-5l0.3-0.6v-0.7V28.1
		H50h1.6l0.7-1.4l2.4-4.7l1.1-2L54.6,19.4z M33.3,28.1h1.6v3.5l-1.2-2.2L33,28.1H33.3L33.3,28.1L33.3,28.1z M27.2,38h6.6h1l0,0H27.2
		L27.2,38L27.2,38z"/>
</g>
<g class="st5">
	<path class="st7" d="M39.1,46.5H18V19.4h36.5l-3.8,7.3H44v14.1l-3.9,7.6L39.1,46.5z M36.1,39.1V26.7H25.9v2.5h6.3l3.8,7.3H25.9V39
		L36.1,39.1L36.1,39.1z"/>
	<path class="st6" d="M52.5,20.8L52.5,20.8L52.5,20.8 M53.5,20.8l-2.4,4.7h-5.9h-1.4v15l-2.6,5l-2.6-5v-15H37h-6l-2.5-4.7
		C36.9,20.8,45.1,20.8,53.5,20.8 M19.3,20.8c2.4,0,4.8,0,7.2,0l2.4,4.7h-4.4v5.1h6.8l2.4,4.7h-9.3v5.2h11.7l2.4,4.7h-14h-1.2h-4
		V20.8 M54.6,19.4l-2.1-1.1h-25h-4.3H23h-3.6h-2.6v2.6v24.5V48h2.6h4h1.2h13.7l2,0.8l1.5-0.8H43l-0.6-1.2l2.5-5l0.3-0.6v-0.7V28.1
		H50h1.6l0.7-1.4l2.4-4.7l1.1-2L54.6,19.4z M33.3,28.1h1.6v3.5l-1.2-2.2L33,28.1H33.3L33.3,28.1L33.3,28.1z M27.2,38h6.6h1l0,0H27.2
		L27.2,38L27.2,38z"/>
</g>
<g>
	<path class="st8" d="M19.3,43.9h3.6H24h12.8l-2.2-4.2H24V35h8.4l-2.2-4.2H24v-4.6h4l-2.2-4.3c-2.2,0-4.3,0-6.5,0V43.9z M52.3,21.8
		c-7.6,0-15,0-22.6,0l2.2,4.2h5.4h1.5v13.7l2.4,4.6l2.4-4.6V26h1.2H50L52.3,21.8L52.3,21.8z"/>
</g>
</svg>
