<?xml version="1.0" encoding="utf-8"?>
<!-- Generator: Adobe Illustrator 23.0.1, SVG Export Plug-In . SVG Version: 6.00 Build 0)  -->
<svg version="1.1" id="Слой_1" xmlns="http://www.w3.org/2000/svg" xmlns:xlink="http://www.w3.org/1999/xlink" x="0px" y="0px"
	 viewBox="0 0 70 70" style="enable-background:new 0 0 70 70;" xml:space="preserve">
<style type="text/css">
	.st0{display:none;fill:#FF3E41;}
	.st1{display:none;fill:#FFFFFF;}
	.st2{fill:#FF3E41;}
	.st3{fill:#FFFFFF;}
	.st4{display:none;}
	.st5{display:inline;fill:#FF3E41;}
</style>
<rect class="st0" width="70" height="70"/>
<path class="st1" d="M6,46.7h5.9V33.1c2.8,4.7,5.5,9.3,8.2,13.9c2.7-4.6,5.5-9.3,8.2-13.9v13.6h4.5h1.4h16.1l-2.8-4.5H34.3v-5.1
	h10.5l-2.8-4.5h-7.8v-4.9h5L36.6,23c-2.7,0-5.4,0-8.2,0l-8.2,14.4L11.9,23H6L6,46.7L6,46.7z M66,23c-9.5,0-18.9,0-28.4,0l2.8,4.5
	h6.8H49v14.5l3,4.9l3-4.9V27.6h1.6h6.8L66,23L66,23z"/>
<path class="st2" d="M0,68.3h14.7V31.1C21.5,43.9,28.2,55,35,67.8c6.8-12.6,13.6-24,20.3-36.7v37.2H70V3.6c-6.7,0-7.8,0-14.7,0
	L35,42.8L14.7,3.6H0L0,68.3L0,68.3z"/>
<path class="st1" d="M2.2,66.1h9H14h32l-5.5-10.6H14V43.6h20.9L29.4,33H14V21.4h9.9l-5.5-10.6c-5.4,0-10.8,0-16.3,0L2.2,66.1z
	 M76.9,10.8c-18.9,0-37.4,0-56.4,0L26,21.4h13.4H43v34l5.9,11.4l5.9-11.4v-34H58h13.4L76.9,10.8L76.9,10.8z"/>
<path class="st3" d="M33.6,43.8H12.9c-0.8,0-1.4-0.3-1.4-0.7v-7.8v-0.1c0-0.4,0.6-0.7,1.4-0.7h20.7c0.8,0,1.4,0.3,1.4,0.7v7.9
	C35,43.5,34.4,43.8,33.6,43.8z"/>
<path class="st3" d="M26,23.4H12.4c-0.5,0-0.9-0.3-0.9-0.7v-7.8v-0.1c0-0.4,0.4-0.7,0.9-0.7H26c0.5,0,0.9,0.3,0.9,0.7v7.9
	C26.9,23.1,26.5,23.4,26,23.4z"/>
<g class="st4">
	<path class="st5" d="M67.6,21.8v44.5H10.1V21.8H67.6 M69.6,19.8H8.1v48.5h61.4V19.8L69.6,19.8z"/>
</g>
<g>
	<path class="st3" d="M41.6,55.5H-0.7l0-52.7h71.3l-6.5,12.6H49.7v29.5l-6.8,13.2L41.6,55.5z M36.1,42.9V15.3H12.9v7.4h13.3
		l6.5,12.6H12.9v7.6H36.1z"/>
	<path class="st3" d="M68.1,4.2C68.1,4.2,68.1,4.2,68.1,4.2L68.1,4.2 M68.1,4.2l-4.9,9.6H51h-2.8v30.6l-5.3,10.3l-5.3-10.3V13.8
		h-3.2H22.2l-4.9-9.6C34.3,4.2,51,4.2,68.1,4.2 M0.8,4.2c5,0,9.8,0,14.7,0l4.9,9.6h-9v10.4h13.9l4.9,9.6H11.4v10.6h23.9l4.9,9.6
		H11.4H8.8H0.8L0.8,4.2 M73,1.2h-4.9H17.3h-4.9l-4.2,0l-7.4,0h-3l0,3l0,49.7l0,3h3h8.1h2.6h28.8h0.5l2.2,4.2l2.2-4.2h0l0,0l0.5-0.9
		l5.3-10.3l0.3-0.6v-0.7V16.8h11.9H65l0.8-1.6l4.9-9.6L73,1.2L73,1.2z M25.3,16.8h9.1h0.2v18.9l-1.7-3.3l-4.9-9.6l-0.8-1.6h-1.8
		H14.4v-4.4h6L25.3,16.8L25.3,16.8L25.3,16.8z M14.4,36.7h15.8h4.4v4.6H14.4V36.7L14.4,36.7z"/>
</g>
<g>
	<path class="st2" d="M0.2,54h8.1h2.6h28.8l-4.9-9.6H10.8V33.7h18.8l-4.9-9.6H10.8V13.8h9l-4.9-9.6c-4.9,0-9.7,0-14.7,0L0.2,54z
		 M67.5,4.2c-17,0-33.8,0-50.8,0l4.9,9.6h12.1H37v30.6l5.3,10.3l5.3-10.3V13.8h2.8h12.1L67.5,4.2L67.5,4.2z"/>
</g>
</svg>
